<?xml version="1.0" encoding="utf-8"?>
<!-- Generator: Adobe Illustrator 19.1.0, SVG Export Plug-In . SVG Version: 6.00 Build 0)  -->
<svg version="1.1" id="svg" xmlns="http://www.w3.org/2000/svg" xmlns:xlink="http://www.w3.org/1999/xlink" x="0px" y="0px"
	 width="73px" height="98px" viewBox="-626.9 334.8 73 98" enable-background="new -626.9 334.8 73 98" xml:space="preserve">
<path fill-rule="evenodd" clip-rule="evenodd" fill="#D7D7D7" d="M-557.9,334.8h-65c-2.2,0-4,1.8-4,4v90c0,2.2,1.8,4,4,4h65
	c2.2,0,4-1.8,4-4v-90C-553.9,336.6-555.7,334.8-557.9,334.8z"/>
<g>
	<g>
		<path fill-rule="evenodd" clip-rule="evenodd" fill="#202121" d="M-571.1,413.7c-0.2,7.5-5.7,9-19.3,9c-12.2,0-19-1.3-19.2-8.8
			c-0.2-8.4-0.2-23.8-0.2-29.7c0-7.9,0-22.6,0.2-31c0.2-7.5,7.2-7.5,19.2-7.5c12.8,0,19,0,19.2,7.5c0.2,8.4,0.2,23.2,0.2,31
			C-571,389.6-570.9,405.3-571.1,413.7z"/>
	</g>
	<g>
		<path fill-rule="evenodd" clip-rule="evenodd" fill="#4A4B4C" d="M-607.8,353.2h34.8v62.1h-34.8V353.2z"/>
		<path opacity="8.000000e-02" fill-rule="evenodd" clip-rule="evenodd" fill="#FFFFFF" d="M-573,353.2v62.1h-0.6l-26-62.1H-573z"/>
	</g>
	<path fill-rule="evenodd" clip-rule="evenodd" fill="#666666" d="M-577.1,350.2c0.4,0,0.7,0.3,0.7,0.7c0,0.4-0.3,0.7-0.7,0.7
		s-0.7-0.3-0.7-0.7C-577.8,350.5-577.5,350.2-577.1,350.2z"/>
	<g>
		<g>
			<path fill-rule="evenodd" clip-rule="evenodd" fill="#595A5B" d="M-587.4,417.9h-6c-0.4,0-0.7,0.2-0.7,0.6l0.2,1.1
				c0.1,0.5,0.5,0.6,1.2,0.6h4.7c0.7,0,1-0.3,1.2-0.6l0.2-1.1C-586.7,418.1-586.9,417.9-587.4,417.9z M-593.2,349.3h5.5
				c0.3,0,0.5-0.2,0.5-0.5s-0.2-0.5-0.5-0.5h-5.5c-0.3,0-0.5,0.2-0.5,0.5S-593.4,349.3-593.2,349.3z"/>
		</g>
	</g>
</g>
<g>
	<polygon fill="#FFFFFF" points="-581.3,391.4 -598.9,391.6 -599.6,380 -580.7,380 	"/>
	<path fill="#82AD3A" d="M-584.5,393.3h-11.3c-2.8,0-5.1-2.3-5.1-5.2v-11.3c0-2.8,2.3-5.1,5.1-5.1h11.3c2.8,0,5.1,2.3,5.1,5.1v10.8
		C-579.3,390.5-581.6,393.3-584.5,393.3z M-595.1,385.9v0.3v1.4c0,2,2.2,3.7,4.9,3.7h0.1c2.7,0,5-1.8,5-3.8v-1.3v-0.4v-1.6h-10
		V385.9z M-589.4,381.1c0-0.4-0.3-0.6-0.6-0.6s-0.6,0.3-0.6,0.6c0,0.3,0.2,0.5,0.4,0.6v2.2h0.5v-2.2
		C-589.5,381.6-589.4,381.4-589.4,381.1z M-596.2,385.9v-1.1c0-0.1-0.2-0.2-0.3-0.2c-0.1,0-0.3,0.1-0.3,0.2v1.1h-0.8v-0.6
		c0-0.1,0-0.2-0.1-0.2c-0.1,0-0.1,0.1-0.1,0.2v0.6h-0.9c-0.1,0-0.2,0-0.2,0.1c0,0.1,0.1,0.1,0.2,0.1h0.9v0.7c0,0.1,0,0.2,0.1,0.2
		c0.1,0,0.1-0.1,0.1-0.2v-0.7h0.8v1.2c0,0.1,0.2,0.2,0.3,0.2c0.1,0,0.3-0.1,0.3-0.2v-1.2h0.8v-0.3H-596.2z M-581.5,385.9h-0.7v-0.6
		c0-0.1-0.2-0.2-0.3-0.2c-0.1,0-0.3,0.1-0.3,0.2v0.6h-0.8v-1.1c0-0.1,0-0.2-0.1-0.2c-0.1,0-0.1,0.1-0.1,0.2v1.1h-1.1v0.3h1.1v1.2
		c0,0.1,0,0.2,0.1,0.2c0.1,0,0.1-0.1,0.1-0.2v-1.2h0.8v0.7c0,0.1,0.2,0.2,0.3,0.2c0.1,0,0.3-0.1,0.3-0.2v-0.7h0.7
		c0.1,0,0.2,0,0.2-0.1C-581.3,385.9-581.4,385.9-581.5,385.9z M-587.9,388.5c-0.8,0-1.4-0.6-1.4-1.4c0-0.7,0.6-1.4,1.4-1.4
		c0.8,0,1.4,0.6,1.4,1.4C-586.5,387.9-587.1,388.5-587.9,388.5z M-587.6,386.4c-0.1,0-0.2-0.1-0.3-0.1c-0.4,0-0.8,0.3-0.8,0.8
		c0,0.3,0.2,0.6,0.5,0.7c0.1,0,0.2,0.1,0.3,0.1c0.3,0,0.6-0.2,0.7-0.5c0,0,0,0,0,0c0,0,0,0,0-0.1c0,0,0,0,0,0c0,0,0,0,0-0.1
		c0,0,0,0,0,0c0,0,0,0,0,0c0,0,0,0,0,0C-587.1,386.8-587.3,386.5-587.6,386.4z M-587.1,387.1c0-0.3-0.2-0.6-0.5-0.7
		C-587.3,386.5-587.1,386.8-587.1,387.1z M-592.6,389c-1.1,0-1.9-0.8-1.9-1.9c0-1,0.9-1.9,1.9-1.9c1.1,0,1.9,0.8,1.9,1.9
		C-590.7,388.2-591.6,389-592.6,389z M-592.6,385.8c-0.7,0-1.3,0.6-1.3,1.3s0.6,1.3,1.3,1.3c0.7,0,1.3-0.6,1.3-1.3
		S-591.9,385.8-592.6,385.8z"/>
	<g>
		<g>
			<path fill="#373B44" d="M-588.9,378.3c-0.4-0.2-0.8-0.2-1.3-0.2c-0.4,0-0.8,0.1-1.3,0.2c-0.4,0.2-0.8,0.4-1.1,0.6
				c0,0-0.1,0.1-0.1,0.1c0,0.1,0.1,0.2,0.4,0.5c0.3,0.3,0.4,0,0.5,0c0,0,0.1,0,0.2-0.1c0.1-0.1,0.3-0.2,0.5-0.3
				c0.2-0.1,0.5-0.1,0.7-0.1c0.2,0,0.5,0,0.7,0.1c0.2,0.1,0.4,0.2,0.5,0.3c0.1,0.1,0.2,0.1,0.2,0.1c0.1,0,0.2,0.3,0.5,0
				s0.4-0.4,0.4-0.5c0,0,0-0.1-0.1-0.1C-588.1,378.6-588.5,378.4-588.9,378.3z M-588.1,376.4c-0.7-0.3-1.4-0.4-2-0.4
				c-0.7,0-1.4,0.1-2,0.4c-0.7,0.3-1.2,0.6-1.7,1.1c0,0-0.1,0.1-0.1,0.1c0,0.1,0.1,0.2,0.4,0.5c0.3,0.3,0.4,0,0.5,0
				c0,0,0.1,0,0.2-0.1c0.1-0.1,0.2-0.2,0.4-0.3c0.2-0.1,0.4-0.2,0.6-0.3c0.2-0.1,0.5-0.2,0.8-0.3c0.3-0.1,0.6-0.1,0.9-0.1
				c0.5,0,1,0.1,1.4,0.3c0.4,0.2,0.9,0.5,1.4,0.8c0,0,0.1,0,0.1,0c0.1,0,0.2,0.3,0.5,0c0.3-0.3,0.4-0.4,0.4-0.5c0,0,0-0.1-0.1-0.1
				C-586.8,377-587.4,376.6-588.1,376.4z M-584.9,376c-0.7-0.7-1.5-1.2-2.4-1.5c-0.9-0.4-1.9-0.5-2.8-0.5c-1,0-1.9,0.2-2.8,0.5
				c-0.9,0.4-1.7,0.9-2.4,1.5c0,0-0.1,0.1-0.1,0.1c0,0.1,0.1,0.2,0.4,0.5c0.3,0.3,0.4,0,0.5,0c0,0,0.1,0,0.1,0c0.6-0.6,1.3-1,2-1.3
				c0.7-0.3,1.4-0.4,2.3-0.4c0.8,0,1.6,0.1,2.3,0.4c0.7,0.3,1.4,0.7,2,1.3c0,0,0.1,0,0.1,0c0.1,0,0.2,0.2,0.5,0
				c0.3-0.3,0.4-0.4,0.4-0.5C-584.9,376.1-584.9,376-584.9,376z"/>
		</g>
	</g>
</g>
<g>
	<circle fill="#1A42C1" cx="-615.1" cy="346.7" r="11.9"/>
</g>
<g>
	<path fill="#FFFFFF" d="M-610.4,343.5l-4.2-4.2h-0.7v5.6l-3.4-3.4l-1,1l4.1,4.1l-4.1,4.1l1,1l3.4-3.4v5.6h0.7l4.2-4.2l-3.2-3.2
		L-610.4,343.5z M-613.8,342.1l1.4,1.4l-1.4,1.4V342.1z M-612.4,349.8l-1.4,1.4v-2.8L-612.4,349.8z M-612.4,349.8"/>
</g>
</svg>
