<?xml version="1.0" standalone="no"?>
<!DOCTYPE svg PUBLIC "-//W3C//DTD SVG 20010904//EN"
 "http://www.w3.org/TR/2001/REC-SVG-20010904/DTD/svg10.dtd">
<svg version="1.0" xmlns="http://www.w3.org/2000/svg"
 width="128.000000pt" height="128.000000pt" viewBox="0 0 128.000000 128.000000"
 preserveAspectRatio="xMidYMid meet">
<metadata>
Created by potrace 1.13, written by Peter Selinger 2001-2015
</metadata>
<g transform="translate(0.000000,128.000000) scale(0.100000,-0.100000)"
fill="#000000" stroke="none">
<path d="M383 1170 c-17 -10 -37 -28 -42 -39 -7 -13 -11 -179 -11 -499 l0
-480 35 -31 36 -31 230 0 c244 0 275 5 299 49 6 13 10 191 10 504 l0 484 -22
20 c-45 41 -61 43 -285 43 -198 0 -221 -2 -250 -20z m527 -525 l0 -445 -275 0
-275 0 0 445 0 445 275 0 275 0 0 -445z"/>
<path d="M370 645 l0 -435 265 0 265 0 -2 438 -3 437 -2 -432 -3 -433 -255 0
-255 0 0 424 0 425 23 4 c19 4 18 4 -5 6 l-28 1 0 -435z"/>
</g>
</svg>
