<?xml version="1.0" encoding="utf-8"?>
<!-- Generator: Adobe Illustrator 19.1.0, SVG Export Plug-In . SVG Version: 6.00 Build 0)  -->
<svg version="1.1" id="svg" xmlns="http://www.w3.org/2000/svg" xmlns:xlink="http://www.w3.org/1999/xlink" x="0px" y="0px"
	 width="73px" height="101px" viewBox="-626.9 334.8 73 101" enable-background="new -626.9 334.8 73 101" xml:space="preserve">
<metadata><?xpacket begin="﻿" id="W5M0MpCehiHzreSzNTczkc9d"?>
<x:xmpmeta xmlns:x="adobe:ns:meta/" x:xmptk="Adobe XMP Core 5.6-c067 79.157747, 2015/03/30-23:40:42        ">
   <rdf:RDF xmlns:rdf="http://www.w3.org/1999/02/22-rdf-syntax-ns#">
      <rdf:Description rdf:about=""
            xmlns:xmp="http://ns.adobe.com/xap/1.0/"
            xmlns:xmpGImg="http://ns.adobe.com/xap/1.0/g/img/"
            xmlns:xmpTPg="http://ns.adobe.com/xap/1.0/t/pg/"
            xmlns:stDim="http://ns.adobe.com/xap/1.0/sType/Dimensions#"
            xmlns:xmpG="http://ns.adobe.com/xap/1.0/g/"
            xmlns:dc="http://purl.org/dc/elements/1.1/"
            xmlns:xmpMM="http://ns.adobe.com/xap/1.0/mm/"
            xmlns:stRef="http://ns.adobe.com/xap/1.0/sType/ResourceRef#"
            xmlns:stEvt="http://ns.adobe.com/xap/1.0/sType/ResourceEvent#"
            xmlns:pdf="http://ns.adobe.com/pdf/1.3/">
         <xmp:CreatorTool>Adobe Illustrator CC 2015 (Macintosh)</xmp:CreatorTool>
         <xmp:CreateDate>2017-01-10T15:38:54+01:00</xmp:CreateDate>
         <xmp:ModifyDate>2017-01-10T15:38:54+01:00</xmp:ModifyDate>
         <xmp:MetadataDate>2017-01-10T15:38:54+01:00</xmp:MetadataDate>
         <xmp:Thumbnails>
            <rdf:Alt>
               <rdf:li rdf:parseType="Resource">
                  <xmpGImg:width>188</xmpGImg:width>
                  <xmpGImg:height>256</xmpGImg:height>
                  <xmpGImg:format>JPEG</xmpGImg:format>
                  <xmpGImg:image>/9j/4AAQSkZJRgABAgEASABIAAD/7QAsUGhvdG9zaG9wIDMuMAA4QklNA+0AAAAAABAASAAAAAEA&#xA;AQBIAAAAAQAB/+4ADkFkb2JlAGTAAAAAAf/bAIQABgQEBAUEBgUFBgkGBQYJCwgGBggLDAoKCwoK&#xA;DBAMDAwMDAwQDA4PEA8ODBMTFBQTExwbGxscHx8fHx8fHx8fHwEHBwcNDA0YEBAYGhURFRofHx8f&#xA;Hx8fHx8fHx8fHx8fHx8fHx8fHx8fHx8fHx8fHx8fHx8fHx8fHx8fHx8fHx8f/8AAEQgBAAC8AwER&#xA;AAIRAQMRAf/EAaIAAAAHAQEBAQEAAAAAAAAAAAQFAwIGAQAHCAkKCwEAAgIDAQEBAQEAAAAAAAAA&#xA;AQACAwQFBgcICQoLEAACAQMDAgQCBgcDBAIGAnMBAgMRBAAFIRIxQVEGE2EicYEUMpGhBxWxQiPB&#xA;UtHhMxZi8CRygvElQzRTkqKyY3PCNUQnk6OzNhdUZHTD0uIIJoMJChgZhJRFRqS0VtNVKBry4/PE&#xA;1OT0ZXWFlaW1xdXl9WZ2hpamtsbW5vY3R1dnd4eXp7fH1+f3OEhYaHiImKi4yNjo+Ck5SVlpeYmZ&#xA;qbnJ2en5KjpKWmp6ipqqusra6voRAAICAQIDBQUEBQYECAMDbQEAAhEDBCESMUEFURNhIgZxgZEy&#xA;obHwFMHR4SNCFVJicvEzJDRDghaSUyWiY7LCB3PSNeJEgxdUkwgJChgZJjZFGidkdFU38qOzwygp&#xA;0+PzhJSktMTU5PRldYWVpbXF1eX1RlZmdoaWprbG1ub2R1dnd4eXp7fH1+f3OEhYaHiImKi4yNjo&#xA;+DlJWWl5iZmpucnZ6fkqOkpaanqKmqq6ytrq+v/aAAwDAQACEQMRAD8A9Canqc08zRxsVgU0AG3K&#xA;nc4ql+KuxV2KuxV2KuxV2KuxV2KuxV2KuxV2KuxV2KuxV2KuxV2KuxV2Koux1Ge1kFGLRV+KM9Ke&#xA;3gcVZR6qel6tfg48q+1K4qwzFXYq7FXYq7FXYq7FXYq7FXYq7FXYq7FXYq7FXYq7FXYq7FXYq7FX&#xA;Yq7FWS1P6D/54U/4XFWNYq7FXYq7FXYq7FXYq7FXYq7FXYq7FXYq7FXYq7FXYq7FXYq7FXYq7FXY&#xA;qyX/AKUX/PD+GKsaxV2KuxV2KuxV2KoLVtb0fR7U3eq3sNlbjb1J3VAT4Cp3PsMVefar/wA5Efl3&#xA;ZMVtnutRIqA1vDxWvznaE0+QxVj1z/zlDpak/VtAnlG/H1LhI6ntXikmKoKX/nKSYr+68tqjV3LX&#xA;hYU+QgXFVL/oaK//AOpei/6SW/6p4q7/AKGiv/8AqXov+klv+qeKu/6Giv8A/qXov+klv+qeKr4v&#xA;+co7kN+98uI602C3ZU1+ZhbFUVB/zlHaMf8ASPLskYrv6d0r7fTEmKp3pv8Azkn5HuGVLy1vrJj1&#xA;do0ljH0o5f8A4TFWf+XvOflbzGhbRdThvCByaJW4yqPFonCyL9K4qnWKuxV2KuxV2KuxVkv/AEov&#xA;+eH8MVY1irsVdirsVdirHPzB85W3lDyxc6xMolmWkVnATT1J3rwU+woWb2BxV8h+YvM2t+YtSfUd&#xA;Yunurl9l5bKi9eEajZVHgMUJXirsVdiqKsJNPSRjexPKhHwhDSh9+mKo76z5Y/5Y5v8Ag/8Am7FU&#xA;JqEulOE+owyRMCeZdqgjt3OKoLFXYquSOSSvBC/EFm4gmijqTTtiqrZX15Y3Ud3ZTvbXULBop4mK&#xA;OrDuGFCMVfV35O/mK/nLy+/13iNY04rFe8QAJAwPpyhR05cTUeIPbFLPsVdirsVdirsVZL/0ov8A&#xA;nh/DFWNYq7FXYq7FXYq8G/5yivZQPL1iDSI/WZ3HYsPTVfuBb78VeHjS9QIqIGpih36K1H/fDYqu&#xA;XSNSY0W3cnFV36D1b/llf8MVd+g9W/5ZX/DFXfoPVv8Allf8MVd+g9W/5ZX/AAxV36D1b/llf8MV&#xA;d+g9W/5ZX/DFUTY2nmKxaQ20LoZVKPsDsfn3xVDfoPVv+WV/wxV6d/zjZdT2/nq+syCEmsZPUSvR&#xA;4pYyD9FWH04pfS+KuxV2KuxV2Ksl/wClF/zw/hirGsVdirsVdirsVfPH/OUEjnWtDjJ+BbaZgPdp&#xA;AD/xEYqwmP7C/IYULsVXRuUcN4YqmAIIqOhxVvFXYq7FXYq7FXYq7FUV+QsjL+akqqdpILpW+XIN&#xA;+tcCX09irsVdirsVdirJf+lF/wA8P4YqxrFXYq7FXYq7FXzt/wA5P/8AHe0T/mFk/wCTmKsLj+wv&#xA;yGFC7FXYqjbV+UfE9V2+jFVbFXYq7FXYq7FXYq7FUR+Q/wD5NZv+MV3gS+oMVdirsVdirsVZL/0o&#xA;v+eH8MVY1irsVdirsVdir5y/5ydlJ8z6RFTZLIsD3q0rD/jXFWHx/YX5DChdirsVVbd+Eo8DscVR&#xA;2KuxV2KuxV2KuxV2Kqn5GS8PzZjWlfVS7SvhRWb/AI1wJfUmKuxV2KuxV2Ksl/6UX/PD+GKsaxV2&#xA;KuxV2KuxV83/APOTn/KW6V/zAD/k9JirEo/sL8hhQuxV2KuxVMIX5xg9+h+eKr8VdirsVdirsVdi&#xA;rvyQ/wDJuW3/AEef8mnwJfVGKuxV2KuxV2Ksl/6UX/PD+GKsaxV2KuxV2KuxV83/APOTn/KW6V/z&#xA;AD/k9JirEo/sL8hhQuxV2KuxVEWj0Yoeh6fPFUXirsVdirsVdirsVd+SH/k3Lb/o8/5NPgS+qMVd&#xA;irsVdirsVZL/ANKL/nh/DFWNYq7FXYq7FXYq+b/+cnP+Ut0r/mAH/J6TFWJR/YX5DChdirgCTQbk&#xA;9BiqcW3lLXLiMSCD01O49Rgp/wCB6/fmFPtDFE1d+5rOWIV18l66rAhY6jf7YyH8p4vP5I8aKM/w&#xA;pq/8qf8ABjH+U8Xn8l8aLv8ACmr/AMqf8EMf5TxefyXxotN5V1gKSERiOwcV/GmI7Sw95+S+NFLJ&#xA;7ee3kMc6NG46qwpmbDJGYuJsNgIPJTyaXYq78kP/ACblt/0ef8mnwJfVGKuxV2KuxV2Ksl/6UX/P&#xA;D+GKsaxV2KuxV2KuxV83/wDOTn/KW6V/zAD/AJPSYqxKP7C/IYULsVZl5I0aIxHU5lDOWK24PQAb&#xA;FvnXbNJ2nqTfhj4uPmn0Zdmncdj2q+dLG1ufqdlE+oX1ePpQ9A3gWANT8gc2GDs+UhxSPBHzbI4y&#xA;dyhhqfn+QepHpVvGh3CSN8Z/5KL+Iyfg6QbGcvx8E8MO9pPOt1ZTLDrunSWfI0E6VZPu9vYnCezo&#xA;zF4pCXkvh3yLKLe4guIUmgdZInFUdTUEZrJRMTR2LUQhdX0yK/tGjYD1VBML9w39D3y/S6g4p306&#xA;s4T4S8/IIJBFCNiM6oFzXYVd+SH/AJNy2/6PP+TT4EvqjFXYq7FXYq7FWS/9KL/nh/DFWNYq7FXY&#xA;q7FXYq+b/wDnJz/lLdK/5gB/yekxViUf2F+QwoXYq9L8qgDQLOm3wt/xNs5fX/30vx0cLL9RTUgE&#xA;UO4PUZiMGL6hoF5p6CLy7FDZpOWN5eO3xoo7AtWi/LNni1UchvMTKuQbRIHmxyRPKqyEXmtXt1c/&#xA;tzxV4V9iwYn6DmwBz16ccYx7i2eroE30qw1OZ0ihu49a8vTnjMJyecYHs3xKw7U/DMTPlgNzE48o&#xA;7urCRHuLK9N02z061W1tE9OFSTSpJqTUkk75q82aWSXFLm1EkonK0POb/a+uP+Mr/wDEjnXYPoj7&#xA;g58eShlqXfkh/wCTctv+jz/k0+BL6oxV2KuxV2KuxVkv/Si/54fwxVjWKuxV2KuxV2Kvmr/nJqUn&#xA;ztp0VNk01GB71aeYf8a4qxeP7C/IYULsVel+Vv8AjgWf+q3/ABM5y+u/vpOFl+oprmIwaZVdSrAM&#xA;rCjKdwQe2INKv0jytpTWF+YY7e3itIhM8TJUyBnWOnQ93A39syROeS5GW8QzFne0NZWFlZRGK0hW&#xA;CNmLFUFASe+U5Mspm5G2JJKvkEOxV5zf/wC91z/xlf8A4kc67B9EfcHPjyChlqXfkh/5Ny2/6PP+&#xA;TT4EvqjFXYq7FXYq7FWS/wDSi/54fwxVjWKuxV2KuxV2Kvmf/nJn/lPLD/tlxf8AURcYqxqP7C/I&#xA;YULsVel+Vv8AjgWf+q3/ABM5y+u/vpOFl+opykErxySIhKRANIw6AEhQT9JpmKASwpkEX5f+Z5ba&#xA;O5WCMQyqrozSxrVWFR1bMsaDKRdbe8NnhSR1n5B82wW97F9TRvrcIhDetGONJo5a9d/7qmWw0OYA&#xA;iuY7x3g/oZDFJDf8q183f8sqf8jY/wDmrIfydm7vtCPBkkGoabd6feTWd0nGeCnqqCGAqARuNv2h&#xA;mJkxmEjE8w1kUaQxBBodiOoyCHnF/wD73XP/ABlf/iRzrsH0R9wc+PIKGWpUfyYJH5xaaAaAyXoP&#xA;uPq0xwJfV2KuxV2KuxV2Ksl/6UX/ADw/hirGsVdirsVdirsVfNX/ADk1Ew87adLtxbTY1A71WeYn&#xA;/iWKsXj+wvyGFC7FXpnlUkaDZkdQpO4qPtnsc5fXf30nDy/UWWQ66RYXNu6Rh3hWKIiKKhInEhr8&#xA;O3w1ysZvSR5dw77QJbM80y20zU9TS21xg8VvYWbaXbSMVjZXhBlkAqAzcts2uKMZyrJ0jHhHw3b4&#xA;gE79yY+VpHh/TttpbfWdNs5ANLLMXX1DHyeJW/lV6Ab5dpTXGIbxH0/Lkyh1rkkvlvWL+bV9NWLU&#xA;Lu7vbgyfpqxuFPpQha7qKAR0Ph+HTMfT5pGcalIyP1A9P1MISNjf3sc86XzReadVRRGwZlALRxua&#xA;hUruyk9swtZOssmvIfUUl1nU21PU7i9aMReu7OI1A2DGtCQF5H3OY2bJxyMu9rlKzbyu/wD97rj/&#xA;AIyv/wASOdVg+iPuDnR5BQy1Kh+TP/k4tM/4y3v/AFCz4Evq/FXYq7FXYq7FWS/9KL/nh/DFWNYq&#xA;7FXYq7FXYq+b/wDnJz/lLdK/5gB/yekxViUf2F+QwoXYqz3yRqMc2mfUyf31sT8PcoxqD95pnPdp&#xA;4THJxdJOLmjRtkea1pZr5Z81aHLZQ6T5mtkngt9rS7ZOZRT+w1Pip4UzZabVYzEQyiwORboTFVJ6&#xA;JY615TgtUjs76yhtkHwxpLGgHf7NRTNxDNiA9JiA5AlHokvmH8x9EsIZF011vb5hRSm8ansWf9qn&#xA;gMxtR2jCA9PqkwnmA5PJbi4mubiS4nYvNMxeRz1LMak5z8pEmzzcQm0FqN7HZWklw5+yPgX+Zj0G&#xA;WYMJyTEQyjGzTztmLMWY1ZjUn3OdaBWznNYVUPyZ/wDJxaZ/xlvf+oWfAl9X4q7FXYq7FXYqyX/p&#xA;Rf8APD+GKsaxV2KuxV2KuxV83/8AOTn/AClulf8AMAP+T0mKsSj+wvyGFC7FVa0u7i0nWe3cxyp0&#xA;YZDJjjMVIWEEA82U2vn9wgF1aBmHV42oD/sSD+vNTk7J39Mvm0HB3FX/AMf2f/LJJ/wS5X/JMv5w&#xA;R4B73f4/s/8Alkk/4Jcf5Jl/OC+Ae93+P7P/AJZJP+CXH+SZfzgvgHvWyfmBBx/d2bFu3JwB+AOG&#xA;PZJ6yXwPNKdR1a71Fw8zDgP7uNdlFc2mn00MQqLfGAjyQmZDJ2KqH5M/+Ti0z/jLe/8AULPgS+r8&#xA;VdirsVdirsVZL/0ov+eH8MVY1irsVdirsVdir5v/AOcnP+Ut0r/mAH/J6TFWJR/YX5DChdirsVdi&#xA;rsVdirsVdiqMtX5R8T1X9WKq+KuxVQ/Jn/ycWmf8Zb3/AKhZ8CX1firsVdirsVdirJf+lF/zw/hi&#xA;rGsVdirsVdirsVfN/wDzk5/ylulf8wA/5PSYqxKP7C/IYULsVdirsVdirsVdirsVVLd+Eo8DscVR&#xA;+KuxVQ/Jn/ycWmf8Zb3/AKhZ8CX1firsVdirsVdirJf+lF/zw/hirGsVdirsVdirsVfN/wDzk5/y&#xA;lulf8wA/5PSYqxKP7C/IYULsVdirsVdirsVdirsVdiqPgfnGD36HFVTFVP8AJaJn/OCwYUpG96zV&#xA;8Dbyrt9LYEvqzFXYq7FXYq7FWS/9KL/nh/DFWNYq7FXYq7FXYq+df+cnkUeYdGcD42tHUn2WUkf8&#xA;SOKsMj+wvyGFC7FXYq7FXYq7FXYq7FXYqr2j0cqejdPniqMxV35If+Tctv8Ao8/5NPgS+qMVdirs&#xA;VdirsVZL/wBKL/nh/DFWNYq7FXYq7FXYq+dv+cn/APjvaJ/zCyf8nMVYXH9hfkMKF2KuxV2KuxV2&#xA;KuxV2KuxVtSQQR1GKpijBlDDocVb/JD/AMm5bf8AR5/yafAl9UYq7FXYq7FXYqyX/pRf88P4Yqxr&#xA;FXYq7FXYq7FXz1/zlBFTVtBlr9u3nTj4cXU1/wCGxVg8f2F+QwoXYq7FXYq7FXYq7FXYq7FXYqir&#xA;R6qUPbcYqjPyNjZ/zaiYdI1vGb5cGX9bYEvqXFXYq7FXYq7FWS/9KL/nh/DFWNYq7FXYq7FXYq8J&#xA;/wCcotPlMPl/UFBMSNcW8rdgziN0H0hH+7FXj6+ZECgegdhT7X9mKG/8Sx/74P8AwX9mKu/xLH/v&#xA;g/8ABf2Yq7/Esf8Avg/8F/Zirv8AEsf++D/wX9mKu/xLH/vg/wDBf2Yq7/Esf++D/wAF/Zirv8Sx&#xA;/wC+D/wX9mKu/wASx/74P/Bf2Yq7/Esf++D/AMF/Ziq6PzSiOG+rnbqOX9mKs7/5x2tJL38w7vUA&#xA;pWK3tJpGPYNLIqqp+gsfoxS+mMVdirsVdirsVZL/ANKL/nh/DFWNYq7FXYq7FXYqxv8AMLydb+bv&#xA;K13o8jCOdqS2cx6Rzx14MeuxqVb2JxV8e61ouqaLqU+m6nbtbXlu3GSJx9xB6Mp7EbHFCCxV2Kux&#xA;VPvLukWF/bytPyMiOBQNQUI2xVNv8K6R/K//AARwqgNc0LTbLT2ni5LLyUJVqg1O/wCGBWNYq7FX&#xA;YqvhhmmlSGFGlmkYLHGgLMzE0AUDck4q+rfyV/L6byj5beTUEC6xqbLLdp1MSKD6cRPivIlvc07Y&#xA;peh4q7FXYq7FXYqyX/pRf88P4YqxrFXYq7FXYq7FXYqkPmvyP5Y81Wog1qyWdkBENwvwTR1/kkXf&#xA;6OniMVeQa9/zjDNzZ9A1lSh+xBfIVI+csQav/IvFWGX/AOQf5m2pPp6dHdqP24LiL9UjRt+GKpPP&#xA;+VX5jQGj+X7wmpH7uP1Bt7oWxVDDyF+YMLsF8vaqrdCUtLin3qm+KG/8FfmL/wBWHV/+kS6/5oxV&#xA;a/kX8wZKc/L2rPTpys7k/rTFURF+Vv5iStxXy9eggV+KIoPvagxVNLL8i/zOuiK6R9XQ/tzTwL4f&#xA;shy/fwxSyzRv+cZNfmZW1jVra0j6lLZXnf5fF6Sj8cVeteS/yp8n+UiJ7C2M+oUodQuSJJd+vDYK&#xA;n+xA964qzDFXYq7FXYq7FXYqyX/pRf8APD+GKsaxV2KuxV2KuxV2KuxV2KuxV2KuxV2KuxV2KuxV&#xA;2KuxV2KuxV2KuxV2KuxVkv8A0ov+eH8MVY1irsVdirsVdirsVdirsVdirsVdirsVdirsVdirsVdi&#xA;rsVdirsVdirsVdirJf8ApRf88P4YqxrFXYq7FXYq7FXYq4Cuw64qveKVAC6MoPQkEfrxVZirsVdi&#xA;rsVdirsVdiraqzHioLMegAqcVbdHQ0dSp8CKYqtxV2KuxV2KuxV2Kslof0H/AM8K/wDC4qlWp6ZN&#xA;BM0kaloGNQRvxr2OKpfirsVdirsVdirItEsY47dZ2FZZNwT2HamKpk6I6lXAZTsQdxirFdTtVtrt&#xA;41+wfiT5HFULirsVdirsVdirYBJAHU7DFWWWVlFawhEA5U+N+5OKr7m1huYjHKtQeh7g+IxViMsZ&#xA;jleM9UYqfoNMVW4q7FXYq7FUXY6dPdSCilYq/FIelPbxOKso9JPS9KnwceNPalMVf//Z</xmpGImg:image>
               </rdf:li>
            </rdf:Alt>
         </xmp:Thumbnails>
         <xmpTPg:NPages>1</xmpTPg:NPages>
         <xmpTPg:HasVisibleTransparency>True</xmpTPg:HasVisibleTransparency>
         <xmpTPg:HasVisibleOverprint>False</xmpTPg:HasVisibleOverprint>
         <xmpTPg:MaxPageSize rdf:parseType="Resource">
            <stDim:w>73.000000</stDim:w>
            <stDim:h>101.000000</stDim:h>
            <stDim:unit>Pixels</stDim:unit>
         </xmpTPg:MaxPageSize>
         <xmpTPg:PlateNames>
            <rdf:Seq>
               <rdf:li>Cyan</rdf:li>
               <rdf:li>Magenta</rdf:li>
               <rdf:li>Yellow</rdf:li>
               <rdf:li>Black</rdf:li>
            </rdf:Seq>
         </xmpTPg:PlateNames>
         <xmpTPg:SwatchGroups>
            <rdf:Seq>
               <rdf:li rdf:parseType="Resource">
                  <xmpG:groupName>Grupo de muestras por defecto</xmpG:groupName>
                  <xmpG:groupType>0</xmpG:groupType>
               </rdf:li>
            </rdf:Seq>
         </xmpTPg:SwatchGroups>
         <dc:format>image/svg+xml</dc:format>
         <dc:title>
            <rdf:Alt>
               <rdf:li xml:lang="x-default">bluetooth</rdf:li>
            </rdf:Alt>
         </dc:title>
         <xmpMM:RenditionClass>proof:pdf</xmpMM:RenditionClass>
         <xmpMM:DocumentID>xmp.did:60f1df07-2559-4715-8ea6-f16b46c27e8e</xmpMM:DocumentID>
         <xmpMM:InstanceID>xmp.iid:60f1df07-2559-4715-8ea6-f16b46c27e8e</xmpMM:InstanceID>
         <xmpMM:OriginalDocumentID>uuid:fe80ed43-59f5-4e43-a217-713116d1ccd2</xmpMM:OriginalDocumentID>
         <xmpMM:DerivedFrom rdf:parseType="Resource">
            <stRef:instanceID>xmp.iid:ab026109-54f7-4b97-a862-e5bd9b66f94a</stRef:instanceID>
            <stRef:documentID>xmp.did:ab026109-54f7-4b97-a862-e5bd9b66f94a</stRef:documentID>
            <stRef:originalDocumentID>uuid:fe80ed43-59f5-4e43-a217-713116d1ccd2</stRef:originalDocumentID>
            <stRef:renditionClass>proof:pdf</stRef:renditionClass>
         </xmpMM:DerivedFrom>
         <xmpMM:History>
            <rdf:Seq>
               <rdf:li rdf:parseType="Resource">
                  <stEvt:action>saved</stEvt:action>
                  <stEvt:instanceID>xmp.iid:88740106-d28c-4652-8f71-81ed5129f9cb</stEvt:instanceID>
                  <stEvt:when>2017-01-10T15:31:50+01:00</stEvt:when>
                  <stEvt:softwareAgent>Adobe Illustrator CC 2015 (Macintosh)</stEvt:softwareAgent>
                  <stEvt:changed>/</stEvt:changed>
               </rdf:li>
               <rdf:li rdf:parseType="Resource">
                  <stEvt:action>saved</stEvt:action>
                  <stEvt:instanceID>xmp.iid:60f1df07-2559-4715-8ea6-f16b46c27e8e</stEvt:instanceID>
                  <stEvt:when>2017-01-10T15:38:54+01:00</stEvt:when>
                  <stEvt:softwareAgent>Adobe Illustrator CC 2015 (Macintosh)</stEvt:softwareAgent>
                  <stEvt:changed>/</stEvt:changed>
               </rdf:li>
            </rdf:Seq>
         </xmpMM:History>
         <pdf:Producer>Adobe PDF library 11.00</pdf:Producer>
      </rdf:Description>
   </rdf:RDF>
</x:xmpmeta>
                                                                                                    
                                                                                                    
                                                                                                    
                                                                                                    
                                                                                                    
                                                                                                    
                                                                                                    
                                                                                                    
                                                                                                    
                                                                                                    
                                                                                                    
                                                                                                    
                                                                                                    
                                                                                                    
                                                                                                    
                                                                                                    
                                                                                                    
                                                                                                    
                                                                                                    
                                                                                                    
                           
<?xpacket end="w"?>
	</metadata>
<path fill-rule="evenodd" clip-rule="evenodd" fill="#D7D7D7" d="M-557.9,334.8h-65c-2.2,0-4,1.8-4,4v93c0,2.2,1.8,4,4,4h15.4
	c0-1.9,1.6-3.5,3.5-3.5c1.9,0,3.5,1.6,3.5,3.5h20.7c0-1.9,1.6-3.5,3.5-3.5c1.9,0,3.5,1.6,3.5,3.5h14.9c2.2,0,4-1.8,4-4v-93
	C-553.9,336.6-555.7,334.8-557.9,334.8z"/>
<g>
	<g>
		<path fill-rule="evenodd" clip-rule="evenodd" fill="#202121" d="M-571.1,413.7c-0.2,7.5-5.7,9-19.3,9c-12.2,0-19-1.3-19.2-8.8
			c-0.2-8.4-0.2-23.8-0.2-29.7c0-7.9,0-22.6,0.2-31c0.2-7.5,7.2-7.5,19.2-7.5c12.8,0,19,0,19.2,7.5c0.2,8.4,0.2,23.2,0.2,31
			C-571,389.6-570.9,405.3-571.1,413.7z"/>
	</g>
	<g>
		<path fill-rule="evenodd" clip-rule="evenodd" fill="#4A4B4C" d="M-607.8,353.2h34.8v62.1h-34.8V353.2z"/>
		<path opacity="8.000000e-02" fill-rule="evenodd" clip-rule="evenodd" fill="#FFFFFF" d="M-573,353.2v62.1h-0.6l-26-62.1H-573z"/>
	</g>
	<path fill-rule="evenodd" clip-rule="evenodd" fill="#666666" d="M-577.1,350.2c0.4,0,0.7,0.3,0.7,0.7c0,0.4-0.3,0.7-0.7,0.7
		s-0.7-0.3-0.7-0.7C-577.8,350.5-577.5,350.2-577.1,350.2z"/>
	<g>
		<g>
			<path fill-rule="evenodd" clip-rule="evenodd" fill="#595A5B" d="M-587.4,417.9h-6c-0.4,0-0.7,0.2-0.7,0.6l0.2,1.1
				c0.1,0.5,0.5,0.6,1.2,0.6h4.7c0.7,0,1-0.3,1.2-0.6l0.2-1.1C-586.7,418.1-586.9,417.9-587.4,417.9z M-593.2,349.3h5.5
				c0.3,0,0.5-0.2,0.5-0.5s-0.2-0.5-0.5-0.5h-5.5c-0.3,0-0.5,0.2-0.5,0.5S-593.4,349.3-593.2,349.3z"/>
		</g>
	</g>
</g>
<g>
	<polygon fill="#FFFFFF" points="-581.3,391.4 -598.9,391.6 -599.6,380 -580.7,380 	"/>
	<path fill="#82AD3A" d="M-584.5,393.3h-11.3c-2.8,0-5.1-2.3-5.1-5.2v-11.3c0-2.8,2.3-5.1,5.1-5.1h11.3c2.8,0,5.1,2.3,5.1,5.1v10.8
		C-579.3,390.5-581.6,393.3-584.5,393.3z M-595.1,385.9v0.3v1.4c0,2,2.2,3.7,4.9,3.7h0.1c2.7,0,5-1.8,5-3.8v-1.3v-0.4v-1.6h-10
		V385.9z M-589.4,381.1c0-0.4-0.3-0.6-0.6-0.6s-0.6,0.3-0.6,0.6c0,0.3,0.2,0.5,0.4,0.6v2.2h0.5v-2.2
		C-589.5,381.6-589.4,381.4-589.4,381.1z M-596.2,385.9v-1.1c0-0.1-0.2-0.2-0.3-0.2c-0.1,0-0.3,0.1-0.3,0.2v1.1h-0.8v-0.6
		c0-0.1,0-0.2-0.1-0.2c-0.1,0-0.1,0.1-0.1,0.2v0.6h-0.9c-0.1,0-0.2,0-0.2,0.1c0,0.1,0.1,0.1,0.2,0.1h0.9v0.7c0,0.1,0,0.2,0.1,0.2
		c0.1,0,0.1-0.1,0.1-0.2v-0.7h0.8v1.2c0,0.1,0.2,0.2,0.3,0.2c0.1,0,0.3-0.1,0.3-0.2v-1.2h0.8v-0.3H-596.2z M-581.5,385.9h-0.7v-0.6
		c0-0.1-0.2-0.2-0.3-0.2c-0.1,0-0.3,0.1-0.3,0.2v0.6h-0.8v-1.1c0-0.1,0-0.2-0.1-0.2c-0.1,0-0.1,0.1-0.1,0.2v1.1h-1.1v0.3h1.1v1.2
		c0,0.1,0,0.2,0.1,0.2c0.1,0,0.1-0.1,0.1-0.2v-1.2h0.8v0.7c0,0.1,0.2,0.2,0.3,0.2c0.1,0,0.3-0.1,0.3-0.2v-0.7h0.7
		c0.1,0,0.2,0,0.2-0.1C-581.3,385.9-581.4,385.9-581.5,385.9z M-587.9,388.5c-0.8,0-1.4-0.6-1.4-1.4c0-0.7,0.6-1.4,1.4-1.4
		c0.8,0,1.4,0.6,1.4,1.4C-586.5,387.9-587.1,388.5-587.9,388.5z M-587.6,386.4c-0.1,0-0.2-0.1-0.3-0.1c-0.4,0-0.8,0.3-0.8,0.8
		c0,0.3,0.2,0.6,0.5,0.7c0.1,0,0.2,0.1,0.3,0.1c0.3,0,0.6-0.2,0.7-0.5c0,0,0,0,0,0c0,0,0,0,0-0.1c0,0,0,0,0,0c0,0,0,0,0-0.1
		c0,0,0,0,0,0c0,0,0,0,0,0c0,0,0,0,0,0C-587.1,386.8-587.3,386.5-587.6,386.4z M-587.1,387.1c0-0.3-0.2-0.6-0.5-0.7
		C-587.3,386.5-587.1,386.8-587.1,387.1z M-592.6,389c-1.1,0-1.9-0.8-1.9-1.9c0-1,0.9-1.9,1.9-1.9c1.1,0,1.9,0.8,1.9,1.9
		C-590.7,388.2-591.6,389-592.6,389z M-592.6,385.8c-0.7,0-1.3,0.6-1.3,1.3s0.6,1.3,1.3,1.3c0.7,0,1.3-0.6,1.3-1.3
		S-591.9,385.8-592.6,385.8z"/>
	<g>
		<g>
			<path fill="#373B44" d="M-588.9,378.3c-0.4-0.2-0.8-0.2-1.3-0.2c-0.4,0-0.8,0.1-1.3,0.2c-0.4,0.2-0.8,0.4-1.1,0.6
				c0,0-0.1,0.1-0.1,0.1c0,0.1,0.1,0.2,0.4,0.5c0.3,0.3,0.4,0,0.5,0c0,0,0.1,0,0.2-0.1c0.1-0.1,0.3-0.2,0.5-0.3
				c0.2-0.1,0.5-0.1,0.7-0.1c0.2,0,0.5,0,0.7,0.1c0.2,0.1,0.4,0.2,0.5,0.3c0.1,0.1,0.2,0.1,0.2,0.1c0.1,0,0.2,0.3,0.5,0
				s0.4-0.4,0.4-0.5c0,0,0-0.1-0.1-0.1C-588.1,378.6-588.5,378.4-588.9,378.3z M-588.1,376.4c-0.7-0.3-1.4-0.4-2-0.4
				c-0.7,0-1.4,0.1-2,0.4c-0.7,0.3-1.2,0.6-1.7,1.1c0,0-0.1,0.1-0.1,0.1c0,0.1,0.1,0.2,0.4,0.5c0.3,0.3,0.4,0,0.5,0
				c0,0,0.1,0,0.2-0.1c0.1-0.1,0.2-0.2,0.4-0.3c0.2-0.1,0.4-0.2,0.6-0.3c0.2-0.1,0.5-0.2,0.8-0.3c0.3-0.1,0.6-0.1,0.9-0.1
				c0.5,0,1,0.1,1.4,0.3c0.4,0.2,0.9,0.5,1.4,0.8c0,0,0.1,0,0.1,0c0.1,0,0.2,0.3,0.5,0c0.3-0.3,0.4-0.4,0.4-0.5c0,0,0-0.1-0.1-0.1
				C-586.8,377-587.4,376.6-588.1,376.4z M-584.9,376c-0.7-0.7-1.5-1.2-2.4-1.5c-0.9-0.4-1.9-0.5-2.8-0.5c-1,0-1.9,0.2-2.8,0.5
				c-0.9,0.4-1.7,0.9-2.4,1.5c0,0-0.1,0.1-0.1,0.1c0,0.1,0.1,0.2,0.4,0.5c0.3,0.3,0.4,0,0.5,0c0,0,0.1,0,0.1,0c0.6-0.6,1.3-1,2-1.3
				c0.7-0.3,1.4-0.4,2.3-0.4c0.8,0,1.6,0.1,2.3,0.4c0.7,0.3,1.4,0.7,2,1.3c0,0,0.1,0,0.1,0c0.1,0,0.2,0.2,0.5,0
				c0.3-0.3,0.4-0.4,0.4-0.5C-584.9,376.1-584.9,376-584.9,376z"/>
		</g>
	</g>
</g>
</svg>
