<?xml version="1.0" encoding="utf-8"?>
<!-- Generator: Adobe Illustrator 21.1.0, SVG Export Plug-In . SVG Version: 6.00 Build 0)  -->
<svg version="1.1" id="Capa_1" xmlns="http://www.w3.org/2000/svg" xmlns:xlink="http://www.w3.org/1999/xlink" x="0px" y="0px"
	 viewBox="0 0 64.5 118.5" style="enable-background:new 0 0 64.5 118.5;" xml:space="preserve">
<style type="text/css">
	.st0{fill:#D7D7D7;}
	.st1{fill:#2D2929;}
	.st2{fill:#CCAE19;}
	.st3{fill:#D7D7D7;stroke:#CCAE19;stroke-width:0.5;stroke-miterlimit:10;}
	.st4{fill:#1D6BDD;stroke:#2D2929;stroke-miterlimit:10;}
	.st5{fill:#FFFFFF;}
	.st6{clip-path:url(#SVGID_2_);}
	.st7{clip-path:url(#SVGID_4_);}
	.st8{clip-path:url(#SVGID_6_);}
	.st9{fill:#CCCCCC;}
	.st10{fill:none;stroke:#DBD9D9;stroke-width:0.75;stroke-miterlimit:10;}
	.st11{fill:#DBD9D9;}
</style>
<g>
	<title>Mesa de trabajo 1</title>
	<path class="st0" d="M59.4,0H5.1C2.3,0,0,2.3,0,5.1v108.3c0,2.8,2.3,5.1,5.1,5.1h22.8c0-2.5,2-4.5,4.5-4.5s4.5,2,4.5,4.5h22.6
		c2.8,0,5.1-2.3,5.1-5.1V5.1C64.5,2.3,62.2,0,59.4,0z"/>
	<path class="st1" d="M10.1,91V16c0-3.3,2.7-6,6-6h32.4c3.3,0,6,2.7,6,6v75c0,3.3-2.7,6-6,6H16.1C12.8,97,10.1,94.3,10.1,91z"/>
	<circle class="st0" cx="49.5" cy="41.9" r="4.4"/>
	<path class="st2" d="M49.5,38.4c1.9,0,3.4,1.5,3.4,3.4s-1.5,3.4-3.4,3.4s-3.4-1.5-3.4-3.4l0,0C46.1,40,47.7,38.4,49.5,38.4
		 M49.5,37.4c-2.5,0-4.4,2-4.4,4.4s2,4.4,4.4,4.4s4.4-2,4.4-4.4C54,39.4,52,37.4,49.5,37.4L49.5,37.4z"/>
	<circle class="st0" cx="49.5" cy="67" r="4.4"/>
	<path class="st2" d="M49.5,63.5c1.9,0,3.4,1.5,3.4,3.4s-1.5,3.4-3.4,3.4s-3.4-1.5-3.4-3.4C46.1,65.1,47.7,63.6,49.5,63.5
		 M49.5,62.6c-2.5,0-4.4,2-4.4,4.4c0,2.5,2,4.4,4.4,4.4s4.4-2,4.4-4.4C54,64.5,52,62.6,49.5,62.6L49.5,62.6z"/>
	<circle class="st0" cx="16.6" cy="84.6" r="1.1"/>
	<path class="st2" d="M16.6,83.8c0.4,0,0.8,0.4,0.8,0.8s-0.4,0.8-0.8,0.8s-0.8-0.4-0.8-0.8S16.2,83.8,16.6,83.8L16.6,83.8
		 M16.6,83.2c-0.7,0-1.3,0.6-1.3,1.3c0,0.7,0.6,1.3,1.3,1.3c0.7,0,1.3-0.6,1.3-1.3S17.3,83.2,16.6,83.2L16.6,83.2z"/>
	<circle class="st0" cx="16.6" cy="88.3" r="1.1"/>
	<path class="st2" d="M16.6,87.5c0.4,0,0.8,0.4,0.8,0.8s-0.4,0.8-0.8,0.8s-0.8-0.4-0.8-0.8S16.2,87.5,16.6,87.5L16.6,87.5 M16.6,87
		c-0.7,0-1.3,0.6-1.3,1.3c0,0.7,0.6,1.3,1.3,1.3c0.7,0,1.3-0.6,1.3-1.3S17.3,87,16.6,87L16.6,87z"/>
	<circle class="st0" cx="16.6" cy="80.8" r="1.1"/>
	<path class="st2" d="M16.6,80c0.4,0,0.8,0.4,0.8,0.8s-0.4,0.8-0.8,0.8s-0.8-0.4-0.8-0.8S16.2,80,16.6,80L16.6,80 M16.6,79.5
		c-0.7,0-1.3,0.6-1.3,1.3c0,0.7,0.6,1.3,1.3,1.3c0.7,0,1.3-0.6,1.3-1.3S17.3,79.5,16.6,79.5L16.6,79.5z"/>
	<rect x="15.6" y="91.2" class="st3" width="2" height="2"/>
	<path class="st4" d="M21.9,86v14.6c0,1.4,1.1,2.5,2.5,2.5l0,0h16c1.4,0,2.5-1.1,2.5-2.5l0,0V86H21.9z"/>
	<polygon class="st5" points="52,21.5 51.8,21.8 50.3,21.3 50.4,21 	"/>
	<polygon class="st5" points="52,19.9 51.8,19.6 50.3,20.2 50.4,20.5 	"/>
	<g>
		<g>
			<defs>
				<polygon id="SVGID_1_" points="50.2,21 52.8,22.1 52,24.2 49.4,25 46.7,24.5 45.9,21 45.8,19 47.4,17.7 49.2,16.6 52.2,17.3 
					53.1,18.6 52.5,19.6 49.9,20.5 				"/>
			</defs>
			<clipPath id="SVGID_2_">
				<use xlink:href="#SVGID_1_"  style="overflow:visible;"/>
			</clipPath>
			<g class="st6">
				<path class="st5" d="M48.2,20.7c0,0.7,0.6,1.3,1.3,1.3s1.3-0.6,1.3-1.3c0-0.7-0.6-1.3-1.3-1.3S48.2,20,48.2,20.7L48.2,20.7z
					 M50.5,20.7c0,0.6-0.4,1-1,1s-1-0.4-1-1s0.4-1,1-1S50.5,20.2,50.5,20.7z"/>
			</g>
		</g>
	</g>
	<g>
		<g id="Ebene_1">
			<defs>
				<polygon id="SVGID_3_" points="50,21 52.7,22.1 51.8,24.2 49.3,25 46.6,24.5 45.8,21 45.7,19 47.3,17.7 49.1,16.6 52.1,17.3 
					53,18.6 52.4,19.6 49.8,20.5 				"/>
			</defs>
			<clipPath id="SVGID_4_">
				<use xlink:href="#SVGID_3_"  style="overflow:visible;"/>
			</clipPath>
			<g class="st7">
				<g>
					<g>
						<defs>
							<rect id="SVGID_5_" x="46.2" y="17.5" width="6.6" height="6.6"/>
						</defs>
						<clipPath id="SVGID_6_">
							<use xlink:href="#SVGID_5_"  style="overflow:visible;"/>
						</clipPath>
						<g class="st8">
							<path class="st5" d="M48.8,17.8l-0.1,0.5c-0.2,0-0.3,0.1-0.5,0.2l-0.4-0.3c-0.1-0.1-0.4-0.1-0.5,0l-0.4,0.4
								c-0.1,0.1-0.1,0.2-0.1,0.3c0,0.1,0,0.2,0.1,0.2l0.3,0.4C47.1,19.6,47,19.8,47,20l-0.5,0.1c-0.2,0-0.3,0.2-0.3,0.4V21
								c0,0.2,0.1,0.4,0.3,0.4l0.5,0.1c0,0.2,0.1,0.3,0.2,0.5l-0.3,0.4c-0.1,0.1-0.1,0.4,0,0.5l0.4,0.4c0.2,0.1,0.4,0.1,0.5,0
								l0.4-0.3c0.1,0.1,0.3,0.1,0.5,0.2l0.1,0.5c0,0.2,0.2,0.3,0.4,0.3h0.6c0.2,0,0.4-0.1,0.4-0.3l0.1-0.5c0.2,0,0.3-0.1,0.5-0.2
								l0.4,0.3c0.1,0.1,0.4,0.1,0.5,0l0.4-0.4c0.1-0.1,0.1-0.4,0-0.5L51.8,22c0.1-0.1,0.2-0.3,0.3-0.4l0.5-0.1
								c0.2,0,0.3-0.2,0.3-0.4v-0.6c0-0.2-0.1-0.4-0.3-0.4L52,20c0-0.2-0.1-0.3-0.2-0.5l0.3-0.4c0.1-0.1,0.1-0.4,0-0.5l-0.4-0.4
								c-0.2-0.1-0.4-0.1-0.5,0l-0.4,0.3c-0.1-0.1-0.3-0.1-0.5-0.2l-0.1-0.5c0-0.2-0.2-0.3-0.4-0.3h-0.6
								C49.1,17.5,48.9,17.7,48.8,17.8L48.8,17.8z M49.8,17.8L49.8,17.8l0.1,0.6c0,0.1,0.1,0.1,0.1,0.1c0.2,0.1,0.4,0.1,0.6,0.2
								c0.1,0,0.1,0,0.2,0l0.5-0.3l0,0l0.4,0.4l0,0l0,0l-0.3,0.5c0,0.1,0,0.1,0,0.2c0.1,0.2,0.2,0.4,0.2,0.6c0,0.1,0.1,0.1,0.2,0.1
								l0.6,0.1l0,0V21l0,0l-0.6,0.1c-0.1,0-0.1,0.1-0.2,0.1c-0.1,0.2-0.1,0.4-0.2,0.6v0.1V22l0.3,0.5l0,0l0,0l-0.4,0.4l0,0
								l-0.5-0.3c-0.1,0-0.1,0-0.2,0c-0.2,0.1-0.4,0.2-0.6,0.2c-0.1,0-0.1,0.1-0.1,0.1l-0.1,0.6l0,0h-0.6l0,0l-0.1-0.6
								c0-0.1-0.1-0.1-0.1-0.1c-0.2,0-0.4-0.1-0.6-0.2c-0.1,0-0.1,0-0.2,0l-0.5,0.3l0,0l-0.4-0.4l0,0l0,0l0.3-0.5c0-0.1,0-0.1,0-0.2
								c-0.1-0.2-0.2-0.4-0.2-0.6c0-0.1-0.1-0.1-0.2-0.1L46.7,21l0,0v-0.6l0,0l0.6-0.1c0.1,0,0.1-0.1,0.2-0.1
								c0.1-0.2,0.1-0.4,0.2-0.6c0-0.1,0-0.1,0-0.2l-0.3-0.5l0,0l0,0l0.4-0.4l0,0l0.5,0.3c0.1,0,0.1,0,0.2,0
								c0.2-0.1,0.4-0.2,0.6-0.2c0.1,0,0.1-0.1,0.1-0.1l0.1-0.6l0,0L49.8,17.8L49.8,17.8z"/>
						</g>
					</g>
					<rect x="12.8" y="13.4" width="30" height="61.3"/>
					<path class="st9" d="M27.1,25.6v-7.7c0-0.4,0.6-0.8,0.6-0.8h0.1c0,0,0.6,0.4,0.6,0.8v7.7c0,0.4-0.6,0.9-0.6,0.9h-0.1
						C27.4,26.2,27.2,25.9,27.1,25.6z"/>
					<path class="st9" d="M17.1,24.7v1.7c0,0.1,0,0.2,0.1,0.2c0.2,0,1-1,1-1.1s0-0.2,0-0.4v-0.6"/>
					<path class="st9" d="M17.1,25v-7.9c0-0.1,0-0.2,0.1-0.2c0.2,0,1,1,1,1.1s0,0.2,0,0.4V25"/>
					<path class="st9" d="M19.6,16.3h-1.7c-0.1,0-0.2,0-0.2,0.1c0,0.2,1,1,1.1,1s0.2,0,0.4,0h0.6"/>
					<path class="st9" d="M19.3,16.3h7.9c0.1,0,0.2,0,0.2,0.1c0,0.2-1,1-1.1,1s-0.2,0-0.4,0h-6.6"/>
					<path class="st9" d="M30,16.3h-1.8c-0.1,0-0.2,0-0.2,0.1c0,0.2,1,1,1.1,1s0.2,0,0.4,0h0.6"/>
					<path class="st9" d="M29.6,16.3h7.9c0.1,0,0.2,0,0.2,0.1c0,0.2-1,1-1.1,1s-0.2,0-0.4,0h-6.6"/>
					<path class="st9" d="M35.8,27.1h1.7c0.1,0,0.2,0,0.2-0.1c0-0.2-1-1-1.1-1s-0.2,0-0.4,0h-0.6"/>
					<path class="st9" d="M36.2,27.1h-7.9c-0.1,0-0.2,0-0.2-0.1c0-0.2,1-1,1.1-1s0.2,0,0.4,0H36"/>
					<path class="st9" d="M25.5,27.1h1.7c0.1,0,0.2,0,0.2-0.1c0-0.2-1-1-1.1-1s-0.2,0-0.4,0h-0.6"/>
					<path class="st9" d="M25.8,27.1h-7.9c-0.1,0-0.2,0-0.2-0.1c0-0.2,1-1,1.1-1s0.2,0,0.4,0h6.5"/>
					<path class="st9" d="M38.4,18.7V17c0-0.1,0-0.2-0.1-0.2c-0.2,0-1,1-1,1.1s0,0.2,0,0.4v0.6"/>
					<path class="st9" d="M38.4,18.4v7.9c0,0.1,0,0.2-0.1,0.2c-0.2,0-1-1-1-1.1s0-0.2,0-0.4v-6.5"/>
					
						<ellipse transform="matrix(0.7842 -0.6205 0.6205 0.7842 -13.5985 16.8313)" class="st9" cx="17.4" cy="28" rx="0.6" ry="0.6"/>
					<path class="st9" d="M27.1,40.2v-7.7c0-0.4,0.6-0.8,0.6-0.8h0.1c0,0,0.6,0.4,0.6,0.8v7.7c0,0.4-0.6,0.9-0.6,0.9h-0.1
						C27.4,40.8,27.2,40.5,27.1,40.2z"/>
					<path class="st9" d="M17.1,39.3V41c0,0.1,0,0.2,0.1,0.2c0.2,0,1-1,1-1.1s0-0.2,0-0.4v-0.6"/>
					<path class="st9" d="M17.1,39.6v-7.9c0-0.1,0-0.2,0.1-0.2c0.2,0,1,1,1,1.1s0,0.2,0,0.4v6.5"/>
					<path class="st9" d="M19.6,30.9h-1.7c-0.1,0-0.2,0-0.2,0.1c0,0.2,1,1,1.1,1s0.2,0,0.4,0h0.6"/>
					<path class="st9" d="M19.3,30.9h7.9c0.1,0,0.2,0,0.2,0.1c0,0.2-1,1-1.1,1s-0.2,0-0.4,0h-6.6"/>
					<path class="st9" d="M30,30.9h-1.8c-0.1,0-0.2,0-0.2,0.1c0,0.2,1,1,1.1,1s0.2,0,0.4,0H30"/>
					<path class="st9" d="M29.6,30.9h7.9c0.1,0,0.2,0,0.2,0.1c0,0.2-1,1-1.1,1s-0.2,0-0.4,0h-6.6"/>
					<path class="st9" d="M35.8,41.7h1.7c0.1,0,0.2,0,0.2-0.1c0-0.2-1-1-1.1-1s-0.2,0-0.4,0h-0.6"/>
					<path class="st9" d="M36.2,41.7h-7.9c-0.1,0-0.2,0-0.2-0.1c0-0.2,1-1,1.1-1s0.2,0,0.4,0H36"/>
					<path class="st9" d="M25.5,41.7h1.7c0.1,0,0.2,0,0.2-0.1c0-0.2-1-1-1.1-1s-0.2,0-0.4,0h-0.6"/>
					<path class="st9" d="M25.8,41.7h-7.9c-0.1,0-0.2,0-0.2-0.1c0-0.2,1-1,1.1-1s0.2,0,0.4,0h6.5"/>
					<path class="st9" d="M38.4,33.3v-1.7c0-0.1,0-0.2-0.1-0.2c-0.2,0-1,1-1,1.1s0,0.2,0,0.4v0.6"/>
					<path class="st9" d="M38.4,33v7.9c0,0.1,0,0.2-0.1,0.2c-0.2,0-1-1-1-1.1s0-0.2,0-0.4V33"/>
					
						<ellipse transform="matrix(0.7842 -0.6205 0.6205 0.7842 -22.7074 19.9512)" class="st9" cx="17.3" cy="42.6" rx="0.6" ry="0.7"/>
					<path class="st9" d="M27.1,54.8V47c0-0.4,0.6-0.8,0.6-0.8h0.1c0,0,0.6,0.4,0.6,0.8v7.7c0,0.4-0.6,0.9-0.6,0.9h-0.1
						C27.4,55.4,27.2,55.1,27.1,54.8z"/>
					<path class="st9" d="M17.1,53.8v1.7c0,0.1,0,0.2,0.1,0.2c0.2,0,1-1,1-1.1s0-0.2,0-0.4v-0.6"/>
					<path class="st9" d="M17.1,54.2v-7.9c0-0.1,0-0.2,0.1-0.2c0.2,0,1,1,1,1.1s0,0.2,0,0.4V54"/>
					<path class="st9" d="M19.6,45.4h-1.7c-0.1,0-0.2,0-0.2,0.1c0,0.2,1,1,1.1,1s0.2,0,0.4,0h0.6"/>
					<path class="st9" d="M19.3,45.4h7.9c0.1,0,0.2,0,0.2,0.1c0,0.2-1,1-1.1,1s-0.2,0-0.4,0h-6.6"/>
					<path class="st9" d="M30,45.4h-1.8c-0.1,0-0.2,0-0.2,0.1c0,0.2,1,1,1.1,1s0.2,0,0.4,0h0.6"/>
					<path class="st9" d="M29.6,45.4h7.9c0.1,0,0.2,0,0.2,0.1c0,0.2-1,1-1.1,1s-0.2,0-0.4,0h-6.6"/>
					<path class="st9" d="M35.8,56.3h1.7c0.1,0,0.2,0,0.2-0.1c0-0.2-1-1-1.1-1s-0.2,0-0.4,0h-0.6"/>
					<path class="st9" d="M36.2,56.3h-7.9c-0.1,0-0.2,0-0.2-0.1c0-0.2,1-1,1.1-1s0.2,0,0.4,0H36"/>
					<path class="st9" d="M25.5,56.3h1.7c0.1,0,0.2,0,0.2-0.1c0-0.2-1-1-1.1-1s-0.2,0-0.4,0h-0.6"/>
					<path class="st9" d="M25.8,56.3h-7.9c-0.1,0-0.2,0-0.2-0.1c0-0.2,1-1,1.1-1s0.2,0,0.4,0h6.5"/>
					<path class="st9" d="M38.4,47.9v-1.7c0-0.1,0-0.2-0.1-0.2c-0.2,0-1,1-1,1.1s0,0.2,0,0.4V48"/>
					<path class="st9" d="M38.4,47.5v7.9c0,0.1,0,0.2-0.1,0.2c-0.2,0-1-1-1-1.1s0-0.2,0-0.4v-6.6"/>
					
						<ellipse transform="matrix(0.7842 -0.6205 0.6205 0.7842 -31.7608 23.1065)" class="st9" cx="17.3" cy="57.2" rx="0.6" ry="0.7"/>
					<path class="st9" d="M27.1,69.3v-7.7c0-0.4,0.6-0.8,0.6-0.8h0.1c0,0,0.6,0.4,0.6,0.8v7.7c0,0.4-0.6,0.9-0.6,0.9h-0.1
						C27.4,70,27.2,69.7,27.1,69.3z"/>
					<path class="st9" d="M17.1,68.4v1.7c0,0.1,0,0.2,0.1,0.2c0.2,0,1-1,1-1.1s0-0.2,0-0.4v-0.6"/>
					<path class="st9" d="M17.1,68.8v-7.9c0-0.1,0-0.2,0.1-0.2c0.2,0,1,1,1,1.1s0,0.2,0,0.4v6.5"/>
					<path class="st9" d="M19.6,60h-1.7c-0.1,0-0.2,0-0.2,0.1c0,0.2,1,1,1.1,1s0.2,0,0.4,0h0.6"/>
					<path class="st9" d="M19.3,60h7.9c0.1,0,0.2,0,0.2,0.1c0,0.2-1,1-1.1,1s-0.2,0-0.4,0h-6.6"/>
					<path class="st9" d="M30,60h-1.8c-0.1,0-0.2,0-0.2,0.1c0,0.2,1,1,1.1,1s0.2,0,0.4,0h0.6"/>
					<path class="st9" d="M29.6,60h7.9c0.1,0,0.2,0,0.2,0.1c0,0.2-1,1-1.1,1s-0.2,0-0.4,0h-6.6"/>
					<path class="st9" d="M35.8,70.9h1.7c0.1,0,0.2,0,0.2-0.1c0-0.2-1-1-1.1-1s-0.2,0-0.4,0h-0.6"/>
					<path class="st9" d="M36.2,70.9h-7.9c-0.1,0-0.2,0-0.2-0.1c0-0.2,1-1,1.1-1s0.2,0,0.4,0H36"/>
					<path class="st9" d="M25.5,70.9h1.7c0.1,0,0.2,0,0.2-0.1c0-0.2-1-1-1.1-1s-0.2,0-0.4,0h-0.6"/>
					<path class="st9" d="M25.8,70.9h-7.9c-0.1,0-0.2,0-0.2-0.1c0-0.2,1-1,1.1-1s0.2,0,0.4,0h6.5"/>
					<path class="st9" d="M38.4,62.5v-1.7c0-0.1,0-0.2-0.1-0.2c-0.2,0-1,1-1,1.1s0,0.2,0,0.4v0.6"/>
					<path class="st9" d="M38.4,62.1V70c0,0.1,0,0.2-0.1,0.2c-0.2,0-1-1-1-1.1s0-0.2,0-0.4v-6.5"/>
					
						<ellipse transform="matrix(0.7842 -0.6205 0.6205 0.7842 -40.7755 26.2133)" class="st9" cx="17.3" cy="71.7" rx="0.6" ry="0.7"/>
				</g>
			</g>
		</g>
		<g id="Capa_3">
			<rect x="17.9" y="17.4" class="st10" width="21" height="9.9"/>
			<rect x="17.9" y="32" class="st10" width="21" height="9.9"/>
			<rect x="17.9" y="46.8" class="st10" width="21" height="9.9"/>
			<rect x="17.9" y="61.5" class="st10" width="21" height="9.9"/>
			<g>
				<polygon class="st11" points="28.9,17.4 28.4,27.3 27.9,17.4 				"/>
			</g>
			<g>
				<polygon class="st11" points="29.2,32 28.8,41.9 28.2,32 				"/>
			</g>
			<g>
				<polygon class="st11" points="29.2,46.8 28.8,56.7 28.2,46.8 				"/>
			</g>
			<g>
				<polygon class="st11" points="28.9,61.5 28.4,71.8 27.9,61.5 				"/>
			</g>
		</g>
	</g>
</g>
</svg>
