<?xml version="1.0" encoding="utf-8"?>
<!-- Generator: Adobe Illustrator 21.1.0, SVG Export Plug-In . SVG Version: 6.00 Build 0)  -->
<svg version="1.1" xmlns="http://www.w3.org/2000/svg" xmlns:xlink="http://www.w3.org/1999/xlink" x="0px" y="0px"
	 viewBox="0 0 1146 818" style="enable-background:new 0 0 1146 818;" xml:space="preserve">
<style type="text/css">
	.st0{fill:#D7D8D8;}
	.st1{fill:#2D2929;}
	.st2{fill:#92918F;}
	.st3{fill:#CCAE1A;}
	.st4{fill:#4D4D4C;}
	.st5{fill:#A49578;}
	.st6{fill:#BDBCB8;}
	.st7{fill:#D7D5D1;}
	.st8{fill:none;stroke:#FFFFFF;stroke-width:2;stroke-linejoin:round;stroke-miterlimit:10;}
	.st9{fill:none;stroke:#FFFFFF;stroke-miterlimit:10;}
	.st10{fill:none;stroke:#FFFFFF;stroke-width:2.0991;stroke-miterlimit:10;}
	.st11{fill:none;stroke:#FFFFFF;stroke-width:1.2604;stroke-miterlimit:10;}
	.st12{fill:#FFFFFF;}
	.st13{font-family:'PTMono-Bold';}
	.st14{font-size:15.5391px;}
	.st15{letter-spacing:-3;}
	.st16{letter-spacing:-2;}
	.st17{letter-spacing:-6;}
	.st18{font-size:14.9122px;}
	.st19{fill:#345EA9;}
	.st20{fill:#3B3637;}
	.st21{fill:#181513;}
	.st22{fill:none;stroke:#92918F;stroke-width:4;stroke-miterlimit:10;}
	.st23{fill:#BAB9B6;}
	.st24{fill:#EAE9E8;}
	.st25{fill:#EBEBEB;}
	.st26{fill:#D6D4D4;}
	.st27{fill:#C56655;}
	.st28{fill:#A6A6A3;}
	.st29{fill:#D3D1D1;}
	.st30{fill:#E7E6E6;}
	.st31{fill:#E8E6E4;}
	.st32{fill:#25B0E6;}
	.st33{fill:#F2CD0B;}
	.st34{fill:#FFE07B;}
	.st35{fill:none;stroke:#EAE9E8;stroke-width:0.78;stroke-miterlimit:10;}
	.st36{fill:#F8ED6D;}
</style>
<g id="Layer_1">
	<path class="st0" d="M1102.5,5.4H43.5C24.6,4.7,8.8,19.4,8,38.4v740.7c0.8,18.9,16.6,33.7,35.5,33h462.6
		c0.7-16.6,14.7-29.6,31.2-29c16.6-0.6,30.6,12.3,31.2,29h533.9c18.9,0.7,34.8-14,35.5-33V38.4C1137.2,19.4,1121.4,4.7,1102.5,5.4z"
		/>
</g>
<g id="Layer_2">
</g>
<g id="Layer_3">
	<g>
		<path class="st1" d="M723.2,379.1h-627c-22.9,0-41.5,18.6-41.5,41.5v223.9c0,22.9,18.6,41.5,41.5,41.5h627
			c22.9,0,41.5-18.6,41.5-41.5V420.6C764.7,397.7,746.1,379.1,723.2,379.1z M70.6,477.2c4.3,0,7.8,3.5,7.8,7.8s-3.5,7.8-7.8,7.8
			c-4.3,0-7.8-3.5-7.8-7.8S66.3,477.2,70.6,477.2z M70.6,510.2c4.3,0,7.8,3.5,7.8,7.8s-3.5,7.8-7.8,7.8c-4.3,0-7.8-3.5-7.8-7.8
			S66.3,510.2,70.6,510.2z M70.6,543.2c4.3,0,7.8,3.5,7.8,7.8s-3.5,7.8-7.8,7.8c-4.3,0-7.8-3.5-7.8-7.8S66.3,543.2,70.6,543.2z
			 M62.9,584c0-4.3,3.5-7.8,7.8-7.8c4.3,0,7.8,3.5,7.8,7.8s-3.5,7.8-7.8,7.8C66.3,591.8,62.9,588.3,62.9,584z M101.4,670.4
			c-19,0-34.4-15.4-34.4-34.4c0-19,15.4-34.4,34.4-34.4c19,0,34.4,15.4,34.4,34.4C135.8,655,120.4,670.4,101.4,670.4z M101.4,464.3
			c-19,0-34.4-15.4-34.4-34.4c0-19,15.4-34.4,34.4-34.4c19,0,34.4,15.4,34.4,34.4C135.8,448.9,120.4,464.3,101.4,464.3z
			 M716.3,670.4c-19,0-34.4-15.4-34.4-34.4c0-19,15.4-34.4,34.4-34.4c19,0,34.4,15.4,34.4,34.4C750.8,655,735.3,670.4,716.3,670.4z
			 M716.3,464.3c-19,0-34.4-15.4-34.4-34.4c0-19,15.4-34.4,34.4-34.4c19,0,34.4,15.4,34.4,34.4C750.8,448.9,735.3,464.3,716.3,464.3
			z"/>
		<path class="st2" d="M165.9,488.6v-20.3h46v20.3h-6.5v-10.4h-33v10.4H165.9z M205.4,521.5v6.8h-33v-6.8h-6.5v16.7h46v-16.7H205.4z
			"/>
		<path class="st3" d="M101.4,391.4c-21.3,0-38.5,17.2-38.5,38.5c0,21.3,17.2,38.5,38.5,38.5c21.3,0,38.5-17.2,38.5-38.5
			C139.8,408.6,122.6,391.4,101.4,391.4z M101.4,459.7c-16.5,0-29.8-13.4-29.8-29.8c0-16.5,13.4-29.8,29.8-29.8
			c16.5,0,29.8,13.4,29.8,29.8C131.2,446.3,117.8,459.7,101.4,459.7z M101.4,597.5c-21.3,0-38.5,17.2-38.5,38.5
			c0,21.3,17.2,38.5,38.5,38.5c21.3,0,38.5-17.2,38.5-38.5C139.8,614.7,122.6,597.5,101.4,597.5z M101.4,665.8
			c-16.5,0-29.8-13.4-29.8-29.8s13.4-29.8,29.8-29.8c16.5,0,29.8,13.4,29.8,29.8S117.8,665.8,101.4,665.8z M716.3,468.3
			c21.3,0,38.5-17.2,38.5-38.5c0-21.3-17.2-38.5-38.5-38.5c-21.3,0-38.5,17.2-38.5,38.5C677.8,451.1,695.1,468.3,716.3,468.3z
			 M716.3,400c16.5,0,29.8,13.4,29.8,29.8c0,16.5-13.4,29.8-29.8,29.8s-29.8-13.4-29.8-29.8C686.5,413.4,699.9,400,716.3,400z
			 M716.3,597.5c-21.3,0-38.5,17.2-38.5,38.5c0,21.3,17.2,38.5,38.5,38.5s38.5-17.2,38.5-38.5C754.8,614.7,737.6,597.5,716.3,597.5z
			 M716.3,665.8c-16.5,0-29.8-13.4-29.8-29.8s13.4-29.8,29.8-29.8c16.5,0,29.8,13.4,29.8,29.8S732.8,665.8,716.3,665.8z"/>
		<rect x="216.1" y="470.4" class="st4" width="67.9" height="48.4"/>
		<path class="st5" d="M192.5,472.6c-0.1,2.4-1.6,4.7-4.7,4.7c-3.1,0-4.6-2.3-4.7-4.7h-15.4v59.9h15c0.3-2.1,1.9-4,4.6-4
			c2.8,0,4.3,1.9,4.6,4h15.9v-59.9H192.5z"/>
		<rect x="222.6" y="457.8" class="st6" width="7.6" height="12.5"/>
		<rect x="238.2" y="457.9" class="st6" width="7.6" height="12.5"/>
		<rect x="253.2" y="457.8" class="st6" width="7.6" height="12.5"/>
		<rect x="268.8" y="457.8" class="st6" width="7.6" height="12.5"/>
		<rect x="222.5" y="518.8" class="st6" width="7.6" height="12.5"/>
		<rect x="238.2" y="518.8" class="st6" width="7.6" height="12.5"/>
		<rect x="253.2" y="518.7" class="st6" width="7.6" height="12.5"/>
		<rect x="268.8" y="518.8" class="st6" width="7.6" height="12.5"/>
		<rect x="222.5" y="403.6" class="st7" width="11.5" height="35"/>
		<rect x="222.5" y="411.7" class="st4" width="11.5" height="18.9"/>
		<rect x="272.6" y="403.6" class="st7" width="11.5" height="35"/>
		<rect x="272.6" y="411.7" class="st4" width="11.5" height="18.9"/>
		<rect x="247.6" y="403.6" class="st7" width="11.5" height="35"/>
		<rect x="247.6" y="411.7" class="st5" width="11.5" height="18.9"/>
		<path class="st6" d="M343.5,496.9c-10.3,0-18.6-8.3-18.6-18.6s8.3-18.6,18.6-18.6s18.6,8.3,18.6,18.6S353.8,496.9,343.5,496.9z
			 M343.5,434.4c-10.3,0-18.6-8.3-18.6-18.6s8.3-18.6,18.6-18.6s18.6,8.3,18.6,18.6S353.8,434.4,343.5,434.4z M303.9,381.7v6.4v124
			h347.5V381.7H303.9z"/>
		<path class="st8" d="M305.7,388.1L305.7,388.1c-5,0-9,4-9,9v97.1c0,11.8,9.6,21.4,21.4,21.4h319.3c11.8,0,21.4-9.6,21.4-21.4
			V393.6c0-3-2.5-5.5-5.5-5.5l0,0"/>
		<rect x="218.3" y="401.1" class="st9" width="19.9" height="43.7"/>
		<rect x="166.4" y="393.4" class="st7" width="35" height="11.5"/>
		<rect x="174.5" y="393.4" class="st4" width="18.9" height="11.5"/>
		
			<rect x="175.9" y="377.4" transform="matrix(6.123234e-17 -1 1 6.123234e-17 -213.3892 585.0305)" class="st9" width="19.9" height="43.7"/>
		<rect x="166.4" y="413.7" class="st7" width="35" height="11.5"/>
		<rect x="174.5" y="413.7" class="st4" width="18.9" height="11.5"/>
		
			<rect x="175.9" y="397.7" transform="matrix(6.123234e-17 -1 1 6.123234e-17 -233.7564 605.3976)" class="st9" width="19.9" height="43.7"/>
		<rect x="95.6" y="494.6" class="st7" width="11.5" height="35"/>
		<rect x="95.6" y="502.7" class="st4" width="11.5" height="18.9"/>
		<rect x="57.2" y="469.2" class="st10" width="29.1" height="132"/>
		<rect x="267.1" y="401.1" class="st9" width="19.9" height="43.7"/>
		<path class="st9" d="M249.8,444.8h5.6c4,0,7.2-3.2,7.2-7.2v-29.3c0-4-3.2-7.2-7.2-7.2h-5.6c-4,0-7.2,3.2-7.2,7.2v29.3
			C242.7,441.6,245.9,444.8,249.8,444.8z"/>
		<rect x="163.7" y="439.5" class="st7" width="41" height="15.7"/>
		<rect x="173.2" y="439.5" class="st5" width="22.1" height="15.7"/>
		<path class="st11" d="M182.7,434.8h-14.3c-4.1,0-7.5,3.4-7.5,7.5v12.1c0,4.1,3.4,7.5,7.5,7.5h14.3"/>
		<path class="st11" d="M195.2,461.9h9.2c4.1,0,7.5-3.4,7.5-7.5v-12.1c0-4.1-3.4-7.5-7.5-7.5h-9.2"/>
		<rect x="96.3" y="538.2" class="st7" width="11.5" height="35"/>
		<rect x="96.3" y="546.4" class="st5" width="11.5" height="18.9"/>
		<rect x="91.4" y="535.8" class="st9" width="19.9" height="43.7"/>
		<rect x="149.3" y="552.1" class="st7" width="11.5" height="35"/>
		<rect x="149.3" y="560.2" class="st5" width="11.5" height="18.9"/>
		<rect x="144.4" y="549.7" class="st9" width="19.9" height="43.7"/>
		<rect x="91.4" y="492.1" class="st9" width="19.9" height="43.7"/>
		<text transform="matrix(1 0 0 1 218.6692 398.6217)"><tspan x="0" y="0" class="st12 st13 st14">L1</tspan><tspan x="18.6" y="0" class="st12 st13 st14 st15"> </tspan><tspan x="24.6" y="0" class="st12 st13 st14">C</tspan><tspan x="33.9" y="0" class="st12 st13 st14 st16">2</tspan><tspan x="40.4" y="0" class="st12 st13 st14"> L2</tspan></text>
		<rect x="624.6" y="599.4" class="st7" width="35" height="11.5"/>
		<rect x="632.7" y="599.4" class="st4" width="18.9" height="11.5"/>
		<rect x="646.5" y="551.6" class="st7" width="11.5" height="35"/>
		<rect x="646.5" y="559.8" class="st4" width="11.5" height="18.9"/>
		<rect x="625.2" y="551.6" class="st7" width="11.5" height="35"/>
		<rect x="625.2" y="559.8" class="st5" width="11.5" height="18.9"/>
		<path class="st9" d="M618.4,602.7v4.8c0,4.2,3.4,7.5,7.5,7.5h28.6c4.2,0,7.5-3.4,7.5-7.5v-4.8c0-4.2-3.4-7.5-7.5-7.5H626
			C621.8,595.1,618.4,598.5,618.4,602.7z"/>
		<rect x="624.6" y="620.3" class="st7" width="35" height="11.5"/>
		<rect x="632.7" y="620.3" class="st4" width="18.9" height="11.5"/>
		
			<rect x="630.3" y="604.2" transform="matrix(-1.836970e-16 1 -1 -1.836970e-16 1266.2866 -14.2461)" class="st9" width="19.9" height="43.7"/>
		<rect x="623.6" y="640" class="st7" width="11.5" height="35"/>
		<rect x="623.6" y="648.1" class="st4" width="11.5" height="18.9"/>
		<rect x="619.4" y="637.5" class="st9" width="19.9" height="43.7"/>
		<rect x="645.8" y="640" class="st7" width="11.5" height="35"/>
		<rect x="645.8" y="648.1" class="st4" width="11.5" height="18.9"/>
		<rect x="641.6" y="637.5" class="st9" width="19.9" height="43.7"/>
		<path class="st9" d="M648.4,592.9h5.1c4.1,0,7.4-3.3,7.4-7.4v-28.8c0-4.1-3.3-7.4-7.4-7.4h-5.1c-4.1,0-7.4,3.3-7.4,7.4v28.8
			C641,589.6,644.3,592.9,648.4,592.9z"/>
		<path class="st9" d="M627.5,592.9h5.6c4,0,7.2-3.2,7.2-7.2v-29.3c0-4-3.2-7.2-7.2-7.2h-5.6c-4,0-7.2,3.2-7.2,7.2v29.3
			C620.3,589.7,623.5,592.9,627.5,592.9z"/>
		<text transform="matrix(1 0 0 1 621.7731 547.9245)"><tspan x="0" y="0" class="st12 st13 st14">C5</tspan><tspan x="18.6" y="0" class="st12 st13 st14 st17"> </tspan><tspan x="21.4" y="0" class="st12 st13 st14">C3</tspan></text>
		<text transform="matrix(1 0 0 1 662.9158 610.1916)" class="st12 st13 st14">C4</text>
		<text transform="matrix(1 0 0 1 662.9158 680.4217)" class="st12 st13 st14">D3</text>
		<text transform="matrix(1 0 0 1 289.9867 531.8717)" class="st12 st13 st14">U1</text>
		<text transform="matrix(1 0 0 1 92.7179 488.6214)" class="st12 st13 st14">R1</text>
		<text transform="matrix(1 0 0 1 118.0513 562.455)" class="st12 st13 st14">O1</text>
		<text transform="matrix(1 0 0 1 141.3846 455.2248)" class="st12 st13 st14">C1</text>
		<text transform="matrix(1 0 0 1 141.3846 428.3024)" class="st12 st13 st14">R5</text>
		<text transform="matrix(1 0 0 1 141.3846 404.9105)" class="st12 st13 st14">R4</text>
		<text transform="matrix(1 0 0 1 91.3847 594.4979)" class="st12 st13 st14">PWR</text>
		<path class="st6" d="M192.5,472.6h5.1c0,0.2,0,0.5,0,0.7c0,5-4.1,9.1-9.1,9.1c-5,0-9.1-4.1-9.1-9.1c0-0.2,0-0.5,0-0.7h3.7
			c0.1,2.4,1.6,4.7,4.7,4.7C190.8,477.3,192.4,475,192.5,472.6z M196.5,532.4c0-5-4.1-9.1-9.1-9.1c-5,0-9.1,4.1-9.1,9.1
			c0,0,0,0.1,0,0.1h4.4c0.3-2.1,1.9-4,4.6-4c2.8,0,4.3,1.9,4.6,4h4.6C196.5,532.5,196.5,532.4,196.5,532.4z"/>
		<rect x="167.7" y="487.9" class="st4" width="40.1" height="30.1"/>
		<text transform="matrix(-1 0 0 -1 205.4082 498.2969)" class="st5 st13 st18">5ObD</text>
		<path class="st5" d="M70.6,540.5c-5.8,0-10.5,4.7-10.5,10.5c0,5.8,4.7,10.5,10.5,10.5c5.8,0,10.5-4.7,10.5-10.5
			C81.1,545.2,76.4,540.5,70.6,540.5z M70.6,556.7c-3.2,0-5.7-2.6-5.7-5.7s2.6-5.7,5.7-5.7c3.2,0,5.7,2.6,5.7,5.7
			S73.8,556.7,70.6,556.7z M70.6,507.5c-5.8,0-10.5,4.7-10.5,10.5c0,5.8,4.7,10.5,10.5,10.5c5.8,0,10.5-4.7,10.5-10.5
			C81.1,512.2,76.4,507.5,70.6,507.5z M70.6,523.7c-3.2,0-5.7-2.6-5.7-5.7s2.6-5.7,5.7-5.7c3.2,0,5.7,2.6,5.7,5.7
			S73.8,523.7,70.6,523.7z M70.6,573.5c-5.8,0-10.5,4.7-10.5,10.5c0,5.8,4.7,10.5,10.5,10.5c5.8,0,10.5-4.7,10.5-10.5
			C81.1,578.2,76.4,573.5,70.6,573.5z M70.6,589.7c-3.2,0-5.7-2.6-5.7-5.7s2.6-5.7,5.7-5.7c3.2,0,5.7,2.6,5.7,5.7
			S73.8,589.7,70.6,589.7z M60.2,474.5v21h21v-21H60.2z M70.6,490.7c-3.2,0-5.7-2.6-5.7-5.7s2.6-5.7,5.7-5.7c3.2,0,5.7,2.6,5.7,5.7
			S73.8,490.7,70.6,490.7z"/>
		<path class="st8" d="M169.3,565.2v-6.3c0-1.3,1.1-2.4,2.4-2.4H325c1.3,0,2.4,1.1,2.4,2.4v120.6c0,1.6-1.3,3-3,3H322"/>
		<line class="st8" x1="182.7" y1="549.7" x2="182.7" y2="556.7"/>
		<line class="st8" x1="209.2" y1="549.7" x2="209.2" y2="556.7"/>
		<line class="st8" x1="235.7" y1="549.7" x2="235.7" y2="556.7"/>
		<line class="st8" x1="262.2" y1="549.7" x2="262.2" y2="556.7"/>
		<line class="st8" x1="288.7" y1="549.7" x2="288.7" y2="556.7"/>
		<line class="st8" x1="315.2" y1="549.7" x2="315.2" y2="556.7"/>
		<path class="st1" d="M112.9,766.4h188.5l23-38.5V561.5h-149l-68.2,11.8v187.4C107.2,763.8,109.7,766.4,112.9,766.4z"/>
		<path class="st19" d="M124.3,764.1h154.6c7.2,0,13-5.8,13-13V590c0-7.2-5.8-13-13-13H124.3c-7.2,0-13,5.8-13,13v161.1
			C111.3,758.2,117.1,764.1,124.3,764.1z"/>
		<polygon class="st20" points="324.4,561.5 297.9,573.5 301.4,766.4 324.4,727.8 		"/>
		<path class="st1" d="M297.9,575.6"/>
		<polygon class="st21" points="324.4,561.5 175.4,561.5 107.8,573.3 297.9,573.5 		"/>
		
			<ellipse transform="matrix(0.1156 -0.9933 0.9933 0.1156 -375.6759 609.7817)" class="st2" cx="154.6" cy="515.9" rx="7.2" ry="8.7"/>
		<ellipse class="st2" cx="155.3" cy="540.5" rx="9" ry="7.2"/>
		<path class="st12" d="M155.1,546.4"/>
		<polyline class="st22" points="154.4,545.7 123.9,545.7 123.9,512.1 153.9,512.1 		"/>
		<rect x="117.2" y="520.8" class="st6" width="11.6" height="15"/>
		<g>
			<polygon class="st23" points="350,648.3 630.9,648.3 630.9,507.1 595,495.4 388.4,495.6 350,507.9 			"/>
			<path class="st24" d="M531.3,758.8h-81.7c-16,0-28.9-13-28.9-28.9v0h139.6v0C560.2,745.9,547.3,758.8,531.3,758.8z"/>
			<path class="st25" d="M436.5,734.8h107.9c47.8,0,86.5-38.7,86.5-86.5v0H350v0C350,696.1,388.7,734.8,436.5,734.8z"/>
			<rect x="387.1" y="495.4" class="st26" width="206.6" height="152.9"/>
			<path class="st12" d="M446.3,734.8h88.3c32.7,0,59.1-26.5,59.1-59.1v-27H387.1v27C387.1,708.3,413.6,734.8,446.3,734.8z"/>
			<path class="st23" d="M449.8,543.1c0,0,0.1-44.2,0-44.2c-0.1,0-27,0-27,0l10.5,41.7L449.8,543.1z"/>
			<polygon class="st23" points="527.9,541.5 527.9,497.6 553.9,497.6 545.2,540.6 			"/>
			<path class="st4" d="M449.8,538.5v4.6h-19.3l-9.3-47.3h4.6l8.4,42.7H449.8z"/>
			<path class="st4" d="M556.4,495.8l-9.3,47.3h-19.3v-4h16.1l8.5-43.3H556.4z"/>
			<rect x="469.4" y="616.1" class="st4" width="42" height="22.4"/>
			<polygon class="st27" points="460.3,647.9 520.5,647.9 511.4,638.4 469.4,638.4 			"/>
			<path class="st28" d="M478.1,325.7H505c10.4,0,20.3,4.3,27.4,11.9l0.6,0.6h-82.8l0,0C457.2,330.3,467.4,325.7,478.1,325.7z"/>
			<path class="st29" d="M492.1,325.7h-14c-10.7,0-20.9,4.6-28,12.5h31.2C483.6,333.2,487.4,328.9,492.1,325.7z"/>
			<path class="st7" d="M506.2,325.7h-29.3v-90.4c0-8.1,6.6-14.7,14.7-14.7h0c8.1,0,14.7,6.6,14.7,14.7V325.7z"/>
			<path class="st30" d="M502,325.7H481v-94.6c0-5.8,4.7-10.5,10.5-10.5l0,0c5.8,0,10.5,4.7,10.5,10.5V325.7z"/>
			<path class="st12" d="M488.4,221.1v104.6h-2.9V222.5C486.4,221.9,487.4,221.4,488.4,221.1z M490.4,220.7v105h1.1V220.6
				C491.2,220.6,490.8,220.6,490.4,220.7z"/>
			<polygon class="st31" points="341.6,512.6 384.4,498.9 596.4,498.9 639.3,512.6 639.3,358.5 596.4,339.1 384.4,339.1 
				341.6,358.5 			"/>
			<rect x="384.4" y="338.2" class="st28" width="212" height="160.7"/>
			<polygon class="st30" points="384.4,498.9 488.5,498.9 506.2,338.2 384.4,338.2 			"/>
			<path class="st7" d="M492.9,758.9h12.9c0,4.1-5.8,7.4-12.9,7.4c-7.1,0-12.9-3.3-12.9-7.4c0,0,0,0,0,0L492.9,758.9z"/>
			<path class="st29" d="M492.9,764.8c-1-1-1.6-2.5-1.6-3.9v-0.1c0-0.7,0.1-1.3,0.4-1.9l-11.6,0c0,0,0,0,0,0c0,4.1,5.8,7.4,12.9,7.4
				c0.8,0,1.5,0,2.2-0.1C494.3,765.9,493.5,765.4,492.9,764.8z"/>
			<path class="st29" d="M501.9,758.9c0.2,0.6,0.4,1.3,0.4,1.9v0.1c0,1.5-0.6,2.8-1.6,3.8c3.1-1.4,5.1-3.5,5.1-5.9H501.9z"/>
		</g>
	</g>
	<g>
		<path class="st32" d="M981,301.6c0-64.4-58.1-116.6-128.6-116.6s-127.6,52.2-127.6,116.6s57.2,116.6,127.6,116.6
			S981,366,981,301.6z"/>
		<path class="st33" d="M843.9,186.1c0,0,8.2,0,10.5,3.9c0,0,30.5-7.8,73,18.7c42.5,26.5,50.5,67.7,50.5,67.7l1.4,6.4
			c0,0,50.3-21.1,69.8-60.4s8.6-72.5-3.1-89.7c-11.7-17.2-55.8-65.1-99.8-84.2c-44.1-19.1-78-29.1-92,0
			C843.3,70.6,843.9,186.1,843.9,186.1z"/>
		<path class="st34" d="M930.2,299c0,0-1.7,135.1-142.1,90.1c0,0,8.9,75.1,21.7,99.4c14.2,26.9,48.9,54.5,120.3,27.3
			c71.4-27.2,125.8-68.4,143.7-111.3c0,0,10-29-15.5-43.9C1033,345.8,939.8,299,939.8,299H930.2z"/>
		<path class="st35" d="M793.9,427.9"/>
		<path class="st33" d="M788.1,389.1c0,0,3.3,91.1,56,116.5c52.6,25.3,138.3-27.7,159.6-43c21.3-15.3,79.7-66.3,58.2-99.7L939.8,299
			h-9.6c0,0-2.8,83.5-65.4,96.4C827.8,402.9,787.2,389.3,788.1,389.1z"/>
		<path class="st34" d="M1060.7,201.7c-9.8,52.3-81.5,81.1-81.5,81.1c-0.4-2.2-0.9-4.3-1.4-6.4l0,0c0,0,42.7-15.9,66.1-53.3
			c16.6-26.6,17.5-54.3,7.8-77.4C1060.1,162.3,1064.5,181.1,1060.7,201.7z"/>
		<path class="st34" d="M854.4,190c0,0-0.7-108.3,4.3-131c5-22.7,12-28.6,21-28.6c0,0-20.5-0.6-28.2,25.5
			c-7.7,26.1-7.7,130.2-7.7,130.2S852.1,185.7,854.4,190z"/>
		<path class="st34" d="M755.5,288c0,0.9-2.4,13.9-2.4,13.9s-69.4,15.8-110.9,21.8s-80,17.9-87.1-33.7c-3.9-28-2.1-80.4,65.3-102.9
			s164,17.6,163.1,17.6c-0.9,0-16.3,10.3-27,21.8c-10.7,11.6-28.7,35.8-22.3,47.7C740.8,286.3,755.5,288,755.5,288z"/>
		<path class="st33" d="M755.5,288c0,0-80.5,13.6-108.3,17.9c-27.8,4.3-68.7,21-80.9-17.9c-12.2-39,16.3-93.2,66.5-104.2
			s87.9,2.7,150.8,19.9c0,0-28,17.7-41.8,42.1S729.6,278.8,755.5,288z"/>
		<path class="st36" d="M977.8,324.5"/>
	</g>
</g>
</svg>
