<?xml version="1.0" encoding="utf-8"?>
<!-- Generator: Adobe Illustrator 19.1.0, SVG Export Plug-In . SVG Version: 6.00 Build 0)  -->
<svg version="1.1" id="Ebene_1" xmlns:rdf="http://www.w3.org/1999/02/22-rdf-syntax-ns#" xmlns:svg="http://www.w3.org/2000/svg" xmlns:cc="http://creativecommons.org/ns#" xmlns:dc="http://purl.org/dc/elements/1.1/" xmlns="http://www.w3.org/2000/svg" xmlns:xlink="http://www.w3.org/1999/xlink" x="0px" y="0px" width="84.5px" height="128px" viewBox="-576.3 337.3 84.5 128" enable-background="new -576.3 337.3 84.5 128" xml:space="preserve">
    <path fill-rule="evenodd" clip-rule="evenodd" fill="#D7D7D7" d="M-496.9,337.3h-74.3c-2.8,0-5.1,2.3-5.1,5.1v117.9
    c0,2.8,2.3,5.1,5.1,5.1h32.8c0-2.5,2-4.5,4.5-4.5c2.5,0,4.5,2,4.5,4.5h32.6c2.8,0,5.1-2.3,5.1-5.1V342.3
    C-491.8,339.5-494.1,337.3-496.9,337.3z" />
    <g>
        <g>
            <path fill="#2D2929" d="M-511.7,353.8v75c0,3.3-2.7,6-6,6h-32.4c-3.3,0-6-2.7-6-6v-75c0-3.3,2.7-6,6-6h32.4
            C-514.4,347.8-511.7,350.5-511.7,353.8z" />
        </g>
        <g>
            <circle fill-rule="evenodd" clip-rule="evenodd" fill="#D7D7D7" cx="-549.4" cy="405.5" r="4.4" />
            <circle fill-rule="evenodd" clip-rule="evenodd" fill="#D7D7D7" cx="-549.4" cy="391.2" r="4.4" />
            <circle fill-rule="evenodd" clip-rule="evenodd" fill="#D7D7D7" cx="-549.4" cy="377.2" r="4.4" />
            <g>
                <path fill="#CCAE19" d="M-549.4,402.1c1.9,0,3.4,1.5,3.4,3.4c0,1.9-1.5,3.4-3.4,3.4s-3.4-1.5-3.4-3.4
                C-552.8,403.6-551.3,402.1-549.4,402.1 M-549.4,401.1c-2.5,0-4.4,2-4.4,4.4s2,4.4,4.4,4.4s4.4-2,4.4-4.4S-547,401.1-549.4,401.1
                L-549.4,401.1z" />
            </g>
            <g>
                <path fill="#CCAE19" d="M-549.4,387.7c1.9,0,3.4,1.5,3.4,3.4c0,1.9-1.5,3.4-3.4,3.4s-3.4-1.5-3.4-3.4
                C-552.8,389.3-551.3,387.7-549.4,387.7 M-549.4,386.7c-2.5,0-4.4,2-4.4,4.4c0,2.5,2,4.4,4.4,4.4s4.4-2,4.4-4.4
                C-545,388.7-547,386.7-549.4,386.7L-549.4,386.7z" />
            </g>
            <g>
                <path fill="#CCAE19" d="M-549.4,373.8c1.9,0,3.4,1.5,3.4,3.4c0,1.9-1.5,3.4-3.4,3.4s-3.4-1.5-3.4-3.4
                C-552.8,375.3-551.3,373.8-549.4,373.8 M-549.4,372.8c-2.5,0-4.4,2-4.4,4.4s2,4.4,4.4,4.4s4.4-2,4.4-4.4S-547,372.8-549.4,372.8
                L-549.4,372.8z" />
            </g>
        </g>
        <g>
            <circle fill-rule="evenodd" clip-rule="evenodd" fill="#D7D7D7" cx="-518.4" cy="405.5" r="4.4" />
            <circle fill-rule="evenodd" clip-rule="evenodd" fill="#D7D7D7" cx="-518.4" cy="391.2" r="4.4" />
            <circle fill-rule="evenodd" clip-rule="evenodd" fill="#D7D7D7" cx="-518.4" cy="377.2" r="4.4" />
            <g>
                <path fill="#CCAE19" d="M-518.4,402.1c1.9,0,3.4,1.5,3.4,3.4c0,1.9-1.5,3.4-3.4,3.4c-1.9,0-3.4-1.5-3.4-3.4
                C-521.8,403.6-520.3,402.1-518.4,402.1 M-518.4,401.1c-2.5,0-4.4,2-4.4,4.4s2,4.4,4.4,4.4s4.4-2,4.4-4.4S-516,401.1-518.4,401.1
                L-518.4,401.1z" />
            </g>
            <g>
                <path fill="#CCAE19" d="M-518.4,387.7c1.9,0,3.4,1.5,3.4,3.4c0,1.9-1.5,3.4-3.4,3.4c-1.9,0-3.4-1.5-3.4-3.4
                C-521.8,389.3-520.3,387.7-518.4,387.7 M-518.4,386.7c-2.5,0-4.4,2-4.4,4.4c0,2.5,2,4.4,4.4,4.4s4.4-2,4.4-4.4
                C-514,388.7-516,386.7-518.4,386.7L-518.4,386.7z" />
            </g>
            <g>
                <path fill="#CCAE19" d="M-518.4,373.8c1.9,0,3.4,1.5,3.4,3.4c0,1.9-1.5,3.4-3.4,3.4c-1.9,0-3.4-1.5-3.4-3.4
                C-521.8,375.3-520.3,373.8-518.4,373.8 M-518.4,372.8c-2.5,0-4.4,2-4.4,4.4s2,4.4,4.4,4.4s4.4-2,4.4-4.4S-516,372.8-518.4,372.8
                L-518.4,372.8z" />
            </g>
        </g>
        <g>
            <g>
                <circle fill-rule="evenodd" clip-rule="evenodd" fill="#D7D7D7" cx="-517.1" cy="425.3" r="1.1" />
                <path fill="#CCAE19" d="M-517.1,424.5c0.4,0,0.8,0.4,0.8,0.8s-0.4,0.8-0.8,0.8c-0.4,0-0.8-0.4-0.8-0.8S-517.6,424.5-517.1,424.5
                 M-517.1,424c-0.7,0-1.3,0.6-1.3,1.3s0.6,1.3,1.3,1.3c0.7,0,1.3-0.6,1.3-1.3S-516.4,424-517.1,424L-517.1,424z" />
            </g>
            <g>
                <circle fill-rule="evenodd" clip-rule="evenodd" fill="#D7D7D7" cx="-517.1" cy="429.1" r="1.1" />
                <path fill="#CCAE19" d="M-517.1,428.3c0.4,0,0.8,0.4,0.8,0.8s-0.4,0.8-0.8,0.8c-0.4,0-0.8-0.4-0.8-0.8S-517.6,428.3-517.1,428.3
                 M-517.1,427.8c-0.7,0-1.3,0.6-1.3,1.3s0.6,1.3,1.3,1.3c0.7,0,1.3-0.6,1.3-1.3S-516.4,427.8-517.1,427.8L-517.1,427.8z" />
            </g>
            <g>
                <circle fill-rule="evenodd" clip-rule="evenodd" fill="#D7D7D7" cx="-517.1" cy="421.6" r="1.1" />
                <path fill="#CCAE19" d="M-517.1,420.8c0.4,0,0.8,0.4,0.8,0.8s-0.4,0.8-0.8,0.8c-0.4,0-0.8-0.4-0.8-0.8S-517.6,420.8-517.1,420.8
                 M-517.1,420.3c-0.7,0-1.3,0.6-1.3,1.3s0.6,1.3,1.3,1.3c0.7,0,1.3-0.6,1.3-1.3S-516.4,420.3-517.1,420.3L-517.1,420.3z" />
            </g>
            <g>
                <rect x="-518.2" y="416.8" fill-rule="evenodd" clip-rule="evenodd" fill="#D7D7D7" width="2.1" height="2.1" />
                <g>
                    <path fill="#CCAE19" d="M-516.3,417.1v1.6h-1.6v-1.6H-516.3 M-515.8,416.6h-2.6v2.6h2.6V416.6L-515.8,416.6z" />
                </g>
            </g>
        </g>
        <g>
            <circle fill-rule="evenodd" clip-rule="evenodd" fill="#A3A099" cx="-535.8" cy="430.7" r="1" />
            <circle fill-rule="evenodd" clip-rule="evenodd" fill="#A3A099" cx="-532.9" cy="430.7" r="1" />
            <circle fill-rule="evenodd" clip-rule="evenodd" fill="#A3A099" cx="-530.1" cy="430.7" r="1" />
        </g>
        <text transform="matrix(0 -1 1 0 -538.0461 409.1904)">
            <tspan x="0" y="0" fill="#E2E1E0" font-family="'AkkuratMonoPro-Regular'" font-size="6px">Infrared</tspan>
            <tspan x="0" y="6" fill="#E2E1E0" font-family="'AkkuratMonoPro-Regular'" font-size="6px">Receiver</tspan>
            <tspan x="3.7" y="12" fill="#E2E1E0" font-family="'AkkuratMonoPro-Regular'" font-size="6px">Decode</tspan>
        </text>
        <g>
            <circle fill-rule="evenodd" clip-rule="evenodd" fill="#A3A099" cx="-537.8" cy="426.7" r="1" />
            <circle fill-rule="evenodd" clip-rule="evenodd" fill="#A3A099" cx="-534.9" cy="426.7" r="1" />
            <circle fill-rule="evenodd" clip-rule="evenodd" fill="#A3A099" cx="-532.1" cy="426.7" r="1" />
        </g>
        <g>
            <g>
                <rect x="-549.8" y="362.5" fill-rule="evenodd" clip-rule="evenodd" fill="#D6D4D0" width="4.8" height="1.6" />
                <rect x="-548.6" y="362.5" fill-rule="evenodd" clip-rule="evenodd" fill="#DBBA31" width="2.6" height="1.6" />
            </g>
            <g>
                <rect x="-549.8" y="359.7" fill-rule="evenodd" clip-rule="evenodd" fill="#C4C3C2" width="4.8" height="1.6" />
                <rect x="-548.6" y="359.7" fill-rule="evenodd" clip-rule="evenodd" fill="#E8E8E8" width="2.6" height="1.6" />
            </g>
            <g>
                <rect x="-549.8" y="356.9" fill-rule="evenodd" clip-rule="evenodd" fill="#D6D4D0" width="4.8" height="1.6" />
                <rect x="-548.6" y="356.9" fill-rule="evenodd" clip-rule="evenodd" fill="#DBBA31" width="2.6" height="1.6" />
            </g>
        </g>
        <g>
            <g>
                <rect x="-524" y="362.5" fill-rule="evenodd" clip-rule="evenodd" fill="#D6D4D0" width="4.8" height="1.6" />
                <rect x="-522.8" y="362.5" fill-rule="evenodd" clip-rule="evenodd" fill="#8C8C8C" width="2.6" height="1.6" />
            </g>
            <g>
                <rect x="-524" y="359.7" fill-rule="evenodd" clip-rule="evenodd" fill="#D6D4D0" width="4.8" height="1.6" />
                <rect x="-522.8" y="359.7" fill-rule="evenodd" clip-rule="evenodd" fill="#8C8C8C" width="2.6" height="1.6" />
            </g>
            <g>
                <rect x="-524" y="356.9" fill-rule="evenodd" clip-rule="evenodd" fill="#BFBEBE" width="4.8" height="1.6" />
                <rect x="-522.8" y="356.9" fill-rule="evenodd" clip-rule="evenodd" fill="#EDEDED" width="2.6" height="1.6" />
            </g>
        </g>
        <rect x="-551.1" y="421.7" fill-rule="evenodd" clip-rule="evenodd" fill="#4C4C4B" width="3.3" height="7.4" />
        <rect x="-550.4" y="429.1" fill-rule="evenodd" clip-rule="evenodd" fill="#BCBCB8" width="1.9" height="1.6" />
        <g>
            <rect x="-553.5" y="425.7" fill-rule="evenodd" clip-rule="evenodd" fill="#BCBCB8" width="1.1" height="3.7" />
            <rect x="-553.5" y="426.5" fill-rule="evenodd" clip-rule="evenodd" fill="#FFFFFF" width="1.1" height="2.2" />
        </g>
        <g>
            <rect x="-553.5" y="420.4" fill-rule="evenodd" clip-rule="evenodd" fill="#BCBCB8" width="1.1" height="3.7" />
            <rect x="-553.5" y="421.1" fill-rule="evenodd" clip-rule="evenodd" fill="#FFFFFF" width="1.1" height="2.2" />
        </g>
        <rect x="-550.4" y="420.1" fill-rule="evenodd" clip-rule="evenodd" fill="#BCBCB8" width="1.9" height="1.6" />
        <g>
            <circle fill-rule="evenodd" clip-rule="evenodd" fill="#545454" cx="-533.9" cy="355.7" r="5" />
            <circle fill-rule="evenodd" clip-rule="evenodd" fill="#2D2D2C" cx="-534" cy="355.7" r="3.8" />
            <circle fill-rule="evenodd" clip-rule="evenodd" fill="#424242" cx="-533.6" cy="355.3" r="3.5" />
            <path fill-rule="evenodd" clip-rule="evenodd" fill="#5E5E5E" d="M-535,353.9c0.3-0.2,0.7-0.3,1.1-0.3c1.1,0,2.1,0.9,2.1,2.1
            c0,0.4-0.1,0.8-0.4,1.2c0.6-0.4,1-1,1-1.7c0-1.1-0.9-2.1-2.1-2.1C-534,353-534.7,353.4-535,353.9z" />
        </g>
        <g>
            <rect x="-536" y="372.8" fill-rule="evenodd" clip-rule="evenodd" fill="#D6D4D0" width="4.8" height="1.6" />
            <rect x="-534.9" y="372.8" fill-rule="evenodd" clip-rule="evenodd" fill="#DBBA31" width="2.6" height="1.6" />
        </g>
        <rect x="-536.5" y="363.5" fill-rule="evenodd" clip-rule="evenodd" fill="#4C4C4B" width="6.2" height="7.7" />
        <rect x="-530.3" y="363.9" fill-rule="evenodd" clip-rule="evenodd" fill="#BCBCB8" width="1.6" height="0.9" />
        <rect x="-530.3" y="369.7" fill-rule="evenodd" clip-rule="evenodd" fill="#BCBCB8" width="1.6" height="0.9" />
        <rect x="-530.3" y="367.8" fill-rule="evenodd" clip-rule="evenodd" fill="#BCBCB8" width="1.6" height="0.9" />
        <rect x="-530.3" y="365.9" fill-rule="evenodd" clip-rule="evenodd" fill="#BCBCB8" width="1.6" height="0.9" />
        <rect x="-538" y="363.9" fill-rule="evenodd" clip-rule="evenodd" fill="#BCBCB8" width="1.6" height="0.9" />
        <rect x="-538" y="369.7" fill-rule="evenodd" clip-rule="evenodd" fill="#BCBCB8" width="1.6" height="0.9" />
        <rect x="-538" y="367.8" fill-rule="evenodd" clip-rule="evenodd" fill="#BCBCB8" width="1.6" height="0.9" />
        <rect x="-538" y="365.9" fill-rule="evenodd" clip-rule="evenodd" fill="#BCBCB8" width="1.6" height="0.9" />
        <g>
            <path fill-rule="evenodd" clip-rule="evenodd" fill="#1D6BDD" d="M-541.9,450.4c-1.1,0-2-0.9-2-2v-14.1h20.1v14.1c0,1.1-0.9,2-2,2
            H-541.9z" />
            <path fill="#2D2929" d="M-524.4,434.8v13.6c0,0.8-0.7,1.5-1.5,1.5h-16c-0.8,0-1.5-0.7-1.5-1.5v-13.6H-524.4 M-523.4,433.8h-21.1
            v14.6c0,1.4,1.1,2.5,2.5,2.5h16c1.4,0,2.5-1.1,2.5-2.5V433.8L-523.4,433.8z" />
        </g>
    </g>
</svg>