<svg id="Ebene_1" data-name="Ebene 1" xmlns="http://www.w3.org/2000/svg" viewBox="0 0 64.49 118.34"><defs><style>.cls-1,.cls-3{fill:#d7d7d7;}.cls-1,.cls-18,.cls-19{fill-rule:evenodd;}.cls-2,.cls-27{fill:#2d2929;}.cls-4{fill:#ccae19;}.cls-5{fill:#d6d4d0;}.cls-6{fill:#dbba31;}.cls-7{fill:#c4c3c2;}.cls-8{fill:#e8e8e8;}.cls-9{fill:#8c8c8c;}.cls-10{fill:#bfbebe;}.cls-11{fill:#ededed;}.cls-12{fill:#4c4c4b;}.cls-13{fill:#bcbcb8;}.cls-14,.cls-22{fill:#fff;}.cls-15{fill:#545454;}.cls-16{fill:#2d2d2c;}.cls-17{fill:#424242;}.cls-18{fill:#6d6c6c;}.cls-19{fill:#1d6bdd;}.cls-20,.cls-21{fill:none;stroke:#fff;stroke-linecap:round;stroke-miterlimit:10;}.cls-20{stroke-width:0.3px;}.cls-21{stroke-width:0.3px;}.cls-22{font-size:4.42px;}.cls-22,.cls-27{font-family:MyriadPro-Regular, Myriad Pro;}.cls-23{fill:#d6d6d6;}.cls-24{fill:#c6c4c4;}.cls-25{fill:#a5a4a4;}.cls-26{fill:#efefef;}.cls-27{font-size:1.7px;}.cls-28{letter-spacing:0.02em;}.cls-29{letter-spacing:0.03em;}</style></defs><title>Mesa de trabajo 1</title><path class="cls-1" d="M59.42,0H5.07A4.89,4.89,0,0,0,0,4.69v109a4.89,4.89,0,0,0,5.07,4.69H27.9a4.3,4.3,0,0,1,4.46-4.12,4.3,4.3,0,0,1,4.46,4.12h22.6a4.89,4.89,0,0,0,5.07-4.69V4.69A4.89,4.89,0,0,0,59.42,0Z"/><rect class="cls-2" x="-11.1" y="33.96" width="87" height="44.39" rx="6" ry="6" transform="translate(-23.75 88.55) rotate(-90)"/><circle class="cls-3" cx="16.93" cy="73.4" r="4.44"/><path class="cls-4" d="M16.93,70a3.44,3.44,0,1,1-3.44,3.44A3.44,3.44,0,0,1,16.93,70m0-1a4.44,4.44,0,1,0,4.44,4.44A4.44,4.44,0,0,0,16.93,69Z"/><circle class="cls-3" cx="47.92" cy="73.4" r="4.44"/><path class="cls-4" d="M47.92,70a3.44,3.44,0,1,1-3.44,3.44A3.44,3.44,0,0,1,47.92,70m0-1a4.44,4.44,0,1,0,4.44,4.44A4.44,4.44,0,0,0,47.92,69Z"/><circle class="cls-3" cx="49.23" cy="90.21" r="1.05"/><path class="cls-4" d="M49.23,89.4a.8.8,0,1,1-.8.8.8.8,0,0,1,.8-.8m0-.5a1.3,1.3,0,1,0,1.3,1.3,1.3,1.3,0,0,0-1.3-1.3Z"/><circle class="cls-3" cx="49.23" cy="93.94" r="1.05"/><path class="cls-4" d="M49.23,93.13a.8.8,0,1,1-.8.8.8.8,0,0,1,.8-.8m0-.5a1.3,1.3,0,1,0,1.3,1.3,1.3,1.3,0,0,0-1.3-1.3Z"/><circle class="cls-3" cx="49.23" cy="86.48" r="1.05"/><path class="cls-4" d="M49.23,85.68a.8.8,0,1,1-.8.8.8.8,0,0,1,.8-.8m0-.5a1.3,1.3,0,1,0,1.3,1.3,1.3,1.3,0,0,0-1.3-1.3Z"/><rect class="cls-3" x="48.17" y="81.7" width="2.11" height="2.11"/><path class="cls-4" d="M50,81.95v1.61H48.42V81.95H50m.5-.5H47.92v2.61h2.61V81.45Z"/><rect class="cls-5" x="27.48" y="65.06" width="1.46" height="4.43"/><rect class="cls-6" x="27.48" y="66.08" width="1.46" height="2.38"/><rect class="cls-7" x="30.06" y="65.06" width="1.46" height="4.43"/><rect class="cls-8" x="30.06" y="66.08" width="1.46" height="2.38"/><rect class="cls-5" x="32.64" y="65.06" width="1.46" height="4.43"/><rect class="cls-6" x="32.64" y="66.08" width="1.46" height="2.38"/><rect class="cls-5" x="35.33" y="65.06" width="1.46" height="4.43"/><rect class="cls-6" x="35.33" y="66.08" width="1.46" height="2.38"/><rect class="cls-5" x="26.48" y="72.28" width="1.46" height="4.43"/><rect class="cls-6" x="26.48" y="73.3" width="1.46" height="2.38"/><rect class="cls-5" x="37.09" y="72.28" width="1.46" height="4.43"/><rect class="cls-6" x="37.09" y="73.3" width="1.46" height="2.38"/><rect class="cls-5" x="48.42" y="48.48" width="1.46" height="4.43" transform="translate(99.84 1.54) rotate(90)"/><rect class="cls-6" x="48.42" y="49.5" width="1.46" height="2.38" transform="translate(99.84 1.54) rotate(90)"/><rect class="cls-7" x="48.42" y="51.06" width="1.46" height="4.43" transform="translate(102.42 4.12) rotate(90)"/><rect class="cls-8" x="48.42" y="52.08" width="1.46" height="2.38" transform="translate(102.42 4.12) rotate(90)"/><rect class="cls-7" x="48.42" y="58.69" width="1.46" height="4.43" transform="translate(110.06 11.76) rotate(90)"/><rect class="cls-8" x="48.42" y="59.72" width="1.46" height="2.38" transform="translate(110.06 11.76) rotate(90)"/><rect class="cls-5" x="48.42" y="53.64" width="1.46" height="4.43" transform="translate(105.01 6.7) rotate(90)"/><rect class="cls-6" x="48.42" y="54.66" width="1.46" height="2.38" transform="translate(105.01 6.7) rotate(90)"/><rect class="cls-5" x="48.42" y="56.33" width="1.46" height="4.43" transform="translate(107.7 9.39) rotate(90)"/><rect class="cls-6" x="48.42" y="57.35" width="1.46" height="2.38" transform="translate(107.7 9.39) rotate(90)"/><rect class="cls-5" x="21.45" y="41.5" width="1.46" height="4.43"/><rect class="cls-6" x="21.45" y="42.52" width="1.46" height="2.38"/><rect class="cls-7" x="24.03" y="41.5" width="1.46" height="4.43"/><rect class="cls-8" x="24.03" y="42.52" width="1.46" height="2.38"/><rect class="cls-5" x="26.61" y="41.5" width="1.46" height="4.43"/><rect class="cls-6" x="26.61" y="42.52" width="1.46" height="2.38"/><rect class="cls-5" x="29.29" y="41.5" width="1.46" height="4.43"/><rect class="cls-6" x="29.29" y="42.52" width="1.46" height="2.38"/><rect class="cls-7" x="31.87" y="41.5" width="1.46" height="4.43"/><rect class="cls-8" x="31.87" y="42.52" width="1.46" height="2.38"/><rect class="cls-5" x="34.45" y="41.5" width="1.46" height="4.43"/><rect class="cls-6" x="34.45" y="42.52" width="1.46" height="2.38"/><rect class="cls-5" x="37.2" y="41.5" width="1.46" height="4.43"/><rect class="cls-6" x="37.2" y="42.52" width="1.46" height="2.38"/><rect class="cls-7" x="39.78" y="41.5" width="1.46" height="4.43"/><rect class="cls-8" x="39.78" y="42.52" width="1.46" height="2.38"/><rect class="cls-5" x="42.36" y="41.5" width="1.46" height="4.43"/><rect class="cls-6" x="42.36" y="42.52" width="1.46" height="2.38"/><rect class="cls-5" x="15.15" y="24.61" width="1.58" height="4.79" transform="translate(-11.07 42.95) rotate(-90)"/><rect class="cls-6" x="15.15" y="25.72" width="1.58" height="2.58" transform="translate(-11.07 42.95) rotate(-90)"/><rect class="cls-7" x="15.15" y="21.82" width="1.58" height="4.79" transform="translate(-8.28 40.16) rotate(-90)"/><rect class="cls-8" x="15.15" y="22.93" width="1.58" height="2.58" transform="translate(-8.28 40.16) rotate(-90)"/><rect class="cls-5" x="15.15" y="19.03" width="1.58" height="4.79" transform="translate(-5.49 37.36) rotate(-90)"/><rect class="cls-6" x="15.15" y="20.14" width="1.58" height="2.58" transform="translate(-5.49 37.36) rotate(-90)"/><rect class="cls-5" x="15.15" y="33.02" width="1.58" height="4.79" transform="translate(-19.48 51.36) rotate(-90)"/><rect class="cls-9" x="15.15" y="34.13" width="1.58" height="2.58" transform="translate(-19.48 51.36) rotate(-90)"/><rect class="cls-5" x="15.15" y="30.23" width="1.58" height="4.79" transform="translate(-16.69 48.56) rotate(-90)"/><rect class="cls-9" x="15.15" y="31.34" width="1.58" height="2.58" transform="translate(-16.69 48.56) rotate(-90)"/><rect class="cls-10" x="15.15" y="27.44" width="1.58" height="4.79" transform="translate(-13.9 45.77) rotate(-90)"/><rect class="cls-11" x="15.15" y="28.55" width="1.58" height="2.58" transform="translate(-13.9 45.77) rotate(-90)"/><rect class="cls-5" x="15.15" y="41.31" width="1.58" height="4.79" transform="translate(-27.77 59.65) rotate(-90)"/><rect class="cls-6" x="15.15" y="42.42" width="1.58" height="2.58" transform="translate(-27.77 59.65) rotate(-90)"/><rect class="cls-7" x="15.15" y="38.52" width="1.58" height="4.79" transform="translate(-24.98 56.86) rotate(-90)"/><rect class="cls-8" x="15.15" y="39.63" width="1.58" height="2.58" transform="translate(-24.98 56.86) rotate(-90)"/><rect class="cls-5" x="15.15" y="35.73" width="1.58" height="4.79" transform="translate(-22.19 54.07) rotate(-90)"/><rect class="cls-6" x="15.15" y="36.84" width="1.58" height="2.58" transform="translate(-22.19 54.07) rotate(-90)"/><rect class="cls-5" x="15.15" y="58.2" width="1.58" height="4.79" transform="translate(-44.65 76.53) rotate(-90)"/><rect class="cls-6" x="15.15" y="59.3" width="1.58" height="2.58" transform="translate(-44.65 76.53) rotate(-90)"/><rect class="cls-7" x="15.15" y="55.4" width="1.58" height="4.79" transform="translate(-41.86 73.74) rotate(-90)"/><rect class="cls-8" x="15.15" y="56.51" width="1.58" height="2.58" transform="translate(-41.86 73.74) rotate(-90)"/><rect class="cls-5" x="15.15" y="52.61" width="1.58" height="4.79" transform="translate(-39.07 70.95) rotate(-90)"/><rect class="cls-6" x="15.15" y="53.72" width="1.58" height="2.58" transform="translate(-39.07 70.95) rotate(-90)"/><rect class="cls-5" x="15.15" y="49.72" width="1.58" height="4.79" transform="translate(-36.18 68.06) rotate(-90)"/><rect class="cls-9" x="15.15" y="50.83" width="1.58" height="2.58" transform="translate(-36.18 68.06) rotate(-90)"/><rect class="cls-5" x="15.15" y="46.93" width="1.58" height="4.79" transform="translate(-33.39 65.27) rotate(-90)"/><rect class="cls-9" x="15.15" y="48.04" width="1.58" height="2.58" transform="translate(-33.39 65.27) rotate(-90)"/><rect class="cls-10" x="15.15" y="44.14" width="1.58" height="4.79" transform="translate(-30.6 62.48) rotate(-90)"/><rect class="cls-11" x="15.15" y="45.25" width="1.58" height="2.58" transform="translate(-30.6 62.48) rotate(-90)"/><rect class="cls-12" x="13.19" y="88.57" width="7.39" height="3.33" transform="translate(-73.35 107.12) rotate(-90)"/><rect class="cls-13" x="16.1" y="93.77" width="1.57" height="1.9" transform="translate(-77.83 111.6) rotate(-90)"/><rect class="cls-13" x="11.55" y="91.88" width="3.69" height="1.09" transform="translate(-79.04 105.82) rotate(-90)"/><rect class="cls-14" x="12.31" y="91.88" width="2.16" height="1.09" transform="translate(-79.04 105.82) rotate(-90)"/><rect class="cls-13" x="11.55" y="86.53" width="3.69" height="1.09" transform="translate(-73.69 100.47) rotate(-90)"/><rect class="cls-14" x="12.31" y="86.53" width="2.16" height="1.09" transform="translate(-73.69 100.47) rotate(-90)"/><rect class="cls-13" x="16.1" y="84.81" width="1.57" height="1.9" transform="translate(-68.87 102.64) rotate(-90)"/><circle class="cls-15" cx="32.43" cy="23.23" r="13.23"/><circle class="cls-16" cx="32.29" cy="23.23" r="10.92"/><circle class="cls-17" cx="33.03" cy="22.49" r="10.18"/><path class="cls-18" d="M41.08,22.13a7.56,7.56,0,0,0-13.57-4.6,7.56,7.56,0,0,1,10.6,10.6A7.55,7.55,0,0,0,41.08,22.13Z"/><rect class="cls-12" x="29.59" y="44.16" width="6.2" height="23.28" transform="translate(88.49 23.11) rotate(90)"/><rect class="cls-13" x="27.12" y="59.21" width="1.57" height="0.95" transform="translate(87.59 31.78) rotate(90)"/><rect class="cls-13" x="21.35" y="59.21" width="1.57" height="0.95" transform="translate(81.81 37.55) rotate(90)"/><rect class="cls-13" x="23.27" y="59.21" width="1.57" height="0.95" transform="translate(83.74 35.63) rotate(90)"/><rect class="cls-13" x="25.19" y="59.21" width="1.57" height="0.95" transform="translate(85.66 33.71) rotate(90)"/><rect class="cls-13" x="27.12" y="51.44" width="1.57" height="0.95" transform="translate(79.82 24.02) rotate(90)"/><rect class="cls-13" x="21.35" y="51.44" width="1.57" height="0.95" transform="translate(74.05 29.79) rotate(90)"/><rect class="cls-13" x="23.27" y="51.44" width="1.57" height="0.95" transform="translate(75.97 27.86) rotate(90)"/><rect class="cls-13" x="25.19" y="51.44" width="1.57" height="0.95" transform="translate(77.89 25.94) rotate(90)"/><rect class="cls-13" x="34.73" y="59.21" width="1.57" height="0.95" transform="translate(95.2 24.17) rotate(90)"/><rect class="cls-13" x="28.96" y="59.21" width="1.57" height="0.95" transform="translate(89.42 29.94) rotate(90)"/><rect class="cls-13" x="30.88" y="59.21" width="1.57" height="0.95" transform="translate(91.35 28.02) rotate(90)"/><rect class="cls-13" x="32.8" y="59.21" width="1.57" height="0.95" transform="translate(93.27 26.1) rotate(90)"/><rect class="cls-13" x="34.73" y="51.44" width="1.57" height="0.95" transform="translate(87.43 16.41) rotate(90)"/><rect class="cls-13" x="28.96" y="51.44" width="1.57" height="0.95" transform="translate(81.66 22.18) rotate(90)"/><rect class="cls-13" x="30.88" y="51.44" width="1.57" height="0.95" transform="translate(83.58 20.25) rotate(90)"/><rect class="cls-13" x="32.8" y="51.44" width="1.57" height="0.95" transform="translate(85.5 18.33) rotate(90)"/><rect class="cls-13" x="42.34" y="59.21" width="1.57" height="0.95" transform="translate(102.81 16.56) rotate(90)"/><rect class="cls-13" x="36.57" y="59.21" width="1.57" height="0.95" transform="translate(97.04 22.33) rotate(90)"/><rect class="cls-13" x="38.49" y="59.21" width="1.57" height="0.95" transform="translate(98.96 20.41) rotate(90)"/><rect class="cls-13" x="40.41" y="59.21" width="1.57" height="0.95" transform="translate(100.88 18.49) rotate(90)"/><rect class="cls-13" x="42.34" y="51.44" width="1.57" height="0.95" transform="translate(95.04 8.79) rotate(90)"/><rect class="cls-13" x="36.57" y="51.44" width="1.57" height="0.95" transform="translate(89.27 14.57) rotate(90)"/><rect class="cls-13" x="38.49" y="51.44" width="1.57" height="0.95" transform="translate(91.19 12.64) rotate(90)"/><rect class="cls-13" x="40.41" y="51.44" width="1.57" height="0.95" transform="translate(93.12 10.72) rotate(90)"/><rect class="cls-12" x="31.45" y="71.81" width="2.47" height="5.36" transform="translate(107.18 41.8) rotate(90)"/><rect class="cls-13" x="30.57" y="76.04" width="1.57" height="0.95" transform="translate(107.87 45.15) rotate(90)"/><rect class="cls-13" x="32.97" y="76.04" width="1.57" height="0.95" transform="translate(110.27 42.76) rotate(90)"/><rect class="cls-13" x="30.66" y="72" width="1.57" height="0.95" transform="translate(103.91 41.03) rotate(90)"/><rect class="cls-13" x="33.01" y="72" width="1.57" height="0.95" transform="translate(106.27 38.67) rotate(90)"/><path class="cls-19" d="M24.41,103.56a2,2,0,0,1-2-2V87.43H42.43v14.1a2,2,0,0,1-2,2Z"/><path class="cls-2" d="M41.93,87.93v13.6a1.54,1.54,0,0,1-1.54,1.54h-16a1.54,1.54,0,0,1-1.54-1.54V87.93H41.93m1-1H21.88v14.6a2.54,2.54,0,0,0,2.54,2.54h16a2.54,2.54,0,0,0,2.54-2.54V86.93Z"/><path class="cls-20" d="M51.05,30.56a5.22,5.22,0,0,1-4.85-5.34"/><path class="cls-21" d="M50.84,20.12a5,5,0,0,0-4.63,5.11"/><path class="cls-14" d="M49.13,19.19a.12.12,0,0,0,.05.16l1.6.8-1.4,1.11a.12.12,0,1,0,.15.18l1.55-1.23a.12.12,0,0,0,0-.2l-1.77-.88h-.06A.12.12,0,0,0,49.13,19.19Z"/><text class="cls-22" transform="translate(51.78 18.63) rotate(90)">+</text><rect class="cls-14" x="52.05" y="30.65" width="1.89" height="0.32" transform="translate(83.8 -22.19) rotate(90)"/><rect class="cls-23" x="48.62" y="22.56" width="4.71" height="5.19" transform="translate(76.13 -25.82) rotate(90)"/><rect class="cls-24" x="53.43" y="23.43" width="1.18" height="0.9" transform="translate(77.9 -30.14) rotate(90)"/><rect class="cls-24" x="53.43" y="26.04" width="1.18" height="0.9" transform="translate(80.51 -27.53) rotate(90)"/><rect class="cls-24" x="47.35" y="23.43" width="1.18" height="0.9" transform="translate(71.82 -24.06) rotate(90)"/><rect class="cls-24" x="47.35" y="26.04" width="1.18" height="0.9" transform="translate(74.43 -21.45) rotate(90)"/><circle class="cls-25" cx="50.98" cy="25.15" r="1.93"/><rect class="cls-26" x="50.66" y="24" width="0.64" height="2.3" transform="translate(104.81 6.89) rotate(135)"/><rect class="cls-26" x="50.66" y="24" width="0.64" height="2.3" transform="translate(69.24 78.99) rotate(-135)"/><path class="cls-1" d="M45.95,36.47a4,4,0,1,0,6.37,0Z"/><text class="cls-27" transform="translate(50.98 37.34) rotate(90)">47<tspan x="0" y="2.04">16V</tspan><tspan class="cls-28" x="0" y="4.08">R</tspan><tspan class="cls-29" x="0.94" y="4.08">V</tspan><tspan x="1.95" y="4.08">T</tspan></text></svg>