<svg id="Ebene_1" data-name="Ebene 1" xmlns="http://www.w3.org/2000/svg" viewBox="0 0 79.88 134.26"><defs><style>.cls-1{fill:#d7d7d7;}.cls-1,.cls-4{fill-rule:evenodd;}.cls-2,.cls-5{fill:#fff;}.cls-2{stroke:#353535;stroke-miterlimit:10;}.cls-3{fill:#333;}.cls-5,.cls-6{font-size:6.25px;font-family:MyriadPro-Regular, Myriad Pro;}.cls-6,.cls-8{fill:#3aa5ed;}.cls-7{fill:#fcfcfc;}.cls-9{fill:#3eb0ee;}</style></defs><title>Mesa de trabajo 1</title><path class="cls-1" d="M72.92,0H7A6.7,6.7,0,0,0,0,6.39V127.87a6.7,6.7,0,0,0,7,6.39H72.92a6.7,6.7,0,0,0,7-6.39V6.39A6.7,6.7,0,0,0,72.92,0Z"/><path class="cls-2" d="M18.67,14.67H61.2a4,4,0,0,1,4,4v96.64a8,8,0,0,1-8,8H22.67a8,8,0,0,1-8-8V18.67a4,4,0,0,1,4-4Z"/><circle class="cls-3" cx="27.28" cy="27.7" r="4.64"/><circle class="cls-3" cx="52.51" cy="27.7" r="4.64"/><rect class="cls-3" x="35.84" y="23.64" width="8.24" height="8.24" rx="1" ry="1"/><rect class="cls-3" x="23.16" y="36.68" width="8.24" height="8.24" rx="1" ry="1"/><rect class="cls-3" x="48.39" y="36.68" width="8.24" height="8.24" rx="1" ry="1"/><rect class="cls-3" x="23.16" y="62.86" width="8.24" height="8.24" rx="1" ry="1"/><rect class="cls-3" x="48.39" y="62.86" width="8.24" height="8.24" rx="1" ry="1"/><rect class="cls-3" x="23.16" y="75.95" width="8.24" height="8.24" rx="1" ry="1"/><rect class="cls-3" x="35.84" y="75.97" width="8.24" height="8.24" rx="1" ry="1"/><rect class="cls-3" x="48.39" y="75.95" width="8.24" height="8.24" rx="1" ry="1"/><rect class="cls-3" x="23.16" y="89.04" width="8.24" height="8.24" rx="1" ry="1"/><rect class="cls-3" x="35.84" y="89.05" width="8.24" height="8.24" rx="1" ry="1"/><rect class="cls-3" x="48.39" y="89.04" width="8.24" height="8.24" rx="1" ry="1"/><rect class="cls-3" x="23.16" y="102.14" width="8.24" height="8.24" rx="1" ry="1"/><rect class="cls-3" x="35.84" y="102.14" width="8.24" height="8.24" rx="1" ry="1"/><rect class="cls-3" x="48.39" y="102.14" width="8.24" height="8.24" rx="1" ry="1"/><rect class="cls-3" x="35.81" y="49.8" width="8.24" height="8.24" rx="1" ry="1"/><path class="cls-4" d="M58,47.89H46.25v-12a.8.8,0,0,0-.8-.8H34.62a.8.8,0,0,0-.8.8v12H21.9a.8.8,0,0,0-.8.8V59.51a.8.8,0,0,0,.8.8H33.82V72a.8.8,0,0,0,.8.8H45.45a.8.8,0,0,0,.8-.8V60.31H58a.8.8,0,0,0,.8-.8V48.68A.8.8,0,0,0,58,47.89ZM46.2,58.72a1.6,1.6,0,0,1-1.6,1.6H35.37a1.6,1.6,0,0,1-1.6-1.6V49.48a1.6,1.6,0,0,1,1.6-1.6H44.6a1.6,1.6,0,0,1,1.6,1.6Z"/><rect class="cls-3" x="35.84" y="36.72" width="8.24" height="8.24" rx="1" ry="1"/><rect class="cls-3" x="23.16" y="49.77" width="8.24" height="8.24" rx="1" ry="1"/><rect class="cls-3" x="48.39" y="49.77" width="8.24" height="8.24" rx="1" ry="1"/><rect class="cls-3" x="35.84" y="62.89" width="8.24" height="8.24" rx="1" ry="1"/><text class="cls-5" transform="translate(25.53 82.1)">1</text><text class="cls-5" transform="translate(25.53 69.05)">0</text><text class="cls-5" transform="translate(38.24 82.1)">2</text><text class="cls-5" transform="translate(50.94 82.1)">3</text><text class="cls-6" transform="translate(50.94 69.05)">F</text><text class="cls-6" transform="translate(38.24 29.91)">B</text><text class="cls-6" transform="translate(50.34 29.91)">C</text><text class="cls-6" transform="translate(25.53 29.91)">A</text><text class="cls-6" transform="translate(25.53 42.73)">D</text><text class="cls-6" transform="translate(50.34 42.73)">E</text><text class="cls-5" transform="translate(25.53 95.14)">4</text><text class="cls-5" transform="translate(38.24 95.14)">5</text><text class="cls-5" transform="translate(50.94 95.14)">6</text><text class="cls-5" transform="translate(25.53 108.42)">7</text><text class="cls-5" transform="translate(38.24 108.42)">8</text><text class="cls-5" transform="translate(50.94 108.42)">9</text><path class="cls-7" d="M42.71,53.25l-.43-.07a2.42,2.42,0,0,0-.17-.42l.25-.35a.38.38,0,0,0,0-.49l-.38-.38a.38.38,0,0,0-.49,0l-.36.25a2.4,2.4,0,0,0-.43-.18l-.07-.43a.38.38,0,0,0-.37-.32h-.54a.38.38,0,0,0-.37.32l-.07.44a2.37,2.37,0,0,0-.42.18l-.35-.25a.38.38,0,0,0-.49,0l-.38.38a.38.38,0,0,0,0,.49l.26.36a2.37,2.37,0,0,0-.17.42l-.43.07a.38.38,0,0,0-.32.37v.54a.38.38,0,0,0,.32.37l.44.07a2.37,2.37,0,0,0,.18.42l-.25.35a.38.38,0,0,0,0,.49l.38.38a.38.38,0,0,0,.49,0l.36-.26a2.42,2.42,0,0,0,.4.17l.07.43a.38.38,0,0,0,.37.32h.54a.38.38,0,0,0,.37-.32l.07-.43a2.43,2.43,0,0,0,.42-.17l.35.25a.38.38,0,0,0,.49,0l.38-.38a.38.38,0,0,0,0-.49L42.1,55a2.41,2.41,0,0,0,.17-.42l.43-.07a.38.38,0,0,0,.32-.37v-.54A.37.37,0,0,0,42.71,53.25ZM40,55a1.1,1.1,0,1,1,1.1-1.1A1.1,1.1,0,0,1,40,55Z"/><path class="cls-8" d="M51.57,51.18l-.63.63L53,53.89,50.94,56l.63.63,2.71-2.71Zm0,0"/><path class="cls-8" d="M25.36,53.92l2.71,2.71L28.7,56l-2.08-2.08,2.08-2.08-.63-.63Zm2.71-2.71"/><path class="cls-8" d="M42.66,66.11,42,65.48,40,67.56l-2.08-2.08-.63.63L40,68.82Zm0,0"/><path class="cls-8" d="M39.94,39l-2.71,2.71.63.63,2.08-2.08L42,42.32l.63-.63Zm2.71,2.71"/><g id="inXUzG.tif"><path class="cls-9" d="M27.08,113.86h1.46c.11,0,.14,0,.16.13q.22,1,.45,2.08s0,.07,0,.12c.22-.73.38-1.46.54-2.19,0-.11.06-.16.19-.16h1.29c.1,0,.14,0,.14.14q0,2,0,3.93c0,.12,0,.15-.15.14h-.79c-.1,0-.13,0-.13-.13q0-.86.06-1.72c0-.35,0-.7,0-1.05,0,0,0-.07,0-.09s0,.05-.06.07c-.11.44-.21.89-.32,1.33s-.25,1-.36,1.45c0,.12-.07.15-.19.14H28.9a.12.12,0,0,1-.14-.1l-.69-2.72s0,0,0-.07-.06-.05,0-.09a.92.92,0,0,0,0,.29c0,.63,0,1.26.08,1.88,0,.23,0,.46,0,.68,0,.06,0,.12-.08.12h-1l0,0a.68.68,0,0,0,0-.19q0-1.9,0-3.79A.37.37,0,0,1,27.08,113.86Z"/><path class="cls-9" d="M51.92,116.84a.4.4,0,0,0-.15.34c0,.24,0,.48,0,.72s0,.15-.14.15h-.78c-.1,0-.13,0-.13-.13q0-2,0-4c0-.11,0-.14.14-.14h.76c.13,0,.15,0,.15.16,0,.61,0,1.23,0,1.89.19-.29.37-.54.51-.8a.35.35,0,0,1,.37-.2c.29,0,.58,0,.91,0l-.6.78c-.13.17-.34.33-.36.51s.16.37.26.56l.61,1.18c.09.17.09.17-.11.17s-.46,0-.69,0a.22.22,0,0,1-.24-.15Z"/><path class="cls-9" d="M37.18,114.85c-.31.41-.6.79-.89,1.16a.21.21,0,0,0,0,.27c.28.52.55,1,.82,1.57a.3.3,0,0,1,.07.19H36.2c-.09,0-.1-.06-.13-.12l-.45-.91a.37.37,0,0,0-.1-.16.42.42,0,0,0-.14.35c0,.24,0,.48,0,.72,0,.09,0,.12-.12.12h-.81c-.09,0-.12,0-.11-.12q0-2,0-4c0-.1,0-.11.12-.11h.76c.13,0,.17,0,.16.16,0,.56,0,1.11,0,1.67q0,.08,0,.16h0c.18-.27.36-.54.53-.82a.25.25,0,0,1,.24-.14Z"/><path class="cls-9" d="M47.94,116.37c0-.26,0-.53,0-.79a.83.83,0,0,1,.72-.83,2.33,2.33,0,0,1,1.25.09,1,1,0,0,1,.58,1.12c0,.07-.06.06-.1.06h-.78c-.09,0-.11,0-.1-.11a1.52,1.52,0,0,0,0-.24.3.3,0,0,0-.61,0q0,.67,0,1.34a.31.31,0,1,0,.61,0s0,0,0,0,0-.28,0-.35.25,0,.38,0h.47c.08,0,.11,0,.11.11a2.15,2.15,0,0,1,0,.53.85.85,0,0,1-.5.61,2,2,0,0,1-1.46,0,.8.8,0,0,1-.56-.8c0-.25,0-.51,0-.76Z"/><path class="cls-9" d="M42.7,115.92c0-.65,0-1.3,0-1.95,0-.14,0-.17.17-.17h.74c.1,0,.13,0,.13.13q0,2,0,4c0,.1,0,.13-.13.12h-.76c-.12,0-.15,0-.15-.15C42.71,117.23,42.7,116.57,42.7,115.92Z"/><path class="cls-9" d="M27.08,113.86q0,2,0,4c0,.06,0,.13,0,.18,0-.35,0-.7,0-1q0-1.47,0-2.94C27,114,27,113.9,27.08,113.86Z"/><path class="cls-9" d="M41,115.09c-.08,0,0-.11,0-.16,0-.38,0-.76,0-1.14.07,0,0,.12,0,.17C41,114.33,40.92,114.71,41,115.09Z"/><path class="cls-9" d="M28,115.37c-.06-.1,0-.21,0-.32l0,.12C28,115.23,28.06,115.3,28,115.37Z"/><path class="cls-9" d="M30.32,115.13l.05-.13c0,.07,0,.12,0,.16Z"/><path class="cls-9" d="M42.59,115.73a1,1,0,0,0-.24-.66,1,1,0,0,0-1.39,0c-.07,0,0-.1,0-.15,0-.38,0-.77,0-1.15H40c-.13,0-.15,0-.15.16q0,2,0,3.95c0,.11,0,.15.14.15a6.11,6.11,0,0,1,.62,0c.16,0,.27,0,.21-.28a1,1,0,0,0,.87.35.9.9,0,0,0,.85-.86C42.59,116.74,42.6,116.23,42.59,115.73Zm-1.06,1.36c0,.15-.1.3-.27.3s-.26-.15-.32-.3a12,12,0,0,1,0-1.24c.05-.16.13-.29.32-.28a.29.29,0,0,1,.28.28Q41.56,116.47,41.53,117.09Z"/><path class="cls-9" d="M47.85,116.05c0-.27,0-.27-.26-.33l-.25,0s-.1,0-.12-.07-.18-.35,0-.52a1.23,1.23,0,0,0,.11-.16.11.11,0,0,0,0-.17c-.27-.28-.27-.29-.6-.07l-.1.07a.11.11,0,0,1-.11,0c-.21-.07-.37-.17-.36-.42a1.27,1.27,0,0,0,0-.2c0-.08,0-.11-.13-.12-.38,0-.38,0-.47.36l0,.18a.15.15,0,0,1,0,.07.45.45,0,0,1-.51,0l-.27-.18,0,0a1.3,1.3,0,0,0-.29.31c0,.08.1.18.15.27l.09.14a.09.09,0,0,1,0,.1c-.08.18-.13.35-.39.38s-.38.07-.37.45c0,.09,0,.13.12.14s.23.06.35.07.15.08.21.17a.34.34,0,0,1,0,.44c0,.05-.07.12-.12.17s0,.09,0,.14c.27.29.27.3.6.09l.12-.07a.09.09,0,0,1,.1,0c.16.08.36.1.34.36,0,.08,0,.16,0,.23s.07.17.19.16h.15c.15,0,.22,0,.23-.19a1.9,1.9,0,0,1,.07-.33.15.15,0,0,1,.08-.12c.18-.08.34-.15.51,0a1.83,1.83,0,0,0,.16.11c.07.06.12,0,.19,0,.27-.26.27-.26.06-.57l0-.06c-.06-.07,0-.14,0-.23.06-.28.28-.29.48-.31S47.87,116.24,47.85,116.05Zm-2,.58a.59.59,0,0,1-.58-.58.57.57,0,0,1,.59-.58.58.58,0,0,1,.58.58A.6.6,0,0,1,45.83,116.63Z"/><path class="cls-9" d="M34.23,117.93a1.68,1.68,0,0,1-.08-.63q0-.8,0-1.6a.8.8,0,0,0-.61-.81,2.75,2.75,0,0,0-1.16-.06,1,1,0,0,0-1,.93c0,.13,0,.17.14.17s.46,0,.69,0,.15,0,.17-.14a.39.39,0,0,1,.54-.32.28.28,0,0,1,.2.26.33.33,0,0,1-.24.3c-.26.09-.53.17-.8.25a.84.84,0,0,0-.7.83.81.81,0,0,0,.62,1,1.12,1.12,0,0,0,1.17-.27s0,.09,0,.14,0,.11.12.11h.79C34.24,118,34.27,118,34.23,117.93Zm-1.08-.81a.38.38,0,0,1-.51.29.35.35,0,0,1-.11-.59,1.94,1.94,0,0,1,.65-.33A3.17,3.17,0,0,1,33.15,117.12Z"/><path class="cls-9" d="M39.65,116.81H39c-.24,0-.24,0-.27.24a.37.37,0,0,1-.38.35.37.37,0,0,1-.32-.39c0-.11,0-.23,0-.34s0-.18.17-.17.46,0,.69,0h.71c.1,0,.14,0,.14-.13s0-.44,0-.66a.9.9,0,0,0-.77-1,2.33,2.33,0,0,0-1.35.12.84.84,0,0,0-.56.86q0,.66,0,1.31a.82.82,0,0,0,.45.78A2,2,0,0,0,39,118a1,1,0,0,0,.79-1.05C39.77,116.84,39.74,116.81,39.65,116.81Zm-1.4-1.43a.38.38,0,0,1,.43.05.47.47,0,0,1,.09.12c.14.27.09.36-.21.36h-.17c-.1,0-.24.08-.3-.06A.57.57,0,0,1,38.25,115.38Z"/></g></svg>