<?xml version="1.0" encoding="utf-8"?>
<!-- Generator: Adobe Illustrator 21.1.0, SVG Export Plug-In . SVG Version: 6.00 Build 0)  -->
<svg version="1.1" id="Capa_1" xmlns="http://www.w3.org/2000/svg" xmlns:xlink="http://www.w3.org/1999/xlink" x="0px" y="0px"
	 viewBox="0 0 62 128" style="enable-background:new 0 0 62 128;" xml:space="preserve">
<style type="text/css">
	.st0{fill:#D7D7D7;}
	.st1{fill:#2D2929;}
	.st2{fill:#CCAE19;}
	.st3{fill:#A3A099;}
	.st4{fill:#E2E1E0;}
	.st5{font-family:'AkkuratMonoPro-Regular';}
	.st6{font-size:6.8865px;}
	.st7{fill:#D6D4D0;}
	.st8{fill:#8C8C8C;}
	.st9{fill:#BFBEBE;}
	.st10{fill:#EDEDED;}
	.st11{fill:#BCBCB8;}
	.st12{fill:#FFFFFF;}
	.st13{fill:#4C4C4B;}
	.st14{fill:#DBBA31;}
	.st15{font-size:4.2041px;}
</style>
<path class="st0" d="M58.2-0.1H3.7C1.6-0.1,0,2.2,0,5v117.9c0,2.8,1.7,5.1,3.7,5.1h24c0-2.5,1.5-4.5,3.3-4.5c1.8,0,3.3,2,3.3,4.5
	h23.9c2.1,0,3.7-2.3,3.7-5.1V4.9C61.9,2.1,60.2-0.1,58.2-0.1z"/>
<g>
	<path class="st1" d="M56.1,10.6v86.1c0,3.8-3.1,6.9-6.9,6.9H12c-3.8,0-6.9-3.1-6.9-6.9V10.6c0-3.8,3.1-6.9,6.9-6.9h37.2
		C53,3.7,56.1,6.8,56.1,10.6z"/>
</g>
<circle class="st0" cx="12.8" cy="69.9" r="5.1"/>
<circle class="st0" cx="12.8" cy="53.5" r="5.1"/>
<g>
	<path class="st2" d="M12.8,66c2.2,0,3.9,1.7,3.9,3.9s-1.7,3.9-3.9,3.9s-3.9-1.7-3.9-3.9C9,67.7,10.7,66,12.8,66 M12.8,64.8
		c-2.9,0-5.1,2.3-5.1,5.1s2.3,5.1,5.1,5.1s5.1-2.3,5.1-5.1S15.6,64.8,12.8,64.8L12.8,64.8z"/>
</g>
<g>
	<path class="st2" d="M12.8,49.5c2.2,0,3.9,1.7,3.9,3.9s-1.7,3.9-3.9,3.9s-3.9-1.7-3.9-3.9C9,51.3,10.7,49.5,12.8,49.5 M12.8,48.3
		c-2.9,0-5.1,2.3-5.1,5.1c0,2.9,2.3,5.1,5.1,5.1s5.1-2.3,5.1-5.1S15.6,48.3,12.8,48.3L12.8,48.3z"/>
</g>
<circle class="st0" cx="48.4" cy="69.9" r="5.1"/>
<circle class="st0" cx="48.4" cy="53.5" r="5.1"/>
<g>
	<path class="st2" d="M48.4,66c2.2,0,3.9,1.7,3.9,3.9s-1.7,3.9-3.9,3.9c-2.2,0-3.9-1.7-3.9-3.9C44.6,67.7,46.3,66,48.4,66
		 M48.4,64.8c-2.9,0-5.1,2.3-5.1,5.1s2.3,5.1,5.1,5.1c2.8,0,5.1-2.3,5.1-5.1S51.1,64.8,48.4,64.8L48.4,64.8z"/>
</g>
<g>
	<path class="st2" d="M48.4,49.5c2.2,0,3.9,1.7,3.9,3.9s-1.7,3.9-3.9,3.9c-2.2,0-3.9-1.7-3.9-3.9C44.6,51.3,46.3,49.5,48.4,49.5
		 M48.4,48.3c-2.9,0-5.1,2.3-5.1,5.1c0,2.9,2.3,5.1,5.1,5.1c2.8,0,5.1-2.3,5.1-5.1S51.1,48.3,48.4,48.3L48.4,48.3z"/>
</g>
<g>
	<circle class="st0" cx="50" cy="92.6" r="1.3"/>
	<path class="st2" d="M50,91.7c0.5,0,0.9,0.5,0.9,0.9c0,0.5-0.5,0.9-0.9,0.9c-0.5,0-0.9-0.5-0.9-0.9C49.1,92.2,49.4,91.7,50,91.7
		 M50,91.1c-0.8,0-1.5,0.7-1.5,1.5c0,0.8,0.7,1.5,1.5,1.5s1.5-0.7,1.5-1.5C51.5,91.8,50.7,91.1,50,91.1L50,91.1z"/>
</g>
<g>
	<circle class="st0" cx="50" cy="97" r="1.3"/>
	<path class="st2" d="M50,96.1c0.5,0,0.9,0.5,0.9,0.9c0,0.5-0.5,0.9-0.9,0.9c-0.5,0-0.9-0.5-0.9-0.9C49.1,96.5,49.4,96.1,50,96.1
		 M50,95.5c-0.8,0-1.5,0.7-1.5,1.5c0,0.8,0.7,1.5,1.5,1.5s1.5-0.7,1.5-1.5C51.5,96.2,50.7,95.5,50,95.5L50,95.5z"/>
</g>
<g>
	<circle class="st0" cx="50" cy="88.4" r="1.3"/>
	<path class="st2" d="M50,87.5c0.5,0,0.9,0.5,0.9,0.9s-0.5,0.9-0.9,0.9c-0.5,0-0.9-0.5-0.9-0.9S49.4,87.5,50,87.5 M50,86.9
		c-0.8,0-1.5,0.7-1.5,1.5c0,0.8,0.7,1.5,1.5,1.5s1.5-0.7,1.5-1.5C51.5,87.6,50.7,86.9,50,86.9L50,86.9z"/>
</g>
<g>
	<rect x="48.6" y="82.9" class="st0" width="2.4" height="2.4"/>
	<g>
		<path class="st2" d="M50.9,83.2V85h-1.8v-1.8H50.9 M51.5,82.6h-3v3h3V82.6L51.5,82.6z"/>
	</g>
</g>
<g>
	<circle class="st3" cx="28.5" cy="98.8" r="1.1"/>
	<circle class="st3" cx="31.7" cy="98.8" r="1.1"/>
	<circle class="st3" cx="35.1" cy="98.8" r="1.1"/>
</g>
<text transform="matrix(0 -1 1 0 15.1551 41.6455)" class="st4 st5 st6">Compass</text>
<g>
	<circle class="st3" cx="26.2" cy="94.2" r="1.1"/>
	<circle class="st3" cx="29.5" cy="94.2" r="1.1"/>
	<circle class="st3" cx="32.8" cy="94.2" r="1.1"/>
</g>
<g>
	<rect x="26.9" y="7.1" class="st7" width="5.5" height="1.8"/>
	<rect x="28.3" y="7.1" class="st8" width="3" height="1.8"/>
</g>
<g>
	
		<rect x="33.8" y="5.2" transform="matrix(1 -2.664914e-03 2.664914e-03 1 -2.096502e-02 9.258384e-02)" class="st9" width="1.8" height="5.5"/>
	
		<rect x="33.8" y="6.5" transform="matrix(1 -2.664914e-03 2.664914e-03 1 -2.127089e-02 9.258424e-02)" class="st10" width="1.8" height="3"/>
</g>
<g>
	<rect x="10.9" y="90.7" class="st11" width="1.3" height="4.2"/>
	<rect x="10.9" y="91.5" class="st12" width="1.3" height="2.5"/>
</g>
<rect x="26.4" y="15.9" class="st13" width="9.3" height="8.8"/>
<g>
	<rect x="35.6" y="16.4" class="st11" width="1.8" height="1"/>
	<rect x="35.6" y="23.1" class="st11" width="1.8" height="1"/>
	<rect x="35.6" y="20.9" class="st11" width="1.8" height="1"/>
	<rect x="35.6" y="18.7" class="st11" width="1.8" height="1"/>
</g>
<g>
	<rect x="24.5" y="16.4" class="st11" width="1.8" height="1"/>
	<rect x="24.5" y="23.1" class="st11" width="1.8" height="1"/>
	<rect x="24.5" y="20.9" class="st11" width="1.8" height="1"/>
	<rect x="24.5" y="18.7" class="st11" width="1.8" height="1"/>
</g>
<g>
	<path class="st12" d="M21.4,121.4c-1.3,0-2.3-1-2.3-2.3v-16.2h23.1v16.2c0,1.3-1,2.3-2.3,2.3H21.4z"/>
	<path class="st1" d="M41.5,103.5v15.6c0,0.9-0.8,1.7-1.7,1.7H21.4c-0.9,0-1.7-0.8-1.7-1.7v-15.6H41.5 M42.7,102.4H18.5v16.8
		c0,1.6,1.3,2.9,2.9,2.9h18.4c1.6,0,2.9-1.3,2.9-2.9V102.4L42.7,102.4z"/>
</g>
<g>
	<circle class="st0" cx="45.7" cy="95.1" r="1.3"/>
	<path class="st2" d="M45.7,94.2c0.5,0,0.9,0.5,0.9,0.9c0,0.5-0.5,0.9-0.9,0.9s-0.9-0.5-0.9-0.9S45.2,94.2,45.7,94.2 M45.7,93.7
		c-0.8,0-1.5,0.7-1.5,1.5c0,0.8,0.7,1.5,1.5,1.5s1.5-0.7,1.5-1.5C47.2,94.3,46.6,93.7,45.7,93.7L45.7,93.7z"/>
</g>
<g>
	<circle class="st0" cx="45.7" cy="90.9" r="1.3"/>
	<path class="st2" d="M45.7,90c0.5,0,0.9,0.5,0.9,0.9c0,0.5-0.5,0.9-0.9,0.9c-0.5,0-0.9-0.5-0.9-0.9C44.8,90.4,45.2,90,45.7,90
		 M45.7,89.4c-0.8,0-1.5,0.7-1.5,1.5c0,0.8,0.7,1.5,1.5,1.5s1.5-0.7,1.5-1.5C47.2,90.1,46.6,89.4,45.7,89.4L45.7,89.4z"/>
</g>
<g>
	<rect x="27.3" y="80.5" class="st11" width="1.3" height="4.2"/>
	<rect x="27.3" y="81.3" class="st12" width="1.3" height="2.5"/>
</g>
<g>
	<rect x="33.4" y="80.5" class="st11" width="1.3" height="4.2"/>
	<rect x="33.4" y="81.3" class="st12" width="1.3" height="2.5"/>
</g>
<g>
	
		<rect x="29.2" y="78.4" transform="matrix(1 -1.210704e-03 1.210704e-03 1 -9.543489e-02 3.738218e-02)" class="st11" width="3.2" height="0.9"/>
	
		<rect x="29.9" y="78.4" transform="matrix(1 -1.210704e-03 1.210704e-03 1 -9.543483e-02 3.745166e-02)" class="st12" width="2" height="0.9"/>
</g>
<g>
	<rect x="31.2" y="80.5" class="st11" width="1.3" height="4.2"/>
	<rect x="31.2" y="81.3" class="st12" width="1.3" height="2.5"/>
</g>
<g>
	<rect x="29.2" y="80.5" class="st11" width="1.3" height="4.2"/>
	<rect x="29.2" y="81.3" class="st12" width="1.3" height="2.5"/>
</g>
<g>
	<g>
		<rect x="28.3" y="33.5" class="st7" width="5.5" height="1.8"/>
		<rect x="29.7" y="33.5" class="st14" width="3" height="1.8"/>
	</g>
	<g>
		<rect x="28.2" y="30.1" class="st7" width="5.5" height="1.8"/>
		<rect x="29.5" y="30.1" class="st14" width="3" height="1.8"/>
	</g>
	<g>
		<rect x="28.2" y="36.7" class="st7" width="5.5" height="1.8"/>
		<rect x="29.6" y="36.7" class="st14" width="3" height="1.8"/>
	</g>
</g>
<g>
	<g>
		<rect x="28.2" y="52.6" class="st7" width="5.5" height="1.8"/>
		<rect x="29.7" y="52.6" class="st14" width="3" height="1.8"/>
	</g>
	<g>
		<rect x="28.2" y="49.1" class="st7" width="5.5" height="1.8"/>
		<rect x="29.5" y="49.1" class="st14" width="3" height="1.8"/>
	</g>
	<g>
		<rect x="28.2" y="55.8" class="st7" width="5.5" height="1.8"/>
		<rect x="29.6" y="55.8" class="st14" width="3" height="1.8"/>
	</g>
</g>
<g>
	<rect x="10.6" y="95.3" class="st11" width="4.2" height="1.3"/>
	<rect x="11.5" y="95.3" class="st12" width="2.5" height="1.3"/>
</g>
<g>
	<rect x="13.4" y="90.7" class="st11" width="1.3" height="4.2"/>
	<rect x="13.4" y="91.5" class="st12" width="1.3" height="2.5"/>
</g>
<g>
	
		<rect x="9.3" y="83.6" transform="matrix(1 -3.219352e-03 3.219352e-03 1 -0.2739 4.149338e-02)" class="st13" width="7" height="3.1"/>
	
		<rect x="13.6" y="86.6" transform="matrix(1 -3.219220e-03 3.219220e-03 1 -0.2807 4.667528e-02)" class="st11" width="1.5" height="1.1"/>
	
		<rect x="12" y="82.3" transform="matrix(1 -3.219238e-03 3.219238e-03 1 -0.2669 4.148087e-02)" class="st11" width="1.5" height="1.3"/>
	
		<rect x="10.4" y="86.6" transform="matrix(1 -3.219220e-03 3.219220e-03 1 -0.2807 3.632927e-02)" class="st11" width="1.5" height="1.1"/>
</g>
<rect x="25.1" y="67.3" transform="matrix(1 -3.219352e-03 3.219352e-03 1 -0.2245 9.924151e-02)" class="st13" width="11.2" height="5.1"/>
<rect x="36.5" y="69.2" transform="matrix(1 -3.219220e-03 3.219220e-03 1 -0.2244 0.1201)" class="st11" width="1.5" height="1.1"/>
<rect x="23.6" y="69.2" transform="matrix(1 -3.219220e-03 3.219220e-03 1 -0.2245 7.873087e-02)" class="st11" width="1.5" height="1.1"/>
<rect x="26.1" y="67.7" transform="matrix(1 -3.219352e-03 3.219352e-03 1 -0.2245 9.924152e-02)" class="st11" width="9.2" height="4.1"/>
<rect x="27.5" y="68.3" transform="matrix(1 -3.219352e-03 3.219352e-03 1 -0.2245 9.961101e-02)" class="st12" width="6.7" height="3"/>
<g>
	<g>
		<rect x="28.3" y="60.7" class="st11" width="5.5" height="1.6"/>
	</g>
	<rect x="29.3" y="60.7" class="st13" width="3.2" height="1.6"/>
</g>
<g>
	<rect x="28.2" y="42" class="st11" width="5.5" height="1.6"/>
</g>
<g>
	<rect x="28.2" y="44.3" class="st11" width="5.5" height="1.6"/>
</g>
<rect x="28.9" y="42" class="st13" width="1.6" height="3.9"/>
<rect x="27.2" y="43.5" transform="matrix(1 -1.778726e-03 1.778726e-03 1 -7.813654e-02 4.929139e-02)" class="st11" width="1" height="0.9"/>
<g>
	<rect x="33.9" y="24.8" class="st11" width="1" height="1.8"/>
	<rect x="27.3" y="24.8" class="st11" width="1" height="1.8"/>
	<rect x="29.5" y="24.8" class="st11" width="1" height="1.8"/>
	<rect x="31.6" y="24.8" class="st11" width="1" height="1.8"/>
</g>
<g>
	<rect x="33.9" y="14.1" class="st11" width="1" height="1.8"/>
	<rect x="27.3" y="14.1" class="st11" width="1" height="1.8"/>
	<rect x="29.5" y="14.1" class="st11" width="1" height="1.8"/>
	<rect x="31.6" y="14.1" class="st11" width="1" height="1.8"/>
</g>
<g id="Capa_3">
	<g>
		<g>
			<path class="st0" d="M40.2,16.4c0.1,0.2,0.3,0.5,0.6,0.7c0.2,0.2,0.5,0.3,0.7,0.6c0.5,0.3,0.9,0.7,1.4,1c0.9,0.7,2,1.4,3,2
				c0.5,0.3,1,0.6,1.5,0.9c0.2,0.1,0.5,0.3,0.8,0.5c0.1,0.1,0.3,0,0.7-0.1c1-0.3,2.2-0.8,3.2-1.3c0,0-0.1,0-0.1,0.1
				c0,0.1-0.1,0.2-0.1,0.2v0.1l0,0L51.7,21c-0.1-0.1-0.2-0.2-0.3-0.2c-0.2-0.2-0.5-0.3-0.7-0.6L49.3,19c-0.9-0.7-1.8-1.5-2.8-2.2
				l-1.4-1c-0.2-0.1-0.5-0.3-0.7-0.5c-0.2,0-0.6,0-0.8,0c-0.6,0.1-1.1,0.2-1.7,0.3C41.3,15.8,40.6,15.9,40.2,16.4z M40.2,16.4
				c0.3-0.5,1-0.6,1.6-0.8s1.1-0.3,1.7-0.5c0.3,0,0.6-0.1,0.9-0.1c0.3,0.1,0.6,0.2,0.8,0.5l1.5,0.9c1,0.7,2,1.3,3,2
				c0.5,0.3,0.9,0.7,1.5,1c0.2,0.2,0.5,0.3,0.7,0.6c0.1,0.1,0.2,0.2,0.3,0.3s0.1,0.1,0.2,0.2c0,0.1,0.1,0.1,0.1,0.2
				c0,0.1,0,0.1,0,0.2c0,0.1,0,0.2-0.1,0.2c0,0.1-0.2,0.2-0.1,0.1c-1.1,0.6-2.2,0.9-3.4,1.3c-0.1,0-0.3,0.1-0.5,0.1
				c-0.1,0-0.2,0-0.3,0s-0.2-0.1-0.3-0.1c-0.2-0.1-0.6-0.3-0.8-0.5c-0.5-0.3-0.9-0.7-1.5-1c-0.9-0.7-1.8-1.5-2.8-2.2l-1.4-1.1
				c-0.2-0.2-0.5-0.3-0.7-0.6C40.6,16.9,40.2,16.8,40.2,16.4z"/>
		</g>
		<g>
			<path class="st0" d="M47.1,23.2v-4.6c0-1.5,0-3.1,0.2-4.6l0,0c0.1,1.5,0.1,3.1,0,4.6L47.1,23.2L47.1,23.2z"/>
		</g>
		<g>
			<path class="st0" d="M44.8,17.7l3.6,2.5c1.1,0.8,2.3,1.7,3.4,2.6l0,0c-1.3-0.8-2.4-1.6-3.6-2.5L44.8,17.7L44.8,17.7z"/>
		</g>
		<g>
			<path class="st0" d="M50.6,18.2l-3.9,1.4c-1.3,0.5-2.6,0.9-4,1.1l0,0c1.3-0.6,2.5-1,3.9-1.4L50.6,18.2L50.6,18.2z"/>
		</g>
		<g>
			<path class="st0" d="M40.5,17c0,0.5,0,0.8,0,1.1V18c0.7,0.5,1.3,0.9,2,1.4h-0.1c0.5,0,0.9,0,1.4-0.1l-0.1,0.2
				C42.7,18.8,41.6,17.9,40.5,17z M40.5,17c1,0.8,2.2,1.6,3.3,2.5l0.2,0.2h-0.3c-0.5,0-0.9,0-1.4,0l0,0l0,0c-0.6-0.5-1.3-1-1.8-1.5
				l0,0l0,0C40.5,17.7,40.5,17.3,40.5,17z"/>
		</g>
		<g>
			<path class="st0" d="M40.7,16.1c-0.2-0.1-0.2-0.3-0.3-0.5c0-0.1,0-0.2,0-0.3c0.1-0.1,0.1-0.1,0.2-0.1c0.3-0.1,0.7-0.2,1-0.3
				c0.3-0.1,0.7-0.2,1-0.3c0.1,0,0.2,0,0.3,0c0.1,0,0.2,0.1,0.2,0.1s0,0.1,0.1,0.1c0.1,0.2,0.1,0.3,0,0.6l0,0
				c-0.1-0.1-0.2-0.3-0.2-0.5c0-0.1-0.1-0.2,0-0.1c-0.1,0-0.1,0-0.2,0c-0.3,0.1-0.7,0.1-1,0.2c-0.3,0.1-0.7,0.2-1,0.3
				c-0.1,0-0.2,0.1-0.2,0.1c0,0.1,0,0.1,0,0.2C40.5,15.7,40.6,15.9,40.7,16.1L40.7,16.1z"/>
		</g>
		<g>
			<path class="st0" d="M42.4,19.6c-0.1,0-0.1-0.1-0.1-0.1v-0.1V19v-0.3v-0.1l0.1-0.1l0.1,0.1v0.1V19v0.3v0.1
				C42.5,19.5,42.4,19.5,42.4,19.6z"/>
		</g>
		<polygon class="st0" points="47.4,15.3 46.6,15.3 47,14.6 47.4,13.9 47.7,14.6 48.2,15.3 		"/>
		<polygon class="st0" points="43.5,20.5 43.7,21.1 43.1,21.1 42.4,21 42.8,20.4 43.1,20 		"/>
		<polygon class="st0" points="51.3,22.4 51.7,21.9 51.9,22.6 52.2,23.3 51.4,23.2 50.7,22.9 		"/>
		<text transform="matrix(1 0 0 1 39.6824 22.5244)" class="st0 st5 st15">x</text>
		<text transform="matrix(1 0 0 1 46.1766 12.9814)" class="st0 st5 st15">z</text>
		<text transform="matrix(1 0 0 1 52.4256 24.9863)" class="st0 st5 st15">y</text>
	</g>
</g>
</svg>
