<?xml version="1.0" encoding="utf-8"?>
<!-- Generator: Adobe Illustrator 21.1.0, SVG Export Plug-In . SVG Version: 6.00 Build 0)  -->
<svg version="1.1" id="Capa_1" xmlns="http://www.w3.org/2000/svg" xmlns:xlink="http://www.w3.org/1999/xlink" x="0px" y="0px"
	 viewBox="0 0 62 128" style="enable-background:new 0 0 62 128;" xml:space="preserve">
<style type="text/css">
	.st0{fill:#D7D7D7;}
	.st1{fill:#EAAF0C;stroke:#020202;stroke-miterlimit:10;}
	.st2{fill:#2D2929;}
	.st3{fill:#BCBCB8;}
	.st4{fill:#CCAE19;}
	.st5{fill:#A3A099;}
	.st6{fill:#E2E1E0;}
	.st7{font-family:'AkkuratMonoPro-Regular';}
	.st8{font-size:6.8865px;}
	.st9{fill:#D6D4D0;}
	.st10{fill:#8C8C8C;}
	.st11{fill:#BFBEBE;}
	.st12{fill:#EDEDED;}
	.st13{fill:#FFFFFF;}
	.st14{fill:#4C4C4B;}
	.st15{fill:#D30909;}
	.st16{fill:#020202;}
	.st17{fill:#F2F227;}
	.st18{fill:#0066CC;}
	.st19{fill:#33CC33;}
</style>
<path class="st0" d="M58.1-0.1H3.6C1.6-0.1,0,2.2,0,5v117.9c0,2.8,1.7,5.1,3.7,5.1h24c0-2.5,1.5-4.5,3.3-4.5s3.3,2,3.3,4.5h23.9
	c2.1,0,3.7-2.3,3.7-5.1V4.9C61.9,2.1,60.1-0.1,58.1-0.1z"/>
<g>
	<path class="st1" d="M20.9,121.3c-1.3,0-2.3-1-2.3-2.3v-16.2h23.1V119c0,1.3-1,2.3-2.3,2.3H20.9z"/>
	<path class="st1" d="M41,103.4V119c0,0.9-0.8,1.7-1.7,1.7H20.9c-0.9,0-1.7-0.8-1.7-1.7v-15.6H41 M42.2,102.2H18.1V119
		c0,1.6,1.3,2.9,2.9,2.9h18.4c1.6,0,2.9-1.3,2.9-2.9v-16.8H42.2z"/>
</g>
<g>
	<path class="st2" d="M56.5,10.8v86.1c0,3.8-3.1,6.9-6.9,6.9H12.5c-3.8,0-6.9-3.1-6.9-6.9V10.8c0-3.8,3.1-6.9,6.9-6.9h37.2
		C53.4,3.9,56.5,7,56.5,10.8z"/>
</g>
<rect x="33" y="40.5" class="st3" width="1" height="1.8"/>
<rect x="28.1" y="31.1" class="st3" width="1" height="1.8"/>
<rect x="33" y="31" class="st3" width="1" height="1.8"/>
<rect x="28.1" y="40.5" class="st3" width="1" height="1.8"/>
<rect x="44.3" y="29.6" class="st3" width="1" height="1.8"/>
<rect x="39.4" y="20.2" class="st3" width="1" height="1.8"/>
<rect x="44.3" y="20.2" class="st3" width="1" height="1.8"/>
<rect x="39.4" y="29.6" class="st3" width="1" height="1.8"/>
<rect x="33.2" y="18.7" class="st3" width="1" height="1.8"/>
<rect x="28.3" y="9.3" class="st3" width="1" height="1.8"/>
<rect x="33.2" y="9.3" class="st3" width="1" height="1.8"/>
<rect x="28.3" y="18.7" class="st3" width="1" height="1.8"/>
<circle class="st0" cx="16.3" cy="75.1" r="5.1"/>
<circle class="st0" cx="16.3" cy="58.6" r="5.1"/>
<g>
	<path class="st4" d="M16.3,71.2c2.2,0,3.9,1.7,3.9,3.9S18.5,79,16.3,79s-3.9-1.7-3.9-3.9C12.5,73,14.2,71.2,16.3,71.2 M16.3,70.1
		c-2.9,0-5.1,2.3-5.1,5.1s2.3,5.1,5.1,5.1s5.1-2.3,5.1-5.1S19,70.1,16.3,70.1L16.3,70.1z"/>
</g>
<g>
	<path class="st4" d="M16.3,54.7c2.2,0,3.9,1.7,3.9,3.9s-1.7,3.9-3.9,3.9s-3.9-1.7-3.9-3.9C12.5,56.6,14.2,54.7,16.3,54.7
		 M16.3,53.6c-2.9,0-5.1,2.3-5.1,5.1c0,2.9,2.3,5.1,5.1,5.1s5.1-2.3,5.1-5.1C21.3,55.9,19,53.6,16.3,53.6L16.3,53.6z"/>
</g>
<circle class="st0" cx="46.8" cy="75.1" r="5.1"/>
<circle class="st0" cx="46.8" cy="58.7" r="5.1"/>
<g>
	<path class="st4" d="M46.8,71.2c2.2,0,3.9,1.7,3.9,3.9S49,79,46.8,79s-3.9-1.7-3.9-3.9C43.1,73,44.8,71.2,46.8,71.2 M46.8,70.1
		c-2.9,0-5.1,2.3-5.1,5.1s2.3,5.1,5.1,5.1s5.1-2.3,5.1-5.1S49.6,70.1,46.8,70.1L46.8,70.1z"/>
</g>
<g>
	<path class="st4" d="M46.8,54.8c2.2,0,3.9,1.7,3.9,3.9s-1.7,3.9-3.9,3.9s-3.9-1.7-3.9-3.9C43.1,56.6,44.8,54.8,46.8,54.8
		 M46.8,53.6c-2.9,0-5.1,2.3-5.1,5.1c0,2.9,2.3,5.1,5.1,5.1s5.1-2.3,5.1-5.1S49.6,53.6,46.8,53.6L46.8,53.6z"/>
</g>
<g>
	<circle class="st0" cx="49.2" cy="94.6" r="1.3"/>
	<path class="st4" d="M49.2,93.7c0.5,0,0.9,0.5,0.9,0.9c0,0.5-0.5,0.9-0.9,0.9c-0.5,0-0.9-0.5-0.9-0.9S48.6,93.7,49.2,93.7
		 M49.2,93.1c-0.8,0-1.5,0.7-1.5,1.5s0.7,1.5,1.5,1.5s1.5-0.7,1.5-1.5C50.7,93.8,49.9,93.1,49.2,93.1L49.2,93.1z"/>
</g>
<g>
	<circle class="st0" cx="49.2" cy="90.4" r="1.3"/>
	<path class="st4" d="M49.2,89.5c0.5,0,0.9,0.5,0.9,0.9c0,0.5-0.5,0.9-0.9,0.9c-0.5,0-0.9-0.5-0.9-0.9
		C48.3,89.9,48.6,89.5,49.2,89.5 M49.2,88.9c-0.8,0-1.5,0.7-1.5,1.5s0.7,1.5,1.5,1.5s1.5-0.7,1.5-1.5S49.9,88.9,49.2,88.9L49.2,88.9
		z"/>
</g>
<g>
	<rect x="47.8" y="84.9" class="st0" width="2.4" height="2.4"/>
	<g>
		<path class="st4" d="M50.1,85.2V87h-1.8v-1.8H50.1 M50.7,84.6h-3v3h3V84.6L50.7,84.6z"/>
	</g>
</g>
<g>
	<circle class="st5" cx="29" cy="99.1" r="1.1"/>
	<circle class="st5" cx="32.2" cy="99.1" r="1.1"/>
	<circle class="st5" cx="35.5" cy="99.1" r="1.1"/>
</g>
<text transform="matrix(1 0 0 1 16.5371 50.16)" class="st6 st7 st8">RGB Led</text>
<g>
	<circle class="st5" cx="26.7" cy="94.5" r="1.1"/>
	<circle class="st5" cx="29.9" cy="94.5" r="1.1"/>
	<circle class="st5" cx="33.2" cy="94.5" r="1.1"/>
</g>
<g>
	<rect x="15.1" y="32.2" class="st9" width="5.5" height="1.8"/>
	<rect x="16.5" y="32.2" class="st10" width="3" height="1.8"/>
</g>
<g>
	
		<rect x="22.6" y="10.6" transform="matrix(1 -2.664904e-03 2.664904e-03 1 -3.549323e-02 6.267329e-02)" class="st11" width="1.8" height="5.5"/>
	
		<rect x="22.6" y="11.9" transform="matrix(1 -2.664904e-03 2.664904e-03 1 -3.562647e-02 6.267301e-02)" class="st12" width="1.8" height="3"/>
</g>
<rect x="26.4" y="32.2" class="st13" width="9.3" height="8.8"/>
<rect x="21.6" y="29.6" class="st3" width="1" height="1.8"/>
<rect x="16.7" y="20.2" class="st3" width="1" height="1.8"/>
<rect x="21.6" y="20.1" class="st3" width="1" height="1.8"/>
<rect x="16.7" y="29.6" class="st3" width="1" height="1.8"/>
<rect x="13.6" y="86" class="st14" width="3.9" height="8.8"/>
<rect x="14.4" y="94.8" class="st3" width="2.3" height="1.9"/>
<g>
	<rect x="10.7" y="90.7" class="st3" width="1.3" height="4.4"/>
	<rect x="10.7" y="91.7" class="st13" width="1.3" height="2.6"/>
</g>
<g>
	<rect x="10.7" y="84.4" class="st3" width="1.3" height="4.4"/>
	<rect x="10.7" y="85.2" class="st13" width="1.3" height="2.6"/>
</g>
<rect x="14.4" y="84.1" class="st3" width="2.3" height="1.9"/>
<rect x="37.7" y="21.4" class="st13" width="9.3" height="8.8"/>
<rect x="15.1" y="21.4" class="st13" width="9.3" height="8.8"/>
<rect x="26.4" y="10.6" class="st13" width="9.3" height="8.8"/>
<g>
	<rect x="41.5" y="17.6" class="st9" width="5.5" height="1.8"/>
	<rect x="42.9" y="17.6" class="st10" width="3" height="1.8"/>
</g>
<g>
	
		<rect x="37.7" y="35.6" transform="matrix(1 -2.664904e-03 2.664904e-03 1 -0.1021 0.103)" class="st11" width="1.8" height="5.5"/>
	<rect x="37.7" y="36.9" transform="matrix(1 -2.664904e-03 2.664904e-03 1 -0.1022 0.103)" class="st12" width="1.8" height="3"/>
</g>
<g>
	<circle class="st15" cx="31" cy="15" r="4.4"/>
	<path class="st16" d="M31,10.6c1.2,0,2.3,0.5,3.1,1.3s1.3,2,1.3,3.1c0,1.2-0.5,2.3-1.3,3.2c-0.8,0.8-2,1.3-3.2,1.4
		c-1.2,0-2.4-0.5-3.2-1.4c-0.8-0.8-1.3-2-1.3-3.2s0.5-2.3,1.3-3.1C28.7,11,29.9,10.5,31,10.6z M31,10.6c-1.2,0-2.3,0.5-3.1,1.3
		s-1.3,2-1.3,3.1s0.5,2.3,1.3,3.1c0.8,0.8,1.9,1.2,3.1,1.2c1.1,0,2.3-0.4,3.1-1.2c0.8-0.8,1.3-1.9,1.3-3.1c0-1.1-0.4-2.3-1.3-3.1
		C33.3,11,32.2,10.6,31,10.6z"/>
</g>
<g>
	<circle class="st17" cx="19.8" cy="25.8" r="4.4"/>
	<path class="st16" d="M19.8,21.4c1.2,0,2.3,0.5,3.1,1.3s1.3,2,1.3,3.1c0,1.2-0.5,2.3-1.3,3.2c-0.8,0.8-2,1.3-3.2,1.4
		c-1.2,0-2.4-0.5-3.2-1.4c-0.8-0.8-1.3-2-1.3-3.2s0.5-2.3,1.3-3.1C17.4,21.8,18.6,21.4,19.8,21.4z M19.8,21.4
		c-1.2,0-2.3,0.5-3.1,1.3c-0.8,0.8-1.3,2-1.3,3.1s0.5,2.3,1.3,3.1c0.8,0.8,1.9,1.2,3.1,1.2c1.1,0,2.3-0.4,3.1-1.2
		c0.8-0.8,1.3-1.9,1.3-3.1c0-1.1-0.4-2.3-1.3-3.1C22.1,21.9,20.9,21.4,19.8,21.4z"/>
</g>
<g>
	<circle class="st18" cx="31" cy="36.6" r="4.4"/>
	<path class="st16" d="M31,32.2c1.2,0,2.3,0.5,3.1,1.3s1.3,2,1.3,3.1c0,1.2-0.5,2.3-1.3,3.2c-0.8,0.8-2,1.3-3.2,1.4
		c-1.2,0-2.4-0.5-3.2-1.4c-0.8-0.8-1.3-2-1.3-3.2s0.5-2.3,1.3-3.1C28.7,32.7,29.9,32.2,31,32.2z M31,32.2c-1.2,0-2.3,0.5-3.1,1.3
		s-1.3,2-1.3,3.1s0.5,2.3,1.3,3.1s1.9,1.2,3.1,1.2c1.1,0,2.3-0.4,3.1-1.2s1.3-1.9,1.3-3.1c0-1.1-0.4-2.3-1.3-3.1
		C33.3,32.7,32.2,32.2,31,32.2z"/>
</g>
<g>
	<circle class="st19" cx="42.3" cy="25.8" r="4.4"/>
	<path class="st16" d="M42.3,21.4c1.2,0,2.3,0.5,3.1,1.3s1.3,2,1.3,3.1c0,1.2-0.5,2.3-1.3,3.2c-0.8,0.8-2,1.3-3.2,1.4
		c-1.2,0-2.4-0.5-3.2-1.4c-0.8-0.8-1.3-2-1.3-3.2s0.5-2.3,1.3-3.1C40,21.8,41.2,21.4,42.3,21.4z M42.3,21.4c-1.2,0-2.3,0.5-3.1,1.3
		s-1.3,2-1.3,3.1s0.5,2.3,1.3,3.1c0.8,0.8,1.9,1.2,3.1,1.2c1.1,0,2.3-0.4,3.1-1.2c0.8-0.8,1.3-1.9,1.3-3.1c0-1.1-0.4-2.3-1.3-3.1
		C44.6,21.9,43.5,21.4,42.3,21.4z"/>
</g>
</svg>
