<svg id="Ebene_1" data-name="Ebene 1" xmlns="http://www.w3.org/2000/svg" xmlns:xlink="http://www.w3.org/1999/xlink" viewBox="0 0 64.49 118.47"><defs><style>.cls-1{fill:none;}.cls-2,.cls-4{fill:#d7d7d7;}.cls-12,.cls-2{fill-rule:evenodd;}.cls-3{fill:#2d2929;}.cls-5{fill:#ccae19;}.cls-6{fill:#4c4c4b;}.cls-7{fill:#bcbcb8;}.cls-8{fill:#bfbebe;}.cls-9{fill:#191818;}.cls-10{fill:#d6d4d0;}.cls-11{fill:#dbba31;}.cls-12{stroke:#2d2929;stroke-miterlimit:10;}.cls-13{fill:#ededed;}.cls-14{fill:#d6d6d6;}.cls-15{fill:#c6c4c4;}.cls-16{fill:#a5a4a4;}.cls-17{fill:#efefef;}.cls-18{fill:#fff;}.cls-19{clip-path:url(#clip-path);}.cls-20{clip-path:url(#clip-path-2);}.cls-21{clip-path:url(#clip-path-3);}</style><clipPath id="clip-path"><polygon class="cls-1" points="33.03 57.56 34.76 53.1 38.24 54.57 39.6 58.8 38.83 63.34 33.03 64.63 29.68 64.72 27.55 62.07 25.67 59.1 26.86 54.1 28.96 52.7 30.61 53.72 32.16 57.94 33.03 57.56"/></clipPath><clipPath id="clip-path-2"><polygon class="cls-1" points="33.03 57.74 34.76 53.27 38.24 54.75 39.6 58.97 38.83 63.52 33.03 64.8 29.68 64.9 27.55 62.25 25.67 59.28 26.86 54.28 28.96 52.88 30.61 53.9 32.16 58.12 33.03 57.74"/></clipPath><clipPath id="clip-path-3"><rect class="cls-1" x="27.13" y="53.21" width="10.87" height="10.9"/></clipPath></defs><title>Mesa de trabajo 1</title><path class="cls-2" d="M59.42,0H5.07A5.07,5.07,0,0,0,0,5.07V113.4a5.07,5.07,0,0,0,5.07,5.07H27.9a4.46,4.46,0,1,1,8.92,0h22.6a5.07,5.07,0,0,0,5.07-5.07V5.07A5.07,5.07,0,0,0,59.42,0Z"/><rect class="cls-3" x="-11.17" y="31.3" width="87" height="44.39" rx="6" ry="6" transform="translate(-21.17 85.82) rotate(-90)"/><circle class="cls-4" cx="16.93" cy="59.36" r="4.44"/><path class="cls-5" d="M16.93,55.92a3.44,3.44,0,1,1-3.44,3.44,3.44,3.44,0,0,1,3.44-3.44m0-1a4.44,4.44,0,1,0,4.44,4.44,4.44,4.44,0,0,0-4.44-4.44Z"/><circle class="cls-4" cx="47.92" cy="59.36" r="4.44"/><path class="cls-5" d="M47.92,55.92a3.44,3.44,0,1,1-3.44,3.44,3.44,3.44,0,0,1,3.44-3.44m0-1a4.44,4.44,0,1,0,4.44,4.44,4.44,4.44,0,0,0-4.44-4.44Z"/><circle class="cls-4" cx="47.92" cy="87.56" r="1.05"/><path class="cls-5" d="M47.92,86.75a.8.8,0,1,1-.8.8.8.8,0,0,1,.8-.8m0-.5a1.3,1.3,0,1,0,1.3,1.3,1.3,1.3,0,0,0-1.3-1.3Z"/><circle class="cls-4" cx="47.92" cy="91.28" r="1.05"/><path class="cls-5" d="M47.92,90.48a.8.8,0,1,1-.8.8.8.8,0,0,1,.8-.8m0-.5a1.3,1.3,0,1,0,1.3,1.3,1.3,1.3,0,0,0-1.3-1.3Z"/><circle class="cls-4" cx="47.92" cy="83.83" r="1.05"/><path class="cls-5" d="M47.92,83a.8.8,0,1,1-.8.8.8.8,0,0,1,.8-.8m0-.5a1.3,1.3,0,1,0,1.3,1.3,1.3,1.3,0,0,0-1.3-1.3Z"/><rect class="cls-6" x="13.19" y="85.92" width="7.39" height="3.33" transform="translate(-70.7 104.47) rotate(-90)"/><rect class="cls-7" x="16.1" y="91.11" width="1.57" height="1.9" transform="translate(-75.18 108.95) rotate(-90)"/><rect class="cls-7" x="16.1" y="82.16" width="1.57" height="1.9" transform="translate(-66.22 99.99) rotate(-90)"/><circle class="cls-8" cx="32.32" cy="19.87" r="9.87"/><circle class="cls-9" cx="32.27" cy="19.87" r="8.23"/><rect class="cls-10" x="43.89" y="32.48" width="1.58" height="4.79" transform="translate(9.8 79.56) rotate(-90)"/><rect class="cls-11" x="43.89" y="33.59" width="1.58" height="2.58" transform="translate(9.8 79.56) rotate(-90)"/><rect class="cls-10" x="43.89" y="35.67" width="1.58" height="4.79" transform="translate(6.61 82.75) rotate(-90)"/><rect class="cls-11" x="43.89" y="36.78" width="1.58" height="2.58" transform="translate(6.61 82.75) rotate(-90)"/><rect class="cls-6" x="29.4" y="35.79" width="6.2" height="7.71" transform="translate(72.14 7.14) rotate(90)"/><rect class="cls-7" x="34.71" y="43.05" width="1.57" height="0.95" transform="translate(79.02 8.03) rotate(90)"/><rect class="cls-7" x="28.94" y="43.05" width="1.57" height="0.95" transform="translate(73.25 13.8) rotate(90)"/><rect class="cls-7" x="30.86" y="43.05" width="1.57" height="0.95" transform="translate(75.17 11.88) rotate(90)"/><rect class="cls-7" x="32.79" y="43.05" width="1.57" height="0.95" transform="translate(77.09 9.96) rotate(90)"/><rect class="cls-7" x="34.71" y="35.28" width="1.57" height="0.95" transform="translate(71.25 0.27) rotate(90)"/><rect class="cls-7" x="28.94" y="35.28" width="1.57" height="0.95" transform="translate(65.48 6.04) rotate(90)"/><rect class="cls-7" x="30.86" y="35.28" width="1.57" height="0.95" transform="translate(67.4 4.11) rotate(90)"/><rect class="cls-7" x="32.79" y="35.28" width="1.57" height="0.95" transform="translate(69.33 2.19) rotate(90)"/><path class="cls-12" d="M21.88,86v14.6a2.54,2.54,0,0,0,2.54,2.54h16a2.54,2.54,0,0,0,2.54-2.54V86Z"/><rect class="cls-8" x="40.48" y="72.42" width="1.58" height="4.79"/><rect class="cls-13" x="40.48" y="73.53" width="1.58" height="2.58"/><rect class="cls-8" x="44.07" y="38.86" width="1.58" height="4.79" transform="translate(86.12 -3.6) rotate(90)"/><rect class="cls-13" x="44.07" y="39.97" width="1.58" height="2.58" transform="translate(86.12 -3.6) rotate(90)"/><rect class="cls-8" x="44.07" y="42.05" width="1.58" height="4.79" transform="translate(89.31 -0.41) rotate(90)"/><rect class="cls-13" x="44.07" y="43.16" width="1.58" height="2.58" transform="translate(89.31 -0.41) rotate(90)"/><rect class="cls-10" x="19.38" y="32.48" width="1.58" height="4.79" transform="translate(-14.71 55.05) rotate(-90)"/><rect class="cls-11" x="19.38" y="33.59" width="1.58" height="2.58" transform="translate(-14.71 55.05) rotate(-90)"/><rect class="cls-8" x="19.56" y="35.67" width="1.58" height="4.79" transform="translate(58.42 17.72) rotate(90)"/><rect class="cls-13" x="19.56" y="36.78" width="1.58" height="2.58" transform="translate(58.42 17.72) rotate(90)"/><rect class="cls-8" x="19.56" y="38.86" width="1.58" height="4.79" transform="translate(61.61 20.91) rotate(90)"/><rect class="cls-13" x="19.56" y="39.97" width="1.58" height="2.58" transform="translate(61.61 20.91) rotate(90)"/><rect class="cls-8" x="19.56" y="42.05" width="1.58" height="4.79" transform="translate(64.8 24.1) rotate(90)"/><rect class="cls-13" x="19.56" y="43.16" width="1.58" height="2.58" transform="translate(64.8 24.1) rotate(90)"/><rect class="cls-8" x="35.54" y="72.42" width="1.58" height="4.79"/><polygon class="cls-5" points="37.13 73.53 35.54 73.53 35.54 76.11 37.13 76.11 37.13 73.53 37.13 73.53"/><rect class="cls-8" x="30.88" y="72.42" width="1.58" height="4.79"/><rect x="30.88" y="73.53" width="1.58" height="2.58"/><rect class="cls-8" x="26.84" y="72.42" width="1.58" height="4.79"/><rect x="26.84" y="73.53" width="1.58" height="2.58"/><rect class="cls-8" x="22.8" y="72.42" width="1.58" height="4.79"/><rect x="22.8" y="73.53" width="1.58" height="2.58"/><rect class="cls-14" x="45.03" y="20.33" width="5.49" height="7.3"/><rect class="cls-15" x="45.6" y="19.07" width="4.35" height="1.26"/><rect class="cls-15" x="45.6" y="27.63" width="4.35" height="1.26"/><circle class="cls-16" cx="47.78" cy="23.98" r="2.25"/><rect class="cls-17" x="47.4" y="22.63" width="0.75" height="2.69" transform="translate(30.95 -26.76) rotate(45)"/><rect class="cls-17" x="47.4" y="22.63" width="0.75" height="2.69" transform="translate(98.52 7.15) rotate(135)"/><circle class="cls-16" cx="36.26" cy="22.22" r="0.65" transform="translate(-3.85 8.08) rotate(-12.08)"/><circle class="cls-16" cx="28.33" cy="17.67" r="0.65" transform="translate(-3.07 6.32) rotate(-12.08)"/><circle class="cls-16" cx="32.32" cy="24.63" r="0.65" transform="translate(-7.95 30.07) rotate(-45)"/><circle class="cls-16" cx="32.32" cy="15.61" r="0.65" transform="translate(-1.57 27.43) rotate(-45)"/><circle class="cls-16" cx="32.32" cy="20.11" r="0.65" transform="translate(-4.75 28.75) rotate(-45)"/><circle class="cls-16" cx="36.26" cy="17.66" r="0.65" transform="translate(9.44 47.78) rotate(-74.29)"/><circle class="cls-16" cx="28.39" cy="22.07" r="0.65" transform="translate(-0.54 43.43) rotate(-74.29)"/><polygon class="cls-18" points="33.87 54.58 34.35 54.76 33.45 57.27 32.97 57.1 33.87 54.58"/><polygon class="cls-18" points="31.18 54.58 30.7 54.76 31.65 57.27 32.13 57.09 31.18 54.58"/><g class="cls-19"><path class="cls-18" d="M32.56,60.87a2.2,2.2,0,1,0-2.2-2.2,2.2,2.2,0,0,0,2.2,2.2Zm0-3.82a1.62,1.62,0,1,1-1.62,1.62A1.63,1.63,0,0,1,32.56,57Zm0,0"/></g><g class="cls-20"><g class="cls-21"><path class="cls-18" d="M27.68,59.81l.76.13a4.31,4.31,0,0,0,.31.74l-.45.63a.67.67,0,0,0,.07.87l.68.68a.67.67,0,0,0,.47.2.66.66,0,0,0,.39-.13l.63-.45a4.26,4.26,0,0,0,.77.32l.13.75a.67.67,0,0,0,.66.56h1a.67.67,0,0,0,.66-.56l.13-.77a4.2,4.2,0,0,0,.74-.31l.62.45a.67.67,0,0,0,.87-.07l.68-.68a.67.67,0,0,0,.07-.87l-.45-.64a4.2,4.2,0,0,0,.3-.74l.75-.13a.67.67,0,0,0,.56-.66v-1a.67.67,0,0,0-.56-.66l-.77-.13a4.21,4.21,0,0,0-.31-.74L36.8,56a.67.67,0,0,0-.07-.87L36,54.47a.67.67,0,0,0-.86-.07l-.64.45a4.3,4.3,0,0,0-.72-.3l-.13-.76a.67.67,0,0,0-.66-.56h-1a.67.67,0,0,0-.66.56l-.13.76a4.3,4.3,0,0,0-.74.31l-.63-.45a.67.67,0,0,0-.87.07l-.68.68a.67.67,0,0,0-.07.87l.45.63a4.27,4.27,0,0,0-.31.74l-.76.13a.67.67,0,0,0-.56.66v1a.66.66,0,0,0,.56.66Zm.05-1.62a.06.06,0,0,1,0-.06l1-.16a.3.3,0,0,0,.25-.22,3.64,3.64,0,0,1,.4-1,.31.31,0,0,0,0-.33l-.56-.79a.06.06,0,0,1,0-.08l.68-.68,0,0h0l.79.56a.31.31,0,0,0,.33,0,3.64,3.64,0,0,1,1-.4.3.3,0,0,0,.22-.25l.16-1a.06.06,0,0,1,.06,0h1a.06.06,0,0,1,.06,0l.16,1a.31.31,0,0,0,.22.25,3.78,3.78,0,0,1,.93.38.31.31,0,0,0,.15,0,.3.3,0,0,0,.18-.06l.8-.57h0l0,0,.68.68a.06.06,0,0,1,0,.08l-.56.78a.31.31,0,0,0,0,.34,3.6,3.6,0,0,1,.4.95.31.31,0,0,0,.25.22l1,.16a.06.06,0,0,1,0,.06v1a.06.06,0,0,1,0,.06l-.95.16a.31.31,0,0,0-.25.23,3.63,3.63,0,0,1-.39,1,.3.3,0,0,0,0,.33l.57.8a.06.06,0,0,1,0,.08l-.68.68,0,0h0l-.78-.56a.31.31,0,0,0-.34,0,3.6,3.6,0,0,1-.95.4.31.31,0,0,0-.22.25l-.16,1a.06.06,0,0,1-.06.05h-1a.06.06,0,0,1-.06-.05l-.16-.95a.31.31,0,0,0-.23-.25,3.69,3.69,0,0,1-1-.4.31.31,0,0,0-.33,0l-.78.56h0l0,0-.68-.68a.06.06,0,0,1,0-.08l.56-.79a.31.31,0,0,0,0-.33,3.64,3.64,0,0,1-.4-1,.3.3,0,0,0-.25-.22l-1-.16a.06.06,0,0,1-.05-.06v-1Zm0,0"/></g></g></svg>