<?xml version="1.0" encoding="utf-8"?>
<!-- Generator: Adobe Illustrator 21.0.2, SVG Export Plug-In . SVG Version: 6.00 Build 0)  -->
<svg version="1.1" id="Capa_1" xmlns="http://www.w3.org/2000/svg" xmlns:xlink="http://www.w3.org/1999/xlink" x="0px" y="0px"
	 width="1129.9px" height="806.7px" viewBox="0 0 1129.9 806.7" style="enable-background:new 0 0 1129.9 806.7;"
	 xml:space="preserve">
<style type="text/css">
	.st0{fill:#D7D8D8;}
	.st1{fill:#2D2929;}
	.st2{fill:#92918F;}
	.st3{fill:#CCAE1A;}
	.st4{fill:#4D4D4C;}
	.st5{fill:#A49578;}
	.st6{fill:#BDBCB8;}
	.st7{fill:#D7D5D1;}
	.st8{fill:none;stroke:#FFFFFF;stroke-width:2;stroke-linejoin:round;stroke-miterlimit:10;}
	.st9{fill:none;stroke:#FFFFFF;stroke-miterlimit:10;}
	.st10{fill:none;stroke:#FFFFFF;stroke-width:2.0991;stroke-miterlimit:10;}
	.st11{fill:none;stroke:#FFFFFF;stroke-width:1.2604;stroke-miterlimit:10;}
	.st12{fill:#FFFFFF;}
	.st13{font-family:'PTMono-Bold';}
	.st14{font-size:15.5391px;}
	.st15{letter-spacing:-2;}
	.st16{letter-spacing:-1;}
	.st17{letter-spacing:-5;}
	.st18{font-size:14.9122px;}
	.st19{fill:#1D6BDD;}
	.st20{fill:#3B3637;}
	.st21{fill:#181513;}
	.st22{fill:none;stroke:#92918F;stroke-width:4;stroke-miterlimit:10;}
	.st23{fill:#BAB9B6;}
	.st24{fill:#EAE9E8;}
	.st25{fill:#EBEBEB;}
	.st26{fill:#D6D4D4;}
	.st27{fill:#C56655;}
	.st28{fill:#A6A6A3;}
	.st29{fill:#D3D1D1;}
	.st30{fill:#E7E6E6;}
	.st31{fill:#E8E6E4;}
	.st32{fill:#6DC8EA;}
	.st33{fill:#FFE100;}
	.st34{fill:#F8ED6D;}
	.st35{fill:none;stroke:#EAE9E8;stroke-width:0.78;stroke-miterlimit:10;}
</style>
<g id="Layer_1">
	<path class="st0" d="M1094.5,0H35.5C16.6-0.7,0.8,14,0,33v740.7c0.8,18.9,16.6,33.7,35.5,33h499.6c0.7-16.6,14.7-29.6,31.2-29
		c16.6-0.6,30.6,12.3,31.2,29h496.9c18.9,0.7,34.8-14,35.5-33V33C1129.2,14,1113.4-0.7,1094.5,0z"/>
</g>
<g id="Layer_2">
</g>
<g id="Layer_3">
	<g>
		<path class="st1" d="M715.2,373.7h-627c-22.9,0-41.5,18.6-41.5,41.5v223.9c0,22.9,18.6,41.5,41.5,41.5h627
			c22.9,0,41.5-18.6,41.5-41.5V415.2C756.7,392.3,738.1,373.7,715.2,373.7z M62.6,471.8c4.3,0,7.8,3.5,7.8,7.8s-3.5,7.8-7.8,7.8
			s-7.8-3.5-7.8-7.8S58.3,471.8,62.6,471.8z M62.6,504.8c4.3,0,7.8,3.5,7.8,7.8c0,4.3-3.5,7.8-7.8,7.8s-7.8-3.5-7.8-7.8
			C54.8,508.3,58.3,504.8,62.6,504.8z M62.6,537.8c4.3,0,7.8,3.5,7.8,7.8s-3.5,7.8-7.8,7.8s-7.8-3.5-7.8-7.8S58.3,537.8,62.6,537.8z
			 M54.9,578.6c0-4.3,3.5-7.8,7.8-7.8s7.8,3.5,7.8,7.8s-3.5,7.8-7.8,7.8C58.3,586.4,54.9,582.9,54.9,578.6z M93.4,665
			c-19,0-34.4-15.4-34.4-34.4s15.4-34.4,34.4-34.4s34.4,15.4,34.4,34.4S112.4,665,93.4,665z M93.4,458.9c-19,0-34.4-15.4-34.4-34.4
			s15.4-34.4,34.4-34.4s34.4,15.4,34.4,34.4S112.4,458.9,93.4,458.9z M708.3,665c-19,0-34.4-15.4-34.4-34.4s15.4-34.4,34.4-34.4
			s34.4,15.4,34.4,34.4C742.8,649.6,727.3,665,708.3,665z M708.3,458.9c-19,0-34.4-15.4-34.4-34.4s15.4-34.4,34.4-34.4
			s34.4,15.4,34.4,34.4C742.8,443.5,727.3,458.9,708.3,458.9z"/>
		<path class="st2" d="M157.9,483.2v-20.3h46v20.3h-6.5v-10.4h-33v10.4H157.9z M197.4,516.1v6.8h-33v-6.8h-6.5v16.7h46v-16.7H197.4z
			"/>
		<path class="st3" d="M93.4,386c-21.3,0-38.5,17.2-38.5,38.5S72.1,463,93.4,463s38.5-17.2,38.5-38.5
			C131.8,403.2,114.6,386,93.4,386z M93.4,454.3c-16.5,0-29.8-13.4-29.8-29.8c0-16.5,13.4-29.8,29.8-29.8
			c16.5,0,29.8,13.4,29.8,29.8C123.2,440.9,109.8,454.3,93.4,454.3z M93.4,592.1c-21.3,0-38.5,17.2-38.5,38.5s17.2,38.5,38.5,38.5
			s38.5-17.2,38.5-38.5C131.8,609.3,114.6,592.1,93.4,592.1z M93.4,660.4c-16.5,0-29.8-13.4-29.8-29.8s13.4-29.8,29.8-29.8
			c16.5,0,29.8,13.4,29.8,29.8S109.8,660.4,93.4,660.4z M708.3,462.9c21.3,0,38.5-17.2,38.5-38.5s-17.2-38.5-38.5-38.5
			s-38.5,17.2-38.5,38.5C669.8,445.7,687.1,462.9,708.3,462.9z M708.3,394.6c16.5,0,29.8,13.4,29.8,29.8c0,16.5-13.4,29.8-29.8,29.8
			s-29.8-13.4-29.8-29.8S691.9,394.6,708.3,394.6z M708.3,592.1c-21.3,0-38.5,17.2-38.5,38.5s17.2,38.5,38.5,38.5
			s38.5-17.2,38.5-38.5S729.6,592.1,708.3,592.1z M708.3,660.4c-16.5,0-29.8-13.4-29.8-29.8s13.4-29.8,29.8-29.8
			c16.5,0,29.8,13.4,29.8,29.8S724.8,660.4,708.3,660.4z"/>
		<rect x="208.1" y="465" class="st4" width="67.9" height="48.4"/>
		<path class="st5" d="M184.5,467.2c-0.1,2.4-1.6,4.7-4.7,4.7c-3.1,0-4.6-2.3-4.7-4.7h-15.4v59.9h15c0.3-2.1,1.9-4,4.6-4
			c2.8,0,4.3,1.9,4.6,4h15.9v-59.9H184.5z"/>
		<rect x="214.6" y="452.4" class="st6" width="7.6" height="12.5"/>
		<rect x="230.2" y="452.5" class="st6" width="7.6" height="12.5"/>
		<rect x="245.2" y="452.4" class="st6" width="7.6" height="12.5"/>
		<rect x="260.8" y="452.4" class="st6" width="7.6" height="12.5"/>
		<rect x="214.5" y="513.4" class="st6" width="7.6" height="12.5"/>
		<rect x="230.2" y="513.4" class="st6" width="7.6" height="12.5"/>
		<rect x="245.2" y="513.3" class="st6" width="7.6" height="12.5"/>
		<rect x="260.8" y="513.4" class="st6" width="7.6" height="12.5"/>
		<rect x="214.5" y="398.2" class="st7" width="11.5" height="35"/>
		<rect x="214.5" y="406.3" class="st4" width="11.5" height="18.9"/>
		<rect x="264.6" y="398.2" class="st7" width="11.5" height="35"/>
		<rect x="264.6" y="406.3" class="st4" width="11.5" height="18.9"/>
		<rect x="239.6" y="398.2" class="st7" width="11.5" height="35"/>
		<rect x="239.6" y="406.3" class="st5" width="11.5" height="18.9"/>
		<path class="st6" d="M335.5,491.5c-10.3,0-18.6-8.3-18.6-18.6s8.3-18.6,18.6-18.6s18.6,8.3,18.6,18.6S345.8,491.5,335.5,491.5z
			 M335.5,429c-10.3,0-18.6-8.3-18.6-18.6s8.3-18.6,18.6-18.6s18.6,8.3,18.6,18.6S345.8,429,335.5,429z M295.9,376.3v6.4v124h347.5
			V376.3H295.9z"/>
		<path class="st8" d="M297.7,382.7L297.7,382.7c-5,0-9,4-9,9v97.1c0,11.8,9.6,21.4,21.4,21.4h319.3c11.8,0,21.4-9.6,21.4-21.4
			V388.2c0-3-2.5-5.5-5.5-5.5l0,0"/>
		<rect x="210.3" y="395.7" class="st9" width="19.9" height="43.7"/>
		<rect x="158.4" y="388" class="st7" width="35" height="11.5"/>
		<rect x="166.5" y="388" class="st4" width="18.9" height="11.5"/>
		<rect x="156" y="383.9" class="st9" width="43.7" height="19.9"/>
		<rect x="158.4" y="408.3" class="st7" width="35" height="11.5"/>
		<rect x="166.5" y="408.3" class="st4" width="18.9" height="11.5"/>
		<rect x="155.9" y="404.2" class="st9" width="43.7" height="19.9"/>
		<rect x="87.6" y="489.2" class="st7" width="11.5" height="35"/>
		<rect x="87.6" y="497.3" class="st4" width="11.5" height="18.9"/>
		<rect x="49.2" y="463.8" class="st10" width="29.1" height="132"/>
		<rect x="259.1" y="395.7" class="st9" width="19.9" height="43.7"/>
		<path class="st9" d="M241.8,439.4h5.6c4,0,7.2-3.2,7.2-7.2v-29.3c0-4-3.2-7.2-7.2-7.2h-5.6c-4,0-7.2,3.2-7.2,7.2v29.3
			C234.7,436.2,237.9,439.4,241.8,439.4z"/>
		<rect x="155.7" y="434.1" class="st7" width="41" height="15.7"/>
		<rect x="165.2" y="434.1" class="st5" width="22.1" height="15.7"/>
		<path class="st11" d="M174.7,429.4h-14.3c-4.1,0-7.5,3.4-7.5,7.5V449c0,4.1,3.4,7.5,7.5,7.5h14.3"/>
		<path class="st11" d="M187.2,456.5h9.2c4.1,0,7.5-3.4,7.5-7.5v-12.1c0-4.1-3.4-7.5-7.5-7.5h-9.2"/>
		<rect x="88.3" y="532.8" class="st7" width="11.5" height="35"/>
		<rect x="88.3" y="541" class="st5" width="11.5" height="18.9"/>
		<rect x="83.4" y="530.4" class="st9" width="19.9" height="43.7"/>
		<rect x="141.3" y="546.7" class="st7" width="11.5" height="35"/>
		<rect x="141.3" y="554.8" class="st5" width="11.5" height="18.9"/>
		<rect x="136.4" y="544.3" class="st9" width="19.9" height="43.7"/>
		<rect x="83.4" y="486.7" class="st9" width="19.9" height="43.7"/>
		<text transform="matrix(1 0 0 1 210.6692 393.2457)" class="st12 st13 st14">L1</text>
		<text transform="matrix(1 0 0 1 229.2692 393.2457)" class="st12 st13 st14 st15"> </text>
		<text transform="matrix(1 0 0 1 235.2692 393.2457)" class="st12 st13 st14">C</text>
		<text transform="matrix(1 0 0 1 244.5692 393.2457)" class="st12 st13 st14 st16">2</text>
		<text transform="matrix(1 0 0 1 251.0692 393.2457)" class="st12 st13 st14"> L2</text>
		<rect x="616.6" y="594" class="st7" width="35" height="11.5"/>
		<rect x="624.7" y="594" class="st4" width="18.9" height="11.5"/>
		<rect x="638.5" y="546.2" class="st7" width="11.5" height="35"/>
		<rect x="638.5" y="554.4" class="st4" width="11.5" height="18.9"/>
		<rect x="617.2" y="546.2" class="st7" width="11.5" height="35"/>
		<rect x="617.2" y="554.4" class="st5" width="11.5" height="18.9"/>
		<path class="st9" d="M610.4,597.3v4.8c0,4.2,3.4,7.5,7.5,7.5h28.6c4.2,0,7.5-3.4,7.5-7.5v-4.8c0-4.2-3.4-7.5-7.5-7.5H618
			C613.8,589.7,610.4,593.1,610.4,597.3z"/>
		<rect x="616.6" y="614.9" class="st7" width="35" height="11.5"/>
		<rect x="624.7" y="614.9" class="st4" width="18.9" height="11.5"/>
		<rect x="610.4" y="610.7" class="st9" width="43.7" height="19.9"/>
		<rect x="615.6" y="634.6" class="st7" width="11.5" height="35"/>
		<rect x="615.6" y="642.7" class="st4" width="11.5" height="18.9"/>
		<rect x="611.4" y="632.1" class="st9" width="19.9" height="43.7"/>
		<rect x="637.8" y="634.6" class="st7" width="11.5" height="35"/>
		<rect x="637.8" y="642.7" class="st4" width="11.5" height="18.9"/>
		<rect x="633.6" y="632.1" class="st9" width="19.9" height="43.7"/>
		<path class="st9" d="M640.4,587.5h5.1c4.1,0,7.4-3.3,7.4-7.4v-28.8c0-4.1-3.3-7.4-7.4-7.4h-5.1c-4.1,0-7.4,3.3-7.4,7.4v28.8
			C633,584.2,636.3,587.5,640.4,587.5z"/>
		<path class="st9" d="M619.5,587.5h5.6c4,0,7.2-3.2,7.2-7.2V551c0-4-3.2-7.2-7.2-7.2h-5.6c-4,0-7.2,3.2-7.2,7.2v29.3
			C612.3,584.3,615.5,587.5,619.5,587.5z"/>
		<text transform="matrix(1 0 0 1 613.7731 542.5485)" class="st12 st13 st14">C5</text>
		<text transform="matrix(1 0 0 1 632.373 542.5485)" class="st12 st13 st14 st17"> </text>
		<text transform="matrix(1 0 0 1 635.1731 542.5485)" class="st12 st13 st14">C3</text>
		<text transform="matrix(1 0 0 1 654.9158 604.8156)" class="st12 st13 st14">C4</text>
		<text transform="matrix(1 0 0 1 654.9158 675.0457)" class="st12 st13 st14">D3</text>
		<text transform="matrix(1 0 0 1 281.9867 526.4957)" class="st12 st13 st14">U1</text>
		<text transform="matrix(1 0 0 1 84.7179 483.2454)" class="st12 st13 st14">R1</text>
		<text transform="matrix(1 0 0 1 110.0513 557.079)" class="st12 st13 st14">O1</text>
		<text transform="matrix(1 0 0 1 133.3846 449.8488)" class="st12 st13 st14">C1</text>
		<text transform="matrix(1 0 0 1 133.3846 422.9264)" class="st12 st13 st14">R5</text>
		<text transform="matrix(1 0 0 1 133.3846 399.5345)" class="st12 st13 st14">R4</text>
		<text transform="matrix(1 0 0 1 83.3847 589.1219)" class="st12 st13 st14">PWR</text>
		<path class="st6" d="M184.5,467.2h5.1c0,0.2,0,0.5,0,0.7c0,5-4.1,9.1-9.1,9.1s-9.1-4.1-9.1-9.1c0-0.2,0-0.5,0-0.7h3.7
			c0.1,2.4,1.6,4.7,4.7,4.7C182.8,471.9,184.4,469.6,184.5,467.2z M188.5,527c0-5-4.1-9.1-9.1-9.1s-9.1,4.1-9.1,9.1v0.1h4.4
			c0.3-2.1,1.9-4,4.6-4c2.8,0,4.3,1.9,4.6,4L188.5,527L188.5,527z"/>
		<rect x="159.7" y="482.5" class="st4" width="40.1" height="30.1"/>
		<text transform="matrix(-1 0 0 -1 197.4082 492.9209)" class="st5 st13 st18">5ObD</text>
		<path class="st5" d="M62.6,535.1c-5.8,0-10.5,4.7-10.5,10.5s4.7,10.5,10.5,10.5s10.5-4.7,10.5-10.5S68.4,535.1,62.6,535.1z
			 M62.6,551.3c-3.2,0-5.7-2.6-5.7-5.7s2.6-5.7,5.7-5.7c3.2,0,5.7,2.6,5.7,5.7S65.8,551.3,62.6,551.3z M62.6,502.1
			c-5.8,0-10.5,4.7-10.5,10.5c0,5.8,4.7,10.5,10.5,10.5s10.5-4.7,10.5-10.5C73.1,506.8,68.4,502.1,62.6,502.1z M62.6,518.3
			c-3.2,0-5.7-2.6-5.7-5.7c0-3.1,2.6-5.7,5.7-5.7c3.2,0,5.7,2.6,5.7,5.7C68.3,515.7,65.8,518.3,62.6,518.3z M62.6,568.1
			c-5.8,0-10.5,4.7-10.5,10.5s4.7,10.5,10.5,10.5s10.5-4.7,10.5-10.5S68.4,568.1,62.6,568.1z M62.6,584.3c-3.2,0-5.7-2.6-5.7-5.7
			s2.6-5.7,5.7-5.7c3.2,0,5.7,2.6,5.7,5.7S65.8,584.3,62.6,584.3z M52.2,469.1v21h21v-21H52.2z M62.6,485.3c-3.2,0-5.7-2.6-5.7-5.7
			s2.6-5.7,5.7-5.7c3.2,0,5.7,2.6,5.7,5.7S65.8,485.3,62.6,485.3z"/>
		<path class="st8" d="M161.3,559.8v-6.3c0-1.3,1.1-2.4,2.4-2.4H317c1.3,0,2.4,1.1,2.4,2.4v120.6c0,1.6-1.3,3-3,3H314"/>
		<line class="st8" x1="174.7" y1="544.3" x2="174.7" y2="551.3"/>
		<line class="st8" x1="201.2" y1="544.3" x2="201.2" y2="551.3"/>
		<line class="st8" x1="227.7" y1="544.3" x2="227.7" y2="551.3"/>
		<line class="st8" x1="254.2" y1="544.3" x2="254.2" y2="551.3"/>
		<line class="st8" x1="280.7" y1="544.3" x2="280.7" y2="551.3"/>
		<line class="st8" x1="307.2" y1="544.3" x2="307.2" y2="551.3"/>
		<path class="st1" d="M104.9,761h188.5l23-38.5V556.1h-149l-68.2,11.8v187.4C99.2,758.4,101.7,761,104.9,761z"/>
		<path class="st19" d="M116.3,758.7h154.6c7.2,0,13-5.8,13-13V584.6c0-7.2-5.8-13-13-13H116.3c-7.2,0-13,5.8-13,13v161.1
			C103.3,752.8,109.1,758.7,116.3,758.7z"/>
		<polygon class="st20" points="316.4,556.1 289.9,568.1 293.4,761 316.4,722.4 		"/>
		<path class="st1" d="M289.9,570.2"/>
		<polygon class="st21" points="316.4,556.1 167.4,556.1 99.8,567.9 289.9,568.1 		"/>
		
			<ellipse transform="matrix(0.1156 -0.9933 0.9933 0.1156 -377.3693 597.1246)" class="st2" cx="146.6" cy="510.5" rx="7.2" ry="8.7"/>
		<ellipse class="st2" cx="147.3" cy="535.1" rx="9" ry="7.2"/>
		<path class="st12" d="M147.1,541"/>
		<polyline class="st22" points="146.4,540.3 115.9,540.3 115.9,506.7 145.9,506.7 		"/>
		<rect x="109.2" y="515.4" class="st6" width="11.6" height="15"/>
		<g>
			<polygon class="st23" points="342,642.9 622.9,642.9 622.9,501.7 587,490 380.4,490.2 342,502.5 			"/>
			<path class="st24" d="M523.3,753.4h-81.7c-16,0-28.9-13-28.9-28.9l0,0h139.6l0,0C552.2,740.5,539.3,753.4,523.3,753.4z"/>
			<path class="st25" d="M428.5,729.4h107.9c47.8,0,86.5-38.7,86.5-86.5l0,0H342l0,0C342,690.7,380.7,729.4,428.5,729.4z"/>
			<rect x="379.1" y="490" class="st26" width="206.6" height="152.9"/>
			<path class="st12" d="M438.3,729.4h88.3c32.7,0,59.1-26.5,59.1-59.1v-27H379.1v27C379.1,702.9,405.6,729.4,438.3,729.4z"/>
			<path class="st23" d="M441.8,537.7c0,0,0.1-44.2,0-44.2s-27,0-27,0l10.5,41.7L441.8,537.7z"/>
			<polygon class="st23" points="519.9,536.1 519.9,492.2 545.9,492.2 537.2,535.2 			"/>
			<path class="st4" d="M441.8,533.1v4.6h-19.3l-9.3-47.3h4.6l8.4,42.7H441.8z"/>
			<path class="st4" d="M548.4,490.4l-9.3,47.3h-19.3v-4h16.1l8.5-43.3H548.4z"/>
			<rect x="461.4" y="610.7" class="st4" width="42" height="22.4"/>
			<polygon class="st27" points="452.3,642.5 512.5,642.5 503.4,633 461.4,633 			"/>
			<path class="st28" d="M470.1,320.3H497c10.4,0,20.3,4.3,27.4,11.9l0.6,0.6h-82.8l0,0C449.2,324.9,459.4,320.3,470.1,320.3z"/>
			<path class="st29" d="M484.1,320.3h-14c-10.7,0-20.9,4.6-28,12.5h31.2C475.6,327.8,479.4,323.5,484.1,320.3z"/>
			<path class="st7" d="M498.2,320.3h-29.3v-90.4c0-8.1,6.6-14.7,14.7-14.7l0,0c8.1,0,14.7,6.6,14.7,14.7v90.4H498.2z"/>
			<path class="st30" d="M494,320.3h-21v-94.6c0-5.8,4.7-10.5,10.5-10.5l0,0c5.8,0,10.5,4.7,10.5,10.5V320.3z"/>
			<path class="st12" d="M480.4,215.7v104.6h-2.9V217.1C478.4,216.5,479.4,216,480.4,215.7z M482.4,215.3v105h1.1V215.2
				C483.2,215.2,482.8,215.2,482.4,215.3z"/>
			<polygon class="st31" points="333.6,507.2 376.4,493.5 588.4,493.5 631.3,507.2 631.3,353.1 588.4,333.7 376.4,333.7 
				333.6,353.1 			"/>
			<rect x="376.4" y="332.8" class="st28" width="212" height="160.7"/>
			<polygon class="st30" points="376.4,493.5 480.5,493.5 498.2,332.8 376.4,332.8 			"/>
			<path class="st7" d="M484.9,753.5h12.9c0,4.1-5.8,7.4-12.9,7.4s-12.9-3.3-12.9-7.4l0,0H484.9z"/>
			<path class="st29" d="M484.9,759.4c-1-1-1.6-2.5-1.6-3.9v-0.1c0-0.7,0.1-1.3,0.4-1.9h-11.6l0,0c0,4.1,5.8,7.4,12.9,7.4
				c0.8,0,1.5,0,2.2-0.1C486.3,760.5,485.5,760,484.9,759.4z"/>
			<path class="st29" d="M493.9,753.5c0.2,0.6,0.4,1.3,0.4,1.9v0.1c0,1.5-0.6,2.8-1.6,3.8c3.1-1.4,5.1-3.5,5.1-5.9h-3.9V753.5z"/>
		</g>
	</g>
	<g>
		<path class="st32" d="M973,296.2c0-64.4-58.1-116.6-128.6-116.6s-127.6,52.2-127.6,116.6S774,412.8,844.4,412.8
			S973,360.6,973,296.2z"/>
		<path class="st33" d="M835.9,180.7c0,0,8.2,0,10.5,3.9c0,0,30.5-7.8,73,18.7s50.5,67.7,50.5,67.7l1.4,6.4c0,0,50.3-21.1,69.8-60.4
			s8.6-72.5-3.1-89.7s-55.8-65.1-99.8-84.2c-44.1-19.1-78-29.1-92,0C835.3,65.2,835.9,180.7,835.9,180.7z"/>
		<path class="st34" d="M922.2,293.6c0,0-1.7,135.1-142.1,90.1c0,0,8.9,75.1,21.7,99.4c14.2,26.9,48.9,54.5,120.3,27.3
			c71.4-27.2,125.8-68.4,143.7-111.3c0,0,10-29-15.5-43.9c-25.3-14.8-118.5-61.6-118.5-61.6H922.2z"/>
		<path class="st35" d="M785.9,422.5"/>
		<path class="st33" d="M780.1,383.7c0,0,3.3,91.1,56,116.5c52.6,25.3,138.3-27.7,159.6-43c21.3-15.3,79.7-66.3,58.2-99.7
			l-122.1-63.9h-9.6c0,0-2.8,83.5-65.4,96.4C819.8,397.5,779.2,383.9,780.1,383.7z"/>
		<path class="st34" d="M1052.7,196.3c-9.8,52.3-81.5,81.1-81.5,81.1c-0.4-2.2-0.9-4.3-1.4-6.4l0,0c0,0,42.7-15.9,66.1-53.3
			c16.6-26.6,17.5-54.3,7.8-77.4C1052.1,156.9,1056.5,175.7,1052.7,196.3z"/>
		<path class="st34" d="M846.4,184.6c0,0-0.7-108.3,4.3-131s12-28.6,21-28.6c0,0-20.5-0.6-28.2,25.5s-7.7,130.2-7.7,130.2
			S844.1,180.3,846.4,184.6z"/>
		<path class="st34" d="M747.5,282.6c0,0.9-2.4,13.9-2.4,13.9s-69.4,15.8-110.9,21.8s-80,17.9-87.1-33.7
			c-3.9-28-2.1-80.4,65.3-102.9s164,17.6,163.1,17.6c-0.9,0-16.3,10.3-27,21.8c-10.7,11.6-28.7,35.8-22.3,47.7
			C732.8,280.9,747.5,282.6,747.5,282.6z"/>
		<path class="st33" d="M747.5,282.6c0,0-80.5,13.6-108.3,17.9s-68.7,21-80.9-17.9c-12.2-39,16.3-93.2,66.5-104.2
			s87.9,2.7,150.8,19.9c0,0-28,17.7-41.8,42.1S721.6,273.4,747.5,282.6z"/>
		<path class="st34" d="M969.8,319.1"/>
	</g>
</g>
</svg>
