<svg id="Ebene_1" data-name="Ebene 1" xmlns="http://www.w3.org/2000/svg" xmlns:xlink="http://www.w3.org/1999/xlink" viewBox="0 0 64.49 118.34"><defs><style>.cls-1{fill:none;}.cls-2,.cls-4{fill:#d7d7d7;}.cls-2,.cls-9{fill-rule:evenodd;}.cls-3{fill:#2d2929;}.cls-5{fill:#ccae19;}.cls-6{fill:#4c4c4b;}.cls-7{fill:#bcbcb8;}.cls-8{fill:#fff;}.cls-10{fill:#d6d4d0;}.cls-11{fill:#8c8c8c;}.cls-12{fill:#bfbebe;}.cls-13{fill:#ededed;}.cls-14{fill:#c6c4c4;}.cls-15{fill:#81c1bf;}.cls-16{fill:#353535;}.cls-17{clip-path:url(#clip-path);}.cls-18{clip-path:url(#clip-path-2);}.cls-19{clip-path:url(#clip-path-3);}</style><clipPath id="clip-path"><polygon class="cls-1" points="32.84 33.7 34.41 29.63 37.58 30.98 38.83 34.83 38.12 38.97 32.84 40.14 29.78 40.23 27.83 37.81 26.12 35.1 27.21 30.55 29.13 29.27 30.63 30.2 32.04 34.05 32.84 33.7"/></clipPath><clipPath id="clip-path-2"><polygon class="cls-1" points="32.84 33.87 34.41 29.79 37.58 31.14 38.83 34.99 38.12 39.13 32.84 40.3 29.78 40.39 27.83 37.97 26.12 35.26 27.21 30.71 29.13 29.43 30.63 30.36 32.04 34.21 32.84 33.87"/></clipPath><clipPath id="clip-path-3"><rect class="cls-1" x="27.45" y="29.73" width="9.91" height="9.93"/></clipPath></defs><title>Mesa de trabajo 1</title><path class="cls-2" d="M59.42,0H5.07A4.89,4.89,0,0,0,0,4.69v109a4.89,4.89,0,0,0,5.07,4.69H27.9a4.3,4.3,0,0,1,4.46-4.12,4.3,4.3,0,0,1,4.46,4.12h22.6a4.89,4.89,0,0,0,5.07-4.69V4.69A4.89,4.89,0,0,0,59.42,0Z"/><rect class="cls-3" x="-11.1" y="33.96" width="87" height="44.39" rx="6" ry="6" transform="translate(-23.75 88.55) rotate(-90)"/><circle class="cls-4" cx="16.93" cy="63.09" r="4.44"/><path class="cls-5" d="M16.93,59.65a3.44,3.44,0,1,1-3.44,3.44,3.44,3.44,0,0,1,3.44-3.44m0-1a4.44,4.44,0,1,0,4.44,4.44,4.44,4.44,0,0,0-4.44-4.44Z"/><circle class="cls-4" cx="47.92" cy="63.09" r="4.44"/><path class="cls-5" d="M47.92,59.65a3.44,3.44,0,1,1-3.44,3.44,3.44,3.44,0,0,1,3.44-3.44m0-1a4.44,4.44,0,1,0,4.44,4.44,4.44,4.44,0,0,0-4.44-4.44Z"/><circle class="cls-4" cx="47.24" cy="91.79" r="1.05"/><path class="cls-5" d="M47.24,91a.8.8,0,1,1-.8.8.8.8,0,0,1,.8-.8m0-.5a1.3,1.3,0,1,0,1.3,1.3,1.3,1.3,0,0,0-1.3-1.3Z"/><circle class="cls-4" cx="47.24" cy="95.51" r="1.05"/><path class="cls-5" d="M47.24,94.71a.8.8,0,1,1-.8.8.8.8,0,0,1,.8-.8m0-.5a1.3,1.3,0,1,0,1.3,1.3,1.3,1.3,0,0,0-1.3-1.3Z"/><circle class="cls-4" cx="47.24" cy="88.06" r="1.05"/><path class="cls-5" d="M47.24,87.25a.8.8,0,1,1-.8.8.8.8,0,0,1,.8-.8m0-.5a1.3,1.3,0,1,0,1.3,1.3,1.3,1.3,0,0,0-1.3-1.3Z"/><rect class="cls-4" x="46.19" y="83.28" width="2.11" height="2.11"/><path class="cls-5" d="M48,83.53v1.61H46.44V83.53H48m.5-.5H45.94v2.61h2.61V83Z"/><rect class="cls-6" x="13.19" y="88.57" width="7.39" height="3.33" transform="translate(-73.35 107.12) rotate(-90)"/><rect class="cls-7" x="16.1" y="93.77" width="1.57" height="1.9" transform="translate(-77.83 111.6) rotate(-90)"/><rect class="cls-7" x="11.55" y="91.88" width="3.69" height="1.09" transform="translate(-79.04 105.82) rotate(-90)"/><rect class="cls-8" x="12.31" y="91.88" width="2.16" height="1.09" transform="translate(-79.04 105.82) rotate(-90)"/><rect class="cls-7" x="11.55" y="86.53" width="3.69" height="1.09" transform="translate(-73.69 100.47) rotate(-90)"/><rect class="cls-8" x="12.31" y="86.53" width="2.16" height="1.09" transform="translate(-73.69 100.47) rotate(-90)"/><rect class="cls-7" x="16.1" y="84.81" width="1.57" height="1.9" transform="translate(-68.87 102.64) rotate(-90)"/><rect class="cls-6" x="46.66" y="71.7" width="3.98" height="8.49" transform="translate(124.6 27.3) rotate(90)"/><rect class="cls-7" x="44.92" y="72.7" width="1.57" height="0.95" transform="translate(118.88 27.47) rotate(90)"/><rect class="cls-7" x="46.88" y="72.7" width="1.57" height="0.95" transform="translate(120.83 25.52) rotate(90)"/><rect class="cls-7" x="48.74" y="72.7" width="1.57" height="0.95" transform="translate(122.7 23.65) rotate(90)"/><rect class="cls-7" x="50.7" y="72.7" width="1.57" height="0.95" transform="translate(124.66 21.69) rotate(90)"/><rect class="cls-7" x="44.92" y="78.25" width="1.57" height="0.95" transform="translate(124.42 33.02) rotate(90)"/><rect class="cls-7" x="46.88" y="78.25" width="1.57" height="0.95" transform="translate(126.38 31.06) rotate(90)"/><rect class="cls-7" x="48.74" y="78.25" width="1.57" height="0.95" transform="translate(128.25 29.19) rotate(90)"/><rect class="cls-7" x="50.7" y="78.25" width="1.57" height="0.95" transform="translate(130.21 27.24) rotate(90)"/><path class="cls-9" d="M24.41,103.56a2,2,0,0,1-2-2V87.43H42.43v14.1a2,2,0,0,1-2,2Z"/><path class="cls-3" d="M41.93,87.93v13.6a1.54,1.54,0,0,1-1.54,1.54h-16a1.54,1.54,0,0,1-1.54-1.54V87.93H41.93m1-1H21.88v14.6a2.54,2.54,0,0,0,2.54,2.54h16a2.54,2.54,0,0,0,2.54-2.54V86.93Z"/><rect class="cls-10" x="35.86" y="73.55" width="1.58" height="4.79"/><rect class="cls-11" x="35.86" y="74.66" width="1.58" height="2.58"/><rect class="cls-10" x="38.65" y="73.55" width="1.58" height="4.79"/><rect class="cls-11" x="38.65" y="74.66" width="1.58" height="2.58"/><rect class="cls-12" x="41.44" y="73.55" width="1.58" height="4.79"/><rect class="cls-13" x="41.44" y="74.66" width="1.58" height="2.58"/><rect class="cls-10" x="27.82" y="73.55" width="1.58" height="4.79"/><rect class="cls-11" x="27.82" y="74.66" width="1.58" height="2.58"/><rect class="cls-10" x="30.61" y="73.55" width="1.58" height="4.79"/><rect class="cls-11" x="30.61" y="74.66" width="1.58" height="2.58"/><rect class="cls-12" x="33.4" y="73.55" width="1.58" height="4.79"/><rect class="cls-13" x="33.4" y="74.66" width="1.58" height="2.58"/><rect class="cls-10" x="19.51" y="73.55" width="1.58" height="4.79"/><rect class="cls-8" x="19.51" y="74.66" width="1.58" height="2.58"/><rect class="cls-10" x="16.78" y="73.55" width="1.58" height="4.79"/><rect class="cls-11" x="16.78" y="74.66" width="1.58" height="2.58"/><rect class="cls-10" x="14.08" y="73.55" width="1.58" height="4.79"/><rect class="cls-11" x="14.08" y="74.66" width="1.58" height="2.58"/><rect class="cls-10" x="11.6" y="73.55" width="1.58" height="4.79"/><rect class="cls-11" x="11.6" y="74.66" width="1.58" height="2.58"/><rect class="cls-10" x="22.3" y="73.55" width="1.58" height="4.79"/><rect class="cls-11" x="22.3" y="74.66" width="1.58" height="2.58"/><rect class="cls-12" x="25.09" y="73.55" width="1.58" height="4.79"/><rect class="cls-13" x="25.09" y="74.66" width="1.58" height="2.58"/><rect class="cls-8" x="26.55" y="14.11" width="11.71" height="11.71" transform="translate(52.36 -12.44) rotate(90)"/><rect class="cls-14" x="39.16" y="14.38" width="1.17" height="2.97" transform="translate(55.61 -23.88) rotate(90)"/><rect class="cls-14" x="39.16" y="22.58" width="1.17" height="2.97" transform="translate(63.81 -15.68) rotate(90)"/><rect class="cls-14" x="24.47" y="14.38" width="1.17" height="2.97" transform="translate(40.92 -9.2) rotate(90)"/><rect class="cls-14" x="24.47" y="22.58" width="1.17" height="2.97" transform="translate(49.12 -1) rotate(90)"/><circle class="cls-15" cx="32.4" cy="19.96" r="3.51"/><circle class="cls-16" cx="37.21" cy="15.28" r="0.75"/><circle class="cls-16" cx="37.21" cy="24.65" r="0.75"/><circle class="cls-16" cx="27.77" cy="15.28" r="0.75"/><circle class="cls-16" cx="27.77" cy="24.65" r="0.75"/><rect class="cls-8" x="26.55" y="43.95" width="11.71" height="11.71" transform="translate(82.21 17.4) rotate(90)"/><rect class="cls-14" x="39.16" y="44.22" width="1.17" height="2.97" transform="translate(85.45 5.97) rotate(90)"/><rect class="cls-14" x="39.16" y="52.42" width="1.17" height="2.97" transform="translate(93.65 14.17) rotate(90)"/><rect class="cls-14" x="24.47" y="44.22" width="1.17" height="2.97" transform="translate(70.77 20.65) rotate(90)"/><rect class="cls-14" x="24.47" y="52.42" width="1.17" height="2.97" transform="translate(78.97 28.85) rotate(90)"/><circle class="cls-15" cx="32.4" cy="49.81" r="3.51"/><circle class="cls-16" cx="37.21" cy="45.12" r="0.75"/><circle class="cls-16" cx="37.21" cy="54.5" r="0.75"/><circle class="cls-16" cx="27.77" cy="45.12" r="0.75"/><circle class="cls-16" cx="27.77" cy="54.5" r="0.75"/><rect class="cls-8" x="41.8" y="29.27" width="11.71" height="11.71" transform="translate(95.32 70.25) rotate(180)"/><rect class="cls-14" x="51.17" y="40.98" width="1.17" height="2.97" transform="translate(103.51 84.93) rotate(180)"/><rect class="cls-14" x="42.97" y="40.98" width="1.17" height="2.97" transform="translate(87.11 84.93) rotate(180)"/><rect class="cls-14" x="51.17" y="26.29" width="1.17" height="2.97" transform="translate(103.51 55.56) rotate(180)"/><rect class="cls-14" x="42.97" y="26.29" width="1.17" height="2.97" transform="translate(87.11 55.56) rotate(180)"/><circle class="cls-15" cx="47.66" cy="35.12" r="3.51"/><circle class="cls-16" cx="52.34" cy="39.93" r="0.75"/><circle class="cls-16" cx="42.97" cy="39.93" r="0.75"/><circle class="cls-16" cx="52.34" cy="30.49" r="0.75"/><circle class="cls-16" cx="42.97" cy="30.49" r="0.75"/><rect class="cls-8" x="11.47" y="29.27" width="11.71" height="11.71" transform="translate(34.65 70.25) rotate(180)"/><rect class="cls-14" x="20.83" y="40.98" width="1.17" height="2.97" transform="translate(42.84 84.93) rotate(180)"/><rect class="cls-14" x="12.63" y="40.98" width="1.17" height="2.97" transform="translate(26.44 84.93) rotate(180)"/><rect class="cls-14" x="20.83" y="26.29" width="1.17" height="2.97" transform="translate(42.84 55.56) rotate(180)"/><rect class="cls-14" x="12.63" y="26.29" width="1.17" height="2.97" transform="translate(26.44 55.56) rotate(180)"/><circle class="cls-15" cx="17.32" cy="35.12" r="3.51"/><circle class="cls-16" cx="22.01" cy="39.93" r="0.75"/><circle class="cls-16" cx="12.63" cy="39.93" r="0.75"/><circle class="cls-16" cx="22.01" cy="30.49" r="0.75"/><circle class="cls-16" cx="12.63" cy="30.49" r="0.75"/><polygon class="cls-8" points="33.6 30.98 34.03 31.14 33.22 33.43 32.78 33.28 33.6 30.98"/><polygon class="cls-8" points="31.15 30.98 30.71 31.14 31.57 33.43 32.01 33.28 31.15 30.98"/><g class="cls-17"><path class="cls-8" d="M32.4,36.72a2,2,0,1,0-2-2,2,2,0,0,0,2,2Zm0-3.49a1.48,1.48,0,1,1-1.48,1.48,1.48,1.48,0,0,1,1.48-1.48Zm0,0"/></g><g class="cls-18"><g class="cls-19"><path class="cls-8" d="M28,35.76l.7.12a3.93,3.93,0,0,0,.28.68l-.41.57a.61.61,0,0,0,.07.79l.62.62a.61.61,0,0,0,.43.18.6.6,0,0,0,.35-.11l.58-.41a3.89,3.89,0,0,0,.7.29l.12.69a.61.61,0,0,0,.6.51h.87a.61.61,0,0,0,.6-.51l.12-.7a3.83,3.83,0,0,0,.67-.28l.57.41a.61.61,0,0,0,.79-.07l.62-.62a.61.61,0,0,0,.07-.79l-.41-.58a3.83,3.83,0,0,0,.28-.68l.69-.12a.61.61,0,0,0,.51-.6v-.87a.61.61,0,0,0-.51-.6l-.7-.12a3.83,3.83,0,0,0-.28-.67l.41-.57a.61.61,0,0,0-.07-.79l-.62-.62a.61.61,0,0,0-.79-.07l-.58.41a3.92,3.92,0,0,0-.65-.27l-.12-.7a.61.61,0,0,0-.6-.51H32a.61.61,0,0,0-.6.51l-.12.7a3.92,3.92,0,0,0-.68.28L30,30.83a.61.61,0,0,0-.79.07l-.62.62a.61.61,0,0,0-.07.79l.41.58a3.89,3.89,0,0,0-.28.68l-.7.12a.61.61,0,0,0-.51.6v.87a.6.6,0,0,0,.51.6Zm0-1.48a.05.05,0,0,1,0-.05l.87-.15a.28.28,0,0,0,.22-.21A3.32,3.32,0,0,1,29.5,33a.28.28,0,0,0,0-.3L29,32a.06.06,0,0,1,0-.07l.62-.62,0,0h0l.72.51a.28.28,0,0,0,.3,0,3.32,3.32,0,0,1,.87-.36.27.27,0,0,0,.21-.22l.15-.87a.05.05,0,0,1,.05,0h.87a.05.05,0,0,1,.05,0l.14.87a.28.28,0,0,0,.21.22,3.44,3.44,0,0,1,.85.35.29.29,0,0,0,.14,0,.27.27,0,0,0,.16-.05l.72-.52h0l0,0,.62.62a.06.06,0,0,1,0,.07l-.51.71a.28.28,0,0,0,0,.31,3.28,3.28,0,0,1,.36.87.28.28,0,0,0,.22.2l.88.15a.05.05,0,0,1,0,.05v.87a.05.05,0,0,1,0,.05l-.86.14a.28.28,0,0,0-.23.21,3.31,3.31,0,0,1-.35.87.28.28,0,0,0,0,.3l.52.72a.06.06,0,0,1,0,.07l-.62.62,0,0h0l-.71-.51a.28.28,0,0,0-.31,0,3.29,3.29,0,0,1-.87.36.28.28,0,0,0-.2.22l-.15.88a.05.05,0,0,1-.05,0H32a.05.05,0,0,1-.05,0l-.14-.86a.28.28,0,0,0-.21-.23,3.36,3.36,0,0,1-.89-.36.28.28,0,0,0-.3,0l-.71.51h0l0,0L29,37.52a.06.06,0,0,1,0-.07l.51-.72a.28.28,0,0,0,0-.3,3.32,3.32,0,0,1-.36-.87.27.27,0,0,0-.22-.2L28,35.2a.05.05,0,0,1,0-.05v-.87Zm0,0"/></g></g></svg>