<svg id="Ebene_1" data-name="Ebene 1" xmlns="http://www.w3.org/2000/svg" xmlns:xlink="http://www.w3.org/1999/xlink" viewBox="0 0 64.49 118.47"><defs><style>.cls-1{fill:none;}.cls-2,.cls-4,.cls-6{fill:#d7d7d7;}.cls-2,.cls-7{fill-rule:evenodd;}.cls-3{fill:#2d2929;}.cls-5{fill:#ccae19;}.cls-6{stroke:#ccae19;stroke-width:0.5px;}.cls-6,.cls-7{stroke-miterlimit:10;}.cls-7{fill:#1d6bdd;stroke:#2d2929;}.cls-8{fill:#fff;}.cls-9{clip-path:url(#clip-path);}.cls-10{clip-path:url(#clip-path-2);}.cls-11{clip-path:url(#clip-path-3);}.cls-12{fill:#ccc;}</style><clipPath id="clip-path"><polygon class="cls-1" points="50.15 21.02 52.84 22.06 51.95 24.16 49.41 24.98 46.67 24.51 45.89 21.02 45.83 19 47.43 17.71 49.23 16.58 52.24 17.3 53.09 18.57 52.47 19.56 49.92 20.5 50.15 21.02"/></clipPath><clipPath id="clip-path-2"><polygon class="cls-1" points="50.04 21.02 52.74 22.06 51.85 24.16 49.3 24.98 46.56 24.51 45.78 21.02 45.73 19 47.33 17.71 49.12 16.58 52.13 17.3 52.98 18.57 52.36 19.56 49.81 20.5 50.04 21.02"/></clipPath><clipPath id="clip-path-3"><rect class="cls-1" x="46.2" y="17.45" width="6.57" height="6.56"/></clipPath></defs><title>Mesa de trabajo 1</title><path class="cls-2" d="M59.42,0H5.07A5.07,5.07,0,0,0,0,5.07V113.4a5.07,5.07,0,0,0,5.07,5.07H27.9a4.46,4.46,0,1,1,8.92,0h22.6a5.07,5.07,0,0,0,5.07-5.07V5.07A5.07,5.07,0,0,0,59.42,0Z"/><rect class="cls-3" x="-11.17" y="31.3" width="87" height="44.39" rx="6" ry="6" transform="translate(-21.17 85.82) rotate(-90)"/><circle class="cls-4" cx="49.55" cy="41.86" r="4.44"/><path class="cls-5" d="M49.55,38.42a3.44,3.44,0,1,1-3.44,3.44,3.44,3.44,0,0,1,3.44-3.44m0-1A4.44,4.44,0,1,0,54,41.86a4.44,4.44,0,0,0-4.44-4.44Z"/><circle class="cls-4" cx="49.55" cy="66.97" r="4.44"/><path class="cls-5" d="M49.55,63.53A3.44,3.44,0,1,1,46.11,67a3.44,3.44,0,0,1,3.44-3.44m0-1A4.44,4.44,0,1,0,54,67a4.44,4.44,0,0,0-4.44-4.44Z"/><circle class="cls-4" cx="16.63" cy="84.56" r="1.05"/><path class="cls-5" d="M16.63,83.75a.8.8,0,1,1-.8.8.8.8,0,0,1,.8-.8m0-.5a1.3,1.3,0,1,0,1.3,1.3,1.3,1.3,0,0,0-1.3-1.3Z"/><circle class="cls-4" cx="16.63" cy="88.28" r="1.05"/><path class="cls-5" d="M16.63,87.48a.8.8,0,1,1-.8.8.8.8,0,0,1,.8-.8m0-.5a1.3,1.3,0,1,0,1.3,1.3,1.3,1.3,0,0,0-1.3-1.3Z"/><circle class="cls-4" cx="16.63" cy="80.83" r="1.05"/><path class="cls-5" d="M16.63,80a.8.8,0,1,1-.8.8.8.8,0,0,1,.8-.8m0-.5a1.3,1.3,0,1,0,1.3,1.3,1.3,1.3,0,0,0-1.3-1.3Z"/><rect class="cls-6" x="15.63" y="91.19" width="2" height="2"/><path class="cls-7" d="M21.88,86v14.6a2.54,2.54,0,0,0,2.54,2.54h16a2.54,2.54,0,0,0,2.54-2.54V86Z"/><polygon class="cls-8" points="51.95 21.52 51.84 21.81 50.33 21.27 50.43 20.98 51.95 21.52"/><polygon class="cls-8" points="51.95 19.9 51.84 19.61 50.33 20.18 50.43 20.47 51.95 19.9"/><g class="cls-9"><path class="cls-8" d="M48.15,20.73a1.33,1.33,0,1,0,1.33-1.33,1.33,1.33,0,0,0-1.33,1.33Zm2.31,0a1,1,0,1,1-1-1,1,1,0,0,1,1,1Zm0,0"/></g><g class="cls-10"><g class="cls-11"><path class="cls-8" d="M48.79,17.79l-.08.46a2.6,2.6,0,0,0-.45.19l-.38-.27a.4.4,0,0,0-.52,0l-.41.41a.4.4,0,0,0-.12.29.4.4,0,0,0,.08.23l.27.38A2.57,2.57,0,0,0,47,20l-.45.08a.4.4,0,0,0-.34.4V21a.4.4,0,0,0,.34.4l.47.08a2.53,2.53,0,0,0,.19.45l-.27.38a.4.4,0,0,0,0,.52l.41.41a.41.41,0,0,0,.52,0l.39-.27a2.53,2.53,0,0,0,.45.18l.08.45a.4.4,0,0,0,.4.34h.58a.4.4,0,0,0,.4-.34l.08-.47a2.54,2.54,0,0,0,.45-.19l.38.27a.4.4,0,0,0,.52,0l.41-.41a.4.4,0,0,0,0-.52l-.27-.39A2.59,2.59,0,0,0,52,21.5l.46-.08a.4.4,0,0,0,.34-.4v-.58a.4.4,0,0,0-.34-.4L52,20a2.6,2.6,0,0,0-.19-.45l.27-.38a.4.4,0,0,0,0-.52l-.41-.41a.41.41,0,0,0-.52,0l-.38.27a2.57,2.57,0,0,0-.45-.19l-.08-.46a.4.4,0,0,0-.4-.34h-.58a.4.4,0,0,0-.4.34Zm1,0a0,0,0,0,1,0,0l.1.58a.18.18,0,0,0,.14.15,2.2,2.2,0,0,1,.57.24.19.19,0,0,0,.2,0l.48-.34a0,0,0,0,1,0,0l.41.41a0,0,0,0,1,0,0v0l-.34.48a.19.19,0,0,0,0,.2,2.19,2.19,0,0,1,.24.57.18.18,0,0,0,.15.14l.58.1a0,0,0,0,1,0,0V21a0,0,0,0,1,0,0l-.58.1a.18.18,0,0,0-.15.14,2.28,2.28,0,0,1-.23.56.19.19,0,0,0,0,.09.18.18,0,0,0,0,.11l.34.48v0a0,0,0,0,1,0,0l-.41.41a0,0,0,0,1,0,0l-.47-.34a.19.19,0,0,0-.2,0,2.17,2.17,0,0,1-.57.24.19.19,0,0,0-.14.15l-.1.58a0,0,0,0,1,0,0h-.58a0,0,0,0,1,0,0l-.1-.57a.19.19,0,0,0-.14-.15,2.19,2.19,0,0,1-.58-.23.18.18,0,0,0-.2,0l-.48.34a0,0,0,0,1,0,0l-.41-.41a0,0,0,0,1,0,0v0l.34-.47a.19.19,0,0,0,0-.2,2.17,2.17,0,0,1-.24-.57.19.19,0,0,0-.15-.14l-.58-.1a0,0,0,0,1,0,0v-.58a0,0,0,0,1,0,0l.57-.1a.19.19,0,0,0,.15-.14,2.22,2.22,0,0,1,.24-.59.19.19,0,0,0,0-.2l-.34-.47v0a0,0,0,0,1,0,0l.41-.41a0,0,0,0,1,0,0l.48.34a.19.19,0,0,0,.2,0,2.19,2.19,0,0,1,.57-.24.18.18,0,0,0,.14-.15l.1-.58a0,0,0,0,1,0,0h.58Zm0,0"/></g></g><rect x="12.84" y="13.37" width="30" height="61.34"/><path class="cls-12" d="M27.11,25.6V17.87c0-.42.56-.84.56-.84h.1s.56.41.56.84V25.6c0,.4-.56.86-.56.86h-.09A2,2,0,0,1,27.11,25.6Z"/><path class="cls-12" d="M17.06,24.69V26.4a.23.23,0,0,0,.13.23c.2,0,1-1,1-1.1a1.16,1.16,0,0,0,0-.36v-.58"/><path class="cls-12" d="M17.06,25V17.11a.23.23,0,0,1,.13-.23c.2,0,1,1,1,1.1a1.16,1.16,0,0,1,0,.36v6.55"/><path class="cls-12" d="M19.61,16.27H17.9a.23.23,0,0,0-.23.13c0,.2,1,1,1.1,1a1.16,1.16,0,0,0,.36,0h.58"/><path class="cls-12" d="M19.28,16.27h7.91a.23.23,0,0,1,.23.13c0,.2-1,1-1.1,1a1.16,1.16,0,0,1-.36,0H19.4"/><path class="cls-12" d="M30,16.27H28.25a.23.23,0,0,0-.23.13c0,.2,1,1,1.1,1a1.16,1.16,0,0,0,.36,0h.58"/><path class="cls-12" d="M29.63,16.27h7.91a.23.23,0,0,1,.23.13c0,.2-1,1-1.1,1a1.16,1.16,0,0,1-.36,0H29.76"/><path class="cls-12" d="M35.83,27.15h1.71a.23.23,0,0,0,.23-.13c0-.2-1-1-1.1-1a1.16,1.16,0,0,0-.36,0h-.58"/><path class="cls-12" d="M36.16,27.15H28.25A.23.23,0,0,1,28,27c0-.2,1-1,1.1-1a1.16,1.16,0,0,1,.36,0H36"/><path class="cls-12" d="M25.48,27.15h1.71a.23.23,0,0,0,.23-.13c0-.2-1-1-1.1-1a1.16,1.16,0,0,0-.36,0h-.58"/><path class="cls-12" d="M25.81,27.15H17.9a.23.23,0,0,1-.23-.13c0-.2,1-1,1.1-1a1.16,1.16,0,0,1,.36,0h6.55"/><path class="cls-12" d="M38.38,18.71V17a.23.23,0,0,0-.13-.23c-.2,0-1,1-1,1.1a1.16,1.16,0,0,0,0,.36v.58"/><path class="cls-12" d="M38.38,18.38v7.91a.23.23,0,0,1-.13.23c-.2,0-1-1-1-1.1a1.16,1.16,0,0,1,0-.36V18.51"/><circle class="cls-12" cx="17.35" cy="27.99" r="0.65" transform="translate(-13.62 16.8) rotate(-38.35)"/><path class="cls-12" d="M27.11,40.18V32.45c0-.42.56-.84.56-.84h.1s.56.41.56.84v7.74c0,.4-.56.86-.56.86h-.09A2,2,0,0,1,27.11,40.18Z"/><path class="cls-12" d="M17.06,39.27V41a.23.23,0,0,0,.13.23c.2,0,1-1,1-1.1a1.16,1.16,0,0,0,0-.36v-.58"/><path class="cls-12" d="M17.06,39.6V31.69a.23.23,0,0,1,.13-.23c.2,0,1,1,1,1.1a1.16,1.16,0,0,1,0,.36v6.55"/><path class="cls-12" d="M19.61,30.85H17.9a.23.23,0,0,0-.23.13c0,.2,1,1,1.1,1a1.16,1.16,0,0,0,.36,0h.58"/><path class="cls-12" d="M19.28,30.85h7.91a.23.23,0,0,1,.23.13c0,.2-1,1-1.1,1a1.16,1.16,0,0,1-.36,0H19.4"/><path class="cls-12" d="M30,30.85H28.25A.23.23,0,0,0,28,31c0,.2,1,1,1.1,1a1.16,1.16,0,0,0,.36,0h.58"/><path class="cls-12" d="M29.63,30.85h7.91a.23.23,0,0,1,.23.13c0,.2-1,1-1.1,1a1.16,1.16,0,0,1-.36,0H29.76"/><path class="cls-12" d="M35.83,41.73h1.71a.23.23,0,0,0,.23-.13c0-.2-1-1-1.1-1a1.16,1.16,0,0,0-.36,0h-.58"/><path class="cls-12" d="M36.16,41.73H28.25A.23.23,0,0,1,28,41.6c0-.2,1-1,1.1-1a1.16,1.16,0,0,1,.36,0H36"/><path class="cls-12" d="M25.48,41.73h1.71a.23.23,0,0,0,.23-.13c0-.2-1-1-1.1-1a1.16,1.16,0,0,0-.36,0h-.58"/><path class="cls-12" d="M25.81,41.73H17.9a.23.23,0,0,1-.23-.13c0-.2,1-1,1.1-1a1.16,1.16,0,0,1,.36,0h6.55"/><path class="cls-12" d="M38.38,33.29V31.58a.23.23,0,0,0-.13-.23c-.2,0-1,1-1,1.1a1.16,1.16,0,0,0,0,.36v.58"/><path class="cls-12" d="M38.38,33v7.91a.23.23,0,0,1-.13.23c-.2,0-1-1-1-1.1a1.16,1.16,0,0,1,0-.36V33.09"/><circle class="cls-12" cx="17.35" cy="42.57" r="0.65" transform="translate(-22.67 19.95) rotate(-38.35)"/><path class="cls-12" d="M27.11,54.76V47c0-.42.56-.84.56-.84h.1s.56.41.56.84v7.74c0,.4-.56.86-.56.86h-.09A2,2,0,0,1,27.11,54.76Z"/><path class="cls-12" d="M17.06,53.85v1.71a.23.23,0,0,0,.13.23c.2,0,1-1,1-1.1a1.16,1.16,0,0,0,0-.36v-.58"/><path class="cls-12" d="M17.06,54.18V46.27a.23.23,0,0,1,.13-.23c.2,0,1,1,1,1.1a1.16,1.16,0,0,1,0,.36v6.55"/><path class="cls-12" d="M19.61,45.43H17.9a.23.23,0,0,0-.23.13c0,.2,1,1,1.1,1a1.16,1.16,0,0,0,.36,0h.58"/><path class="cls-12" d="M19.28,45.43h7.91a.23.23,0,0,1,.23.13c0,.2-1,1-1.1,1a1.16,1.16,0,0,1-.36,0H19.4"/><path class="cls-12" d="M30,45.43H28.25a.23.23,0,0,0-.23.13c0,.2,1,1,1.1,1a1.16,1.16,0,0,0,.36,0h.58"/><path class="cls-12" d="M29.63,45.43h7.91a.23.23,0,0,1,.23.13c0,.2-1,1-1.1,1a1.16,1.16,0,0,1-.36,0H29.76"/><path class="cls-12" d="M35.83,56.31h1.71a.23.23,0,0,0,.23-.13c0-.2-1-1-1.1-1a1.16,1.16,0,0,0-.36,0h-.58"/><path class="cls-12" d="M36.16,56.31H28.25a.23.23,0,0,1-.23-.13c0-.2,1-1,1.1-1a1.16,1.16,0,0,1,.36,0H36"/><path class="cls-12" d="M25.48,56.31h1.71a.23.23,0,0,0,.23-.13c0-.2-1-1-1.1-1a1.16,1.16,0,0,0-.36,0h-.58"/><path class="cls-12" d="M25.81,56.31H17.9a.23.23,0,0,1-.23-.13c0-.2,1-1,1.1-1a1.16,1.16,0,0,1,.36,0h6.55"/><path class="cls-12" d="M38.38,47.87V46.16a.23.23,0,0,0-.13-.23c-.2,0-1,1-1,1.1a1.16,1.16,0,0,0,0,.36V48"/><path class="cls-12" d="M38.38,47.54v7.91a.23.23,0,0,1-.13.23c-.2,0-1-1-1-1.1a1.16,1.16,0,0,1,0-.36V47.67"/><circle class="cls-12" cx="17.35" cy="57.15" r="0.65" transform="translate(-31.72 23.1) rotate(-38.35)"/><path class="cls-12" d="M27.11,69.34V61.61c0-.42.56-.84.56-.84h.1s.56.41.56.84v7.74c0,.4-.56.86-.56.86h-.09A2,2,0,0,1,27.11,69.34Z"/><path class="cls-12" d="M17.06,68.43v1.71a.23.23,0,0,0,.13.23c.2,0,1-1,1-1.1a1.16,1.16,0,0,0,0-.36v-.58"/><path class="cls-12" d="M17.06,68.76V60.85a.23.23,0,0,1,.13-.23c.2,0,1,1,1,1.1a1.16,1.16,0,0,1,0,.36v6.55"/><path class="cls-12" d="M19.61,60H17.9a.23.23,0,0,0-.23.13c0,.2,1,1,1.1,1a1.16,1.16,0,0,0,.36,0h.58"/><path class="cls-12" d="M19.28,60h7.91a.23.23,0,0,1,.23.13c0,.2-1,1-1.1,1a1.16,1.16,0,0,1-.36,0H19.4"/><path class="cls-12" d="M30,60H28.25a.23.23,0,0,0-.23.13c0,.2,1,1,1.1,1a1.16,1.16,0,0,0,.36,0h.58"/><path class="cls-12" d="M29.63,60h7.91a.23.23,0,0,1,.23.13c0,.2-1,1-1.1,1a1.16,1.16,0,0,1-.36,0H29.76"/><path class="cls-12" d="M35.83,70.89h1.71a.23.23,0,0,0,.23-.13c0-.2-1-1-1.1-1a1.16,1.16,0,0,0-.36,0h-.58"/><path class="cls-12" d="M36.16,70.89H28.25a.23.23,0,0,1-.23-.13c0-.2,1-1,1.1-1a1.16,1.16,0,0,1,.36,0H36"/><path class="cls-12" d="M25.48,70.89h1.71a.23.23,0,0,0,.23-.13c0-.2-1-1-1.1-1a1.16,1.16,0,0,0-.36,0h-.58"/><path class="cls-12" d="M25.81,70.89H17.9a.23.23,0,0,1-.23-.13c0-.2,1-1,1.1-1a1.16,1.16,0,0,1,.36,0h6.55"/><path class="cls-12" d="M38.38,62.45V60.74a.23.23,0,0,0-.13-.23c-.2,0-1,1-1,1.1a1.16,1.16,0,0,0,0,.36v.58"/><path class="cls-12" d="M38.38,62.12V70a.23.23,0,0,1-.13.23c-.2,0-1-1-1-1.1a1.16,1.16,0,0,1,0-.36V62.25"/><circle class="cls-12" cx="17.35" cy="71.72" r="0.65" transform="translate(-40.76 26.24) rotate(-38.35)"/></svg>