<?xml version="1.0" encoding="utf-8"?>
<!-- Generator: Adobe Illustrator 19.1.0, SVG Export Plug-In . SVG Version: 6.00 Build 0)  -->
<svg version="1.1" id="Ebene_1" xmlns:rdf="http://www.w3.org/1999/02/22-rdf-syntax-ns#" xmlns:svg="http://www.w3.org/2000/svg" xmlns:cc="http://creativecommons.org/ns#" xmlns:dc="http://purl.org/dc/elements/1.1/" xmlns="http://www.w3.org/2000/svg" xmlns:xlink="http://www.w3.org/1999/xlink" x="0px" y="0px" width="134.5px" height="106.2px" viewBox="-601.3 359.1 134.5 106.2" enable-background="new -601.3 359.1 134.5 106.2" xml:space="preserve">
    <path fill-rule="evenodd" clip-rule="evenodd" fill="#D7D7D7" d="M-471.9,359.1h-124.3c-2.8,0-5.1,2.3-5.1,5.1v96
    c0,2.8,2.3,5.1,5.1,5.1h57.8c0-2.5,2-4.5,4.5-4.5c2.5,0,4.5,2,4.5,4.5h57.6c2.8,0,5.1-2.3,5.1-5.1v-96
    C-466.8,361.4-469.1,359.1-471.9,359.1z" />
    <g>
        <g>
            <path fill="#2D2929" d="M-485.8,413.5h-96.2c-3.3,0-6-2.7-6-6v-32.4c0-3.3,2.7-6,6-6h96.2c3.3,0,6,2.7,6,6v32.4
            C-479.8,410.8-482.5,413.5-485.8,413.5z" />
            <path fill="#2D2929" d="M-515.1,434.9H-553c-2.1,0-3-2.1-4.2-3.8l-25.4-35.2c0-2.1,27.1-3.8,29.2-3.8h39c2.1,0,29.2,1.7,29.2,3.8
            l-25.4,35.2C-512.3,432.8-513.1,434.9-515.1,434.9z" />
        </g>
        <circle fill-rule="evenodd" clip-rule="evenodd" fill="#D7D7D7" cx="-548.3" cy="428.1" r="4.4" />
        <circle fill-rule="evenodd" clip-rule="evenodd" fill="#D7D7D7" cx="-533.9" cy="428.1" r="4.4" />
        <circle fill-rule="evenodd" clip-rule="evenodd" fill="#D7D7D7" cx="-520" cy="428.1" r="4.4" />
        <g>
            <path fill="#CCAE19" d="M-548.3,424.6c1.9,0,3.4,1.5,3.4,3.4s-1.5,3.4-3.4,3.4s-3.4-1.5-3.4-3.4S-550.2,424.6-548.3,424.6
             M-548.3,423.6c-2.5,0-4.4,2-4.4,4.4s2,4.4,4.4,4.4s4.4-2,4.4-4.4S-545.9,423.6-548.3,423.6L-548.3,423.6z" />
        </g>
        <g>
            <path fill="#CCAE19" d="M-533.9,424.6c1.9,0,3.4,1.5,3.4,3.4s-1.5,3.4-3.4,3.4c-1.9,0-3.4-1.5-3.4-3.4S-535.8,424.6-533.9,424.6
             M-533.9,423.6c-2.5,0-4.4,2-4.4,4.4s2,4.4,4.4,4.4c2.5,0,4.4-2,4.4-4.4S-531.5,423.6-533.9,423.6L-533.9,423.6z" />
        </g>
        <g>
            <path fill="#CCAE19" d="M-520,424.6c1.9,0,3.4,1.5,3.4,3.4s-1.5,3.4-3.4,3.4s-3.4-1.5-3.4-3.4S-521.9,424.6-520,424.6 M-520,423.6
            c-2.5,0-4.4,2-4.4,4.4s2,4.4,4.4,4.4s4.4-2,4.4-4.4S-517.5,423.6-520,423.6L-520,423.6z" />
        </g>
        <g>
            <g>
                <path fill-rule="evenodd" clip-rule="evenodd" fill="#D7D7D7" d="M-564.1,407.4c-8.5,0-15.4-6.9-15.4-15.4s6.9-15.4,15.4-15.4
                s15.4,6.9,15.4,15.4S-555.7,407.4-564.1,407.4z" />
                <path fill="#C4C4C4" d="M-564.1,377.2c8.2,0,14.9,6.7,14.9,14.9s-6.7,14.9-14.9,14.9c-8.2,0-14.9-6.7-14.9-14.9
                S-572.3,377.2-564.1,377.2 M-564.1,376.2c-8.8,0-15.9,7.1-15.9,15.9s7.1,15.9,15.9,15.9s15.9-7.1,15.9-15.9
                S-555.4,376.2-564.1,376.2L-564.1,376.2z" />
            </g>
            <g>
                <circle fill-rule="evenodd" clip-rule="evenodd" fill="#3D3737" cx="-564.1" cy="392.1" r="13.7" />
            </g>
            <g>
                <circle fill-rule="evenodd" clip-rule="evenodd" fill="#666060" cx="-564.1" cy="392.1" r="10.4" />
            </g>
            <g>
                <circle fill-rule="evenodd" clip-rule="evenodd" fill="#332F2F" cx="-564.1" cy="391.7" r="6.4" />
            </g>
        </g>
        <g>
            <g>
                <path fill-rule="evenodd" clip-rule="evenodd" fill="#D7D7D7" d="M-503.3,407.4c-8.5,0-15.4-6.9-15.4-15.4s6.9-15.4,15.4-15.4
                s15.4,6.9,15.4,15.4S-494.8,407.4-503.3,407.4z" />
                <path fill="#C4C4C4" d="M-503.3,377.2c8.2,0,14.9,6.7,14.9,14.9s-6.7,14.9-14.9,14.9s-14.9-6.7-14.9-14.9
                S-511.4,377.2-503.3,377.2 M-503.3,376.2c-8.8,0-15.9,7.1-15.9,15.9s7.1,15.9,15.9,15.9c8.8,0,15.9-7.1,15.9-15.9
                S-494.5,376.2-503.3,376.2L-503.3,376.2z" />
            </g>
            <g>
                <circle fill-rule="evenodd" clip-rule="evenodd" fill="#3D3737" cx="-503.3" cy="392.1" r="13.7" />
            </g>
            <g>
                <circle fill-rule="evenodd" clip-rule="evenodd" fill="#666060" cx="-503.3" cy="392.1" r="10.4" />
            </g>
            <g>
                <circle fill-rule="evenodd" clip-rule="evenodd" fill="#332F2F" cx="-503.3" cy="391.7" r="6.4" />
            </g>
        </g>
        <g>
            <circle fill-rule="evenodd" clip-rule="evenodd" fill="#D19826" cx="-537.4" cy="408.1" r="1.3" />
            <circle fill-rule="evenodd" clip-rule="evenodd" fill="#D19826" cx="-533.6" cy="408.1" r="1.3" />
            <circle fill-rule="evenodd" clip-rule="evenodd" fill="#D19826" cx="-529.7" cy="408.1" r="1.3" />
        </g>
        <g>
            <circle fill-rule="evenodd" clip-rule="evenodd" fill="#A3A099" cx="-538.8" cy="404.1" r="1.3" />
            <circle fill-rule="evenodd" clip-rule="evenodd" fill="#A3A099" cx="-534.9" cy="404.1" r="1.3" />
            <circle fill-rule="evenodd" clip-rule="evenodd" fill="#A3A099" cx="-531.1" cy="404.1" r="1.3" />
        </g>
        <g>
            <circle fill-rule="evenodd" clip-rule="evenodd" fill="#A3A099" cx="-536.8" cy="400.1" r="1.3" />
            <circle fill-rule="evenodd" clip-rule="evenodd" fill="#A3A099" cx="-532.9" cy="400.1" r="1.3" />
            <circle fill-rule="evenodd" clip-rule="evenodd" fill="#A3A099" cx="-529.1" cy="400.1" r="1.3" />
        </g>
        <text transform="matrix(1 0 0 1 -548.2845 380.3874)" fill="#E2E1E0" font-family="'AkkuratMonoPro-Regular'" font-size="5px">Ultrasonic</text>
        <g>
            <path fill-rule="evenodd" clip-rule="evenodd" fill="#EAC924" d="M-541.6,450.5c-1.1,0-2-0.9-2-2v-14.1h20.1v14.1c0,1.1-0.9,2-2,2
            H-541.6z" />
            <path fill="#2D2929" d="M-524.1,434.9v13.6c0,0.8-0.7,1.5-1.5,1.5h-16c-0.8,0-1.5-0.7-1.5-1.5v-13.6H-524.1 M-523.1,433.9h-21.1
            v14.6c0,1.4,1.1,2.5,2.5,2.5h16c1.4,0,2.5-1.1,2.5-2.5V433.9L-523.1,433.9z" />
        </g>
    </g>
</svg>