<?xml version="1.0" encoding="utf-8"?>
<!-- Generator: Adobe Illustrator 19.1.0, SVG Export Plug-In . SVG Version: 6.00 Build 0)  -->
<svg version="1.1" id="Ebene_1" xmlns:rdf="http://www.w3.org/1999/02/22-rdf-syntax-ns#" xmlns:svg="http://www.w3.org/2000/svg" xmlns:cc="http://creativecommons.org/ns#" xmlns:dc="http://purl.org/dc/elements/1.1/" xmlns="http://www.w3.org/2000/svg" xmlns:xlink="http://www.w3.org/1999/xlink" x="0px" y="0px" width="84.5px" height="128px" viewBox="-576.3 337.3 84.5 128" enable-background="new -576.3 337.3 84.5 128" xml:space="preserve">
    <path fill-rule="evenodd" clip-rule="evenodd" fill="#D7D7D7" d="M-496.9,337.3h-74.3c-2.8,0-5.1,2.3-5.1,5.1v117.9
    c0,2.8,2.3,5.1,5.1,5.1h32.8c0-2.5,2-4.5,4.5-4.5c2.5,0,4.5,2,4.5,4.5h32.6c2.8,0,5.1-2.3,5.1-5.1V342.3
    C-491.8,339.5-494.1,337.3-496.9,337.3z" />
    <g>
        <g>
            <path fill="#2D2929" d="M-511.7,353.8v75c0,3.3-2.7,6-6,6h-32.4c-3.3,0-6-2.7-6-6v-75c0-3.3,2.7-6,6-6h32.4
            C-514.4,347.8-511.7,350.5-511.7,353.8z" />
        </g>
        <g>
            <circle fill-rule="evenodd" clip-rule="evenodd" fill="#D7D7D7" cx="-549.4" cy="405.5" r="4.4" />
            <circle fill-rule="evenodd" clip-rule="evenodd" fill="#D7D7D7" cx="-549.4" cy="391.2" r="4.4" />
            <circle fill-rule="evenodd" clip-rule="evenodd" fill="#D7D7D7" cx="-549.4" cy="377.2" r="4.4" />
            <g>
                <path fill="#CCAE19" d="M-549.4,402.1c1.9,0,3.4,1.5,3.4,3.4c0,1.9-1.5,3.4-3.4,3.4s-3.4-1.5-3.4-3.4
                C-552.8,403.6-551.3,402.1-549.4,402.1 M-549.4,401.1c-2.5,0-4.4,2-4.4,4.4s2,4.4,4.4,4.4s4.4-2,4.4-4.4S-547,401.1-549.4,401.1
                L-549.4,401.1z" />
            </g>
            <g>
                <path fill="#CCAE19" d="M-549.4,387.7c1.9,0,3.4,1.5,3.4,3.4c0,1.9-1.5,3.4-3.4,3.4s-3.4-1.5-3.4-3.4
                C-552.8,389.3-551.3,387.7-549.4,387.7 M-549.4,386.7c-2.5,0-4.4,2-4.4,4.4c0,2.5,2,4.4,4.4,4.4s4.4-2,4.4-4.4
                C-545,388.7-547,386.7-549.4,386.7L-549.4,386.7z" />
            </g>
            <g>
                <path fill="#CCAE19" d="M-549.4,373.8c1.9,0,3.4,1.5,3.4,3.4c0,1.9-1.5,3.4-3.4,3.4s-3.4-1.5-3.4-3.4
                C-552.8,375.3-551.3,373.8-549.4,373.8 M-549.4,372.8c-2.5,0-4.4,2-4.4,4.4s2,4.4,4.4,4.4s4.4-2,4.4-4.4S-547,372.8-549.4,372.8
                L-549.4,372.8z" />
            </g>
        </g>
        <g>
            <circle fill-rule="evenodd" clip-rule="evenodd" fill="#D7D7D7" cx="-518.4" cy="405.5" r="4.4" />
            <circle fill-rule="evenodd" clip-rule="evenodd" fill="#D7D7D7" cx="-518.4" cy="391.2" r="4.4" />
            <circle fill-rule="evenodd" clip-rule="evenodd" fill="#D7D7D7" cx="-518.4" cy="377.2" r="4.4" />
            <g>
                <path fill="#CCAE19" d="M-518.4,402.1c1.9,0,3.4,1.5,3.4,3.4c0,1.9-1.5,3.4-3.4,3.4c-1.9,0-3.4-1.5-3.4-3.4
                C-521.8,403.6-520.3,402.1-518.4,402.1 M-518.4,401.1c-2.5,0-4.4,2-4.4,4.4s2,4.4,4.4,4.4s4.4-2,4.4-4.4S-516,401.1-518.4,401.1
                L-518.4,401.1z" />
            </g>
            <g>
                <path fill="#CCAE19" d="M-518.4,387.7c1.9,0,3.4,1.5,3.4,3.4c0,1.9-1.5,3.4-3.4,3.4c-1.9,0-3.4-1.5-3.4-3.4
                C-521.8,389.3-520.3,387.7-518.4,387.7 M-518.4,386.7c-2.5,0-4.4,2-4.4,4.4c0,2.5,2,4.4,4.4,4.4s4.4-2,4.4-4.4
                C-514,388.7-516,386.7-518.4,386.7L-518.4,386.7z" />
            </g>
            <g>
                <path fill="#CCAE19" d="M-518.4,373.8c1.9,0,3.4,1.5,3.4,3.4c0,1.9-1.5,3.4-3.4,3.4c-1.9,0-3.4-1.5-3.4-3.4
                C-521.8,375.3-520.3,373.8-518.4,373.8 M-518.4,372.8c-2.5,0-4.4,2-4.4,4.4s2,4.4,4.4,4.4s4.4-2,4.4-4.4S-516,372.8-518.4,372.8
                L-518.4,372.8z" />
            </g>
        </g>
        <g>
            <g>
                <circle fill-rule="evenodd" clip-rule="evenodd" fill="#D7D7D7" cx="-551.1" cy="425.3" r="1.1" />
                <path fill="#CCAE19" d="M-551.1,424.5c0.4,0,0.8,0.4,0.8,0.8s-0.4,0.8-0.8,0.8c-0.4,0-0.8-0.4-0.8-0.8S-551.6,424.5-551.1,424.5
                 M-551.1,424c-0.7,0-1.3,0.6-1.3,1.3s0.6,1.3,1.3,1.3c0.7,0,1.3-0.6,1.3-1.3S-550.4,424-551.1,424L-551.1,424z" />
            </g>
            <g>
                <circle fill-rule="evenodd" clip-rule="evenodd" fill="#D7D7D7" cx="-551.1" cy="429.1" r="1.1" />
                <path fill="#CCAE19" d="M-551.1,428.3c0.4,0,0.8,0.4,0.8,0.8s-0.4,0.8-0.8,0.8c-0.4,0-0.8-0.4-0.8-0.8S-551.6,428.3-551.1,428.3
                 M-551.1,427.8c-0.7,0-1.3,0.6-1.3,1.3s0.6,1.3,1.3,1.3c0.7,0,1.3-0.6,1.3-1.3S-550.4,427.8-551.1,427.8L-551.1,427.8z" />
            </g>
            <g>
                <circle fill-rule="evenodd" clip-rule="evenodd" fill="#D7D7D7" cx="-551.1" cy="421.6" r="1.1" />
                <path fill="#CCAE19" d="M-551.1,420.8c0.4,0,0.8,0.4,0.8,0.8s-0.4,0.8-0.8,0.8c-0.4,0-0.8-0.4-0.8-0.8S-551.6,420.8-551.1,420.8
                 M-551.1,420.3c-0.7,0-1.3,0.6-1.3,1.3s0.6,1.3,1.3,1.3c0.7,0,1.3-0.6,1.3-1.3S-550.4,420.3-551.1,420.3L-551.1,420.3z" />
            </g>
            <g>
                <rect x="-552.2" y="416.8" fill-rule="evenodd" clip-rule="evenodd" fill="#D7D7D7" width="2.1" height="2.1" />
                <g>
                    <path fill="#CCAE19" d="M-550.3,417.1v1.6h-1.6v-1.6H-550.3 M-549.8,416.6h-2.6v2.6h2.6V416.6L-549.8,416.6z" />
                </g>
            </g>
        </g>
        <g>
            <circle fill-rule="evenodd" clip-rule="evenodd" fill="#A3A099" cx="-535.8" cy="430.7" r="1" />
            <circle fill-rule="evenodd" clip-rule="evenodd" fill="#A3A099" cx="-532.9" cy="430.7" r="1" />
            <circle fill-rule="evenodd" clip-rule="evenodd" fill="#A3A099" cx="-530.1" cy="430.7" r="1" />
        </g>
        <text transform="matrix(0 -1 1 -1.188887e-15 -532.9333 416.4902)" fill="#E2E1E0" font-family="'AkkuratMonoPro-Regular'" font-size="6px">Line Follower</text>
        <g>
            <circle fill-rule="evenodd" clip-rule="evenodd" fill="#A3A099" cx="-537.8" cy="426.7" r="1" />
            <circle fill-rule="evenodd" clip-rule="evenodd" fill="#A3A099" cx="-534.9" cy="426.7" r="1" />
            <circle fill-rule="evenodd" clip-rule="evenodd" fill="#A3A099" cx="-532.1" cy="426.7" r="1" />
        </g>
        <g>
            <path fill-rule="evenodd" clip-rule="evenodd" fill="#1D6BDD" d="M-541.9,450.4c-1.1,0-2-0.9-2-2v-14.1h20.1v14.1c0,1.1-0.9,2-2,2
            H-541.9z" />
            <path fill="#2D2929" d="M-524.4,434.8v13.6c0,0.8-0.7,1.5-1.5,1.5h-16c-0.8,0-1.5-0.7-1.5-1.5v-13.6H-524.4 M-523.4,433.8h-21.1
            v14.6c0,1.4,1.1,2.5,2.5,2.5h16c1.4,0,2.5-1.1,2.5-2.5V433.8L-523.4,433.8z" />
        </g>
        <g>
            <g>
                <rect x="-549.6" y="346.6" fill-rule="evenodd" clip-rule="evenodd" fill="#232323" width="10.8" height="19.5" />
                <path fill="#3D3D3D" d="M-539.4,347.1v18.5h-9.8v-18.5H-539.4 M-538.4,346.1h-11.8v20.5h11.8V346.1L-538.4,346.1z" />
            </g>
            <g>
                <circle fill-rule="evenodd" clip-rule="evenodd" fill="#545454" cx="-544.2" cy="360.6" r="4.1" />
                <circle fill-rule="evenodd" clip-rule="evenodd" fill="#2D2D2C" cx="-544.2" cy="360.6" r="3.2" />
                <circle fill-rule="evenodd" clip-rule="evenodd" fill="#424242" cx="-543.9" cy="360.3" r="2.9" />
                <path fill-rule="evenodd" clip-rule="evenodd" fill="#5E5E5E" d="M-545.1,359.2c0.3-0.2,0.6-0.3,0.9-0.3c0.9,0,1.7,0.8,1.7,1.7
                c0,0.4-0.1,0.7-0.3,1c0.5-0.3,0.8-0.8,0.8-1.4c0-0.9-0.8-1.7-1.7-1.7C-544.3,358.4-544.8,358.7-545.1,359.2z" />
            </g>
            <g>
                <circle fill-rule="evenodd" clip-rule="evenodd" fill="#FFFFFF" cx="-544.2" cy="352" r="4.1" />
                <circle fill-rule="evenodd" clip-rule="evenodd" fill="#E0E0DE" cx="-544.3" cy="352" r="3.2" />
                <circle fill-rule="evenodd" clip-rule="evenodd" fill="#B7B7B6" cx="-544" cy="351.7" r="2.9" />
                <path fill-rule="evenodd" clip-rule="evenodd" fill="#EAEAEA" d="M-545.1,350.2c0.3-0.2,0.6-0.3,1-0.3c1,0,1.9,0.8,1.9,1.9
                c0,0.4-0.1,0.8-0.3,1.1c0.5-0.3,0.9-0.9,0.9-1.6c0-1-0.8-1.9-1.9-1.9C-544.2,349.4-544.8,349.7-545.1,350.2z" />
                <rect x="-544.6" y="351" fill-rule="evenodd" clip-rule="evenodd" fill="#E0E0DE" width="0.9" height="1.8" />
            </g>
        </g>
        <g>
            <g>
                <rect x="-528.7" y="346.6" fill-rule="evenodd" clip-rule="evenodd" fill="#232323" width="10.8" height="19.5" />
                <path fill="#3D3D3D" d="M-518.5,347.1v18.5h-9.8v-18.5H-518.5 M-517.5,346.1h-11.8v20.5h11.8V346.1L-517.5,346.1z" />
            </g>
            <g>
                <circle fill-rule="evenodd" clip-rule="evenodd" fill="#545454" cx="-523.6" cy="360.8" r="4.1" />
                <circle fill-rule="evenodd" clip-rule="evenodd" fill="#2D2D2C" cx="-523.6" cy="360.8" r="3.2" />
                <circle fill-rule="evenodd" clip-rule="evenodd" fill="#424242" cx="-523.3" cy="360.5" r="2.9" />
                <path fill-rule="evenodd" clip-rule="evenodd" fill="#5E5E5E" d="M-524.5,359.4c0.3-0.2,0.6-0.3,0.9-0.3c0.9,0,1.7,0.8,1.7,1.7
                c0,0.4-0.1,0.7-0.3,1c0.5-0.3,0.8-0.8,0.8-1.4c0-0.9-0.8-1.7-1.7-1.7C-523.7,358.6-524.2,358.9-524.5,359.4z" />
            </g>
            <g>
                <circle fill-rule="evenodd" clip-rule="evenodd" fill="#FFFFFF" cx="-523.6" cy="352.2" r="4.1" />
                <circle fill-rule="evenodd" clip-rule="evenodd" fill="#E0E0DE" cx="-523.6" cy="352.2" r="3.2" />
                <circle fill-rule="evenodd" clip-rule="evenodd" fill="#B7B7B6" cx="-523.3" cy="351.9" r="2.9" />
                <path fill-rule="evenodd" clip-rule="evenodd" fill="#EAEAEA" d="M-524.5,350.4c0.3-0.2,0.6-0.3,1-0.3c1,0,1.9,0.8,1.9,1.9
                c0,0.4-0.1,0.8-0.3,1.1c0.5-0.3,0.9-0.9,0.9-1.6c0-1-0.8-1.9-1.9-1.9C-523.6,349.6-524.2,349.9-524.5,350.4z" />
                <rect x="-523.9" y="351.2" fill-rule="evenodd" clip-rule="evenodd" fill="#E0E0DE" width="0.9" height="1.8" />
            </g>
        </g>
    </g>
</svg>