<svg xmlns="http://www.w3.org/2000/svg" xmlns:xlink="http://www.w3.org/1999/xlink" viewBox="0 0 585.94 472"><defs><style>.cls-1,.cls-12,.cls-15,.cls-18,.cls-23,.cls-24,.cls-26,.cls-30,.cls-31,.cls-37,.cls-44,.cls-48,.cls-61,.cls-62,.cls-65,.cls-69,.cls-70,.cls-8{fill:none;}.cls-1,.cls-12,.cls-15,.cls-18,.cls-24,.cls-30,.cls-31,.cls-37,.cls-44,.cls-48,.cls-61,.cls-62,.cls-65,.cls-69,.cls-70{stroke:#fff;}.cls-1,.cls-12,.cls-15,.cls-18,.cls-23,.cls-24,.cls-26,.cls-27,.cls-30,.cls-31,.cls-37,.cls-40,.cls-44,.cls-61,.cls-62,.cls-65,.cls-70,.cls-8{stroke-miterlimit:10;}.cls-1{stroke-width:0.5px;}.cls-2{fill:#9d9d9c;}.cls-3{fill:#c6c6c6;}.cls-4{fill:#3c3c3b;}.cls-29,.cls-41,.cls-5,.cls-54{fill:#1d1d1b;}.cls-6{fill:#fff4bf;}.cls-7{fill:#d5b681;}.cls-8{stroke:#fff1f2;}.cls-9{fill:#bebebe;}.cls-10{fill:#605b5c;}.cls-11{fill:#473d2d;}.cls-12{stroke-width:0.91px;}.cls-13{fill:#6f7070;}.cls-14{isolation:isolate;}.cls-15{stroke-width:0.93px;}.cls-16{font-size:9.51px;}.cls-16,.cls-42,.cls-43,.cls-51,.cls-63,.cls-73,.cls-76,.cls-77,.cls-78,.cls-79,.cls-80{fill:#fff;}.cls-16,.cls-29,.cls-41,.cls-54,.cls-63{font-family:RobotoCondensed-Regular, Roboto Condensed;}.cls-17{letter-spacing:-0.01em;}.cls-19{letter-spacing:-0.03em;}.cls-20{letter-spacing:0em;}.cls-21{letter-spacing:-0.01em;}.cls-22{fill:#979798;}.cls-23{stroke:#e6007e;stroke-width:0.18px;}.cls-24{stroke-width:0.96px;}.cls-25{fill:#4a3f3f;}.cls-26{stroke:#d5b681;}.cls-27,.cls-40,.cls-53{fill:#353132;}.cls-27,.cls-40{stroke:#676062;}.cls-27{stroke-width:0.7px;}.cls-28{fill:#d4d3d4;}.cls-29{font-size:9.7px;}.cls-30{stroke-width:0.92px;}.cls-31{stroke-width:0.88px;}.cls-32,.cls-34{fill:#e0b352;}.cls-33{fill:#e3e2e2;}.cls-34{font-size:8.05px;font-family:Roboto-Regular, Roboto;}.cls-35{letter-spacing:-0.06em;}.cls-36{letter-spacing:0em;}.cls-37{stroke-width:0.82px;}.cls-38{fill:#fefdee;}.cls-39{fill:#a19781;}.cls-40{stroke-width:1.45px;}.cls-41{font-size:16.69px;}.cls-42{font-size:7.23px;}.cls-42,.cls-43,.cls-76,.cls-77,.cls-78,.cls-79,.cls-80{font-family:AkkuratMonoPro-Regular, Akkurat Mono Pro;}.cls-43{font-size:7.49px;}.cls-44{stroke-width:0.96px;}.cls-45{fill:#525151;}.cls-46{fill:#c6463a;}.cls-47,.cls-48{font-size:45.42px;font-family:RobotoCondensed-Bold, Roboto Condensed;}.cls-47,.cls-48,.cls-73{font-weight:700;}.cls-48{stroke-width:4px;}.cls-49{fill:#00b8f4;}.cls-50{fill:#fec900;}.cls-52{fill:#676062;}.cls-54{font-size:26.72px;}.cls-55{fill:#784a11;}.cls-56{fill:#d6a96f;}.cls-57{fill:#fef2ca;}.cls-58{fill:#ccbea5;}.cls-59{fill:#635842;}.cls-60{fill:#918063;}.cls-61{stroke-width:0.9px;}.cls-62{stroke-width:1.01px;}.cls-63{font-size:16.21px;}.cls-64{fill:#e9c783;}.cls-65{stroke-width:0.46px;}.cls-66{fill:#2d2d2c;}.cls-67{fill:#484849;}.cls-68,.cls-69{font-size:47.28px;font-family:Impact, Impact;}.cls-69{stroke-width:4.16px;}.cls-70{stroke-width:1.29px;}.cls-71{fill:#494949;}.cls-72{fill:#c5c3c4;}.cls-72,.cls-82,.cls-84{mix-blend-mode:multiply;}.cls-73{font-size:7.81px;font-family:Roboto-Bold, Roboto;}.cls-74{letter-spacing:0.01em;}.cls-75{fill:#5b5c5c;}.cls-76{font-size:10.4px;}.cls-77{font-size:6.8px;}.cls-78{font-size:7.35px;}.cls-79{font-size:9.44px;}.cls-80{font-size:9.04px;}.cls-81{fill:#dadada;}.cls-82{fill:#b7b8b8;}.cls-83{fill:#c3c3c4;}.cls-84{fill:#d0d0d0;}.cls-85{fill:#f18820;}.cls-86{fill:#ec6408;}</style><symbol id="_02" data-name="02" viewBox="0 0 12.42 25.21"><rect class="cls-6" x="3.08" y="6.42" width="6.5" height="15.17"/><rect class="cls-7" x="5.07" y="6.42" width="4.52" height="15.17"/><rect class="cls-2" x="2.67" y="5.25" width="7.33" height="5.83"/><rect class="cls-2" x="2.67" y="16.42" width="7.33" height="5.83"/><rect class="cls-8" x="0.5" y="0.5" width="11.42" height="24.21" rx="2.64" ry="2.64"/><rect class="cls-9" x="3.47" y="5.7" width="5.72" height="4.94"/><rect class="cls-9" x="3.47" y="16.86" width="5.72" height="4.94"/></symbol><symbol id="_01" data-name="01" viewBox="0 0 22 47.62"><path class="cls-1" d="M20.82,42.8,1.75,43a1,1,0,0,1-1-.93L.25,5.85a1,1,0,0,1,.94-1l19.07-.21a1,1,0,0,1,1,.93l.55,36.23A1,1,0,0,1,20.82,42.8Z"/><rect class="cls-2" x="3.99" y="38.43" width="13.46" height="9.19"/><polygon class="cls-2" points="4.06 9.34 17.52 9.19 17.38 0 3.92 0.15 4.06 9.34"/><rect class="cls-3" x="8.76" y="37.07" width="3.99" height="7.99" rx="1.99" ry="1.99"/><path class="cls-3" d="M10.83,11.68h0a2,2,0,0,0,1.93-2l0-4a2,2,0,0,0-2.06-2h0a2,2,0,0,0-1.93,2l0,4A2,2,0,0,0,10.83,11.68Z"/><polygon class="cls-4" points="2 41.28 20.1 41.08 19.59 7.68 1.49 7.89 2 41.28"/><polygon class="cls-5" points="3.7 40.37 18.36 40.21 17.89 8.6 3.23 8.76 3.7 40.37"/></symbol><symbol id="_03" data-name="03" viewBox="0 0 12.42 25.21"><rect class="cls-10" x="3.08" y="6.42" width="6.5" height="15.17"/><rect class="cls-11" x="4.98" y="6.42" width="4.6" height="15.17"/><rect class="cls-2" x="2.67" y="5.25" width="7.33" height="5.83"/><rect class="cls-2" x="2.67" y="16.42" width="7.33" height="5.83"/><rect class="cls-9" x="3.66" y="5.7" width="5.72" height="4.94"/><rect class="cls-9" x="3.66" y="16.86" width="5.72" height="4.94"/><rect class="cls-8" x="0.5" y="0.5" width="11.42" height="24.21" rx="2.64" ry="2.64"/></symbol><symbol id="_03_2" data-name="03 2" viewBox="0 0 7.33 17"><rect class="cls-10" x="0.42" y="1.17" width="6.5" height="15.17"/><rect class="cls-11" x="2.31" y="1.17" width="4.6" height="15.17"/><rect class="cls-2" width="7.33" height="5.83"/><rect class="cls-2" y="11.17" width="7.33" height="5.83"/><rect class="cls-9" x="0.99" y="0.45" width="5.72" height="4.94"/><rect class="cls-9" x="0.99" y="11.61" width="5.72" height="4.94"/></symbol><symbol id="_04" data-name="04" viewBox="0 0 21.68 25.35"><path class="cls-12" d="M15.22,3.92h5.5v7.41H18.43m-15.18,0H1V3.92H6.53"/><rect class="cls-13" x="9.78" y="5.25" width="2.12" height="7.12"/><rect class="cls-9" x="0.01" y="18.22" width="7.12" height="7.12"/><rect class="cls-9" x="14.45" y="18.22" width="7.12" height="7.12"/><rect class="cls-2" y="18.22" width="4.35" height="5.24"/><rect class="cls-2" x="14.41" y="18.22" width="4.35" height="5.24"/><rect class="cls-9" x="7.28" width="7.12" height="7.12"/><rect class="cls-13" x="9.36" y="0.04" width="2.44" height="2.44"/><rect class="cls-4" x="0.01" y="10.09" width="21.67" height="8.13"/><rect class="cls-5" x="2.09" y="10.78" width="17.34" height="6.75"/></symbol></defs><title>M Bot Core</title><g class="cls-14"><g id="Layer_8" data-name="Layer 8"><path class="cls-5" d="M531.54,53.09H52.9a15,15,0,0,0-15,15V416.24a15,15,0,0,0,15,15H531.54a15,15,0,0,0,15-15V68.09A15,15,0,0,0,531.54,53.09ZM115,312c-9.52,0-16.56-7.78-17-17s8.1-17,17-17c9.52,0,16.56,7.78,17,17S123.88,312,115,312Zm0-108.5c-9.52,0-16.56-7.78-17-17s8.1-17,17-17c9.52,0,16.56,7.78,17,17S123.88,203.47,115,203.47Zm328-33.95c9.52,0,16.56,7.78,17,17s-8.09,17-17,17c-9.52,0-16.56-7.78-17-17S434.12,169.53,443,169.53ZM443.5,312c-9.52,0-16.56-7.78-17-17s8.09-17,17-17c9.52,0,16.56,7.78,17,17S452.38,312,443.5,312Z"/></g><g id="Layer_2" data-name="Layer 2"><rect class="cls-15" x="36.27" y="139" width="55.23" height="33.98"/><text class="cls-16" transform="translate(140.95 128.81) rotate(180)">NC</text><text class="cls-16" transform="translate(125.78 128.81) rotate(180)"><tspan class="cls-17">D</tspan><tspan x="5.12" y="0">TR</tspan></text><text class="cls-16" transform="translate(109.78 128.81) rotate(180)">GND</text><text class="cls-16" transform="translate(92.62 128.81) rotate(180)">5V</text><text class="cls-16" transform="translate(79.12 128.81) rotate(180)">1X</text><text class="cls-16" transform="translate(64.95 128.81) rotate(180)">0X</text><polyline class="cls-18" points="139.98 112.24 139.98 122.99 51.98 122.99 51.98 112.24"/><line class="cls-18" x1="132.65" y1="122.99" x2="132.65" y2="126.66"/><line class="cls-18" x1="118.23" y1="122.99" x2="118.23" y2="126.66"/><line class="cls-18" x1="103.6" y1="122.99" x2="103.6" y2="126.66"/><line class="cls-18" x1="88.65" y1="122.99" x2="88.65" y2="126.66"/><line class="cls-18" x1="74.15" y1="122.99" x2="74.15" y2="126.66"/><line class="cls-18" x1="59.27" y1="122.99" x2="59.27" y2="126.66"/><text class="cls-16" transform="translate(239.83 128.81) rotate(180)">S<tspan class="cls-19" x="4.85" y="0">L</tspan><tspan class="cls-20" x="8.86" y="0">C</tspan></text><text class="cls-16" transform="translate(224.67 128.81) rotate(180)">S<tspan class="cls-21" x="4.85" y="0">D</tspan><tspan x="10" y="0">A</tspan></text><text class="cls-16" transform="translate(208.67 128.81) rotate(180)">GND</text><text class="cls-16" transform="translate(191.5 128.81) rotate(180)">5V</text><text class="cls-16" transform="translate(178 128.81) rotate(180)">A2</text><text class="cls-16" transform="translate(163.83 128.81) rotate(180)">A3</text><polyline class="cls-18" points="238.86 112.24 238.86 122.99 150.86 122.99 150.86 112.24"/><line class="cls-18" x1="231.53" y1="122.99" x2="231.53" y2="126.66"/><line class="cls-18" x1="217.11" y1="122.99" x2="217.11" y2="126.66"/><line class="cls-18" x1="202.48" y1="122.99" x2="202.48" y2="126.66"/><line class="cls-18" x1="187.53" y1="122.99" x2="187.53" y2="126.66"/><line class="cls-18" x1="173.03" y1="122.99" x2="173.03" y2="126.66"/><line class="cls-18" x1="158.16" y1="122.99" x2="158.16" y2="126.66"/><text class="cls-16" transform="translate(338.72 128.81) rotate(180)">S<tspan class="cls-19" x="4.85" y="0">L</tspan><tspan class="cls-20" x="8.86" y="0">C</tspan></text><text class="cls-16" transform="translate(323.55 128.81) rotate(180)">S<tspan class="cls-21" x="4.85" y="0">D</tspan><tspan x="10" y="0">A</tspan></text><text class="cls-16" transform="translate(307.55 128.81) rotate(180)">GND</text><text class="cls-16" transform="translate(290.38 128.81) rotate(180)">5V</text><text class="cls-16" transform="translate(276.88 128.81) rotate(180)">A6</text><text class="cls-16" transform="translate(262.72 128.81) rotate(180)">A1</text><polyline class="cls-18" points="337.75 112.24 337.75 122.99 249.75 122.99 249.75 112.24"/><line class="cls-18" x1="330.41" y1="122.99" x2="330.41" y2="126.66"/><line class="cls-18" x1="316" y1="122.99" x2="316" y2="126.66"/><line class="cls-18" x1="301.37" y1="122.99" x2="301.37" y2="126.66"/><line class="cls-18" x1="286.41" y1="122.99" x2="286.41" y2="126.66"/><line class="cls-18" x1="271.91" y1="122.99" x2="271.91" y2="126.66"/><line class="cls-18" x1="257.04" y1="122.99" x2="257.04" y2="126.66"/><text class="cls-16" transform="translate(437.55 128.81) rotate(180)">S<tspan class="cls-19" x="4.85" y="0">L</tspan><tspan class="cls-20" x="8.86" y="0">C</tspan></text><text class="cls-16" transform="translate(422.38 128.81) rotate(180)">S<tspan class="cls-21" x="4.85" y="0">D</tspan><tspan x="10" y="0">A</tspan></text><text class="cls-16" transform="translate(406.38 128.81) rotate(180)">GND</text><text class="cls-16" transform="translate(389.21 128.81) rotate(180)">5V</text><text class="cls-16" transform="translate(375.71 128.81) rotate(180)">A7</text><text class="cls-16" transform="translate(361.55 128.81) rotate(180)">A0</text><polyline class="cls-18" points="436.58 112.24 436.58 122.99 348.58 122.99 348.58 112.24"/><line class="cls-18" x1="429.24" y1="122.99" x2="429.24" y2="126.66"/><line class="cls-18" x1="414.83" y1="122.99" x2="414.83" y2="126.66"/><line class="cls-18" x1="400.19" y1="122.99" x2="400.19" y2="126.66"/><line class="cls-18" x1="385.24" y1="122.99" x2="385.24" y2="126.66"/><line class="cls-18" x1="370.74" y1="122.99" x2="370.74" y2="126.66"/><line class="cls-18" x1="355.87" y1="122.99" x2="355.87" y2="126.66"/><use width="12.42" height="25.21" transform="translate(538.75 185.66) rotate(90) scale(0.84 0.92)" xlink:href="#_02"/><use width="12.42" height="25.21" transform="translate(538.29 174.32) rotate(90) scale(0.84 0.92)" xlink:href="#_02"/><use width="12.42" height="25.21" transform="translate(279.29 197.99) rotate(90) scale(0.84 0.92)" xlink:href="#_02"/><use width="12.42" height="25.21" transform="translate(215.29 166.66) rotate(90) scale(0.84 0.92)" xlink:href="#_02"/><use width="12.42" height="25.21" transform="translate(206.52 237.43) rotate(90) scale(0.84 0.92)" xlink:href="#_02"/><use width="12.42" height="25.21" transform="translate(61.47 295.43) rotate(90) scale(0.84 0.92)" xlink:href="#_02"/><use width="12.42" height="25.21" transform="translate(85.68 295.43) rotate(90) scale(0.84 0.92)" xlink:href="#_02"/><use width="12.42" height="25.21" transform="translate(61.47 174.58) rotate(90) scale(0.84 0.92)" xlink:href="#_02"/><use width="12.42" height="25.21" transform="translate(85.68 174.58) rotate(90) scale(0.84 0.92)" xlink:href="#_02"/><use width="12.42" height="25.21" transform="translate(324.54 281.16) rotate(90) scale(0.84 0.92)" xlink:href="#_02"/><use width="12.42" height="25.21" transform="translate(279.29 220.99) rotate(90) scale(0.84 0.92)" xlink:href="#_02"/><use width="12.42" height="25.21" transform="translate(144.08 180.88) scale(0.84 0.92)" xlink:href="#_02"/><use width="12.42" height="25.21" transform="translate(219.08 185.88) scale(0.84 0.92)" xlink:href="#_02"/><use width="12.42" height="25.21" transform="translate(350.08 213.63) scale(0.84 0.92)" xlink:href="#_02"/><use width="12.42" height="25.21" transform="translate(350.08 259.13) scale(0.84 0.92)" xlink:href="#_02"/><use width="12.42" height="25.21" transform="translate(359.33 322.13) scale(0.84 0.92)" xlink:href="#_02"/><use width="12.42" height="25.21" transform="translate(312.58 291.38) scale(0.84 0.92)" xlink:href="#_02"/><use width="12.42" height="25.21" transform="translate(370.08 322.13) scale(0.84 0.92)" xlink:href="#_02"/><use width="12.42" height="25.21" transform="translate(215.08 143.21) scale(0.84 0.92)" xlink:href="#_02"/><use width="12.42" height="25.21" transform="translate(243.08 169.54) scale(0.84 0.92)" xlink:href="#_02"/><use width="12.42" height="25.21" transform="translate(144.08 206.21) scale(0.84 0.92)" xlink:href="#_02"/><use width="12.42" height="25.21" transform="translate(168.97 236.75) scale(0.84 0.92)" xlink:href="#_02"/><use width="12.42" height="25.21" transform="translate(505.28 103.78) rotate(90) scale(1.2 1.03)" xlink:href="#_02"/><use width="12.42" height="25.21" transform="translate(538.75 206.78) rotate(90) scale(0.84 0.92)" xlink:href="#_02"/><use width="12.42" height="25.21" transform="translate(495.92 167.19) rotate(90) scale(0.84 0.92)" xlink:href="#_02"/><use width="12.42" height="25.21" transform="translate(439.92 142.85) rotate(90) scale(0.84 0.92)" xlink:href="#_02"/><use width="12.42" height="25.21" transform="translate(538.29 195.44) rotate(90) scale(0.84 0.92)" xlink:href="#_02"/><use width="22" height="47.62" transform="translate(312.01 342.81) rotate(-90) scale(1 0.95)" xlink:href="#_01"/><use width="22" height="47.62" transform="translate(381.76 345.06) rotate(-90) scale(1 0.95)" xlink:href="#_01"/><use width="22" height="47.62" transform="translate(161.86 331.41) rotate(180) scale(1 0.95)" xlink:href="#_01"/><use width="22" height="47.62" transform="translate(459.92 400.32) rotate(180) scale(1.03 0.91)" xlink:href="#_01"/><use width="22" height="47.62" transform="translate(237.25 166.04) rotate(180) scale(0.42 0.46)" xlink:href="#_01"/><use width="22" height="47.62" transform="translate(426.26 345.06) rotate(-90) scale(1 1.01)" xlink:href="#_01"/><rect class="cls-9" x="294.7" y="192" width="3.43" height="12.2"/><rect class="cls-9" x="300.14" y="192" width="3.43" height="12.2"/><rect class="cls-9" x="305.59" y="192" width="3.43" height="12.2"/><rect class="cls-9" x="311.04" y="192" width="3.43" height="12.2"/><rect class="cls-9" x="316.48" y="192" width="3.43" height="12.2"/><rect class="cls-9" x="321.93" y="192" width="3.43" height="12.2"/><rect class="cls-9" x="327.38" y="192" width="3.43" height="12.2"/><rect class="cls-9" x="332.82" y="192" width="3.43" height="12.2"/><rect class="cls-22" x="294.7" y="198.1" width="3.43" height="6.1"/><rect class="cls-22" x="300.14" y="198.1" width="3.43" height="6.1"/><rect class="cls-22" x="305.59" y="198.1" width="3.43" height="6.1"/><rect class="cls-22" x="311.04" y="198.1" width="3.43" height="6.1"/><rect class="cls-22" x="316.48" y="198.1" width="3.43" height="6.1"/><rect class="cls-22" x="321.93" y="198.1" width="3.43" height="6.1"/><rect class="cls-22" x="327.38" y="198.1" width="3.43" height="6.1"/><rect class="cls-22" x="332.82" y="198.1" width="3.43" height="6.1"/><rect class="cls-9" x="285.43" y="237.52" width="3.29" height="12.15" transform="translate(43.49 530.67) rotate(-90)"/><rect class="cls-9" x="285.43" y="232.3" width="3.29" height="12.15" transform="translate(48.7 525.46) rotate(-90)"/><rect class="cls-9" x="285.43" y="227.09" width="3.29" height="12.15" transform="translate(53.91 520.25) rotate(-90)"/><rect class="cls-9" x="285.43" y="221.88" width="3.29" height="12.15" transform="translate(59.12 515.04) rotate(-90)"/><rect class="cls-9" x="285.43" y="216.67" width="3.29" height="12.15" transform="translate(64.33 509.82) rotate(-90)"/><rect class="cls-9" x="285.43" y="211.46" width="3.29" height="12.15" transform="translate(69.54 504.61) rotate(-90)"/><rect class="cls-9" x="285.43" y="206.25" width="3.29" height="12.15" transform="translate(74.75 499.4) rotate(-90)"/><rect class="cls-9" x="285.43" y="201.04" width="3.29" height="12.15" transform="translate(79.96 494.19) rotate(-90)"/><rect class="cls-22" x="287.25" y="240.55" width="3.29" height="6.08" transform="translate(45.31 532.49) rotate(-90)"/><rect class="cls-22" x="287.25" y="235.34" width="3.29" height="6.08" transform="translate(50.52 527.28) rotate(-90)"/><rect class="cls-22" x="287.25" y="230.13" width="3.29" height="6.08" transform="translate(55.73 522.07) rotate(-90)"/><rect class="cls-22" x="287.25" y="224.92" width="3.29" height="6.08" transform="translate(60.94 516.86) rotate(-90)"/><rect class="cls-22" x="287.25" y="219.71" width="3.29" height="6.08" transform="translate(66.15 511.65) rotate(-90)"/><rect class="cls-22" x="287.25" y="214.5" width="3.29" height="6.08" transform="translate(71.36 506.43) rotate(-90)"/><rect class="cls-22" x="287.25" y="209.29" width="3.29" height="6.08" transform="translate(76.57 501.22) rotate(-90)"/><rect class="cls-22" x="287.25" y="204.08" width="3.29" height="6.08" transform="translate(81.78 496.01) rotate(-90)"/><rect class="cls-9" x="332.7" y="247.47" width="3.43" height="12.2" transform="translate(668.84 507.14) rotate(180)"/><rect class="cls-9" x="327.26" y="247.47" width="3.43" height="12.2" transform="translate(657.95 507.14) rotate(180)"/><rect class="cls-9" x="321.81" y="247.47" width="3.43" height="12.2" transform="translate(647.06 507.14) rotate(180)"/><rect class="cls-9" x="316.36" y="247.47" width="3.43" height="12.2" transform="translate(636.16 507.14) rotate(180)"/><rect class="cls-9" x="310.92" y="247.47" width="3.43" height="12.2" transform="translate(625.27 507.14) rotate(180)"/><rect class="cls-9" x="305.47" y="247.47" width="3.43" height="12.2" transform="translate(614.38 507.14) rotate(180)"/><rect class="cls-9" x="300.02" y="247.47" width="3.43" height="12.2" transform="translate(603.48 507.14) rotate(180)"/><rect class="cls-9" x="294.58" y="247.47" width="3.43" height="12.2" transform="translate(592.59 507.14) rotate(180)"/><rect class="cls-22" x="294.7" y="247.76" width="3.43" height="6.1"/><rect class="cls-22" x="300.14" y="247.76" width="3.43" height="6.1"/><rect class="cls-22" x="305.59" y="247.76" width="3.43" height="6.1"/><rect class="cls-22" x="311.04" y="247.76" width="3.43" height="6.1"/><rect class="cls-22" x="316.48" y="247.76" width="3.43" height="6.1"/><rect class="cls-22" x="321.93" y="247.76" width="3.43" height="6.1"/><rect class="cls-22" x="327.38" y="247.76" width="3.43" height="6.1"/><rect class="cls-22" x="332.82" y="247.76" width="3.43" height="6.1"/><rect class="cls-9" x="342.12" y="202" width="3.29" height="12.15" transform="translate(551.83 -135.68) rotate(90)"/><rect class="cls-9" x="342.12" y="207.21" width="3.29" height="12.15" transform="translate(557.04 -130.47) rotate(90)"/><rect class="cls-9" x="342.12" y="212.42" width="3.29" height="12.15" transform="translate(562.25 -125.26) rotate(90)"/><rect class="cls-9" x="342.12" y="217.63" width="3.29" height="12.15" transform="translate(567.47 -120.05) rotate(90)"/><rect class="cls-9" x="342.12" y="222.84" width="3.29" height="12.15" transform="translate(572.68 -114.84) rotate(90)"/><rect class="cls-9" x="342.12" y="228.05" width="3.29" height="12.15" transform="translate(577.89 -109.63) rotate(90)"/><rect class="cls-9" x="342.12" y="233.26" width="3.29" height="12.15" transform="translate(583.1 -104.42) rotate(90)"/><rect class="cls-9" x="342.12" y="238.48" width="3.29" height="12.15" transform="translate(588.31 -99.21) rotate(90)"/><rect class="cls-22" x="339.08" y="205.04" width="3.29" height="6.08" transform="translate(548.79 -132.64) rotate(90)"/><rect class="cls-22" x="339.08" y="210.25" width="3.29" height="6.08" transform="translate(554.01 -127.43) rotate(90)"/><rect class="cls-22" x="339.08" y="215.46" width="3.29" height="6.08" transform="translate(559.22 -122.22) rotate(90)"/><rect class="cls-22" x="339.08" y="220.67" width="3.29" height="6.08" transform="translate(564.43 -117.01) rotate(90)"/><rect class="cls-22" x="339.08" y="225.88" width="3.29" height="6.08" transform="translate(569.64 -111.8) rotate(90)"/><rect class="cls-22" x="339.08" y="231.09" width="3.29" height="6.08" transform="translate(574.85 -106.59) rotate(90)"/><rect class="cls-22" x="339.08" y="236.3" width="3.29" height="6.08" transform="translate(580.06 -101.38) rotate(90)"/><rect class="cls-22" x="339.08" y="241.51" width="3.29" height="6.08" transform="translate(585.27 -96.17) rotate(90)"/><rect class="cls-4" x="290.79" y="203.52" width="48.07" height="44.97"/><rect class="cls-5" x="292.51" y="205.1" width="44.62" height="41.74"/><ellipse class="cls-23" cx="345.15" cy="248.49" rx="2.01" ry="1.92"/><rect class="cls-9" x="319.05" y="176.64" width="3.63" height="13.46"/><rect class="cls-22" x="319.05" y="172.65" width="3.63" height="10.72"/><rect class="cls-9" x="310.5" y="176.64" width="3.63" height="13.46"/><rect class="cls-22" x="310.5" y="172.65" width="3.63" height="10.72"/><rect class="cls-9" x="301.95" y="176.64" width="3.62" height="13.46"/><rect class="cls-22" x="301.95" y="172.65" width="3.62" height="10.72"/><rect class="cls-9" x="293.4" y="176.64" width="3.63" height="13.46"/><rect class="cls-22" x="293.4" y="172.65" width="3.63" height="10.72"/><rect class="cls-9" x="284.86" y="176.64" width="3.63" height="13.46"/><rect class="cls-22" x="284.86" y="172.65" width="3.63" height="10.72"/><rect class="cls-9" x="276.31" y="176.64" width="3.63" height="13.46"/><rect class="cls-22" x="276.31" y="172.65" width="3.63" height="10.72"/><rect class="cls-9" x="267.76" y="176.64" width="3.63" height="13.46"/><rect class="cls-22" x="267.76" y="172.65" width="3.63" height="10.72"/><rect class="cls-9" x="259.21" y="176.97" width="3.63" height="13.46"/><rect class="cls-22" x="259.21" y="172.98" width="3.63" height="10.72"/><rect class="cls-9" x="259.21" y="143.65" width="3.63" height="13.46" transform="translate(522.05 300.76) rotate(180)"/><rect class="cls-22" x="259.21" y="150.38" width="3.63" height="10.72" transform="translate(522.05 311.47) rotate(180)"/><rect class="cls-9" x="267.76" y="143.65" width="3.63" height="13.46" transform="translate(539.15 300.76) rotate(180)"/><rect class="cls-22" x="267.76" y="150.38" width="3.63" height="10.72" transform="translate(539.15 311.47) rotate(180)"/><rect class="cls-9" x="276.31" y="143.65" width="3.63" height="13.46" transform="translate(556.24 300.76) rotate(180)"/><rect class="cls-22" x="276.31" y="150.38" width="3.63" height="10.72" transform="translate(556.24 311.47) rotate(180)"/><rect class="cls-9" x="284.86" y="143.65" width="3.63" height="13.46" transform="translate(573.34 300.76) rotate(180)"/><rect class="cls-22" x="284.86" y="150.38" width="3.63" height="10.72" transform="translate(573.34 311.47) rotate(180)"/><rect class="cls-9" x="293.4" y="143.65" width="3.63" height="13.46" transform="translate(590.43 300.76) rotate(180)"/><rect class="cls-22" x="293.4" y="150.38" width="3.63" height="10.72" transform="translate(590.43 311.47) rotate(180)"/><rect class="cls-9" x="301.95" y="143.65" width="3.63" height="13.46" transform="translate(607.53 300.76) rotate(180)"/><rect class="cls-22" x="301.95" y="150.38" width="3.63" height="10.72" transform="translate(607.53 311.47) rotate(180)"/><rect class="cls-9" x="310.5" y="143.65" width="3.63" height="13.46" transform="translate(624.62 300.76) rotate(180)"/><rect class="cls-22" x="310.5" y="150.38" width="3.63" height="10.72" transform="translate(624.62 311.47) rotate(180)"/><rect class="cls-9" x="319.05" y="143.32" width="3.63" height="13.46" transform="translate(641.72 300.09) rotate(180)"/><rect class="cls-22" x="319.05" y="150.05" width="3.63" height="10.72" transform="translate(641.72 310.81) rotate(180)"/><rect class="cls-4" x="257.81" y="153.38" width="65.41" height="25.51"/><rect class="cls-9" x="363.02" y="281.67" width="3.63" height="13.46" transform="translate(76.43 653.22) rotate(-90)"/><rect class="cls-22" x="357.66" y="283.04" width="3.63" height="10.72" transform="translate(71.07 647.87) rotate(-90)"/><rect class="cls-9" x="363.02" y="290.21" width="3.62" height="13.46" transform="translate(67.88 661.77) rotate(-90)"/><rect class="cls-22" x="357.66" y="291.59" width="3.62" height="10.72" transform="translate(62.53 656.41) rotate(-90)"/><rect class="cls-9" x="363.02" y="298.76" width="3.63" height="13.46" transform="translate(59.34 670.32) rotate(-90)"/><rect class="cls-22" x="357.66" y="300.13" width="3.63" height="10.72" transform="translate(53.98 664.96) rotate(-90)"/><rect class="cls-9" x="363.02" y="307.31" width="3.63" height="13.46" transform="translate(50.79 678.87) rotate(-90)"/><rect class="cls-22" x="357.66" y="308.68" width="3.62" height="10.72" transform="translate(45.43 673.51) rotate(-90)"/><rect class="cls-9" x="330.03" y="307.31" width="3.63" height="13.46" transform="translate(645.88 -17.8) rotate(90)"/><rect class="cls-22" x="335.39" y="308.68" width="3.63" height="10.72" transform="translate(651.24 -23.16) rotate(90)"/><rect class="cls-9" x="330.03" y="298.76" width="3.63" height="13.46" transform="translate(637.33 -26.35) rotate(90)"/><rect class="cls-22" x="335.39" y="300.13" width="3.63" height="10.72" transform="translate(642.69 -31.71) rotate(90)"/><rect class="cls-9" x="330.03" y="290.21" width="3.63" height="13.46" transform="translate(628.78 -34.9) rotate(90)"/><rect class="cls-22" x="335.39" y="291.59" width="3.62" height="10.72" transform="translate(634.14 -40.25) rotate(90)"/><rect class="cls-9" x="329.69" y="281.67" width="3.63" height="13.46" transform="translate(619.9 -43.11) rotate(90)"/><rect class="cls-22" x="335.05" y="283.04" width="3.63" height="10.72" transform="translate(625.26 -48.47) rotate(90)"/><rect class="cls-4" x="332.27" y="288.59" width="30.63" height="25.51" transform="translate(46.24 648.94) rotate(-90)"/><rect class="cls-9" x="475.73" y="181.58" width="3.63" height="7.58" transform="translate(662.92 -292.17) rotate(90)"/><rect class="cls-22" x="478.75" y="182.35" width="3.63" height="6.04" transform="translate(665.93 -295.19) rotate(90)"/><rect class="cls-9" x="475.73" y="187.33" width="3.63" height="7.58" transform="translate(668.67 -286.42) rotate(90)"/><rect class="cls-22" x="478.75" y="188.1" width="3.63" height="6.04" transform="translate(671.68 -289.44) rotate(90)"/><rect class="cls-9" x="475.73" y="192.71" width="3.62" height="7.58" transform="translate(674.04 -281.04) rotate(90)"/><rect class="cls-22" x="478.75" y="193.48" width="3.62" height="6.04" transform="translate(677.06 -284.06) rotate(90)"/><rect class="cls-9" x="475.73" y="198.46" width="3.63" height="7.58" transform="translate(679.79 -275.29) rotate(90)"/><rect class="cls-22" x="478.75" y="199.23" width="3.63" height="6.04" transform="translate(682.81 -278.31) rotate(90)"/><rect class="cls-9" x="486.48" y="198.46" width="3.63" height="7.58" transform="translate(286.04 690.54) rotate(-90)"/><rect class="cls-22" x="483.46" y="199.23" width="3.63" height="6.04" transform="translate(283.02 687.52) rotate(-90)"/><rect class="cls-9" x="486.48" y="192.71" width="3.63" height="7.58" transform="translate(291.79 684.79) rotate(-90)"/><rect class="cls-22" x="483.46" y="193.48" width="3.63" height="6.04" transform="translate(288.77 681.77) rotate(-90)"/><rect class="cls-9" x="486.48" y="187.33" width="3.63" height="7.58" transform="translate(297.17 679.41) rotate(-90)"/><rect class="cls-22" x="483.46" y="188.1" width="3.63" height="6.04" transform="translate(294.15 676.39) rotate(-90)"/><rect class="cls-9" x="486.48" y="181.58" width="3.63" height="7.58" transform="translate(302.92 673.66) rotate(-90)"/><rect class="cls-22" x="483.46" y="182.35" width="3.63" height="6.04" transform="translate(299.9 670.64) rotate(-90)"/><rect class="cls-4" x="479.92" y="182.38" width="6.06" height="22.22"/><rect class="cls-9" x="497.48" y="181.58" width="3.63" height="7.58" transform="translate(684.67 -313.92) rotate(90)"/><rect class="cls-22" x="500.5" y="182.35" width="3.63" height="6.04" transform="translate(687.68 -316.94) rotate(90)"/><rect class="cls-9" x="497.48" y="187.33" width="3.63" height="7.58" transform="translate(690.42 -308.17) rotate(90)"/><rect class="cls-22" x="500.5" y="188.1" width="3.63" height="6.04" transform="translate(693.43 -311.19) rotate(90)"/><rect class="cls-9" x="497.48" y="192.71" width="3.62" height="7.58" transform="translate(695.79 -302.79) rotate(90)"/><rect class="cls-22" x="500.5" y="193.48" width="3.62" height="6.04" transform="translate(698.81 -305.81) rotate(90)"/><rect class="cls-9" x="497.48" y="198.46" width="3.63" height="7.58" transform="translate(701.54 -297.04) rotate(90)"/><rect class="cls-22" x="500.5" y="199.23" width="3.63" height="6.04" transform="translate(704.56 -300.06) rotate(90)"/><rect class="cls-9" x="508.23" y="198.46" width="3.63" height="7.58" transform="translate(307.79 712.29) rotate(-90)"/><rect class="cls-22" x="505.21" y="199.23" width="3.63" height="6.04" transform="translate(304.77 709.27) rotate(-90)"/><rect class="cls-9" x="508.23" y="192.71" width="3.63" height="7.58" transform="translate(313.54 706.54) rotate(-90)"/><rect class="cls-22" x="505.21" y="193.48" width="3.63" height="6.04" transform="translate(310.52 703.52) rotate(-90)"/><rect class="cls-9" x="508.23" y="187.33" width="3.63" height="7.58" transform="translate(318.92 701.16) rotate(-90)"/><rect class="cls-22" x="505.21" y="188.1" width="3.63" height="6.04" transform="translate(315.9 698.14) rotate(-90)"/><rect class="cls-9" x="508.23" y="181.58" width="3.63" height="7.58" transform="translate(324.67 695.41) rotate(-90)"/><rect class="cls-22" x="505.21" y="182.35" width="3.63" height="6.04" transform="translate(321.65 692.39) rotate(-90)"/><rect class="cls-4" x="501.67" y="182.38" width="6.06" height="22.22"/><rect class="cls-9" x="512.41" y="126.37" width="2.94" height="7.58" transform="translate(644.04 -383.72) rotate(90)"/><rect class="cls-22" x="515.42" y="127.14" width="2.94" height="6.04" transform="translate(647.06 -386.74) rotate(90)"/><rect class="cls-9" x="512.41" y="131.04" width="2.94" height="7.58" transform="translate(648.71 -379.05) rotate(90)"/><rect class="cls-22" x="515.42" y="131.81" width="2.94" height="6.04" transform="translate(651.72 -382.07) rotate(90)"/><rect class="cls-9" x="512.41" y="135.4" width="2.94" height="7.58" transform="translate(653.07 -374.68) rotate(90)"/><rect class="cls-22" x="515.42" y="136.17" width="2.94" height="6.04" transform="translate(656.09 -377.7) rotate(90)"/><rect class="cls-9" x="512.41" y="140.07" width="2.94" height="7.58" transform="translate(657.74 -370.02) rotate(90)"/><rect class="cls-22" x="515.42" y="140.84" width="2.94" height="6.04" transform="translate(660.76 -373.03) rotate(90)"/><rect class="cls-9" x="512.41" y="144.26" width="2.94" height="7.58" transform="translate(661.93 -365.83) rotate(90)"/><rect class="cls-22" x="515.42" y="145.03" width="2.94" height="6.04" transform="translate(664.95 -368.85) rotate(90)"/><rect class="cls-9" x="159.97" y="222.62" width="3.24" height="11.82" transform="translate(-66.94 390.12) rotate(-90)"/><rect class="cls-9" x="159.97" y="218.38" width="3.24" height="11.82" transform="translate(-62.69 385.87) rotate(-90)"/><rect class="cls-9" x="159.97" y="214.13" width="3.24" height="11.82" transform="translate(-58.44 381.62) rotate(-90)"/><rect class="cls-9" x="159.97" y="209.88" width="3.24" height="11.82" transform="translate(-54.19 377.38) rotate(-90)"/><rect class="cls-9" x="159.97" y="205.63" width="3.24" height="11.82" transform="translate(-49.94 373.13) rotate(-90)"/><rect class="cls-9" x="159.97" y="201.38" width="3.24" height="11.82" transform="translate(-45.7 368.88) rotate(-90)"/><rect class="cls-9" x="159.97" y="197.13" width="3.24" height="11.82" transform="translate(-41.45 364.63) rotate(-90)"/><rect class="cls-9" x="159.97" y="192.88" width="3.24" height="11.82" transform="translate(-37.2 360.38) rotate(-90)"/><rect class="cls-9" x="159.97" y="188.63" width="3.24" height="11.82" transform="translate(-32.95 356.13) rotate(-90)"/><rect class="cls-9" x="159.97" y="184.38" width="3.24" height="11.82" transform="translate(-28.7 351.88) rotate(-90)"/><rect class="cls-9" x="159.97" y="180.13" width="3.24" height="11.82" transform="translate(-24.45 347.63) rotate(-90)"/><rect class="cls-9" x="159.97" y="175.88" width="3.24" height="11.82" transform="translate(-20.2 343.38) rotate(-90)"/><rect class="cls-9" x="206.18" y="222.62" width="3.24" height="11.82" transform="translate(-20.74 436.33) rotate(-90)"/><rect class="cls-9" x="206.18" y="218.38" width="3.24" height="11.82" transform="translate(-16.49 432.08) rotate(-90)"/><rect class="cls-9" x="206.18" y="214.13" width="3.24" height="11.82" transform="translate(-12.24 427.83) rotate(-90)"/><rect class="cls-9" x="206.18" y="209.88" width="3.24" height="11.82" transform="translate(-7.99 423.58) rotate(-90)"/><rect class="cls-9" x="206.18" y="205.63" width="3.24" height="11.82" transform="translate(-3.74 419.33) rotate(-90)"/><rect class="cls-9" x="206.18" y="201.38" width="3.24" height="11.82" transform="translate(0.51 415.08) rotate(-90)"/><rect class="cls-9" x="206.18" y="197.13" width="3.24" height="11.82" transform="translate(4.76 410.83) rotate(-90)"/><rect class="cls-9" x="206.18" y="192.88" width="3.24" height="11.82" transform="translate(9.01 406.58) rotate(-90)"/><rect class="cls-9" x="206.18" y="188.63" width="3.24" height="11.82" transform="translate(13.26 402.33) rotate(-90)"/><rect class="cls-9" x="206.18" y="184.38" width="3.24" height="11.82" transform="translate(17.51 398.08) rotate(-90)"/><rect class="cls-9" x="206.18" y="180.13" width="3.24" height="11.82" transform="translate(21.76 393.83) rotate(-90)"/><rect class="cls-9" x="206.18" y="175.88" width="3.24" height="11.82" transform="translate(26.01 389.59) rotate(-90)"/><rect class="cls-22" x="164.68" y="223.83" width="3.24" height="9.41" transform="translate(-62.24 394.83) rotate(-90)"/><rect class="cls-22" x="164.68" y="219.58" width="3.24" height="9.41" transform="translate(-57.99 390.58) rotate(-90)"/><rect class="cls-22" x="164.68" y="215.33" width="3.24" height="9.41" transform="translate(-53.74 386.33) rotate(-90)"/><rect class="cls-22" x="164.68" y="211.08" width="3.24" height="9.41" transform="translate(-49.49 382.08) rotate(-90)"/><rect class="cls-22" x="164.68" y="206.83" width="3.24" height="9.41" transform="translate(-45.24 377.83) rotate(-90)"/><rect class="cls-22" x="164.68" y="202.58" width="3.24" height="9.41" transform="translate(-40.99 373.58) rotate(-90)"/><rect class="cls-22" x="164.68" y="198.33" width="3.24" height="9.41" transform="translate(-36.74 369.33) rotate(-90)"/><rect class="cls-22" x="164.68" y="194.08" width="3.24" height="9.41" transform="translate(-32.49 365.08) rotate(-90)"/><rect class="cls-22" x="164.68" y="189.83" width="3.24" height="9.41" transform="translate(-28.24 360.83) rotate(-90)"/><rect class="cls-22" x="164.68" y="185.58" width="3.24" height="9.41" transform="translate(-23.99 356.58) rotate(-90)"/><rect class="cls-22" x="164.68" y="181.33" width="3.24" height="9.41" transform="translate(-19.74 352.33) rotate(-90)"/><rect class="cls-22" x="164.68" y="177.08" width="3.24" height="9.41" transform="translate(-15.49 348.09) rotate(-90)"/><rect class="cls-22" x="201.47" y="223.83" width="3.24" height="9.41" transform="translate(-25.44 431.62) rotate(-90)"/><rect class="cls-22" x="201.47" y="219.58" width="3.24" height="9.41" transform="translate(-21.19 427.37) rotate(-90)"/><rect class="cls-22" x="201.47" y="215.33" width="3.24" height="9.41" transform="translate(-16.94 423.12) rotate(-90)"/><rect class="cls-22" x="201.47" y="211.08" width="3.24" height="9.41" transform="translate(-12.69 418.88) rotate(-90)"/><rect class="cls-22" x="201.47" y="206.83" width="3.24" height="9.41" transform="translate(-8.44 414.63) rotate(-90)"/><rect class="cls-22" x="201.47" y="202.58" width="3.24" height="9.41" transform="translate(-4.2 410.38) rotate(-90)"/><rect class="cls-22" x="201.47" y="198.33" width="3.24" height="9.41" transform="translate(0.05 406.13) rotate(-90)"/><rect class="cls-22" x="201.47" y="194.08" width="3.24" height="9.41" transform="translate(4.3 401.88) rotate(-90)"/><rect class="cls-22" x="201.47" y="189.83" width="3.24" height="9.41" transform="translate(8.55 397.63) rotate(-90)"/><rect class="cls-22" x="201.47" y="185.58" width="3.24" height="9.41" transform="translate(12.8 393.38) rotate(-90)"/><rect class="cls-22" x="201.47" y="181.33" width="3.24" height="9.41" transform="translate(17.05 389.13) rotate(-90)"/><rect class="cls-22" x="201.47" y="177.08" width="3.24" height="9.41" transform="translate(21.3 384.88) rotate(-90)"/><rect class="cls-4" x="159.46" y="185.24" width="52.27" height="39.17" transform="translate(-19.23 390.42) rotate(-90)"/><rect class="cls-18" x="380.37" y="282.21" width="24.67" height="8.56"/><rect class="cls-24" x="380.37" y="313.26" width="24.67" height="7.86"/><rect class="cls-18" x="380.37" y="293.29" width="24.67" height="16.84"/><path class="cls-25" d="M397.48,285.08a4.89,4.89,0,0,1-8.35,3.34,5,5,0,0,1-1.42-3.34h-6.55v34.06h6.95a4.24,4.24,0,0,1,8.48,0H404V285.08Z"/><path class="cls-9" d="M396.54,285.08a3.94,3.94,0,1,1-7.87,0h-1.75a5.69,5.69,0,1,0,11.38,0Z"/><path class="cls-7" d="M397.51,319.14a4.91,4.91,0,1,0-9.82,0h1.51a3.4,3.4,0,1,1,6.8,0Z"/><rect class="cls-26" x="394.29" y="300.44" width="7.63" height="4.76" rx="1.19" ry="1.19"/><rect class="cls-26" x="383.88" y="300.44" width="7.63" height="4.76" rx="1.19" ry="1.19"/><line class="cls-26" x1="387.69" y1="300.65" x2="387.69" y2="305.19"/><rect class="cls-2" x="141.16" y="232.83" width="6.76" height="6.76"/><rect class="cls-9" x="143.42" y="232.93" width="3.81" height="6.73"/><rect class="cls-2" x="141.16" y="276.53" width="6.76" height="6.76"/><rect class="cls-9" x="143.42" y="276.63" width="3.81" height="6.73"/><polygon class="cls-27" points="127.6 266.59 134.51 273 156.75 273 162.47 267.28 162.47 238.95 128 239.48 127.6 266.59"/><circle class="cls-2" cx="144.13" cy="260.4" r="17.43"/><ellipse class="cls-28" cx="143.81" cy="262.1" rx="16.71" ry="15.73"/><path class="cls-5" d="M132.13,254a15,15,0,0,1,23.35,0Z"/><text class="cls-29" transform="translate(147.02 255.6) rotate(90)">220<tspan x="0" y="7.7">16V</tspan><tspan x="0" y="15.39">VS</tspan></text><rect class="cls-30" x="137.47" y="156.12" width="22.25" height="8.01" transform="translate(-11.53 308.72) rotate(-90)"/><rect class="cls-31" x="166.2" y="156.45" width="22.25" height="7.35" transform="translate(17.2 337.45) rotate(-90)"/><rect class="cls-30" x="151.71" y="152.24" width="22.25" height="15.76" transform="translate(2.71 322.96) rotate(-90)"/><path class="cls-32" d="M147.28,155.81a4.58,4.58,0,0,1,4.47,4.41,4.41,4.41,0,0,1-1.34,3.12,4.82,4.82,0,0,1-3.12,1.28v5.91h31.88v-6.27a3.83,3.83,0,1,1,0-7.65V149.9H147.28Z"/><rect class="cls-25" x="154.95" y="149.9" width="15.38" height="20.64"/><path class="cls-33" d="M147.28,156.67a3.55,3.55,0,1,1,0,7.1v1.58a5.13,5.13,0,1,0,0-10.26Z"/><path class="cls-33" d="M179.16,155.79a4.43,4.43,0,1,0,0,8.86v-1.36a3.07,3.07,0,1,1,0-6.14Z"/><text class="cls-34" transform="translate(159.46 151.22) rotate(90) scale(0.96 1)">11<tspan class="cls-35" x="9.04" y="0">5</tspan><tspan class="cls-36" x="13.08" y="0">J</tspan></text><rect class="cls-30" x="101.92" y="252.82" width="22.25" height="8.01" transform="translate(226.09 513.65) rotate(180)"/><rect class="cls-31" x="101.92" y="224.42" width="22.25" height="7.35" transform="translate(226.09 456.19) rotate(180)"/><rect class="cls-30" x="101.92" y="234.7" width="22.25" height="15.76" transform="translate(226.09 485.16) rotate(180)"/><path class="cls-32" d="M108.73,258.14a4.58,4.58,0,0,1,4.41-4.47,4.41,4.41,0,0,1,3.12,1.34,4.82,4.82,0,0,1,1.28,3.12h5.91V226.26h-6.27a3.83,3.83,0,1,1-7.65,0h-6.72v31.88Z"/><rect class="cls-25" x="102.82" y="235.08" width="20.64" height="15.38"/><path class="cls-33" d="M109.58,258.14a3.55,3.55,0,1,1,7.1,0h1.58a5.13,5.13,0,1,0-10.26,0Z"/><path class="cls-33" d="M108.71,226.26a4.43,4.43,0,1,0,8.86,0H116.2a3.07,3.07,0,1,1-6.14,0Z"/><text class="cls-34" transform="translate(104.13 245.96) scale(0.96 1)">11<tspan class="cls-35" x="9.04" y="0">5</tspan><tspan class="cls-36" x="13.08" y="0">J</tspan></text><rect class="cls-30" x="433.47" y="108.37" width="22.25" height="8.01" transform="translate(332.22 556.97) rotate(-90)"/><rect class="cls-31" x="462.2" y="108.7" width="22.25" height="7.35" transform="translate(360.95 585.7) rotate(-90)"/><rect class="cls-30" x="447.71" y="104.49" width="22.25" height="15.76" transform="translate(346.46 571.21) rotate(-90)"/><path class="cls-32" d="M443.28,108.06a4.58,4.58,0,0,1,4.47,4.41,4.41,4.41,0,0,1-1.34,3.12,4.82,4.82,0,0,1-3.12,1.28v5.91h31.88v-6.27a3.83,3.83,0,1,1,0-7.65v-6.72H443.28Z"/><rect class="cls-25" x="450.95" y="102.15" width="15.38" height="20.64"/><path class="cls-33" d="M443.28,108.92a3.55,3.55,0,1,1,0,7.1v1.58a5.13,5.13,0,1,0,0-10.26Z"/><path class="cls-33" d="M475.16,108a4.43,4.43,0,1,0,0,8.86v-1.36a3.07,3.07,0,1,1,0-6.14Z"/><text class="cls-34" transform="translate(455.46 103.47) rotate(90) scale(0.96 1)">505Y</text><path class="cls-32" d="M115,274.54A20.46,20.46,0,1,0,135.5,295,20.46,20.46,0,0,0,115,274.54Zm0,35A14.56,14.56,0,1,1,129.6,295,14.56,14.56,0,0,1,115,309.56Z"/><path class="cls-32" d="M115,166A20.46,20.46,0,1,0,135.5,186.5,20.46,20.46,0,0,0,115,166Zm0,35A14.56,14.56,0,1,1,129.6,186.5,14.56,14.56,0,0,1,115,201.06Z"/><path class="cls-32" d="M443.46,274.54A20.46,20.46,0,1,0,463.92,295,20.46,20.46,0,0,0,443.46,274.54Zm0,35A14.56,14.56,0,1,1,458,295,14.56,14.56,0,0,1,443.46,309.56Z"/><path class="cls-32" d="M443.46,166a20.46,20.46,0,1,0,20.46,20.46A20.46,20.46,0,0,0,443.46,166Zm0,35A14.56,14.56,0,1,1,458,186.5,14.56,14.56,0,0,1,443.46,201.06Z"/><rect class="cls-37" x="516.8" y="295.46" width="18.61" height="38.8" transform="translate(840.96 -211.25) rotate(90)"/><path class="cls-38" d="M491.12,331.36v-.06h-6.24V327h6.24v-8.4h-6.24v-6.86h6.24v-8.4h-6.24v-4.29h20.81v32.31Z"/><path class="cls-7" d="M484.69,304.33h6.6a0,0,0,0,1,0,0v2.94a3.3,3.3,0,0,1-3.3,3.3h0a3.3,3.3,0,0,1-3.3-3.3v-2.94A0,0,0,0,1,484.69,304.33Z" transform="translate(795.45 -180.54) rotate(90)"/><path class="cls-7" d="M484.69,320.06h6.6a0,0,0,0,1,0,0V323a3.3,3.3,0,0,1-3.3,3.3h0a3.3,3.3,0,0,1-3.3-3.3v-2.94a0,0,0,0,1,0,0Z" transform="translate(811.18 -164.81) rotate(90)"/><path class="cls-6" d="M491.12,307.25v-3.1h-2.94a3.3,3.3,0,0,0-3.23,4A6.4,6.4,0,0,1,491.12,307.25Z"/><path class="cls-6" d="M491.12,322.5v-2.62h-2.94a3.3,3.3,0,0,0-3.3,3.3c0,.08,0,.15,0,.23A6.4,6.4,0,0,1,491.12,322.5Z"/><polygon class="cls-39" points="509.27 300.84 509.27 329.6 505.69 331.36 505.69 299.05 509.27 300.84"/><path class="cls-38" d="M558.91,315.07h0a6.68,6.68,0,0,1-6.77,6.65H507.36l.12-13.31h44.78A6.65,6.65,0,0,1,558.91,315.07Z"/><rect class="cls-2" x="190.18" y="249.49" width="14.02" height="14.02"/><path class="cls-2" d="M190.18,330.14h14a0,0,0,0,1,0,0v10.21a3.81,3.81,0,0,1-3.81,3.81H194a3.81,3.81,0,0,1-3.81-3.81V330.14A0,0,0,0,1,190.18,330.14Z"/><rect class="cls-9" x="194.86" y="249.69" width="7.88" height="13.96"/><path class="cls-9" d="M194.86,330h7.88a0,0,0,0,1,0,0V341.1a2.85,2.85,0,0,1-2.85,2.85h-2.19a2.85,2.85,0,0,1-2.85-2.85V330A0,0,0,0,1,194.86,330Z"/><polygon class="cls-40" points="233.86 275.34 219.54 262.06 173.46 262.06 161.61 273.91 161.61 332.61 233.03 331.52 233.86 275.34"/><circle class="cls-2" cx="196.92" cy="303" r="36.11"/><ellipse class="cls-28" cx="196.24" cy="306.51" rx="34.63" ry="32.6"/><path class="cls-5" d="M220.43,323.35a31.16,31.16,0,0,1-48.38,0Z"/><text class="cls-41" transform="translate(186.65 319.96) rotate(-90)">1000<tspan x="0" y="13.24">16V</tspan><tspan x="0" y="26.47">VT</tspan></text><rect class="cls-2" x="430.53" y="236.59" width="14.02" height="14.02" transform="translate(681.13 -193.94) rotate(90)"/><path class="cls-2" d="M356,236.59H367.8a1.09,1.09,0,0,1,1.09,1.09v8a4.9,4.9,0,0,1-4.9,4.9h-4.22a4.9,4.9,0,0,1-4.9-4.9v-8A1.09,1.09,0,0,1,356,236.59Z" transform="translate(605.48 -118.29) rotate(90)"/><rect class="cls-9" x="433.42" y="238.23" width="7.88" height="13.96" transform="translate(682.57 -192.16) rotate(90)"/><path class="cls-9" d="M359.22,238.23h5.7a1.09,1.09,0,0,1,1.09,1.09v8.92a3.94,3.94,0,0,1-3.94,3.94h0a3.94,3.94,0,0,1-3.94-3.94v-8.92A1.09,1.09,0,0,1,359.22,238.23Z" transform="translate(607.27 -116.86) rotate(90)"/><polygon class="cls-40" points="418.7 280.26 431.97 265.94 431.97 219.86 420.13 208.02 361.43 208.02 362.51 279.43 418.7 280.26"/><circle class="cls-2" cx="398.37" cy="243.32" r="36.11"/><ellipse class="cls-28" cx="400.52" cy="242.64" rx="32.6" ry="34.63"/><path class="cls-5" d="M383.69,266.83a31.16,31.16,0,0,1,0-48.38Z"/><text class="cls-41" transform="translate(387.07 233.05)">1000<tspan x="0" y="13.24">16V</tspan><tspan x="0" y="26.47">VT</tspan></text><text class="cls-42" transform="translate(69.07 348.03) rotate(180)">SCL</text><text class="cls-42" transform="translate(83.75 348.03) rotate(180)">SDA</text><text class="cls-42" transform="translate(112.28 348.03) rotate(180)">V5</text><text class="cls-42" transform="translate(99.17 348.03) rotate(180)">GND</text><text class="cls-42" transform="translate(120.38 348.03) rotate(180)">8</text><text class="cls-42" transform="translate(133.54 348.03) rotate(180)">2</text><polyline class="cls-15" points="54.97 367.75 54.97 357.38 137.97 357.38 137.97 367.75"/><line class="cls-15" x1="65.81" y1="357.38" x2="65.81" y2="353.84"/><line class="cls-15" x1="78.71" y1="357.38" x2="78.71" y2="353.84"/><line class="cls-15" x1="91.8" y1="357.38" x2="91.8" y2="353.84"/><line class="cls-15" x1="105.17" y1="357.38" x2="105.17" y2="353.84"/><line class="cls-15" x1="118.14" y1="357.38" x2="118.14" y2="353.84"/><line class="cls-15" x1="131.44" y1="357.38" x2="131.44" y2="353.84"/><text class="cls-42" transform="translate(167.96 348.03) rotate(180)">SCL</text><text class="cls-42" transform="translate(182.63 348.03) rotate(180)">SDA</text><text class="cls-42" transform="translate(211.17 348.03) rotate(180)">V5</text><text class="cls-42" transform="translate(198.05 348.03) rotate(180)">GND</text><text class="cls-42" transform="translate(221.51 348.03) rotate(180)">12</text><text class="cls-42" transform="translate(234.67 348.03) rotate(180)">13</text><polyline class="cls-15" points="153.85 367.75 153.85 357.38 236.85 357.38 236.85 367.75"/><line class="cls-15" x1="164.7" y1="357.38" x2="164.7" y2="353.84"/><line class="cls-15" x1="177.59" y1="357.38" x2="177.59" y2="353.84"/><line class="cls-15" x1="190.68" y1="357.38" x2="190.68" y2="353.84"/><line class="cls-15" x1="204.05" y1="357.38" x2="204.05" y2="353.84"/><line class="cls-15" x1="217.02" y1="357.38" x2="217.02" y2="353.84"/><line class="cls-15" x1="230.32" y1="357.38" x2="230.32" y2="353.84"/><text class="cls-43" transform="translate(265.51 347.31) rotate(180)">SCL</text><text class="cls-43" transform="translate(280.71 347.31) rotate(180)">SDA</text><text class="cls-43" transform="translate(296.69 347.31) rotate(180)">V-M</text><text class="cls-43" transform="translate(312.61 347.31) rotate(180)">GND</text><text class="cls-43" transform="translate(318.67 347.31) rotate(180)">3</text><text class="cls-43" transform="translate(332.31 347.31) rotate(180)">9</text><polyline class="cls-44" points="255.33 367.75 255.33 357 336.9 357 336.9 367.75"/><line class="cls-44" x1="262.13" y1="357" x2="262.13" y2="353.33"/><line class="cls-44" x1="275.49" y1="357" x2="275.49" y2="353.33"/><line class="cls-44" x1="289.05" y1="357" x2="289.05" y2="353.33"/><line class="cls-44" x1="302.91" y1="357" x2="302.91" y2="353.33"/><line class="cls-44" x1="316.35" y1="357" x2="316.35" y2="353.33"/><line class="cls-44" x1="330.14" y1="357" x2="330.14" y2="353.33"/><text class="cls-43" transform="translate(364.34 347.31) rotate(180)">SCL</text><text class="cls-43" transform="translate(379.54 347.31) rotate(180)">SDA</text><text class="cls-43" transform="translate(395.52 347.31) rotate(180)">V-M</text><text class="cls-43" transform="translate(411.44 347.31) rotate(180)">GND</text><text class="cls-43" transform="translate(419.83 347.31) rotate(180)">11</text><text class="cls-43" transform="translate(433.46 347.31) rotate(180)">10</text><polyline class="cls-44" points="354.16 367.75 354.16 357 435.73 357 435.73 367.75"/><line class="cls-44" x1="360.96" y1="357" x2="360.96" y2="353.33"/><line class="cls-44" x1="374.32" y1="357" x2="374.32" y2="353.33"/><line class="cls-44" x1="387.88" y1="357" x2="387.88" y2="353.33"/><line class="cls-44" x1="401.74" y1="357" x2="401.74" y2="353.33"/><line class="cls-44" x1="415.18" y1="357" x2="415.18" y2="353.33"/><line class="cls-44" x1="428.96" y1="357" x2="428.96" y2="353.33"/><rect class="cls-4" x="348.09" y="359.9" width="89.95" height="12.57"/><rect class="cls-45" x="348.09" y="368.04" width="89.95" height="99.65"/><path class="cls-46" d="M435.42,387.08v69.73a7.38,7.38,0,0,1-7.38,7.38H358.3a7.38,7.38,0,0,1-7.38-7.38V387.08a7.38,7.38,0,0,1,7.38-7.38H428A7.38,7.38,0,0,1,435.42,387.08Z"/><text class="cls-47" transform="translate(380.77 440.17)">1</text><text class="cls-48" transform="translate(380.77 440.17)">1</text><text class="cls-47" transform="translate(380.77 440.17)">1</text><rect class="cls-4" x="249.26" y="359.9" width="89.95" height="12.57"/><rect class="cls-45" x="249.26" y="368.04" width="89.95" height="99.65"/><path class="cls-46" d="M336.59,387.08v69.73a7.38,7.38,0,0,1-7.38,7.38H259.47a7.38,7.38,0,0,1-7.38-7.38V387.08a7.38,7.38,0,0,1,7.38-7.38h69.73A7.38,7.38,0,0,1,336.59,387.08Z"/><text class="cls-47" transform="translate(281.94 440.17)">2</text><text class="cls-48" transform="translate(281.94 440.17)">2</text><text class="cls-47" transform="translate(281.94 440.17)">2</text><rect class="cls-4" x="51.49" y="359.9" width="89.95" height="12.57"/><rect class="cls-45" x="51.49" y="368.04" width="89.95" height="99.65"/><path class="cls-49" d="M96.57,379.69h34.87a7.38,7.38,0,0,1,7.38,7.38v34.87a0,0,0,0,1,0,0H96.57a0,0,0,0,1,0,0V379.69A0,0,0,0,1,96.57,379.69Z"/><path class="cls-50" d="M61.71,379.69H96.57a0,0,0,0,1,0,0v42.25a0,0,0,0,1,0,0H54.32a0,0,0,0,1,0,0V387.08A7.38,7.38,0,0,1,61.71,379.69Z"/><path class="cls-51" d="M138.82,421.94v34.87a7.38,7.38,0,0,1-7.38,7.38H61.71a7.38,7.38,0,0,1-7.38-7.38V421.94h84.5Z"/><text class="cls-47" transform="translate(83.05 435.88)">4</text><text class="cls-48" transform="translate(83.05 435.88)">4</text><text class="cls-47" transform="translate(83.05 435.88)">4</text><rect class="cls-4" x="150.43" y="359.9" width="89.95" height="12.57"/><rect class="cls-45" x="150.32" y="368.04" width="88" height="99.65"/><path class="cls-49" d="M195.4,379.69h34.87a7.38,7.38,0,0,1,7.38,7.38v34.87a0,0,0,0,1,0,0H195.4a0,0,0,0,1,0,0V379.69A0,0,0,0,1,195.4,379.69Z"/><path class="cls-50" d="M160.54,379.69H195.4a0,0,0,0,1,0,0v42.25a0,0,0,0,1,0,0H153.15a0,0,0,0,1,0,0V387.08A7.38,7.38,0,0,1,160.54,379.69Z"/><path class="cls-51" d="M237.65,421.94v34.87a7.38,7.38,0,0,1-7.38,7.38H160.54a7.38,7.38,0,0,1-7.38-7.38V421.94h84.5Z"/><text class="cls-47" transform="translate(181.88 435.88)">3</text><text class="cls-48" transform="translate(181.88 435.88)">3</text><text class="cls-47" transform="translate(181.88 435.88)">3</text><rect class="cls-52" x="235.37" y="268.19" width="65.87" height="62.1" transform="translate(-30.93 567.55) rotate(-90)"/><path class="cls-5" d="M238.56,317.07V280.5a36.31,36.31,0,0,1,59,0v36.57a36.31,36.31,0,0,1-59,0Z"/><path class="cls-53" d="M238.56,323.74V287.17a36.31,36.31,0,0,1,59,0v36.57a36.31,36.31,0,0,1-59,0Z"/><text class="cls-54" transform="translate(258.92 283.72) rotate(90)">6R8</text><rect class="cls-55" x="260.54" y="264.78" width="9.71" height="8.75" transform="translate(-3.76 534.55) rotate(-90)"/><rect class="cls-55" x="262.69" y="333.54" width="5.41" height="8.75" transform="translate(-72.52 603.31) rotate(-90)"/><rect class="cls-56" x="261.55" y="266.56" width="9.71" height="5.2" transform="translate(-2.75 535.56) rotate(-90)"/><rect class="cls-56" x="263.7" y="335.31" width="5.41" height="5.2" transform="translate(-71.51 604.32) rotate(-90)"/><rect class="cls-32" x="467.22" y="345.27" width="14.97" height="20.16" rx="7.48" ry="7.48" transform="translate(830.06 -119.35) rotate(90)"/><rect class="cls-57" x="468.96" y="347.79" width="11.23" height="15.13" rx="5.61" ry="5.61" transform="translate(829.93 -119.22) rotate(90)"/><path class="cls-58" d="M548,341H514.08a3.52,3.52,0,0,0-3.52,3.52v29.8a3.52,3.52,0,0,0,3.52,3.52h8.27a5.79,5.79,0,0,1,5.78,6,6,6,0,0,1-6,5.61h-8a3.52,3.52,0,0,0-3.52,3.52v29.8a3.52,3.52,0,0,0,3.52,3.52H548Zm-32.58,26.11V350.73h10.42v16.35Zm0,49.39V400.12h10.42v16.35Z"/><rect class="cls-59" x="502.12" y="383.02" width="85.42" height="1.01" transform="translate(928.35 -161.31) rotate(90)"/><rect class="cls-60" x="503.75" y="381.89" width="85.42" height="3.27" transform="translate(929.99 -162.94) rotate(90)"/><rect class="cls-5" x="524.84" y="385.05" width="44.01" height="0.78" transform="translate(932.29 -161.41) rotate(90)"/><path class="cls-5" d="M580.5,393.84h0c0,5.25-1.79,13.61-7,13.61h-27V380.23h27C578.71,380.23,580.5,388.6,580.5,393.84Z"/><polyline class="cls-61" points="502.7 344.69 497.18 344.69 497.18 427.76 503.75 427.76"/><polyline class="cls-61" points="495.39 374.96 491.62 371.19 487.62 375.19"/><polyline class="cls-62" points="495.39 398.5 491.62 403.27 487.62 398.2"/><line class="cls-62" x1="491.62" y1="371.19" x2="491.62" y2="403.27"/><text class="cls-63" transform="translate(484.79 365.06) rotate(180)">ON</text><text class="cls-63" transform="translate(484.79 396.2) rotate(180)">OFF</text><polygon class="cls-32" points="469.74 357.53 470.91 352.06 480.92 352.37 482.14 355.35 469.74 357.53"/><rect class="cls-57" x="486.05" y="337.65" width="3.29" height="32.1" transform="translate(841.4 -133.99) rotate(90)"/><rect class="cls-64" x="496.86" y="348.46" width="3.29" height="10.49" transform="translate(852.21 -144.8) rotate(90)"/><rect class="cls-64" x="475.19" y="348.46" width="3.29" height="10.49" transform="translate(830.54 -123.13) rotate(90)"/><rect class="cls-32" x="467.22" y="405.89" width="14.97" height="20.16" rx="7.48" ry="7.48" transform="translate(58.73 890.68) rotate(-90)"/><rect class="cls-57" x="468.96" y="408.41" width="11.23" height="15.13" rx="5.61" ry="5.61" transform="translate(58.6 890.55) rotate(-90)"/><polygon class="cls-32" points="469.74 413.8 470.91 419.27 480.92 418.96 482.14 415.97 469.74 413.8"/><rect class="cls-57" x="486.05" y="401.57" width="3.29" height="32.1" transform="translate(70.07 905.32) rotate(-90)"/><rect class="cls-64" x="496.86" y="412.38" width="3.29" height="10.49" transform="translate(80.88 916.13) rotate(-90)"/><rect class="cls-64" x="475.19" y="412.38" width="3.29" height="10.49" transform="translate(59.21 894.46) rotate(-90)"/><rect class="cls-32" x="467.22" y="375.58" width="14.97" height="20.16" rx="7.48" ry="7.48" transform="translate(860.37 -89.05) rotate(90)"/><rect class="cls-57" x="468.96" y="378.1" width="11.23" height="15.13" rx="5.61" ry="5.61" transform="translate(860.24 -88.91) rotate(90)"/><rect class="cls-57" x="486.05" y="368.52" width="3.29" height="32.1" transform="translate(872.27 -103.12) rotate(90)"/><rect class="cls-64" x="496.86" y="379.33" width="3.29" height="10.49" transform="translate(883.08 -113.93) rotate(90)"/><rect class="cls-64" x="475.19" y="379.33" width="3.29" height="10.49" transform="translate(861.41 -92.26) rotate(90)"/><ellipse class="cls-65" cx="387.39" cy="171.56" rx="32.76" ry="32.15"/><path class="cls-66" d="M357,169.88c0,17.19,14.39,31.13,32.15,31.13s32.15-13.94,32.15-31.13-14.39-31.13-32.15-31.13S357,152.68,357,169.88Zm61.86.11c0,17.11-14,29.77-30.51,30.51S357.87,185.95,357.87,170c0-17.11,14-29.77,30.51-30.51S418.9,154,418.9,170Z"/><circle class="cls-67" cx="392.2" cy="169.88" r="29.13"/><circle class="cls-66" cx="392.2" cy="170.38" r="28.63"/><circle class="cls-5" cx="392.2" cy="169.88" r="4.82"/><ellipse class="cls-66" cx="391.59" cy="169.25" rx="3.75" ry="3.51"/><rect class="cls-4" x="148.54" y="105.5" width="93.62" height="13.09" transform="translate(390.7 224.09) rotate(180)"/><rect class="cls-45" x="148.54" y="6.39" width="93.62" height="103.72" transform="translate(390.7 116.51) rotate(180)"/><path class="cls-4" d="M151.26,10h36.29a7.69,7.69,0,0,1,7.69,7.69V54a0,0,0,0,1,0,0h-44a0,0,0,0,1,0,0V10A0,0,0,0,1,151.26,10Z" transform="translate(141.22 205.27) rotate(-90)"/><path class="cls-50" d="M195.23,54h44a0,0,0,0,1,0,0V98a0,0,0,0,1,0,0H202.92a7.69,7.69,0,0,1-7.69-7.69V54A0,0,0,0,1,195.23,54Z" transform="translate(141.22 293.22) rotate(-90)"/><path class="cls-51" d="M195.23,10h44a0,0,0,0,1,0,0V46.33A7.69,7.69,0,0,1,231.52,54H195.23a0,0,0,0,1,0,0V10A0,0,0,0,1,195.23,10Z" transform="translate(185.2 249.25) rotate(-90)"/><path class="cls-49" d="M158.94,54h36.29a0,0,0,0,1,0,0V98a0,0,0,0,1,0,0h-44a0,0,0,0,1,0,0V61.7A7.69,7.69,0,0,1,158.94,54Z" transform="translate(97.25 249.25) rotate(-90)"/><text class="cls-68" transform="translate(209.31 39.5) rotate(180)">6</text><text class="cls-69" transform="translate(209.31 39.5) rotate(180)">6</text><text class="cls-68" transform="translate(209.31 39.5) rotate(180)">6</text><rect class="cls-4" x="49.65" y="105.5" width="93.62" height="13.09" transform="translate(192.93 224.09) rotate(180)"/><rect class="cls-45" x="49.65" y="6.39" width="93.62" height="103.72" transform="translate(192.93 116.51) rotate(180)"/><path class="cls-50" d="M96.35,54h44a0,0,0,0,1,0,0V98a0,0,0,0,1,0,0H104a7.69,7.69,0,0,1-7.69-7.69V54A0,0,0,0,1,96.35,54Z" transform="translate(42.34 194.34) rotate(-90)"/><path class="cls-9" d="M140.33,17.72V54h-88V17.72A7.69,7.69,0,0,1,60.06,10h72.58A7.69,7.69,0,0,1,140.33,17.72Z"/><path class="cls-49" d="M60.06,54H96.35a0,0,0,0,1,0,0V98a0,0,0,0,1,0,0h-44a0,0,0,0,1,0,0V61.7A7.69,7.69,0,0,1,60.06,54Z" transform="translate(-1.64 150.36) rotate(-90)"/><text class="cls-68" transform="translate(110.42 39.5) rotate(180)">5</text><text class="cls-69" transform="translate(110.42 39.5) rotate(180)">5</text><text class="cls-68" transform="translate(110.42 39.5) rotate(180)">5</text><rect class="cls-4" x="346.25" y="105.5" width="93.62" height="13.09" transform="translate(786.12 224.09) rotate(180)"/><rect class="cls-45" x="346.25" y="6.39" width="93.62" height="103.72" transform="translate(786.12 116.51) rotate(180)"/><path class="cls-50" d="M392.95,54h44a0,0,0,0,1,0,0V98a0,0,0,0,1,0,0H400.63a7.69,7.69,0,0,1-7.69-7.69V54A0,0,0,0,1,392.95,54Z" transform="translate(338.94 490.94) rotate(-90)"/><path class="cls-51" d="M436.92,17.72V54H349V17.72A7.69,7.69,0,0,1,356.66,10h72.58A7.69,7.69,0,0,1,436.92,17.72Z"/><path class="cls-4" d="M356.66,54h36.29a0,0,0,0,1,0,0V98a0,0,0,0,1,0,0H349a0,0,0,0,1,0,0V61.7A7.69,7.69,0,0,1,356.66,54Z" transform="translate(294.96 446.96) rotate(-90)"/><text class="cls-68" transform="translate(407.12 39.5) rotate(180)">8</text><text class="cls-69" transform="translate(407.12 39.5) rotate(180)">8</text><text class="cls-68" transform="translate(407.12 39.5) rotate(180)">8</text><rect class="cls-4" x="247.42" y="105.5" width="93.62" height="13.09" transform="translate(588.46 224.09) rotate(180)"/><rect class="cls-45" x="247.42" y="6.39" width="93.62" height="103.72" transform="translate(588.46 116.51) rotate(180)"/><path class="cls-50" d="M294.12,54h44a0,0,0,0,1,0,0V98a0,0,0,0,1,0,0H301.8a7.69,7.69,0,0,1-7.69-7.69V54A0,0,0,0,1,294.12,54Z" transform="translate(240.11 392.11) rotate(-90)"/><path class="cls-51" d="M338.09,17.72V54h-88V17.72A7.69,7.69,0,0,1,257.83,10h72.58A7.69,7.69,0,0,1,338.09,17.72Z"/><path class="cls-4" d="M257.83,54h36.29a0,0,0,0,1,0,0V98a0,0,0,0,1,0,0h-44a0,0,0,0,1,0,0V61.7A7.69,7.69,0,0,1,257.83,54Z" transform="translate(196.13 348.13) rotate(-90)"/><text class="cls-68" transform="translate(304.91 39.5) rotate(180)">7</text><text class="cls-69" transform="translate(304.91 39.5) rotate(180)">7</text><text class="cls-68" transform="translate(304.91 39.5) rotate(180)">7</text><rect class="cls-70" x="462.82" y="233.96" width="34.61" height="52.65" transform="translate(960.25 520.57) rotate(180)"/><ellipse class="cls-7" cx="486.36" cy="236.34" rx="11.07" ry="13.62"/><ellipse class="cls-7" cx="469.05" cy="258.93" rx="11.07" ry="13.62"/><path class="cls-6" d="M471.52,268c-8.53,0-12.34-9-11.45-17a15.74,15.74,0,0,0-2.09,7.94c0,7.52,5,13.62,11.07,13.62,4.38,0,8.16-3.14,10-7.69A10.07,10.07,0,0,1,471.52,268Z"/><rect class="cls-4" x="465.17" y="236.34" width="15.47" height="38.13" transform="translate(945.81 510.82) rotate(180)"/><rect class="cls-4" x="495.83" y="231.17" width="62.7" height="48.48" transform="translate(1054.36 510.82) rotate(180)"/><rect class="cls-71" x="465.17" y="238.62" width="15.47" height="27.15" transform="translate(945.81 504.4) rotate(180)"/><rect class="cls-71" x="495.83" y="234.94" width="62.7" height="34.52" transform="translate(1054.36 504.4) rotate(180)"/><rect class="cls-4" x="549.06" y="226.37" width="15.47" height="58.08" transform="translate(1113.6 510.82) rotate(180)"/><rect class="cls-4" x="480.36" y="226.37" width="15.47" height="58.08" transform="translate(976.19 510.82) rotate(180)"/><polygon class="cls-71" points="564.53 284.51 549.06 226.43 564.53 226.43 564.53 284.51"/><polygon class="cls-71" points="495.83 284.45 480.36 226.43 495.83 226.37 495.83 284.45"/><rect class="cls-72" x="539.78" y="231.17" width="9.28" height="48.48" transform="translate(1088.84 510.82) rotate(180)"/><rect class="cls-72" x="495.83" y="231.17" width="7.62" height="48.48" transform="translate(999.28 510.82) rotate(180)"/><rect class="cls-72" x="474" y="236.34" width="6.36" height="38.13" transform="translate(954.36 510.82) rotate(180)"/><path class="cls-7" d="M535.77,97.29a.9.9,0,0,1-1.05.9,6.21,6.21,0,0,1,0-12,.9.9,0,0,1,1.05.9v.07A.91.91,0,0,1,535,88a4.3,4.3,0,0,0,0,8.31.91.91,0,0,1,.74.88Z"/><path class="cls-7" d="M491.77,97.29a.9.9,0,0,1-1.05.9,6.21,6.21,0,0,1,0-12,.9.9,0,0,1,1.05.9v.07A.91.91,0,0,1,491,88a4.3,4.3,0,0,0,0,8.31.91.91,0,0,1,.74.88Z"/><path class="cls-3" d="M537.57,101.2V50.72H491.39v50.76a.9.9,0,0,0,.9.9h.42a.9.9,0,0,0,.9-.9V53.39h42.14V101.2a.9.9,0,0,0,.66.87h0A.9.9,0,0,0,537.57,101.2Z"/><rect class="cls-4" x="503.16" y="43.84" width="23" height="42.09" transform="translate(579.55 -449.77) rotate(90)"/><rect class="cls-7" x="501.56" y="70.19" width="1.67" height="8.06" transform="translate(576.61 -428.17) rotate(90)"/><rect class="cls-7" x="524.96" y="70.19" width="1.67" height="8.06" transform="translate(600.01 -451.57) rotate(90)"/><rect class="cls-4" x="506.3" y="32.75" width="16.72" height="19.21" transform="translate(557.02 -472.3) rotate(90)"/><text class="cls-73" transform="translate(524.73 82.13) rotate(180)">RES<tspan class="cls-74" x="14.48" y="0">E</tspan><tspan x="19.04" y="0">T</tspan></text><use width="12.42" height="25.21" transform="translate(472.9 165.96) rotate(-90)" xlink:href="#_03"/><use width="12.42" height="25.21" transform="translate(329.9 159.63) rotate(-90)" xlink:href="#_03"/><use width="12.42" height="25.21" transform="translate(228.9 253.29) rotate(-90) scale(0.69 0.89)" xlink:href="#_03"/><use width="12.42" height="25.21" transform="translate(101.39 334.28) rotate(-90) scale(0.84 0.94)" xlink:href="#_03"/><use width="12.42" height="25.21" transform="translate(300.89 280.78) rotate(-90) scale(0.86 0.92)" xlink:href="#_03"/><use width="12.42" height="25.21" transform="translate(324.39 280.78) rotate(-90) scale(0.86 0.92)" xlink:href="#_03"/><use width="12.42" height="25.21" transform="translate(242.04 193.35) rotate(180)" xlink:href="#_03"/><use width="12.42" height="25.21" transform="translate(279.29 255.71) rotate(180) scale(0.75 0.83)" xlink:href="#_03"/><use width="12.42" height="25.21" transform="translate(215.29 260.04) rotate(180) scale(0.75 0.83)" xlink:href="#_03"/><use width="12.42" height="25.21" transform="translate(224.96 260.04) rotate(180) scale(0.75 0.83)" xlink:href="#_03"/><use width="12.42" height="25.21" transform="translate(310.8 313.57) rotate(180) scale(0.75 0.83)" xlink:href="#_03"/><use width="12.42" height="25.21" transform="translate(472.9 154.46) rotate(-90)" xlink:href="#_03"/><use width="12.42" height="25.21" transform="translate(472.9 142.21) rotate(-90)" xlink:href="#_03"/><use width="12.42" height="25.21" transform="translate(479.9 131.21) rotate(-90)" xlink:href="#_03"/><use width="12.42" height="25.21" transform="translate(103.56 160.88) rotate(-90)" xlink:href="#_03"/><use width="12.42" height="25.21" transform="translate(185.23 163.54) rotate(-90) scale(1.14 1.02)" xlink:href="#_03"/><use width="7.33" height="17" transform="translate(510.77 108.15) rotate(-90)" xlink:href="#_03_2"/><use width="7.33" height="17" transform="translate(258.77 218.65) rotate(-90)" xlink:href="#_03_2"/><use width="7.33" height="17" transform="translate(258.02 218.65) rotate(-90)" xlink:href="#_03_2"/><use width="21.68" height="25.35" transform="translate(350.24 188.33) rotate(180) scale(0.89 0.77)" xlink:href="#_04"/><use width="21.68" height="25.35" transform="matrix(0, -0.91, 0.74, 0, 234, 219.5)" xlink:href="#_04"/><use width="21.68" height="25.35" transform="matrix(0, -0.91, 0.74, 0, 234, 241.5)" xlink:href="#_04"/><use width="21.68" height="25.35" transform="translate(462.88 147.97) rotate(180) scale(0.89 0.77)" xlink:href="#_04"/><path class="cls-9" d="M553.83,160.09v2l5.5,1.9v2.13l-6.75-2.33H519.33V111h33.25l6.75-2.33v2.13l-5.5,1.9v2l6,1.8v41.74Z"/><path class="cls-75" d="M527,128.75v3.56h-7.63v-8.15h3.81l.26-2.75,2.1-1.46v8.79Z"/><path class="cls-75" d="M527,144.84v-3.59h-7.63v8.2h3.81l.26,2.77,2.1,1.47v-8.85Z"/><rect class="cls-22" x="538.83" y="117.46" width="11.67" height="5.25"/><rect class="cls-22" x="538.83" y="150.96" width="11.67" height="5.25"/><rect class="cls-75" x="538.67" y="117.46" width="2.21" height="5.25"/><rect class="cls-75" x="538.67" y="150.96" width="2.21" height="5.25"/><text class="cls-42" transform="translate(80.25 310.82) rotate(90)">V-M GND</text><text class="cls-76" transform="translate(448.6 224.97) rotate(90)">DC 6~12V</text><text class="cls-77" transform="translate(539.77 171.49) rotate(90)">PWR L RX TX</text><text class="cls-78" transform="translate(476.4 298.9) rotate(90)">VIN GND</text><text class="cls-79" transform="translate(92 203.9) rotate(90)">M1+M2- M2+M2-</text><text class="cls-80" transform="translate(94.71 143.65) rotate(90)">ICSP</text><rect class="cls-51" x="38.5" y="306.51" width="40" height="40"/><rect class="cls-81" x="38.5" y="323.91" width="4.28" height="5.19"/><rect class="cls-81" x="72.83" y="318.97" width="5.67" height="13.87"/><rect class="cls-9" x="476.66" y="74.7" width="3.63" height="10.3"/><rect class="cls-22" x="476.66" y="71.64" width="3.63" height="8.21"/><rect class="cls-9" x="455.31" y="74.7" width="3.63" height="10.3"/><rect class="cls-22" x="455.31" y="71.64" width="3.63" height="8.21"/><text class="cls-77" transform="translate(475.52 94.96) rotate(180)">BUZZER</text><text class="cls-77" transform="translate(480.3 88.29) rotate(180)">OFF</text><text class="cls-77" transform="translate(452.45 88.29) rotate(180)">ON</text><line class="cls-18" x1="455.28" y1="90.63" x2="464.18" y2="90.63"/><polygon class="cls-51" points="456.94 92.67 457.28 92.3 455.48 90.63 457.28 88.95 456.94 88.58 454.74 90.63 456.94 92.67"/><polygon class="cls-51" points="462.52 92.67 462.18 92.3 463.99 90.63 462.18 88.95 462.52 88.58 464.72 90.63 462.52 92.67"/><rect class="cls-22" x="442.03" y="53.39" width="45.19" height="19.36"/><rect class="cls-75" x="484.73" y="53.39" width="2.49" height="2.49"/><rect class="cls-75" x="484.73" y="70.26" width="2.49" height="2.49"/><rect class="cls-75" x="442.03" y="53.39" width="2.49" height="2.49"/><rect class="cls-75" x="442.03" y="70.26" width="2.49" height="2.49"/><rect class="cls-9" x="463.47" y="43" width="11.25" height="10.39"/></g><g id="Layer_5" data-name="Layer 5"><path class="cls-2" d="M72.17,274.6H83.3A5.37,5.37,0,0,1,88.67,280v2.6a5.37,5.37,0,0,1-5.37,5.37H72.17a0,0,0,0,1,0,0V274.6A0,0,0,0,1,72.17,274.6Z" transform="translate(160.83 562.54) rotate(-180)"/><path class="cls-7" d="M81.23,287.17V289h8.39V273.34H81.23v1.17C87,275.36,87,286.31,81.23,287.17Z"/><path class="cls-2" d="M72.17,247.36H83.3a5.37,5.37,0,0,1,5.37,5.37v2.6a5.37,5.37,0,0,1-5.37,5.37H72.17a0,0,0,0,1,0,0V247.36A0,0,0,0,1,72.17,247.36Z" transform="translate(160.83 508.06) rotate(-180)"/><path class="cls-7" d="M81.23,259.94v1.85h8.39V246.1H81.23v1.17C87,248.13,87,259.07,81.23,259.94Z"/><path class="cls-2" d="M72.17,221.31H83.3a5.37,5.37,0,0,1,5.37,5.37v2.6a5.37,5.37,0,0,1-5.37,5.37H72.17a0,0,0,0,1,0,0V221.31A0,0,0,0,1,72.17,221.31Z" transform="translate(160.83 455.96) rotate(-180)"/><path class="cls-7" d="M81.23,233.89v1.85h8.39V220H81.23v1.17C87,222.08,87,233,81.23,233.89Z"/><path class="cls-2" d="M72.17,194.07H83.3a5.37,5.37,0,0,1,5.37,5.37V202a5.37,5.37,0,0,1-5.37,5.37H72.17a0,0,0,0,1,0,0V194.07A0,0,0,0,1,72.17,194.07Z" transform="translate(160.83 401.49) rotate(-180)"/><path class="cls-7" d="M81.23,206.65v1.85h8.39V192.81H81.23V194C87,194.84,87,205.79,81.23,206.65Z"/><rect class="cls-82" x="60.12" y="311.71" width="4.5" height="4.5"/><rect class="cls-83" x="60.46" y="312.04" width="3.83" height="3.83"/><polygon class="cls-84" points="64.29 315.88 60.45 312.04 64.29 312.04 60.45 315.88 64.29 315.88"/><path class="cls-4" d="M77.45,172.65h7.81l4.22-4.22V143.22L85.26,139H77.45l-4.22,4.22v25.21Z"/><rect class="cls-82" x="79.1" y="145.81" width="4.5" height="4.5"/><rect class="cls-83" x="79.44" y="146.15" width="3.83" height="3.83"/><polygon class="cls-84" points="83.27 149.98 79.44 146.15 83.27 146.15 79.44 149.98 83.27 149.98"/><rect class="cls-82" x="79.1" y="161.54" width="4.5" height="4.5"/><rect class="cls-83" x="79.44" y="161.87" width="3.83" height="3.83"/><polygon class="cls-84" points="83.27 165.71 79.44 161.87 83.27 161.87 79.44 165.71 83.27 165.71"/><path class="cls-4" d="M58.19,172.65H66l4.22-4.22V143.22L66,139H58.19L54,143.22v25.21Z"/><rect class="cls-82" x="59.84" y="145.81" width="4.5" height="4.5"/><rect class="cls-83" x="60.17" y="146.15" width="3.83" height="3.83"/><polygon class="cls-84" points="64 149.98 60.17 146.15 64 146.15 60.17 149.98 64 149.98"/><rect class="cls-82" x="59.84" y="161.54" width="4.5" height="4.5"/><rect class="cls-83" x="60.17" y="161.87" width="3.83" height="3.83"/><polygon class="cls-84" points="64 165.71 60.17 161.87 64 161.87 60.17 165.71 64 165.71"/><path class="cls-4" d="M40,172.65h7.81L52,168.43V143.22L47.79,139H40l-4.22,4.22v25.21Z"/><rect class="cls-82" x="41.63" y="145.81" width="4.5" height="4.5"/><rect class="cls-83" x="41.97" y="146.15" width="3.83" height="3.83"/><polygon class="cls-84" points="45.8 149.98 41.97 146.15 45.8 146.15 41.97 149.98 45.8 149.98"/><rect class="cls-82" x="41.63" y="161.54" width="4.5" height="4.5"/><rect class="cls-83" x="41.97" y="161.87" width="3.83" height="3.83"/><polygon class="cls-84" points="45.8 165.71 41.97 161.87 45.8 161.87 41.97 165.71 45.8 165.71"/><rect class="cls-82" x="60.12" y="335.8" width="4.5" height="4.5"/><rect class="cls-83" x="60.46" y="336.14" width="3.83" height="3.83"/><polygon class="cls-84" points="64.29 339.97 60.45 336.14 64.29 336.14 60.45 339.97 64.29 339.97"/><rect class="cls-7" x="243.22" y="144.16" width="6.01" height="22" rx="2.27" ry="2.27"/><rect class="cls-6" x="243.6" y="144.95" width="5.25" height="19.6" rx="2" ry="2"/><rect class="cls-85" x="8.42" y="185.73" width="73.67" height="52.68"/><rect class="cls-86" x="26.95" y="185.73" width="4.3" height="52.68"/><rect class="cls-85" x="8.42" y="239.91" width="73.67" height="52.68"/><rect class="cls-86" x="26.95" y="239.91" width="4.3" height="52.68"/></g></g></svg>