<?xml version="1.0" encoding="utf-8"?>
<!-- Generator: Adobe Illustrator 21.0.0, SVG Export Plug-In . SVG Version: 6.00 Build 0)  -->
<svg version="1.1" id="Layer_1" xmlns="http://www.w3.org/2000/svg" xmlns:xlink="http://www.w3.org/1999/xlink" x="0px" y="0px"
	 viewBox="0 0 491.2 463.9" style="enable-background:new 0 0 491.2 463.9;" xml:space="preserve">
<style type="text/css">
	.st0{fill:#868391;}
	.st1{fill:#141213;}
	.st2{fill:#100F10;}
	.st3{fill:#2C2C2E;}
	.st4{fill:#253F50;}
	.st5{fill:#121112;}
	.st6{fill:#2A5376;}
	.st7{fill:#2C82A1;}
	.st8{fill:#3793C4;}
	.st9{fill:#092B4C;}
	.st10{fill:#212126;}
	.st11{fill:#A3A3A3;}
	.st12{fill:#D0CFCB;}
	.st13{fill:#589DC1;}
	.st14{fill:#0E0D10;}
	.st15{fill:#141314;}
	.st16{fill:#586567;}
	.st17{fill:#272626;}
	.st18{fill:#F4F0ED;}
	.st19{fill:none;}
	.st20{fill:#C2BEBD;}
	.st21{fill:#121F2D;}
	.st22{fill:#CBCCB8;}
	.st23{fill:#444242;}
	.st24{fill:#AEADB3;}
	.st25{fill:#727176;}
	.st26{fill:#928FA4;}
	.st27{fill:#868986;}
	.st28{fill:#272728;}
	.st29{fill:#2B292F;}
	.st30{fill:#D8D9DD;}
	.st31{fill:#175D88;}
	.st32{fill:#0A3B57;}
	.st33{fill:#0F0D10;}
	.st34{fill:none;stroke:#1B1A1C;stroke-width:3;stroke-miterlimit:10;}
	.st35{fill:none;stroke:#ABA9AE;stroke-width:3;stroke-miterlimit:10;}
	.st36{fill:#9A999E;}
	.st37{fill:#408EB1;}
	.st38{fill:#E2D1D1;}
	.st39{opacity:0.34;fill:#586567;}
	.st40{fill:#1B1A1C;}
	.st41{fill:#485C5F;}
	.st42{fill:#5F5F5F;}
	.st43{fill:#D78B61;}
	.st44{fill:#0F3F49;}
	.st45{fill:#76271D;}
	.st46{fill:#874A2B;}
	.st47{fill:#2A282F;}
	.st48{fill:#37322E;}
	.st49{fill:#2A2A2E;}
	.st50{fill:#343434;}
	.st51{fill:#CBC7C4;}
	.st52{fill:#FFFDF4;}
	.st53{fill:#1B1620;}
	.st54{fill:none;stroke:#2D2C2E;stroke-miterlimit:10;}
	.st55{fill:#424242;}
	.st56{fill:#2D2C2E;}
	.st57{fill:#88878F;}
	.st58{fill:#F7F7F8;}
	.st59{fill:#C4C5BD;}
	.st60{fill:#232224;}
	.st61{fill:#FFFFFC;}
	.st62{fill:#FFFFFE;}
	.st63{fill:#C1B99F;}
	.st64{opacity:0.35;fill:#4D4A51;}
	.st65{fill:none;stroke:#D0B65C;stroke-miterlimit:10;}
	.st66{fill:#E6B54A;}
	.st67{opacity:0.52;fill:#4D4A51;}
	.st68{fill:none;stroke:#928FA4;stroke-width:0.5;stroke-miterlimit:10;}
	.st69{fill:#141418;}
	.st70{fill:#646360;}
	.st71{fill:#DEDEDD;}
</style>
<path class="st0" d="M134.1,228l0.4,4.3l91.8,41.9l29.8-1.4l81.3-45.3c3.1-1.7,5.1-5.1,4.9-8.7c-0.2-2.8-1.6-5.9-6.3-7.8
	c-10.6-4.4-36.3-14.2-36.3-14.2l-138.1,6l-16.1-1.1L134.1,228z"/>
<g>
	<path class="st1" d="M136.2,303c-0.2-0.4-8.2-4.7-8.2-4.7s5.8-4.6,6.1-4.7s4.5,0.5,4.5,0.5L136.2,303z"/>
	<path class="st1" d="M162.8,285.1c-0.2-0.4-8.2-4.7-8.2-4.7s5.8-4.6,6.1-4.7c0.2-0.1,4.5,0.5,4.5,0.5L162.8,285.1z"/>
	<path class="st1" d="M187.8,267.8c-0.2-0.4-8.2-4.7-8.2-4.7s5.8-4.6,6.1-4.7s4.5,0.5,4.5,0.5L187.8,267.8z"/>
	<path class="st1" d="M211.3,252.2c-0.2-0.4-8.2-4.7-8.2-4.7s5.8-4.6,6.1-4.7c0.2-0.1,4.5,0.5,4.5,0.5L211.3,252.2z"/>
	<path class="st1" d="M275.4,197.8c-0.2-0.4-8.2-4.7-8.2-4.7s5.8-4.6,6.1-4.7c0.2-0.1,4.5,0.5,4.5,0.5L275.4,197.8z"/>
	<path class="st1" d="M234.4,237c-0.2-0.4-8.2-4.7-8.2-4.7s5.8-4.6,6.1-4.7c0.2-0.1,4.5,0.5,4.5,0.5L234.4,237z"/>
	<path class="st1" d="M256.3,224.4c-0.2-0.4-8.2-4.7-8.2-4.7s5.8-4.6,6.1-4.7c0.2-0.1,4.5,0.5,4.5,0.5L256.3,224.4z"/>
	<polygon class="st2" points="255.8,119.7 275.6,128.4 264.1,136.4 246.7,128.4 	"/>
	<polyline class="st3" points="137.7,294.9 135.8,298.6 136.2,303 138.2,302.9 143.5,300.4 146.2,293.5 153.7,288.4 157.5,290.7 
		161.2,287.6 159.5,277 138.7,289.8 137.7,294.9 137.7,294.9 	"/>
	<polygon class="st3" points="163.1,276.2 160.6,283 162.8,285.2 169.5,282.4 171.8,275.6 178.8,271.2 182.5,273.4 185.9,270.9 
		185.8,264.5 184.9,261.5 	"/>
	<polygon class="st3" points="211.9,243.9 210.7,249.3 211.3,252.3 213.7,252.3 217.7,250.4 220.3,243.7 225.7,240.7 230,242.4 
		232.8,240.4 232.6,236.6 233.5,235.2 232.4,231.6 220.1,238.1 	"/>
	<path class="st3" d="M187.9,259.2c-0.2,0.4-1.2,5.8-1.2,5.8l1,2.9l6.2-1.9l2.6-7l5.7-3.4l4.8,2l2.7-2.4l-0.1-3.9l-0.3-4.2l-9.8,2.8
		L187.9,259.2z"/>
	<polygon class="st3" points="235.9,228 234,233.2 234.3,237 236.5,237.4 240.5,236.1 242.6,229.9 247.7,226.9 252.6,228.2 
		255.1,225.9 254.5,214.9 	"/>
	<polygon class="st3" points="257.1,213 255.1,221.6 256.2,224.4 257.2,224.4 262.3,220.3 263.8,214.2 271.9,204.5 274,205.1 
		276.5,201.7 273.4,196.1 266.4,199.9 	"/>
	<polygon class="st3" points="273.4,193.8 275.3,197.8 277.6,198.7 280.1,195.1 283.5,187.2 282.1,183.6 286.6,169.1 290.3,164.4 
		290.4,161.7 285.1,162.3 279.8,174 	"/>
	<path class="st3" d="M286.8,128.6l-0.5,0.9l0.6,8.5l1.8,8.5l3.2,1.4l-0.8,9.5l-2.2,3l-1.2,2.2l-4.4,0.4l-3.9-19.6l-5.8-8.1l8.4-1
		C282,134.5,285.9,134.1,286.8,128.6z"/>
	<path class="st3" d="M247.5,137.9l-1,7.4l8.8-5.6l8.4-3.8c0,0,3-1.2,3.6-3.2s2.1-7-1.9-5.7c-4,1.3-14.4,8.8-14.8,8.9
		s-4.7,0.8-4.7,0.8l1.6,2.3"/>
	<path class="st3" d="M269.7,126.4l-2.4,6.3l-4.5,5.2l4.2,0.8l7.5-5.4l7,2.2l2.8-0.7l3.3-4l-1.1-3.7c0,0-1.8-2.8-2.2-3.3
		c-0.3-0.4-8.3-0.5-8.3-0.5L269.7,126.4"/>
	<path class="st4" d="M260.7,132c-2.7-1-5.7-1.1-8.7-0.4c9,7.5,10.4,26.9,2.8,46.7c-6.8,17.6-18.8,30.4-29.6,32.9
		c1.2,1,2.6,1.8,4.1,2.4c12.5,4.6,29.7-10,38.3-32.6C276.4,158.5,273.3,136.6,260.7,132z"/>
	<polyline class="st3" points="263.2,136 265.5,137.3 267.8,135.8 262.1,131.8 261,134.8 263.2,136 	"/>
	<polygon class="st5" points="107,268.6 125.3,291.4 98.9,291.6 103.2,276.2 105,271.9 105.8,270.7 	"/>
	<path class="st6" d="M109,263.3l0.8,6.5l-2.8,2.4l-2.7,12.4c0,0,5.2,3.3,9.4,2.7c4.2-0.6,5.1-16.6,5.3-17c0.5-1.2-0.4-13-0.4-13
		L109,263.3z"/>
	<path class="st6" d="M224.8,168.6c-8.7,22.5-5.6,44.5,6.9,49.1c12.5,4.6,29.7-10,38.3-32.6s5.6-44.5-6.9-49.1
		C250.6,131.5,233.5,146,224.8,168.6z"/>
	<path class="st7" d="M132.5,205.9c0,0,16.1-3.3,17.6,6.2c5.6-3.1,65.4-36.5,65.1-36.5c-0.2,0-0.9-8.3,1.8-12.5
		c-8,4.1-69.1,37.3-69.3,37.3c-0.2,0-2.5,1.6-2.5,1.6l0.2,0.9"/>
	<polygon class="st8" points="124.6,218.7 126.1,233.5 131.1,235.7 120.7,248.8 126.4,252.8 129.6,279.2 123,284 120.9,284.6 
		118.3,256.7 105.6,265.2 106.3,250.6 108.7,242.3 113.8,236.5 114.2,222.9 	"/>
	<path class="st9" d="M143.6,201.9c0.7-0.4,7.9,9,6.4,14.4c-1.5,5.4-15.6,15.5-15.6,15.5l-5.6,3.1l-6.4-1.4l-1.3-9.6l2.9-8l9.3-7.5
		L143.6,201.9z"/>
	<path class="st10" d="M110.3,177.2c0.5,0,9.7-3.1,9.7-3.1l43.3,14.4l-0.1,2.8l-11,6.2L110.3,177.2z"/>
	<g>
		<path class="st11" d="M95.5,283.4c-0.5,1.3-0.3,2.5,0.5,2.8c0.8,0.3,1.8-0.5,2.3-1.8c0.5-1.3,0.3-2.5-0.5-2.8
			C97,281.3,96,282.1,95.5,283.4z"/>
		<path class="st12" d="M245.3,145.2c0.2-0.8,0-1.6-0.5-1.7c-0.5-0.1-1.1,0.4-1.3,1.3s0,1.6,0.5,1.7
			C244.5,146.6,245,146,245.3,145.2z"/>
		<path class="st12" d="M221,159.7c0.2-0.8,0-1.6-0.5-1.7c-0.5-0.1-1.1,0.4-1.3,1.3c-0.2,0.8,0,1.6,0.5,1.7
			C220.2,161.1,220.8,160.5,221,159.7z"/>
		<path class="st12" d="M195.3,173.7c0.2-0.8,0-1.6-0.5-1.7c-0.5-0.1-1.1,0.4-1.3,1.3c-0.2,0.8,0,1.6,0.5,1.7
			C194.5,175.1,195.1,174.6,195.3,173.7z"/>
		<path class="st12" d="M168.4,188.5c0.2-0.8,0-1.6-0.5-1.7c-0.5-0.1-1.1,0.4-1.3,1.3c-0.2,0.8,0,1.6,0.5,1.7
			C167.6,189.9,168.2,189.3,168.4,188.5z"/>
		<path class="st12" d="M110.9,237.9c0.2-0.8,0-1.6-0.5-1.7c-0.5-0.1-1.1,0.4-1.3,1.3s0,1.6,0.5,1.7
			C110.1,239.3,110.7,238.7,110.9,237.9z"/>
		<path class="st12" d="M140.4,203.1c0.2-0.8,0-1.6-0.5-1.7c-0.5-0.1-1.1,0.4-1.3,1.3c-0.2,0.8,0,1.6,0.5,1.7
			C139.6,204.5,140.1,204,140.4,203.1z"/>
	</g>
	<path class="st6" d="M209.9,162.8c-8.7,22.5-5.6,44.5,6.9,49.1s29.7-10,38.3-32.6c8.7-22.5,5.6-44.5-6.9-49.1
		S218.6,140.2,209.9,162.8z"/>
	<path class="st4" d="M224.7,182.5l5.4,1.9l-4.5,12l1.7,12.5l5,2.4l3.4-1.7c0,0,5.5-16.9,5.5-17.2c0-0.3,3.9-11.7,3.9-11.7l-2.8-6.6
		l8.3-9l7.8-19.9c0,0,1.6-9.7,1.3-9.8s-11.6-1.1-11.6-1.1s-21.7,20-22.2,20.6s-9.4,13.6-9.4,13.6L224.7,182.5z"/>
	<g>
		<g>
			<path class="st4" d="M224.8,168.6c7.3-19,20.7-32.4,32.2-33.3c-1.4-1.3-3-2.3-4.7-2.9c-12.5-4.6-29.7,10-38.3,32.6
				c-8.7,22.5-5.6,44.5,6.9,49.1c1.9,0.7,4,1,6.1,0.8C218.6,206.9,217.4,187.9,224.8,168.6z"/>
		</g>
	</g>
	<polygon class="st4" points="252.3,132.3 263.2,136 250.5,142.2 249.3,134.8 	"/>
	<path class="st13" d="M239,217.3c-12.5-4.6-15.6-26.5-6.9-49.1c6.7-17.3,18.3-29.9,29-32.8c-0.7-0.1-1.4-0.2-2.2-0.2
		c-11.9-0.5-26.4,13.3-34.1,33.4c-8.7,22.5-5.6,44.5,6.9,49.1c2.9,1.1,6.1,1.1,9.3,0.2C240.3,217.7,239.6,217.5,239,217.3z"/>
	<path class="st13" d="M249,163.9l9.9-28.7c0,0,1.4-0.3,5.8,1.4c0.3,0.1-10,29.5-10,29.5l12.9,2.9l-2.9,9.9c0,0-13.5,0.2-13.3,0.3
		s-2.6,2.1-2.6,2.1l-12.5,35.3l-7.6-5.7l1-1.8l3.2-0.1c0,0,4.6-9.9,4.6-10.2c0-0.3,5.6-17.6,5.6-17.6l-1.3-4.6l-15.2,0l6.2-13.9
		l1.2,2.9l11.3,0.7L249,163.9z"/>
	<path class="st13" d="M259.6,169.8"/>
	<path class="st14" d="M147.7,244.1l63.6-35.9l2.7,2.1c2.2,1,4.2,2.1,5.8,2.9l7.2,1.4l5.6-0.5c0,0,1.2,2.4,1.1,2.1s1.5-6.1,1.5-6.1
		l4.2-2.4l3.4-0.7l6.2-7.2l2.5,0.3l2-2.8l-0.1-2.1l4-6.2l2.1,0.2c0,0,2.9-3.7,2.6-3.8s-1.5-7.4-1.5-7.6c0-0.2,1.7-2.4,1.7-2.4
		s2.2-1,2.4-1.2c0.2-0.1,1.8-2.4,1.8-2.4l1.2-3.3l-1.9-3.3l2.6-7.7l2.8-2.5l-0.3-1.5l-3-2.2l-0.4-7.6l-2.2-5.4l-2.8-2.7l2.9,1.5
		l7-5.2l3,0.1l5.7,2l3-0.6l3.6-4.1l-4.4,7.3c0,0,2.5,3.5,2.9,10.1c0.4,6.6,1.4,11.4-3,26.5c-4.4,15.1-9.2,23.7-14.4,31.3
		s-31,23.2-33.6,24.8c-2.6,1.6-26.7,17.4-26.7,17.4l-44.7,29.2l-26,17.7l-4.2,3c0,0-2.2,2.6-7.9,3.2c-5.7,0.6,2-5.5,2-5.5l11.6-8.4
		l-4.6-10.6l-2.9-0.6c0,0,6.8-10.5,11.1-18.3C147.2,249,147.7,244.1,147.7,244.1z"/>
	<path class="st1" d="M205.2,124l-0.3,3.4c0,0,38.7,14.1,39,14s0.6,1.5,0.6,1.5l0.3,3.5l1.6-1.1l1-7.4L205.2,124z"/>
	<polygon class="st5" points="66.5,280.7 104.9,297.4 109.7,302.3 107.1,308.7 63.9,287.1 	"/>
	<polygon class="st2" points="224.7,151.5 224.9,160.2 181.8,140.8 181.5,136.9 197.7,141.8 	"/>
	<polyline class="st15" points="121.1,230.9 117.4,230.8 78.4,215.3 73.2,208.4 96.4,210.9 119.2,225.4 121.1,230.9 	"/>
	<path class="st16" d="M206.3,167.1c-0.4-0.3-3.1-5.1-3.1-5.1l-4.2,2.8l1.8,5.6l3.8-0.2L206.3,167.1z"/>
	<polygon class="st10" points="189,137 195.7,133.7 237.9,148.5 237.8,149.5 228.3,153.1 227.3,149.8 	"/>
	<polygon class="st10" points="164.7,149.5 171,146.5 214.2,162.2 204.2,167.4 202.6,163.3 	"/>
	<polygon class="st2" points="200.6,165.8 200.6,174 156.8,152.5 156.6,149.3 159.9,148.9 	"/>
	<polygon class="st16" points="156.8,152.5 197.1,168.6 195.1,171.9 148.3,153.2 	"/>
	<polygon class="st2" points="130.2,163.6 130.8,168.5 170.6,186.1 173.5,188.2 174.9,188.2 179,180.2 172.4,174.6 148.3,167.8 	"/>
	<path class="st16" d="M147.4,202.7c0,0,26.1-14.5,26.1-14.5c0-0.2,0-1.7-0.1-3.1c-0.1-1.6-1.6-2.7-3.1-2.5l-0.8,0.1
		c-1.5,0.2-5.3,6.6-6.6,7.4l-14.1,7.7L147.4,202.7z"/>
	<path class="st16" d="M130.2,163.6l11.1,4.3l-2.2,2.1l19.9,8.1l3.2-2.6l12.7,5.2l0,7.5l24-14c0,0,1.7-4.9-1.8-5.6
		c-4.3,0.9-5.8,1.7-5.8,1.7l-43-17l-2.8,7.2l-6,2.9l-5.7-1.9L130.2,163.6z"/>
	<polygon class="st16" points="64.5,246.1 57,250.1 101.7,270.4 105.6,271.8 107.2,264.7 104.2,260.8 	"/>
	<path class="st1" d="M91.9,271.1l8.8,5.4l6.3-2.4l-3,3.5c0,0-0.4,0.2-1.5,0.3c-1.1,0.1-0.8,0.5-0.8,0.5l-12.6-4.8l1.6,4.4l-1.7,3.8
		l-20.9-8.5l-0.9-6.4l-10-5.6l2.2-3.8l32,8.4L91.9,271.1z"/>
	<polygon class="st10" points="57,250.1 101.7,270.4 105,268.2 105.5,266.3 107.2,264.7 106.9,270.9 107,274.1 100.7,276.4 
		87.8,271 88.1,277.3 68.6,269.2 68.6,262 56,255.9 	"/>
	<path class="st17" d="M56.7,263l0.5-1.7l10.7,5l0.2,6.9l20.9,8.5l0.1-8.3l12.6,4.8c-1.9,4.1,0,14.2,0,14.2l2.4-0.9l1.9,6.3
		l-39.5-17.4l-3.1-6.2l-6-3.1L56.7,263"/>
	<polygon class="st15" points="103.2,176.8 114.4,181.5 109.1,185.7 128.9,193.3 134.6,189 147.7,193.8 147.4,202.7 134.4,199.5 
		103,186.5 103.2,181.8 	"/>
	<path class="st16" d="M91.8,184.8l8.6-5.4l10.6,4.2l-3.8,3.1l20.8,8.2l4.2-3.1l13.2,5.4c0,0,0.3,2.1-0.2,5.9
		c-0.2,1.4-32.4-8.7-32.6-8.7C112.4,194.4,91.8,184.8,91.8,184.8z"/>
	<polygon class="st2" points="121.8,167 167.5,184.4 164.2,188.6 163.5,189.5 163.3,189.8 163.1,189.9 118.7,174.1 	"/>
	<path class="st16" d="M129,165.9l-7.5,1.2l45.6,18.3c0,0,2.9-3.2,4.6-2.6C166.6,180.8,129,165.9,129,165.9z"/>
	<polygon class="st2" points="145.5,160.5 188.7,176.5 191.3,170.2 149.4,153.7 148.3,153.2 	"/>
	<polygon class="st2" points="173.4,140.5 171,146.5 214.2,162.2 217,156.1 	"/>
	<polygon class="st2" points="240.6,142.7 238.2,148.9 195,133.9 197,128.1 	"/>
	<polygon class="st2" points="220.5,115.1 263.3,128.9 261,134.8 217.6,120.7 	"/>
	<polygon class="st2" points="229.3,111.6 239.2,114.9 236.8,117.1 227.7,114.3 	"/>
	<polygon class="st2" points="231.4,110.8 272.5,123.7 273,125.5 281.5,128.6 284.3,123.9 243,110.2 241.8,112.9 232.6,110 	"/>
	<path class="st10" d="M200.8,173.8l0-4.1c0,0,3.2-3.2,13.4-7.5"/>
	<path class="st16" d="M200.6,169.5c0,0,3.2-3,13.3-7.3c1.3-3.8,2.9-6.9,2.9-6.9l6-0.9c0,0,1.7,0.4,0.8,4.1c-0.9,3.8-3.4,4.1-7,6.4
		c-6.7,3.6-16.4,9.2-16,9L200.6,169.5z"/>
	<ellipse transform="matrix(0.4132 -0.9106 0.9106 0.4132 10.7021 306.5316)" class="st18" cx="243.2" cy="145" rx="1.7" ry="1.1"/>
	
		<ellipse transform="matrix(0.4132 -0.9106 0.9106 0.4132 9.5487 305.9481)" class="st18" cx="242.2" cy="145.6" rx="1.7" ry="1.1"/>
	<polygon class="st10" points="188.7,176.5 183.7,180.1 139.5,163.4 145.6,159.7 	"/>
	<polygon class="st10" points="70.6,211 117.1,231 113.6,233 107.8,245.8 62.9,227 	"/>
	<path class="st16" d="M145.4,197.1c0,0,0.6,2.8-0.2,5.9"/>
	<polygon class="st16" points="129.3,199.3 138.1,202.8 140.1,201.5 138.9,199.5 	"/>
	<line class="st19" x1="162.8" y1="158.9" x2="162.8" y2="158.8"/>
	<line class="st19" x1="225.4" y1="123" x2="225.3" y2="123.1"/>
	<polygon class="st16" points="136.4,189 127.6,195.9 105.9,186.6 114.7,180.3 	"/>
	<polygon class="st16" points="147.7,193.8 151.1,191.5 153.3,197.7 147.4,202.7 	"/>
	<path class="st16" d="M135.7,208.6c0,0-8.8,8.7-13.3,15.9c-4.5,7.2,0.9,0.9,0.9,0.9l4.1-5.2c0,0,5.3-5.9,5.4-6.2
		c0.1-0.3,4.6-3.8,4.2-4.1C136.6,209.4,135.7,208.6,135.7,208.6L135.7,208.6"/>
	<polygon class="st1" points="130.6,308 123.5,304.6 130.2,302.6 132.8,306 	"/>
	<polygon class="st16" points="224.9,160.2 245.3,146.2 245.6,141.1 240.6,142.7 238.6,147.3 228.3,153.1 227.3,149.8 224.7,152.2 	
		"/>
	<path class="st3" d="M113.7,300.4c0.3,0,11,6,20.5-3.1c0.4,3.9,0.2,4.8,0.2,4.8l-0.9,4.1c0,0-3,2.1-3,1.8c0-0.2-0.7-4.2-0.7-4.2
		s-6.3,1.6-9.6,1.6c-1.1,1.9-3.8,6.6-3.8,6.6l-6.9-2.4l3.3-9.6L113.7,300.4z"/>
	<polygon class="st1" points="104.1,277.2 99.3,277.8 92,274.6 96.8,275.3 100.7,276.4 107,274.1 	"/>
	<path class="st10" d="M213.2,123.8c0.5-0.4,4.5-3.1,4.5-3.1l43.3,14.1l-10.7,5.6l-0.2-4.1L213.2,123.8z"/>
	<path class="st16" d="M220.5,115.1c-0.5,0,7.1-0.8,7.1-0.8l9,2.8l2.4-2.2l-9.8-3.3l2.1-0.8l41.1,12.9l0.5,1.8l-2.9,0.8l-12.1-4.1
		l-2,1.1l11.3,3.8l-4,1.9L220.5,115.1z"/>
	<path class="st14" d="M213,211.4c-0.3,0.1-2-1.8-2-1.8l-5.5,8.1l1.1,1.8l9.1,2.4L213,211.4z"/>
	<polygon class="st14" points="198.9,217.1 203.6,216.4 205.7,222.9 206.1,224.2 197.8,227.7 193.2,225 	"/>
	<path class="st14" d="M213.8,225.7l-9.2-3.4l-6.9,4.9l4.5,17.3c0,0,7.4-4.7,7.3-4.9c-0.1-0.2-1.7-10.7-1.7-11.1s2-1.1,2-1.1
		l4.6,10.2l6.5-4.5L213.8,225.7z"/>
	<polygon class="st17" points="157.3,258.7 160.1,259.9 160.9,271.6 166.7,268.5 162,259 159.4,257.7 	"/>
	<path class="st17" d="M168.6,252.8c0.2,0,2.3,0.5,2.3,0.5l1.7,11.2l5.6-4.8l-5.4-8.1l-2.9-0.6l-2.4,1.4L168.6,252.8z"/>
	<polygon class="st17" points="181.3,242.9 184.5,243.7 185.6,255.2 190.9,251.8 186.3,242.9 183.3,242 	"/>
	<polygon class="st17" points="181.3,242.9 184.5,243.7 185.6,255.2 190.9,251.8 186.3,242.9 183.3,242 	"/>
	<polygon class="st17" points="207.8,228.6 209,241 214.4,237.6 209.7,227.4 	"/>
	<polygon class="st17" points="194.3,237.1 196.5,235.7 202.3,244.9 197,248.3 	"/>
	<polygon class="st17" points="218,222.9 220.4,233.6 225.5,230.5 220.6,221.4 	"/>
	<polygon class="st17" points="230.1,215.6 232.5,226.2 237.6,223.2 232.7,214.1 	"/>
	<g>
		
			<ellipse transform="matrix(0.3548 -0.9349 0.9349 0.3548 -195.9512 276.2984)" class="st11" cx="102.2" cy="280.1" rx="2.4" ry="1.4"/>
		
			<ellipse transform="matrix(0.3548 -0.9349 0.9349 0.3548 -188.4118 322.1036)" class="st11" cx="139.2" cy="297.6" rx="2.4" ry="1.4"/>
		
			<ellipse transform="matrix(0.3548 -0.9349 0.9349 0.3548 -155.3732 334.2144)" class="st11" cx="164.5" cy="279.7" rx="2.4" ry="1.4"/>
		
			<ellipse transform="matrix(0.4132 -0.9106 0.9106 0.4132 -128.0174 327.5358)" class="st11" cx="190.1" cy="263.1" rx="2.4" ry="1.4"/>
		<ellipse transform="matrix(0.4132 -0.9106 0.9106 0.4132 -99.4639 339.9174)" class="st11" cx="214" cy="247.1" rx="2" ry="1.2"/>
		<ellipse transform="matrix(0.4132 -0.9106 0.9106 0.4132 -72.6593 352.2349)" class="st11" cx="237" cy="232.5" rx="2" ry="1.2"/>
		
			<ellipse transform="matrix(0.5458 -0.8379 0.8379 0.5458 -66.7306 315.8372)" class="st11" cx="257.9" cy="219.5" rx="1.7" ry="1"/>
		
			<ellipse transform="matrix(0.2466 -0.9691 0.9691 0.2466 22.0338 415.4724)" class="st11" cx="278.2" cy="193.6" rx="1.5" ry="0.9"/>
		
			<ellipse transform="matrix(0.2466 -0.9691 0.9691 0.2466 74.1743 355.7578)" class="st11" cx="265.9" cy="130.2" rx="1.5" ry="0.9"/>
		
			<ellipse transform="matrix(0.2466 -0.9691 0.9691 0.2466 43.3627 344.507)" class="st12" cx="243.2" cy="144.4" rx="1.5" ry="0.9"/>
		<ellipse transform="matrix(0.2466 -0.9691 0.9691 0.2466 12.1329 332.666)" class="st12" cx="220" cy="158.5" rx="1.5" ry="0.9"/>
		
			<ellipse transform="matrix(0.2466 -0.9691 0.9691 0.2466 -19.6324 319.2186)" class="st12" cx="195.5" cy="172.2" rx="1.5" ry="0.9"/>
		
			<ellipse transform="matrix(0.2466 -0.9691 0.9691 0.2466 -53.0433 305.0756)" class="st12" cx="169.7" cy="186.7" rx="1.5" ry="0.9"/>
		
			<ellipse transform="matrix(0.2466 -0.9691 0.9691 0.2466 -141.2285 288.1529)" class="st12" cx="114.7" cy="234.9" rx="1.5" ry="0.9"/>
		
			<ellipse transform="matrix(0.2466 -0.9691 0.9691 0.2466 -87.0758 289.8304)" class="st12" cx="142.9" cy="200.9" rx="1.5" ry="0.9"/>
		
			<ellipse transform="matrix(0.2466 -0.9691 0.9691 0.2466 89.7032 374.0259)" class="st11" cx="285.4" cy="129.3" rx="1.5" ry="0.9"/>
		
			<ellipse transform="matrix(0.2466 -0.9691 0.9691 0.2466 66.6451 398.8263)" class="st20" cx="289.8" cy="156.6" rx="1.5" ry="0.9"/>
		
			<ellipse transform="matrix(0.3548 -0.9349 0.9349 0.3548 -212.1908 302.9114)" class="st11" cx="113.4" cy="305.2" rx="2.4" ry="1.4"/>
	</g>
	<polygon class="st3" points="246.5,145.3 263.2,136 261,134.8 250.2,140.3 250.1,136.3 247.4,138.8 	"/>
	<path class="st6" d="M138,227.2l-4.2,6.6l-5.3,2.1L112.1,274l-0.3,0.7c0.2,0.4,0.2,1-0.4,1.2c-0.1,0-0.2,0.1-0.2,0.2l-0.2,0.6
		c0,1.1,0,2.1,0,3.2c0.1,0.1,0.2,0.2,0.3,0.3c0.3,1.1,0.5,2.1,0.6,3.2c0.1,0.1,0.2,0.1,0.3,0.3c0.6,0.8,0.9,1.7,1.3,2.6
		c0.3,0.1,0.3,0.7,0.5,0.9c0.3,0,1-0.2,1.3-0.2c12-2,25.3-16.3,32.8-35.8c7.7-20.1,5.2-35.7-1.9-30.8
		C143.7,222.1,140.2,228,138,227.2z"/>
	<polygon class="st8" points="124.7,219.1 126.3,233.9 131.3,236.2 120.9,249.2 126.6,253.2 129.7,279.6 123.2,284.4 121,285.1 
		118.3,257.4 105.8,265.6 106.4,251 108.9,242.7 114,236.9 114.3,223.3 	"/>
	<path class="st8" d="M152,213.5L122.5,240l7.2,1.8l2.5,0.2l14.4-12.9l6.3,2.3C153.7,224.8,153.3,218.7,152,213.5z"/>
	<polygon class="st17" points="249,163.9 234.3,162.9 241.3,148.8 245.5,145.9 257.6,139.2 	"/>
	
		<ellipse transform="matrix(0.4132 -0.9106 0.9106 0.4132 -152.566 256.047)" class="st21" cx="122.4" cy="246.4" rx="9.2" ry="5.5"/>
	<g>
		
			<ellipse transform="matrix(0.4132 -0.9106 0.9106 0.4132 -167.5341 252.5861)" class="st21" cx="112.2" cy="256.3" rx="3.8" ry="2.3"/>
		
			<ellipse transform="matrix(0.4132 -0.9106 0.9106 0.4132 -163.4076 262.4466)" class="st21" cx="121.9" cy="258" rx="3.8" ry="2.3"/>
		
			<ellipse transform="matrix(0.4132 -0.9106 0.9106 0.4132 -145.2637 247.8417)" class="st21" cx="119.7" cy="236.6" rx="3.8" ry="2.3"/>
		
			<ellipse transform="matrix(0.4132 -0.9106 0.9106 0.4132 -142.0968 258.1678)" class="st21" cx="129.3" cy="239.3" rx="3.8" ry="2.3"/>
		
			<ellipse transform="matrix(0.4132 -0.9106 0.9106 0.4132 -129.876 261.4494)" class="st21" cx="137.9" cy="231.5" rx="3.8" ry="2.3"/>
		
			<ellipse transform="matrix(0.4132 -0.9106 0.9106 0.4132 -117.3704 264.4412)" class="st21" cx="146.5" cy="223.3" rx="3.8" ry="2.3"/>
		
			<ellipse transform="matrix(0.4132 -0.9106 0.9106 0.4132 -181.0441 277.1104)" class="st21" cx="124.5" cy="279" rx="3.8" ry="2.3"/>
		<ellipse transform="matrix(0.4132 -0.9106 0.9106 0.4132 -172.86 269.705)" class="st21" cx="122.9" cy="269" rx="3.8" ry="2.3"/>
	</g>
	<g>
		
			<ellipse transform="matrix(0.3504 -0.9366 0.9366 0.3504 14.1694 342.5777)" class="st22" cx="254" cy="161.1" rx="4.5" ry="3.1"/>
		
			<ellipse transform="matrix(0.2941 -0.9558 0.9558 0.2941 25.8703 357.8572)" class="st23" cx="255.2" cy="161.4" rx="2.7" ry="1.3"/>
		
			<ellipse transform="matrix(0.2941 -0.9558 0.9558 0.2941 7.0124 354.3509)" class="st21" cx="243.4" cy="172.4" rx="3.1" ry="1.5"/>
		
			<ellipse transform="matrix(0.2941 -0.9558 0.9558 0.2941 2.9726 348.5944)" class="st21" cx="237.5" cy="172.3" rx="3.1" ry="1.5"/>
		
			<ellipse transform="matrix(0.2941 -0.9558 0.9558 0.2941 -0.7653 342.8536)" class="st21" cx="231.7" cy="171.9" rx="3.1" ry="1.5"/>
		
			<ellipse transform="matrix(0.2941 -0.9558 0.9558 0.2941 15.7848 366.1886)" class="st21" cx="255.8" cy="172.4" rx="3.1" ry="1.5"/>
		<path class="st21" d="M256,158.9c-0.2-0.1-0.3,0-0.5,0c0.3,0.5,0.3,1.5,0,2.5c-0.3,1.1-0.9,1.9-1.5,2.1c0.1,0.2,0.3,0.4,0.5,0.4
			c0.7,0.2,1.6-0.8,2-2.2S256.7,159.1,256,158.9z"/>
		
			<ellipse transform="matrix(0.3504 -0.9366 0.9366 0.3504 -12.4749 350.6819)" class="st22" cx="246.6" cy="184.3" rx="4.5" ry="3.1"/>
		
			<ellipse transform="matrix(0.2941 -0.9558 0.9558 0.2941 -1.641 367.1272)" class="st23" cx="247.7" cy="184.7" rx="2.7" ry="1.3"/>
		<path class="st21" d="M248.5,182.1c-0.2-0.1-0.3,0-0.5,0c0.3,0.5,0.3,1.5,0,2.5c-0.3,1.1-0.9,1.9-1.5,2.1c0.1,0.2,0.3,0.4,0.5,0.4
			c0.7,0.2,1.6-0.8,2-2.2S249.2,182.3,248.5,182.1z"/>
		
			<ellipse transform="matrix(0.2941 -0.9558 0.9558 0.2941 19.1286 371.8065)" class="st21" cx="261.3" cy="173" rx="3.1" ry="1.5"/>
		
			<ellipse transform="matrix(0.2941 -0.9558 0.9558 0.2941 39.3498 351.4789)" class="st21" cx="257.6" cy="149.1" rx="3.1" ry="1.5"/>
		
			<ellipse transform="matrix(0.2941 -0.9558 0.9558 0.2941 10.8379 359.9434)" class="st21" cx="249.1" cy="172.6" rx="5.8" ry="2.6"/>
		
			<ellipse transform="matrix(0.2941 -0.9558 0.9558 0.2941 -15.7228 368.5805)" class="st21" cx="241.7" cy="194.9" rx="3.1" ry="1.5"/>
	</g>
	<path class="st21" d="M123.5,246.4l10.6-5.1l-7.9-3.3l-8.5,16.4l8.7,3.7l3.4-6.1l-5.4-4.9C123.5,246.4,123.5,246.4,123.5,246.4z"/>
	
		<ellipse transform="matrix(0.4132 -0.9106 0.9106 0.4132 -150.917 265.1062)" class="st24" cx="130.3" cy="249.7" rx="9.2" ry="5.5"/>
	<polyline class="st15" points="121.1,231 118.6,235.4 101.4,226.3 104.5,220.7 121.4,226.3 121.1,231 121.1,231 	"/>
	<path class="st16" d="M76.2,202.8l-2.8,5.5l10.8,5.5l-3.5,7.4l20.2,8.4l4-7.2l16.4,6.7c0,0,3.6-5.9,4.9-7.4
		C120.7,219.2,76.2,202.8,76.2,202.8z"/>
	<g>
		
			<ellipse transform="matrix(0.3904 -0.9206 0.9206 0.3904 -150.0013 274.2117)" class="st3" cx="132.1" cy="250.4" rx="3.6" ry="2.1"/>
		
			<rect x="132.8" y="247.3" transform="matrix(-0.3904 0.9206 -0.9206 -0.3904 421.8646 225.1044)" class="st3" width="7.1" height="9.8"/>
		
			<ellipse transform="matrix(0.3904 -0.9206 0.9206 0.3904 -148.0935 284.4753)" class="st24" cx="140.8" cy="254.1" rx="3.6" ry="2.1"/>
	</g>
	<path class="st10" d="M89.1,191.5l0.2,1.6l-9.3,10.3l-3.7-0.7l48.8,19.8c0,0,10.8-15,19.3-19.1c0.6-0.7,0.2-6.7,0.2-6.7
		s-4.5,1.7-7.5,5.6c-4.6-1.7-45.1-17.7-45.1-17.7l-0.4,4.7l-2.5,0.7L89.1,191.5z"/>
	<path class="st15" d="M91.9,184.7l51,19.8l-6,5.2l-3.2-1.3L89.2,190l1.9-0.6c0.2-0.1,0.3-0.2,0.3-0.4L91.9,184.7z"/>
	<polygon class="st16" points="70.9,210.9 68.2,216.2 113.6,234.9 117.8,230.5 	"/>
	<path class="st15" d="M66.4,228.3C66.4,229,111,247,111,247l-5.2,17.5l-42.2-18L66.4,228.3z"/>
	<path class="st16" d="M107.5,245.6l3,1.9c0,0-2.8,6.2-5.5,20.8c1.6,0.3,2,0.3,2,0.3s6.4-26.6,11.6-33.2c1.3-2.3,0.1-5.8-2.2-4.8
		C114.1,231.5,108.8,241.3,107.5,245.6z"/>
	<g>
		
			<ellipse transform="matrix(0.9952 -9.744743e-02 9.744743e-02 0.9952 -23.1915 8.0087)" class="st15" cx="70.4" cy="241.4" rx="2.4" ry="4.2"/>
		
			<ellipse transform="matrix(0.9952 -9.744743e-02 9.744743e-02 0.9952 -24.1973 10.6061)" class="st15" cx="96.5" cy="253" rx="2.4" ry="4.2"/>
		
			<ellipse transform="matrix(0.6348 -0.7726 0.7726 0.6348 -119.5605 167.9842)" class="st25" cx="117.9" cy="210.5" rx="4.2" ry="2.4"/>
		
			<ellipse transform="matrix(0.6348 -0.7726 0.7726 0.6348 -121.2389 144.0925)" class="st25" cx="91.8" cy="200.3" rx="4.2" ry="2.4"/>
		
			<ellipse transform="matrix(0.9952 -9.744743e-02 9.744743e-02 0.9952 -25.4144 8.8317)" class="st25" cx="77.7" cy="264.6" rx="1.9" ry="1.8"/>
		
			<ellipse transform="matrix(0.9952 -9.744743e-02 9.744743e-02 0.9952 -16.8398 12.6276)" class="st15" cx="120.9" cy="178.7" rx="3" ry="1.7"/>
		
			<ellipse transform="matrix(0.9952 -9.744743e-02 9.744743e-02 0.9952 -17.5718 15.0202)" class="st15" cx="145" cy="187.4" rx="3" ry="1.7"/>
		
			<ellipse transform="matrix(0.9952 -9.744743e-02 9.744743e-02 0.9952 -15.4514 15.2993)" class="st15" cx="148.9" cy="165.8" rx="3" ry="1.7"/>
		
			<ellipse transform="matrix(0.9952 -9.744743e-02 9.744743e-02 0.9952 -16.1834 17.6919)" class="st15" cx="173" cy="174.5" rx="3" ry="1.7"/>
		
			<ellipse transform="matrix(0.9952 -9.744743e-02 9.744743e-02 0.9952 -14.0121 17.8706)" class="st15" cx="175.9" cy="152.4" rx="3" ry="1.7"/>
		
			<ellipse transform="matrix(0.9952 -9.744743e-02 9.744743e-02 0.9952 -14.7441 20.2633)" class="st15" cx="200.1" cy="161.1" rx="3" ry="1.7"/>
		
			<ellipse transform="matrix(0.9952 -9.744743e-02 9.744743e-02 0.9952 -12.6563 20.2101)" class="st15" cx="200.6" cy="139.7" rx="3" ry="1.7"/>
		
			<ellipse transform="matrix(0.9952 -9.744743e-02 9.744743e-02 0.9952 -13.3883 22.6028)" class="st15" cx="224.7" cy="148.4" rx="3" ry="1.7"/>
		
			<ellipse transform="matrix(0.9952 -9.744743e-02 9.744743e-02 0.9952 -11.2545 22.0251)" class="st15" cx="219.9" cy="126.2" rx="3" ry="1.7"/>
		
			<ellipse transform="matrix(0.9952 -9.744743e-02 9.744743e-02 0.9952 -11.9865 24.4177)" class="st15" cx="244" cy="134.9" rx="3" ry="1.7"/>
		<ellipse transform="matrix(0.327 -0.945 0.945 0.327 -36.9633 308.4041)" class="st15" cx="198.1" cy="180.2" rx="3.4" ry="2.1"/>
		<ellipse transform="matrix(0.327 -0.945 0.945 0.327 -55.1827 299.8476)" class="st15" cx="182.9" cy="188.7" rx="3.4" ry="2.1"/>
		<ellipse transform="matrix(0.327 -0.945 0.945 0.327 -73.6542 291.2222)" class="st15" cx="167.6" cy="197.3" rx="3.4" ry="2.1"/>
		<ellipse transform="matrix(0.327 -0.945 0.945 0.327 -92.2687 282.4327)" class="st15" cx="152.2" cy="206" rx="3.4" ry="2.1"/>
	</g>
	<path class="st14" d="M211.6,208.1c0,0,5.4,5.2,15.4,6.6c-0.1,3.3-1.5,4.7-1.5,4.7l-15.2-0.8l-4.2-2.9l2.9-4.2l1.3-2.6l0.5-0.6
		L211.6,208.1z"/>
	<path class="st21" d="M152,213.5l-22.6,4.8l-7.5,1.9c0,0,1.3,3,1.7,3.1s1.5,0.4,1.5,0.4l1.1,10.2l1.5,1.5L152,213.5z"/>
	<path class="st13" d="M141.1,199.5c-1.7-0.6-3.6-0.9-5.4-0.9c1.1,0.1,2.2,0.4,3.2,0.8c13.4,4.9,16.7,28.4,7.4,52.5
		c-8.1,21-23,35.5-35.6,35.7c13,1.6,29.2-13.4,37.8-35.6C157.8,227.8,154.4,204.3,141.1,199.5z"/>
	<polygon class="st16" points="133.9,195.4 139.3,197.1 141.7,198.7 139.1,201.2 133.1,199.5 	"/>
	<path class="st14" d="M123.2,284.5c0,0,2-1.8,7.5-8.5c1.5-0.3,3.4-0.9,4.2,0c4.7,5,5.3,10.1,5.3,10.1l-5.3,5.7l-9.8,5.4l-3.7-9.7
		l-12.9,4L123.2,284.5z"/>
	<polyline class="st8" points="119.8,283 103.2,276.2 104.2,284.5 106.9,288.3 116.7,290.3 119.8,283 	"/>
	<path class="st1" d="M118.3,284.2l-2.5,5l-2.1,0.2l-0.1,4.5l2,5.1l-5.2-1.6l0.2,2.1l6.3,3.7l9.9,0.3c0,0,6.9-3.1,6.8-3.4
		c0-0.2,0.5-2.7,0.5-2.7l4.1-3.7l-12.7-3.6l-3.2-6.4l-2.6-0.6L118.3,284.2z"/>
	<path class="st17" d="M118.3,284.3l2.6,0.4l1.2,11.8c0,0,5.9-3.3,5.9-3.3c0-0.1-4.9-9.7-4.9-9.7l-3.2-0.5L118.3,284.3z"/>
	<path class="st17" d="M130.7,276c0.2-0.1,2.1-0.9,2.1-0.9l3.2,0.2l4.2,10.7l-5.3,2.8l-0.5-12.5L130.7,276z"/>
	<polygon class="st17" points="145,269.6 147.3,267.9 153.5,277 147.7,281 	"/>
	<polygon class="st17" points="107.8,285.7 110.3,285.5 113.4,286.7 115.6,299 109,297.8 108.9,288.2 107.6,287.1 	"/>
	<polygon class="st5" points="105.2,290.3 107.8,285.7 111.7,287 110.1,298.8 	"/>
	<path class="st16" d="M104.1,277.2c0,0-1.9-1.4-4.1-0.2c-0.3,0.2-0.6,0.4-0.8,0.8c-0.7,1.1-0.8,3-0.5,5.1
		c0.7,6.7,3.9,12.8,8.8,17.4c0.7,0.6,1.4,1.3,2.2,2c-0.5,1.6-2.6,6.4-2.6,6.4l2.3,0.9l3.3-9.6C112.8,300,101.7,290.6,104.1,277.2z"
		/>
	<path class="st16" d="M156.5,149.4l11.2,4.5l-8.1,3.1c-0.2,0.2-0.2,0.5,0.1,0.6l22.3,8.4l6.2-4.6l12.4,4.4l2-2.5l-42.9-15.7
		L156.5,149.4z"/>
	<path class="st16" d="M141.3,166.2c0,0,4.7-0.4,4.6-0.4s32,12.1,32,12.1l-20.6-5L142,171l0.6-3.7L141.3,166.2z"/>
	<polygon class="st16" points="103.3,176.8 106.7,174.2 151.1,191.5 147.7,193.8 134.6,189 129,193.3 109.2,185.7 114.4,181.5 	"/>
	<polygon class="st16" points="181.5,136.9 192.7,140.9 189.6,142.8 181.7,140.1 173.4,140.5 217,156.1 223,154.5 210,150.2 
		212.6,148.1 224.7,152.2 227.3,149.8 184.5,134.6 	"/>
	<path class="st16" d="M197,128.1l43.6,14.6l5-1.6l-12.6-4l3.2-2.2c0,0,11.5,3.9,11.3,3.9c-0.2,0,2.6-2.6,2.6-2.6L207.8,122l-2.6,2
		l6.9,2.6l-3.1,1.9l-5.7-1.9L197,128.1z"/>
	<polygon class="st3" points="262.8,134.7 262.4,135.8 265.5,137.3 266.6,136.5 266,134.8 	"/>
	<polygon class="st17" points="241,209.9 243.2,220 248.8,216.1 242.9,208.6 	"/>
	<polygon class="st17" points="249.9,203.3 253.2,213 259,207.9 252.3,201.1 	"/>
	<polygon class="st17" points="269.9,163 269.8,166.8 279.3,169 280.1,161.3 	"/>
	<polygon class="st17" points="270.9,149.4 271,152.6 281.2,152.4 279.8,145 	"/>
	<polygon class="st3" points="266.1,139.3 267.8,142.1 276.6,137 271.9,131.2 	"/>
	<polygon class="st17" points="266.9,176.9 275.7,178.9 272.3,186.7 265.3,179.8 	"/>
	<path class="st17" d="M260.6,190.8c-0.3,0.5-2,3.1-2,3.1l6.6,8.5l4.7-7.1L260.6,190.8z"/>
	<polygon class="st16" points="107,272.1 107,274.1 104,277.6 99.7,278.2 99.3,277.8 102,274.8 105,271.9 	"/>
	<path class="st16" d="M120.2,222.1c0,0,5.4-0.2,5.4-0.4c0-0.2,10.1-13.1,10.1-13.1l1.9-8.3l6.1-3c1.1-0.8,2.6,0,2.5,1.4l-0.2,3.2
		c0,0.5-0.3,0.9-0.7,1.2c-3.2,2.2-19.5,15.6-24.2,28c-2.7-3.1-3.9-4.1-3.9-4.1L120.2,222.1z"/>
	
		<ellipse transform="matrix(0.4132 -0.9106 0.9106 0.4132 -99.8343 248.9289)" class="st18" cx="143.2" cy="201.9" rx="1.7" ry="1.1"/>
</g>
<path class="st26" d="M226,272.2c-0.8,0.4-13.7,9.6-13.7,9.6l16.6-1.6l13.1-7.7L226,272.2z"/>
<polygon class="st24" points="368.6,213.9 318,193.2 312.4,196.5 314.5,204.9 355.6,223.7 "/>
<path class="st27" d="M152.6,233.7c-5.7-3-14.7,3-20.1,13.4c-5.4,10.4-5.1,21.2,0.7,24.1l68,32.6l19.4-37.5L152.6,233.7z"/>
<path class="st24" d="M202.5,287.7l3.1-9.3l-72.3-32.8c-0.3,0.5-0.6,1-0.8,1.5c-1.3,2.5-2.2,4.9-2.9,7.3L202.5,287.7z"/>
<ellipse transform="matrix(0.46 -0.8879 0.8879 0.46 -139.2657 341.2095)" class="st28" cx="210.9" cy="285.1" rx="21.1" ry="11.7"/>
<polygon class="st29" points="402.7,191.5 400.7,194.6 411,199 412.9,194.1 "/>
<polygon class="st30" points="136.8,182.1 136.7,225 133.8,225.3 134.1,228 147.9,235.5 148.2,197.3 "/>
<polygon class="st31" points="167.3,246 149.5,260.2 162,273.6 180.1,267.9 198.9,259.4 192.2,251.4 "/>
<polygon class="st32" points="180.1,267.9 195.4,260 207.3,265.5 179.2,280.9 "/>
<polygon class="st33" points="202.1,176 222.7,184.4 219.1,190.4 210.8,192.1 210.7,197.1 202,194.7 198.8,184.6 "/>
<path class="st34" d="M168.3,229.2c0,0,6,13.8,18.4,12.3c12.4-1.5,12.1-16,11.4-19.9"/>
<path class="st35" d="M200,231.8c0,0-6.3,15.1-8.5,23.4"/>
<path class="st36" d="M134.1,228l1.7,6.9l91.8,41.9l29.8-1.4l81.3-45.3c3.1-1.7,5.1-5.1,4.9-8.7c-0.2-2.8-1.6-5.9-6.3-7.8
	c-10.6-4.4-36.3-14.2-36.3-14.2l-138.1,6l1.5,8.6L134.1,228z"/>
<polygon class="st37" points="309.8,194 318.4,197.3 310.9,201.7 297.8,197.7 "/>
<polygon class="st38" points="310.9,201.7 318.3,198.1 305.9,193 299.7,196.9 "/>
<polygon class="st39" points="214.8,233 252.7,273 226.3,274.2 178,252.2 178.6,216.8 212.3,227.9 "/>
<polygon class="st40" points="219.3,237.7 244.4,245.6 315.6,208.3 316,198.3 310.9,201.7 301.3,197.6 267.9,212.8 237.2,213.6 
	227.5,229.9 "/>
<polygon class="st41" points="193.6,261.3 235.4,239.1 185.5,219.6 144.5,239 "/>
<polygon class="st42" points="231.9,241.2 315.3,199.7 265.1,181.8 170.4,219.1 "/>
<path class="st30" d="M238.8,220.1l-3.7,47.1c-0.1,0.8-0.6,1.6-1.4,1.8c-2.3,0.7-7.3,1.7-10.6-1.3c-0.8-0.7-1.5,0.1-1.4-1
	c0.8-11,3.8-52,3.8-52L238.8,220.1z"/>
<polygon class="st43" points="180.1,215 198.1,221.7 208.6,215.3 183.4,208.2 "/>
<path class="st44" d="M149.7,246.5l-0.1,5.4C149.6,251.9,148.1,249.1,149.7,246.5z"/>
<g>
	<polygon class="st45" points="178.4,217.4 196.3,226.4 199.5,236.5 216.7,227.1 217.3,217.7 206.2,214.1 184.7,208.1 	"/>
	<polygon class="st46" points="217.3,217.7 206.1,222.3 206.5,216.6 183.4,208.2 199.9,207.8 219.3,214.2 	"/>
</g>
<path class="st47" d="M328.2,99.5c0,0,9,1,4.4,15.7c-5.4,17.3-17.9,22.9-25.7,24.8c0.9-10.3,0.2-10,0.2-10s16.3-3.2,17-27
	C324.5,91.6,328.2,99.5,328.2,99.5z"/>
<polygon class="st48" points="332.5,94.3 331.4,91.5 325.3,94.8 "/>
<polygon class="st48" points="258.5,106.4 257.4,103.5 265,102.4 261.5,106.5 "/>
<polygon class="st49" points="314.3,118.7 309.7,117.5 310.5,103.2 316.2,99.7 "/>
<polygon class="st30" points="312.8,103 309.2,145.7 296.2,139.7 299,105.8 313.5,98.7 "/>
<polygon class="st30" points="290.7,103.5 287.2,146.2 274.2,140.2 276.9,106.3 291.5,99.2 "/>
<g>
	<polygon class="st30" points="340.5,176.6 337.7,207.8 324.4,206.5 327.4,180.6 	"/>
	
		<ellipse transform="matrix(6.792284e-02 -0.9977 0.9977 6.792284e-02 101.7038 523.4748)" class="st30" cx="331" cy="207.3" rx="2.7" ry="6.7"/>
</g>
<polygon class="st47" points="328.9,97.1 328.3,112.6 314.3,118.7 316.2,99.7 "/>
<path class="st50" d="M259.9,107.6l23.7,7c2.7,0.8,5.7,0.6,8.3-0.6L332,95.7c0.9-0.4,0.8-1.7-0.1-2L307.2,86
	c-1.8-0.6-3.7-0.5-5.4,0.2l-42.1,17.2C257.8,104.2,257.9,107,259.9,107.6z"/>
<path class="st44" d="M149.8,221l-0.1,5.4C149.8,226.4,148.2,223.7,149.8,221z"/>
<path class="st44" d="M149.7,234l-0.1,5.4C149.7,239.4,148.1,236.6,149.7,234z"/>
<path class="st44" d="M182.3,217.9l-31-12.8c-0.8-0.3-1.6,0.2-1.6,1.1l-0.2,60.3c0,1.5,0.9,2.9,2.3,3.6l26,11.9
	c1.3,0.6,2.9-0.3,2.9-1.8L183,219C183,218.6,182.7,218.1,182.3,217.9z M153.7,207.8c1.7-0.4,3.5,1.1,4.2,3.5
	c0.6,2.4-0.2,4.7-1.9,5.1c-1.7,0.4-3.5-1.1-4.2-3.5C151.1,210.5,152,208.2,153.7,207.8z M154.8,255c-1.6,0.4-3.3-1.1-3.9-3.3
	c-0.6-2.2,0.2-4.4,1.8-4.8c1.6-0.4,3.3,1.1,3.9,3.3C157.1,252.4,156.3,254.5,154.8,255z M154.9,242.3c-1.6,0.4-3.3-1.1-3.9-3.3
	c-0.6-2.2,0.2-4.4,1.8-4.8c1.6-0.4,3.3,1.1,3.9,3.3C157.2,239.7,156.5,241.9,154.9,242.3z M155.3,229.3c-1.7,0.4-3.5-1.1-4.2-3.5
	c-0.6-2.4,0.2-4.7,1.9-5.1c1.7-0.4,3.5,1.1,4.2,3.5C157.8,226.6,157,228.9,155.3,229.3z M164.9,273.3c-1.6,0.4-3.3-1.1-3.9-3.3
	c-0.6-2.2,0.2-4.4,1.8-4.8c1.6-0.4,3.3,1.1,3.9,3.3C167.3,270.7,166.5,272.9,164.9,273.3z M165,260.4c-1.6,0.4-3.3-1.1-3.9-3.3
	c-0.6-2.2,0.2-4.4,1.8-4.8c1.6-0.4,3.3,1.1,3.9,3.3C167.4,257.8,166.6,260,165,260.4z M165.9,247.2c-1.6,0.4-3.3-1.1-3.9-3.3
	c-0.6-2.2,0.2-4.4,1.8-4.8c1.6-0.4,3.3,1.1,3.9,3.3C168.3,244.7,167.5,246.8,165.9,247.2z M166.5,234c-1.6,0.4-3.3-1.1-3.9-3.3
	c-0.6-2.2,0.2-4.4,1.8-4.8c1.6-0.4,3.3,1.1,3.9,3.3C168.9,231.5,168.1,233.6,166.5,234z M166.7,220.9c-1.6,0.4-3.3-1.1-3.9-3.3
	c-0.6-2.2,0.2-4.4,1.8-4.8c1.6-0.4,3.3,1.1,3.9,3.3C169.1,218.3,168.3,220.4,166.7,220.9z M176.1,265.3c-1.6,0.4-3.3-1.1-3.9-3.3
	c-0.6-2.2,0.2-4.4,1.8-4.8c1.6-0.4,3.3,1.1,3.9,3.3C178.5,262.7,177.7,264.9,176.1,265.3z M176.8,252.2c-1.6,0.4-3.3-1.1-3.9-3.3
	c-0.6-2.2,0.2-4.4,1.8-4.8c1.6-0.4,3.3,1.1,3.9,3.3C179.2,249.6,178.4,251.8,176.8,252.2z M177.5,238.6c-1.6,0.4-3.3-1.1-3.9-3.3
	c-0.6-2.2,0.2-4.4,1.8-4.8c1.6-0.4,3.3,1.1,3.9,3.3C179.9,236,179.1,238.1,177.5,238.6z M178,225.6c-1.6,0.4-3.3-1.1-3.9-3.3
	c-0.6-2.2,0.2-4.4,1.8-4.8c1.6-0.4,3.3,1.1,3.9,3.3C180.4,223,179.6,225.2,178,225.6z"/>
<path class="st37" d="M180.1,217.4l-30.5-12.6c-0.7-0.3-1.6,0.2-1.6,1l-0.2,59.4c0,1.5,0.9,2.9,2.2,3.5l25.6,11.7
	c1.3,0.6,2.8-0.3,2.9-1.8l2.3-60.1C180.8,218,180.5,217.6,180.1,217.4z M151.9,207.4c1.6-0.4,3.5,1.1,4.1,3.4c0.6,2.3-0.2,4.6-1.9,5
	c-1.6,0.4-3.5-1.1-4.1-3.4C149.4,210.1,150.3,207.9,151.9,207.4z M153,253.9c-1.6,0.4-3.3-1-3.9-3.2c-0.6-2.2,0.2-4.3,1.7-4.7
	c1.6-0.4,3.3,1,3.9,3.2C155.4,251.3,154.6,253.4,153,253.9z M153.1,241.4c-1.6,0.4-3.3-1-3.9-3.2c-0.6-2.2,0.2-4.3,1.7-4.7
	c1.6-0.4,3.3,1,3.9,3.2C155.5,238.8,154.7,241,153.1,241.4z M153.6,228.6c-1.6,0.4-3.5-1.1-4.1-3.4c-0.6-2.3,0.2-4.6,1.9-5
	c1.6-0.4,3.5,1.1,4.1,3.4C156,225.9,155.2,228.2,153.6,228.6z M163,271.9c-1.6,0.4-3.3-1-3.9-3.2c-0.6-2.2,0.2-4.3,1.7-4.7
	c1.6-0.4,3.3,1,3.9,3.2C165.3,269.4,164.5,271.5,163,271.9z M163.1,259.2c-1.6,0.4-3.3-1-3.9-3.2c-0.6-2.2,0.2-4.3,1.7-4.7
	c1.6-0.4,3.3,1,3.9,3.2C165.4,256.7,164.6,258.8,163.1,259.2z M164,246.3c-1.6,0.4-3.3-1-3.9-3.2c-0.6-2.2,0.2-4.3,1.7-4.7
	c1.6-0.4,3.3,1,3.9,3.2C166.3,243.7,165.5,245.8,164,246.3z M164.6,233.3c-1.6,0.4-3.3-1-3.9-3.2c-0.6-2.2,0.2-4.3,1.7-4.7
	c1.6-0.4,3.3,1,3.9,3.2C166.9,230.7,166.1,232.8,164.6,233.3z M164.8,220.3c-1.6,0.4-3.3-1-3.9-3.2c-0.6-2.2,0.2-4.3,1.7-4.7
	c1.6-0.4,3.3,1,3.9,3.2C167.1,217.7,166.3,219.9,164.8,220.3z M174,264c-1.6,0.4-3.3-1-3.9-3.2c-0.6-2.2,0.2-4.3,1.7-4.7
	c1.6-0.4,3.3,1,3.9,3.2C176.3,261.5,175.6,263.6,174,264z M174.7,251.1c-1.6,0.4-3.3-1-3.9-3.2c-0.6-2.2,0.2-4.3,1.7-4.7
	c1.6-0.4,3.3,1,3.9,3.2C177.1,248.6,176.3,250.7,174.7,251.1z M175.4,237.7c-1.6,0.4-3.3-1-3.9-3.2c-0.6-2.2,0.2-4.3,1.7-4.7
	c1.6-0.4,3.3,1,3.9,3.2C177.8,235.2,177,237.3,175.4,237.7z M175.9,224.9c-1.6,0.4-3.3-1-3.9-3.2c-0.6-2.2,0.2-4.3,1.7-4.7
	c1.6-0.4,3.3,1,3.9,3.2C178.2,222.4,177.5,224.5,175.9,224.9z"/>
<polygon class="st51" points="187.6,203.8 233.2,221.3 261.4,220.6 345.5,176.2 347.3,170.9 333.6,177.3 264.8,205.9 218.9,204.1 
	198.9,195.5 191.4,195.6 184.9,199.1 "/>
<polygon class="st36" points="334.1,157.4 343,161.6 347.3,170.9 330.6,179.5 327.1,162.9 "/>
<polygon class="st36" points="219.5,185.9 209.9,190.9 209.8,195 203.3,192.9 186.8,200 233.5,217.7 260.3,217 301.6,194.3 
	233.7,183.3 "/>
<polygon class="st40" points="276.3,183 195.6,152.6 195.4,151.4 185.8,154.5 202,162.3 205.6,183 207.2,183.6 274.6,208.5 "/>
<g>
	
		<ellipse transform="matrix(7.022122e-02 -0.9975 0.9975 7.022122e-02 145.1205 490.4698)" class="st24" cx="335.7" cy="167.4" rx="3.6" ry="7"/>
	<path class="st52" d="M342.2,169l-3.2-3l-2.1,0.8l1.1,4.1C339.9,170.7,341.5,170,342.2,169z"/>
	
		<ellipse transform="matrix(7.022122e-02 -0.9975 0.9975 7.022122e-02 147.0135 489.3051)" class="st23" cx="336" cy="165.8" rx="1.8" ry="3.6"/>
	<path class="st53" d="M336.1,165c1.6,0.1,2.9,0.8,3.3,1.5c0.1-0.1,0.2-0.3,0.2-0.5c0.1-1-1.5-1.9-3.5-2.1c-2-0.1-3.7,0.6-3.7,1.6
		c0,0.2,0,0.4,0.1,0.6C333,165.3,334.4,164.8,336.1,165z"/>
</g>
<polygon class="st54" points="151.4,136.2 151.8,146.6 205.6,183 274.6,208.5 333.6,177.3 336.2,152 213.6,110.8 "/>
<polygon class="st50" points="276.3,183 336.2,152 333.6,177.3 274.6,208.5 "/>
<polygon class="st36" points="213.6,110.8 151.4,136.2 173.6,144.6 165.3,147.5 185.8,154.5 195.4,151.4 195.6,152.6 276.3,183 
	336.2,152 "/>
<polygon class="st47" points="155.7,135.8 212.5,112.8 329.6,152.7 276,180.4 "/>
<polygon class="st40" points="165.3,147.5 173.6,144.6 151.4,136.2 151.9,148 "/>
<path class="st55" d="M126.5,150.9l-0.1-12c0-3.5,3.4-5.9,6.6-4.6l66.5,25.4c4.5,1.7,7.4,6.2,7,11l-2.2,27.9c-0.2,3-3.2,4.9-6,3.8
	l-10.3-4l-9.4,14.2c-0.7,1-1.7,1.4-0.9,1.8l-30.2-12.3c-0.8-0.3-1.4-0.9-1.7-1.7l-9-23.5L126.5,150.9z"/>
<path class="st56" d="M124.9,152.1l-0.1-12c0-3.5,3.4-5.9,6.6-4.6l66.5,25.4c4.5,1.7,7.4,6.2,7,11l-2.2,27.9c-0.2,3-3.2,4.9-6,3.8
	l-7.2-2.7l-9.4,14.2c-0.7,1-2,1.4-3.1,0.9l-31.1-12.7c-0.8-0.3-1.4-0.9-1.7-1.7l-9-23.5L124.9,152.1z"/>
<g>
	
		<ellipse transform="matrix(0.9233 -0.3842 0.3842 0.9233 -50.8845 66.3219)" class="st57" cx="140.6" cy="160.5" rx="10.4" ry="16"/>
	
		<ellipse transform="matrix(0.9233 -0.3842 0.3842 0.9233 -51.0934 66.0109)" class="st58" cx="139.7" cy="160.9" rx="9.8" ry="15.1"/>
	<polygon class="st58" points="133.9,146.9 119.6,152.9 129.7,171.7 131.3,180.8 145.5,174.9 148.4,163.2 143.7,156.3 	"/>
	<path class="st57" d="M135.6,170.3l15-7.4c0.6-0.3,1.2,0.2,1.1,0.8c-0.3,1.4-0.7,3.3-1,4.5c-0.8,3-1,3.2-6,5.3
		c-5.5,2.3-12.8,5.2-12.8,5.2L135.6,170.3z"/>
	
		<ellipse transform="matrix(0.9233 -0.3842 0.3842 0.9233 -54.4625 60.9953)" class="st59" cx="125.4" cy="166.8" rx="9.8" ry="15.1"/>
	
		<ellipse transform="matrix(0.9233 -0.3842 0.3842 0.9233 -54.4625 60.9953)" class="st55" cx="125.4" cy="166.8" rx="8.2" ry="12.6"/>
	<path class="st60" d="M133,163.7c-2.1-5.1-6-8.5-9.6-8.9c-2.3,2.8-2.6,8-0.5,13c2.1,5.1,6,8.5,9.6,8.9
		C134.8,173.9,135.1,168.7,133,163.7z"/>
	<path class="st57" d="M181.5,186.9l15-7.4c0.6-0.3,1.2,0.2,1.1,0.8c-0.3,1.4-0.7,3.3-1,4.5c-0.8,3-1,3.2-6,5.3
		c-5.5,2.3-12.8,5.2-12.8,5.2L181.5,186.9z"/>
</g>
<ellipse transform="matrix(0.9233 -0.3842 0.3842 0.9233 -53.8512 85.0427)" class="st57" cx="185.9" cy="177.3" rx="10.8" ry="16.6"/>
<ellipse transform="matrix(0.9233 -0.3842 0.3842 0.9233 -54.0676 84.7204)" class="st61" cx="185" cy="177.7" rx="10.2" ry="15.7"/>
<polygon class="st62" points="179,163.2 164.3,169.4 174.7,188.9 176.3,198.3 191,192.2 194,180.1 189.2,172.9 "/>
<path class="st57" d="M181.4,186.6l15-7.4c0.6-0.3,1.2,0.2,1.1,0.8c-0.3,1.4-0.7,3.3-1,4.5c-0.8,3-1,3.2-6,5.3
	c-5.5,2.3-12.8,5.2-12.8,5.2L181.4,186.6z"/>
<ellipse transform="matrix(0.9233 -0.3842 0.3842 0.9233 -57.5584 79.5236)" class="st59" cx="170.3" cy="183.8" rx="10.2" ry="15.7"/>
<ellipse transform="matrix(0.9233 -0.3842 0.3842 0.9233 -57.5584 79.5236)" class="st55" cx="170.3" cy="183.8" rx="8.5" ry="13"/>
<path class="st60" d="M178.1,180.6c-2.2-5.2-6.2-8.8-9.9-9.2c-2.3,2.9-2.7,8.3-0.5,13.5c2.2,5.2,6.2,8.8,9.9,9.2
	C179.9,191.2,180.3,185.8,178.1,180.6z"/>
<ellipse transform="matrix(0.9393 -0.3432 0.3432 0.9393 -58.8115 63.6841)" class="st40" cx="150.5" cy="198" rx="4.7" ry="6.9"/>
<ellipse transform="matrix(0.9393 -0.3432 0.3432 0.9393 -58.8337 63.078)" class="st10" cx="148.8" cy="197.8" rx="4.7" ry="6.9"/>
<ellipse transform="matrix(0.9393 -0.3432 0.3432 0.9393 -60.6855 71.9816)" class="st40" cx="173.1" cy="207.5" rx="4.7" ry="6.9"/>
<ellipse transform="matrix(0.9393 -0.3432 0.3432 0.9393 -47.8772 92.7529)" class="st36" cx="238.1" cy="181.7" rx="4.7" ry="6.9"/>
<ellipse transform="matrix(0.9393 -0.3432 0.3432 0.9393 -59.6913 67.5873)" class="st40" cx="161.1" cy="202.5" rx="4.7" ry="6.9"/>
<path class="st47" d="M258.8,104.9l23.7,7c2.7,0.8,5.7,0.6,8.3-0.6L330.9,93c0.9-0.4,0.8-1.7-0.1-2l-24.7-7.7
	c-1.8-0.6-3.7-0.5-5.4,0.2l-42.1,17.2C256.7,101.5,256.8,104.3,258.8,104.9z"/>
<ellipse transform="matrix(0.1317 -0.9913 0.9913 0.1317 37.3108 509.4728)" class="st39" cx="309.5" cy="233.4" rx="1.8" ry="3.4"/>
<ellipse transform="matrix(0.1317 -0.9913 0.9913 0.1317 48.986 513.4019)" class="st39" cx="317.6" cy="228.7" rx="1.8" ry="3.4"/>
<ellipse transform="matrix(0.1317 -0.9913 0.9913 0.1317 60.5777 517.7408)" class="st39" cx="325.8" cy="224.3" rx="1.8" ry="3.4"/>
<ellipse transform="matrix(0.1317 -0.9913 0.9913 0.1317 65.9087 507.3281)" class="st39" cx="322.6" cy="216" rx="1.8" ry="3.4"/>
<ellipse transform="matrix(0.1317 -0.9913 0.9913 0.1317 6.1167 478.8424)" class="st39" cx="276.4" cy="235.9" rx="1.8" ry="3.4"/>
<ellipse transform="matrix(0.1317 -0.9913 0.9913 0.1317 2.7928 496.2214)" class="st39" cx="284.7" cy="246.5" rx="2.1" ry="3.8"/>
<ellipse transform="matrix(0.1317 -0.9913 0.9913 0.1317 -10.7959 490.2792)" class="st39" cx="274.5" cy="251.3" rx="2.1" ry="3.8"/>
<ellipse transform="matrix(0.1317 -0.9913 0.9913 0.1317 -38.3918 467.5752)" class="st39" cx="247.7" cy="255.7" rx="2.1" ry="3.8"/>
<ellipse transform="matrix(0.1317 -0.9913 0.9913 0.1317 -9.1572 472.34)" class="st39" cx="265" cy="241.4" rx="2.1" ry="3.8"/>
<ellipse transform="matrix(0.1317 -0.9913 0.9913 0.1317 -72.754 433.1431)" class="st42" cx="210.9" cy="258.1" rx="2.1" ry="3.8"/>
<ellipse transform="matrix(0.1317 -0.9913 0.9913 0.1317 14.2684 501.1703)" class="st39" cx="293.2" cy="242.4" rx="2.1" ry="3.8"/>
<ellipse transform="matrix(0.1317 -0.9913 0.9913 0.1317 26.2777 505.2147)" class="st39" cx="301.5" cy="237.6" rx="2.1" ry="3.8"/>
<polygon class="st63" points="318.4,197.3 315.6,208.3 316,198.3 "/>
<polygon class="st64" points="243.7,168.5 279.7,150.8 301.2,158.7 266.5,176.9 "/>
<ellipse transform="matrix(0.9393 -0.3432 0.3432 0.9393 -59.6913 67.5873)" class="st65" cx="161.1" cy="202.5" rx="3.7" ry="5.3"/>
<path class="st66" d="M160.6,202.7c-0.5-1.3-0.3-2.6,0.2-3.3c-0.3-0.1-0.6,0-0.8,0.1c-1.1,0.4-1.5,2.1-0.9,3.9
	c0.6,1.7,2.1,2.8,3.2,2.4c0.3-0.1,0.5-0.3,0.7-0.5C162,204.9,161.1,204,160.6,202.7z"/>
<polygon class="st64" points="199.7,152 236.8,135.3 256.4,142.4 222.6,160.3 "/>
<path class="st67" d="M187.7,147.6l33.5-14.1c3.2-1.4,6.8-1.4,10.1-0.2l79.7,28.9l-35,18.1L187.7,147.6z"/>
<path class="st68" d="M210.8,123.8c0,0,3.3-3.9,8.5-1.6c6.3,2.8,7.4,13.2,0.4,16.8c-7,3.6-12.6-5.3-11.6-12.3
	c0.8-5.1,11.2-4.5,12.5,5.6c0.9,6.6-2.9,8.7-8.8,7.3s-8.7-7.1-7.3-10.4c1.8-4.3,8.6-2.5,10.2,2.4c1.8,5.4-1.8,8.6-7.8,8.4
	c-3.7-0.1-7.3-5.4-4.9-8.1c0.2-0.2,0.3-0.3,0.5-0.5c2.5-2,6.2-0.9,7.7,3c1.6,4.2-1.5,5.7-3.3,5.6c-1.8-0.1-4.7,1.5-6.2-2
	c-1.5-3.5,2.9-7.2,5.9-4.3c2.2,2.2,0.3,6-1.9,5.5"/>
<ellipse transform="matrix(0.9393 -0.3432 0.3432 0.9393 -32.2232 104.6684)" class="st36" cx="279.6" cy="143.4" rx="2.5" ry="3.6"/>
<path class="st47" d="M253,128.7c0.6,1.5,4.7,0.2,4.9,1.7c1,6.6-1.3,12.5-6,14.2c-5.7,2.1-12.8-3-15.8-11.2
	c-0.8-2.1-1.2-4.2-1.3-6.1c-0.4-6-0.3,1.1,3.9-0.5c1.9-0.7,1.5-0.3,3.6,0.5C246.3,128.8,251,123.2,253,128.7z"/>
<path class="st47" d="M303.6,144.8c3.5,9.7,0,13.1-6.7,15.5c-6.7,2.4-14.9-3.5-18.5-13.1c-1-2.8-1.5-5.7-1.6-8.3
	c-0.1-3-2.2,0.9-1.1-1.4c1.2-2.6,3,0.2,5.5-0.7c2.5-0.9,3.1,2.8,5.7,4c2.8,1.3,5.5-0.1,7.7,3.1C295.8,145.6,302.9,142.7,303.6,144.8
	z"/>
<polygon class="st40" points="287.5,209 286.9,220.6 266.6,231.7 266.9,219.3 "/>
<ellipse transform="matrix(0.9393 -0.3432 0.3432 0.9393 -47.8772 92.7529)" class="st36" cx="238.1" cy="181.7" rx="4.7" ry="6.9"/>
<polygon class="st23" points="314.3,118.7 315.4,103.2 328.9,97.1 327.5,113.1 "/>
<ellipse transform="matrix(0.46 -0.8879 0.8879 0.46 -137.787 343.4909)" class="st27" cx="213.5" cy="285" rx="9" ry="5"/>
<ellipse transform="matrix(0.46 -0.8879 0.8879 0.46 -137.6263 344.403)" class="st42" cx="214.3" cy="285.3" rx="4.9" ry="2.7"/>
<g>
	<path class="st69" d="M224.7,290.9l-9.8-4.2c-0.5-0.2-0.8-0.9-0.6-1.4l0,0c0.2-0.5,0.9-0.8,1.4-0.6l9.8,4.2
		c0.5,0.2,0.8,0.9,0.6,1.4l0,0C225.9,290.9,225.3,291.2,224.7,290.9z"/>
	<g>
		<path class="st69" d="M222.9,285.2c-1-0.4-2.5,0.7-3.3,2.5c-0.8,1.8-0.6,3.7,0.5,4.1l3.6,1.3l2.5-5.2l0.3-1.4L222.9,285.2z"/>
		
			<ellipse transform="matrix(0.3902 -0.9207 0.9207 0.3902 -129.5985 383.9313)" class="st70" cx="225" cy="289.8" rx="3.6" ry="2"/>
		
			<ellipse transform="matrix(0.3902 -0.9207 0.9207 0.3902 -129.4488 384.3758)" class="st69" cx="225.4" cy="289.9" rx="1.4" ry="0.8"/>
	</g>
</g>
<ellipse transform="matrix(6.792284e-02 -0.9977 0.9977 6.792284e-02 -53.7036 476.9831)" class="st30" cx="228.4" cy="267.2" rx="2.7" ry="6.7"/>
<polygon class="st41" points="223.2,234.2 183,219.6 182.8,225.3 187,225.5 194.5,245.1 "/>
<g>
	<path class="st23" d="M167.9,273.3c0.9,3.1,3.2,5.2,5.2,4.6c2-0.6,3-3.6,2.1-6.8c-0.9-3.1-3.2-5.2-5.2-4.6
		C168,267.1,167.1,270.1,167.9,273.3z"/>
	<path class="st24" d="M167.4,273.2c0.9,3.1,3.2,5.2,5.2,4.6c2-0.6,3-3.6,2.1-6.8c-0.9-3.1-3.2-5.2-5.2-4.6
		C167.5,267.1,166.6,270.1,167.4,273.2z"/>
	<path class="st71" d="M168.2,271.3l2.9,0.9l2.2-4.1c-1.1-1.3-2.5-2-3.7-1.6c-0.9,0.3-1.6,1.1-2,2.1L168.2,271.3z"/>
	<path class="st23" d="M167.8,273.6c0.4,1.5,1.5,2.4,2.4,2.1c0.9-0.3,1.4-1.7,1-3.1s-1.5-2.4-2.4-2.1
		C167.9,270.8,167.4,272.2,167.8,273.6z"/>
	<path class="st53" d="M168.8,273.6c-0.4-1.4,0-2.7,0.8-3.1c-0.3-0.1-0.5-0.1-0.8,0c-0.9,0.3-1.4,1.7-1,3.1c0.4,1.5,1.5,2.4,2.4,2.1
		c0.1,0,0.1,0,0.1-0.1C169.7,275.4,169.1,274.7,168.8,273.6z"/>
</g>
<g>
	<path class="st23" d="M150,264.6c0.9,3.1,3.2,5.2,5.2,4.6c2-0.6,3-3.6,2.1-6.8c-0.9-3.1-3.2-5.2-5.2-4.6
		C150.1,258.5,149.1,261.5,150,264.6z"/>
	<path class="st24" d="M149.5,264.6c0.9,3.1,3.2,5.2,5.2,4.6c2-0.6,3-3.6,2.1-6.8c-0.9-3.1-3.2-5.2-5.2-4.6
		C149.6,258.4,148.7,261.5,149.5,264.6z"/>
	<path class="st71" d="M150.2,262.6l2.9,0.9l2.2-4.1c-1.1-1.3-2.5-2-3.7-1.6c-0.9,0.3-1.6,1.1-2,2.1L150.2,262.6z"/>
	<path class="st23" d="M149.9,265c0.4,1.5,1.5,2.4,2.4,2.1c0.9-0.3,1.4-1.7,1-3.1s-1.5-2.4-2.4-2.1
		C149.9,262.2,149.5,263.6,149.9,265z"/>
	<path class="st53" d="M150.8,265c-0.4-1.4,0-2.7,0.8-3.1c-0.3-0.1-0.5-0.1-0.8,0c-0.9,0.3-1.4,1.7-1,3.1c0.4,1.5,1.5,2.4,2.4,2.1
		c0.1,0,0.1,0,0.1-0.1C151.8,266.8,151.1,266,150.8,265z"/>
</g>
<g>
	
		<ellipse transform="matrix(7.022122e-02 -0.9975 0.9975 7.022122e-02 5.7615 431.2447)" class="st24" cx="234.2" cy="212.5" rx="3.6" ry="7"/>
	<path class="st52" d="M240.8,214.2l-3.2-3l-2.1,0.8l1.1,4.1C238.5,215.8,240,215.1,240.8,214.2z"/>
	
		<ellipse transform="matrix(7.022122e-02 -0.9975 0.9975 7.022122e-02 7.6545 430.08)" class="st23" cx="234.5" cy="210.9" rx="1.8" ry="3.6"/>
	<path class="st53" d="M234.6,210.1c1.6,0.1,2.9,0.8,3.3,1.5c0.1-0.1,0.2-0.3,0.2-0.5c0.1-1-1.5-1.9-3.5-2.1c-2-0.1-3.7,0.6-3.7,1.6
		c0,0.2,0,0.4,0.1,0.6C231.5,210.5,233,210,234.6,210.1z"/>
</g>
<g>
	<g>
		<ellipse transform="matrix(0.1827 -0.9832 0.9832 0.1827 2.9281 412.519)" class="st42" cx="249.6" cy="204.5" rx="2" ry="3.4"/>
		<path class="st24" d="M250,203.8c1.3,0.2,2.4,0.9,2.8,1.6c0-0.1,0.1-0.2,0.1-0.3c0.2-1.1-1.2-2.2-3-2.6c-1.9-0.3-3.5,0.2-3.7,1.3
			c-0.1,0.3,0,0.6,0.2,0.9C246.8,203.9,248.3,203.5,250,203.8z"/>
	</g>
	<g>
		
			<ellipse transform="matrix(0.1827 -0.9832 0.9832 0.1827 -7.4809 407.5204)" class="st42" cx="241.4" cy="208.3" rx="2" ry="3.4"/>
		<path class="st24" d="M241.8,207.5c1.3,0.2,2.4,0.9,2.8,1.6c0-0.1,0.1-0.2,0.1-0.3c0.2-1.1-1.2-2.2-3-2.6
			c-1.9-0.3-3.5,0.2-3.7,1.3c-0.1,0.3,0,0.6,0.2,0.9C238.6,207.7,240.1,207.2,241.8,207.5z"/>
	</g>
	<g>
		<ellipse transform="matrix(0.1827 -0.9832 0.9832 0.1827 7.9908 426.9681)" class="st42" cx="260.8" cy="208.7" rx="2" ry="3.4"/>
		<path class="st24" d="M261.2,208c1.3,0.2,2.4,0.9,2.8,1.6c0-0.1,0.1-0.2,0.1-0.3c0.2-1.1-1.2-2.2-3-2.6c-1.9-0.3-3.5,0.2-3.7,1.3
			c-0.1,0.3,0,0.6,0.2,0.9C258,208.1,259.6,207.7,261.2,208z"/>
	</g>
	<g>
		
			<ellipse transform="matrix(0.1827 -0.9832 0.9832 0.1827 -24.8159 387.1429)" class="st42" cx="220.4" cy="208.5" rx="2" ry="3.4"/>
		<path class="st24" d="M220.9,207.8c1.3,0.2,2.4,0.9,2.8,1.6c0-0.1,0.1-0.2,0.1-0.3c0.2-1.1-1.2-2.2-3-2.6
			c-1.9-0.3-3.5,0.2-3.7,1.3c-0.1,0.3,0,0.6,0.2,0.9C217.7,207.9,219.2,207.5,220.9,207.8z"/>
	</g>
	<g>
		
			<ellipse transform="matrix(0.1827 -0.9832 0.9832 0.1827 -29.7549 374.3101)" class="st42" cx="210.3" cy="205.1" rx="2" ry="3.4"/>
		<path class="st24" d="M210.7,204.3c1.3,0.2,2.4,0.9,2.8,1.6c0-0.1,0.1-0.2,0.1-0.3c0.2-1.1-1.2-2.2-3-2.6
			c-1.9-0.3-3.5,0.2-3.7,1.3c-0.1,0.3,0,0.6,0.2,0.9C207.5,204.5,209,204,210.7,204.3z"/>
	</g>
	<g>
		
			<ellipse transform="matrix(0.1827 -0.9832 0.9832 0.1827 -3.6637 391.1093)" class="st42" cx="233.4" cy="197.8" rx="2" ry="3.4"/>
		<path class="st24" d="M233.9,197c1.3,0.2,2.4,0.9,2.8,1.6c0-0.1,0.1-0.2,0.1-0.3c0.2-1.1-1.2-2.2-3-2.6c-1.9-0.3-3.5,0.2-3.7,1.3
			c-0.1,0.3,0,0.6,0.2,0.9C230.7,197.2,232.2,196.7,233.9,197z"/>
	</g>
</g>
<ellipse transform="matrix(0.9393 -0.3432 0.3432 0.9393 -60.6101 71.4465)" class="st10" cx="171.6" cy="207" rx="4.7" ry="6.9"/>
<path class="st68" d="M290.5,150.3c0,0,3.3-3.9,8.5-1.6c6.3,2.8,7.4,13.2,0.4,16.8s-12.6-5.3-11.6-12.3c0.8-5.1,11.2-4.5,12.5,5.6
	c0.9,6.6-2.9,8.7-8.8,7.3s-8.7-7.1-7.3-10.4c1.8-4.3,8.6-2.5,10.2,2.4c1.8,5.4-1.8,8.6-7.8,8.4c-3.7-0.1-7.3-5.4-4.9-8.1
	c0.2-0.2,0.3-0.3,0.5-0.5c2.5-2,6.2-0.9,7.7,3c1.6,4.2-1.5,5.7-3.3,5.6c-1.8-0.1-4.7,1.5-6.2-2c-1.5-3.5,2.9-7.2,5.9-4.3
	c2.2,2.2,0.3,6-1.9,5.5"/>
<ellipse transform="matrix(0.9393 -0.3432 0.3432 0.9393 -32.3765 104.9827)" class="st36" cx="280.5" cy="144" rx="3.8" ry="5.5"/>
<path class="st68" d="M251.8,138.7c0,0,3.3-3.9,8.5-1.6c6.3,2.8,7.4,13.2,0.4,16.8c-7,3.6-12.6-5.3-11.6-12.3
	c0.8-5.1,11.2-4.5,12.5,5.6c0.9,6.6-2.9,8.7-8.8,7.3c-5.9-1.4-8.7-7.1-7.3-10.4c1.8-4.3,8.6-2.5,10.2,2.4c1.8,5.4-1.8,8.6-7.8,8.4
	c-3.7-0.1-7.3-5.4-4.9-8.1c0.2-0.2,0.3-0.3,0.5-0.5c2.5-2,6.2-0.9,7.7,3c1.6,4.2-1.5,5.7-3.3,5.6s-4.7,1.5-6.2-2
	c-1.5-3.5,2.9-7.2,5.9-4.3c2.2,2.2,0.3,6-1.9,5.5"/>
<ellipse transform="matrix(0.9393 -0.3432 0.3432 0.9393 -30.0261 90.8758)" class="st36" cx="241.8" cy="130.3" rx="3.8" ry="5.5"/>
<g>
	<path class="st1" d="M310.3,380.8c-0.2-0.4-8.2-4.7-8.2-4.7s5.8-4.6,6.1-4.7s4.5,0.5,4.5,0.5L310.3,380.8z"/>
	<path class="st1" d="M337,363c-0.2-0.4-8.2-4.7-8.2-4.7s5.8-4.6,6.1-4.7s4.5,0.5,4.5,0.5L337,363z"/>
	<path class="st1" d="M362,345.6c-0.2-0.4-8.2-4.7-8.2-4.7s5.8-4.6,6.1-4.7s4.5,0.5,4.5,0.5L362,345.6z"/>
	<path class="st1" d="M385.5,330.1c-0.2-0.4-8.2-4.7-8.2-4.7s5.8-4.6,6.1-4.7s4.5,0.5,4.5,0.5L385.5,330.1z"/>
	<path class="st1" d="M449.5,275.6c-0.2-0.4-8.2-4.7-8.2-4.7s5.8-4.6,6.1-4.7s4.5,0.5,4.5,0.5L449.5,275.6z"/>
	<path class="st1" d="M408.5,314.9c-0.2-0.4-8.2-4.7-8.2-4.7s5.8-4.6,6.1-4.7s4.5,0.5,4.5,0.5L408.5,314.9z"/>
	<path class="st1" d="M430.4,302.3c-0.2-0.4-8.2-4.7-8.2-4.7s5.8-4.6,6.1-4.7s4.5,0.5,4.5,0.5L430.4,302.3z"/>
	<polygon class="st2" points="429.9,197.5 449.8,206.2 438.2,214.3 420.8,206.3 	"/>
	<polyline class="st3" points="311.8,372.8 309.9,376.5 310.3,380.8 312.3,380.8 317.6,378.2 320.3,371.3 327.9,366.3 331.6,368.6 
		335.3,365.4 333.7,354.8 312.8,367.7 311.8,372.8 311.8,372.8 	"/>
	<polygon class="st3" points="337.2,354.1 334.8,360.9 337,363 343.6,360.2 346,353.5 352.9,349 356.7,351.3 360.1,348.7 
		359.9,342.3 359,339.4 	"/>
	<polygon class="st3" points="386.1,321.8 384.8,327.2 385.5,330.1 387.9,330.2 391.8,328.3 394.5,321.6 399.8,318.6 404.1,320.3 
		406.9,318.2 406.7,314.5 407.7,313 406.6,309.5 394.3,316 	"/>
	<path class="st3" d="M362.1,337.1c-0.2,0.4-1.2,5.8-1.2,5.8l1,2.9l6.2-1.9l2.6-7l5.7-3.4l4.8,2l2.7-2.4l-0.1-3.9l-0.3-4.2l-9.8,2.8
		L362.1,337.1z"/>
	<polygon class="st3" points="410,305.9 408.1,311.1 408.5,314.8 410.7,315.2 414.7,314 416.7,307.7 421.8,304.7 426.7,306 
		429.3,303.7 428.7,292.8 	"/>
	<polygon class="st3" points="431.3,290.9 429.2,299.5 430.4,302.3 431.4,302.3 436.5,298.1 437.9,292.1 446,282.4 448.2,282.9 
		450.6,279.6 447.6,273.9 440.5,277.8 	"/>
	<polygon class="st3" points="447.6,271.7 449.5,275.6 451.7,276.6 454.2,272.9 457.6,265.1 456.3,261.4 460.7,246.9 464.4,242.3 
		464.5,239.5 459.2,240.2 453.9,251.8 	"/>
	<path class="st3" d="M460.9,206.4l3.2,2.3l-3.2,7.1l1.8,8.5l3.2,1.4l-0.8,9.5l-2.2,3l-1.2,2.2l-4.4,0.4l-3.9-19.6l-5.8-8.1l8.4-1
		C456.1,212.3,460.1,211.9,460.9,206.4z"/>
	<path class="st3" d="M421.6,215.8l-1,7.4l8.8-5.6l8.4-3.8c0,0,3-1.2,3.6-3.2s2.1-7-1.9-5.7c-4,1.3-14.4,8.8-14.8,8.9
		c-0.4,0-4.7,0.8-4.7,0.8l1.6,2.3"/>
	<path class="st3" d="M443.8,204.2l-2.4,6.3l-4.5,5.2l4.2,0.8l7.5-5.4l7,2.2l2.8-0.7l3.3-4l-1.1-3.7c0,0-1.8-2.8-2.2-3.3
		c-0.3-0.4-8.3-0.5-8.3-0.5L443.8,204.2"/>
	<path class="st4" d="M434.9,209.8c-2.7-1-5.7-1.1-8.7-0.4c9,7.5,10.4,26.9,2.8,46.7c-6.8,17.6-18.8,30.4-29.6,32.9
		c1.2,1,2.6,1.8,4.1,2.4c12.5,4.6,29.7-10,38.3-32.6C450.5,236.4,447.4,214.4,434.9,209.8z"/>
	<polyline class="st3" points="437.3,213.9 439.7,215.2 441.9,213.6 436.3,209.7 435.1,212.6 437.3,213.9 	"/>
	<polygon class="st5" points="281.2,346.4 299.5,369.2 273,369.4 277.4,354.1 279.2,349.8 280,348.5 	"/>
	<path class="st6" d="M283.2,341.1l0.8,6.5l-2.8,2.4l-2.7,12.4c0,0,5.2,3.3,9.4,2.7s5.1-16.6,5.3-17c0.5-1.2-0.4-13-0.4-13
		L283.2,341.1z"/>
	<path class="st6" d="M399,246.4c-8.7,22.5-5.6,44.5,6.9,49.1c12.5,4.6,29.7-10,38.3-32.6c8.7-22.5,5.6-44.5-6.9-49.1
		S407.6,223.9,399,246.4z"/>
	<path class="st7" d="M306.6,283.8c0,0,16.1-3.3,17.6,6.2c5.6-3.1,65.4-36.5,65.1-36.5c-0.2,0-0.9-8.3,1.8-12.5
		c-8,4.1-69.1,37.3-69.3,37.3c-0.2,0-2.5,1.6-2.5,1.6l0.2,0.9"/>
	<polygon class="st8" points="298.7,296.6 300.3,311.3 305.3,313.6 294.9,326.7 300.6,330.6 303.7,357 297.2,361.9 295,362.5 
		292.5,334.5 279.8,343 280.4,328.4 282.9,320.1 288,314.4 288.3,300.8 	"/>
	<path class="st9" d="M317.8,279.8c0.7-0.4,7.9,9,6.4,14.4c-1.5,5.4-15.6,15.5-15.6,15.5l-5.6,3.1l-6.4-1.4l-1.3-9.6l2.9-8l9.3-7.5
		L317.8,279.8z"/>
	<path class="st10" d="M284.5,255c0.5,0,9.7-3.1,9.7-3.1l43.3,14.4l-0.1,2.8l-11,6.2L284.5,255z"/>
	<g>
		<path class="st11" d="M269.6,361.2c-0.5,1.3-0.3,2.5,0.5,2.8s1.8-0.5,2.3-1.8c0.5-1.3,0.3-2.5-0.5-2.8S270.1,360,269.6,361.2z"/>
		<path class="st12" d="M419.4,223c0.2-0.8,0-1.6-0.5-1.7c-0.5-0.1-1.1,0.4-1.3,1.3c-0.2,0.8,0,1.6,0.5,1.7
			C418.6,224.4,419.2,223.9,419.4,223z"/>
		<path class="st12" d="M395.1,237.5c0.2-0.8,0-1.6-0.5-1.7c-0.5-0.1-1.1,0.4-1.3,1.3c-0.2,0.8,0,1.6,0.5,1.7
			C394.3,238.9,394.9,238.4,395.1,237.5z"/>
		<path class="st12" d="M369.5,251.6c0.2-0.8,0-1.6-0.5-1.7c-0.5-0.1-1.1,0.4-1.3,1.3c-0.2,0.8,0,1.6,0.5,1.7
			C368.7,253,369.3,252.4,369.5,251.6z"/>
		<path class="st12" d="M342.5,266.4c0.2-0.8,0-1.6-0.5-1.7c-0.5-0.1-1.1,0.4-1.3,1.3s0,1.6,0.5,1.7
			C341.7,267.7,342.3,267.2,342.5,266.4z"/>
		<path class="st12" d="M285,315.8c0.2-0.8,0-1.6-0.5-1.7c-0.5-0.1-1.1,0.4-1.3,1.3s0,1.6,0.5,1.7
			C284.2,317.1,284.8,316.6,285,315.8z"/>
		<path class="st12" d="M314.5,281c0.2-0.8,0-1.6-0.5-1.7s-1.1,0.4-1.3,1.3s0,1.6,0.5,1.7C313.7,282.4,314.3,281.8,314.5,281z"/>
	</g>
	<path class="st6" d="M384.1,240.6c-8.7,22.5-5.6,44.5,6.9,49.1s29.7-10,38.3-32.6c8.7-22.5,5.6-44.5-6.9-49.1
		S392.7,218.1,384.1,240.6z"/>
	<path class="st4" d="M398.8,260.4l5.4,1.9l-4.5,12l1.7,12.5l5,2.4l3.4-1.7c0,0,5.5-16.9,5.5-17.2s3.9-11.7,3.9-11.7l-2.8-6.6l8.3-9
		l7.8-19.9c0,0,1.6-9.7,1.3-9.8s-11.6-1.1-11.6-1.1s-21.7,20-22.2,20.6c-0.5,0.6-9.4,13.6-9.4,13.6L398.8,260.4z"/>
	<g>
		<g>
			<path class="st4" d="M399,246.4c7.3-19,20.7-32.4,32.2-33.3c-1.4-1.3-3-2.3-4.7-2.9c-12.5-4.6-29.7,10-38.3,32.6
				c-8.7,22.5-5.6,44.5,6.9,49.1c1.9,0.7,4,1,6.1,0.8C392.7,284.7,391.5,265.8,399,246.4z"/>
		</g>
	</g>
	<polygon class="st4" points="426.4,210.2 437.3,213.9 424.6,220.1 423.5,212.7 	"/>
	<path class="st13" d="M413.1,295.1c-12.5-4.6-15.6-26.5-6.9-49.1c6.7-17.3,18.3-29.9,29-32.8c-0.7-0.1-1.4-0.2-2.2-0.2
		c-11.9-0.5-26.4,13.3-34.1,33.4c-8.7,22.5-5.6,44.5,6.9,49.1c2.9,1.1,6.1,1.1,9.3,0.2C414.5,295.6,413.8,295.4,413.1,295.1z"/>
	<path class="st13" d="M423.2,241.8l9.9-28.7c0,0,1.4-0.3,5.8,1.4c0.3,0.1-10,29.5-10,29.5l12.9,2.9l-2.9,9.9c0,0-13.5,0.2-13.3,0.3
		s-2.6,2.1-2.6,2.1l-12.5,35.3l-7.6-5.7l1-1.8l3.2-0.1c0,0,4.6-9.9,4.6-10.2c0-0.3,5.6-17.6,5.6-17.6l-1.3-4.6l-15.2,0l6.2-13.9
		l1.2,2.9l11.3,0.7L423.2,241.8z"/>
	<path class="st13" d="M433.8,247.6"/>
	<path class="st14" d="M321.9,321.9l63.6-35.9l2.7,2.1c2.2,1,4.2,2.1,5.8,2.9l7.2,1.4l5.6-0.5c0,0,1.2,2.4,1.1,2.1
		c0-0.3,1.5-6.1,1.5-6.1l4.2-2.4l3.4-0.7l6.2-7.2l2.5,0.3l2-2.8l-0.1-2.1l4-6.2l2.1,0.2c0,0,2.9-3.7,2.6-3.8c-0.3,0-1.5-7.4-1.5-7.6
		c0-0.2,1.7-2.4,1.7-2.4s2.2-1,2.4-1.2c0.2-0.1,1.8-2.4,1.8-2.4l1.2-3.3l-1.9-3.3l2.6-7.7l2.8-2.5l-0.3-1.5l-3-2.2l-0.4-7.6
		l-2.2-5.4l-2.8-2.7l2.9,1.5l7-5.2l3,0.1l5.7,2l3-0.6l3.6-4.1l-4.4,7.3c0,0,2.5,3.5,2.9,10.1c0.4,6.6,1.4,11.4-3,26.5
		c-4.4,15.1-9.2,23.7-14.4,31.3c-5.2,7.6-31,23.2-33.6,24.8c-2.6,1.6-26.7,17.4-26.7,17.4L338,354.1l-26,17.7l-4.2,3
		c0,0-2.2,2.6-7.9,3.2s2-5.5,2-5.5l11.6-8.4l-4.6-10.6l-2.9-0.6c0,0,6.8-10.5,11.1-18.3C321.3,326.9,321.9,321.9,321.9,321.9z"/>
	<path class="st1" d="M379.4,201.8l-0.3,3.4c0,0,38.7,14.1,39,14c0.2-0.1,0.6,1.5,0.6,1.5l0.3,3.5l1.6-1.1l1-7.4L379.4,201.8z"/>
	<polygon class="st5" points="240.7,358.5 279,375.2 283.9,380.2 281.3,386.6 238.1,364.9 	"/>
	<polygon class="st2" points="398.8,229.4 399,238 355.9,218.7 355.6,214.8 371.8,219.7 	"/>
	<polyline class="st15" points="295.2,308.8 291.6,308.7 252.5,293.2 247.4,286.3 270.5,288.8 293.3,303.2 295.2,308.8 	"/>
	<path class="st16" d="M380.4,244.9c-0.4-0.3-3.1-5.1-3.1-5.1l-4.2,2.8l1.8,5.6l3.8-0.2L380.4,244.9z"/>
	<polygon class="st10" points="363.2,214.9 369.9,211.6 412,226.4 411.9,227.4 402.5,231 401.4,227.6 	"/>
	<polygon class="st10" points="338.8,227.3 345.2,224.4 388.3,240.1 378.4,245.2 376.8,241.1 	"/>
	<polygon class="st2" points="374.8,243.6 374.8,251.9 330.9,230.4 330.8,227.2 334,226.8 	"/>
	<polygon class="st16" points="330.9,230.4 371.3,246.4 369.3,249.7 322.5,231.1 	"/>
	<polygon class="st2" points="304.4,241.5 305,246.4 344.8,264 347.6,266.1 349.1,266 353.2,258 346.6,252.4 322.4,245.6 	"/>
	<path class="st16" d="M321.5,280.6c0,0,26.1-14.5,26.1-14.5c0-0.2,0-1.7-0.1-3.1c-0.1-1.6-1.6-2.7-3.1-2.5l-0.8,0.1
		c-1.5,0.2-5.3,6.6-6.6,7.4l-14.1,7.7L321.5,280.6z"/>
	<path class="st16" d="M304.4,241.5l11.1,4.3l-2.2,2.1l19.9,8.1l3.2-2.6l12.7,5.2l0,7.5l24-14c0,0,1.7-4.9-1.8-5.6
		c-4.3,0.9-5.8,1.7-5.8,1.7l-43-17l-2.8,7.2l-6,2.9l-5.7-1.9L304.4,241.5z"/>
	<polygon class="st16" points="238.7,323.9 231.2,327.9 275.9,348.3 279.8,349.7 281.3,342.6 278.3,338.6 	"/>
	<path class="st1" d="M266.1,348.9l8.8,5.4l6.3-2.4l-3,3.5c0,0-0.4,0.2-1.5,0.3c-1.1,0.1-0.8,0.5-0.8,0.5l-12.6-4.8l1.6,4.4
		l-1.7,3.8l-20.9-8.5l-0.9-6.4l-10-5.6l2.2-3.8l32,8.4L266.1,348.9z"/>
	<polygon class="st10" points="231.2,327.9 275.9,348.3 279.2,346.1 279.6,344.1 281.3,342.6 281.1,348.7 281.1,351.9 274.8,354.3 
		261.9,348.9 262.2,355.1 242.8,347.1 242.8,339.8 230.1,333.8 	"/>
	<path class="st17" d="M230.8,340.9l0.5-1.7l10.7,5l0.2,6.9l20.9,8.5l0.1-8.3l12.6,4.8c-1.9,4.1,0,14.2,0,14.2l2.4-0.9l1.9,6.3
		l-39.5-17.4l-3.1-6.2l-6-3.1L230.8,340.9"/>
	<polygon class="st15" points="277.4,254.7 288.6,259.3 283.3,263.5 303,271.1 308.7,266.9 321.8,271.7 321.5,280.6 308.5,277.3 
		277.1,264.3 277.3,259.7 	"/>
	<path class="st16" d="M266,262.6l8.6-5.4l10.6,4.2l-3.8,3.1l20.8,8.2l4.2-3.1l13.2,5.4c0,0,0.3,2.1-0.2,5.9
		c-0.2,1.4-32.4-8.7-32.6-8.7C286.5,272.3,266,262.6,266,262.6z"/>
	<polygon class="st2" points="296,244.8 341.6,262.2 338.4,266.5 337.7,267.4 337.4,267.6 337.3,267.8 292.8,251.9 	"/>
	<path class="st16" d="M303.1,243.8l-7.5,1.2l45.6,18.3c0,0,2.9-3.2,4.6-2.6C340.7,258.7,303.1,243.8,303.1,243.8z"/>
	<polygon class="st2" points="319.7,238.3 362.8,254.4 365.5,248.1 323.5,231.5 322.5,231.1 	"/>
	<polygon class="st2" points="347.6,218.3 345.2,224.4 388.3,240.1 391.1,233.9 	"/>
	<polygon class="st2" points="414.8,220.6 412.3,226.8 369.1,211.8 371.2,206 	"/>
	<polygon class="st2" points="394.7,193 437.5,206.8 435.1,212.6 391.8,198.5 	"/>
	<polygon class="st2" points="403.5,189.4 413.3,192.7 411,194.9 401.8,192.1 	"/>
	<polygon class="st2" points="405.6,188.6 446.7,201.5 447.2,203.3 455.6,206.4 458.4,201.7 417.1,188 416,190.8 406.7,187.9 	"/>
	<path class="st10" d="M374.9,251.6l0-4.1c0,0,3.2-3.2,13.4-7.5"/>
	<path class="st16" d="M374.8,247.4c0,0,3.2-3,13.3-7.3c1.3-3.8,2.9-6.9,2.9-6.9l6-0.9c0,0,1.7,0.4,0.8,4.1s-3.4,4.1-7,6.4
		c-6.7,3.6-16.4,9.2-16,9L374.8,247.4z"/>
	
		<ellipse transform="matrix(0.4132 -0.9106 0.9106 0.4132 41.9925 510.7997)" class="st18" cx="417.4" cy="222.8" rx="1.7" ry="1.1"/>
	
		<ellipse transform="matrix(0.4132 -0.9106 0.9106 0.4132 40.8392 510.2162)" class="st18" cx="416.3" cy="223.4" rx="1.7" ry="1.1"/>
	<polygon class="st10" points="362.8,254.4 357.8,257.9 313.7,241.3 319.8,237.6 	"/>
	<polygon class="st10" points="244.7,288.9 291.3,308.8 287.7,310.8 282,323.6 237,304.8 	"/>
	<path class="st16" d="M319.6,275c0,0,0.6,2.8-0.2,5.9"/>
	<polygon class="st16" points="303.5,277.1 312.2,280.7 314.3,279.4 313,277.3 	"/>
	<line class="st19" x1="336.9" y1="236.7" x2="336.9" y2="236.6"/>
	<line class="st19" x1="399.5" y1="200.9" x2="399.4" y2="200.9"/>
	<polygon class="st16" points="310.6,266.8 301.8,273.8 280.1,264.4 288.9,258.1 	"/>
	<polygon class="st16" points="321.8,271.7 325.2,269.3 327.5,275.6 321.5,280.6 	"/>
	<path class="st16" d="M309.8,286.4c0,0-8.8,8.7-13.3,15.9c-4.5,7.2,0.9,0.9,0.9,0.9l4.1-5.2c0,0,5.3-5.9,5.4-6.2
		c0.1-0.3,4.6-3.8,4.2-4.1S309.8,286.4,309.8,286.4L309.8,286.4"/>
	<polygon class="st1" points="304.7,385.9 297.7,382.4 304.4,380.5 306.9,383.8 	"/>
	<polygon class="st16" points="399,238 419.4,224 419.7,219 414.8,220.6 412.7,225.1 402.5,231 401.4,227.6 398.8,230.1 	"/>
	<path class="st3" d="M287.8,378.3c0.3,0,11,6,20.5-3.1c0.4,3.9,0.2,4.8,0.2,4.8l-0.9,4.1c0,0-3,2.1-3,1.8c0-0.2-0.7-4.2-0.7-4.2
		s-6.3,1.6-9.6,1.6c-1.1,1.9-3.8,6.6-3.8,6.6l-6.9-2.4l3.3-9.6L287.8,378.3z"/>
	<polygon class="st1" points="278.3,355 273.4,355.6 266.1,352.4 270.9,353.1 274.8,354.3 281.1,351.9 	"/>
	<path class="st10" d="M387.3,201.6c0.5-0.4,4.5-3.1,4.5-3.1l43.3,14.1l-10.7,5.6l-0.2-4.1L387.3,201.6z"/>
	<path class="st16" d="M394.7,193c-0.5,0,7.1-0.8,7.1-0.8l9,2.8l2.4-2.2l-9.8-3.3l2.1-0.8l41.1,12.9l0.5,1.8l-2.9,0.8l-12.1-4.1
		l-2,1.1l11.3,3.8l-4,1.9L394.7,193z"/>
	<path class="st14" d="M387.2,289.2c-0.3,0.1-2-1.8-2-1.8l-5.5,8.1l1.1,1.8l9.1,2.4L387.2,289.2z"/>
	<polygon class="st14" points="373.1,295 377.8,294.2 379.8,300.7 380.2,302.1 372,305.6 367.4,302.9 	"/>
	<path class="st14" d="M388,303.6l-9.2-3.4l-6.9,4.9l4.5,17.3c0,0,7.4-4.7,7.3-4.9c-0.1-0.2-1.7-10.7-1.7-11.1c0-0.4,2-1.1,2-1.1
		l4.6,10.2l6.5-4.5L388,303.6z"/>
	<polygon class="st17" points="331.5,336.6 334.2,337.7 335.1,349.5 340.9,346.3 336.2,336.9 333.5,335.6 	"/>
	<path class="st17" d="M342.8,330.7c0.2,0,2.3,0.5,2.3,0.5l1.7,11.2l5.6-4.8l-5.4-8.1l-2.9-0.6l-2.4,1.4L342.8,330.7z"/>
	<polygon class="st17" points="355.5,320.7 358.7,321.5 359.7,333.1 365,329.7 360.5,320.8 357.4,319.9 	"/>
	<polygon class="st17" points="355.5,320.7 358.7,321.5 359.7,333.1 365,329.7 360.5,320.8 357.4,319.9 	"/>
	<polygon class="st17" points="381.9,306.4 383.2,318.8 388.5,315.5 383.9,305.3 	"/>
	<polygon class="st17" points="368.5,314.9 370.7,313.6 376.4,322.8 371.2,326.1 	"/>
	<polygon class="st17" points="392.2,300.8 394.6,311.4 399.6,308.3 394.7,299.3 	"/>
	<polygon class="st17" points="404.3,293.4 406.7,304.1 411.7,301 406.8,291.9 	"/>
	<g>
		
			<ellipse transform="matrix(0.3548 -0.9349 0.9349 0.3548 -156.3838 489.3445)" class="st11" cx="276.4" cy="358" rx="2.4" ry="1.4"/>
		
			<ellipse transform="matrix(0.3548 -0.9349 0.9349 0.3548 -148.8444 535.1498)" class="st11" cx="313.3" cy="375.4" rx="2.4" ry="1.4"/>
		
			<ellipse transform="matrix(0.3548 -0.9349 0.9349 0.3548 -115.8057 547.2606)" class="st11" cx="338.6" cy="357.5" rx="2.4" ry="1.4"/>
		
			<ellipse transform="matrix(0.4132 -0.9106 0.9106 0.4132 -96.7269 531.804)" class="st11" cx="364.3" cy="341" rx="2.4" ry="1.4"/>
		<ellipse transform="matrix(0.4132 -0.9106 0.9106 0.4132 -68.1734 544.1855)" class="st11" cx="388.2" cy="325" rx="2" ry="1.2"/>
		
			<ellipse transform="matrix(0.4132 -0.9106 0.9106 0.4132 -41.3689 556.503)" class="st11" cx="411.1" cy="310.4" rx="2" ry="1.2"/>
		
			<ellipse transform="matrix(0.5458 -0.8379 0.8379 0.5458 -52.8613 497.1295)" class="st11" cx="432.1" cy="297.3" rx="1.7" ry="1"/>
		
			<ellipse transform="matrix(0.2466 -0.9691 0.9691 0.2466 77.7951 642.9041)" class="st11" cx="452.4" cy="271.4" rx="1.5" ry="0.9"/>
		<ellipse transform="matrix(0.2466 -0.9691 0.9691 0.2466 129.9356 583.1896)" class="st11" cx="440" cy="208" rx="1.5" ry="0.9"/>
		
			<ellipse transform="matrix(0.2466 -0.9691 0.9691 0.2466 99.1241 571.9387)" class="st12" cx="417.4" cy="222.2" rx="1.5" ry="0.9"/>
		
			<ellipse transform="matrix(0.2466 -0.9691 0.9691 0.2466 67.8943 560.0977)" class="st12" cx="394.2" cy="236.4" rx="1.5" ry="0.9"/>
		
			<ellipse transform="matrix(0.2466 -0.9691 0.9691 0.2466 36.1289 546.6503)" class="st12" cx="369.6" cy="250.1" rx="1.5" ry="0.9"/>
		
			<ellipse transform="matrix(0.2466 -0.9691 0.9691 0.2466 2.718 532.5073)" class="st12" cx="343.8" cy="264.5" rx="1.5" ry="0.9"/>
		
			<ellipse transform="matrix(0.2466 -0.9691 0.9691 0.2466 -85.4671 515.5847)" class="st12" cx="288.9" cy="312.8" rx="1.5" ry="0.9"/>
		
			<ellipse transform="matrix(0.2466 -0.9691 0.9691 0.2466 -31.3144 517.2621)" class="st12" cx="317" cy="278.8" rx="1.5" ry="0.9"/>
		
			<ellipse transform="matrix(0.2466 -0.9691 0.9691 0.2466 145.4646 601.4576)" class="st11" cx="459.6" cy="207.2" rx="1.5" ry="0.9"/>
		
			<ellipse transform="matrix(0.2466 -0.9691 0.9691 0.2466 122.4064 626.2581)" class="st20" cx="464" cy="234.4" rx="1.5" ry="0.9"/>
		
			<ellipse transform="matrix(0.3548 -0.9349 0.9349 0.3548 -172.6234 515.9575)" class="st11" cx="287.5" cy="383.1" rx="2.4" ry="1.4"/>
	</g>
	<polygon class="st3" points="420.7,223.2 437.3,213.9 435.1,212.6 424.4,218.2 424.2,214.1 421.5,216.7 	"/>
	<path class="st6" d="M312.1,305l-4.2,6.6l-5.3,2.1l-16.3,38.1l-0.3,0.7c0.2,0.4,0.2,1-0.4,1.2c-0.1,0-0.2,0.1-0.2,0.2l-0.2,0.6
		c0,1.1,0,2.1,0,3.2c0.1,0.1,0.2,0.2,0.3,0.3c0.3,1.1,0.5,2.1,0.6,3.2c0.1,0.1,0.2,0.1,0.3,0.3c0.6,0.8,0.9,1.7,1.3,2.6
		c0.3,0.1,0.3,0.7,0.5,0.9c0.3,0,1-0.2,1.3-0.2c12-2,25.3-16.3,32.8-35.8c7.7-20.1,5.2-35.7-1.9-30.8
		C317.8,299.9,314.4,305.9,312.1,305z"/>
	<polygon class="st8" points="298.9,297 300.4,311.8 305.4,314 295.1,327.1 300.7,331.1 303.9,357.5 297.3,362.3 295.2,362.9 
		292.4,335.2 279.9,343.5 280.6,328.9 283,320.6 288.2,314.8 288.5,301.2 	"/>
	<path class="st8" d="M326.2,291.4l-29.5,26.5l7.2,1.8l2.5,0.2l14.4-12.9l6.3,2.3C327.8,302.6,327.5,296.5,326.2,291.4z"/>
	<polygon class="st17" points="423.2,241.8 408.5,240.7 415.5,226.6 419.7,223.8 431.7,217 	"/>
	
		<ellipse transform="matrix(0.4132 -0.9106 0.9106 0.4132 -121.2755 460.3152)" class="st21" cx="296.6" cy="324.3" rx="9.2" ry="5.5"/>
	<g>
		
			<ellipse transform="matrix(0.4132 -0.9106 0.9106 0.4132 -136.2436 456.8543)" class="st21" cx="286.4" cy="334.1" rx="3.8" ry="2.3"/>
		
			<ellipse transform="matrix(0.4132 -0.9106 0.9106 0.4132 -132.1171 466.7148)" class="st21" cx="296.1" cy="335.9" rx="3.8" ry="2.3"/>
		
			<ellipse transform="matrix(0.4132 -0.9106 0.9106 0.4132 -113.9733 452.1099)" class="st21" cx="293.8" cy="314.5" rx="3.8" ry="2.3"/>
		
			<ellipse transform="matrix(0.4132 -0.9106 0.9106 0.4132 -110.8063 462.4359)" class="st21" cx="303.4" cy="317.2" rx="3.8" ry="2.3"/>
		
			<ellipse transform="matrix(0.4132 -0.9106 0.9106 0.4132 -98.5855 465.7176)" class="st21" cx="312.1" cy="309.4" rx="3.8" ry="2.3"/>
		
			<ellipse transform="matrix(0.4132 -0.9106 0.9106 0.4132 -86.08 468.7094)" class="st21" cx="320.7" cy="301.1" rx="3.8" ry="2.3"/>
		
			<ellipse transform="matrix(0.4132 -0.9106 0.9106 0.4132 -149.7537 481.3785)" class="st21" cx="298.7" cy="356.9" rx="3.8" ry="2.3"/>
		
			<ellipse transform="matrix(0.4132 -0.9106 0.9106 0.4132 -141.5695 473.9732)" class="st21" cx="297" cy="346.8" rx="3.8" ry="2.3"/>
	</g>
	<g>
		
			<ellipse transform="matrix(0.3504 -0.9366 0.9366 0.3504 54.3862 556.2672)" class="st22" cx="428.2" cy="238.9" rx="4.5" ry="3.1"/>
		
			<ellipse transform="matrix(0.2941 -0.9558 0.9558 0.2941 74.3974 579.2671)" class="st23" cx="429.3" cy="239.3" rx="2.7" ry="1.3"/>
		
			<ellipse transform="matrix(0.2941 -0.9558 0.9558 0.2941 55.5396 575.7607)" class="st21" cx="417.5" cy="250.3" rx="3.1" ry="1.5"/>
		
			<ellipse transform="matrix(0.2941 -0.9558 0.9558 0.2941 51.4998 570.0043)" class="st21" cx="411.6" cy="250.1" rx="3.1" ry="1.5"/>
		
			<ellipse transform="matrix(0.2941 -0.9558 0.9558 0.2941 47.7618 564.2634)" class="st21" cx="405.9" cy="249.8" rx="3.1" ry="1.5"/>
		
			<ellipse transform="matrix(0.2941 -0.9558 0.9558 0.2941 64.312 587.5984)" class="st21" cx="429.9" cy="250.3" rx="3.1" ry="1.5"/>
		<path class="st21" d="M430.1,236.7c-0.2-0.1-0.3,0-0.5,0c0.3,0.5,0.3,1.5,0,2.5c-0.3,1.1-0.9,1.9-1.5,2.1c0.1,0.2,0.3,0.4,0.5,0.4
			c0.7,0.2,1.6-0.8,2-2.2S430.8,236.9,430.1,236.7z"/>
		
			<ellipse transform="matrix(0.3504 -0.9366 0.9366 0.3504 27.7418 564.3714)" class="st22" cx="420.7" cy="262.2" rx="4.5" ry="3.1"/>
		
			<ellipse transform="matrix(0.2941 -0.9558 0.9558 0.2941 46.8862 588.537)" class="st23" cx="421.9" cy="262.5" rx="2.7" ry="1.3"/>
		<path class="st21" d="M422.6,260c-0.2-0.1-0.3,0-0.5,0c0.3,0.5,0.3,1.5,0,2.5c-0.3,1.1-0.9,1.9-1.5,2.1c0.1,0.2,0.3,0.4,0.5,0.4
			c0.7,0.2,1.6-0.8,2-2.2S423.3,260.2,422.6,260z"/>
		
			<ellipse transform="matrix(0.2941 -0.9558 0.9558 0.2941 67.6557 593.2163)" class="st21" cx="435.4" cy="250.8" rx="3.1" ry="1.5"/>
		<ellipse transform="matrix(0.2941 -0.9558 0.9558 0.2941 87.877 572.8888)" class="st21" cx="431.8" cy="227" rx="3.1" ry="1.5"/>
		
			<ellipse transform="matrix(0.2941 -0.9558 0.9558 0.2941 59.3651 581.3532)" class="st21" cx="423.2" cy="250.5" rx="5.8" ry="2.6"/>
		
			<ellipse transform="matrix(0.2941 -0.9558 0.9558 0.2941 32.8044 589.9903)" class="st21" cx="415.8" cy="272.8" rx="3.1" ry="1.5"/>
	</g>
	<path class="st21" d="M297.6,324.2l10.6-5.1l-7.9-3.3l-6.6,17.2l6.8,2.9l3.4-6.1l-5.4-4.9C297.6,324.2,297.6,324.2,297.6,324.2z"/>
	
		<ellipse transform="matrix(0.4132 -0.9106 0.9106 0.4132 -119.6266 469.3744)" class="st24" cx="304.4" cy="327.5" rx="9.2" ry="5.5"/>
	<polyline class="st15" points="295.2,308.8 292.8,313.2 275.5,304.1 278.7,298.5 295.5,304.2 295.2,308.8 295.2,308.8 	"/>
	<path class="st16" d="M250.3,280.6l-2.8,5.5l10.8,5.5l-3.5,7.4l20.2,8.4l4-7.2l16.4,6.7c0,0,3.6-5.9,4.9-7.4
		C294.8,297.1,250.3,280.6,250.3,280.6z"/>
	<g>
		
			<ellipse transform="matrix(0.3904 -0.9206 0.9206 0.3904 -115.5168 482.0001)" class="st3" cx="306.2" cy="328.2" rx="3.6" ry="2.1"/>
		
			<rect x="307" y="325.2" transform="matrix(-0.3904 0.9206 -0.9206 -0.3904 735.6801 173.0236)" class="st3" width="7.1" height="9.8"/>
		
			<ellipse transform="matrix(0.3904 -0.9206 0.9206 0.3904 -113.609 492.2637)" class="st24" cx="314.9" cy="331.9" rx="3.6" ry="2.1"/>
	</g>
	<path class="st10" d="M263.2,269.4l0.2,1.6l-9.3,10.3l-3.7-0.7l48.8,19.8c0,0,10.8-15,19.3-19.1c0.6-0.7,0.2-6.7,0.2-6.7
		s-4.5,1.7-7.5,5.6c-4.6-1.7-45.1-17.7-45.1-17.7l-0.4,4.7l-2.5,0.7L263.2,269.4z"/>
	<path class="st15" d="M266,262.6l51,19.8l-6,5.2l-3.2-1.3l-44.5-18.4l1.9-0.6c0.2-0.1,0.3-0.2,0.3-0.4L266,262.6z"/>
	<polygon class="st16" points="245,288.8 242.4,294 287.8,312.8 291.9,308.4 	"/>
	<path class="st15" d="M240.6,306.2c0,0.7,44.6,18.6,44.6,18.6l-5.2,17.5l-42.2-18L240.6,306.2z"/>
	<path class="st16" d="M281.7,323.4l3,1.9c0,0-2.8,6.2-5.5,20.8c1.6,0.3,2,0.3,2,0.3s6.4-26.6,11.6-33.2c1.3-2.3,0.1-5.8-2.2-4.8
		C288.3,309.4,282.9,319.2,281.7,323.4z"/>
	<g>
		
			<ellipse transform="matrix(0.6348 -0.7726 0.7726 0.6348 -116.1207 330.9702)" class="st25" cx="292.1" cy="288.3" rx="4.2" ry="2.4"/>
		
			<ellipse transform="matrix(0.6348 -0.7726 0.7726 0.6348 -117.7991 307.0784)" class="st25" cx="266" cy="278.2" rx="4.2" ry="2.4"/>
		
			<ellipse transform="matrix(0.9952 -9.744743e-02 9.744743e-02 0.9952 -32.1722 26.1727)" class="st25" cx="251.9" cy="342.4" rx="1.9" ry="1.8"/>
		
			<ellipse transform="matrix(0.9952 -9.744743e-02 9.744743e-02 0.9952 -23.5976 29.9686)" class="st15" cx="295" cy="256.6" rx="3" ry="1.7"/>
		
			<ellipse transform="matrix(0.9952 -9.744743e-02 9.744743e-02 0.9952 -24.3296 32.3612)" class="st15" cx="319.1" cy="265.3" rx="3" ry="1.7"/>
		
			<ellipse transform="matrix(0.9952 -9.744743e-02 9.744743e-02 0.9952 -22.2093 32.6403)" class="st15" cx="323.1" cy="243.7" rx="3" ry="1.7"/>
		
			<ellipse transform="matrix(0.9952 -9.744743e-02 9.744743e-02 0.9952 -22.9412 35.0329)" class="st15" cx="347.2" cy="252.4" rx="3" ry="1.7"/>
		
			<ellipse transform="matrix(0.9952 -9.744743e-02 9.744743e-02 0.9952 -20.7699 35.2117)" class="st15" cx="350.1" cy="230.2" rx="3" ry="1.7"/>
		
			<ellipse transform="matrix(0.9952 -9.744743e-02 9.744743e-02 0.9952 -21.5019 37.6043)" class="st15" cx="374.2" cy="238.9" rx="3" ry="1.7"/>
		
			<ellipse transform="matrix(0.9952 -9.744743e-02 9.744743e-02 0.9952 -19.4141 37.5512)" class="st15" cx="374.7" cy="217.5" rx="3" ry="1.7"/>
		
			<ellipse transform="matrix(0.9952 -9.744743e-02 9.744743e-02 0.9952 -20.1461 39.9438)" class="st15" cx="398.9" cy="226.2" rx="3" ry="1.7"/>
		
			<ellipse transform="matrix(0.9952 -9.744743e-02 9.744743e-02 0.9952 -18.0124 39.3661)" class="st15" cx="394" cy="204.1" rx="3" ry="1.7"/>
		
			<ellipse transform="matrix(0.9952 -9.744743e-02 9.744743e-02 0.9952 -18.7444 41.7587)" class="st15" cx="418.1" cy="212.8" rx="3" ry="1.7"/>
		<ellipse transform="matrix(0.327 -0.945 0.945 0.327 6.6641 525.374)" class="st15" cx="372.2" cy="258" rx="3.4" ry="2.1"/>
		<ellipse transform="matrix(0.327 -0.945 0.945 0.327 -11.5553 516.8174)" class="st15" cx="357.1" cy="266.5" rx="3.4" ry="2.1"/>
		<ellipse transform="matrix(0.327 -0.945 0.945 0.327 -30.0268 508.1921)" class="st15" cx="341.8" cy="275.2" rx="3.4" ry="2.1"/>
		<ellipse transform="matrix(0.327 -0.945 0.945 0.327 -48.6413 499.4026)" class="st15" cx="326.3" cy="283.9" rx="3.4" ry="2.1"/>
		
			<ellipse transform="matrix(0.9952 -9.744743e-02 9.744743e-02 0.9952 -29.9316 25.4696)" class="st25" cx="245.8" cy="319.2" rx="2.4" ry="4.2"/>
		
			<ellipse transform="matrix(0.9952 -9.744743e-02 9.744743e-02 0.9952 -30.9375 28.0669)" class="st25" cx="271.9" cy="330.8" rx="2.4" ry="4.2"/>
		
			<ellipse transform="matrix(0.9952 -9.744743e-02 9.744743e-02 0.9952 -23.1759 8.2506)" class="st25" cx="72.9" cy="241.4" rx="2.4" ry="4.2"/>
		
			<ellipse transform="matrix(0.9952 -9.744743e-02 9.744743e-02 0.9952 -24.1818 10.848)" class="st25" cx="99" cy="253" rx="2.4" ry="4.2"/>
	</g>
	<path class="st14" d="M385.7,285.9c0,0,5.4,5.2,15.4,6.6c-0.1,3.3-1.5,4.7-1.5,4.7l-15.2-0.8l-4.2-2.9l2.9-4.2l1.3-2.6l0.5-0.6
		L385.7,285.9z"/>
	<path class="st21" d="M326.2,291.4l-22.6,4.8l-7.5,1.9c0,0,1.3,3,1.7,3.1c0.4,0.1,1.5,0.4,1.5,0.4l1.1,10.2l1.5,1.5L326.2,291.4z"
		/>
	<path class="st13" d="M315.2,277.3c-1.7-0.6-3.6-0.9-5.4-0.9c1.1,0.1,2.2,0.4,3.2,0.8c13.4,4.9,16.7,28.4,7.4,52.5
		c-8.1,21-23,35.5-35.6,35.7c13,1.6,29.2-13.4,37.8-35.6C331.9,305.7,328.6,282.2,315.2,277.3z"/>
	<polygon class="st16" points="308.1,273.3 313.4,274.9 315.9,276.5 313.3,279.1 307.2,277.3 	"/>
	<path class="st14" d="M297.3,362.4c0,0,2-1.8,7.5-8.5c1.5-0.3,3.4-0.9,4.2,0c4.7,5,5.3,10.1,5.3,10.1l-5.3,5.7l-9.8,5.4l-3.7-9.7
		l-12.9,4L297.3,362.4z"/>
	<polyline class="st8" points="294,360.9 277.4,354.1 278.4,362.3 281.1,366.1 290.8,368.2 294,360.9 	"/>
	<path class="st1" d="M292.4,362l-2.5,5l-2.1,0.2l-0.1,4.5l2,5.1l-5.2-1.6l0.2,2.1l6.3,3.7l9.9,0.3c0,0,6.9-3.1,6.8-3.4
		s0.5-2.7,0.5-2.7l4.1-3.7l-12.7-3.6l-3.2-6.4l-2.6-0.6L292.4,362z"/>
	<path class="st17" d="M292.4,362.1l2.6,0.4l1.2,11.8c0,0,5.9-3.3,5.9-3.3s-4.9-9.7-4.9-9.7l-3.2-0.5L292.4,362.1z"/>
	<path class="st17" d="M304.9,353.9c0.2-0.1,2.1-0.9,2.1-0.9l3.2,0.2l4.2,10.7l-5.3,2.8l-0.5-12.5L304.9,353.9z"/>
	<polygon class="st17" points="319.2,347.5 321.4,345.8 327.6,354.8 321.9,358.9 	"/>
	<polygon class="st17" points="282,363.6 284.4,363.3 287.6,364.5 289.8,376.8 283.2,375.6 283.1,366.1 281.8,365 	"/>
	<polygon class="st5" points="279.3,368.2 282,363.6 285.8,364.9 284.2,376.7 	"/>
	<path class="st16" d="M278.3,355c0,0-1.9-1.4-4.1-0.2c-0.3,0.2-0.6,0.4-0.8,0.8c-0.7,1.1-0.8,3-0.5,5.1c0.7,6.7,3.9,12.8,8.8,17.4
		c0.7,0.6,1.4,1.3,2.2,2c-0.5,1.6-2.6,6.4-2.6,6.4l2.3,0.9l3.3-9.6C286.9,377.9,275.8,368.4,278.3,355z"/>
	<path class="st16" d="M330.6,227.3l11.2,4.5l-8.1,3.1c-0.2,0.2-0.2,0.5,0.1,0.6l22.3,8.4l6.2-4.6l12.4,4.4l2-2.5l-42.9-15.7
		L330.6,227.3z"/>
	<path class="st16" d="M315.4,244.1c0,0,4.7-0.4,4.6-0.4c-0.1,0,32,12.1,32,12.1l-20.6-5l-15.1-1.9l0.6-3.7L315.4,244.1z"/>
	<polygon class="st16" points="277.4,254.7 280.9,252.1 325.2,269.3 321.8,271.7 308.7,266.9 303.1,271.1 283.3,263.5 288.6,259.3 	
		"/>
	<polygon class="st16" points="355.6,214.8 366.8,218.7 363.7,220.6 355.8,218 347.6,218.3 391.1,233.9 397.2,232.3 384.1,228 
		386.8,226 398.8,230.1 401.4,227.6 358.7,212.5 	"/>
	<path class="st16" d="M371.2,206l43.6,14.6l5-1.6l-12.6-4l3.2-2.2c0,0,11.5,3.9,11.3,3.9s2.6-2.6,2.6-2.6l-42.3-14.3l-2.6,2
		l6.9,2.6l-3.1,1.9l-5.7-1.9L371.2,206z"/>
	<polygon class="st3" points="437,212.6 436.6,213.6 439.7,215.2 440.8,214.3 440.1,212.7 	"/>
	<polygon class="st17" points="415.1,287.8 417.4,297.9 422.9,293.9 417.1,286.5 	"/>
	<polygon class="st17" points="424,281.2 427.4,290.9 433.2,285.8 426.5,278.9 	"/>
	<polygon class="st17" points="444.1,240.9 443.9,244.7 453.5,246.9 454.2,239.1 	"/>
	<polygon class="st17" points="445,227.2 445.2,230.5 455.4,230.2 454,222.8 	"/>
	<polygon class="st3" points="440.2,217.1 441.9,219.9 450.8,214.9 446.1,209 	"/>
	<polygon class="st17" points="441,254.7 449.8,256.8 446.4,264.5 439.4,257.7 	"/>
	<path class="st17" d="M434.7,268.7c-0.3,0.5-2,3.1-2,3.1l6.6,8.5l4.7-7.1L434.7,268.7z"/>
	<polygon class="st16" points="281.1,350 281.1,351.9 278.1,355.4 273.9,356.1 273.4,355.6 276.1,352.7 279.2,349.8 	"/>
	<path class="st16" d="M294.4,299.9c0,0,5.4-0.2,5.4-0.4c0-0.2,10.1-13.1,10.1-13.1l1.9-8.3l6.1-3c1.1-0.8,2.6,0,2.5,1.4l-0.2,3.2
		c0,0.5-0.3,0.9-0.7,1.2c-3.2,2.2-19.5,15.6-24.2,28c-2.7-3.1-3.9-4.1-3.9-4.1L294.4,299.9z"/>
	
		<ellipse transform="matrix(0.4132 -0.9106 0.9106 0.4132 -68.5438 453.1971)" class="st18" cx="317.4" cy="279.8" rx="1.7" ry="1.1"/>
</g>
</svg>
