<?xml version="1.0" encoding="utf-8"?>
<!-- Generator: Adobe Illustrator 21.0.0, SVG Export Plug-In . SVG Version: 6.00 Build 0)  -->
<svg version="1.1" id="Layer_1" xmlns="http://www.w3.org/2000/svg" xmlns:xlink="http://www.w3.org/1999/xlink" x="0px" y="0px"
	 viewBox="0 0 612 792" style="enable-background:new 0 0 612 792;" xml:space="preserve">
<style type="text/css">
	.st0{fill:#31302A;}
	.st1{fill:#ACADAC;}
	.st2{fill:#E7E4E6;}
	.st3{fill:#4C4D4D;}
	.st4{fill:#EAE9E7;}
	.st5{fill:#242425;}
	.st6{fill:#1A6A97;}
	.st7{fill:#040006;}
	.st8{fill:#1F5C78;}
	.st9{fill:#2E302D;}
	.st10{fill:#BFBCBC;}
	.st11{fill:#173D4E;}
	.st12{fill:#1A4966;}
	.st13{fill:#3594BB;}
	.st14{fill:#1B5C81;}
	.st15{fill:#48A7D1;}
	.st16{fill:#C9CAC8;}
	.st17{fill:none;stroke:#928FA4;stroke-width:0.5;stroke-miterlimit:10;}
	.st18{fill:#1E1F1D;}
	.st19{fill:#A19B97;}
	.st20{fill:#121112;}
	.st21{fill:#3BA5CE;}
	.st22{fill:#5B5B5B;}
	.st23{fill:#CB6251;}
	.st24{fill:#0F0E0F;}
	.st25{fill:#090609;}
	.st26{fill:#70B3E3;}
	.st27{fill:#B6ACAC;}
	.st28{fill:#E7E347;}
	.st29{fill:#EAE6E3;}
	.st30{fill:#101010;}
	.st31{fill:#D5C081;}
	.st32{fill:#2F78A7;}
	.st33{fill:#1C6098;}
	.st34{fill:#47A2D4;}
	.st35{fill:#1C5682;}
	.st36{fill:#041227;}
	.st37{fill:#41A0CC;}
	.st38{fill:#141418;}
	.st39{fill:#646360;}
	.st40{fill:#4C4A50;}
	.st41{fill:#0C1924;}
	.st42{fill:#110F10;}
	.st43{fill:#747C7B;}
	.st44{fill:#3B3839;}
	.st45{fill:#8F8C85;}
</style>
<polygon class="st0" points="332.4,235 332.4,242.3 325.6,244.7 325.7,244.2 325.8,238.6 "/>
<g>
	<g>
		<g>
			<polygon class="st1" points="534.8,349.8 549.4,353.8 546.7,339.8 532.9,337.7 			"/>
		</g>
		<path class="st2" d="M511.3,349.7l12.7,2.3c5.9,0.9,0.8,4.9,11.6-2.2l13-9.2c1-0.7,0.6-2.4-0.6-2.5l-15.9-2.2L511.3,349.7z"/>
		<path class="st2" d="M511.3,349.7l18.8,3.4l8.4,31.1c1.1,4.1-2,8-6.2,7.9l-5.4-0.1c-2.8-0.1-5.2-2-5.9-4.7L511.3,349.7z"/>
		<ellipse transform="matrix(0.866 -0.5 0.5 0.866 -118.5229 316.5411)" class="st2" cx="531.4" cy="379.4" rx="15.1" ry="17.5"/>
	</g>
</g>
<g>
	<polygon class="st3" points="540,233.4 540.7,310.4 534,308.5 533.8,230.9 	"/>
	<polygon class="st4" points="534.1,231.5 534,308.5 526.9,307 527.9,228.9 	"/>
</g>
<g>
	<g>
		<polygon class="st5" points="160.2,376.7 159.2,343.9 114.5,335.9 99.9,353.8 		"/>
		<polygon class="st5" points="133.9,490.4 128.4,501.4 83.8,493.3 91,474.5 		"/>
	</g>
</g>
<path class="st5" d="M57,408.4c-8.5,43.5,3,81.5,25.7,84.8s48-29.1,56.5-72.6s-3-81.5-25.7-84.8C90.8,332.4,65.5,364.9,57,408.4z"/>
<path class="st3" d="M97.8,415.8c-8.5,43.5,3.9,81.6,27.6,85.1c23.8,3.5,49.9-28.9,58.4-72.3s-3.9-81.6-27.6-85.1
	C132.5,339.9,106.3,372.3,97.8,415.8z"/>
<path class="st6" d="M112.1,417.6c-6.7,34,0.9,63.5,16.8,65.9c15.9,2.4,34.2-23.3,40.9-57.3c6.7-34-0.9-63.5-16.8-65.9
	C137,357.9,118.7,383.6,112.1,417.6z"/>
<path class="st7" d="M156.8,359c-3.9-0.6-8,0.4-12,2.7c1.7-0.3,3.3-0.4,5-0.1c15.9,2.4,23.6,31.1,17.1,64.1
	c-6.5,33.1-24.6,57.9-40.5,55.6c-2.5-0.4-4.7-1.4-6.8-2.9c3.3,4.7,7.4,7.7,12.2,8.4c17,2.5,36.3-24,43.2-59.3
	C181.9,392.2,173.7,361.5,156.8,359z"/>
<path class="st8" d="M129.5,366.8C129.5,366.8,129.6,366.8,129.5,366.8c0.2,1.6,3.5,29.6,3.3,30.3c-0.1,0.7-7.4,7.1-7.8,7
	c-1-0.2-22.1-5.6-22.3-5.8c0,0,0,0,0,0L129.5,366.8z"/>
<g>
	<ellipse class="st9" cx="432.2" cy="379.2" rx="9.1" ry="4.2"/>
	<polygon class="st9" points="423,379.2 423,376.7 441.3,376.5 441.3,379.2 432.3,382.1 	"/>
	<ellipse class="st9" cx="432.2" cy="376.8" rx="9.1" ry="4.2"/>
</g>
<g>
	<path class="st1" d="M455.4,457.3c-0.5-0.1-1-0.1-1.5-0.1l-90.1-17.9c-9.2-1.7-19,9.8-21.8,25.6c-2.9,15.8,2.3,29.9,11.4,31.6
		l90.5,18l0-0.2c0.4,0.1,0.7,0.2,1.1,0.3c9.2,1.7,19-9.8,21.8-25.6C469.7,473.2,464.6,459,455.4,457.3z"/>
	<path class="st10" d="M450.7,490.1l16.7-4.9c0.6-5.6,0.2-10.9-1.1-15.3c-32.9-6.4-83.8-16.2-117.1-22.7c-3.3,4.5-5.9,10.6-7.2,17.6
		c-0.1,0.8-0.3,1.6-0.4,2.4C387.2,476.9,450.7,490.1,450.7,490.1z"/>
</g>
<path class="st11" d="M505,437.8c-0.6-1.8-21.4-7.1-21.4-7.1l-27.8,22.8c0,0,0.6,25.8,0,29.1c-0.6,3.3-3.6,36.8-3.6,36.8l7.2,11.8
	l29.5,4.5l25.7-75.3L505,437.8z"/>
<path class="st12" d="M123.5,487.8l16.9-2.5l14.5-16.2c2-3,2-3,2-3l-8.9-29.5l-14.6-12.3l-9.8,6l-3.3,15.6L123.5,487.8z"/>
<path class="st8" d="M111.7,434.9l13.4,2.4l4.2,28.7c0.9,6.3-0.2,12.7-3.2,18.2l-3.7,6.9l-13.1-11.5l3-4.9c2.9-4.7,4-10.2,3.2-15.6
	L111.7,434.9z"/>
<path class="st12" d="M119.5,407.5l-10.2-2.8c0,0-1,10.3-7.6,11.4S98,433.5,98,433.5l-0.3,13l2.7,0.4l18.4-12.1L119.5,407.5z"/>
<path class="st3" d="M156.7,343.9c-23.8-3.5-49.9,28.9-58.4,72.3s3.9,81.6,27.6,85.1c23.8,3.5,49.9-28.9,58.4-72.3
	C192.8,385.5,180.5,347.4,156.7,343.9z M170.2,426.6c-6.7,34-24.9,59.7-40.9,57.3s-23.4-31.9-16.8-65.9c6.7-34,24.9-59.7,40.9-57.3
	C169.3,363.1,176.8,392.6,170.2,426.6z"/>
<g>
	
		<ellipse transform="matrix(0.3043 -0.9526 0.9526 0.3043 -307.9173 416.4808)" class="st1" cx="131.2" cy="419" rx="25.6" ry="16"/>
	<polygon class="st1" points="138.5,394.6 147.8,398.2 142.4,402.9 132.8,407.7 131.2,397.4 137.7,394.3 	"/>
	<path class="st1" d="M123.4,443.4c0,0,8.1,3.1,7.8,3.1c-0.3-0.1,8.5-6,8.5-6l-1.8-9.4l-11-1L123.4,443.4z"/>
	
		<ellipse transform="matrix(0.3043 -0.9526 0.9526 0.3043 -305.2607 426.6204)" class="st10" cx="139.4" cy="422.3" rx="25.6" ry="16"/>
</g>
<path class="st13" d="M144.6,460.9l7.8,1.1c0,0,4.5-5.8,4.5-6s-9.7-4.4-9.7-4.4l-6.4,4.5L144.6,460.9z"/>
<g>
	
		<ellipse transform="matrix(9.398211e-02 -0.9956 0.9956 9.398211e-02 -294.9586 538.8163)" class="st13" cx="148.6" cy="431.5" rx="29.7" ry="16.3"/>
	
		<ellipse transform="matrix(9.398211e-02 -0.9956 0.9956 9.398211e-02 -289.1093 547.6343)" class="st14" cx="156.3" cy="432.7" rx="29.7" ry="16.3"/>
</g>
<path class="st1" d="M278.5,421.8c-0.5-0.1-1-0.1-1.5-0.1l-90.1-17.9c-9.2-1.7-19,9.8-21.8,25.6s2.3,29.9,11.4,31.6l90.5,18l0-0.2
	c0.4,0.1,0.7,0.2,1.1,0.3c9.2,1.7,19-9.8,21.8-25.6C292.8,437.6,287.7,423.4,278.5,421.8z"/>
<path class="st10" d="M273.8,454.6l16.7-4.9c0.6-5.6,0.2-10.9-1.1-15.3c-32.9-6.4-83.8-16.2-117.1-22.7c-3.3,4.5-5.9,10.6-7.2,17.6
	c-0.1,0.8-0.3,1.6-0.4,2.4C210.3,441.3,273.8,454.6,273.8,454.6z"/>
<ellipse transform="matrix(0.1784 -0.984 0.984 0.1784 -218.5789 638.9822)" class="st4" cx="273.3" cy="450.4" rx="29.1" ry="16.9"/>
<g>
	<polygon class="st15" points="372.4,409.6 450.1,354.9 422,350.7 343.5,403.4 	"/>
	<polygon class="st6" points="349.7,405.3 405.6,368.4 399,367.5 424.7,351 376.3,342.1 341.7,365.7 307.6,396.8 	"/>
</g>
<polygon class="st1" points="442.4,382.4 477.9,374.9 548.1,326.8 548.4,322.6 351.5,282.9 281.6,348.3 "/>
<ellipse transform="matrix(0.1784 -0.984 0.984 0.1784 -216.3691 641.6286)" class="st16" cx="276" cy="450.4" rx="18.7" ry="10.9"/>
<polygon class="st2" points="443.8,377.1 479.4,369.7 548.4,322.7 548.4,321.5 353,277.6 283.1,343.1 "/>
<polyline class="st15" points="148.9,392 149.7,408.7 454.7,471.9 455.8,453.5 148.9,392 148.9,392 "/>
<path class="st15" d="M483.7,430.7l5.2,0.6l4,0.5L463,455.3l-1.3,23.5c0,0-14.6,29.1-2.2,52.4c-4.9-0.9-7.2-2.2-7.2-2.2
	s-13.7-11.4,1.1-50.6c0.9-19.7,1.6-24.7,1.6-24.7L483.7,430.7z"/>
<ellipse class="st6" cx="266.8" cy="339" rx="0.1" ry="0"/>
<polygon class="st9" points="487,277.5 548,286.8 485.7,328 301.6,295.8 333.4,280.4 "/>
<path class="st17" d="M477.8,336.9c0,0-2.7,4.2-8,2.8c-6.5-1.8-9.1-11.7-2.8-16.2c6.3-4.5,13,3.3,13,10.2c0,5.1-10.2,6-12.9-3.6
	c-1.8-6.3,1.5-8.9,7.5-8.4s9.5,5.6,8.6,9c-1.2,4.4-7.9,3.7-10.2-0.8c-2.5-4.9,0.5-8.6,6.3-9.2c3.6-0.4,7.8,4.2,5.9,7.2
	c-0.1,0.2-0.3,0.4-0.4,0.5c-2.2,2.3-5.9,1.8-7.9-1.8c-2.1-3.8,0.7-5.7,2.4-5.9c1.7-0.2,4.3-2.2,6.3,1c2,3.1-1.7,7.4-5.1,5
	c-2.4-1.8-1.1-5.8,1-5.6"/>
<polygon class="st6" points="420.4,349.8 392.8,367 343.1,356.5 372.1,340.6 "/>
<path class="st18" d="M548.4,321.5c0,1.2-182.7-29.7-182.7-29.7l0.1-32.9L548,286.8L548.4,321.5z"/>
<polygon class="st19" points="313.1,255.6 462.8,278.1 526.9,237.8 389.9,215.1 "/>
<polygon class="st20" points="301.6,295.8 485.7,328 485.7,363.6 301.9,329.5 "/>
<polygon class="st6" points="180.6,372.5 483.6,430.7 454.9,453.8 148,392.2 "/>
<g>
	
		<ellipse transform="matrix(5.594491e-02 -0.9984 0.9984 5.594491e-02 -156.4905 657.1387)" class="st9" cx="269.3" cy="411.3" rx="2.5" ry="6.1"/>
	<path class="st15" d="M264.4,412c0.1-1.4,2.9-2.4,6.2-2.2c1.8,0.1,3.5,0.5,4.6,1.1c-0.7-1.1-3-2-5.8-2.2c-3.4-0.2-6.2,0.8-6.2,2.2
		c0,0.6,0.5,1.2,1.4,1.7C264.4,412.5,264.3,412.3,264.4,412z"/>
</g>
<g>
	<ellipse class="st9" cx="337.4" cy="423.4" rx="6.1" ry="2.5"/>
	<path class="st15" d="M332.5,424.3c0-1.4,2.7-2.5,6.1-2.5c1.8,0,3.5,0.3,4.6,0.9c-0.7-1.1-3.1-1.8-5.9-1.8c-3.4,0-6.1,1.1-6.1,2.5
		c0,0.6,0.6,1.2,1.5,1.7C332.6,424.8,332.5,424.6,332.5,424.3z"/>
</g>
<polygon class="st21" points="268.9,400 320.7,409.8 320,455.3 269.3,444.3 "/>
<g>
	<ellipse class="st9" cx="356.9" cy="409.7" rx="6.1" ry="2.5"/>
	<path class="st15" d="M352,410.7c0-1.4,2.7-2.5,6.1-2.5c1.8,0,3.5,0.3,4.6,0.9c-0.7-1.1-3.1-1.8-5.9-1.8c-3.4,0-6.1,1.1-6.1,2.5
		c0,0.6,0.6,1.2,1.5,1.7C352.1,411.1,352,410.9,352,410.7z"/>
</g>
<g>
	
		<ellipse transform="matrix(5.594491e-02 -0.9984 0.9984 5.594491e-02 -228.749 540.0181)" class="st9" cx="171.2" cy="391" rx="2.5" ry="6.1"/>
	<path class="st15" d="M166.3,391.7c0.1-1.4,2.9-2.4,6.2-2.2c1.8,0.1,3.5,0.5,4.6,1.1c-0.7-1.1-3-2-5.8-2.2
		c-3.4-0.2-6.2,0.8-6.2,2.2c0,0.6,0.5,1.2,1.4,1.7C166.4,392.1,166.3,391.9,166.3,391.7z"/>
</g>
<g>
	<polygon class="st3" points="312,279.4 313.3,336.7 306.2,335.8 305.7,277.5 	"/>
	<polygon class="st4" points="306.1,278 306.7,335.4 299.5,334.4 299.8,276.1 	"/>
</g>
<g>
	
		<ellipse transform="matrix(5.594491e-02 -0.9984 0.9984 5.594491e-02 -194.7099 549.3403)" class="st9" cx="193.1" cy="377.6" rx="2.5" ry="6.1"/>
	<path class="st15" d="M188.2,378.3c0.1-1.4,2.9-2.4,6.2-2.2c1.8,0.1,3.5,0.5,4.6,1.1c-0.7-1.1-3-2-5.8-2.2
		c-3.4-0.2-6.2,0.8-6.2,2.2c0,0.6,0.5,1.2,1.4,1.7C188.3,378.8,188.2,378.6,188.2,378.3z"/>
</g>
<g>
	
		<ellipse transform="matrix(5.594491e-02 -0.9984 0.9984 5.594491e-02 -205.452 576.7593)" class="st9" cx="202.3" cy="397" rx="2.5" ry="6.1"/>
	<path class="st15" d="M197.4,397.7c0.1-1.4,2.9-2.4,6.2-2.2c1.8,0.1,3.5,0.5,4.6,1.1c-0.7-1.1-3-2-5.8-2.2
		c-3.4-0.2-6.2,0.8-6.2,2.2c0,0.6,0.5,1.2,1.4,1.7C197.4,398.2,197.4,398,197.4,397.7z"/>
</g>
<g>
	
		<ellipse transform="matrix(5.594491e-02 -0.9984 0.9984 5.594491e-02 -171.4289 587.0476)" class="st9" cx="224.7" cy="384.2" rx="2.5" ry="6.1"/>
	<path class="st15" d="M219.8,384.9c0.1-1.4,2.9-2.4,6.2-2.2c1.8,0.1,3.5,0.5,4.6,1.1c-0.7-1.1-3-2-5.8-2.2
		c-3.4-0.2-6.2,0.8-6.2,2.2c0,0.6,0.5,1.2,1.4,1.7C219.9,385.3,219.8,385.1,219.8,384.9z"/>
</g>
<g>
	<g>
		
			<ellipse transform="matrix(5.594491e-02 -0.9984 0.9984 5.594491e-02 -77.7349 777.4074)" class="st9" cx="372.2" cy="429.8" rx="2.5" ry="6.1"/>
		<path class="st15" d="M367.3,430.5c0.1-1.4,2.9-2.4,6.2-2.2c1.8,0.1,3.5,0.5,4.6,1.1c-0.7-1.1-3-2-5.8-2.2
			c-3.4-0.2-6.2,0.8-6.2,2.2c0,0.6,0.5,1.2,1.4,1.7C367.4,431,367.3,430.7,367.3,430.5z"/>
	</g>
	<g>
		
			<ellipse transform="matrix(5.594491e-02 -0.9984 0.9984 5.594491e-02 -46.9222 785.2596)" class="st9" cx="391.8" cy="417.4" rx="2.5" ry="6.1"/>
		<path class="st15" d="M386.9,418.1c0.1-1.4,2.9-2.4,6.2-2.2c1.8,0.1,3.5,0.5,4.6,1.1c-0.7-1.1-3-2-5.8-2.2
			c-3.4-0.2-6.2,0.8-6.2,2.2c0,0.6,0.5,1.2,1.4,1.7C387,418.6,386.9,418.4,386.9,418.1z"/>
	</g>
</g>
<g>
	<g>
		
			<ellipse transform="matrix(5.594491e-02 -0.9984 0.9984 5.594491e-02 -51.901 818.5546)" class="st9" cx="406.9" cy="436.7" rx="2.5" ry="6.1"/>
		<path class="st15" d="M402,437.4c0.1-1.4,2.9-2.4,6.2-2.2c1.8,0.1,3.5,0.5,4.6,1.1c-0.7-1.1-3-2-5.8-2.2c-3.4-0.2-6.2,0.8-6.2,2.2
			c0,0.6,0.5,1.2,1.4,1.7C402.1,437.9,402,437.7,402,437.4z"/>
	</g>
	<g>
		
			<ellipse transform="matrix(5.594491e-02 -0.9984 0.9984 5.594491e-02 -21.0882 826.4068)" class="st9" cx="426.5" cy="424.4" rx="2.5" ry="6.1"/>
		<path class="st15" d="M421.6,425.1c0.1-1.4,2.9-2.4,6.2-2.2c1.8,0.1,3.5,0.5,4.6,1.1c-0.7-1.1-3-2-5.8-2.2
			c-3.4-0.2-6.2,0.8-6.2,2.2c0,0.6,0.5,1.2,1.4,1.7C421.6,425.5,421.6,425.3,421.6,425.1z"/>
	</g>
</g>
<g>
	<g>
		
			<ellipse transform="matrix(5.594491e-02 -0.9984 0.9984 5.594491e-02 -24.2468 861.545)" class="st9" cx="443.5" cy="443.6" rx="2.5" ry="6.1"/>
		<path class="st15" d="M438.6,444.3c0.1-1.4,2.9-2.4,6.2-2.2c1.8,0.1,3.5,0.5,4.6,1.1c-0.7-1.1-3-2-5.8-2.2
			c-3.4-0.2-6.2,0.8-6.2,2.2c0,0.6,0.5,1.2,1.4,1.7C438.6,444.8,438.6,444.5,438.6,444.3z"/>
	</g>
	<g>
		
			<ellipse transform="matrix(5.594491e-02 -0.9984 0.9984 5.594491e-02 6.5659 869.3973)" class="st9" cx="463" cy="431.2" rx="2.5" ry="6.1"/>
		<path class="st15" d="M458.1,431.9c0.1-1.4,2.9-2.4,6.2-2.2c1.8,0.1,3.5,0.5,4.6,1.1c-0.7-1.1-3-2-5.8-2.2
			c-3.4-0.2-6.2,0.8-6.2,2.2c0,0.6,0.5,1.2,1.4,1.7C458.2,432.4,458.1,432.2,458.1,431.9z"/>
	</g>
</g>
<g>
	
		<ellipse transform="matrix(5.594491e-02 -0.9984 0.9984 5.594491e-02 -180.2711 616.2399)" class="st9" cx="235.7" cy="403.4" rx="2.5" ry="6.1"/>
	<path class="st15" d="M230.8,404.1c0.1-1.4,2.9-2.4,6.2-2.2c1.8,0.1,3.5,0.5,4.6,1.1c-0.7-1.1-3-2-5.8-2.2
		c-3.4-0.2-6.2,0.8-6.2,2.2c0,0.6,0.5,1.2,1.4,1.7C230.9,404.6,230.8,404.4,230.8,404.1z"/>
</g>
<g>
	
		<ellipse transform="matrix(5.594491e-02 -0.9984 0.9984 5.594491e-02 -146.9154 626.6322)" class="st9" cx="257.9" cy="391" rx="2.5" ry="6.1"/>
	<path class="st15" d="M253,391.7c0.1-1.4,2.9-2.4,6.2-2.2c1.8,0.1,3.5,0.5,4.6,1.1c-0.7-1.1-3-2-5.8-2.2c-3.4-0.2-6.2,0.8-6.2,2.2
		c0,0.6,0.5,1.2,1.4,1.7C253.1,392.2,253,391.9,253,391.7z"/>
</g>
<g>
	
		<ellipse transform="matrix(5.594491e-02 -0.9984 0.9984 5.594491e-02 -135.2031 647.2971)" class="st9" cx="274.7" cy="395.1" rx="2.5" ry="6.1"/>
	<path class="st15" d="M269.8,395.8c0.1-1.4,2.9-2.4,6.2-2.2c1.8,0.1,3.5,0.5,4.6,1.1c-0.7-1.1-3-2-5.8-2.2
		c-3.4-0.2-6.2,0.8-6.2,2.2c0,0.6,0.5,1.2,1.4,1.7C269.9,396.3,269.8,396.1,269.8,395.8z"/>
</g>
<g>
	<ellipse class="st9" cx="354" cy="395.3" rx="6.1" ry="2.5"/>
	<path class="st15" d="M349.2,396.2c0-1.4,2.7-2.5,6.1-2.5c1.8,0,3.5,0.3,4.6,0.9c-0.7-1.1-3.1-1.8-5.9-1.8c-3.4,0-6.1,1.1-6.1,2.5
		c0,0.6,0.6,1.2,1.5,1.7C349.3,396.7,349.2,396.5,349.2,396.2z"/>
</g>
<g>
	<ellipse class="st9" cx="375.4" cy="381.5" rx="6.1" ry="2.5"/>
	<path class="st15" d="M370.5,382.5c0-1.4,2.7-2.5,6.1-2.5c1.8,0,3.5,0.3,4.6,0.9c-0.7-1.1-3.1-1.8-5.9-1.8c-3.4,0-6.1,1.1-6.1,2.5
		c0,0.6,0.6,1.2,1.5,1.7C370.6,383,370.5,382.7,370.5,382.5z"/>
</g>
<path class="st1" d="M231,319.8l1.7,29.8c0.2,3.6,1.5,7.1,3.7,10l29.5,39.4c1.3,1.8,3.3,3,5.5,3.5l46.1,9.8c2.2,0.5,4.5-0.5,5.7-2.5
	l12.7-21.2l9.4,1.9c3.5,0.7,6.7-1.9,6.7-5.5l0.2-38.4c0-6.4-4.5-11.8-10.8-13l-104.7-19C233.7,314.1,230.9,316.6,231,319.8z"/>
<polygon class="st22" points="548,286.8 548.4,321.5 485.7,363.6 485.7,328 "/>
<g>
	<polygon class="st3" points="460.3,295.7 461.7,372.6 455.1,370.8 454.1,293.2 	"/>
	<polygon class="st4" points="454.4,293.8 455.1,370.8 447.9,369.4 448.2,291.3 	"/>
</g>
<g>
	<polygon class="st22" points="500.4,216.9 500.3,203.6 486.4,213.3 	"/>
	<polygon class="st23" points="498.7,196.5 521.7,199.4 509,208.5 484,205.1 	"/>
	<path class="st24" d="M509,208.5l-25-3.4l0.1,25.6l37.8,6.5l-0.3-37.8L509,208.5z M503.9,214.2l-14.3-1.8l6.7-3.9l12.9,1.5
		L503.9,214.2z"/>
</g>
<g>
	<polygon class="st22" points="461,212.6 460.9,199.3 446.9,209 	"/>
	<polygon class="st23" points="459.2,192.3 482.2,195.1 469.6,204.2 444.6,200.8 	"/>
	<path class="st24" d="M469.6,204.2l-25-3.4l0.1,24.6l37.9,7.5l-0.3-37.8L469.6,204.2z M464.5,209.9l-14.3-1.8l6.7-3.9l12.9,1.5
		L464.5,209.9z"/>
</g>
<g>
	<polygon class="st22" points="421.3,208.1 421.2,194.8 407.3,204.5 	"/>
	<polygon class="st23" points="419.6,187.8 442.6,190.6 429.9,199.7 404.9,196.3 	"/>
	<path class="st24" d="M429.9,199.7l-25-3.4l0.4,25.3l37.5,6.9l-0.3-37.8L429.9,199.7z M424.8,205.4l-14.3-1.8l6.7-3.9l12.9,1.5
		L424.8,205.4z"/>
</g>
<polygon class="st1" points="337.2,242.6 293.4,267.1 293.1,277.8 438.5,302.2 477.8,295.8 550,249.7 550.2,244.4 387,217.4 "/>
<polygon class="st22" points="337.4,237.4 293.5,261.9 293.2,272.6 438.7,297 478,290.6 550.2,244.4 548.5,233.8 387.1,212.2 "/>
<polygon class="st1" points="455.8,275.6 316.4,253.6 382.7,217.5 521,236.6 "/>
<polygon class="st24" points="442.8,219.6 434.9,224.7 397,219.5 405,214.8 405.1,203.2 "/>
<g>
	<polygon class="st25" points="334.7,253.8 360.1,258.8 376.2,245.8 376.8,218.7 334.7,224.7 	"/>
	<polygon class="st26" points="353.8,216.3 376.8,218.7 359.6,228.1 334.7,224.7 	"/>
</g>
<ellipse class="st27" cx="391.3" cy="225.8" rx="11.2" ry="4.5"/>
<g>
	<rect x="380" y="210.6" class="st10" width="22.4" height="15.7"/>
	<rect x="394.4" y="212.8" class="st22" width="5.2" height="14.1"/>
	<ellipse class="st27" cx="391.3" cy="210.6" rx="11.2" ry="4.5"/>
</g>
<polygon class="st25" points="365.9,258.9 391.3,263.8 407.4,250.8 408,223.7 365.9,229.7 "/>
<polygon class="st28" points="382,220.8 408,223.7 391.9,232.6 365.9,229.7 "/>
<ellipse class="st27" cx="452.8" cy="238.1" rx="11.6" ry="4.6"/>
<g>
	<polygon class="st25" points="397.3,263.8 422.7,268.7 438.8,255.7 439.4,228.7 397.3,234.6 	"/>
	<polygon class="st28" points="413.4,225.7 439.4,228.7 423,237.6 397.3,234.6 	"/>
</g>
<g>
	<polygon class="st25" points="428.7,267.7 454.1,272.6 470.2,259.6 470.8,232.6 428.7,238.5 	"/>
	<polygon class="st28" points="444.8,229.6 470.8,232.6 455.3,241.8 429.2,238.6 	"/>
</g>
<path class="st9" d="M226.7,321.7l1.7,29.8c0.2,3.6,1.5,7.1,3.7,10l29.5,39.4c1.3,1.8,3.3,3,5.5,3.5l46.1,9.8
	c2.2,0.5,4.5-0.5,5.7-2.5l12.7-21.2l9.4,1.9c3.5,0.7,6.7-1.9,6.7-5.5l0.2-38.4c0-6.4-4.5-11.8-10.8-13l-104.7-19
	C229.3,316,226.5,318.5,226.7,321.7z"/>
<g>
	<path class="st4" d="M265.2,340.5c-5.5-9.6-15.7-14.1-22.8-10l-17.5,10.1l20.1,34.8l17.5-10.1C269.5,361.2,270.7,350.1,265.2,340.5
		z"/>
	<ellipse transform="matrix(0.866 -0.5 0.5 0.866 -147.5142 165.4395)" class="st29" cx="235" cy="358" rx="14.7" ry="20.1"/>
	<ellipse transform="matrix(0.866 -0.5 0.5 0.866 -147.6176 165.2327)" class="st9" cx="234.5" cy="358.1" rx="11.9" ry="15.9"/>
	<path class="st30" d="M235.5,358.9c-3.1-5.3-3.5-11.2-1.5-15.4c-2.6-0.6-5.2-0.4-7.4,0.9c-5.7,3.3-6.7,12.1-2.3,19.7
		c4.4,7.6,12.5,11.1,18.2,7.8c1.7-1,3-2.5,3.8-4.3C242.2,366.6,238.1,363.5,235.5,358.9z"/>
</g>
<g>
	<path class="st30" d="M303.9,373.8c-3.1-5.3-3.5-11.2-1.5-15.4c-2.6-0.6-5.2-0.4-7.4,0.9c-5.7,3.3-6.7,12.1-2.3,19.7
		c4.4,7.6,12.5,11.1,18.2,7.8c1.7-1,3-2.5,3.8-4.3C310.7,381.5,306.6,378.4,303.9,373.8z"/>
</g>
<ellipse transform="matrix(0.8144 -0.5803 0.5803 0.8144 -179.2126 230.3805)" class="st30" cx="270.6" cy="395.4" rx="6.7" ry="9.4"/>
<path class="st4" d="M333.7,355.4c-5.5-9.6-15.7-14.1-22.8-10l-17.5,10.1l2.1,3.6c5.7-2.9,13.5,0.6,17.8,8c4.3,7.4,3.4,16-2,19.4
	l2.2,3.8l17.5-10.1C338,376.1,339.2,365,333.7,355.4z"/>
<path class="st29" d="M316.2,365.6c-5.5-9.6-15.7-14.1-22.8-10s-8.3,15.1-2.7,24.7c5.5,9.6,15.7,14.1,22.8,10
	C320.5,386.3,321.7,375.2,316.2,365.6z M310.9,386.8c-5.7,3.3-13.8-0.2-18.2-7.8c-4.4-7.6-3.3-16.4,2.3-19.7
	c5.7-3.3,13.8,0.2,18.2,7.8C317.6,374.7,316.6,383.5,310.9,386.8z"/>
<g>
	
		<ellipse transform="matrix(0.8144 -0.5803 0.5803 0.8144 -178.1464 242.0811)" class="st31" cx="289.4" cy="399.6" rx="6.7" ry="9.4"/>
	
		<ellipse transform="matrix(0.8144 -0.5803 0.5803 0.8144 -178.1464 242.0811)" class="st32" cx="289.4" cy="399.6" rx="5.1" ry="7.2"/>
</g>
<polygon class="st1" points="329.4,255.6 329.2,251.2 457.9,271.7 455.8,275.6 "/>
<path class="st1" d="M313.2,384.9l23.8-14.7c0.5-3.9-0.2-8.4-2.3-12.7l-20.5,11.5c2,4.5,2.2,9.2,0.8,12.8c-0.3,0.7-0.6,1.3-1,1.9
	L313.2,384.9z"/>
<path class="st1" d="M246.1,369l22.4-13.7c0.5-3.9-0.2-8.4-2.3-12.7L245.8,354c2.3,5,2.3,10.3,0.3,14L246.1,369z"/>
<ellipse transform="matrix(0.9577 -0.2878 0.2878 0.9577 -108.1279 107.0139)" class="st33" cx="309.9" cy="421.3" rx="3.8" ry="4.9"/>
<path class="st34" d="M308.7,420.6c-0.5-1.5-0.3-3,0.3-4.1c-0.2,0-0.3,0.1-0.5,0.1c-2,0.6-3,3.2-2.3,5.8s3.1,4.2,5.1,3.6
	c0.9-0.3,1.5-0.9,1.9-1.7C311.4,424.5,309.4,423,308.7,420.6z"/>
<g>
	
		<ellipse transform="matrix(0.9577 -0.2878 0.2878 0.9577 -112.8127 98.0054)" class="st35" cx="276.9" cy="432.7" rx="3.8" ry="4.9"/>
	<path class="st36" d="M275.7,432c-0.5-1.5-0.3-3,0.3-4.1c-0.2,0-0.3,0.1-0.5,0.1c-2,0.6-3,3.2-2.3,5.8c0.8,2.6,3.1,4.2,5.1,3.6
		c0.9-0.3,1.5-0.9,1.9-1.7C278.4,436,276.4,434.4,275.7,432z"/>
</g>
<g>
	
		<ellipse transform="matrix(0.9577 -0.2878 0.2878 0.9577 -113.1399 102.9515)" class="st35" cx="293.6" cy="436.3" rx="3.8" ry="4.9"/>
	<path class="st36" d="M292.4,435.6c-0.5-1.5-0.3-3,0.3-4.1c-0.2,0-0.3,0.1-0.5,0.1c-2,0.6-3,3.2-2.3,5.8s3.1,4.2,5.1,3.6
		c0.9-0.3,1.5-0.9,1.9-1.7C295.1,439.5,293.1,438,292.4,435.6z"/>
</g>
<g>
	
		<ellipse transform="matrix(0.9577 -0.2878 0.2878 0.9577 -113.4323 108.1341)" class="st35" cx="311.1" cy="439.9" rx="3.8" ry="4.9"/>
	<path class="st36" d="M309.9,439.2c-0.5-1.5-0.3-3,0.3-4.1c-0.2,0-0.3,0.1-0.5,0.1c-2,0.6-3,3.2-2.3,5.8s3.1,4.2,5.1,3.6
		c0.9-0.3,1.5-0.9,1.9-1.7C312.5,443.1,310.6,441.6,309.9,439.2z"/>
</g>
<g>
	
		<ellipse transform="matrix(0.9577 -0.2878 0.2878 0.9577 -107.8861 101.8607)" class="st33" cx="292.5" cy="417.9" rx="3.8" ry="4.9"/>
	<path class="st34" d="M291.3,417.2c-0.5-1.5-0.3-3,0.3-4.1c-0.2,0-0.3,0.1-0.5,0.1c-2,0.6-3,3.2-2.3,5.8s3.1,4.2,5.1,3.6
		c0.9-0.3,1.5-0.9,1.9-1.7C294,421.1,292,419.6,291.3,417.2z"/>
</g>
<g>
	
		<ellipse transform="matrix(0.9577 -0.2878 0.2878 0.9577 -107.6481 96.9057)" class="st33" cx="275.8" cy="414.6" rx="3.8" ry="4.9"/>
	<path class="st34" d="M274.6,413.9c-0.5-1.5-0.3-3,0.3-4.1c-0.2,0-0.3,0.1-0.5,0.1c-2,0.6-3,3.2-2.3,5.8s3.1,4.2,5.1,3.6
		c0.9-0.3,1.5-0.9,1.9-1.7C277.3,417.8,275.3,416.3,274.6,413.9z"/>
</g>
<polygon class="st13" points="173.9,371.4 180.6,372.5 149,392.3 149.7,408.7 141.3,406.6 140.9,390.7 "/>
<g>
	<g>
		<polygon class="st5" points="569.4,457.1 564.7,420.2 523.6,411.8 511.1,431.7 		"/>
		<polygon class="st5" points="544,583.2 538.6,595.4 495.5,586.5 502.4,565.6 		"/>
	</g>
</g>
<ellipse transform="matrix(0.1678 -0.9858 0.9858 0.1678 -68.4122 917.3565)" class="st5" cx="509.2" cy="499.2" rx="88.6" ry="40.3"/>
<ellipse transform="matrix(0.1678 -0.9858 0.9858 0.1678 -42.1291 965.1936)" class="st3" cx="550.6" cy="507.6" rx="88.6" ry="42.2"/>
<ellipse transform="matrix(0.1678 -0.9858 0.9858 0.1678 -41.7839 964.9553)" class="st6" cx="550.7" cy="507.2" rx="69.3" ry="28.2"/>
<g>
	<path class="st30" d="M558.3,439.2"/>
	<path class="st37" d="M580.8,489.2c-9,1-28.4,3-28.4,3s4.8-40.8,6.2-53.6c-1.9-0.4-7.7,3-11.1,6.4l-5.2,47.6l-17.8,1.2
		c-0.6,2.8-1.2,5.7-1.7,8.7c-0.7,4-1.2,7.9-1.6,11.8l17.8-1.9l-6.4,60c1.9,1.7,4.1,2.8,6.4,3.2c1,0.2,2.1,0.2,3.1,0.1
		c1.4-12.9,6.9-63.1,6.9-63.1l30-3.5C580,502.2,580.6,495.5,580.8,489.2z"/>
	
		<ellipse transform="matrix(0.1948 -0.9808 0.9808 0.1948 -53.3683 939.9922)" class="st9" cx="545.9" cy="502.5" rx="8.5" ry="4.7"/>
	
		<ellipse transform="matrix(0.1948 -0.9808 0.9808 0.1948 -44.6179 948.5925)" class="st9" cx="555.5" cy="501.5" rx="5.1" ry="2.8"/>
	
		<ellipse transform="matrix(0.1948 -0.9808 0.9808 0.1948 -61.0964 931.2503)" class="st9" cx="536.7" cy="502.8" rx="5.1" ry="2.8"/>
	
		<ellipse transform="matrix(0.1948 -0.9808 0.9808 0.1948 -36.9736 956.154)" class="st9" cx="563.9" cy="500.6" rx="5.1" ry="2.8"/>
	
		<ellipse transform="matrix(0.1948 -0.9808 0.9808 0.1948 -97.8949 968.4492)" class="st9" cx="540.9" cy="543.9" rx="5.1" ry="2.8"/>
	
		<ellipse transform="matrix(0.1948 -0.9808 0.9808 0.1948 -7.6211 911.4534)" class="st9" cx="551.3" cy="460.4" rx="5.1" ry="2.8"/>
	<path class="st38" d="M556.5,485.1l-28.1-5c-0.8-0.1-1.3-0.9-1.2-1.7l0.2-1.2c0.1-0.8,0.9-1.3,1.7-1.2l28.1,5
		c0.8,0.1,1.3,0.9,1.2,1.7l-0.2,1.2C558.1,484.7,557.3,485.2,556.5,485.1z"/>
	<g>
		<path class="st38" d="M545.7,515.6c-2.7-0.5-5.5,3-6.3,7.7c-0.8,4.7,0.6,8.9,3.3,9.4l9.1,1.2l3-13.7l0-3.4L545.7,515.6z"/>
		
			<ellipse transform="matrix(0.1763 -0.9843 0.9843 0.1763 -61.3832 977.3289)" class="st39" cx="553.3" cy="525.3" rx="8.7" ry="4.9"/>
		
			<ellipse transform="matrix(0.1763 -0.9843 0.9843 0.1763 -60.5765 978.3676)" class="st38" cx="554.3" cy="525.4" rx="3.4" ry="1.9"/>
	</g>
	<g>
		<path class="st38" d="M548.8,474.6c-2.2-0.4-4.5,2.4-5.2,6.3c-0.7,3.9,0.5,7.3,2.7,7.7l7.5,1l2.5-11.2l0-2.8L548.8,474.6z"/>
		<ellipse transform="matrix(0.1763 -0.9843 0.9843 0.1763 -17.9063 943.8047)" class="st39" cx="555" cy="482.6" rx="7.1" ry="4"/>
		
			<ellipse transform="matrix(0.1763 -0.9843 0.9843 0.1763 -17.243 944.6589)" class="st38" cx="555.8" cy="482.6" rx="2.8" ry="1.6"/>
	</g>
</g>
<g>
	<path class="st38" d="M470,453.3c-1.9-0.3-3.9,2.1-4.5,5.5c-0.6,3.4,0.4,6.4,2.4,6.7l6.5,0.9l2.2-9.8l0-2.4L470,453.3z"/>
	
		<ellipse transform="matrix(0.1763 -0.9843 0.9843 0.1763 -61.4978 847.0933)" class="st39" cx="475.4" cy="460.3" rx="6.2" ry="3.5"/>
	
		<ellipse transform="matrix(0.1763 -0.9843 0.9843 0.1763 -60.9197 847.8376)" class="st38" cx="476.2" cy="460.3" rx="2.4" ry="1.4"/>
</g>
<g>
	<path class="st38" d="M464.3,494.1c-1.9-0.3-3.9,2.1-4.5,5.5c-0.6,3.4,0.4,6.4,2.4,6.7l6.5,0.9l2.2-9.8l0-2.4L464.3,494.1z"/>
	
		<ellipse transform="matrix(0.1763 -0.9843 0.9843 0.1763 -106.3412 875.0437)" class="st39" cx="469.7" cy="501.1" rx="6.2" ry="3.5"/>
	
		<ellipse transform="matrix(0.1763 -0.9843 0.9843 0.1763 -105.7631 875.7881)" class="st38" cx="470.4" cy="501.1" rx="2.4" ry="1.4"/>
</g>
<path class="st7" d="M566,437.5c-3.8-0.6-8.1,0.3-12,2.8c1.6-0.4,3.6-0.3,5.2,0c15.4,2.6,22.8,34.5,16.5,71.2
	c-6.2,36.7-23.8,64.3-39.2,61.7c-2.4-0.4-4.6-1.5-6.5-3.2c3.2,5.2,7.1,8.5,11.8,9.3c16.4,2.8,35.1-26.7,41.8-65.8
	C590.3,474.3,582.4,440.2,566,437.5z"/>
<path class="st3" d="M528.8,462.6l2.7,8.2l-3.7,10.1l-3.9-1.5l1.3-7.1c0,0,3.6-7.3,3.6-8.5S528.8,462.6,528.8,462.6z"/>
<polygon class="st2" points="450.3,374.1 467.8,361.8 463.2,373.1 "/>
<path class="st40" d="M439.7,369"/>
<g>
	<ellipse class="st1" cx="367.9" cy="352.9" rx="9.1" ry="4.2"/>
	<polygon class="st1" points="358.8,352.9 358.8,350.4 377.1,350.2 377.1,352.9 368.1,355.8 	"/>
	<ellipse class="st9" cx="367.9" cy="350.4" rx="9.1" ry="4.2"/>
</g>
<g>
	<ellipse class="st1" cx="389.5" cy="357.4" rx="9.1" ry="4.2"/>
	<polygon class="st1" points="380.4,357.4 380.4,354.9 398.6,354.7 398.6,357.4 389.6,360.3 	"/>
	<ellipse class="st9" cx="389.5" cy="354.9" rx="9.1" ry="4.2"/>
</g>
<g>
	<ellipse class="st9" cx="432" cy="369.5" rx="9.1" ry="4.2"/>
	<polygon class="st9" points="422.9,369.5 422.9,367 441.2,366.8 441.2,369.5 432.2,372.4 	"/>
	<ellipse class="st1" cx="432" cy="367" rx="9.1" ry="4.2"/>
</g>
<ellipse transform="matrix(0.2949 -0.9555 0.9555 0.2949 -319.3354 464.4629)" class="st41" cx="155" cy="448.6" rx="4.4" ry="3.2"/>
<ellipse transform="matrix(0.2949 -0.9555 0.9555 0.2949 -304.7526 451.0556)" class="st41" cx="153.2" cy="432" rx="4.4" ry="3.2"/>
<g>
	<ellipse class="st42" cx="454.3" cy="287.6" rx="7.1" ry="3.4"/>
	<rect x="447.3" y="280.6" class="st42" width="14.1" height="6.9"/>
	<ellipse class="st43" cx="454.3" cy="280.4" rx="7.1" ry="3.4"/>
	<ellipse class="st42" cx="454.3" cy="279.3" rx="3.7" ry="1.8"/>
</g>
<g>
	<ellipse class="st42" cx="305.4" cy="267.9" rx="7.1" ry="3.4"/>
	<rect x="298.4" y="261" class="st42" width="14.1" height="6.9"/>
	<ellipse class="st43" cx="305.4" cy="260.8" rx="7.1" ry="3.4"/>
	<ellipse class="st42" cx="305.4" cy="259.7" rx="3.7" ry="1.8"/>
</g>
<g>
	<ellipse class="st42" cx="533.8" cy="232.8" rx="7.1" ry="3.4"/>
	<rect x="526.8" y="225.9" class="st42" width="14.1" height="6.9"/>
	<ellipse class="st43" cx="533.8" cy="225.7" rx="7.1" ry="3.4"/>
	<ellipse class="st42" cx="533.8" cy="224.6" rx="3.7" ry="1.8"/>
</g>
<ellipse class="st1" cx="424.4" cy="287.7" rx="5.2" ry="2.9"/>
<ellipse class="st1" cx="403.1" cy="284.6" rx="5.2" ry="2.9"/>
<ellipse class="st1" cx="380.9" cy="281.4" rx="5.2" ry="2.9"/>
<ellipse class="st1" cx="353" cy="277.6" rx="5.2" ry="2.9"/>
<ellipse class="st1" cx="329.4" cy="272.9" rx="5.2" ry="2.9"/>
<path class="st25" d="M334.7,224.7c0.7,0.2,129.3,18.4,129.3,18.4l-5.4,4.1l-120.3-13.5L334.7,224.7z"/>
<ellipse transform="matrix(0.9709 -0.2396 0.2396 0.9709 -67.6747 111.9741)" class="st1" cx="426.7" cy="334.3" rx="4.7" ry="5.6"/>
<ellipse transform="matrix(0.9709 -0.2396 0.2396 0.9709 -67.1871 96.7107)" class="st1" cx="364.1" cy="324.7" rx="4.7" ry="5.6"/>
<ellipse transform="matrix(0.9709 -0.2396 0.2396 0.9709 -68.0452 122.3733)" class="st1" cx="469.2" cy="341" rx="4.7" ry="5.6"/>
<g>
	
		<ellipse transform="matrix(0.2956 -0.9553 0.9553 0.2956 -292.1993 416.6616)" class="st44" cx="136.4" cy="406.5" rx="4.6" ry="3.2"/>
	<path class="st1" d="M137.8,402c-0.3-0.1-0.7-0.1-1-0.1c0.7,1,0.9,2.7,0.4,4.3c-0.6,2-2,3.4-3.4,3.5c0.3,0.5,0.8,0.9,1.3,1.1
		c1.7,0.5,3.7-1,4.4-3.5C140.3,405,139.5,402.6,137.8,402z"/>
</g>
<g>
	
		<ellipse transform="matrix(0.2956 -0.9553 0.9553 0.2956 -312.5031 420.7261)" class="st44" cx="129" cy="422.3" rx="4.6" ry="3.2"/>
	<path class="st1" d="M130.4,417.8c-0.3-0.1-0.7-0.1-1-0.1c0.7,1,0.9,2.7,0.4,4.3c-0.6,2-2,3.4-3.4,3.5c0.3,0.5,0.8,0.9,1.3,1.1
		c1.7,0.5,3.7-1,4.4-3.5C132.9,420.8,132.1,418.4,130.4,417.8z"/>
</g>
<path class="st17" d="M499,290.6c0,0,3.6-3.5,8.4-0.7c5.9,3.3,6,13.5-1.2,16.4c-7.2,2.9-11.8-6.4-10.1-13c1.2-4.9,11.3-3.3,11.7,6.7
	c0.2,6.5-3.7,8.2-9.3,6.3c-5.6-2-7.8-7.8-6.1-10.8c2.2-4,8.6-1.6,9.7,3.3c1.2,5.4-2.6,8.2-8.4,7.4c-3.6-0.5-6.6-6-4-8.4
	c0.2-0.2,0.4-0.3,0.6-0.4c2.6-1.7,6.1-0.3,7.2,3.7c1.1,4.2-2,5.4-3.7,5.1c-1.7-0.2-4.7,1-5.9-2.5c-1.1-3.5,3.5-6.8,6.1-3.6
	c1.9,2.3-0.3,5.9-2.4,5.1"/>
<polygon class="st2" points="470.4,259.5 521.2,236.5 456,275.5 460.5,270.6 "/>
<polygon class="st45" points="309.5,236.6 325.8,238.6 332.4,235 317.5,233.3 "/>
<polygon class="st1" points="309.5,236.6 309.5,253 325.6,243.9 325.8,238.6 "/>
<polygon class="st24" points="522,230.1 514.1,235.6 476.3,230.4 484.2,225.4 484.2,213.7 "/>
<polygon class="st24" points="482.4,224.8 474,230.1 437.2,225 444.5,219.9 444.6,208.5 "/>
</svg>
