<?xml version="1.0" encoding="UTF-8" standalone="no"?>
<!-- Generator: Adobe Illustrator 15.0.2, SVG Export Plug-In . SVG Version: 6.00 Build 0)  -->

<svg
   xmlns:dc="http://purl.org/dc/elements/1.1/"
   xmlns:cc="http://creativecommons.org/ns#"
   xmlns:rdf="http://www.w3.org/1999/02/22-rdf-syntax-ns#"
   xmlns:svg="http://www.w3.org/2000/svg"
   xmlns="http://www.w3.org/2000/svg"
   xmlns:sodipodi="http://sodipodi.sourceforge.net/DTD/sodipodi-0.dtd"
   xmlns:inkscape="http://www.inkscape.org/namespaces/inkscape"
   version="1.1"
   id="svg"
   x="0px"
   y="0px"
   width="2316.0791"
   height="1140.7346"
   viewBox="0 0 2316.0792 1140.7346"
   enable-background="new 0 0 306.072 148.031"
   xml:space="preserve"
   inkscape:version="0.48.3.1 r9886"
   sodipodi:docname="controller_arduino_mega.svg"><metadata
   id="metadata1226"><rdf:RDF><cc:Work
       rdf:about=""><dc:format>image/svg+xml</dc:format><dc:type
         rdf:resource="http://purl.org/dc/dcmitype/StillImage" /><dc:title></dc:title></cc:Work></rdf:RDF></metadata><defs
   id="defs1224" /><sodipodi:namedview
   pagecolor="#ffffff"
   bordercolor="#666666"
   borderopacity="1"
   objecttolerance="10"
   gridtolerance="10"
   guidetolerance="10"
   inkscape:pageopacity="0"
   inkscape:pageshadow="2"
   inkscape:window-width="640"
   inkscape:window-height="480"
   id="namedview1222"
   showgrid="false"
   fit-margin-top="20"
   fit-margin-left="20"
   fit-margin-right="20"
   fit-margin-bottom="20"
   inkscape:zoom="0.10915992"
   inkscape:cx="1025.4954"
   inkscape:cy="1426.337"
   inkscape:window-x="0"
   inkscape:window-y="25"
   inkscape:window-maximized="0"
   inkscape:current-layer="svg" />
<g
   id="breadboardbreadboard"
   transform="matrix(7.4371951,0,0,7.4371951,19.881005,19.895875)"
   inkscape:export-filename="/media/data/resonance/LFO/img/arduino-mega-2560.png"
   inkscape:export-xdpi="120"
   inkscape:export-ydpi="120">
	<path
   d="M 299.132,35.925 V 3.707 L 295.147,0.014 H 21.976 v 148.004 h 277.157 v -5.031 l 6.923,-7.135 V 42.513 l -6.924,-6.588 z M 64.765,10.882 c -2.524,0 -4.573,-2.049 -4.573,-4.573 0,-2.523 2.049,-4.573 4.573,-4.573 2.523,0 4.572,2.05 4.572,4.573 10e-4,2.524 -2.048,4.573 -4.572,4.573 z m 0,136.077 c -2.524,0 -4.573,-2.049 -4.573,-4.572 0,-2.525 2.049,-4.574 4.573,-4.574 2.523,0 4.572,2.049 4.572,4.574 10e-4,2.524 -2.048,4.572 -4.572,4.572 z M 272.81,2.312 c 2.313,0 4.195,1.882 4.195,4.199 0,2.319 -1.879,4.196 -4.195,4.196 -2.32,0 -4.202,-1.877 -4.202,-4.196 0,-2.317 1.882,-4.199 4.202,-4.199 z m 20.228,144.227 c -2.363,0 -4.277,-1.915 -4.277,-4.276 0,-2.367 1.914,-4.28 4.277,-4.28 2.363,0 4.275,1.913 4.275,4.28 0.002,2.361 -1.912,4.276 -4.275,4.276 z"
   id="path4"
   inkscape:connector-curvature="0"
   style="fill:#0f7391" />
	<path
   d="m 100.358,91.172 c 0,-1.004 -0.736,-1.83 -1.697,-1.983 v -0.027 h -6.858 c -1.111,0 -2.014,0.899 -2.014,2.014 0,1.11 0.901,2.014 2.014,2.014 h 6.858 v -0.03 c 0.959,-0.158 1.697,-0.982 1.697,-1.988 z"
   id="path6"
   inkscape:connector-curvature="0"
   style="fill:#02809e" />
	<path
   d="m 100.358,83.202 c 0,-1.002 -0.736,-1.828 -1.697,-1.98 v -0.033 h -6.858 c -1.111,0 -2.014,0.903 -2.014,2.015 0,1.113 0.901,2.016 2.014,2.016 h 6.858 v -0.03 c 0.959,-0.156 1.697,-0.984 1.697,-1.988 z"
   id="path8"
   inkscape:connector-curvature="0"
   style="fill:#02809e" />
	<path
   d="m 100.358,99.143 c 0,-1.002 -0.736,-1.828 -1.697,-1.98 v -0.03 h -6.858 c -1.111,0 -2.014,0.902 -2.014,2.014 0,1.114 0.901,2.017 2.014,2.017 h 6.858 v -0.031 c 0.959,-0.158 1.697,-0.984 1.697,-1.99 z"
   id="path10"
   inkscape:connector-curvature="0"
   style="fill:#02809e" />
	<path
   d="m 100.358,75.234 c 0,-1.004 -0.736,-1.829 -1.697,-1.981 V 73.22 h -6.858 c -1.111,0 -2.014,0.903 -2.014,2.014 0,1.112 0.901,2.015 2.014,2.015 h 6.858 v -0.031 c 0.959,-0.155 1.697,-0.98 1.697,-1.984 z"
   id="path12"
   inkscape:connector-curvature="0"
   style="fill:#02809e" />
	<path
   d="m 224.617,63.917 c 0,-1.004 -0.735,-1.831 -1.696,-1.982 v -0.031 h -6.856 c -1.112,0 -2.015,0.901 -2.015,2.015 0,1.112 0.9,2.014 2.015,2.014 h 6.856 V 65.9 c 0.959,-0.153 1.696,-0.98 1.696,-1.983 z"
   id="path14"
   inkscape:connector-curvature="0"
   style="fill:#02809e" />
	<path
   d="m 224.617,76.391 c 0,-1.004 -0.735,-1.83 -1.696,-1.981 v -0.03 h -6.856 c -1.112,0 -2.015,0.901 -2.015,2.012 0,1.113 0.9,2.016 2.015,2.016 h 6.856 v -0.03 c 0.959,-0.155 1.696,-0.983 1.696,-1.987 z"
   id="path16"
   inkscape:connector-curvature="0"
   style="fill:#02809e" />
	<path
   d="m 228.389,63.917 c 0,-1.004 0.734,-1.831 1.695,-1.982 v -0.031 h 6.857 c 1.11,0 2.012,0.901 2.012,2.015 0,1.112 -0.898,2.014 -2.012,2.014 h -6.857 V 65.9 c -0.96,-0.153 -1.695,-0.98 -1.695,-1.983 z"
   id="path18"
   inkscape:connector-curvature="0"
   style="fill:#02809e" />
	<path
   d="m 228.389,76.391 c 0,-1.004 0.734,-1.83 1.695,-1.981 v -0.03 h 6.857 c 1.11,0 2.012,0.901 2.012,2.012 0,1.113 -0.898,2.016 -2.012,2.016 h -6.857 v -0.03 c -0.96,-0.155 -1.695,-0.983 -1.695,-1.987 z"
   id="path20"
   inkscape:connector-curvature="0"
   style="fill:#02809e" />
	<path
   d="m 100.358,115.083 c 0,-1.004 -0.736,-1.827 -1.697,-1.979 v -0.033 h -6.858 c -1.111,0 -2.014,0.902 -2.014,2.015 0,1.113 0.901,2.018 2.014,2.018 h 6.858 v -0.035 c 0.959,-0.154 1.697,-0.978 1.697,-1.986 z"
   id="path22"
   inkscape:connector-curvature="0"
   style="fill:#02809e" />
	<path
   d="m 100.358,107.114 c 0,-1.004 -0.736,-1.827 -1.697,-1.979 v -0.033 h -6.858 c -1.111,0 -2.014,0.901 -2.014,2.015 0,1.112 0.901,2.018 2.014,2.018 h 6.858 V 109.1 c 0.959,-0.154 1.697,-0.979 1.697,-1.986 z"
   id="path24"
   inkscape:connector-curvature="0"
   style="fill:#02809e" />
	<path
   d="m 133.882,110.993 c 0,-1.005 -0.735,-1.831 -1.696,-1.984 v -0.029 h -6.86 c -1.111,0 -2.014,0.901 -2.014,2.015 0,1.11 0.901,2.016 2.014,2.016 h 6.86 v -0.033 c 0.957,-0.156 1.696,-0.981 1.696,-1.985 z"
   id="path26"
   inkscape:connector-curvature="0"
   style="fill:#02809e" />
	<path
   d="m 133.882,118.961 c 0,-1.002 -0.735,-1.828 -1.696,-1.981 v -0.029 h -6.86 c -1.111,0 -2.014,0.901 -2.014,2.013 0,1.115 0.901,2.016 2.014,2.016 h 6.86 v -0.03 c 0.957,-0.157 1.696,-0.983 1.696,-1.989 z"
   id="path28"
   inkscape:connector-curvature="0"
   style="fill:#02809e" />
	<path
   d="m 133.882,126.932 c 0,-1.004 -0.735,-1.828 -1.696,-1.979 v -0.033 h -6.86 c -1.111,0 -2.014,0.9 -2.014,2.014 0,1.114 0.901,2.019 2.014,2.019 h 6.86 v -0.035 c 0.957,-0.154 1.696,-0.978 1.696,-1.986 z"
   id="path30"
   inkscape:connector-curvature="0"
   style="fill:#02809e" />
	<path
   d="m 100.358,35.38 c 0,-1.004 -0.736,-1.829 -1.697,-1.981 v -0.032 h -6.858 c -1.111,0 -2.014,0.9 -2.014,2.014 0,1.114 0.901,2.016 2.014,2.016 h 6.858 v -0.034 c 0.959,-0.152 1.697,-0.977 1.697,-1.983 z"
   id="path32"
   inkscape:connector-curvature="0"
   style="fill:#02809e" />
	<path
   d="m 100.358,27.41 c 0,-1.005 -0.736,-1.829 -1.697,-1.98 v -0.033 h -6.858 c -1.111,0 -2.014,0.901 -2.014,2.015 0,1.112 0.901,2.016 2.014,2.016 h 6.858 v -0.034 c 0.959,-0.155 1.697,-0.978 1.697,-1.984 z"
   id="path34"
   inkscape:connector-curvature="0"
   style="fill:#02809e" />
	<path
   d="m 66.891,21.911 c 0,-1.005 -0.736,-1.829 -1.697,-1.98 v -0.032 h -6.858 c -1.111,0 -2.015,0.901 -2.015,2.014 0,1.111 0.902,2.017 2.015,2.017 h 6.857 v -0.034 c 0.96,-0.155 1.698,-0.979 1.698,-1.985 z"
   id="path36"
   inkscape:connector-curvature="0"
   style="fill:#02809e" />
	<path
   d="m 79.666,21.911 c 0,-1.005 -0.736,-1.829 -1.697,-1.98 v -0.032 h -6.857 c -1.112,0 -2.015,0.901 -2.015,2.014 0,1.111 0.901,2.017 2.015,2.017 h 6.857 v -0.034 c 0.958,-0.155 1.697,-0.979 1.697,-1.985 z"
   id="path38"
   inkscape:connector-curvature="0"
   style="fill:#02809e" />
	<path
   d="m 100.358,51.322 c 0,-1.004 -0.736,-1.828 -1.697,-1.98 V 49.31 h -6.858 c -1.111,0 -2.014,0.901 -2.014,2.014 0,1.113 0.901,2.016 2.014,2.016 h 6.858 v -0.031 c 0.959,-0.157 1.697,-0.982 1.697,-1.987 z"
   id="path40"
   inkscape:connector-curvature="0"
   style="fill:#02809e" />
	<path
   d="m 72.175,115.084 c 0,-1.004 -0.734,-1.828 -1.696,-1.98 v -0.032 H 63.62 c -1.113,0 -2.014,0.901 -2.014,2.015 0,1.112 0.899,2.016 2.014,2.016 h 6.858 v -0.032 c 0.96,-0.156 1.697,-0.982 1.697,-1.987 z"
   id="path42"
   inkscape:connector-curvature="0"
   style="fill:#02809e" />
	<path
   d="m 72.175,107.374 c 0,-1.004 -0.734,-1.828 -1.696,-1.98 v -0.031 H 63.62 c -1.113,0 -2.014,0.9 -2.014,2.015 0,1.111 0.899,2.016 2.014,2.016 h 6.858 v -0.033 c 0.96,-0.156 1.697,-0.983 1.697,-1.987 z"
   id="path44"
   inkscape:connector-curvature="0"
   style="fill:#02809e" />
	<path
   d="m 85.598,115.084 c 0,-1.004 -0.735,-1.828 -1.697,-1.98 v -0.032 h -6.858 c -1.112,0 -2.014,0.901 -2.014,2.015 0,1.112 0.899,2.016 2.014,2.016 H 83.9 v -0.032 c 0.96,-0.156 1.698,-0.982 1.698,-1.987 z"
   id="path46"
   inkscape:connector-curvature="0"
   style="fill:#02809e" />
	<path
   d="m 85.598,107.374 c 0,-1.004 -0.735,-1.828 -1.697,-1.98 v -0.031 h -6.858 c -1.112,0 -2.014,0.9 -2.014,2.015 0,1.111 0.899,2.016 2.014,2.016 H 83.9 v -0.033 c 0.96,-0.156 1.698,-0.983 1.698,-1.987 z"
   id="path48"
   inkscape:connector-curvature="0"
   style="fill:#02809e" />
	<path
   d="m 72.175,76.333 c 0,-1.004 -0.734,-1.828 -1.696,-1.979 V 74.32 H 63.62 c -1.113,0 -2.014,0.901 -2.014,2.014 0,1.111 0.899,2.015 2.014,2.015 h 6.858 v -0.032 c 0.96,-0.154 1.697,-0.982 1.697,-1.984 z"
   id="path50"
   inkscape:connector-curvature="0"
   style="fill:#02809e" />
	<path
   d="m 85.598,76.333 c 0,-1.004 -0.735,-1.828 -1.697,-1.979 V 74.32 h -6.858 c -1.112,0 -2.014,0.901 -2.014,2.014 0,1.111 0.899,2.015 2.014,2.015 H 83.9 v -0.032 c 0.96,-0.154 1.698,-0.982 1.698,-1.984 z"
   id="path52"
   inkscape:connector-curvature="0"
   style="fill:#02809e" />
	<path
   d="m 254.536,51.465 c 0,-1.005 -0.737,-1.832 -1.699,-1.983 v -0.028 h -6.858 c -1.109,0 -2.014,0.898 -2.014,2.013 0,1.111 0.901,2.014 2.014,2.014 h 6.858 V 53.45 c 0.961,-0.155 1.699,-0.982 1.699,-1.985 z"
   id="path54"
   inkscape:connector-curvature="0"
   style="fill:#02809e" />
	<path
   d="m 254.536,58.69 c 0,-1.005 -0.737,-1.832 -1.699,-1.983 v -0.029 h -6.858 c -1.109,0 -2.014,0.9 -2.014,2.013 0,1.111 0.901,2.015 2.014,2.015 h 6.858 v -0.031 c 0.961,-0.155 1.699,-0.983 1.699,-1.985 z"
   id="path56"
   inkscape:connector-curvature="0"
   style="fill:#02809e" />
	<path
   d="m 254.536,44.241 c 0,-1.006 -0.737,-1.832 -1.699,-1.984 v -0.029 h -6.858 c -1.109,0 -2.014,0.9 -2.014,2.014 0,1.11 0.901,2.014 2.014,2.014 h 6.858 v -0.031 c 0.961,-0.156 1.699,-0.983 1.699,-1.984 z"
   id="path58"
   inkscape:connector-curvature="0"
   style="fill:#02809e" />
	<path
   d="m 56.566,94.255 c 0,-1.005 -0.737,-1.832 -1.699,-1.983 V 92.24 H 48.01 c -1.113,0 -2.016,0.901 -2.016,2.018 0,1.108 0.901,2.014 2.016,2.014 h 6.856 V 96.24 c 0.962,-0.156 1.7,-0.982 1.7,-1.985 z"
   id="path60"
   inkscape:connector-curvature="0"
   style="fill:#02809e" />
	<path
   d="m 56.566,100.799 c 0,-1.004 -0.737,-1.829 -1.699,-1.982 V 98.789 H 48.01 c -1.113,0 -2.016,0.896 -2.016,2.014 0,1.108 0.901,2.014 2.016,2.014 h 6.856 v -0.03 c 0.962,-0.161 1.7,-0.984 1.7,-1.988 z"
   id="path62"
   inkscape:connector-curvature="0"
   style="fill:#02809e" />
	<path
   d="m 56.566,107.344 c 0,-1.006 -0.737,-1.83 -1.699,-1.982 v -0.03 H 48.01 c -1.113,0 -2.016,0.901 -2.016,2.014 0,1.113 0.901,2.014 2.016,2.014 h 6.856 v -0.029 c 0.962,-0.158 1.7,-0.981 1.7,-1.987 z"
   id="path64"
   inkscape:connector-curvature="0"
   style="fill:#02809e" />
	<rect
   x="29.885"
   y="90.796997"
   width="20.305"
   height="19.298"
   id="rect66"
   style="fill:#02809e" />
	<rect
   x="26.361"
   y="93.144997"
   width="5.0349998"
   height="14.601"
   id="rect68"
   style="fill:#02809e" />
	<path
   d="m 53.732,71.425 c 0,-1.004 -0.737,-1.832 -1.699,-1.982 V 69.41 h -4.024 c -1.113,0 -2.016,0.9 -2.016,2.017 0,1.109 0.901,2.014 2.016,2.014 h 4.023 v -0.03 c 0.962,-0.157 1.7,-0.983 1.7,-1.986 z"
   id="path70"
   inkscape:connector-curvature="0"
   style="fill:#02809e" />
	<path
   d="m 53.732,77.97 c 0,-1.005 -0.737,-1.829 -1.699,-1.983 v -0.028 h -4.024 c -1.113,0 -2.016,0.897 -2.016,2.014 0,1.109 0.901,2.014 2.016,2.014 h 4.023 v -0.03 c 0.962,-0.16 1.7,-0.984 1.7,-1.987 z"
   id="path72"
   inkscape:connector-curvature="0"
   style="fill:#02809e" />
	<path
   d="m 53.732,84.514 c 0,-1.005 -0.737,-1.83 -1.699,-1.982 v -0.029 h -4.024 c -1.113,0 -2.016,0.9 -2.016,2.014 0,1.114 0.901,2.014 2.016,2.014 h 4.023 v -0.03 c 0.962,-0.157 1.7,-0.981 1.7,-1.987 z"
   id="path74"
   inkscape:connector-curvature="0"
   style="fill:#02809e" />
	<rect
   x="38.384998"
   y="67.967003"
   width="8.9700003"
   height="19.299"
   id="rect76"
   style="fill:#02809e" />
	<rect
   x="33.410999"
   y="72.927002"
   width="6.4860001"
   height="9.375"
   id="rect78"
   style="fill:#02809e" />
	<circle
   cx="74.810997"
   cy="6.0910001"
   r="1.762"
   id="circle80"
   d="m 76.572997,6.0910001 c 0,0.9731257 -0.788874,1.7619999 -1.762,1.7619999 -0.973126,0 -1.762,-0.7888742 -1.762,-1.7619999 0,-0.9731257 0.788874,-1.762 1.762,-1.762 0.973126,0 1.762,0.7888743 1.762,1.762 z"
   sodipodi:cx="74.810997"
   sodipodi:cy="6.0910001"
   sodipodi:rx="1.762"
   sodipodi:ry="1.762"
   style="fill:#02809e" />
	<path
   d="m 74.811,1.646 c -2.457,0 -4.448,1.991 -4.448,4.445 0,2.458 1.992,4.446 4.448,4.446 2.456,0 4.446,-1.989 4.446,-4.446 0,-2.455 -1.991,-4.445 -4.446,-4.445 z m 0,8.43 c -2.203,0 -3.986,-1.784 -3.986,-3.985 0,-2.201 1.785,-3.985 3.986,-3.985 2.201,0 3.983,1.785 3.983,3.985 0.001,2.201 -1.782,3.985 -3.983,3.985 z"
   id="path82"
   inkscape:connector-curvature="0"
   style="fill:#02809e" />
	<circle
   cx="28.964001"
   cy="141.38499"
   r="1.762"
   id="circle84"
   d="m 30.726001,141.38499 c 0,0.97313 -0.788875,1.762 -1.762,1.762 -0.973126,0 -1.762,-0.78887 -1.762,-1.762 0,-0.97312 0.788874,-1.762 1.762,-1.762 0.973125,0 1.762,0.78888 1.762,1.762 z"
   sodipodi:cx="28.964001"
   sodipodi:cy="141.38499"
   sodipodi:rx="1.762"
   sodipodi:ry="1.762"
   style="fill:#02809e" />
	<path
   d="m 28.965,136.94 c -2.457,0 -4.448,1.992 -4.448,4.446 0,2.456 1.992,4.446 4.448,4.446 2.454,0 4.446,-1.99 4.446,-4.446 0,-2.454 -1.991,-4.446 -4.446,-4.446 z m 0,8.431 c -2.204,0 -3.985,-1.784 -3.985,-3.984 0,-2.201 1.785,-3.985 3.985,-3.985 2.201,0 3.983,1.784 3.983,3.985 10e-4,2.199 -1.783,3.984 -3.983,3.984 z"
   id="path86"
   inkscape:connector-curvature="0"
   style="fill:#02809e" />
	<circle
   cx="30.305"
   cy="24.851"
   r="4.2789998"
   id="circle88"
   d="m 34.584,24.851 c 0,2.363226 -1.915773,4.279 -4.279,4.279 -2.363226,0 -4.279,-1.915774 -4.279,-4.279 0,-2.363227 1.915774,-4.279 4.279,-4.279 2.363227,0 4.279,1.915773 4.279,4.279 z"
   sodipodi:cx="30.305"
   sodipodi:cy="24.851"
   sodipodi:rx="4.2789998"
   sodipodi:ry="4.2789998"
   style="fill:#02809e" />
	<circle
   cx="30.305"
   cy="59.585999"
   r="4.2789998"
   id="circle90"
   d="m 34.584,59.585999 c 0,2.363226 -1.915773,4.278999 -4.279,4.278999 -2.363226,0 -4.279,-1.915773 -4.279,-4.278999 0,-2.363227 1.915774,-4.279 4.279,-4.279 2.363227,0 4.279,1.915773 4.279,4.279 z"
   sodipodi:cx="30.305"
   sodipodi:cy="59.585999"
   sodipodi:rx="4.2789998"
   sodipodi:ry="4.2789998"
   style="fill:#02809e" />
	<rect
   x="54.803001"
   y="33.460999"
   width="29.945999"
   height="20.725"
   id="rect92"
   style="fill:#02809e" />
	<rect
   x="66.376999"
   y="120.763"
   width="7.9710002"
   height="14.378"
   id="rect94"
   style="fill:#02809e" />
	<rect
   x="93.098"
   y="124.834"
   width="11.161"
   height="19.073999"
   id="rect96"
   style="fill:#02809e" />
	<rect
   x="78.443001"
   y="124.834"
   width="11.162"
   height="19.073999"
   id="rect98"
   style="fill:#02809e" />
	<rect
   x="67.989998"
   y="83.093002"
   width="11.863"
   height="16.16"
   id="rect100"
   style="fill:#02809e" />
	<rect
   x="63.164001"
   y="57.495998"
   width="11.863"
   height="8.7080002"
   id="rect102"
   style="fill:#02809e" />
	<rect
   x="139.487"
   y="43.484001"
   width="46.083"
   height="43.264"
   id="rect104"
   style="fill:#02809e" />
	<circle
   cx="52.580002"
   cy="125.909"
   r="5.664"
   id="circle106"
   d="m 58.244002,125.909 c 0,3.12814 -2.535859,5.664 -5.664,5.664 -3.128141,0 -5.664,-2.53586 -5.664,-5.664 0,-3.12814 2.535859,-5.664 5.664,-5.664 3.128141,0 5.664,2.53586 5.664,5.664 z"
   sodipodi:cx="52.580002"
   sodipodi:cy="125.909"
   sodipodi:rx="5.664"
   sodipodi:ry="5.664"
   style="fill:#02809e" />
	<circle
   cx="45.196999"
   cy="139.66901"
   r="5.6630001"
   id="circle108"
   d="m 50.859999,139.66901 c 0,3.12758 -2.535412,5.663 -5.663,5.663 -3.127589,0 -5.663001,-2.53542 -5.663001,-5.663 0,-3.12759 2.535412,-5.663 5.663001,-5.663 3.127588,0 5.663,2.53541 5.663,5.663 z"
   sodipodi:cx="45.196999"
   sodipodi:cy="139.66901"
   sodipodi:rx="5.6630001"
   sodipodi:ry="5.6630001"
   style="fill:#02809e" />
	<g
   id="g110">
		<path
   d="m 100.358,59.293 c 0,-1.004 -0.736,-1.829 -1.697,-1.982 V 57.28 h -6.858 c -1.111,0 -2.014,0.901 -2.014,2.014 0,1.111 0.901,2.014 2.014,2.014 h 6.858 v -0.032 c 0.959,-0.153 1.697,-0.979 1.697,-1.983 z"
   id="path112"
   inkscape:connector-curvature="0"
   style="fill:#8d8c8c" />
		<rect
   x="93.309998"
   y="57.655998"
   width="3.6470001"
   height="3.2090001"
   id="rect114"
   style="fill:#fbbe0e" />
	</g>
	<g
   id="g116">
		<path
   d="m 100.358,43.352 c 0,-1.003 -0.736,-1.829 -1.697,-1.98 V 41.34 h -6.858 c -1.111,0 -2.014,0.901 -2.014,2.014 0,1.113 0.901,2.016 2.014,2.016 h 6.858 v -0.032 c 0.959,-0.157 1.697,-0.982 1.697,-1.986 z"
   id="path118"
   inkscape:connector-curvature="0"
   style="fill:#8d8c8c" />
		<rect
   x="93.309998"
   y="41.715"
   width="3.6470001"
   height="3.2090001"
   id="rect120"
   style="fill:#fbbe0e" />
	</g>
	<path
   d="m 231.104,51.465 c 0,1.004 0.736,1.83 1.697,1.979 v 0.032 h 6.858 c 1.112,0 2.014,-0.9 2.014,-2.014 0,-1.112 -0.899,-2.016 -2.014,-2.016 h -6.858 v 0.032 c -0.957,0.158 -1.697,0.984 -1.697,1.987 z"
   id="path122"
   inkscape:connector-curvature="0"
   style="fill:#8d8c8c" />
	<rect
   x="234.505"
   y="49.889999"
   width="3.6459999"
   height="3.2090001"
   id="rect124"
   style="fill:#fbbe0e" />
	<g
   id="g126">
		<path
   d="m 100.358,67.263 c 0,-1.004 -0.736,-1.83 -1.697,-1.982 v -0.03 h -6.858 c -1.111,0 -2.014,0.902 -2.014,2.014 0,1.113 0.901,2.015 2.014,2.015 h 6.858 v -0.031 c 0.959,-0.155 1.697,-0.981 1.697,-1.986 z"
   id="path128"
   inkscape:connector-curvature="0"
   style="fill:#8d8c8c" />
		<rect
   x="93.309998"
   y="65.625999"
   width="3.6470001"
   height="3.2090001"
   id="rect130"
   style="fill:#fbbe0e" />
	</g>
	<rect
   x="218.50999"
   y="61.596001"
   width="16.611"
   height="16.988001"
   id="rect132"
   style="fill:#8d8c8c" />
	<path
   d="m 234.747,63.986 c 0,0.835 -0.678,1.514 -1.514,1.514 -0.834,0 -1.512,-0.676 -1.512,-1.514 0,-0.832 0.676,-1.513 1.512,-1.513 0.837,0.003 1.514,0.682 1.514,1.513 z"
   id="path134"
   inkscape:connector-curvature="0"
   style="fill:#404040" />
	<path
   d="m 222.036,63.986 c 0,0.835 -0.676,1.514 -1.512,1.514 -0.838,0 -1.515,-0.676 -1.515,-1.514 0,-0.832 0.677,-1.513 1.515,-1.513 0.834,0.003 1.512,0.682 1.512,1.513 z"
   id="path136"
   inkscape:connector-curvature="0"
   style="fill:#404040" />
	<circle
   cx="220.524"
   cy="76.699997"
   r="1.511"
   id="circle138"
   d="m 222.035,76.699997 c 0,0.834502 -0.6765,1.511 -1.511,1.511 -0.8345,0 -1.511,-0.676498 -1.511,-1.511 0,-0.834502 0.6765,-1.511 1.511,-1.511 0.8345,0 1.511,0.676498 1.511,1.511 z"
   sodipodi:cx="220.524"
   sodipodi:cy="76.699997"
   sodipodi:rx="1.511"
   sodipodi:ry="1.511"
   style="fill:#404040" />
	<circle
   cx="233.237"
   cy="76.699997"
   r="1.511"
   id="circle140"
   d="m 234.748,76.699997 c 0,0.834502 -0.6765,1.511 -1.511,1.511 -0.8345,0 -1.511,-0.676498 -1.511,-1.511 0,-0.834502 0.6765,-1.511 1.511,-1.511 0.8345,0 1.511,0.676498 1.511,1.511 z"
   sodipodi:cx="233.237"
   sodipodi:cy="76.699997"
   sodipodi:rx="1.511"
   sodipodi:ry="1.511"
   style="fill:#404040" />
	<circle
   cx="226.502"
   cy="70.091003"
   r="4.908"
   id="circle142"
   d="m 231.41,70.091003 c 0,2.710614 -2.19739,4.908 -4.908,4.908 -2.71061,0 -4.908,-2.197386 -4.908,-4.908 0,-2.710613 2.19739,-4.908 4.908,-4.908 2.71061,0 4.908,2.197387 4.908,4.908 z"
   sodipodi:cx="226.502"
   sodipodi:cy="70.091003"
   sodipodi:rx="4.908"
   sodipodi:ry="4.908"
   style="fill:#404040" />
	<polygon
   points="195.626,61.292 195.626,65.225 197.135,66.733 201.069,66.733 204.409,66.733 208.341,66.733 209.852,65.225 209.852,61.292 208.341,59.783 204.409,59.783 201.069,59.783 197.135,59.783 "
   id="polygon144"
   style="fill:#404040" />
	<polygon
   points="195.626,68.472 195.626,72.403 197.135,73.915 201.069,73.915 204.409,73.915 208.341,73.915 209.852,72.403 209.852,68.472 208.341,66.962 204.409,66.962 201.069,66.962 197.135,66.962 "
   id="polygon146"
   style="fill:#404040" />
	<polygon
   points="195.626,75.651 195.626,79.583 197.135,81.092 201.069,81.092 204.409,81.092 208.341,81.092 209.852,79.583 209.852,75.651 208.341,74.14 204.409,74.14 201.069,74.14 197.135,74.14 "
   id="polygon148"
   style="fill:#404040" />
	<polygon
   points="195.626,61.292 195.626,65.225 197.135,66.733 201.069,66.733 204.409,66.733 208.341,66.733 209.852,65.225 209.852,61.292 208.341,59.783 204.409,59.783 201.069,59.783 197.135,59.783 "
   id="polygon150"
   style="fill:#404040" />
	<polygon
   points="195.626,68.472 195.626,72.403 197.135,73.915 201.069,73.915 204.409,73.915 208.341,73.915 209.852,72.403 209.852,68.472 208.341,66.962 204.409,66.962 201.069,66.962 197.135,66.962 "
   id="polygon152"
   style="fill:#404040" />
	<polygon
   points="195.626,75.651 195.626,79.583 197.135,81.092 201.069,81.092 204.409,81.092 208.341,81.092 209.852,79.583 209.852,75.651 208.341,74.14 204.409,74.14 201.069,74.14 197.135,74.14 "
   id="polygon154"
   style="fill:#404040" />
	<rect
   x="198.034"
   y="76.333"
   width="2.2969999"
   height="2.299"
   id="rect156"
   style="fill:#8d8c8c" />
	<rect
   x="205.231"
   y="76.333"
   width="2.2969999"
   height="2.299"
   id="rect158"
   style="fill:#8d8c8c" />
	<rect
   x="198.034"
   y="69.137001"
   width="2.2969999"
   height="2.2980001"
   id="rect160"
   style="fill:#8d8c8c" />
	<rect
   x="205.231"
   y="69.137001"
   width="2.2969999"
   height="2.2980001"
   id="rect162"
   style="fill:#8d8c8c" />
	<rect
   x="198.034"
   y="61.938999"
   width="2.2969999"
   height="2.2969999"
   id="rect164"
   style="fill:#8d8c8c" />
	<rect
   x="205.231"
   y="61.938999"
   width="2.2969999"
   height="2.2969999"
   id="rect166"
   style="fill:#8d8455" />
	<rect
   x="205.78999"
   y="62.497002"
   width="1.183"
   height="1.182"
   id="rect168"
   style="fill:#8c8663" />
	<polygon
   points="205.231,61.939 205.79,62.497 206.971,62.497 207.529,61.939 "
   id="polygon170"
   style="fill:#b8af82" />
	<polygon
   points="206.971,63.679 206.971,62.497 207.529,61.939 207.529,64.237 "
   id="polygon172"
   style="fill:#80795b" />
	<polygon
   points="205.79,63.679 206.971,63.679 207.529,64.237 205.231,64.237 "
   id="polygon174"
   style="fill:#5e5b43" />
	<polygon
   points="205.231,61.939 205.79,62.497 205.79,63.679 205.231,64.237 "
   id="polygon176"
   style="fill:#9a916c" />
	<rect
   x="198.593"
   y="62.497002"
   width="1.183"
   height="1.182"
   id="rect178"
   style="fill:#8c8663" />
	<polygon
   points="198.034,61.939 198.593,62.497 199.772,62.497 200.331,61.939 "
   id="polygon180"
   style="fill:#b8af82" />
	<polygon
   points="199.772,63.679 199.772,62.497 200.331,61.939 200.331,64.237 "
   id="polygon182"
   style="fill:#80795b" />
	<polygon
   points="198.593,63.679 199.772,63.679 200.331,64.237 198.034,64.237 "
   id="polygon184"
   style="fill:#5e5b43" />
	<polygon
   points="198.034,61.939 198.593,62.497 198.593,63.679 198.034,64.237 "
   id="polygon186"
   style="fill:#9a916c" />
	<rect
   x="205.78999"
   y="69.694"
   width="1.183"
   height="1.183"
   id="rect188"
   style="fill:#8c8663" />
	<polygon
   points="205.231,69.137 205.79,69.694 206.971,69.694 207.529,69.137 "
   id="polygon190"
   style="fill:#b8af82" />
	<polygon
   points="206.971,70.875 206.971,69.694 207.529,69.137 207.529,71.435 "
   id="polygon192"
   style="fill:#80795b" />
	<polygon
   points="205.79,70.875 206.971,70.875 207.529,71.435 205.231,71.435 "
   id="polygon194"
   style="fill:#5e5b43" />
	<polygon
   points="205.231,69.137 205.79,69.694 205.79,70.875 205.231,71.435 "
   id="polygon196"
   style="fill:#9a916c" />
	<rect
   x="198.593"
   y="69.694"
   width="1.183"
   height="1.183"
   id="rect198"
   style="fill:#8c8663" />
	<polygon
   points="198.034,69.137 198.593,69.694 199.772,69.694 200.331,69.137 "
   id="polygon200"
   style="fill:#b8af82" />
	<polygon
   points="199.772,70.875 199.772,69.694 200.331,69.137 200.331,71.435 "
   id="polygon202"
   style="fill:#80795b" />
	<polygon
   points="198.593,70.875 199.772,70.875 200.331,71.435 198.034,71.435 "
   id="polygon204"
   style="fill:#5e5b43" />
	<polygon
   points="198.034,69.137 198.593,69.694 198.593,70.875 198.034,71.435 "
   id="polygon206"
   style="fill:#9a916c" />
	<rect
   x="205.78999"
   y="76.890999"
   width="1.183"
   height="1.1849999"
   id="rect208"
   style="fill:#8c8663" />
	<polygon
   points="205.231,76.333 205.79,76.891 206.971,76.891 207.529,76.333 "
   id="polygon210"
   style="fill:#b8af82" />
	<polygon
   points="206.971,78.075 206.971,76.891 207.529,76.333 207.529,78.632 "
   id="polygon212"
   style="fill:#80795b" />
	<polygon
   points="205.79,78.075 206.971,78.075 207.529,78.632 205.231,78.632 "
   id="polygon214"
   style="fill:#5e5b43" />
	<polygon
   points="205.231,76.333 205.79,76.891 205.79,78.075 205.231,78.632 "
   id="polygon216"
   style="fill:#9a916c" />
	<rect
   x="198.593"
   y="76.890999"
   width="1.183"
   height="1.1849999"
   id="rect218"
   style="fill:#8c8663" />
	<polygon
   points="198.034,76.333 198.593,76.891 199.772,76.891 200.331,76.333 "
   id="polygon220"
   style="fill:#b8af82" />
	<polygon
   points="199.772,78.075 199.772,76.891 200.331,76.333 200.331,78.632 "
   id="polygon222"
   style="fill:#80795b" />
	<polygon
   points="198.593,78.075 199.772,78.075 200.331,78.632 198.034,78.632 "
   id="polygon224"
   style="fill:#5e5b43" />
	<polygon
   points="198.034,76.333 198.593,76.891 198.593,78.075 198.034,78.632 "
   id="polygon226"
   style="fill:#9a916c" />
	<rect
   x="0.016000001"
   y="25.396"
   width="37.922001"
   height="33.896"
   id="rect228"
   style="fill:#676666" />
	<rect
   x="37.938999"
   y="25.396"
   width="8.0539999"
   height="33.896"
   id="rect230"
   style="fill:#676666" />
	<rect
   x="15.117"
   y="115.463"
   width="37.252998"
   height="23.825001"
   id="rect232" />
	<rect
   x="14.783"
   y="114.122"
   width="7.7199998"
   height="26.177999"
   id="rect234" />
	<rect
   x="80.435997"
   y="1.921"
   width="7.178"
   height="7.177"
   id="rect236"
   style="fill:#404040" />
	<rect
   x="82.639"
   y="4.1230001"
   width="2.7720001"
   height="2.7709999"
   id="rect238" />
	<polygon
   points="81.616,3.1 82.639,4.123 85.411,4.123 86.433,3.1 "
   id="polygon240"
   style="fill:#2a2a29" />
	<polygon
   points="86.434,3.1 85.411,4.126 85.411,6.897 86.434,7.918 "
   id="polygon242"
   style="fill:#474747" />
	<polygon
   points="86.433,7.918 85.411,6.897 82.638,6.897 81.616,7.918 "
   id="polygon244"
   style="fill:#595959" />
	<polygon
   points="81.615,7.918 82.638,6.896 82.638,4.123 81.615,3.1 "
   id="polygon246"
   style="fill:#373737" />
	<rect
   x="87.612999"
   y="1.921"
   width="7.1760001"
   height="7.177"
   id="rect248"
   style="fill:#404040" />
	<rect
   x="89.814003"
   y="4.1230001"
   width="2.7709999"
   height="2.7709999"
   id="rect250" />
	<polygon
   points="88.791,3.1 89.813,4.123 92.587,4.123 93.61,3.1 "
   id="polygon252"
   style="fill:#2a2a29" />
	<polygon
   points="93.61,3.1 92.587,4.126 92.587,6.897 93.61,7.918 "
   id="polygon254"
   style="fill:#474747" />
	<polygon
   points="93.607,7.918 92.587,6.897 89.813,6.897 88.791,7.918 "
   id="polygon256"
   style="fill:#595959" />
	<polygon
   points="88.79,7.918 89.813,6.896 89.813,4.123 88.79,3.1 "
   id="polygon258"
   style="fill:#373737" />
	<rect
   x="94.788002"
   y="1.921"
   width="7.1789999"
   height="7.177"
   id="rect260"
   style="fill:#404040" />
	<rect
   x="96.990997"
   y="4.1230001"
   width="2.7720001"
   height="2.7709999"
   id="rect262" />
	<polygon
   points="95.968,3.1 96.99,4.123 99.765,4.123 100.786,3.1 "
   id="polygon264"
   style="fill:#2a2a29" />
	<polygon
   points="100.786,3.1 99.765,4.126 99.765,6.897 100.786,7.918 "
   id="polygon266"
   style="fill:#474747" />
	<polygon
   points="100.785,7.918 99.764,6.897 96.989,6.897 95.968,7.918 "
   id="polygon268"
   style="fill:#595959" />
	<polygon
   points="95.967,7.918 96.989,6.896 96.989,4.123 95.967,3.1 "
   id="polygon270"
   style="fill:#373737" />
	<rect
   x="101.965"
   y="1.921"
   width="7.177"
   height="7.177"
   id="rect272"
   style="fill:#404040" />
	<rect
   x="104.166"
   y="4.1230001"
   width="2.7739999"
   height="2.7709999"
   id="rect274" />
	<polygon
   points="103.144,3.1 104.166,4.123 106.939,4.123 107.963,3.1 "
   id="polygon276"
   style="fill:#2a2a29" />
	<polygon
   points="107.963,3.1 106.939,4.126 106.939,6.897 107.963,7.918 "
   id="polygon278"
   style="fill:#474747" />
	<polygon
   points="107.961,7.918 106.939,6.897 104.165,6.897 103.144,7.918 "
   id="polygon280"
   style="fill:#595959" />
	<polygon
   points="103.143,7.918 104.165,6.896 104.165,4.123 103.143,3.1 "
   id="polygon282"
   style="fill:#373737" />
	<rect
   x="123.621"
   y="138.672"
   width="7.177"
   height="7.1760001"
   id="rect284"
   style="fill:#404040" />
	<rect
   x="125.823"
   y="140.875"
   width="2.773"
   height="2.7709999"
   id="rect286" />
	<polygon
   points="124.8,139.852 125.822,140.873 128.596,140.873 129.617,139.852 "
   id="polygon288"
   style="fill:#2a2a29" />
	<polygon
   points="129.618,139.852 128.596,140.876 128.596,143.648 129.618,144.668 "
   id="polygon290"
   style="fill:#474747" />
	<polygon
   points="129.617,144.668 128.596,143.648 125.822,143.648 124.8,144.668 "
   id="polygon292"
   style="fill:#595959" />
	<polygon
   points="124.8,144.668 125.822,143.646 125.822,140.873 124.8,139.852 "
   id="polygon294"
   style="fill:#373737" />
	<rect
   x="116.424"
   y="138.672"
   width="7.177"
   height="7.1760001"
   id="rect296"
   style="fill:#404040" />
	<rect
   x="118.626"
   y="140.875"
   width="2.773"
   height="2.7709999"
   id="rect298" />
	<polygon
   points="117.602,139.852 118.624,140.873 121.397,140.873 122.419,139.852 "
   id="polygon300"
   style="fill:#2a2a29" />
	<polygon
   points="122.421,139.852 121.397,140.876 121.397,143.648 122.421,144.668 "
   id="polygon302"
   style="fill:#474747" />
	<polygon
   points="122.419,144.668 121.397,143.648 118.624,143.648 117.602,144.668 "
   id="polygon304"
   style="fill:#595959" />
	<polygon
   points="117.602,144.668 118.624,143.646 118.624,140.873 117.602,139.852 "
   id="polygon306"
   style="fill:#373737" />
	<rect
   x="109.225"
   y="138.672"
   width="7.177"
   height="7.1760001"
   id="rect308"
   style="fill:#404040" />
	<rect
   x="111.427"
   y="140.875"
   width="2.773"
   height="2.7709999"
   id="rect310" />
	<polygon
   points="110.404,139.852 111.427,140.873 114.201,140.873 115.223,139.852 "
   id="polygon312"
   style="fill:#2a2a29" />
	<polygon
   points="115.224,139.852 114.201,140.876 114.201,143.648 115.224,144.668 "
   id="polygon314"
   style="fill:#474747" />
	<polygon
   points="115.223,144.668 114.201,143.648 111.427,143.648 110.404,144.668 "
   id="polygon316"
   style="fill:#595959" />
	<polygon
   points="110.404,144.668 111.427,143.646 111.427,140.873 110.404,139.852 "
   id="polygon318"
   style="fill:#373737" />
	<rect
   x="130.797"
   y="138.672"
   width="7.178"
   height="7.1760001"
   id="rect320"
   style="fill:#404040" />
	<rect
   x="133"
   y="140.875"
   width="2.7709999"
   height="2.7709999"
   id="rect322" />
	<polygon
   points="131.975,139.852 132.998,140.873 135.771,140.873 136.793,139.852 "
   id="polygon324"
   style="fill:#2a2a29" />
	<polygon
   points="136.795,139.852 135.771,140.876 135.771,143.648 136.795,144.668 "
   id="polygon326"
   style="fill:#474747" />
	<polygon
   points="136.793,144.668 135.771,143.648 132.996,143.648 131.975,144.668 "
   id="polygon328"
   style="fill:#595959" />
	<polygon
   points="131.975,144.668 132.996,143.646 132.996,140.873 131.975,139.852 "
   id="polygon330"
   style="fill:#373737" />
	<rect
   x="137.972"
   y="138.672"
   width="7.1789999"
   height="7.1760001"
   id="rect332"
   style="fill:#404040" />
	<rect
   x="140.17599"
   y="140.875"
   width="2.7739999"
   height="2.7709999"
   id="rect334" />
	<polygon
   points="139.152,139.852 140.174,140.873 142.95,140.873 143.969,139.852 "
   id="polygon336"
   style="fill:#2a2a29" />
	<polygon
   points="143.969,139.852 142.95,140.876 142.95,143.648 143.969,144.668 "
   id="polygon338"
   style="fill:#474747" />
	<polygon
   points="143.969,144.668 142.95,143.648 140.174,143.648 139.152,144.668 "
   id="polygon340"
   style="fill:#595959" />
	<polygon
   points="139.152,144.668 140.174,143.646 140.174,140.873 139.152,139.852 "
   id="polygon342"
   style="fill:#373737" />
	<rect
   x="145.149"
   y="138.672"
   width="7.178"
   height="7.1760001"
   id="rect344"
   style="fill:#404040" />
	<rect
   x="147.35001"
   y="140.875"
   width="2.7720001"
   height="2.7709999"
   id="rect346" />
	<polygon
   points="146.327,139.852 147.35,140.873 150.125,140.873 151.146,139.852 "
   id="polygon348"
   style="fill:#2a2a29" />
	<polygon
   points="151.147,139.852 150.125,140.876 150.125,143.648 151.147,144.668 "
   id="polygon350"
   style="fill:#474747" />
	<polygon
   points="151.146,144.668 150.123,143.648 147.35,143.648 146.327,144.668 "
   id="polygon352"
   style="fill:#595959" />
	<polygon
   points="146.327,144.668 147.35,143.646 147.35,140.873 146.327,139.852 "
   id="polygon354"
   style="fill:#373737" />
	<rect
   x="109.141"
   y="1.921"
   width="7.177"
   height="7.177"
   id="rect356"
   style="fill:#404040" />
	<rect
   x="111.344"
   y="4.1230001"
   width="2.7720001"
   height="2.7709999"
   id="rect358" />
	<polygon
   points="110.32,3.1 111.343,4.123 114.117,4.123 115.139,3.1 "
   id="polygon360"
   style="fill:#2a2a29" />
	<polygon
   points="115.139,3.1 114.117,4.126 114.117,6.897 115.139,7.918 "
   id="polygon362"
   style="fill:#474747" />
	<polygon
   points="115.139,7.918 114.115,6.897 111.343,6.897 110.32,7.918 "
   id="polygon364"
   style="fill:#595959" />
	<polygon
   points="110.318,7.918 111.343,6.896 111.343,4.123 110.318,3.1 "
   id="polygon366"
   style="fill:#373737" />
	<rect
   x="116.317"
   y="1.921"
   width="7.178"
   height="7.177"
   id="rect368"
   style="fill:#404040" />
	<rect
   x="118.519"
   y="4.1230001"
   width="2.7709999"
   height="2.7709999"
   id="rect370" />
	<polygon
   points="117.497,3.1 118.519,4.123 121.292,4.123 122.314,3.1 "
   id="polygon372"
   style="fill:#2a2a29" />
	<polygon
   points="122.314,3.1 121.292,4.126 121.292,6.897 122.314,7.918 "
   id="polygon374"
   style="fill:#474747" />
	<polygon
   points="122.314,7.918 121.291,6.897 118.518,6.897 117.497,7.918 "
   id="polygon376"
   style="fill:#595959" />
	<polygon
   points="117.496,7.918 118.518,6.896 118.518,4.123 117.496,3.1 "
   id="polygon378"
   style="fill:#373737" />
	<rect
   x="123.494"
   y="1.921"
   width="7.177"
   height="7.177"
   id="rect380"
   style="fill:#404040" />
	<rect
   x="125.697"
   y="4.1230001"
   width="2.7720001"
   height="2.7709999"
   id="rect382" />
	<polygon
   points="124.675,3.1 125.695,4.123 128.469,4.123 129.492,3.1 "
   id="polygon384"
   style="fill:#2a2a29" />
	<polygon
   points="129.492,3.1 128.469,4.126 128.469,6.897 129.492,7.918 "
   id="polygon386"
   style="fill:#474747" />
	<polygon
   points="129.491,7.918 128.469,6.897 125.695,6.897 124.675,7.918 "
   id="polygon388"
   style="fill:#595959" />
	<polygon
   points="124.673,7.918 125.695,6.896 125.695,4.123 124.673,3.1 "
   id="polygon390"
   style="fill:#373737" />
	<rect
   x="130.67"
   y="1.921"
   width="7.1789999"
   height="7.177"
   id="rect392"
   style="fill:#404040" />
	<rect
   x="132.873"
   y="4.1230001"
   width="2.7720001"
   height="2.7709999"
   id="rect394" />
	<polygon
   points="131.849,3.1 132.871,4.123 135.645,4.123 136.667,3.1 "
   id="polygon396"
   style="fill:#2a2a29" />
	<polygon
   points="136.667,3.1 135.645,4.126 135.645,6.897 136.667,7.918 "
   id="polygon398"
   style="fill:#474747" />
	<polygon
   points="136.666,7.918 135.644,6.897 132.871,6.897 131.849,7.918 "
   id="polygon400"
   style="fill:#595959" />
	<polygon
   points="131.848,7.918 132.871,6.896 132.871,4.123 131.848,3.1 "
   id="polygon402"
   style="fill:#373737" />
	<rect
   x="145.213"
   y="1.921"
   width="7.1799998"
   height="7.177"
   id="rect404"
   style="fill:#404040" />
	<rect
   x="147.416"
   y="4.1230001"
   width="2.7709999"
   height="2.7709999"
   id="rect406" />
	<polygon
   points="146.391,3.1 147.414,4.123 150.188,4.123 151.21,3.1 "
   id="polygon408"
   style="fill:#2a2a29" />
	<polygon
   points="151.21,3.1 150.188,4.126 150.188,6.897 151.21,7.918 "
   id="polygon410"
   style="fill:#474747" />
	<polygon
   points="151.21,7.918 150.187,6.897 147.414,6.897 146.391,7.918 "
   id="polygon412"
   style="fill:#595959" />
	<polygon
   points="146.391,7.918 147.414,6.896 147.414,4.123 146.391,3.1 "
   id="polygon414"
   style="fill:#373737" />
	<rect
   x="152.39"
   y="1.921"
   width="7.1750002"
   height="7.177"
   id="rect416"
   style="fill:#404040" />
	<rect
   x="154.591"
   y="4.1230001"
   width="2.773"
   height="2.7709999"
   id="rect418" />
	<polygon
   points="153.568,3.1 154.591,4.123 157.364,4.123 158.385,3.1 "
   id="polygon420"
   style="fill:#2a2a29" />
	<polygon
   points="158.388,3.1 157.364,4.126 157.364,6.897 158.388,7.918 "
   id="polygon422"
   style="fill:#474747" />
	<polygon
   points="158.385,7.918 157.364,6.897 154.591,6.897 153.568,7.918 "
   id="polygon424"
   style="fill:#595959" />
	<polygon
   points="153.568,7.918 154.591,6.896 154.591,4.123 153.568,3.1 "
   id="polygon426"
   style="fill:#373737" />
	<rect
   x="159.564"
   y="1.921"
   width="7.1799998"
   height="7.177"
   id="rect428"
   style="fill:#404040" />
	<rect
   x="161.76801"
   y="4.1230001"
   width="2.7709999"
   height="2.7709999"
   id="rect430" />
	<polygon
   points="160.745,3.1 161.768,4.123 164.54,4.123 165.563,3.1 "
   id="polygon432"
   style="fill:#2a2a29" />
	<polygon
   points="165.563,3.1 164.54,4.126 164.54,6.897 165.563,7.918 "
   id="polygon434"
   style="fill:#474747" />
	<polygon
   points="165.561,7.918 164.54,6.897 161.766,6.897 160.745,7.918 "
   id="polygon436"
   style="fill:#595959" />
	<polygon
   points="160.744,7.918 161.766,6.896 161.766,4.123 160.744,3.1 "
   id="polygon438"
   style="fill:#373737" />
	<rect
   x="166.742"
   y="1.921"
   width="7.178"
   height="7.177"
   id="rect440"
   style="fill:#404040" />
	<rect
   x="168.944"
   y="4.1230001"
   width="2.7709999"
   height="2.7709999"
   id="rect442" />
	<polygon
   points="167.922,3.1 168.942,4.123 171.718,4.123 172.739,3.1 "
   id="polygon444"
   style="fill:#2a2a29" />
	<polygon
   points="172.739,3.1 171.718,4.126 171.718,6.897 172.739,7.918 "
   id="polygon446"
   style="fill:#474747" />
	<polygon
   points="172.739,7.918 171.716,6.897 168.942,6.897 167.922,7.918 "
   id="polygon448"
   style="fill:#595959" />
	<polygon
   points="167.922,7.918 168.942,6.896 168.942,4.123 167.922,3.1 "
   id="polygon450"
   style="fill:#373737" />
	<rect
   x="173.91901"
   y="1.921"
   width="7.1760001"
   height="7.177"
   id="rect452"
   style="fill:#404040" />
	<rect
   x="176.12"
   y="4.1230001"
   width="2.773"
   height="2.7709999"
   id="rect454" />
	<polygon
   points="175.097,3.1 176.119,4.123 178.892,4.123 179.915,3.1 "
   id="polygon456"
   style="fill:#2a2a29" />
	<polygon
   points="179.915,3.1 178.892,4.126 178.892,6.897 179.915,7.918 "
   id="polygon458"
   style="fill:#474747" />
	<polygon
   points="179.915,7.918 178.892,6.897 176.119,6.897 175.097,7.918 "
   id="polygon460"
   style="fill:#595959" />
	<polygon
   points="175.097,7.918 176.119,6.896 176.119,4.123 175.097,3.1 "
   id="polygon462"
   style="fill:#373737" />
	<rect
   x="181.09399"
   y="1.921"
   width="7.1789999"
   height="7.177"
   id="rect464"
   style="fill:#404040" />
	<rect
   x="183.29601"
   y="4.1230001"
   width="2.7720001"
   height="2.7709999"
   id="rect466" />
	<polygon
   points="182.274,3.1 183.296,4.123 186.068,4.123 187.091,3.1 "
   id="polygon468"
   style="fill:#2a2a29" />
	<polygon
   points="187.091,3.1 186.068,4.126 186.068,6.897 187.091,7.918 "
   id="polygon470"
   style="fill:#474747" />
	<polygon
   points="187.091,7.918 186.068,6.897 183.296,6.897 182.274,7.918 "
   id="polygon472"
   style="fill:#595959" />
	<polygon
   points="182.272,7.918 183.296,6.896 183.296,4.123 182.272,3.1 "
   id="polygon474"
   style="fill:#373737" />
	<rect
   x="188.27"
   y="1.921"
   width="7.178"
   height="7.177"
   id="rect476"
   style="fill:#404040" />
	<rect
   x="190.47301"
   y="4.1230001"
   width="2.7709999"
   height="2.7709999"
   id="rect478" />
	<polygon
   points="189.45,3.1 190.473,4.123 193.245,4.123 194.268,3.1 "
   id="polygon480"
   style="fill:#2a2a29" />
	<polygon
   points="194.268,3.1 193.245,4.126 193.245,6.897 194.268,7.918 "
   id="polygon482"
   style="fill:#474747" />
	<polygon
   points="194.268,7.918 193.245,6.897 190.472,6.897 189.45,7.918 "
   id="polygon484"
   style="fill:#595959" />
	<polygon
   points="189.446,7.918 190.472,6.896 190.472,4.123 189.446,3.1 "
   id="polygon486"
   style="fill:#373737" />
	<rect
   x="195.446"
   y="1.921"
   width="7.178"
   height="7.177"
   id="rect488"
   style="fill:#404040" />
	<rect
   x="197.649"
   y="4.1230001"
   width="2.7720001"
   height="2.7709999"
   id="rect490" />
	<polygon
   points="196.626,3.1 197.648,4.123 200.422,4.123 201.444,3.1 "
   id="polygon492"
   style="fill:#2a2a29" />
	<polygon
   points="201.444,3.1 200.422,4.126 200.422,6.897 201.444,7.918 "
   id="polygon494"
   style="fill:#474747" />
	<polygon
   points="201.442,7.918 200.421,6.897 197.648,6.897 196.626,7.918 "
   id="polygon496"
   style="fill:#595959" />
	<polygon
   points="196.626,7.918 197.648,6.896 197.648,4.123 196.626,3.1 "
   id="polygon498"
   style="fill:#373737" />
	<rect
   x="159.60699"
   y="138.672"
   width="7.1789999"
   height="7.1760001"
   id="rect500"
   style="fill:#404040" />
	<rect
   x="161.811"
   y="140.875"
   width="2.7709999"
   height="2.7709999"
   id="rect502" />
	<polygon
   points="160.787,139.852 161.809,140.875 164.583,140.875 165.604,139.852 "
   id="polygon504"
   style="fill:#2a2a29" />
	<polygon
   points="165.604,139.852 164.583,140.876 164.583,143.649 165.604,144.668 "
   id="polygon506"
   style="fill:#474747" />
	<polygon
   points="165.604,144.668 164.583,143.649 161.809,143.649 160.787,144.668 "
   id="polygon508"
   style="fill:#595959" />
	<polygon
   points="160.787,144.668 161.809,143.647 161.809,140.875 160.787,139.852 "
   id="polygon510"
   style="fill:#373737" />
	<rect
   x="166.785"
   y="138.672"
   width="7.1750002"
   height="7.1760001"
   id="rect512"
   style="fill:#404040" />
	<rect
   x="168.987"
   y="140.875"
   width="2.7720001"
   height="2.7709999"
   id="rect514" />
	<polygon
   points="167.964,139.852 168.987,140.875 171.759,140.875 172.78,139.852 "
   id="polygon516"
   style="fill:#2a2a29" />
	<polygon
   points="172.782,139.852 171.759,140.876 171.759,143.649 172.782,144.668 "
   id="polygon518"
   style="fill:#474747" />
	<polygon
   points="172.78,144.668 171.759,143.649 168.985,143.649 167.964,144.668 "
   id="polygon520"
   style="fill:#595959" />
	<polygon
   points="167.964,144.668 168.985,143.647 168.985,140.875 167.964,139.852 "
   id="polygon522"
   style="fill:#373737" />
	<rect
   x="173.96001"
   y="138.672"
   width="7.1810002"
   height="7.1760001"
   id="rect524"
   style="fill:#404040" />
	<rect
   x="176.16299"
   y="140.875"
   width="2.7720001"
   height="2.7709999"
   id="rect526" />
	<polygon
   points="175.14,139.852 176.163,140.875 178.934,140.875 179.958,139.852 "
   id="polygon528"
   style="fill:#2a2a29" />
	<polygon
   points="179.958,139.852 178.934,140.876 178.934,143.649 179.958,144.668 "
   id="polygon530"
   style="fill:#474747" />
	<polygon
   points="179.956,144.668 178.934,143.649 176.161,143.649 175.14,144.668 "
   id="polygon532"
   style="fill:#595959" />
	<polygon
   points="175.139,144.668 176.161,143.647 176.161,140.875 175.139,139.852 "
   id="polygon534"
   style="fill:#373737" />
	<rect
   x="181.13499"
   y="138.672"
   width="7.1789999"
   height="7.1760001"
   id="rect536"
   style="fill:#404040" />
	<rect
   x="183.339"
   y="140.875"
   width="2.7709999"
   height="2.7709999"
   id="rect538" />
	<polygon
   points="182.315,139.852 183.337,140.875 186.112,140.875 187.134,139.852 "
   id="polygon540"
   style="fill:#2a2a29" />
	<polygon
   points="187.134,139.852 186.112,140.876 186.112,143.649 187.134,144.668 "
   id="polygon542"
   style="fill:#474747" />
	<polygon
   points="187.134,144.668 186.11,143.649 183.337,143.649 182.315,144.668 "
   id="polygon544"
   style="fill:#595959" />
	<polygon
   points="182.315,144.668 183.337,143.647 183.337,140.875 182.315,139.852 "
   id="polygon546"
   style="fill:#373737" />
	<rect
   x="188.313"
   y="138.672"
   width="7.1760001"
   height="7.1760001"
   id="rect548"
   style="fill:#404040" />
	<rect
   x="190.515"
   y="140.875"
   width="2.7720001"
   height="2.7709999"
   id="rect550" />
	<polygon
   points="189.491,139.852 190.514,140.875 193.288,140.875 194.309,139.852 "
   id="polygon552"
   style="fill:#2a2a29" />
	<polygon
   points="194.309,139.852 193.288,140.876 193.288,143.649 194.309,144.668 "
   id="polygon554"
   style="fill:#474747" />
	<polygon
   points="194.309,144.668 193.288,143.649 190.514,143.649 189.491,144.668 "
   id="polygon556"
   style="fill:#595959" />
	<polygon
   points="189.491,144.668 190.514,143.647 190.514,140.875 189.491,139.852 "
   id="polygon558"
   style="fill:#373737" />
	<rect
   x="195.489"
   y="138.672"
   width="7.178"
   height="7.1760001"
   id="rect560"
   style="fill:#404040" />
	<rect
   x="197.69099"
   y="140.875"
   width="2.7709999"
   height="2.7709999"
   id="rect562" />
	<polygon
   points="196.669,139.852 197.691,140.875 200.463,140.875 201.486,139.852 "
   id="polygon564"
   style="fill:#2a2a29" />
	<polygon
   points="201.486,139.852 200.463,140.876 200.463,143.649 201.486,144.668 "
   id="polygon566"
   style="fill:#474747" />
	<polygon
   points="201.486,144.668 200.463,143.649 197.691,143.649 196.669,144.668 "
   id="polygon568"
   style="fill:#595959" />
	<polygon
   points="196.667,144.668 197.691,143.647 197.691,140.875 196.667,139.852 "
   id="polygon570"
   style="fill:#373737" />
	<rect
   x="202.66701"
   y="138.672"
   width="7.1760001"
   height="7.1760001"
   id="rect572"
   style="fill:#404040" />
	<rect
   x="204.868"
   y="140.875"
   width="2.7709999"
   height="2.7709999"
   id="rect574" />
	<polygon
   points="203.844,139.852 204.868,140.875 207.64,140.875 208.663,139.852 "
   id="polygon576"
   style="fill:#2a2a29" />
	<polygon
   points="208.664,139.852 207.64,140.876 207.64,143.649 208.664,144.668 "
   id="polygon578"
   style="fill:#474747" />
	<polygon
   points="208.663,144.668 207.64,143.649 204.866,143.649 203.844,144.668 "
   id="polygon580"
   style="fill:#595959" />
	<polygon
   points="203.841,144.668 204.866,143.647 204.866,140.875 203.841,139.852 "
   id="polygon582"
   style="fill:#373737" />
	<rect
   x="209.841"
   y="138.672"
   width="7.1789999"
   height="7.1760001"
   id="rect584"
   style="fill:#404040" />
	<rect
   x="212.04401"
   y="140.875"
   width="2.773"
   height="2.7709999"
   id="rect586" />
	<polygon
   points="211.022,139.852 212.042,140.875 214.817,140.875 215.839,139.852 "
   id="polygon588"
   style="fill:#2a2a29" />
	<polygon
   points="215.839,139.852 214.817,140.876 214.817,143.649 215.839,144.668 "
   id="polygon590"
   style="fill:#474747" />
	<polygon
   points="215.837,144.668 214.815,143.649 212.042,143.649 211.022,144.668 "
   id="polygon592"
   style="fill:#595959" />
	<polygon
   points="211.019,144.668 212.042,143.647 212.042,140.875 211.019,139.852 "
   id="polygon594"
   style="fill:#373737" />
	<rect
   x="224.3"
   y="138.672"
   width="7.1789999"
   height="7.1760001"
   id="rect596"
   style="fill:#404040" />
	<rect
   x="226.50301"
   y="140.875"
   width="2.7709999"
   height="2.7709999"
   id="rect598" />
	<polygon
   points="225.479,139.852 226.501,140.875 229.275,140.875 230.296,139.852 "
   id="polygon600"
   style="fill:#2a2a29" />
	<polygon
   points="230.296,139.852 229.275,140.876 229.275,143.649 230.296,144.668 "
   id="polygon602"
   style="fill:#474747" />
	<polygon
   points="230.296,144.668 229.274,143.649 226.501,143.649 225.479,144.668 "
   id="polygon604"
   style="fill:#595959" />
	<polygon
   points="225.479,144.668 226.501,143.647 226.501,140.875 225.479,139.852 "
   id="polygon606"
   style="fill:#373737" />
	<rect
   x="231.47701"
   y="138.672"
   width="7.1739998"
   height="7.1760001"
   id="rect608"
   style="fill:#404040" />
	<rect
   x="233.679"
   y="140.875"
   width="2.7720001"
   height="2.7709999"
   id="rect610" />
	<polygon
   points="232.655,139.852 233.679,140.875 236.451,140.875 237.473,139.852 "
   id="polygon612"
   style="fill:#2a2a29" />
	<polygon
   points="237.474,139.852 236.451,140.876 236.451,143.649 237.474,144.668 "
   id="polygon614"
   style="fill:#474747" />
	<polygon
   points="237.473,144.668 236.451,143.649 233.677,143.649 232.655,144.668 "
   id="polygon616"
   style="fill:#595959" />
	<polygon
   points="232.655,144.668 233.677,143.647 233.677,140.875 232.655,139.852 "
   id="polygon618"
   style="fill:#373737" />
	<rect
   x="238.651"
   y="138.672"
   width="7.1799998"
   height="7.1760001"
   id="rect620"
   style="fill:#404040" />
	<rect
   x="240.855"
   y="140.875"
   width="2.7709999"
   height="2.7709999"
   id="rect622" />
	<polygon
   points="239.831,139.852 240.855,140.875 243.627,140.875 244.65,139.852 "
   id="polygon624"
   style="fill:#2a2a29" />
	<polygon
   points="244.65,139.852 243.627,140.876 243.627,143.649 244.65,144.668 "
   id="polygon626"
   style="fill:#474747" />
	<polygon
   points="244.648,144.668 243.627,143.649 240.852,143.649 239.831,144.668 "
   id="polygon628"
   style="fill:#595959" />
	<polygon
   points="239.831,144.668 240.852,143.647 240.852,140.875 239.831,139.852 "
   id="polygon630"
   style="fill:#373737" />
	<rect
   x="245.828"
   y="138.672"
   width="7.178"
   height="7.1760001"
   id="rect632"
   style="fill:#404040" />
	<rect
   x="248.032"
   y="140.875"
   width="2.7709999"
   height="2.7709999"
   id="rect634" />
	<polygon
   points="247.009,139.852 248.03,140.875 250.804,140.875 251.825,139.852 "
   id="polygon636"
   style="fill:#2a2a29" />
	<polygon
   points="251.825,139.852 250.804,140.876 250.804,143.649 251.825,144.668 "
   id="polygon638"
   style="fill:#474747" />
	<polygon
   points="251.825,144.668 250.802,143.649 248.03,143.649 247.009,144.668 "
   id="polygon640"
   style="fill:#595959" />
	<polygon
   points="247.009,144.668 248.03,143.647 248.03,140.875 247.009,139.852 "
   id="polygon642"
   style="fill:#373737" />
	<rect
   x="253.005"
   y="138.672"
   width="7.178"
   height="7.1760001"
   id="rect644"
   style="fill:#404040" />
	<rect
   x="255.20599"
   y="140.875"
   width="2.773"
   height="2.7709999"
   id="rect646" />
	<polygon
   points="254.183,139.852 255.206,140.875 257.979,140.875 259.001,139.852 "
   id="polygon648"
   style="fill:#2a2a29" />
	<polygon
   points="259.001,139.852 257.979,140.876 257.979,143.649 259.001,144.668 "
   id="polygon650"
   style="fill:#474747" />
	<polygon
   points="259.001,144.668 257.979,143.649 255.206,143.649 254.183,144.668 "
   id="polygon652"
   style="fill:#595959" />
	<polygon
   points="254.183,144.668 255.206,143.647 255.206,140.875 254.183,139.852 "
   id="polygon654"
   style="fill:#373737" />
	<rect
   x="260.18201"
   y="138.672"
   width="7.178"
   height="7.1760001"
   id="rect656"
   style="fill:#404040" />
	<rect
   x="262.384"
   y="140.875"
   width="2.7709999"
   height="2.7709999"
   id="rect658" />
	<polygon
   points="261.361,139.852 262.384,140.875 265.155,140.875 266.179,139.852 "
   id="polygon660"
   style="fill:#2a2a29" />
	<polygon
   points="266.179,139.852 265.155,140.876 265.155,143.649 266.179,144.668 "
   id="polygon662"
   style="fill:#474747" />
	<polygon
   points="266.179,144.668 265.155,143.649 262.384,143.649 261.361,144.668 "
   id="polygon664"
   style="fill:#595959" />
	<polygon
   points="261.359,144.668 262.384,143.647 262.384,140.875 261.359,139.852 "
   id="polygon666"
   style="fill:#373737" />
	<rect
   x="267.358"
   y="138.672"
   width="7.177"
   height="7.1760001"
   id="rect668"
   style="fill:#404040" />
	<rect
   x="269.55899"
   y="140.875"
   width="2.7709999"
   height="2.7709999"
   id="rect670" />
	<polygon
   points="268.537,139.852 269.559,140.875 272.331,140.875 273.354,139.852 "
   id="polygon672"
   style="fill:#2a2a29" />
	<polygon
   points="273.356,139.852 272.331,140.876 272.331,143.649 273.356,144.668 "
   id="polygon674"
   style="fill:#474747" />
	<polygon
   points="273.354,144.668 272.331,143.649 269.559,143.649 268.537,144.668 "
   id="polygon676"
   style="fill:#595959" />
	<polygon
   points="268.533,144.668 269.559,143.647 269.559,140.875 268.533,139.852 "
   id="polygon678"
   style="fill:#373737" />
	<rect
   x="274.53201"
   y="138.672"
   width="7.178"
   height="7.1760001"
   id="rect680"
   style="fill:#404040" />
	<rect
   x="276.73499"
   y="140.875"
   width="2.7720001"
   height="2.7709999"
   id="rect682" />
	<polygon
   points="275.714,139.852 276.735,140.875 279.509,140.875 280.53,139.852 "
   id="polygon684"
   style="fill:#2a2a29" />
	<polygon
   points="280.53,139.852 279.509,140.876 279.509,143.649 280.53,144.668 "
   id="polygon686"
   style="fill:#474747" />
	<polygon
   points="280.528,144.668 279.508,143.649 276.735,143.649 275.714,144.668 "
   id="polygon688"
   style="fill:#595959" />
	<polygon
   points="275.712,144.668 276.735,143.647 276.735,140.875 275.712,139.852 "
   id="polygon690"
   style="fill:#373737" />
	<rect
   x="210.035"
   y="1.921"
   width="7.1789999"
   height="7.177"
   id="rect692"
   style="fill:#404040" />
	<rect
   x="212.239"
   y="4.1230001"
   width="2.7709999"
   height="2.7709999"
   id="rect694" />
	<polygon
   points="211.214,3.1 212.236,4.123 215.01,4.123 216.032,3.1 "
   id="polygon696"
   style="fill:#2a2a29" />
	<polygon
   points="216.032,3.1 215.01,4.126 215.01,6.897 216.032,7.918 "
   id="polygon698"
   style="fill:#474747" />
	<polygon
   points="216.032,7.918 215.009,6.897 212.236,6.897 211.214,7.918 "
   id="polygon700"
   style="fill:#595959" />
	<polygon
   points="211.214,7.918 212.236,6.896 212.236,4.123 211.214,3.1 "
   id="polygon702"
   style="fill:#373737" />
	<rect
   x="217.21201"
   y="1.921"
   width="7.1739998"
   height="7.177"
   id="rect704"
   style="fill:#404040" />
	<rect
   x="219.41299"
   y="4.1230001"
   width="2.773"
   height="2.7709999"
   id="rect706" />
	<polygon
   points="218.391,3.1 219.413,4.123 222.186,4.123 223.208,3.1 "
   id="polygon708"
   style="fill:#2a2a29" />
	<polygon
   points="223.21,3.1 222.186,4.126 222.186,6.897 223.21,7.918 "
   id="polygon710"
   style="fill:#474747" />
	<polygon
   points="223.208,7.918 222.186,6.897 219.413,6.897 218.391,7.918 "
   id="polygon712"
   style="fill:#595959" />
	<polygon
   points="218.391,7.918 219.413,6.896 219.413,4.123 218.391,3.1 "
   id="polygon714"
   style="fill:#373737" />
	<rect
   x="224.38499"
   y="1.921"
   width="7.1810002"
   height="7.177"
   id="rect716"
   style="fill:#404040" />
	<rect
   x="226.59"
   y="4.1230001"
   width="2.7720001"
   height="2.7709999"
   id="rect718" />
	<polygon
   points="225.567,3.1 226.59,4.123 229.362,4.123 230.385,3.1 "
   id="polygon720"
   style="fill:#2a2a29" />
	<polygon
   points="230.385,3.1 229.362,4.126 229.362,6.897 230.385,7.918 "
   id="polygon722"
   style="fill:#474747" />
	<polygon
   points="230.384,7.918 229.362,6.897 226.588,6.897 225.567,7.918 "
   id="polygon724"
   style="fill:#595959" />
	<polygon
   points="225.565,7.918 226.588,6.896 226.588,4.123 225.565,3.1 "
   id="polygon726"
   style="fill:#373737" />
	<rect
   x="231.563"
   y="1.921"
   width="7.178"
   height="7.177"
   id="rect728"
   style="fill:#404040" />
	<rect
   x="233.76601"
   y="4.1230001"
   width="2.7709999"
   height="2.7709999"
   id="rect730" />
	<polygon
   points="232.743,3.1 233.765,4.123 236.539,4.123 237.561,3.1 "
   id="polygon732"
   style="fill:#2a2a29" />
	<polygon
   points="237.561,3.1 236.539,4.126 236.539,6.897 237.561,7.918 "
   id="polygon734"
   style="fill:#474747" />
	<polygon
   points="237.561,7.918 236.537,6.897 233.765,6.897 232.743,7.918 "
   id="polygon736"
   style="fill:#595959" />
	<polygon
   points="232.743,7.918 233.765,6.896 233.765,4.123 232.743,3.1 "
   id="polygon738"
   style="fill:#373737" />
	<rect
   x="238.741"
   y="1.921"
   width="7.1760001"
   height="7.177"
   id="rect740"
   style="fill:#404040" />
	<rect
   x="240.942"
   y="4.1230001"
   width="2.7720001"
   height="2.7709999"
   id="rect742" />
	<polygon
   points="239.919,3.1 240.941,4.123 243.715,4.123 244.736,3.1 "
   id="polygon744"
   style="fill:#2a2a29" />
	<polygon
   points="244.736,3.1 243.715,4.126 243.715,6.897 244.736,7.918 "
   id="polygon746"
   style="fill:#474747" />
	<polygon
   points="244.736,7.918 243.715,6.897 240.941,6.897 239.919,7.918 "
   id="polygon748"
   style="fill:#595959" />
	<polygon
   points="239.919,7.918 240.941,6.896 240.941,4.123 239.919,3.1 "
   id="polygon750"
   style="fill:#373737" />
	<rect
   x="245.91701"
   y="1.921"
   width="7.177"
   height="7.177"
   id="rect752"
   style="fill:#404040" />
	<rect
   x="248.118"
   y="4.1230001"
   width="2.7709999"
   height="2.7709999"
   id="rect754" />
	<polygon
   points="247.097,3.1 248.118,4.123 250.89,4.123 251.913,3.1 "
   id="polygon756"
   style="fill:#2a2a29" />
	<polygon
   points="251.913,3.1 250.89,4.126 250.89,6.897 251.913,7.918 "
   id="polygon758"
   style="fill:#474747" />
	<polygon
   points="251.913,7.918 250.89,6.897 248.118,6.897 247.097,7.918 "
   id="polygon760"
   style="fill:#595959" />
	<polygon
   points="247.094,7.918 248.118,6.896 248.118,4.123 247.094,3.1 "
   id="polygon762"
   style="fill:#373737" />
	<rect
   x="253.093"
   y="1.921"
   width="7.178"
   height="7.177"
   id="rect764"
   style="fill:#404040" />
	<rect
   x="255.29401"
   y="4.1230001"
   width="2.7709999"
   height="2.7709999"
   id="rect766" />
	<polygon
   points="254.272,3.1 255.294,4.123 258.067,4.123 259.09,3.1 "
   id="polygon768"
   style="fill:#2a2a29" />
	<polygon
   points="259.091,3.1 258.067,4.126 258.067,6.897 259.091,7.918 "
   id="polygon770"
   style="fill:#474747" />
	<polygon
   points="259.09,7.918 258.067,6.897 255.294,6.897 254.272,7.918 "
   id="polygon772"
   style="fill:#595959" />
	<polygon
   points="254.268,7.918 255.294,6.896 255.294,4.123 254.268,3.1 "
   id="polygon774"
   style="fill:#373737" />
	<rect
   x="260.26801"
   y="1.921"
   width="7.178"
   height="7.177"
   id="rect776"
   style="fill:#404040" />
	<rect
   x="262.47198"
   y="4.1230001"
   width="2.7720001"
   height="2.7709999"
   id="rect778" />
	<polygon
   points="261.448,3.1 262.47,4.123 265.243,4.123 266.266,3.1 "
   id="polygon780"
   style="fill:#2a2a29" />
	<polygon
   points="266.266,3.1 265.243,4.126 265.243,6.897 266.266,7.918 "
   id="polygon782"
   style="fill:#474747" />
	<polygon
   points="266.265,7.918 265.243,6.897 262.47,6.897 261.448,7.918 "
   id="polygon784"
   style="fill:#595959" />
	<polygon
   points="261.446,7.918 262.47,6.896 262.47,4.123 261.446,3.1 "
   id="polygon786"
   style="fill:#373737" />
	<rect
   x="281.78201"
   y="1.921"
   width="7.177"
   height="7.1789999"
   id="rect788"
   style="fill:#404040" />
	<rect
   x="283.98401"
   y="4.1259999"
   width="2.7709999"
   height="2.7709999"
   id="rect790" />
	<polygon
   points="287.779,3.101 286.756,4.123 286.756,6.897 287.779,7.918 "
   id="polygon792"
   style="fill:#2a2a29" />
	<polygon
   points="287.779,7.918 286.754,6.897 283.982,6.897 282.962,7.918 "
   id="polygon794"
   style="fill:#474747" />
	<polygon
   points="282.962,7.918 283.982,6.896 283.982,4.123 282.962,3.101 "
   id="polygon796"
   style="fill:#595959" />
	<polygon
   points="282.962,3.101 283.984,4.123 286.756,4.123 287.779,3.101 "
   id="polygon798"
   style="fill:#373737" />
	<rect
   x="281.78201"
   y="9.099"
   width="7.177"
   height="7.1750002"
   id="rect800"
   style="fill:#404040" />
	<rect
   x="283.98401"
   y="11.301"
   width="2.7709999"
   height="2.7720001"
   id="rect802" />
	<polygon
   points="287.779,10.277 286.756,11.301 286.756,14.073 287.779,15.095 "
   id="polygon804"
   style="fill:#2a2a29" />
	<polygon
   points="287.779,15.097 286.754,14.073 283.982,14.073 282.962,15.097 "
   id="polygon806"
   style="fill:#474747" />
	<polygon
   points="282.962,15.095 283.982,14.073 283.982,11.3 282.962,10.277 "
   id="polygon808"
   style="fill:#595959" />
	<polygon
   points="282.962,10.277 283.984,11.3 286.756,11.3 287.779,10.277 "
   id="polygon810"
   style="fill:#373737" />
	<rect
   x="281.78201"
   y="16.274"
   width="7.177"
   height="7.1810002"
   id="rect812"
   style="fill:#404040" />
	<rect
   x="283.98401"
   y="18.478001"
   width="2.7709999"
   height="2.7720001"
   id="rect814" />
	<polygon
   points="287.779,17.454 286.756,18.478 286.756,21.249 287.779,22.272 "
   id="polygon816"
   style="fill:#2a2a29" />
	<polygon
   points="287.779,22.272 286.754,21.249 283.982,21.249 282.962,22.272 "
   id="polygon818"
   style="fill:#474747" />
	<polygon
   points="282.962,22.271 283.982,21.249 283.982,18.476 282.962,17.454 "
   id="polygon820"
   style="fill:#595959" />
	<polygon
   points="282.962,17.453 283.984,18.476 286.756,18.476 287.779,17.453 "
   id="polygon822"
   style="fill:#373737" />
	<rect
   x="281.78201"
   y="23.451"
   width="7.177"
   height="7.177"
   id="rect824"
   style="fill:#404040" />
	<rect
   x="283.98401"
   y="25.653999"
   width="2.7709999"
   height="2.7709999"
   id="rect826" />
	<polygon
   points="287.779,24.63 286.756,25.651 286.756,28.427 287.779,29.447 "
   id="polygon828"
   style="fill:#2a2a29" />
	<polygon
   points="287.779,29.447 286.754,28.427 283.982,28.427 282.962,29.447 "
   id="polygon830"
   style="fill:#474747" />
	<polygon
   points="282.962,29.447 283.982,28.424 283.982,25.651 282.962,24.63 "
   id="polygon832"
   style="fill:#595959" />
	<polygon
   points="282.962,24.63 283.984,25.651 286.756,25.651 287.779,24.63 "
   id="polygon834"
   style="fill:#373737" />
	<rect
   x="281.78201"
   y="30.627001"
   width="7.177"
   height="7.177"
   id="rect836"
   style="fill:#404040" />
	<rect
   x="283.98401"
   y="32.830002"
   width="2.7709999"
   height="2.7720001"
   id="rect838" />
	<polygon
   points="287.779,31.806 286.756,32.828 286.756,35.602 287.779,36.623 "
   id="polygon840"
   style="fill:#2a2a29" />
	<polygon
   points="287.779,36.623 286.754,35.602 283.982,35.602 282.962,36.623 "
   id="polygon842"
   style="fill:#474747" />
	<polygon
   points="282.962,36.623 283.982,35.602 283.982,32.828 282.962,31.806 "
   id="polygon844"
   style="fill:#595959" />
	<polygon
   points="282.962,31.806 283.984,32.828 286.756,32.828 287.779,31.806 "
   id="polygon846"
   style="fill:#373737" />
	<rect
   x="281.78201"
   y="37.804001"
   width="7.177"
   height="7.178"
   id="rect848"
   style="fill:#404040" />
	<rect
   x="283.98401"
   y="40.005001"
   width="2.7709999"
   height="2.7709999"
   id="rect850" />
	<polygon
   points="287.779,38.982 286.756,40.005 286.756,42.777 287.779,43.801 "
   id="polygon852"
   style="fill:#2a2a29" />
	<polygon
   points="287.779,43.801 286.754,42.777 283.982,42.777 282.962,43.801 "
   id="polygon854"
   style="fill:#474747" />
	<polygon
   points="282.962,43.801 283.982,42.777 283.982,40.005 282.962,38.982 "
   id="polygon856"
   style="fill:#595959" />
	<polygon
   points="282.962,38.98 283.984,40.005 286.756,40.005 287.779,38.98 "
   id="polygon858"
   style="fill:#373737" />
	<rect
   x="281.78201"
   y="44.979"
   width="7.177"
   height="7.177"
   id="rect860"
   style="fill:#404040" />
	<rect
   x="283.98401"
   y="47.181999"
   width="2.7709999"
   height="2.7709999"
   id="rect862" />
	<polygon
   points="287.779,46.159 286.756,47.182 286.756,49.954 287.779,50.977 "
   id="polygon864"
   style="fill:#2a2a29" />
	<polygon
   points="287.779,50.978 286.754,49.954 283.982,49.954 282.962,50.978 "
   id="polygon866"
   style="fill:#474747" />
	<polygon
   points="282.962,50.977 283.982,49.954 283.982,47.181 282.962,46.159 "
   id="polygon868"
   style="fill:#595959" />
	<polygon
   points="282.962,46.155 283.984,47.181 286.756,47.181 287.779,46.155 "
   id="polygon870"
   style="fill:#373737" />
	<rect
   x="281.78201"
   y="52.154999"
   width="7.177"
   height="7.1789999"
   id="rect872"
   style="fill:#404040" />
	<rect
   x="283.98401"
   y="54.359001"
   width="2.7709999"
   height="2.773"
   id="rect874" />
	<polygon
   points="287.779,53.336 286.756,54.357 286.756,57.131 287.779,58.153 "
   id="polygon876"
   style="fill:#2a2a29" />
	<polygon
   points="287.779,58.153 286.754,57.131 283.982,57.131 282.962,58.153 "
   id="polygon878"
   style="fill:#474747" />
	<polygon
   points="282.962,58.151 283.982,57.13 283.982,54.357 282.962,53.336 "
   id="polygon880"
   style="fill:#595959" />
	<polygon
   points="282.962,53.334 283.984,54.357 286.756,54.357 287.779,53.334 "
   id="polygon882"
   style="fill:#373737" />
	<rect
   x="281.78201"
   y="59.333"
   width="7.177"
   height="7.177"
   id="rect884"
   style="fill:#404040" />
	<rect
   x="283.98401"
   y="61.536999"
   width="2.7709999"
   height="2.7720001"
   id="rect886" />
	<polygon
   points="287.779,60.514 286.756,61.534 286.756,64.308 287.779,65.331 "
   id="polygon888"
   style="fill:#2a2a29" />
	<polygon
   points="287.779,65.331 286.754,64.308 283.982,64.308 282.962,65.331 "
   id="polygon890"
   style="fill:#474747" />
	<polygon
   points="282.962,65.329 283.982,64.307 283.982,61.534 282.962,60.514 "
   id="polygon892"
   style="fill:#595959" />
	<polygon
   points="282.962,60.512 283.984,61.534 286.756,61.534 287.779,60.512 "
   id="polygon894"
   style="fill:#373737" />
	<rect
   x="281.78201"
   y="66.510002"
   width="7.177"
   height="7.1750002"
   id="rect896"
   style="fill:#404040" />
	<rect
   x="283.98401"
   y="68.713997"
   width="2.7709999"
   height="2.7709999"
   id="rect898" />
	<polygon
   points="287.779,67.689 286.756,68.712 286.756,71.486 287.779,72.505 "
   id="polygon900"
   style="fill:#2a2a29" />
	<polygon
   points="287.779,72.505 286.754,71.486 283.982,71.486 282.962,72.505 "
   id="polygon902"
   style="fill:#474747" />
	<polygon
   points="282.962,72.505 283.982,71.484 283.982,68.712 282.962,67.689 "
   id="polygon904"
   style="fill:#595959" />
	<polygon
   points="282.962,67.689 283.984,68.712 286.756,68.712 287.779,67.689 "
   id="polygon906"
   style="fill:#373737" />
	<rect
   x="281.78201"
   y="73.682999"
   width="7.177"
   height="7.1729999"
   id="rect908"
   style="fill:#404040" />
	<rect
   x="283.98401"
   y="75.884003"
   width="2.7709999"
   height="2.7720001"
   id="rect910" />
	<polygon
   points="287.779,74.86 286.756,75.884 286.756,78.656 287.779,79.678 "
   id="polygon912"
   style="fill:#2a2a29" />
	<polygon
   points="287.779,79.679 286.754,78.656 283.982,78.656 282.962,79.679 "
   id="polygon914"
   style="fill:#474747" />
	<polygon
   points="282.962,79.678 283.982,78.656 283.982,75.882 282.962,74.86 "
   id="polygon916"
   style="fill:#595959" />
	<polygon
   points="282.962,74.86 283.984,75.882 286.756,75.882 287.779,74.86 "
   id="polygon918"
   style="fill:#373737" />
	<rect
   x="281.78201"
   y="80.856003"
   width="7.177"
   height="7.1810002"
   id="rect920"
   style="fill:#404040" />
	<rect
   x="283.98401"
   y="83.059998"
   width="2.7709999"
   height="2.7709999"
   id="rect922" />
	<polygon
   points="287.779,82.037 286.756,83.06 286.756,85.832 287.779,86.855 "
   id="polygon924"
   style="fill:#2a2a29" />
	<polygon
   points="287.779,86.855 286.754,85.832 283.982,85.832 282.962,86.855 "
   id="polygon926"
   style="fill:#474747" />
	<polygon
   points="282.962,86.853 283.982,85.832 283.982,83.057 282.962,82.037 "
   id="polygon928"
   style="fill:#595959" />
	<polygon
   points="282.962,82.036 283.984,83.057 286.756,83.057 287.779,82.036 "
   id="polygon930"
   style="fill:#373737" />
	<rect
   x="281.78201"
   y="88.032997"
   width="7.177"
   height="7.178"
   id="rect932"
   style="fill:#404040" />
	<rect
   x="283.98401"
   y="90.236"
   width="2.7709999"
   height="2.7709999"
   id="rect934" />
	<polygon
   points="287.779,89.213 286.756,90.234 286.756,93.009 287.779,94.031 "
   id="polygon936"
   style="fill:#2a2a29" />
	<polygon
   points="287.779,94.031 286.754,93.009 283.982,93.009 282.962,94.031 "
   id="polygon938"
   style="fill:#474747" />
	<polygon
   points="282.962,94.031 283.982,93.007 283.982,90.234 282.962,89.213 "
   id="polygon940"
   style="fill:#595959" />
	<polygon
   points="282.962,89.213 283.984,90.234 286.756,90.234 287.779,89.213 "
   id="polygon942"
   style="fill:#373737" />
	<rect
   x="281.78201"
   y="95.209999"
   width="7.177"
   height="7.1760001"
   id="rect944"
   style="fill:#404040" />
	<rect
   x="283.98401"
   y="97.412003"
   width="2.7709999"
   height="2.7720001"
   id="rect946" />
	<polygon
   points="287.779,96.388 286.756,97.411 286.756,100.184 287.779,101.207 "
   id="polygon948"
   style="fill:#2a2a29" />
	<polygon
   points="287.779,101.207 286.754,100.184 283.982,100.184 282.962,101.207 "
   id="polygon950"
   style="fill:#474747" />
	<polygon
   points="282.962,101.207 283.982,100.184 283.982,97.411 282.962,96.388 "
   id="polygon952"
   style="fill:#595959" />
	<polygon
   points="282.962,96.388 283.984,97.411 286.756,97.411 287.779,96.388 "
   id="polygon954"
   style="fill:#373737" />
	<rect
   x="281.78201"
   y="102.386"
   width="7.177"
   height="7.178"
   id="rect956"
   style="fill:#404040" />
	<rect
   x="283.98401"
   y="104.588"
   width="2.7709999"
   height="2.7709999"
   id="rect958" />
	<polygon
   points="287.779,103.566 286.756,104.588 286.756,107.36 287.779,108.382 "
   id="polygon960"
   style="fill:#2a2a29" />
	<polygon
   points="287.779,108.382 286.754,107.36 283.982,107.36 282.962,108.382 "
   id="polygon962"
   style="fill:#474747" />
	<polygon
   points="282.962,108.382 283.982,107.36 283.982,104.588 282.962,103.566 "
   id="polygon964"
   style="fill:#595959" />
	<polygon
   points="282.962,103.564 283.984,104.588 286.756,104.588 287.779,103.564 "
   id="polygon966"
   style="fill:#373737" />
	<rect
   x="281.78201"
   y="109.562"
   width="7.177"
   height="7.178"
   id="rect968"
   style="fill:#404040" />
	<rect
   x="283.98401"
   y="111.764"
   width="2.7709999"
   height="2.7709999"
   id="rect970" />
	<polygon
   points="287.779,110.742 286.756,111.764 286.756,114.537 287.779,115.559 "
   id="polygon972"
   style="fill:#2a2a29" />
	<polygon
   points="287.779,115.56 286.754,114.537 283.982,114.537 282.962,115.56 "
   id="polygon974"
   style="fill:#474747" />
	<polygon
   points="282.962,115.559 283.982,114.537 283.982,111.763 282.962,110.742 "
   id="polygon976"
   style="fill:#595959" />
	<polygon
   points="282.962,110.738 283.984,111.763 286.756,111.763 287.779,110.738 "
   id="polygon978"
   style="fill:#373737" />
	<rect
   x="281.78201"
   y="116.738"
   width="7.177"
   height="7.1789999"
   id="rect980"
   style="fill:#404040" />
	<rect
   x="283.98401"
   y="118.941"
   width="2.7709999"
   height="2.773"
   id="rect982" />
	<polygon
   points="287.779,117.919 286.756,118.939 286.756,121.713 287.779,122.736 "
   id="polygon984"
   style="fill:#2a2a29" />
	<polygon
   points="287.779,122.736 286.754,121.713 283.982,121.713 282.962,122.736 "
   id="polygon986"
   style="fill:#474747" />
	<polygon
   points="282.962,122.734 283.982,121.712 283.982,118.939 282.962,117.919 "
   id="polygon988"
   style="fill:#595959" />
	<polygon
   points="282.962,117.917 283.984,118.939 286.756,118.939 287.779,117.917 "
   id="polygon990"
   style="fill:#373737" />
	<rect
   x="281.78201"
   y="123.916"
   width="7.177"
   height="7.178"
   id="rect992"
   style="fill:#404040" />
	<rect
   x="283.98401"
   y="126.119"
   width="2.7709999"
   height="2.7720001"
   id="rect994" />
	<polygon
   points="287.779,125.095 286.756,126.117 286.756,128.89 287.779,129.914 "
   id="polygon996"
   style="fill:#2a2a29" />
	<polygon
   points="287.779,129.914 286.754,128.89 283.982,128.89 282.962,129.914 "
   id="polygon998"
   style="fill:#474747" />
	<polygon
   points="282.962,129.912 283.982,128.89 283.982,126.117 282.962,125.095 "
   id="polygon1000"
   style="fill:#595959" />
	<polygon
   points="282.962,125.093 283.984,126.117 286.756,126.117 287.779,125.093 "
   id="polygon1002"
   style="fill:#373737" />
	<rect
   x="288.95901"
   y="1.921"
   width="7.177"
   height="7.1789999"
   id="rect1004"
   style="fill:#404040" />
	<rect
   x="291.16"
   y="4.1259999"
   width="2.773"
   height="2.7709999"
   id="rect1006" />
	<polygon
   points="294.955,3.101 293.933,4.123 293.933,6.897 294.955,7.918 "
   id="polygon1008"
   style="fill:#2a2a29" />
	<polygon
   points="294.955,7.918 293.93,6.897 291.158,6.897 290.138,7.918 "
   id="polygon1010"
   style="fill:#474747" />
	<polygon
   points="290.138,7.918 291.158,6.896 291.158,4.123 290.138,3.101 "
   id="polygon1012"
   style="fill:#595959" />
	<polygon
   points="290.138,3.101 291.16,4.123 293.933,4.123 294.955,3.101 "
   id="polygon1014"
   style="fill:#373737" />
	<rect
   x="288.95901"
   y="9.099"
   width="7.177"
   height="7.1750002"
   id="rect1016"
   style="fill:#404040" />
	<rect
   x="291.16"
   y="11.301"
   width="2.773"
   height="2.7720001"
   id="rect1018" />
	<polygon
   points="294.955,10.277 293.933,11.301 293.933,14.073 294.955,15.095 "
   id="polygon1020"
   style="fill:#2a2a29" />
	<polygon
   points="294.955,15.097 293.93,14.073 291.158,14.073 290.138,15.097 "
   id="polygon1022"
   style="fill:#474747" />
	<polygon
   points="290.138,15.095 291.158,14.073 291.158,11.3 290.138,10.277 "
   id="polygon1024"
   style="fill:#595959" />
	<polygon
   points="290.138,10.277 291.16,11.3 293.933,11.3 294.955,10.277 "
   id="polygon1026"
   style="fill:#373737" />
	<rect
   x="288.95901"
   y="16.274"
   width="7.177"
   height="7.1810002"
   id="rect1028"
   style="fill:#404040" />
	<rect
   x="291.16"
   y="18.478001"
   width="2.773"
   height="2.7720001"
   id="rect1030" />
	<polygon
   points="294.955,17.454 293.933,18.478 293.933,21.249 294.955,22.272 "
   id="polygon1032"
   style="fill:#2a2a29" />
	<polygon
   points="294.955,22.272 293.93,21.249 291.158,21.249 290.138,22.272 "
   id="polygon1034"
   style="fill:#474747" />
	<polygon
   points="290.138,22.271 291.158,21.249 291.158,18.476 290.138,17.454 "
   id="polygon1036"
   style="fill:#595959" />
	<polygon
   points="290.138,17.453 291.16,18.476 293.933,18.476 294.955,17.453 "
   id="polygon1038"
   style="fill:#373737" />
	<rect
   x="288.95901"
   y="23.451"
   width="7.177"
   height="7.177"
   id="rect1040"
   style="fill:#404040" />
	<rect
   x="291.16"
   y="25.653999"
   width="2.773"
   height="2.7709999"
   id="rect1042" />
	<polygon
   points="294.955,24.63 293.933,25.651 293.933,28.427 294.955,29.447 "
   id="polygon1044"
   style="fill:#2a2a29" />
	<polygon
   points="294.955,29.447 293.93,28.427 291.158,28.427 290.138,29.447 "
   id="polygon1046"
   style="fill:#474747" />
	<polygon
   points="290.138,29.447 291.158,28.424 291.158,25.651 290.138,24.63 "
   id="polygon1048"
   style="fill:#595959" />
	<polygon
   points="290.138,24.63 291.16,25.651 293.933,25.651 294.955,24.63 "
   id="polygon1050"
   style="fill:#373737" />
	<rect
   x="288.95901"
   y="30.627001"
   width="7.177"
   height="7.177"
   id="rect1052"
   style="fill:#404040" />
	<rect
   x="291.16"
   y="32.830002"
   width="2.773"
   height="2.7720001"
   id="rect1054" />
	<polygon
   points="294.955,31.806 293.933,32.828 293.933,35.602 294.955,36.623 "
   id="polygon1056"
   style="fill:#2a2a29" />
	<polygon
   points="294.955,36.623 293.93,35.602 291.158,35.602 290.138,36.623 "
   id="polygon1058"
   style="fill:#474747" />
	<polygon
   points="290.138,36.623 291.158,35.602 291.158,32.828 290.138,31.806 "
   id="polygon1060"
   style="fill:#595959" />
	<polygon
   points="290.138,31.806 291.16,32.828 293.933,32.828 294.955,31.806 "
   id="polygon1062"
   style="fill:#373737" />
	<rect
   x="288.95901"
   y="37.804001"
   width="7.177"
   height="7.178"
   id="rect1064"
   style="fill:#404040" />
	<rect
   x="291.16"
   y="40.005001"
   width="2.773"
   height="2.7709999"
   id="rect1066" />
	<polygon
   points="294.955,38.982 293.933,40.005 293.933,42.777 294.955,43.801 "
   id="polygon1068"
   style="fill:#2a2a29" />
	<polygon
   points="294.955,43.801 293.93,42.777 291.158,42.777 290.138,43.801 "
   id="polygon1070"
   style="fill:#474747" />
	<polygon
   points="290.138,43.801 291.158,42.777 291.158,40.005 290.138,38.982 "
   id="polygon1072"
   style="fill:#595959" />
	<polygon
   points="290.138,38.98 291.16,40.005 293.933,40.005 294.955,38.98 "
   id="polygon1074"
   style="fill:#373737" />
	<rect
   x="288.95901"
   y="44.979"
   width="7.177"
   height="7.177"
   id="rect1076"
   style="fill:#404040" />
	<rect
   x="291.16"
   y="47.181999"
   width="2.773"
   height="2.7709999"
   id="rect1078" />
	<polygon
   points="294.955,46.159 293.933,47.182 293.933,49.954 294.955,50.977 "
   id="polygon1080"
   style="fill:#2a2a29" />
	<polygon
   points="294.955,50.978 293.93,49.954 291.158,49.954 290.138,50.978 "
   id="polygon1082"
   style="fill:#474747" />
	<polygon
   points="290.138,50.977 291.158,49.954 291.158,47.181 290.138,46.159 "
   id="polygon1084"
   style="fill:#595959" />
	<polygon
   points="290.138,46.155 291.16,47.181 293.933,47.181 294.955,46.155 "
   id="polygon1086"
   style="fill:#373737" />
	<rect
   x="288.95901"
   y="52.154999"
   width="7.177"
   height="7.1789999"
   id="rect1088"
   style="fill:#404040" />
	<rect
   x="291.16"
   y="54.359001"
   width="2.773"
   height="2.773"
   id="rect1090" />
	<polygon
   points="294.955,53.336 293.933,54.357 293.933,57.131 294.955,58.153 "
   id="polygon1092"
   style="fill:#2a2a29" />
	<polygon
   points="294.955,58.153 293.93,57.131 291.158,57.131 290.138,58.153 "
   id="polygon1094"
   style="fill:#474747" />
	<polygon
   points="290.138,58.151 291.158,57.13 291.158,54.357 290.138,53.336 "
   id="polygon1096"
   style="fill:#595959" />
	<polygon
   points="290.138,53.334 291.16,54.357 293.933,54.357 294.955,53.334 "
   id="polygon1098"
   style="fill:#373737" />
	<rect
   x="288.95901"
   y="59.333"
   width="7.177"
   height="7.177"
   id="rect1100"
   style="fill:#404040" />
	<rect
   x="291.16"
   y="61.536999"
   width="2.773"
   height="2.7720001"
   id="rect1102" />
	<polygon
   points="294.955,60.514 293.933,61.534 293.933,64.308 294.955,65.331 "
   id="polygon1104"
   style="fill:#2a2a29" />
	<polygon
   points="294.955,65.331 293.93,64.308 291.158,64.308 290.138,65.331 "
   id="polygon1106"
   style="fill:#474747" />
	<polygon
   points="290.138,65.329 291.158,64.307 291.158,61.534 290.138,60.514 "
   id="polygon1108"
   style="fill:#595959" />
	<polygon
   points="290.138,60.512 291.16,61.534 293.933,61.534 294.955,60.512 "
   id="polygon1110"
   style="fill:#373737" />
	<rect
   x="288.95901"
   y="66.510002"
   width="7.177"
   height="7.1750002"
   id="rect1112"
   style="fill:#404040" />
	<rect
   x="291.16"
   y="68.713997"
   width="2.773"
   height="2.7709999"
   id="rect1114" />
	<polygon
   points="294.955,67.689 293.933,68.712 293.933,71.486 294.955,72.505 "
   id="polygon1116"
   style="fill:#2a2a29" />
	<polygon
   points="294.955,72.505 293.93,71.486 291.158,71.486 290.138,72.505 "
   id="polygon1118"
   style="fill:#474747" />
	<polygon
   points="290.138,72.505 291.158,71.484 291.158,68.712 290.138,67.689 "
   id="polygon1120"
   style="fill:#595959" />
	<polygon
   points="290.138,67.689 291.16,68.712 293.933,68.712 294.955,67.689 "
   id="polygon1122"
   style="fill:#373737" />
	<rect
   x="288.95901"
   y="73.682999"
   width="7.177"
   height="7.1729999"
   id="rect1124"
   style="fill:#404040" />
	<rect
   x="291.16"
   y="75.884003"
   width="2.773"
   height="2.7720001"
   id="rect1126" />
	<polygon
   points="294.955,74.86 293.933,75.884 293.933,78.656 294.955,79.678 "
   id="polygon1128"
   style="fill:#2a2a29" />
	<polygon
   points="294.955,79.679 293.93,78.656 291.158,78.656 290.138,79.679 "
   id="polygon1130"
   style="fill:#474747" />
	<polygon
   points="290.138,79.678 291.158,78.656 291.158,75.882 290.138,74.86 "
   id="polygon1132"
   style="fill:#595959" />
	<polygon
   points="290.138,74.86 291.16,75.882 293.933,75.882 294.955,74.86 "
   id="polygon1134"
   style="fill:#373737" />
	<rect
   x="288.95901"
   y="80.856003"
   width="7.177"
   height="7.1810002"
   id="rect1136"
   style="fill:#404040" />
	<rect
   x="291.16"
   y="83.059998"
   width="2.773"
   height="2.7709999"
   id="rect1138" />
	<polygon
   points="294.955,82.037 293.933,83.06 293.933,85.832 294.955,86.855 "
   id="polygon1140"
   style="fill:#2a2a29" />
	<polygon
   points="294.955,86.855 293.93,85.832 291.158,85.832 290.138,86.855 "
   id="polygon1142"
   style="fill:#474747" />
	<polygon
   points="290.138,86.853 291.158,85.832 291.158,83.057 290.138,82.037 "
   id="polygon1144"
   style="fill:#595959" />
	<polygon
   points="290.138,82.036 291.16,83.057 293.933,83.057 294.955,82.036 "
   id="polygon1146"
   style="fill:#373737" />
	<rect
   x="288.95901"
   y="88.032997"
   width="7.177"
   height="7.178"
   id="rect1148"
   style="fill:#404040" />
	<rect
   x="291.16"
   y="90.236"
   width="2.773"
   height="2.7709999"
   id="rect1150" />
	<polygon
   points="294.955,89.213 293.933,90.234 293.933,93.009 294.955,94.031 "
   id="polygon1152"
   style="fill:#2a2a29" />
	<polygon
   points="294.955,94.031 293.93,93.009 291.158,93.009 290.138,94.031 "
   id="polygon1154"
   style="fill:#474747" />
	<polygon
   points="290.138,94.031 291.158,93.007 291.158,90.234 290.138,89.213 "
   id="polygon1156"
   style="fill:#595959" />
	<polygon
   points="290.138,89.213 291.16,90.234 293.933,90.234 294.955,89.213 "
   id="polygon1158"
   style="fill:#373737" />
	<rect
   x="288.95901"
   y="95.209999"
   width="7.177"
   height="7.1760001"
   id="rect1160"
   style="fill:#404040" />
	<rect
   x="291.16"
   y="97.412003"
   width="2.773"
   height="2.7720001"
   id="rect1162" />
	<polygon
   points="294.955,96.388 293.933,97.411 293.933,100.184 294.955,101.207 "
   id="polygon1164"
   style="fill:#2a2a29" />
	<polygon
   points="294.955,101.207 293.93,100.184 291.158,100.184 290.138,101.207 "
   id="polygon1166"
   style="fill:#474747" />
	<polygon
   points="290.138,101.207 291.158,100.184 291.158,97.411 290.138,96.388 "
   id="polygon1168"
   style="fill:#595959" />
	<polygon
   points="290.138,96.388 291.16,97.411 293.933,97.411 294.955,96.388 "
   id="polygon1170"
   style="fill:#373737" />
	<rect
   x="288.95901"
   y="102.386"
   width="7.177"
   height="7.178"
   id="rect1172"
   style="fill:#404040" />
	<rect
   x="291.16"
   y="104.588"
   width="2.773"
   height="2.7709999"
   id="rect1174" />
	<polygon
   points="294.955,103.566 293.933,104.588 293.933,107.36 294.955,108.382 "
   id="polygon1176"
   style="fill:#2a2a29" />
	<polygon
   points="294.955,108.382 293.93,107.36 291.158,107.36 290.138,108.382 "
   id="polygon1178"
   style="fill:#474747" />
	<polygon
   points="290.138,108.382 291.158,107.36 291.158,104.588 290.138,103.566 "
   id="polygon1180"
   style="fill:#595959" />
	<polygon
   points="290.138,103.564 291.16,104.588 293.933,104.588 294.955,103.564 "
   id="polygon1182"
   style="fill:#373737" />
	<rect
   x="288.95901"
   y="109.562"
   width="7.177"
   height="7.178"
   id="rect1184"
   style="fill:#404040" />
	<rect
   x="291.16"
   y="111.764"
   width="2.773"
   height="2.7709999"
   id="rect1186" />
	<polygon
   points="294.955,110.742 293.933,111.764 293.933,114.537 294.955,115.559 "
   id="polygon1188"
   style="fill:#2a2a29" />
	<polygon
   points="294.955,115.56 293.93,114.537 291.158,114.537 290.138,115.56 "
   id="polygon1190"
   style="fill:#474747" />
	<polygon
   points="290.138,115.559 291.158,114.537 291.158,111.763 290.138,110.742 "
   id="polygon1192"
   style="fill:#595959" />
	<polygon
   points="290.138,110.738 291.16,111.763 293.933,111.763 294.955,110.738 "
   id="polygon1194"
   style="fill:#373737" />
	<rect
   x="288.95901"
   y="116.738"
   width="7.177"
   height="7.1789999"
   id="rect1196"
   style="fill:#404040" />
	<rect
   x="291.16"
   y="118.941"
   width="2.773"
   height="2.773"
   id="rect1198" />
	<polygon
   points="294.955,117.919 293.933,118.939 293.933,121.713 294.955,122.736 "
   id="polygon1200"
   style="fill:#2a2a29" />
	<polygon
   points="294.955,122.736 293.93,121.713 291.158,121.713 290.138,122.736 "
   id="polygon1202"
   style="fill:#474747" />
	<polygon
   points="290.138,122.734 291.158,121.712 291.158,118.939 290.138,117.919 "
   id="polygon1204"
   style="fill:#595959" />
	<polygon
   points="290.138,117.917 291.16,118.939 293.933,118.939 294.955,117.917 "
   id="polygon1206"
   style="fill:#373737" />
	<rect
   x="288.95901"
   y="123.916"
   width="7.177"
   height="7.178"
   id="rect1208"
   style="fill:#404040" />
	<rect
   x="291.16"
   y="126.119"
   width="2.773"
   height="2.7720001"
   id="rect1210" />
	<polygon
   points="294.955,125.095 293.933,126.117 293.933,128.89 294.955,129.914 "
   id="polygon1212"
   style="fill:#2a2a29" />
	<polygon
   points="294.955,129.914 293.93,128.89 291.158,128.89 290.138,129.914 "
   id="polygon1214"
   style="fill:#474747" />
	<polygon
   points="290.138,129.912 291.158,128.89 291.158,126.117 290.138,125.095 "
   id="polygon1216"
   style="fill:#595959" />
	<polygon
   points="290.138,125.093 291.16,126.117 293.933,126.117 294.955,125.093 "
   id="polygon1218"
   style="fill:#373737" />
	<path
   d="m 143.537,120.922 c 3.032,0 5.527,-2.229 5.987,-5.133 h 0.094 V 98.272 c 0,-3.356 -2.723,-6.082 -6.081,-6.082 -3.357,0 -6.082,2.726 -6.082,6.082 v 17.519 h 0.095 c 0.46,2.905 2.956,5.131 5.987,5.131 z"
   id="path1220"
   inkscape:connector-curvature="0"
   style="fill:#02809e" />
</g>
</svg>