<?xml version="1.0" encoding="utf-8"?>
<!-- Generator: Adobe Illustrator 21.0.2, SVG Export Plug-In . SVG Version: 6.00 Build 0)  -->
<svg version="1.1" xmlns="http://www.w3.org/2000/svg" xmlns:xlink="http://www.w3.org/1999/xlink" x="0px" y="0px"
	 viewBox="0 0 398 297.3" style="enable-background:new 0 0 398 297.3;" xml:space="preserve">
<style type="text/css">
	.st0{fill:#D5B58A;}
	.st1{fill:#B1804F;}
	.st2{fill:#646363;}
	.st3{fill:#A57041;}
	.st4{fill:#FFFFFF;}
	.st5{fill:#C2C2C2;}
	.st6{fill:#733817;}
	.st7{fill:#DCDBDC;}
	.st8{fill:#945B2E;}
	.st9{fill:#797777;}
	.st10{fill:none;stroke:#3C3C3B;stroke-width:0.25;stroke-linecap:round;stroke-linejoin:round;stroke-miterlimit:10;}
	.st11{fill:none;stroke:#3C3C3B;stroke-linecap:round;stroke-linejoin:round;stroke-miterlimit:10;}
	.st12{fill:none;stroke:#3C3C3B;stroke-width:0.5;stroke-miterlimit:10;}
	.st13{fill:none;stroke:#3C3C3B;stroke-width:0.2654;stroke-linecap:round;stroke-linejoin:round;stroke-miterlimit:10;}
	.st14{fill:none;stroke:#3C3C3B;stroke-width:0.2387;stroke-linecap:round;stroke-linejoin:round;stroke-miterlimit:10;}
	.st15{fill:none;stroke:#3C3C3B;stroke-width:0.75;stroke-linecap:round;stroke-linejoin:round;stroke-miterlimit:10;}
	.st16{fill:none;stroke:#3C3C3B;stroke-width:0.3241;stroke-linecap:round;stroke-linejoin:round;stroke-miterlimit:10;}
	.st17{fill:#3C3C3B;}
	.st18{fill:none;stroke:#3C3C3B;stroke-width:0.2771;stroke-linecap:round;stroke-linejoin:round;stroke-miterlimit:10;}
	.st19{fill:none;stroke:#3C3C3B;stroke-width:0.3842;stroke-linecap:round;stroke-linejoin:round;stroke-miterlimit:10;}
	.st20{fill:none;stroke:#3C3C3B;stroke-width:0.501;stroke-linecap:round;stroke-linejoin:round;stroke-miterlimit:10;}
	.st21{fill:none;stroke:#3C3C3B;stroke-width:0.3846;stroke-linecap:round;stroke-linejoin:round;stroke-miterlimit:10;}
	.st22{fill:none;stroke:#3C3C3B;stroke-width:0.5;stroke-linecap:round;stroke-linejoin:round;stroke-miterlimit:10;}
	.st23{fill:none;stroke:#3C3C3B;stroke-width:0.75;stroke-miterlimit:10;}
	.st24{fill:none;stroke:#3C3C3B;stroke-width:0.486;stroke-miterlimit:10;}
	.st25{fill:none;stroke:#3C3C3B;stroke-width:0.2904;stroke-linecap:round;stroke-linejoin:round;stroke-miterlimit:10;}
	.st26{fill:none;stroke:#3C3C3B;stroke-width:0.3224;stroke-linecap:round;stroke-linejoin:round;stroke-miterlimit:10;}
	.st27{display:none;}
	.st28{display:inline;}
	.st29{fill:#FFFFFF;stroke:#000000;stroke-width:0.5143;stroke-linecap:round;stroke-linejoin:round;stroke-miterlimit:10;}
	
		.st30{display:inline;fill:#FFFFFF;stroke:#000000;stroke-width:0.4963;stroke-linecap:round;stroke-linejoin:round;stroke-miterlimit:10;}
</style>
<g id="Layer_1">
	<g>
		<path class="st0" d="M261.7,285.5l0.1,1.7l-3.2,4.2l-67-9.2l-3.1,1.3l-13.9-1.5l0.1-1.8c-1.6,0.9-3.7,1.8-6.3,2.4
			c-1.7,3.4-6.8,5.8-12.9,5.8c-6.1,0-11.3-2.5-12.9-5.8l0,0c-2.2-0.6-4.2-1.2-5.7-2l-6.3-0.6c0,0,0-5.1,0-5.4l-20.8-2.6l-2.5,2
			l-14.9-1.7v-2.5L8.4,259.2l0.4-105.1l0.3-2.5l-0.2-1.8l3.3-1.1L9,148.2l0.3-3.3l3.1-1.3l-3.2-0.4l0.4-3.5l3.3-1l-3.1-0.5l0.5-1.7
			l0.1-1.7l3.1-1.3l-2.8-0.2l0.7-1.6l0.3-1.7l3.1-1l-2.6-0.5l0.8-1.6l0.4-1.6l2.8-1l-2.2-0.4l1.6-3l3.2-0.8l-2.5-0.5l1.2-2l0.8-0.8
			l3.1-1l-2.3-0.4l1-1.3l10.8-9.6H35l0.3-3.5l6.9-5.3l3.8,0.3l0.3-3.4l7-5.3l3.8,0.3l0.3-3.4l7.1-5.4l3.7,0.3l0.3-3.3l7.2-5.4
			l3.6,0.3l0.3-3.2l7.2-5.5l3.6,0.3l0.3-3.2l7.3-5.5l3.5,0.3l0.3-3.1l7.4-5.6l3.4,0.3l0.3-3.1l7.5-5.7l3.4,0.3l0.2-3l11.1-7.2
			l3.2-1.4L384,46l3.8,4.9l3.6,6.3l0.5,116.3l-4.1,3.6l-3.1,0l-0.6,0.7l-8.5,7.5l-1.1-0.4c0.8,8.5,0.6,18.9-0.8,28.7
			c-4.7,34.3-21.5,60.4-37.6,58.2l-29.2-3.5c-6.2-1.1-10.8-6.5-13.5-11.4L261.7,285.5z"/>
	</g>
	<g>
		<g>
			<path class="st1" d="M171,260.8c-8.5,2.1-19.4,4.6-19.4,4.6h-17.6l-17.3-4.4c0,0-8.5-4-18.8-9.1c1.1,0.1,2.3,0,3.4-0.4
				c1-0.3,1.8-0.8,2.6-1.4l2.1-1.4l0,0c2.7-1.9,4.1-5.3,3.2-8.4c-2-1.1-7.9-4.4-8.7-4.8c-0.2,0.1-0.4,0.1-0.6,0.2
				c-0.6,0.2-1.1,0.5-1.6,0.8l0,0l-2.9,1.9c-1.5,1-2.6,2.5-3.2,4.2c0.9-4.8,5.6-8.9,9-6.8l15.4,8.5l16.8,4.1H152l14.1-4.1
				C177.3,242.3,179.5,258.7,171,260.8z"/>
		</g>
	</g>
	<path class="st2" d="M376.2,186.2c0.8,8.5,0.2,18-1.2,27.8c-4.7,34.3-22.3,60.7-38.4,58.6l-29.2-4c-6.2-1.1-10.8-6.5-13.5-11.4
		l3.4-3.3l0.4-6.5h-6.6l-0.5-2.6l6.7-5.9c-1.3-11.1-1.2-24.4,0.5-38.6c3-25,10.3-46.1,18.7-56.4l37.3,2.9
		c11.5,1.6,19.5,17.1,21.5,38.4L376.2,186.2z"/>
	<g>
		<g>
			<path class="st1" d="M392,173.5l-4,3.6l-3.1,0l-0.1-7.6l-5.7-0.4l-0.5-7.2l-3.4-0.9l-0.4-7.7l-3.1,2.3v6.8l-1,1
				c-5.9-13.5-11.6-16-17.8-16.7s-36.4-2.8-36.4-2.8c-3.8,4.5-13.4,22.5-17.2,48.3c-3.9,25.8-1.9,46.6-1.9,46.6L277,257.2l0.1,4.9
				c0,0-12.6,11.2-15.7,13.9c0,6.7,0,10.9,0,10.9l-3,4.6l0.4-110l0.1-2.7l0.2-4.9l0.5-5.4l0.8-4.3l1.3-4.6c0,0,1.8-4,1.8-4.5
				s2.3-4.3,2.3-4.3l2.9-4.4l12.7-11.5l-14.9,0.2v-3.5h9.5c0,0,3.9-3.8,4.2-3.8c0.2,0,0.1,2.6,0.2,2.6s6.1,0.2,6.1,0.2l4.6-4.2
				l-5.4-0.3l-9.4,0.2l-0.2-3.3l9.5,0.1l4.3-3.8v2.6l6.1,0.1l5.5-5h-15.1l0.1-3.3l9.4,0.1l4.5-3.7l0,2.6l6.2-0.1l5-4.6h-14.8l0-3.2
				h9.5l4.3-3.8l0.1,2.7l5.9,0.1c0,0,6.1-5.2,6-5.2c-0.2,0-15,0-15,0l0-3.3h9.3l4.4-3.7l0.2,2.5l5.8,0.1l4.5-4.3l-14.4-0.1l0.1-3.3
				h9.1l4.4-3.5l0.2,2.5l6,0.2l6-5.4h-15l0.1-3.4l9.4,0.1l4.3-3.7l0.1,2.6l6.1,0.2l5.6-5.1l-14.9,0.1l0.2-3.3h9.3
				c0,0,4.5-3.9,4.3-3.8c-0.1,0.2,0.1,2.7,0.1,2.7h6l4.5-4.1l-15,0v-3.6l9.5,0.2l4.2-3.5L362,58h6l10.9-9.8l5.3-1.8l4,4l3.2,6.8
				L392,173.5z"/>
		</g>
	</g>
	<g>
		<path class="st3" d="M368,66.3l9.6-8.5v0.9l-46.2,86.3c-7.9-0.6-14.9-1-14.9-1c-3.8,4.5-13.4,22.5-17.2,48.3
			c-0.8,5.6-1.4,11.1-1.8,16.1l-35.9,67.1l0.2-92.2l0.1-4.6l1.6-9.7l1.8-6.7l3.8-6.7l3.8-4.3l8.4-7.3l0.2-4.8l4.8,0.1l4.6-4l0.2-4.6
			l4.8,0.1l5.3-4.8l0.4-5l4.8,0.1l5.1-4.6l0.1-3.9l5-0.5l5.6-4.9l0.4-4.8l4.8,0.1l4.4-4l0.4-4.7l4.8,0.1l5.9-5.2l0.1-4.6l4.8,0.1
			l5.7-5.4l-0.6-4.3h5.5l4.7-4.2l0-4.4L368,66.3z"/>
	</g>
	<g>
		<path class="st0" d="M261.7,180c0,0.4-0.3,106.8-0.3,106.8"/>
	</g>
	<g>
		<path class="st4" d="M347,245.4c-3.4-7-4.2-21.3-2.1-36.7c1.9-14.1,6-26.7,10.6-33.1c3.4,7,4.6,21.3,2.5,36.6
			C356.1,226.4,351.6,239.1,347,245.4z"/>
	</g>
	<path class="st2" d="M82.7,268.5l115.2,14.6l-5.6-0.7l-3.1,1.3l-13.9-1.5l0.1-1.8c-1.6,0.9-3.7,1.8-6.3,2.4
		c-1.7,3.4-6.8,5.8-12.9,5.8c-6.1,0-11.3-2.5-12.9-5.8l0,0c-2.2-0.6-4.2-1.2-5.7-2l-6.3-0.6c0,0,0-5.1,0-5.4l-20.8-2.6l-2.5,2
		L93,272.4V270l-10.3-1.3C82.7,268.6,82.7,268.5,82.7,268.5z"/>
	<path class="st4" d="M175.4,280.4c-1.6,0.9-3.7,1.8-6.3,2.4c-1.7,3.4-6.8,5.8-12.9,5.8c-6.1,0-11.3-2.5-12.9-5.8l0,0
		c-2.2-0.6-4.2-1.2-5.7-2l8.4,0.8l4.6-4.4L175.4,280.4z"/>
	<path class="st5" d="M143.5,282.9c0,0,2.3,6.3,13,6.3c10.7,0,13.1-6.3,13.1-6.3s-5.2,1.4-13.1,1.4
		C148.6,284.2,143.5,282.9,143.5,282.9z"/>
	<ellipse transform="matrix(0.5933 -0.805 0.805 0.5933 -84.4815 294.0176)" class="st5" cx="248.7" cy="230.6" rx="7.8" ry="8.2"/>
	<ellipse transform="matrix(0.5933 -0.805 0.805 0.5933 -154.7482 97.1223)" class="st5" cx="18.7" cy="201.7" rx="7.8" ry="8.2"/>
	<g>
		<g>
			<path class="st6" d="M175.3,257.3c-0.1,0-0.1,0.1-0.2,0.1c-1,0.2-2.2,0.5-3.2,0.8c-0.5,0.3-1.1,0.7-1.5,1
				c-2.6,1.7-4.6,2.2-7.6,1.2c-4,0.9-7.1,1.7-7.1,1.7h-17.6l-17.3-4.4c0,0-7.1-3.4-16.3-7.9l1.6-1.1l0,0c2.7-1.9,4.1-5.3,3.2-8.4
				c-2-1.1-7.9-4.4-8.7-4.8c-0.2,0.1-0.4,0.1-0.6,0.2c-0.6,0.2-1.1,0.5-1.6,0.8l0,0l-1.6,1.1c0.3-0.7,0.6-1.4,1-2
				c1.2-0.4,2.4-0.4,3.5,0.3l15.4,8.5l16.8,4.1H152l14.1-4.1C174.7,242.8,178,252,175.3,257.3z"/>
		</g>
	</g>
	<path class="st5" d="M109.3,240.3c0.9,3.2-0.5,6.6-3.2,8.4l0,0l-2.1,1.4c-0.7,0.6-1.6,1.1-2.6,1.4c-4,1.4-8.2-0.7-9.3-4.6
		c-1-3.2,0.5-6.7,3.3-8.6l2.9-1.9l0,0c0.5-0.3,1.1-0.6,1.6-0.8c0.2-0.1,0.4-0.1,0.6-0.2C101.5,235.9,107.3,239.2,109.3,240.3z"/>
	<path class="st5" d="M172.7,257.6L172.7,257.6l-2.1,1.4c-0.7,0.6-1.6,1.1-2.6,1.4c-4,1.4-8.2-0.7-9.3-4.6c-1-3.2,0.5-6.7,3.3-8.6
		l0,0l2.9-1.9l0,0c0.5-0.3,1.1-0.6,1.6-0.8c0.7-0.2,1.4-0.4,2.1-0.4c0.4,0,0.8,0.1,1.3,0.2c1.8,0.4,3,1.3,4,2.6
		c0.9,1.2,2,3.4,2.1,5.2C175.8,254.3,174.6,256.3,172.7,257.6z"/>
	<path class="st7" d="M158.7,255.9c1.1,3.9,5.3,5.9,9.3,4.6s6.3-5.7,5.2-9.5c-1.1-3.9-5.3-5.9-9.3-4.6
		C159.9,247.7,157.6,252,158.7,255.9z"/>
	<path class="st7" d="M92.1,247c1.1,3.9,5.3,5.9,9.3,4.6s6.3-5.7,5.2-9.5c-1.1-3.9-5.3-5.9-9.3-4.6S91,243.1,92.1,247z"/>
	<g>
		<ellipse transform="matrix(0.135 -0.9908 0.9908 0.135 49.7093 441.4154)" class="st8" cx="277.7" cy="192.2" rx="3.4" ry="1.1"/>
	</g>
	<g>
		<ellipse transform="matrix(0.135 -0.9908 0.9908 0.135 49.6739 456.3188)" class="st8" cx="286.2" cy="199.7" rx="3.4" ry="1.1"/>
	</g>
	<g>
		<ellipse transform="matrix(0.135 -0.9908 0.9908 0.135 32.4834 457.998)" class="st8" cx="278.6" cy="210.4" rx="3.4" ry="1.1"/>
	</g>
	<g>
		<path class="st8" d="M337.7,145.6l-21.1-1.7c0,0,5-6.5,10.6-6.7S337.1,143,337.7,145.6z"/>
	</g>
	<g>
		<path class="st6" d="M329.4,144.9c0,0-1.4-5.3-6-6.7c0,0-4.4,2.2-6.9,5.7L329.4,144.9z"/>
	</g>
	<g>
		<g>
			<path class="st3" d="M20.2,115.7c9.8,1.2,14.7,1.8,24.4,3.1c-0.4,0.5-0.5,0.8-0.9,1.3c-9.8-1.2-14.7-1.8-24.5-3
				c-0.8,1.1-1.1,1.7-1.9,2.9c9.8,1.2,14.7,1.8,24.5,3c-0.3,0.5-0.5,0.8-0.8,1.3c-9.8-1.2-14.7-1.8-24.5-3c-0.7,1.2-1,1.8-1.6,3
				c9.8,1.2,14.7,1.8,24.5,3c-0.3,0.6-0.4,0.8-0.6,1.4c-9.8-1.2-14.7-1.8-24.5-3c-0.6,1.3-0.8,1.9-1.3,3.2c9.8,1.2,14.7,1.8,24.5,3
				c-0.2,0.6-0.3,0.9-0.5,1.5c-9.8-1.2-14.7-1.8-24.5-3c0,0-0.5,1.5-0.8,2.4c-0.1,0.5-0.2,0.8-0.2,0.8c9.8,1.2,14.7,1.8,24.5,3
				c-0.2,0.6-0.2,0.9-0.4,1.5c-9.8-1.2-14.7-1.8-24.5-3c-0.3,1.3-0.5,2-0.7,3.4c9.8,1.2,14.7,1.8,24.5,3c-0.1,0.6-0.1,0.9-0.2,1.5
				c-9.8-1.2-14.7-1.8-24.5-3c-0.2,1.4-0.3,2.1-0.4,3.5c9.8,1.2,14.7,1.8,24.5,3c0,0.6-0.1,0.9-0.1,1.6c-9.8-1.2-14.7-1.8-24.5-3
				c-0.1,1.4,0,2.1-0.1,3.5c9.8,1.2,14.7,1.8,24.5,3c0,0.6,0,1,0,1.6c-9.8-1.2-14.7-1.8-24.5-3C9.7,150.1,8.4,131.1,20.2,115.7z
				 M258.8,180.2c-9.6-1.2-14.4-1.7-23.9-2.9c0-0.6,0-0.9,0.1-1.5c9.6,1.2,14.4,1.7,23.9,2.9c0.1-1.4,0.1-2,0.1-3.4
				c-9.6-1.2-14.4-1.7-23.9-2.9c0-0.6,0-0.9,0.1-1.5c9.6,1.2,14.4,1.7,23.9,2.9c0-1.4,0.1-2,0.2-3.4c-9.6-1.2-14.4-1.8-23.9-2.9
				c0.1-0.6,0.1-0.9,0.2-1.5c9.6,1.2,14.4,1.8,23.9,2.9c0.2-1.3,0.3-2,0.5-3.3c-9.6-1.2-14.3-1.8-23.9-2.9c0.1-0.6,0.2-0.9,0.3-1.5
				c9.6,1.2,14.3,1.8,23.9,2.9c0.3-1.3,0.5-1.9,0.9-3.2c-9.6-1.2-14.3-1.8-23.9-2.9c0.2-0.6,0.3-0.9,0.5-1.4
				c9.6,1.2,14.3,1.8,23.9,2.9c0.4-1.3,0.7-1.9,1.2-3.1c-9.5-1.2-14.3-1.8-23.9-3c0.2-0.6,0.4-0.8,0.6-1.4c9.5,1.2,14.3,1.8,23.9,3
				c0.6-1.2,0.9-1.8,1.5-3c-9.5-1.2-14.3-1.8-23.9-3c0.3-0.5,0.4-0.8,0.8-1.3c9.5,1.2,14.3,1.8,23.9,3c0.7-1.1,1-1.7,1.8-2.8
				c-9.5-1.2-14.3-1.8-23.9-3c0.3-0.5,0.5-0.7,0.9-1.2c9.5,1.2,14.3,1.8,23.9,3C258,160.6,259.2,174.3,258.8,180.2z M254.3,174.9
				c0,0.6,0,0.9-0.1,1.5c-15.3-1.9-30.6-3.7-45.9-5.6c0-0.6,0-0.9,0.1-1.5C223.7,171.2,239,173,254.3,174.9z M60,152.9
				c0-0.6,0-0.9,0-1.6c15.6,1.9,31.1,3.8,46.7,5.7c0,0.6,0,0.9-0.1,1.6C91.1,156.6,75.6,154.8,60,152.9z M81.9,156.4
				c0,0.6,0,0.9,0,1.6c-15.6-1.9-31.2-3.8-46.8-5.7c0-0.6,0-1,0-1.6C50.6,152.7,66.2,154.5,81.9,156.4z M205.5,165.5
				c-15.4-1.9-30.8-3.7-46.2-5.6c0-0.6,0.1-0.9,0.1-1.5c15.4,1.9,30.8,3.8,46.2,5.6C205.6,164.6,205.6,164.9,205.5,165.5z
				 M230,169.4c0,0.6,0,0.9-0.1,1.5c-15.4-1.9-30.7-3.7-46.1-5.6c0-0.6,0-0.9,0.1-1.5C199.2,165.7,214.6,167.5,230,169.4z
				 M109.9,153.9c0.1-0.6,0.1-0.9,0.2-1.5c15.5,1.9,30.9,3.8,46.4,5.7c-0.1,0.6-0.1,0.9-0.1,1.5
				C140.9,157.7,125.4,155.8,109.9,153.9z M131.6,157.4c0,0.6,0,0.9-0.1,1.5c-15.5-1.9-31.1-3.8-46.6-5.7c0-0.6,0-0.9,0.1-1.6
				C100.6,153.7,116.1,155.5,131.6,157.4z M161.7,140.8c-15.4-1.9-30.9-3.8-46.3-5.7c0.3-0.5,0.4-0.8,0.7-1.3
				c15.4,1.9,30.9,3.8,46.3,5.7C162.1,140,162,140.2,161.7,140.8z M185.8,144.6c-0.3,0.5-0.4,0.8-0.6,1.4
				c-15.4-1.9-30.8-3.8-46.2-5.7c0.3-0.6,0.4-0.8,0.7-1.4C155.1,140.8,170.5,142.7,185.8,144.6z M136.7,138.5
				c-0.3,0.5-0.4,0.8-0.7,1.4c-15.5-1.9-31-3.8-46.4-5.7c0.3-0.6,0.4-0.8,0.7-1.4C105.7,134.7,121.2,136.6,136.7,138.5z
				 M113.9,138.1c15.4,1.9,30.9,3.8,46.3,5.7c-0.2,0.6-0.4,0.8-0.6,1.4c-15.4-1.9-30.9-3.8-46.3-5.7
				C113.6,138.9,113.7,138.7,113.9,138.1z M183.9,149.1c-0.2,0.6-0.3,0.9-0.5,1.4c-15.4-1.9-30.8-3.8-46.2-5.7
				c0.2-0.6,0.3-0.9,0.5-1.4C153.1,145.3,168.5,147.2,183.9,149.1z M134.7,143c-0.2,0.6-0.3,0.9-0.5,1.4c-15.5-1.9-31-3.8-46.5-5.7
				c0.2-0.6,0.3-0.9,0.5-1.4C103.8,139.2,119.3,141.1,134.7,143z M112.2,142.7c15.4,1.9,30.9,3.8,46.3,5.7c-0.2,0.6-0.3,0.9-0.4,1.5
				c-15.5-1.9-30.9-3.8-46.4-5.7C111.9,143.6,112,143.3,112.2,142.7z M182.5,153.7c-0.2,0.6-0.2,0.9-0.4,1.5
				c-15.4-1.9-30.8-3.8-46.2-5.7c0.1-0.6,0.2-0.9,0.4-1.5C151.6,150,167,151.8,182.5,153.7z M133.2,147.7c-0.2,0.6-0.2,0.9-0.4,1.5
				c-15.5-1.9-31-3.8-46.5-5.7c0.1-0.6,0.2-0.9,0.4-1.5C102.3,143.9,117.7,145.8,133.2,147.7z M110.9,147.5
				c15.5,1.9,30.9,3.8,46.4,5.7c-0.1,0.6-0.2,0.9-0.3,1.5c-15.5-1.9-30.9-3.8-46.4-5.7C110.7,148.4,110.8,148.1,110.9,147.5z
				 M181.5,158.5c-0.1,0.6-0.1,0.9-0.2,1.5c-15.4-1.9-30.9-3.8-46.3-5.7c0.1-0.6,0.1-0.9,0.2-1.5C150.6,154.8,166,156.6,181.5,158.5
				z M132.2,152.5c-0.1,0.6-0.1,0.9-0.2,1.5c-15.5-1.9-31-3.8-46.5-5.7c0.1-0.6,0.1-0.9,0.2-1.5
				C101.2,148.7,116.7,150.6,132.2,152.5z M134.6,157.8c15.4,1.9,30.9,3.8,46.3,5.6c0,0.6,0,0.9-0.1,1.5
				c-15.4-1.9-30.9-3.8-46.3-5.6C134.6,158.7,134.6,158.4,134.6,157.8z M184.2,160.4c0.1-0.6,0.1-0.9,0.2-1.5
				c15.3,1.9,30.7,3.8,46,5.6c-0.1,0.6-0.1,0.9-0.2,1.5C214.9,164.2,199.5,162.3,184.2,160.4z M206.1,160.7
				c-15.4-1.9-30.8-3.8-46.1-5.6c0.1-0.6,0.2-0.9,0.3-1.5c15.4,1.9,30.8,3.8,46.1,5.7C206.3,159.8,206.2,160.1,206.1,160.7z
				 M185.1,155.6c0.1-0.6,0.2-0.9,0.4-1.5c15.3,1.9,30.7,3.8,46,5.6c-0.1,0.6-0.2,0.9-0.4,1.5C215.7,159.3,200.4,157.5,185.1,155.6z
				 M207.2,155.9c-15.4-1.9-30.7-3.8-46.1-5.7c0.2-0.6,0.3-0.9,0.4-1.5c15.4,1.9,30.7,3.8,46.1,5.7
				C207.4,155,207.4,155.3,207.2,155.9z M186.4,150.9c0.2-0.6,0.3-0.9,0.5-1.4c15.3,1.9,30.6,3.8,46,5.7c-0.2,0.6-0.3,0.9-0.5,1.4
				C217,154.7,201.7,152.8,186.4,150.9z M208.7,151.3c-15.4-1.9-30.7-3.8-46.1-5.7c0.2-0.6,0.3-0.8,0.6-1.4
				c15.4,1.9,30.7,3.8,46.1,5.7C209.1,150.4,209,150.7,208.7,151.3z M188.2,146.3c0.2-0.6,0.4-0.8,0.6-1.4
				c15.3,1.9,30.6,3.8,45.9,5.7c-0.3,0.5-0.4,0.8-0.6,1.4C218.8,150.1,203.5,148.2,188.2,146.3z M210.7,146.9
				c-15.4-1.9-30.7-3.8-46.1-5.7c0.3-0.5,0.4-0.8,0.7-1.3c15.3,1.9,30.7,3.8,46,5.7C211.1,146,211,146.3,210.7,146.9z M190.4,142
				c0.3-0.5,0.5-0.8,0.8-1.3c15.3,1.9,30.6,3.8,45.9,5.7c-0.3,0.5-0.5,0.8-0.8,1.3C221,145.8,205.7,143.9,190.4,142z M213.1,142.6
				c-15.3-1.9-30.7-3.8-46-5.7c0.3-0.5,0.5-0.8,0.8-1.3c15.3,1.9,30.7,3.8,46,5.7C213.6,141.9,213.5,142.1,213.1,142.6z
				 M188.2,140.3c-0.3,0.5-0.5,0.8-0.8,1.3c-15.4-1.9-30.8-3.8-46.2-5.7c0.3-0.5,0.5-0.8,0.8-1.3
				C157.4,136.5,172.8,138.4,188.2,140.3z M164.1,136.5c-15.4-1.9-30.9-3.8-46.3-5.8c0.3-0.5,0.5-0.8,0.8-1.3
				c15.4,1.9,30.9,3.8,46.3,5.8C164.6,135.8,164.5,136,164.1,136.5z M139.1,134.2c-0.3,0.5-0.5,0.8-0.8,1.3
				c-15.5-1.9-30.9-3.8-46.4-5.8c0.3-0.5,0.5-0.8,0.8-1.3C108.1,130.4,123.6,132.3,139.1,134.2z M114.9,130.4
				c-15.5-1.9-31-3.9-46.5-5.8c0.3-0.5,0.5-0.8,0.9-1.3c15.5,1.9,31,3.9,46.5,5.8C115.4,129.6,115.2,129.9,114.9,130.4z M89.7,128.1
				c-0.3,0.5-0.5,0.8-0.8,1.3c-15.6-1.9-31.1-3.9-46.7-5.8c0.3-0.5,0.5-0.8,0.8-1.3C58.5,124.2,74.1,126.2,89.7,128.1z M66.6,127.5
				c15.5,1.9,31,3.9,46.5,5.8c-0.3,0.5-0.4,0.8-0.7,1.3c-15.5-1.9-31-3.8-46.6-5.8C66.1,128.4,66.3,128.1,66.6,127.5z M87.3,132.4
				c-0.3,0.6-0.4,0.8-0.7,1.4c-15.6-1.9-31.1-3.9-46.7-5.8c0.3-0.6,0.4-0.8,0.7-1.4C56.1,128.5,71.7,130.5,87.3,132.4z M64.4,132
				c15.5,1.9,31,3.8,46.6,5.8c-0.2,0.6-0.4,0.8-0.6,1.4c-15.5-1.9-31.1-3.8-46.6-5.7C64,132.8,64.1,132.5,64.4,132z M85.3,136.9
				c-0.2,0.6-0.3,0.9-0.5,1.4c-15.6-1.9-31.1-3.8-46.7-5.8c0.2-0.6,0.3-0.9,0.5-1.4C54.2,133.1,69.7,135,85.3,136.9z M62.6,136.6
				c15.5,1.9,31.1,3.8,46.6,5.7c-0.2,0.6-0.3,0.9-0.4,1.5c-15.5-1.9-31.1-3.8-46.6-5.7C62.3,137.5,62.4,137.2,62.6,136.6z
				 M83.8,141.6c-0.2,0.6-0.2,0.9-0.4,1.5c-15.6-1.9-31.2-3.8-46.7-5.7c0.1-0.6,0.2-0.9,0.4-1.5C52.6,137.8,68.2,139.7,83.8,141.6z
				 M61.3,141.4c15.5,1.9,31.1,3.8,46.6,5.7c-0.1,0.6-0.2,0.9-0.3,1.5c-15.5-1.9-31.1-3.8-46.6-5.7C61.1,142.3,61.2,142,61.3,141.4z
				 M82.7,146.5c-0.1,0.6-0.2,0.9-0.2,1.5c-15.6-1.9-31.2-3.8-46.8-5.7c0.1-0.6,0.1-0.9,0.3-1.5C51.5,142.6,67.1,144.5,82.7,146.5z
				 M60.4,146.3c15.6,1.9,31.1,3.8,46.7,5.7c-0.1,0.6-0.1,0.9-0.2,1.5c-15.6-1.9-31.1-3.8-46.7-5.7
				C60.3,147.2,60.4,146.9,60.4,146.3z M82.1,151.4c0,0.6-0.1,0.9-0.1,1.6c-15.6-1.9-31.2-3.8-46.8-5.7c0-0.6,0.1-0.9,0.1-1.6
				C50.9,147.6,66.5,149.5,82.1,151.4z M84.9,156.8c15.5,1.9,31,3.8,46.6,5.6c0,0.6,0,0.9,0,1.6c-15.5-1.9-31-3.8-46.6-5.6
				C84.8,157.7,84.8,157.4,84.9,156.8z M109.7,158.9c0-0.6,0-0.9,0.1-1.6c15.5,1.9,31,3.8,46.5,5.6c0,0.6,0,0.9-0.1,1.6
				C140.6,162.6,125.2,160.8,109.7,158.9z M134.4,162.8c15.4,1.9,30.9,3.7,46.3,5.6c0,0.6,0,0.9-0.1,1.6
				c-15.4-1.9-30.9-3.7-46.3-5.6C134.4,163.7,134.4,163.4,134.4,162.8z M159.1,164.9c0-0.6,0-0.9,0.1-1.6
				c15.4,1.9,30.8,3.7,46.2,5.6c0,0.6,0,0.9-0.1,1.5C189.9,168.6,174.5,166.7,159.1,164.9z M183.7,168.8c15.4,1.9,30.7,3.7,46.1,5.6
				c0,0.6,0,0.9-0.1,1.5c-15.4-1.9-30.7-3.7-46.1-5.6C183.7,169.7,183.7,169.4,183.7,168.8z M254.5,170c-0.1,0.6-0.1,0.9-0.1,1.5
				c-15.3-1.9-30.6-3.7-45.9-5.6c0-0.6,0.1-0.9,0.1-1.5C223.9,166.2,239.2,168.1,254.5,170z M255.2,165.1c-0.1,0.6-0.2,0.9-0.3,1.5
				c-15.3-1.9-30.6-3.7-45.9-5.6c0.1-0.6,0.2-0.9,0.3-1.5C224.7,161.4,239.9,163.3,255.2,165.1z M256.4,160.5
				c-0.2,0.6-0.3,0.9-0.4,1.4c-15.3-1.9-30.6-3.8-45.9-5.6c0.2-0.6,0.2-0.9,0.4-1.5C225.9,156.7,241.1,158.6,256.4,160.5z
				 M258.1,155.9c-0.2,0.6-0.3,0.8-0.6,1.4c-15.3-1.9-30.6-3.8-45.8-5.7c0.2-0.6,0.3-0.8,0.6-1.4C227.5,152.1,242.8,154,258.1,155.9
				z M260.2,151.6c-0.3,0.5-0.4,0.8-0.7,1.3c-15.3-1.9-30.5-3.8-45.8-5.7c0.3-0.5,0.4-0.8,0.7-1.3
				C229.6,147.8,244.9,149.7,260.2,151.6z M262.7,147.4c-0.3,0.5-0.5,0.7-0.8,1.3c-15.3-1.9-30.5-3.8-45.8-5.7
				c0.3-0.5,0.5-0.8,0.8-1.3C232.2,143.6,247.5,145.5,262.7,147.4z M193.9,136.7c15.3,1.9,30.6,3.8,45.9,5.7
				c-0.4,0.5-0.6,0.7-0.9,1.2c-15.3-1.9-30.6-3.8-45.9-5.7C193.4,137.4,193.6,137.2,193.9,136.7z M144.8,130.6
				c15.4,1.9,30.8,3.8,46.2,5.8c-0.4,0.5-0.6,0.7-0.9,1.2c-15.4-1.9-30.8-3.8-46.2-5.8C144.3,131.3,144.5,131,144.8,130.6z
				 M95.4,124.4c15.5,1.9,30.9,3.9,46.4,5.8c-0.4,0.5-0.6,0.7-0.9,1.2c-15.5-1.9-30.9-3.9-46.4-5.8
				C94.9,125.1,95.1,124.9,95.4,124.4z M45.8,118.2c15.6,1.9,31.1,3.9,46.7,5.8c-0.4,0.5-0.6,0.7-0.9,1.2
				c-15.6-1.9-31.1-3.9-46.7-5.8C45.2,118.9,45.4,118.7,45.8,118.2z M18.5,118.4c0.3-0.5,0.5-0.8,0.9-1.3
				c15.6,1.9,31.2,3.9,46.8,5.8c-0.3,0.5-0.5,0.8-0.9,1.3C49.7,122.3,34.1,120.4,18.5,118.4z M16,122.7c0.3-0.5,0.4-0.8,0.7-1.4
				c15.6,1.9,31.2,3.9,46.8,5.8c-0.3,0.5-0.4,0.8-0.7,1.4C47.3,126.6,31.7,124.7,16,122.7z M14,127.2c0.2-0.6,0.4-0.9,0.6-1.4
				c15.6,1.9,31.2,3.9,46.8,5.8c-0.2,0.6-0.4,0.8-0.6,1.4C45.2,131.1,29.6,129.2,14,127.2z M21.6,131.5c12.7,1.6,25.3,3.1,38,4.7
				c-0.2,0.6-0.3,0.9-0.5,1.5c-15.6-1.9-31.2-3.8-46.9-5.8c0.2-0.6,0.3-0.9,0.5-1.5C16.3,130.9,18.1,131.1,21.6,131.5 M11.1,136.8
				c0.1-0.6,0.2-0.9,0.3-1.5c15.6,1.9,31.3,3.8,46.9,5.7c-0.1,0.6-0.2,0.9-0.3,1.5C42.4,140.6,26.7,138.7,11.1,136.8z M10.3,141.8
				c0.1-0.6,0.1-0.9,0.2-1.6c15.6,1.9,31.3,3.8,46.9,5.7c-0.1,0.6-0.1,0.9-0.2,1.5C41.6,145.6,26,143.7,10.3,141.8z M10,146.8
				c0-0.6,0-1,0-1.6c15.7,1.9,31.3,3.8,47,5.7c0,0.6,0,0.9,0,1.6C41.3,150.6,25.7,148.7,10,146.8z M56.9,157.6
				c-15.6-1.9-31.3-3.8-46.9-5.7c0-0.6,0-1,0-1.6c15.6,1.9,31.3,3.8,46.9,5.7C56.9,156.6,56.9,156.9,56.9,157.6z M106.5,163.6
				c-15.6-1.9-31.1-3.8-46.7-5.6c0-0.6,0-0.9,0-1.6c15.6,1.9,31.1,3.8,46.7,5.6C106.6,162.6,106.6,162.9,106.5,163.6z M156,169.5
				c-15.5-1.9-31-3.7-46.4-5.6c0-0.6,0-0.9,0.1-1.6c15.5,1.9,31,3.7,46.4,5.6C156,168.6,156,168.9,156,169.5z M205.1,175.5
				c-15.4-1.9-30.8-3.7-46.2-5.6c0-0.6,0-0.9,0.1-1.6c15.4,1.9,30.8,3.7,46.2,5.6C205.2,174.5,205.1,174.8,205.1,175.5z M254,181.3
				c-15.3-1.8-30.6-3.7-45.9-5.5c0-0.6,0-0.9,0.1-1.5c15.3,1.8,30.6,3.7,45.9,5.5C254,180.4,254,180.7,254,181.3z"/>
		</g>
	</g>
	<polygon class="st5" points="261.7,231.7 264.7,228.2 264.7,220.3 261.8,217.5 	"/>
	<polygon class="st5" points="266.5,260.6 261.6,259.2 261.7,272.6 264.1,270.5 267.2,267 	"/>
	<polygon class="st2" points="261.6,275.4 261.4,286.4 263.2,285.7 298.1,254 297.8,247.3 288,247.3 277,257.2 277.3,262.4 	"/>
	<path class="st2" d="M375.7,186.7l9.3-8.2l-0.2-9l-5.7-0.4l-0.1,1.2l-3.8,3.1h-1.6c0,0,1.3,4.9,1.3,5.3
		C374.9,179.1,375.7,186.7,375.7,186.7z"/>
	<polygon class="st5" points="371.5,129.4 374.4,127.9 375.2,130.9 377.6,129.1 380.7,125.7 380.7,116.8 376.6,113.4 373.9,115.3 
		374,119.5 371.5,121.2 	"/>
	<path class="st5" d="M370.7,163.4l1-1v-6.8l3.1-2.3l0.4,7.7l3.4,0.9l0.3,8.4l-3.8,3.1h-1.6C373.6,173.5,373.1,168.3,370.7,163.4z"
		/>
	<g>
		
			<ellipse transform="matrix(0.5933 -0.805 0.805 0.5933 -123.7992 163.4418)" class="st3" cx="99.9" cy="204.2" rx="22.4" ry="23.8"/>
	</g>
	<g>
		
			<ellipse transform="matrix(0.5933 -0.805 0.805 0.5933 -102.4651 224.9392)" class="st3" cx="171.4" cy="213.9" rx="22.3" ry="23.7"/>
	</g>
	
		<ellipse transform="matrix(0.5933 -0.805 0.805 0.5933 -123.8353 163.3703)" class="st2" cx="99.8" cy="204.2" rx="20.1" ry="21.3"/>
	
		<ellipse transform="matrix(0.5933 -0.805 0.805 0.5933 -102.4651 224.9392)" class="st2" cx="171.4" cy="213.9" rx="20.1" ry="21.3"/>
	
		<ellipse transform="matrix(0.5933 -0.805 0.805 0.5933 -125.1316 160.8045)" class="st9" cx="96.6" cy="204.2" rx="20.1" ry="21.3"/>
	
		<ellipse transform="matrix(0.5933 -0.805 0.805 0.5933 -103.7613 222.3734)" class="st9" cx="168.2" cy="213.9" rx="20.1" ry="21.3"/>
	<g>
		<g>
			<path class="st3" d="M388,177.1c0,0-3.6,0.8-3.1,0c0.6-0.8-0.1-7.6-0.1-7.6s-5.5,0.2-5.7-0.4c-0.2-0.6,0.1-4.4,0.1-4.4l-0.2-36.8
				l1.7-2.3v-8.9l-2-2.4c0,0-0.1-21.5-0.2-32.1c-0.3-3.5-0.4-5.8-0.2-5.8c0,0,0.1-0.1,0.2-0.1c1-0.4,5.8,0.6,5.8,0.6l0.1,88.5
				c0,0,2.9-2.8,3.2-2.9S388,177.1,388,177.1z"/>
		</g>
	</g>
	<g>
		<polygon class="st8" points="379,164.4 384.4,165.5 387.7,162.7 388,177.1 385,176.4 384.8,169.5 378.7,169.1 		"/>
	</g>
	<g>
		<path class="st3" d="M388,74.2l-6.4-0.6c0,0-0.2-2.6,0.1-2.6c0.2,0.1-0.7-8.8-0.7-8.8l-2.8-5l1.2-1.3l4.6-0.1l4,6.4V74.2z"/>
	</g>
	<g>
		<path class="st8" d="M381,62.3l7,0.1l-4-6.4c0,0-5,0.1-4.6,0.1c0.4,0-1.2,1.3-1.2,1.3L381,62.3z"/>
	</g>
	<g>
		<path class="st0" d="M258.5,180.2C258.5,180.2,258.4,180.2,258.5,180.2C258.4,180.2,258.4,180.2,258.5,180.2z M258.5,180.2
			c0.5-0.1,3.2-0.1,3.2-0.1l0.2-1.4l-3,0.1C258.9,178.7,258.8,180,258.5,180.2z M259,175.3l3.4,0.3v-0.9L259,174L259,175.3z
			 M259.3,170.4l3.7,0.6l0.1-1.1l-3.5-1.2L259.3,170.4z M260,165.6l4,0.9l0.3-1.2l-3.9-1.4L260,165.6z M261.2,160.9l4.1,1.3l0.3-0.6
			l-3.8-2.5L261.2,160.9z M263.1,156.2l4.3,2.3l0.7-1.2l-4.6-2.3L263.1,156.2z M265.2,152.1l3.9,3.4l1-1.7l-4.2-3.3L265.2,152.1z
			 M268.4,146.7l-0.9,1.2l4.3,4.4l1-1.2L268.4,146.7z"/>
	</g>
	<g>
		<g>
			<path class="st6" d="M258.5,180.2C258.5,180.2,258.4,180.2,258.5,180.2C258.4,180.2,258.4,180.2,258.5,180.2z M258.5,180.2
				c0.5-0.1,3.2-0.1,3.2-0.1l0.2-1.4l-3,0.1C258.9,178.7,258.8,180,258.5,180.2z M259,175.3l3.4,0.3v-0.9L259,174L259,175.3z
				 M259.3,170.4l3.7,0.6l0.1-1.1l-3.5-1.2L259.3,170.4z M260,165.6l4,0.9l0.3-1.2l-3.9-1.4L260,165.6z M261.2,160.9l4.1,1.3
				l0.3-0.6l-3.8-2.5L261.2,160.9z M263.1,156.2l4.3,2.3l0.7-1.2l-4.6-2.3L263.1,156.2z M265.2,152.1l3.9,3.4l1-1.7l-4.2-3.3
				L265.2,152.1z M268.4,146.7l-0.9,1.2l4.3,4.4l1-1.2L268.4,146.7z"/>
		</g>
	</g>
	<g>
		<polygon class="st8" points="275.4,134.9 275.4,131.6 279.7,127.8 279.8,130.6 285.9,130.6 285.9,139.2 281,139.1 280.8,134.8 		
			"/>
	</g>
	<g>
		<polygon class="st6" points="280.3,130.6 280.3,134.8 281.3,134.8 281.5,139.1 286.4,139.2 286.4,130.6 		"/>
	</g>
	<g>
		<polygon class="st8" points="285,126.4 285,123.2 289.3,119.4 289.4,122.2 295.5,122.1 295.5,130.8 290.7,130.7 290.5,126.4 		"/>
	</g>
	<g>
		<polygon class="st6" points="290,122.2 289.9,126.4 291,126.4 291.2,130.7 296,130.8 296.1,122.1 		"/>
	</g>
	<g>
		<polygon class="st8" points="295.6,116.9 295.5,113.7 299.8,110 300,112.7 306.1,112.7 306,121.2 301.2,121 301,116.8 		"/>
	</g>
	<g>
		<polygon class="st6" points="300.5,112.7 300.4,116.8 301.5,116.8 301.7,121 306.5,121.2 306.6,112.7 		"/>
	</g>
	<g>
		<polygon class="st8" points="306.2,107.9 306.2,104.8 310.5,101 310.6,103.7 316.7,103.7 316.7,112.2 311.8,112 311.6,107.9 		"/>
	</g>
	<g>
		<polygon class="st6" points="310.6,103.7 310.6,107.9 311.6,107.9 311.8,112 316.7,112.2 316.7,103.7 		"/>
	</g>
	<g>
		<polygon class="st8" points="317,98.4 317,95.2 321.3,91.5 321.4,94.2 327.5,94.2 327.4,102.6 322.6,102.5 322.4,98.3 		"/>
	</g>
	<g>
		<polygon class="st6" points="321.4,94.2 321.4,98.3 322.4,98.3 322.6,102.5 327.4,102.6 327.5,94.2 		"/>
	</g>
	<g>
		<polygon class="st8" points="326.6,89.8 326.6,86.6 330.9,82.9 331,85.6 337.1,85.6 337.1,94.1 332.2,93.9 332.1,89.7 		"/>
	</g>
	<g>
		<polygon class="st6" points="331,85.6 331,89.7 332.1,89.7 332.2,93.9 337.1,94.1 337.1,85.6 		"/>
	</g>
	<g>
		<polygon class="st8" points="337.5,80.2 337.5,77 341.8,73.2 341.9,76 348,75.9 348,84.4 343.1,84.3 343,80.1 		"/>
	</g>
	<g>
		<polygon class="st6" points="341.9,76 341.9,80.1 343,80.1 343.1,84.3 348,84.4 348,75.9 		"/>
	</g>
	<g>
		<polygon class="st8" points="348.1,70.8 348,67.3 352.3,63.6 352.5,66.3 358.6,66.3 358.5,74.8 353.7,74.6 353.5,70.8 		"/>
	</g>
	<g>
		<polygon class="st6" points="352.5,66.3 352.4,70.8 353.7,70.8 353.7,74.6 358.5,74.8 358.6,66.3 		"/>
	</g>
	<g>
		<polygon class="st8" points="357.5,62.3 357.5,58.8 361.8,55 361.9,57.8 368,57.8 368,66.3 363.2,66.2 363,62.3 		"/>
	</g>
	<g>
		<polygon class="st6" points="361.9,57.8 361.9,62.3 363.2,62.3 363.2,66.2 368,66.3 368,57.8 		"/>
	</g>
	<g>
		<g>
			<path class="st3" d="M194.9,128c-0.9,0.8-3.5,1.2-5.8,0.9c-27.4-3.2-54.4-6.4-81.2-9.5c-2.2-0.3-3.3-1.1-2.4-1.9
				c0.9-0.8,3.4-1.2,5.6-0.9c26.9,3.1,54,6.3,81.4,9.5C194.7,126.4,195.8,127.3,194.9,128z M288.4,44.1c-28.8-2.8-57.3-5.6-85.5-8.3
				c-2.3-0.2-5,0.2-5.9,1l0,0c-0.9,0.8,0.2,1.6,2.6,1.9c28.2,2.8,56.6,5.5,85.4,8.3c2.4,0.2,5.1-0.2,6.1-1l0,0
				C292,45.2,290.8,44.4,288.4,44.1z M116.3,112c2.2,0.3,4.8-0.2,5.6-0.9c0.9-0.8-0.2-1.6-2.5-1.9c-2.2-0.3-4.8,0.2-5.6,0.9
				C113,110.9,114.1,111.7,116.3,112z M128.4,101.3c2.2,0.3,4.8-0.2,5.7-0.9c0.9-0.8-0.2-1.6-2.5-1.9c-2.2-0.3-4.8,0.2-5.7,1
				C125.1,100.3,126.2,101.1,128.4,101.3z M140.6,90.6c2.3,0.2,4.8-0.2,5.7-1c0.9-0.8-0.2-1.6-2.5-1.9c-2.3-0.2-4.8,0.2-5.7,1
				C137.3,89.5,138.4,90.4,140.6,90.6z M165.2,69c2.3,0.2,4.9-0.2,5.8-1c0.9-0.8-0.2-1.6-2.5-1.9c-2.3-0.2-4.9,0.2-5.8,1
				C161.8,67.9,162.9,68.8,165.2,69z M177.6,58.1c2.3,0.2,4.9-0.2,5.8-1c0.9-0.8-0.2-1.6-2.5-1.9c-2.3-0.2-4.9,0.2-5.8,1
				C174.1,57,175.3,57.9,177.6,58.1z M190,47.2c2.3,0.2,4.9-0.2,5.9-1c0.9-0.8-0.2-1.6-2.6-1.9c-2.3-0.2-4.9,0.2-5.8,1
				C186.6,46.1,187.7,46.9,190,47.2z M152.9,79.8c2.3,0.2,4.8-0.2,5.7-1c0.9-0.8-0.2-1.6-2.5-1.9c-2.3-0.2-4.8,0.2-5.7,1
				C149.5,78.8,150.6,79.6,152.9,79.8z M156.8,116.7c2.3,0.3,4.8-0.2,5.7-0.9c0.9-0.8-0.2-1.6-2.5-1.9c-2.3-0.3-4.8,0.2-5.7,0.9
				C153.5,115.6,154.6,116.4,156.8,116.7z M169.2,105.9c2.3,0.3,4.9-0.2,5.8-1c0.9-0.8-0.2-1.6-2.5-1.9c-2.3-0.3-4.9,0.2-5.8,1
				C165.8,104.8,166.9,105.7,169.2,105.9z M181.7,95.1c2.3,0.3,4.9-0.2,5.8-1c0.9-0.8-0.2-1.6-2.5-1.9c-2.3-0.3-4.9,0.2-5.8,1
				C178.3,94,179.4,94.9,181.7,95.1z M206.8,73.4c2.3,0.2,5-0.2,5.9-1c0.9-0.8-0.2-1.6-2.6-1.9c-2.3-0.2-5,0.2-5.9,1
				C203.3,72.3,204.5,73.1,206.8,73.4z M219.5,62.4c2.3,0.2,5-0.2,5.9-1c0.9-0.8-0.2-1.6-2.6-1.9c-2.3-0.2-5,0.2-5.9,1
				C216,61.3,217.1,62.2,219.5,62.4z M232.2,51.4c2.4,0.2,5-0.2,6-1c0.9-0.8-0.2-1.6-2.6-1.9c-2.4-0.2-5,0.2-6,1
				C228.7,50.3,229.8,51.1,232.2,51.4z M194.2,84.3c2.3,0.2,4.9-0.2,5.8-1c0.9-0.8-0.2-1.6-2.5-1.9c-2.3-0.2-4.9,0.2-5.8,1
				C190.8,83.2,191.9,84,194.2,84.3z M201.3,118.6c-2.3-0.3-4.9,0.2-5.8,0.9c-0.9,0.8,0.2,1.6,2.5,1.9c2.3,0.3,4.9-0.2,5.8-0.9
				C204.7,119.7,203.6,118.8,201.3,118.6z M213.9,107.7c-2.3-0.3-4.9,0.2-5.9,1c-0.9,0.8,0.2,1.6,2.5,1.9c2.3,0.3,4.9-0.2,5.9-1
				C217.4,108.9,216.3,108,213.9,107.7z M226.7,96.9c-2.3-0.3-5,0.2-5.9,1c-0.9,0.8,0.2,1.6,2.5,1.9c2.3,0.3,5-0.2,5.9-1
				C230.2,98,229,97.1,226.7,96.9z M252.4,74.9c-2.4-0.2-5,0.2-6,1c-0.9,0.8,0.2,1.7,2.6,1.9c2.4,0.2,5-0.2,6-1
				C255.9,76,254.8,75.1,252.4,74.9z M265.4,63.8c-2.4-0.2-5.1,0.2-6,1c-0.9,0.8,0.2,1.7,2.6,1.9c2.4,0.2,5.1-0.2,6-1
				C268.9,64.9,267.8,64.1,265.4,63.8z M278.4,52.7c-2.4-0.2-5.1,0.2-6.1,1c-0.9,0.8,0.2,1.7,2.6,1.9c2.4,0.2,5.1-0.2,6.1-1
				C282,53.8,280.8,52.9,278.4,52.7z M239.5,85.9c-2.3-0.3-5,0.2-5.9,1c-0.9,0.8,0.2,1.6,2.6,1.9c2.3,0.3,5-0.2,5.9-1
				C243,87,241.9,86.2,239.5,85.9z M158.9,40.9c-2.3-0.2-4.9,0.2-5.8,1c-10.7,9.5-21.3,19-31.8,28.4c-0.9,0.8,0.2,1.6,2.5,1.8
				c2.3,0.2,4.8-0.2,5.7-1c10.6-9.4,21.3-18.9,32-28.4C162.3,41.9,161.2,41.1,158.9,40.9z M117.8,77.5c-2.2-0.2-4.8,0.2-5.6,1
				c-10.5,9.3-20.9,18.6-31.3,27.9c-0.9,0.8,0.2,1.6,2.4,1.9c2.2,0.3,4.7-0.2,5.6-0.9c10.4-9.3,20.9-18.6,31.4-27.9
				C121.1,78.6,120,77.7,117.8,77.5z M122.4,73.4c-2.3-0.2-4.8,0.2-5.7,1c-0.9,0.8,0.2,1.6,2.5,1.9c2.2,0.2,4.8-0.2,5.7-1
				C125.7,74.5,124.6,73.6,122.4,73.4z M77.4,113.5c-2.2-0.3-4.7,0.2-5.5,0.9c-0.9,0.8,0.2,1.6,2.4,1.9c2.2,0.3,4.7-0.2,5.5-0.9
				C80.7,114.6,79.6,113.7,77.4,113.5z M73.9,108.5c-2.2-0.3-4.7,0.2-5.5,0.9c-0.9,0.8,0.2,1.6,2.4,1.8c2.2,0.3,4.7-0.2,5.5-0.9
				C77.2,109.6,76.1,108.8,73.9,108.5z M168.4,32.5c-2.3-0.2-4.9,0.2-5.8,1c-0.9,0.8,0.2,1.6,2.6,1.8c2.3,0.2,4.9-0.2,5.8-1
				C171.9,33.6,170.7,32.7,168.4,32.5z M154.6,37.4c0.9-0.8-0.2-1.6-2.5-1.8c-2.3-0.2-4.9,0.2-5.8,1c-0.9,0.8,0.3,1.6,2.5,1.8
				C151.1,38.6,153.7,38.2,154.6,37.4z M269.7,93.9c-2.4-0.3-5.1,0.2-6,1c-11.3,9.6-22.6,19.1-33.9,28.6c-0.9,0.8,0.2,1.6,2.5,1.9
				c2.3,0.3,5-0.2,5.9-0.9c11.3-9.5,22.6-19.1,34-28.7C273.3,95,272.1,94.1,269.7,93.9z M314.4,56.2c-2.4-0.2-5.2,0.2-6.1,1
				c-11.6,9.8-23.1,19.5-34.5,29.2c-1,0.8,0.2,1.7,2.6,1.9c2.4,0.3,5.1-0.2,6-1c11.5-9.7,23.1-19.4,34.7-29.2
				C318,57.3,316.8,56.5,314.4,56.2z M274.7,89.7c-2.4-0.3-5.1,0.2-6,1c-0.9,0.8,0.2,1.7,2.6,1.9c2.4,0.3,5.1-0.2,6-1
				C278.3,90.8,277.1,89.9,274.7,89.7z M321,50.6c2.4,0.2,5.2-0.2,6.2-1.1c1-0.8-0.2-1.7-2.7-1.9c-2.4-0.2-5.2,0.2-6.2,1.1
				C317.4,49.5,318.6,50.4,321,50.6z M331,54.7c1-0.8-0.2-1.7-2.7-1.9c-2.4-0.2-5.2,0.2-6.2,1c-1,0.8,0.2,1.7,2.7,1.9
				C327.2,56,330,55.6,331,54.7z M225.9,130.8c-2.3-0.3-5,0.1-5.9,0.9c-0.9,0.8,0.2,1.6,2.5,1.9c2.3,0.3,5-0.1,5.9-0.9
				C229.3,131.9,228.2,131.1,225.9,130.8z M242.6,128c-2.3-0.3-5,0.2-5.9,0.9c-0.9,0.8,0.2,1.6,2.5,1.9c2.3,0.3,5-0.1,5.9-0.9
				C246.1,129.2,244.9,128.3,242.6,128z"/>
		</g>
	</g>
</g>
<g id="Layer_2">
	<path class="st10" d="M235,177.3c0-0.6,0-0.9,0.1-1.5c9.6,1.2,14.4,1.7,23.9,2.9c0.1-1.4,0.1-2,0.1-3.4c-9.6-1.2-14.4-1.7-23.9-2.9
		c0-0.6,0-0.9,0.1-1.5c9.6,1.2,14.4,1.7,23.9,2.9c0-1.4,0.1-2,0.2-3.4c-9.6-1.2-14.4-1.8-23.9-2.9c0.1-0.6,0.1-0.9,0.2-1.5
		c9.6,1.2,14.4,1.8,23.9,2.9c0.2-1.3,0.3-2,0.5-3.3c-9.6-1.2-14.3-1.8-23.9-2.9c0.1-0.6,0.2-0.9,0.3-1.5c9.6,1.2,14.3,1.8,23.9,2.9
		c0.3-1.3,0.5-1.9,0.9-3.2c-9.6-1.2-14.3-1.8-23.9-2.9c0.2-0.6,0.3-0.9,0.5-1.4c9.6,1.2,14.3,1.8,23.9,2.9c0.4-1.3,0.7-1.9,1.2-3.1
		c-9.5-1.2-14.3-1.8-23.9-3c0.2-0.6,0.4-0.8,0.6-1.4c9.5,1.2,14.3,1.8,23.9,3c0.6-1.2,0.9-1.8,1.5-3c-9.5-1.2-14.3-1.8-23.9-3
		c0.3-0.5,0.4-0.8,0.8-1.3c9.5,1.2,14.3,1.8,23.9,3c0.7-1.1,1-1.7,1.8-2.8c-9.5-1.2-14.3-1.8-23.9-3c0.3-0.5,0.5-0.7,0.9-1.2
		c9.5,1.2,14.3,1.8,23.9,3c0.4-0.5,0.6-0.8,1-1.3c-82.7-10.3-165.5-20.7-248.2-31c-0.4,0.5-0.6,0.8-1,1.3c9.8,1.2,14.7,1.8,24.4,3.1
		c-0.4,0.5-0.5,0.8-0.9,1.3c-9.8-1.2-14.7-1.8-24.5-3c-0.8,1.1-1.1,1.7-1.9,2.9c9.8,1.2,14.7,1.8,24.5,3c-0.3,0.5-0.5,0.8-0.8,1.3
		c-9.8-1.2-14.7-1.8-24.5-3c-0.7,1.2-1,1.8-1.6,3c9.8,1.2,14.7,1.8,24.5,3c-0.3,0.6-0.4,0.8-0.6,1.4c-9.8-1.2-14.7-1.8-24.5-3
		c-0.6,1.3-0.8,1.9-1.3,3.2c9.8,1.2,14.7,1.8,24.5,3c-0.2,0.6-0.3,0.9-0.5,1.5c-9.8-1.2-14.7-1.8-24.5-3c0,0-0.5,1.5-0.8,2.4
		c-0.1,0.5-0.2,0.8-0.2,0.8c9.8,1.2,14.7,1.8,24.5,3c-0.2,0.6-0.2,0.9-0.4,1.5c-9.8-1.2-14.7-1.8-24.5-3c-0.3,1.3-0.5,2-0.7,3.4
		c9.8,1.2,14.7,1.8,24.5,3c-0.1,0.6-0.1,0.9-0.2,1.5c-9.8-1.2-14.7-1.8-24.5-3c-0.2,1.4-0.3,2.1-0.4,3.5c9.8,1.2,14.7,1.8,24.5,3
		c0,0.6-0.1,0.9-0.1,1.6c-9.8-1.2-14.7-1.8-24.5-3c-0.1,1.4,0,2.1-0.1,3.5c9.8,1.2,14.7,1.8,24.5,3c0,0.6,0,1,0,1.6
		c-9.8-1.2-14.7-1.8-24.5-3c0,1.7-0.1,2.6-0.1,4.3c82.7,9.9,165.4,19.9,248,29.8c0.6,0.1,1,0.1,1,0.1c0.1-1.6,0.1-2.5,0.2-4.1
		C249.4,179,244.6,178.4,235,177.3z M254.4,174.8c0,0.6,0,0.9-0.1,1.5c-15.3-1.9-30.6-3.7-45.9-5.6c0-0.6,0-0.9,0.1-1.5
		C223.8,171.1,239.1,173,254.4,174.8z M60.1,152.8c0-0.6,0-0.9,0-1.6c15.6,1.9,31.1,3.8,46.7,5.7c0,0.6,0,0.9-0.1,1.6
		C91.2,156.6,75.7,154.7,60.1,152.8z M82,156.4c0,0.6,0,0.9,0,1.6c-15.6-1.9-31.2-3.8-46.8-5.7c0-0.6,0-1,0-1.6
		C50.8,152.6,66.4,154.5,82,156.4z M205.6,165.5c-15.4-1.9-30.8-3.7-46.2-5.6c0-0.6,0.1-0.9,0.1-1.5c15.4,1.9,30.8,3.8,46.2,5.6
		C205.7,164.6,205.7,164.9,205.6,165.5z M230.1,169.3c0,0.6,0,0.9-0.1,1.5c-15.4-1.9-30.7-3.7-46.1-5.6c0-0.6,0-0.9,0.1-1.5
		C199.4,165.6,214.7,167.5,230.1,169.3z M110.1,153.8c0.1-0.6,0.1-0.9,0.2-1.5c15.5,1.9,30.9,3.8,46.4,5.7c-0.1,0.6-0.1,0.9-0.1,1.5
		C141,157.6,125.5,155.7,110.1,153.8z M131.7,157.4c0,0.6,0,0.9-0.1,1.5c-15.5-1.9-31.1-3.8-46.6-5.7c0-0.6,0-0.9,0.1-1.6
		C100.7,153.6,116.2,155.5,131.7,157.4z M161.8,140.7c-15.4-1.9-30.9-3.8-46.3-5.7c0.3-0.5,0.4-0.8,0.7-1.3
		c15.4,1.9,30.9,3.8,46.3,5.7C162.2,139.9,162.1,140.2,161.8,140.7z M186,144.6c-0.3,0.5-0.4,0.8-0.6,1.4
		c-15.4-1.9-30.8-3.8-46.2-5.7c0.3-0.6,0.4-0.8,0.7-1.4C155.2,140.7,170.6,142.6,186,144.6z M136.8,138.5c-0.3,0.5-0.4,0.8-0.7,1.4
		c-15.5-1.9-31-3.8-46.4-5.7c0.3-0.6,0.4-0.8,0.7-1.4C105.8,134.6,121.3,136.5,136.8,138.5z M114.1,138c15.4,1.9,30.9,3.8,46.3,5.7
		c-0.2,0.6-0.4,0.8-0.6,1.4c-15.4-1.9-30.9-3.8-46.3-5.7C113.7,138.9,113.8,138.6,114.1,138z M184,149c-0.2,0.6-0.3,0.9-0.5,1.4
		c-15.4-1.9-30.8-3.8-46.2-5.7c0.2-0.6,0.3-0.9,0.5-1.4C153.2,145.2,168.6,147.1,184,149z M134.9,143c-0.2,0.6-0.3,0.9-0.5,1.4
		c-15.5-1.9-31-3.8-46.5-5.7c0.2-0.6,0.3-0.9,0.5-1.4C103.9,139.1,119.4,141.1,134.9,143z M112.3,142.6c15.4,1.9,30.9,3.8,46.3,5.7
		c-0.2,0.6-0.3,0.9-0.4,1.5c-15.5-1.9-30.9-3.8-46.4-5.7C112,143.5,112.1,143.2,112.3,142.6z M182.6,153.7c-0.2,0.6-0.2,0.9-0.4,1.5
		c-15.4-1.9-30.8-3.8-46.2-5.7c0.1-0.6,0.2-0.9,0.4-1.5C151.7,149.9,167.2,151.8,182.6,153.7z M133.4,147.6
		c-0.2,0.6-0.2,0.9-0.4,1.5c-15.5-1.9-31-3.8-46.5-5.7c0.1-0.6,0.2-0.9,0.4-1.5C102.4,143.8,117.9,145.7,133.4,147.6z M111,147.4
		c15.5,1.9,30.9,3.8,46.4,5.7c-0.1,0.6-0.2,0.9-0.3,1.5c-15.5-1.9-30.9-3.8-46.4-5.7C110.8,148.3,110.9,148,111,147.4z M181.6,158.5
		c-0.1,0.6-0.1,0.9-0.2,1.5c-15.4-1.9-30.9-3.8-46.3-5.7c0.1-0.6,0.1-0.9,0.2-1.5C150.7,154.7,166.1,156.6,181.6,158.5z
		 M132.3,152.5c-0.1,0.6-0.1,0.9-0.2,1.5c-15.5-1.9-31-3.8-46.5-5.7c0.1-0.6,0.1-0.9,0.2-1.5C101.3,148.7,116.8,150.6,132.3,152.5z
		 M134.7,157.7c15.4,1.9,30.9,3.8,46.3,5.6c0,0.6,0,0.9-0.1,1.5c-15.4-1.9-30.9-3.8-46.3-5.6C134.7,158.7,134.7,158.4,134.7,157.7z
		 M184.3,160.4c0.1-0.6,0.1-0.9,0.2-1.5c15.3,1.9,30.7,3.8,46,5.6c-0.1,0.6-0.1,0.9-0.2,1.5C215,164.1,199.7,162.2,184.3,160.4z
		 M206.2,160.6c-15.4-1.9-30.8-3.8-46.1-5.6c0.1-0.6,0.2-0.9,0.3-1.5c15.4,1.9,30.8,3.8,46.1,5.7C206.4,159.7,206.3,160,206.2,160.6
		z M185.2,155.5c0.1-0.6,0.2-0.9,0.4-1.5c15.3,1.9,30.7,3.8,46,5.6c-0.1,0.6-0.2,0.9-0.4,1.5C215.8,159.3,200.5,157.4,185.2,155.5z
		 M207.3,155.8c-15.4-1.9-30.7-3.8-46.1-5.7c0.2-0.6,0.3-0.9,0.4-1.5c15.4,1.9,30.7,3.8,46.1,5.7C207.6,155,207.5,155.3,207.3,155.8
		z M186.5,150.8c0.2-0.6,0.3-0.9,0.5-1.4c15.3,1.9,30.6,3.8,46,5.7c-0.2,0.6-0.3,0.9-0.5,1.4C217.1,154.6,201.8,152.7,186.5,150.8z
		 M208.8,151.2c-15.4-1.9-30.7-3.8-46.1-5.7c0.2-0.6,0.3-0.8,0.6-1.4c15.4,1.9,30.7,3.8,46.1,5.7
		C209.2,150.4,209.1,150.7,208.8,151.2z M188.3,146.3c0.2-0.6,0.4-0.8,0.6-1.4c15.3,1.9,30.6,3.8,45.9,5.7c-0.3,0.5-0.4,0.8-0.6,1.4
		C218.9,150.1,203.6,148.2,188.3,146.3z M210.8,146.8c-15.4-1.9-30.7-3.8-46.1-5.7c0.3-0.5,0.4-0.8,0.7-1.3
		c15.3,1.9,30.7,3.8,46,5.7C211.3,146,211.1,146.3,210.8,146.8z M190.5,142c0.3-0.5,0.5-0.8,0.8-1.3c15.3,1.9,30.6,3.8,45.9,5.7
		c-0.3,0.5-0.5,0.8-0.8,1.3C221.1,145.8,205.8,143.9,190.5,142z M213.3,142.6c-15.3-1.9-30.7-3.8-46-5.7c0.3-0.5,0.5-0.8,0.8-1.3
		c15.3,1.9,30.7,3.8,46,5.7C213.8,141.8,213.6,142.1,213.3,142.6z M188.3,140.3c-0.3,0.5-0.5,0.8-0.8,1.3
		c-15.4-1.9-30.8-3.8-46.2-5.7c0.3-0.5,0.5-0.8,0.8-1.3C157.5,136.5,172.9,138.4,188.3,140.3z M164.3,136.5
		c-15.4-1.9-30.9-3.8-46.3-5.8c0.3-0.5,0.5-0.8,0.8-1.3c15.4,1.9,30.9,3.8,46.3,5.8C164.8,135.7,164.6,136,164.3,136.5z
		 M139.2,134.2c-0.3,0.5-0.5,0.8-0.8,1.3c-15.5-1.9-30.9-3.8-46.4-5.8c0.3-0.5,0.5-0.8,0.8-1.3C108.2,130.3,123.7,132.3,139.2,134.2
		z M115,130.4c-15.5-1.9-31-3.9-46.5-5.8c0.3-0.5,0.5-0.8,0.9-1.3c15.5,1.9,31,3.9,46.5,5.8C115.5,129.6,115.3,129.8,115,130.4z
		 M89.8,128c-0.3,0.5-0.5,0.8-0.8,1.3c-15.6-1.9-31.1-3.9-46.7-5.8c0.3-0.5,0.5-0.8,0.8-1.3C58.7,124.2,74.2,126.1,89.8,128z
		 M66.7,127.5c15.5,1.9,31,3.9,46.5,5.8c-0.3,0.5-0.4,0.8-0.7,1.3c-15.5-1.9-31-3.8-46.6-5.8C66.3,128.3,66.4,128,66.7,127.5z
		 M87.4,132.3c-0.3,0.6-0.4,0.8-0.7,1.4c-15.6-1.9-31.1-3.9-46.7-5.8c0.3-0.6,0.4-0.8,0.7-1.4C56.3,128.5,71.8,130.4,87.4,132.3z
		 M64.5,131.9c15.5,1.9,31,3.8,46.6,5.8c-0.2,0.6-0.4,0.8-0.6,1.4c-15.5-1.9-31.1-3.8-46.6-5.7C64.1,132.8,64.3,132.5,64.5,131.9z
		 M85.4,136.9c-0.2,0.6-0.3,0.9-0.5,1.4c-15.6-1.9-31.1-3.8-46.7-5.8c0.2-0.6,0.3-0.9,0.5-1.4C54.3,133,69.8,134.9,85.4,136.9z
		 M62.7,136.5c15.5,1.9,31.1,3.8,46.6,5.7c-0.2,0.6-0.3,0.9-0.4,1.5c-15.5-1.9-31.1-3.8-46.6-5.7C62.5,137.4,62.6,137.1,62.7,136.5z
		 M83.9,141.6c-0.2,0.6-0.2,0.9-0.4,1.5c-15.6-1.9-31.2-3.8-46.7-5.7c0.1-0.6,0.2-0.9,0.4-1.5C52.7,137.7,68.3,139.6,83.9,141.6z
		 M61.4,141.3c15.5,1.9,31.1,3.8,46.6,5.7c-0.1,0.6-0.2,0.9-0.3,1.5c-15.5-1.9-31.1-3.8-46.6-5.7C61.2,142.2,61.3,141.9,61.4,141.3z
		 M82.8,146.4c-0.1,0.6-0.2,0.9-0.2,1.5c-15.6-1.9-31.2-3.8-46.8-5.7c0.1-0.6,0.1-0.9,0.3-1.5C51.6,142.6,67.2,144.5,82.8,146.4z
		 M60.6,146.2c15.6,1.9,31.1,3.8,46.7,5.7c-0.1,0.6-0.1,0.9-0.2,1.5c-15.6-1.9-31.1-3.8-46.7-5.7C60.4,147.2,60.5,146.8,60.6,146.2z
		 M82.2,151.3c0,0.6-0.1,0.9-0.1,1.6c-15.6-1.9-31.2-3.8-46.8-5.7c0-0.6,0.1-0.9,0.1-1.6C51,147.5,66.6,149.4,82.2,151.3z M85,156.7
		c15.5,1.9,31,3.8,46.6,5.6c0,0.6,0,0.9,0,1.6c-15.5-1.9-31-3.8-46.6-5.6C84.9,157.7,85,157.4,85,156.7z M109.8,158.8
		c0-0.6,0-0.9,0.1-1.6c15.5,1.9,31,3.8,46.5,5.6c0,0.6,0,0.9-0.1,1.6C140.8,162.6,125.3,160.7,109.8,158.8z M134.5,162.7
		c15.4,1.9,30.9,3.7,46.3,5.6c0,0.6,0,0.9-0.1,1.6c-15.4-1.9-30.9-3.7-46.3-5.6C134.5,163.7,134.5,163.4,134.5,162.7z M159.2,164.8
		c0-0.6,0-0.9,0.1-1.6c15.4,1.9,30.8,3.7,46.2,5.6c0,0.6,0,0.9-0.1,1.5C190,168.6,174.6,166.7,159.2,164.8z M183.8,168.7
		c15.4,1.9,30.7,3.7,46.1,5.6c0,0.6,0,0.9-0.1,1.5c-15.4-1.9-30.7-3.7-46.1-5.6C183.8,169.6,183.8,169.3,183.8,168.7z M254.7,169.9
		c-0.1,0.6-0.1,0.9-0.1,1.5c-15.3-1.9-30.6-3.7-45.9-5.6c0-0.6,0.1-0.9,0.1-1.5C224,166.2,239.3,168,254.7,169.9z M255.4,165.1
		c-0.1,0.6-0.2,0.9-0.3,1.5c-15.3-1.9-30.6-3.7-45.9-5.6c0.1-0.6,0.2-0.9,0.3-1.5C224.8,161.3,240.1,163.2,255.4,165.1z
		 M256.5,160.4c-0.2,0.6-0.3,0.9-0.4,1.4c-15.3-1.9-30.6-3.8-45.9-5.6c0.2-0.6,0.2-0.9,0.4-1.5C226,156.6,241.3,158.5,256.5,160.4z
		 M258.2,155.9c-0.2,0.6-0.3,0.8-0.6,1.4c-15.3-1.9-30.6-3.8-45.8-5.7c0.2-0.6,0.3-0.8,0.6-1.4C227.6,152.1,242.9,154,258.2,155.9z
		 M260.3,151.5c-0.3,0.5-0.4,0.8-0.7,1.3c-15.3-1.9-30.5-3.8-45.8-5.7c0.3-0.5,0.4-0.8,0.7-1.3C229.8,147.7,245,149.6,260.3,151.5z
		 M262.8,147.4c-0.3,0.5-0.5,0.7-0.8,1.3c-15.3-1.9-30.5-3.8-45.8-5.7c0.3-0.5,0.5-0.8,0.8-1.3C232.3,143.6,247.6,145.5,262.8,147.4
		z M194.1,136.6c15.3,1.9,30.6,3.8,45.9,5.7c-0.4,0.5-0.6,0.7-0.9,1.2c-15.3-1.9-30.6-3.8-45.9-5.7
		C193.5,137.4,193.7,137.1,194.1,136.6z M144.9,130.5c15.4,1.9,30.8,3.8,46.2,5.8c-0.4,0.5-0.6,0.7-0.9,1.2
		c-15.4-1.9-30.8-3.8-46.2-5.8C144.4,131.2,144.6,131,144.9,130.5z M95.6,124.3c15.5,1.9,30.9,3.9,46.4,5.8
		c-0.4,0.5-0.6,0.7-0.9,1.2c-15.5-1.9-30.9-3.9-46.4-5.8C95,125.1,95.2,124.8,95.6,124.3z M45.9,118.1c15.6,1.9,31.1,3.9,46.7,5.8
		c-0.4,0.5-0.6,0.7-0.9,1.2c-15.6-1.9-31.1-3.9-46.7-5.8C45.4,118.9,45.5,118.6,45.9,118.1z M18.7,118.4c0.3-0.5,0.5-0.8,0.9-1.3
		c15.6,1.9,31.2,3.9,46.8,5.8c-0.3,0.5-0.5,0.8-0.9,1.3C49.8,122.3,34.3,120.3,18.7,118.4z M16.2,122.7c0.3-0.5,0.4-0.8,0.7-1.4
		c15.6,1.9,31.2,3.9,46.8,5.8c-0.3,0.5-0.4,0.8-0.7,1.4C47.4,126.5,31.8,124.6,16.2,122.7z M14.1,127.2c0.2-0.6,0.4-0.9,0.6-1.4
		c15.6,1.9,31.2,3.9,46.8,5.8c-0.2,0.6-0.4,0.8-0.6,1.4C45.3,131,29.7,129.1,14.1,127.2z M21.7,131.5c12.7,1.6,25.3,3.1,38,4.7
		c-0.2,0.6-0.3,0.9-0.5,1.5c-15.6-1.9-31.2-3.8-46.9-5.8c0.2-0.6,0.3-0.9,0.5-1.5C16.4,130.8,18.2,131.1,21.7,131.5 M11.2,136.7
		c0.1-0.6,0.2-0.9,0.3-1.5c15.6,1.9,31.3,3.8,46.9,5.7c-0.1,0.6-0.2,0.9-0.3,1.5C42.5,140.6,26.8,138.6,11.2,136.7z M10.4,141.7
		c0.1-0.6,0.1-0.9,0.2-1.6c15.6,1.9,31.3,3.8,46.9,5.7c-0.1,0.6-0.1,0.9-0.2,1.5C41.7,145.5,26.1,143.6,10.4,141.7z M10.1,146.8
		c0-0.6,0-1,0-1.6c15.7,1.9,31.3,3.8,47,5.7c0,0.6,0,0.9,0,1.6C41.4,150.5,25.8,148.7,10.1,146.8z M57,157.5
		c-15.6-1.9-31.3-3.8-46.9-5.7c0-0.6,0-1,0-1.6c15.6,1.9,31.3,3.8,46.9,5.7C57,156.6,57,156.9,57,157.5z M106.7,163.5
		c-15.6-1.9-31.1-3.8-46.7-5.6c0-0.6,0-0.9,0-1.6c15.6,1.9,31.1,3.8,46.7,5.6C106.7,162.6,106.7,162.9,106.7,163.5z M156.1,169.5
		c-15.5-1.9-31-3.7-46.4-5.6c0-0.6,0-0.9,0.1-1.6c15.5,1.9,31,3.7,46.4,5.6C156.1,168.5,156.1,168.8,156.1,169.5z M205.2,175.4
		c-15.4-1.9-30.8-3.7-46.2-5.6c0-0.6,0-0.9,0.1-1.6c15.4,1.9,30.8,3.7,46.2,5.6C205.3,174.5,205.3,174.8,205.2,175.4z M254.1,181.3
		c-15.3-1.8-30.6-3.7-45.9-5.5c0-0.6,0-0.9,0.1-1.5c15.3,1.8,30.6,3.7,45.9,5.5C254.2,180.4,254.1,180.7,254.1,181.3z"/>
	<polygon class="st10" points="9.8,153.9 9.3,259.4 258.4,290.7 258.8,183.6 	"/>
	
		<ellipse transform="matrix(0.5933 -0.805 0.805 0.5933 -84.4815 294.0176)" class="st11" cx="248.7" cy="230.6" rx="7.8" ry="8.2"/>
	<ellipse transform="matrix(0.5933 -0.805 0.805 0.5933 -85.376 293.4577)" class="st12" cx="247.7" cy="231.2" rx="3" ry="3.2"/>
	<path class="st13" d="M158.7,255.9c1.1,3.9,5.3,5.9,9.3,4.6s6.3-5.7,5.2-9.5c-1.1-3.9-5.3-5.9-9.3-4.6
		C159.9,247.7,157.6,252,158.7,255.9z"/>
	<path class="st13" d="M92.1,247c1.1,3.9,5.3,5.9,9.3,4.6s6.3-5.7,5.2-9.5c-1.1-3.9-5.3-5.9-9.3-4.6S91,243.1,92.1,247z"/>
	<path class="st14" d="M175.3,257.3c-0.1,0-0.1,0.1-0.2,0.1c-1,0.2-2.2,0.5-3.2,0.8c-0.5,0.3-1.1,0.7-1.5,1
		c-2.6,1.7-4.6,2.2-7.6,1.2c-4,0.9-7.1,1.7-7.1,1.7h-17.6l-17.3-4.4c0,0-7.1-3.4-16.3-7.9l1.6-1.1l0,0c2.7-1.9,4.1-5.3,3.2-8.4
		c-2-1.1-7.9-4.4-8.7-4.8c-0.2,0.1-0.4,0.1-0.6,0.2c-0.6,0.2-1.1,0.5-1.6,0.8l0,0l-1.6,1.1c0.3-0.7,0.6-1.4,1-2
		c1.2-0.4,2.4-0.4,3.5,0.3l15.4,8.5l16.8,4.1H152l14.1-4.1C174.7,242.8,178,252,175.3,257.3z"/>
	<path class="st13" d="M245.1,216.6c0-6.1,0-10.5,0-10.5l8.5,1.1v10.4L245.1,216.6z M245.1,241.7c0,6.6,0,11.4,0.1,11.4
		c0.2-0.1,8.5,0.8,8.5,0.8v-11.2L245.1,241.7z"/>
	<ellipse transform="matrix(0.5933 -0.805 0.805 0.5933 -154.4987 97.6163)" class="st15" cx="19.4" cy="201.7" rx="7.8" ry="8.2"/>
	<path class="st16" d="M83.1,219.4c1,1.1,2.1,2,3.3,2.9c10.6,7.8,25.1,6,32.5-4c7.4-10,4.7-24.4-5.8-32.2s-25.1-6-32.5,4"/>
	<ellipse transform="matrix(0.5933 -0.805 0.805 0.5933 -155.6427 96.5624)" class="st12" cx="17.7" cy="202.3" rx="3" ry="3.2"/>
	<path class="st13" d="M15.1,187.7c0-6.1,0-10.5,0-10.5l8.5,1.1v10.4L15.1,187.7z M15.1,212.8c0,6.6,0,11.4,0.1,11.4
		c0.2-0.1,8.5,0.8,8.5,0.8v-11.2L15.1,212.8z"/>
	<polygon class="st10" points="41.8,99.2 37.3,102.7 37.1,105.2 47.4,106 51.4,103 51.6,99.9 	"/>
	<path class="st10" d="M37.3,102.7c0.3,0.1,10.4,0.8,10.4,0.8l4-3.6"/>
	<line class="st10" x1="47.4" y1="106" x2="47.6" y2="103.5"/>
	<line class="st10" x1="47.4" y1="106" x2="32.1" y2="104.8"/>
	<line class="st10" x1="36.3" y1="101.6" x2="38.5" y2="101.7"/>
	<polygon class="st10" points="52.9,90.7 48.4,94.2 48.2,96.7 58.5,97.5 62.4,94.5 62.7,91.4 	"/>
	<path class="st10" d="M48.4,94.2c0.3,0.1,10.4,0.8,10.4,0.8l4-3.6"/>
	<line class="st10" x1="58.5" y1="97.5" x2="58.7" y2="95"/>
	<line class="st10" x1="43.2" y1="96.3" x2="58.5" y2="97.5"/>
	<polygon class="st10" points="64,82.2 59.4,85.7 59.2,88.2 69.6,89 73.5,86 73.8,82.9 	"/>
	<path class="st10" d="M59.4,85.7c0.3,0.1,10.4,0.8,10.4,0.8l4-3.6"/>
	<line class="st10" x1="69.6" y1="89" x2="69.8" y2="86.5"/>
	<line class="st10" x1="54.3" y1="87.9" x2="69.6" y2="89"/>
	<polygon class="st10" points="75.1,73.7 70.5,77.2 70.3,79.7 80.7,80.5 84.6,77.5 84.8,74.4 	"/>
	<path class="st10" d="M70.5,77.2c0.3,0.1,10.4,0.8,10.4,0.8l4-3.6"/>
	<line class="st10" x1="80.7" y1="80.5" x2="80.9" y2="78"/>
	<line class="st10" x1="65.4" y1="79.4" x2="80.7" y2="80.5"/>
	<polygon class="st10" points="86.2,65.2 81.6,68.7 81.4,71.2 91.8,72 95.7,69 95.9,65.9 	"/>
	<path class="st10" d="M81.6,68.7c0.3,0.1,10.4,0.8,10.4,0.8l4-3.6"/>
	<line class="st10" x1="91.8" y1="72" x2="92" y2="69.5"/>
	<line class="st10" x1="76.4" y1="70.9" x2="91.8" y2="72"/>
	<polygon class="st10" points="97.3,56.7 92.7,60.2 92.5,62.8 102.9,63.5 106.8,60.5 107,57.5 	"/>
	<path class="st10" d="M92.7,60.2c0.3,0.1,10.4,0.8,10.4,0.8l4-3.6"/>
	<line class="st10" x1="102.9" y1="63.5" x2="103.1" y2="61"/>
	<line class="st10" x1="87.5" y1="62.4" x2="102.9" y2="63.5"/>
	<polygon class="st10" points="108.3,48.2 103.8,51.7 103.6,54.3 113.9,55.1 117.9,52.1 118.1,49 	"/>
	<path class="st10" d="M103.8,51.7c0.3,0.1,10.4,0.8,10.4,0.8l4-3.6"/>
	<line class="st10" x1="113.9" y1="55.1" x2="114.1" y2="52.5"/>
	<line class="st10" x1="98.6" y1="53.9" x2="113.9" y2="55.1"/>
	<polygon class="st10" points="119.4,39.7 114.9,43.2 114.7,45.8 125,46.6 129,43.6 129.2,40.5 	"/>
	<path class="st10" d="M114.9,43.2c0.3,0.1,10.4,0.8,10.4,0.8l4-3.6"/>
	<line class="st10" x1="125" y1="46.6" x2="125.2" y2="44"/>
	<line class="st10" x1="109.7" y1="45.4" x2="125" y2="46.6"/>
	<polygon class="st10" points="131.5,31.3 126,34.7 125.8,37.3 135,38.5 138.9,35.5 139.2,32.5 	"/>
	<path class="st10" d="M126,34.7c0.3,0.1,9.3,1.3,9.3,1.3l4-3.6"/>
	<line class="st10" x1="135" y1="38.5" x2="135.2" y2="36"/>
	<line class="st10" x1="120.8" y1="36.9" x2="135" y2="38.5"/>
	<path class="st10" d="M311.7,116.7l-5.2,4.6v-8.8l5.2-4.6V116.7z M332.1,89.8l-4.6,4.1v8.7l4.6-4.2V89.8z M322.5,98.3l-5.8,5.1v8.8
		l5.8-5.2V98.3z M286.4,139.3l4.6-4.2v-8.9l-4.6,4.1V139.3z M301.5,116.9l-5.5,4.9v8.9l5.5-4.9V116.9z M387.5,50.4l-3.2-3.8
		l-5.3,1.5l-10.8,9.6v8.4l11.5-10.3h4.5l3.9,6.5V71v104.8l3.1-2.5V65v-7.6L387.5,50.4z M343.1,80.1l-5.9,5.3V94l5.9-5.3V80.1z
		 M363.2,62.2l-4.6,4.1v8.5l4.6-4.2V62.2z M353.5,70.8l-5.5,4.9v8.6l5.5-4.9V70.8z"/>
	<path class="st10" d="M281.7,134.8L269.1,146L21,114.6l11.1-9.8l3.9,0.3l0.3-3.5l6.9-5.3l3.8,0.3l0.3-3.4l7-5.4l3.8,0.3l0.3-3.4
		l7.1-5.4l3.7,0.3l0.3-3.3l7.1-5.5l3.6,0.3l0.2-3.2l7.2-5.5l3.6,0.3l0.2-3.2l7.3-5.6l3.5,0.3l0.2-3.1l7.4-5.6l3.4,0.3l0.2-3.1
		l7.4-5.7l3.4,0.3l0.2-3l11.1-6.8L379,48.2L367.9,58h-6v4.2h1.2l-4.8,4.3h-5.9v4.2h1.2l-5.7,5.1h-6v4.2h1.2l-6.1,5.4h-6v4.2h1.3
		l-4.8,4.3h-6.1v4.2h1.3l-6,5.3h-6.1v4.2h1.3l-5.4,4.8h-6.1v4.2h1.3l-5.6,5h-6.1v4.2h1.4l-4.8,4.3h-6.2v4.2H281.7z"/>
	<polyline class="st10" points="280.9,134.8 266.4,134.8 266.4,131.5 271.5,127.6 280.3,127.8 280.3,134 	"/>
	<polyline class="st10" points="266.4,131.5 275.9,131.5 280.1,127.9 	"/>
	<line class="st10" x1="275.9" y1="131.5" x2="275.9" y2="134.8"/>
	<polyline class="st10" points="290.5,126.2 276.1,126.2 276.1,123 281.1,119 289.9,119.2 289.9,125.4 	"/>
	<polyline class="st10" points="276.1,123 285.5,123 289.7,119.4 	"/>
	<line class="st10" x1="285.5" y1="123" x2="285.5" y2="126.2"/>
	<polyline class="st10" points="301,117 286.5,117 286.5,113.7 291.6,109.8 300.4,109.9 300.4,116.1 	"/>
	<polyline class="st10" points="286.5,113.7 296,113.7 300.2,110.1 	"/>
	<line class="st10" x1="296" y1="113.7" x2="296" y2="117"/>
	<polyline class="st10" points="311.2,107.9 296.7,107.9 296.7,104.6 301.7,100.7 310.6,100.9 310.6,107.1 	"/>
	<polyline class="st10" points="296.7,104.6 306.2,104.6 310.4,101 	"/>
	<line class="st10" x1="306.2" y1="104.6" x2="306.2" y2="107.9"/>
	<polyline class="st10" points="321.9,98.3 307.5,98.3 307.5,95.1 312.5,91.1 321.3,91.3 321.4,97.5 	"/>
	<polyline class="st10" points="307.5,95.1 317,95.1 321.1,91.5 	"/>
	<line class="st10" x1="317" y1="95.1" x2="317" y2="98.3"/>
	<polyline class="st10" points="331.6,89.8 317.1,89.8 317.1,86.5 322.2,82.6 331,82.7 331,88.9 	"/>
	<polyline class="st10" points="317.1,86.5 326.6,86.5 330.8,82.9 	"/>
	<line class="st10" x1="326.6" y1="86.5" x2="326.6" y2="89.8"/>
	<polyline class="st10" points="342.5,80.1 328,80.1 328,76.9 333.1,72.9 341.9,73.1 341.9,79.3 	"/>
	<polyline class="st10" points="328,76.9 337.5,76.9 341.7,73.2 	"/>
	<line class="st10" x1="337.5" y1="76.9" x2="337.5" y2="80.1"/>
	<polyline class="st10" points="353,70.8 338.6,70.8 338.6,67.6 343.6,63.6 352.4,63.8 352.4,70 	"/>
	<polyline class="st10" points="338.6,67.6 348,67.6 352.2,63.9 	"/>
	<line class="st10" x1="348" y1="67.6" x2="348" y2="70.8"/>
	<polyline class="st10" points="362.5,62.3 348,62.3 348,59 353.1,55.1 361.9,55.2 361.9,61.4 	"/>
	<polyline class="st10" points="348,59 357.5,59 361.7,55.4 	"/>
	<line class="st10" x1="357.5" y1="59" x2="357.5" y2="62.3"/>
	<line class="st10" x1="189.4" y1="283.7" x2="189.4" y2="282"/>
	<line class="st10" x1="108.2" y1="274.1" x2="108.2" y2="271.8"/>
	<line class="st10" x1="146" y1="281.6" x2="146" y2="276.6"/>
	<path class="st10" d="M169.3,282.9c-3.6,0.9-8.1,1.4-12.9,1.4c-4.8,0-9.3-0.5-12.9-1.4"/>
	
		<ellipse transform="matrix(0.135 -0.9908 0.9908 0.135 101.1077 536.8806)" class="st14" cx="358" cy="210.5" rx="41.7" ry="13.8"/>
	<g>
		<path class="st17" d="M355.5,176.4c3,7.8,3.7,21.5,1.8,35.8c-1.8,13.1-5.6,25.3-10.1,32.4c-3-7.8-3.7-21.5-1.8-35.8
			C347.1,195.7,351,183.5,355.5,176.4 M355.7,174.4c-4.9,6.7-9.3,19.4-11.3,34.3c-2.2,16.2-1,30.7,2.6,38
			c4.9-6.7,9.3-19.4,11.3-34.3C360.5,196.2,359.3,181.7,355.7,174.4L355.7,174.4z"/>
	</g>
	
		<ellipse transform="matrix(0.135 -0.9908 0.9908 0.135 100.6058 536.6429)" class="st18" cx="357.7" cy="210.7" rx="48.3" ry="16"/>
	<ellipse transform="matrix(0.135 -0.9908 0.9908 0.135 49.7093 441.4154)" class="st19" cx="277.7" cy="192.2" rx="3.4" ry="1.1"/>
	<ellipse transform="matrix(0.135 -0.9908 0.9908 0.135 49.6739 456.3188)" class="st19" cx="286.2" cy="199.7" rx="3.4" ry="1.1"/>
	<ellipse transform="matrix(0.135 -0.9908 0.9908 0.135 32.4834 457.998)" class="st19" cx="278.6" cy="210.4" rx="3.4" ry="1.1"/>
	<path class="st20" d="M316.8,144l37.4,2.8c11.6,1.6,19.6,17.3,21.5,38.7"/>
	<path class="st10" d="M291.3,247.3c-0.2-1.4-0.3-2.6-0.3-2.6"/>
	<polyline class="st10" points="150.4,277.1 146,281.6 131.5,280.2 	"/>
	<path class="st21" d="M354,146.8c-12.9-1.6-26.8,25.4-31,60.2s2.9,64.3,15.8,65.8"/>
	<polyline class="st10" points="261.8,278.2 298.1,247.3 288,247.3 	"/>
	<polyline class="st19" points="261.8,217.5 264.7,220.5 264.7,228.2 261.8,231.7 	"/>
	<line class="st19" x1="264.7" y1="220.5" x2="261.8" y2="221.4"/>
	<line class="st19" x1="264.7" y1="228.2" x2="261.7" y2="228.8"/>
	<polyline class="st19" points="261.8,272.6 264.2,270.5 267.2,267.1 266.7,260.5 261.6,259.2 	"/>
	<polyline class="st19" points="261.7,262.8 264,263.4 264.2,270.5 	"/>
	<line class="st19" x1="266.7" y1="260.5" x2="264" y2="263.4"/>
	<polyline class="st22" points="378.7,127.9 379,164.7 384.3,165.5 387.7,162.7 	"/>
	<polyline class="st22" points="378.2,57.2 380.9,62.3 381.7,70.8 388,71 381.7,70.8 381.7,73.8 378.4,76.5 378.7,115 	"/>
	<polyline class="st10" points="381.7,70.8 381.7,73.8 388,74.3 384.2,77.1 378.4,76.5 	"/>
	<line class="st10" x1="384.2" y1="77.1" x2="384.3" y2="165.5"/>
	<polyline class="st22" points="385,178 385,169.5 375.4,178 375.4,183.2 	"/>
	<polyline class="st20" points="371.7,164.8 375.7,164.8 378.7,161.9 	"/>
	<path class="st20" d="M371.7,162.5c0,0,0.9,0.8,2.1,0.5c1.2-0.3,1.4-1.7,1.4-1.7"/>
	<polyline class="st20" points="373.8,173.5 375.7,173.5 378.9,170.6 379,161.7 375.2,161.3 375.2,153.4 371.7,155.4 371.7,162.5 
		370.7,163.3 	"/>
	<line class="st20" x1="385" y1="169.5" x2="379" y2="169.1"/>
	<line class="st20" x1="375.7" y1="164.8" x2="375.7" y2="173.5"/>
	<path class="st20" d="M323.4,138.2c0.3-0.1,3.8,1.2,6,6.7"/>
	<path class="st20" d="M374.2,119.4l-2.6,1.9v8.4l3.2-2.1v3.6l3.4-2.6c0,0,2.6-3.3,2.6-3.3c0,0,0-8.3,0-8.3l-4-3.6l-2.8,2
		L374.2,119.4z"/>
	<path class="st22" d="M374,115.3c0,0,3.6,3.5,3.6,4s0,9.7,0,9.7"/>
	<line class="st22" x1="380.8" y1="117" x2="377.6" y2="119.4"/>
	<path class="st22" d="M373,120.3c0,0,1.9,0.6,1.8,3.1s-1.4,3.5-3.2,2.9"/>
	<polyline class="st23" points="262.7,285.7 298.1,253.9 298.1,247.3 288,247.3 	"/>
	<path class="st24" d="M194.9,128c-0.9,0.8-3.5,1.2-5.8,0.9c-27.4-3.2-54.4-6.4-81.2-9.5c-2.2-0.3-3.3-1.1-2.4-1.9
		c0.9-0.8,3.4-1.2,5.6-0.9c26.9,3.1,54,6.3,81.4,9.5C194.7,126.4,195.8,127.3,194.9,128z M288.4,44.1c-28.8-2.8-57.3-5.6-85.5-8.3
		c-2.3-0.2-5,0.2-5.9,1l0,0c-0.9,0.8,0.2,1.6,2.6,1.9c28.2,2.8,56.6,5.5,85.4,8.3c2.4,0.2,5.1-0.2,6.1-1l0,0
		C292,45.2,290.8,44.4,288.4,44.1z M116.3,112c2.2,0.3,4.8-0.2,5.6-0.9c0.9-0.8-0.2-1.6-2.5-1.9c-2.2-0.3-4.8,0.2-5.6,0.9
		C113,110.9,114.1,111.7,116.3,112z M128.4,101.3c2.2,0.3,4.8-0.2,5.7-0.9c0.9-0.8-0.2-1.6-2.5-1.9c-2.2-0.3-4.8,0.2-5.7,1
		C125.1,100.3,126.2,101.1,128.4,101.3z M140.6,90.6c2.3,0.2,4.8-0.2,5.7-1c0.9-0.8-0.2-1.6-2.5-1.9c-2.3-0.2-4.8,0.2-5.7,1
		C137.3,89.5,138.4,90.4,140.6,90.6z M165.2,69c2.3,0.2,4.9-0.2,5.8-1c0.9-0.8-0.2-1.6-2.5-1.9c-2.3-0.2-4.9,0.2-5.8,1
		C161.8,67.9,162.9,68.8,165.2,69z M177.6,58.1c2.3,0.2,4.9-0.2,5.8-1c0.9-0.8-0.2-1.6-2.5-1.9c-2.3-0.2-4.9,0.2-5.8,1
		C174.1,57,175.3,57.9,177.6,58.1z M190,47.2c2.3,0.2,4.9-0.2,5.9-1c0.9-0.8-0.2-1.6-2.6-1.9c-2.3-0.2-4.9,0.2-5.8,1
		C186.6,46.1,187.7,46.9,190,47.2z M152.9,79.8c2.3,0.2,4.8-0.2,5.7-1c0.9-0.8-0.2-1.6-2.5-1.9c-2.3-0.2-4.8,0.2-5.7,1
		C149.5,78.8,150.6,79.6,152.9,79.8z M156.8,116.7c2.3,0.3,4.8-0.2,5.7-0.9c0.9-0.8-0.2-1.6-2.5-1.9c-2.3-0.3-4.8,0.2-5.7,0.9
		C153.5,115.6,154.6,116.4,156.8,116.7z M169.2,105.9c2.3,0.3,4.9-0.2,5.8-1c0.9-0.8-0.2-1.6-2.5-1.9c-2.3-0.3-4.9,0.2-5.8,1
		C165.8,104.8,166.9,105.7,169.2,105.9z M181.7,95.1c2.3,0.3,4.9-0.2,5.8-1c0.9-0.8-0.2-1.6-2.5-1.9c-2.3-0.3-4.9,0.2-5.8,1
		C178.3,94,179.4,94.9,181.7,95.1z M206.8,73.4c2.3,0.2,5-0.2,5.9-1c0.9-0.8-0.2-1.6-2.6-1.9c-2.3-0.2-5,0.2-5.9,1
		C203.3,72.3,204.5,73.1,206.8,73.4z M219.5,62.4c2.3,0.2,5-0.2,5.9-1c0.9-0.8-0.2-1.6-2.6-1.9c-2.3-0.2-5,0.2-5.9,1
		C216,61.3,217.1,62.2,219.5,62.4z M232.2,51.4c2.4,0.2,5-0.2,6-1c0.9-0.8-0.2-1.6-2.6-1.9c-2.4-0.2-5,0.2-6,1
		C228.7,50.3,229.8,51.1,232.2,51.4z M194.2,84.3c2.3,0.2,4.9-0.2,5.8-1c0.9-0.8-0.2-1.6-2.5-1.9c-2.3-0.2-4.9,0.2-5.8,1
		C190.8,83.2,191.9,84,194.2,84.3z M201.3,118.6c-2.3-0.3-4.9,0.2-5.8,0.9c-0.9,0.8,0.2,1.6,2.5,1.9c2.3,0.3,4.9-0.2,5.8-0.9
		C204.7,119.7,203.6,118.8,201.3,118.6z M213.9,107.7c-2.3-0.3-4.9,0.2-5.9,1c-0.9,0.8,0.2,1.6,2.5,1.9c2.3,0.3,4.9-0.2,5.9-1
		C217.4,108.9,216.3,108,213.9,107.7z M226.7,96.9c-2.3-0.3-5,0.2-5.9,1c-0.9,0.8,0.2,1.6,2.5,1.9c2.3,0.3,5-0.2,5.9-1
		C230.2,98,229,97.1,226.7,96.9z M252.4,74.9c-2.4-0.2-5,0.2-6,1c-0.9,0.8,0.2,1.7,2.6,1.9c2.4,0.2,5-0.2,6-1
		C255.9,76,254.8,75.1,252.4,74.9z M265.4,63.8c-2.4-0.2-5.1,0.2-6,1c-0.9,0.8,0.2,1.7,2.6,1.9c2.4,0.2,5.1-0.2,6-1
		C268.9,64.9,267.8,64.1,265.4,63.8z M278.4,52.7c-2.4-0.2-5.1,0.2-6.1,1c-0.9,0.8,0.2,1.7,2.6,1.9c2.4,0.2,5.1-0.2,6.1-1
		C282,53.8,280.8,52.9,278.4,52.7z M239.5,85.9c-2.3-0.3-5,0.2-5.9,1c-0.9,0.8,0.2,1.6,2.6,1.9c2.3,0.3,5-0.2,5.9-1
		C243,87,241.9,86.2,239.5,85.9z M158.9,40.9c-2.3-0.2-4.9,0.2-5.8,1c-10.7,9.5-21.3,19-31.8,28.4c-0.9,0.8,0.2,1.6,2.5,1.8
		c2.3,0.2,4.8-0.2,5.7-1c10.6-9.4,21.3-18.9,32-28.4C162.3,41.9,161.2,41.1,158.9,40.9z M117.8,77.5c-2.2-0.2-4.8,0.2-5.6,1
		c-10.5,9.3-20.9,18.6-31.3,27.9c-0.9,0.8,0.2,1.6,2.4,1.9c2.2,0.3,4.7-0.2,5.6-0.9c10.4-9.3,20.9-18.6,31.4-27.9
		C121.1,78.6,120,77.7,117.8,77.5z M122.4,73.4c-2.3-0.2-4.8,0.2-5.7,1c-0.9,0.8,0.2,1.6,2.5,1.9c2.2,0.2,4.8-0.2,5.7-1
		C125.7,74.5,124.6,73.6,122.4,73.4z M77.4,113.5c-2.2-0.3-4.7,0.2-5.5,0.9c-0.9,0.8,0.2,1.6,2.4,1.9c2.2,0.3,4.7-0.2,5.5-0.9
		C80.7,114.6,79.6,113.7,77.4,113.5z M73.9,108.5c-2.2-0.3-4.7,0.2-5.5,0.9c-0.9,0.8,0.2,1.6,2.4,1.8c2.2,0.3,4.7-0.2,5.5-0.9
		C77.2,109.6,76.1,108.8,73.9,108.5z M168.4,32.5c-2.3-0.2-4.9,0.2-5.8,1c-0.9,0.8,0.2,1.6,2.6,1.8c2.3,0.2,4.9-0.2,5.8-1
		C171.9,33.6,170.7,32.7,168.4,32.5z M154.6,37.4c0.9-0.8-0.2-1.6-2.5-1.8c-2.3-0.2-4.9,0.2-5.8,1c-0.9,0.8,0.3,1.6,2.5,1.8
		C151.1,38.6,153.7,38.2,154.6,37.4z M269.7,93.9c-2.4-0.3-5.1,0.2-6,1c-11.3,9.6-22.6,19.1-33.9,28.6c-0.9,0.8,0.2,1.6,2.5,1.9
		c2.3,0.3,5-0.2,5.9-0.9c11.3-9.5,22.6-19.1,34-28.7C273.3,95,272.1,94.1,269.7,93.9z M314.4,56.2c-2.4-0.2-5.2,0.2-6.1,1
		c-11.6,9.8-23.1,19.5-34.5,29.2c-1,0.8,0.2,1.7,2.6,1.9c2.4,0.3,5.1-0.2,6-1c11.5-9.7,23.1-19.4,34.7-29.2
		C318,57.3,316.8,56.5,314.4,56.2z M274.7,89.7c-2.4-0.3-5.1,0.2-6,1c-0.9,0.8,0.2,1.7,2.6,1.9c2.4,0.3,5.1-0.2,6-1
		C278.3,90.8,277.1,89.9,274.7,89.7z M321,50.6c2.4,0.2,5.2-0.2,6.2-1.1c1-0.8-0.2-1.7-2.7-1.9c-2.4-0.2-5.2,0.2-6.2,1.1
		C317.4,49.5,318.6,50.4,321,50.6z M331,54.7c1-0.8-0.2-1.7-2.7-1.9c-2.4-0.2-5.2,0.2-6.2,1c-1,0.8,0.2,1.7,2.7,1.9
		C327.2,56,330,55.6,331,54.7z M225.9,130.8c-2.3-0.3-5,0.1-5.9,0.9c-0.9,0.8,0.2,1.6,2.5,1.9c2.3,0.3,5-0.1,5.9-0.9
		C229.3,131.9,228.2,131.1,225.9,130.8z M242.6,128c-2.3-0.3-5,0.2-5.9,0.9c-0.9,0.8,0.2,1.6,2.5,1.9c2.3,0.3,5-0.1,5.9-0.9
		C246.1,129.2,244.9,128.3,242.6,128z"/>
	<path class="st25" d="M116.9,216.9c-4.2,5.7-10.9,8.4-17.7,7.8c-5,0.4-10.1-1-14.6-4.3c-9.5-7-11.8-19.9-5.2-28.8
		c4.2-5.7,10.9-8.4,17.7-7.8c5-0.4,10.1,1,14.6,4.3C121.2,195,123.5,207.9,116.9,216.9z"/>
	
		<ellipse transform="matrix(0.5933 -0.805 0.805 0.5933 -125.1316 160.8045)" class="st25" cx="96.6" cy="204.2" rx="20.1" ry="21.3"/>
	
		<ellipse transform="matrix(0.5933 -0.805 0.805 0.5933 -103.7613 222.3734)" class="st25" cx="168.2" cy="213.9" rx="20.1" ry="21.3"/>
	<path class="st26" d="M155.1,229.2c0.9,1,2,1.9,3.1,2.7c10.5,7.8,25,6,32.3-3.9s4.7-24.2-5.8-32s-25-6-32.3,3.9"/>
	<path class="st25" d="M188.5,226.5c-4.2,5.7-10.9,8.4-17.7,7.8c-5,0.4-10.1-1-14.6-4.3c-9.5-7-11.8-19.9-5.2-28.8
		c4.2-5.7,10.9-8.4,17.7-7.8c5-0.4,10.1,1,14.6,4.3C192.8,204.7,195.1,217.6,188.5,226.5z"/>
	<path class="st17" d="M102.9,190.5c-1-0.6-2.1-1-3.1-1.4l0.6-2.8c1.3,0.4,2.7,1,4,1.7c3.9,2.2,6.9,5.6,8.7,9.4l-2.9,1
		C108.6,195.2,106.1,192.4,102.9,190.5z M82.3,196.4c0.5-1,1-1.9,1.6-2.7l-2-2c-0.8,1-1.4,2-2,3.2c-2.1,4.3-2.2,9.3-0.7,13.8
		l2.4-0.8C80.5,204.1,80.6,200,82.3,196.4z M98,188.7l0.6-2.8c-5.7-1.2-11.5,0.5-15.5,4.4l2,2C88.5,189.1,93.2,187.7,98,188.7z
		 M82.2,209.7l-2.4,0.8c1.8,4.1,4.8,7.7,9,10c0.7,0.4,1.5,0.7,2.2,1l0.5-2.4c-0.6-0.2-1.2-0.5-1.7-0.8
		C86.3,216.2,83.7,213.2,82.2,209.7z M93.3,219.7l-0.5,2.4c5.9,1.8,11.9,0.6,16.3-3l-2.1-2.1C103.3,220.1,98.2,221.2,93.3,219.7z
		 M113.8,199.2l-2.9,1c1.4,4,1.3,8.3-0.5,12.2c-0.6,1.2-1.3,2.3-2.2,3.3l2.1,2.2c1.1-1.2,2.1-2.6,2.9-4.2
		C115.4,209.1,115.5,203.9,113.8,199.2z M84,197.7c-1.4,3-1.6,6.4-0.6,9.5l2.4-0.8c-0.7-2.5-0.6-5.1,0.6-7.4c1.9-4,6.2-6,10.6-5.2
		l0.5-2.5C92,190.2,86.5,192.6,84,197.7z M105.5,209.8c-0.3,0.7-0.7,1.3-1.2,1.9l1.9,1.9c0.6-0.7,1.2-1.6,1.6-2.5
		c3.1-6.4,0.2-14.6-6.4-18.3c-0.8-0.4-1.5-0.8-2.3-1l-0.5,2.5c0.6,0.2,1.2,0.5,1.7,0.8C105.7,198.1,108,204.7,105.5,209.8z
		 M90.4,216c5,2.8,10.7,2.2,14.5-1L103,213c-3.1,2.5-7.6,2.9-11.5,0.7c-2.3-1.3-4-3.2-5-5.5l-2.4,0.8
		C85.4,211.9,87.5,214.4,90.4,216z M99,197.3c-2.9-1.6-6.2-1.3-8.4,0.4l2,2.1c1.5-1,3.5-1.1,5.2-0.1c0.9,0.5,1.6,1.2,2.1,2.1
		l2.5-0.8C101.7,199.5,100.5,198.2,99,197.3z M91.3,201.2l-2-2.1c-0.3,0.4-0.5,0.7-0.7,1.2c-1.8,3.8-0.1,8.7,3.8,10.9
		c0.3,0.1,0.5,0.3,0.8,0.4l0.6-2.7c-0.1,0-0.2-0.1-0.2-0.1c-2.6-1.4-3.7-4.7-2.5-7.2C91.1,201.5,91.2,201.3,91.3,201.2z
		 M102.8,208.2c0.8-1.7,0.9-3.7,0.4-5.5l-2.5,0.8c0.2,1.1,0.1,2.3-0.4,3.3c-0.9,1.9-2.9,2.8-4.9,2.6l-0.6,2.6
		C98.1,212.7,101.3,211.3,102.8,208.2z M98.5,205.8c0.7-1.5,0.1-3.4-1.4-4.3l-0.3,1.2c0.6,0.5,0.9,1.4,0.7,2.1L98.5,205.8z
		 M93.8,203.2c0.3-0.5,0.7-0.9,1.3-1l0.3-1.3c-1.1,0-2,0.5-2.6,1.5c-0.3,0.5-0.4,1.2-0.3,1.8l1.2-0.4
		C93.7,203.6,93.7,203.4,93.8,203.2z M97.2,207.2l-1-1c-0.5,0.1-1,0.1-1.5-0.2c-0.2-0.1-0.3-0.2-0.4-0.3l-1.2,0.4
		c0.3,0.4,0.6,0.7,1,0.9C95.2,207.6,96.3,207.6,97.2,207.2z"/>
	<path class="st17" d="M174.5,200.2c-1-0.6-2.1-1-3.1-1.4l0.6-2.8c1.3,0.4,2.7,1,4,1.7c3.9,2.2,6.9,5.6,8.7,9.4l-2.9,1
		C180.2,204.8,177.8,202,174.5,200.2z M153.9,206c0.5-1,1-1.9,1.6-2.7l-2-2c-0.8,1-1.4,2-2,3.2c-2.1,4.3-2.2,9.3-0.7,13.8l2.4-0.8
		C152.1,213.7,152.2,209.6,153.9,206z M169.6,198.3l0.6-2.8c-5.7-1.2-11.5,0.5-15.5,4.4l2,2C160.1,198.7,164.9,197.4,169.6,198.3z
		 M153.9,219.3l-2.4,0.8c1.8,4.1,4.8,7.7,9,10c0.7,0.4,1.5,0.7,2.2,1l0.5-2.4c-0.6-0.2-1.2-0.5-1.7-0.8
		C157.9,225.9,155.3,222.8,153.9,219.3z M164.9,229.3l-0.5,2.4c5.9,1.8,11.9,0.6,16.3-3l-2.1-2.1
		C174.9,229.8,169.8,230.8,164.9,229.3z M185.4,208.9l-2.9,1c1.4,4,1.3,8.3-0.5,12.2c-0.6,1.2-1.3,2.3-2.2,3.3l2.1,2.2
		c1.1-1.2,2.1-2.6,2.9-4.2C187,218.7,187.1,213.5,185.4,208.9z M155.7,207.4c-1.4,3-1.6,6.4-0.6,9.5l2.4-0.8
		c-0.7-2.5-0.6-5.1,0.6-7.4c1.9-4,6.2-6,10.6-5.2l0.5-2.5C163.6,199.8,158.1,202.3,155.7,207.4z M177.2,219.4
		c-0.3,0.7-0.7,1.3-1.2,1.9l1.9,1.9c0.6-0.7,1.2-1.6,1.6-2.5c3.1-6.4,0.2-14.6-6.4-18.3c-0.8-0.4-1.5-0.8-2.3-1l-0.5,2.5
		c0.6,0.2,1.2,0.5,1.7,0.8C177.3,207.7,179.6,214.3,177.2,219.4z M162,225.6c5,2.8,10.7,2.2,14.5-1l-1.9-1.9
		c-3.1,2.5-7.6,2.9-11.5,0.7c-2.3-1.3-4-3.2-5-5.5l-2.4,0.8C157,221.5,159.2,224,162,225.6z M170.6,207c-2.9-1.6-6.2-1.3-8.4,0.4
		l2,2.1c1.5-1,3.5-1.1,5.2-0.1c0.9,0.5,1.6,1.2,2.1,2.1l2.5-0.8C173.3,209.1,172.1,207.8,170.6,207z M162.9,210.8l-2-2.1
		c-0.3,0.4-0.5,0.7-0.7,1.2c-1.8,3.8-0.1,8.7,3.8,10.9c0.3,0.1,0.5,0.3,0.8,0.4l0.6-2.7c-0.1,0-0.2-0.1-0.2-0.1
		c-2.6-1.4-3.7-4.7-2.5-7.2C162.7,211.1,162.8,210.9,162.9,210.8z M174.4,217.9c0.8-1.7,0.9-3.7,0.4-5.5l-2.5,0.8
		c0.2,1.1,0.1,2.3-0.4,3.3c-0.9,1.9-2.9,2.8-4.9,2.6l-0.6,2.6C169.7,222.3,172.9,220.9,174.4,217.9z M170.1,215.5
		c0.7-1.5,0.1-3.4-1.4-4.3l-0.3,1.2c0.6,0.5,0.9,1.4,0.7,2.1L170.1,215.5z M165.5,212.9c0.3-0.5,0.7-0.9,1.3-1l0.3-1.3
		c-1.1,0-2,0.5-2.6,1.5c-0.3,0.5-0.4,1.2-0.3,1.8l1.2-0.4C165.3,213.3,165.4,213.1,165.5,212.9z M168.9,216.8l-1-1
		c-0.5,0.1-1,0.1-1.5-0.2c-0.2-0.1-0.3-0.2-0.4-0.3l-1.2,0.4c0.3,0.4,0.6,0.7,1,0.9C166.8,217.2,167.9,217.3,168.9,216.8z"/>
</g>
<g id="Layer_4">
	<g>
		<path class="st17" d="M138.7,26.3l245.6,20.4l3.2,3.8l3.6,7v115.9l-3.5,3.2h-2.5L385,178l-8.5,7.5l-1.1-0.4
			c0.8,8.5,0.6,18.9-0.8,28.7c-4.5,33-20.2,58.3-35.7,58.3c-0.6,0-1.3,0-1.9-0.1l-29.2-3.5c-6.2-1.1-10.8-6.5-13.5-11.4l-31.6,28.6
			l-1,0.7l-3.2,4.2l-65.9-8.3l-3.1,1.3l-13.9-1.5l0.1-1.8c-1.6,0.9-3.7,1.8-6.3,2.4c-1.7,3.4-6.8,5.8-12.9,5.8
			c-6.1,0-11.3-2.5-12.9-5.8l0,0c-2.2-0.6-4.2-1.2-5.7-2l-6.3-0.6c0,0,0-5.1,0-5.4l-20.8-2.6l-2.5,2l-14.9-1.7v-2.1L9.3,259.4
			l0.4-105.1l0.3-2.5l-0.2-1.8l3.3-1.1l-3.3-0.5l0.3-3.3l3.1-1.3l-3.2-0.4l0.4-3.5l3.3-1l-3.1-0.5l0.5-1.7l0.1-1.7l3.1-1.3l-2.8-0.2
			l0.7-1.6l0.3-1.7l3.1-1l-2.6-0.5l0.8-1.6l0.4-1.6l2.8-1l-2.2-0.4l1.6-3l3.2-0.8l-2.5-0.5l1.2-2l0.8-0.8l3.1-1l-2.3-0.4l1-1.3
			l10.8-9.5l3.9,0.3l0.3-3.5l6.9-5.3l3.8,0.3l0.3-3.4l7-5.4l3.8,0.3l0.3-3.4l7.1-5.4l3.7,0.3l0.3-3.3l7.1-5.5l3.6,0.3l0.2-3.2
			l7.2-5.5l3.6,0.3l0.2-3.2l7.3-5.6l3.5,0.3l0.2-3.1l7.4-5.6l3.4,0.3l0.2-3.1l7.4-5.7l3.4,0.3l0.2-3l11.1-6.8L138.7,26.3
			 M138.6,25.3l-0.2,0.1l-3.2,1l-0.1,0l-0.1,0.1l-11.1,6.8l-0.4,0.3l0,0.5l-0.2,2l-2.4-0.2l-0.4,0l-0.3,0.2l-7.4,5.7l-0.4,0.3l0,0.4
			l-0.2,2.1l-2.4-0.2l-0.4,0l-0.3,0.2l-7.4,5.6l-0.4,0.3l0,0.4l-0.2,2.1l-2.5-0.2l-0.4,0L98,53.1l-7.3,5.6l-0.4,0.3l0,0.4l-0.2,2.2
			l-2.6-0.2l-0.4,0L87,61.6l-7.2,5.5l-0.4,0.3l0,0.4l-0.2,2.3l-2.6-0.2l-0.4,0l-0.3,0.2l-7.1,5.5l-0.4,0.3l0,0.4l-0.2,2.3l-2.7-0.2
			l-0.4,0l-0.3,0.2L57.7,84l-0.4,0.3l0,0.4l-0.2,2.4l-2.8-0.2l-0.4,0l-0.3,0.2l-7,5.4l-0.4,0.3l0,0.4l-0.2,2.4l-2.8-0.2l-0.4,0
			l-0.3,0.2l-6.9,5.3l-0.4,0.3l0,0.4l-0.2,2.5l-2.9-0.2l-0.4,0l-0.3,0.3l-10.8,9.5l-0.1,0.1l-0.1,0.1l-1,1.3l-1,1.3l0.3,0.1
			l-0.7,0.8l-0.1,0.1l-0.1,0.1l-1.2,2l-0.8,1.2l0,0l-0.1,0.2l-1.6,3l-0.6,1.1l0,0l0,0.1l0,0l0,0l-0.1,0.4l-0.4,1.5l-0.8,1.5
			l-0.6,1.2l0.1,0l-0.1,0.5l-0.3,1.5l-0.6,1.5l-0.5,1.3l0.1,0l0,0.5l-0.1,1.6l-0.5,1.6l-0.4,1.1l0.1,0l-0.1,0.6l-0.4,3.5l-0.1,1
			l0.6,0.1l-0.3,0.1l-0.1,0.6l-0.3,3.3l-0.1,0.9l0.1,0l-0.1,0l0.1,0.8l0.2,1.7l-0.3,2.4l0,0.1l0,0.1L8.3,259.4l0,0.9l0.9,0.1
			l83,10.8v1.2v0.9l0.9,0.1l14.9,1.7l0.4,0l0.3-0.2l2.2-1.7l19.5,2.4c0,1.4,0,3.9,0,4.5l0,0.9l0.9,0.1l6.1,0.6
			c1.5,0.7,3.2,1.4,5.3,1.9c2.1,3.6,7.5,6,13.6,6c6.2,0,11.5-2.4,13.6-6c1.7-0.4,3.2-1,4.5-1.5l0,0l-0.1,1l0.9,0.1l13.9,1.5l0.3,0
			l0.2-0.1l2.9-1.2l65.6,8.2l0.6,0.1l0.3-0.5l3.1-4.1l0.9-0.6l0.1,0l0.1,0l30.7-27.8c2.1,3.5,6.7,9.6,13.6,10.8l0,0l0,0l29.2,3.5
			c0.7,0.1,1.3,0.1,2,0.1c7.9,0,16-6.1,22.9-17.3c6.8-11,11.7-25.9,13.9-41.9c1.2-8.9,1.5-18.8,0.9-27.4l0.2,0.1l0.4-0.4l8.5-7.5
			l0.3-0.3l0-0.4l0.1-0.6h1.6h0.4l0.3-0.3l3.5-3.2l0.3-0.3v-0.4V57.4v-0.2l-0.1-0.2l-3.6-7l-0.1-0.1l-0.1-0.1L385,46l-0.3-0.3
			l-0.4,0L138.8,25.3L138.6,25.3L138.6,25.3z"/>
	</g>
	<path class="st12" d="M391.2,173.3V65v-7.6l-3.6-7l-3.2-3.8l-5.3,1.5L367.9,58h-6 M261.7,286.4c0,0,0-87.2,0-101.2s4.1-24,4.1-24
		l4.4-7.3l11.2-10.1v-9l0.1,4.4l4.9,0.2l4.6-4.2v-8.9l-15,0l15,0v4.4l5,0.1l5.5-4.9v-8.9l-15,0l15,0v4.2c0,0,4.5,0.2,5,0.2l5.2-4.6
		v-8.8l-15,0l15,0v4.4l5-0.1l5.8-5.2v-8.7l-15,0l15,0v4.5l5-0.2l4.6-4.2v-8.7l-15,0l15,0v4.1l5,0.1l5.9-5.3v-8.6l-15,0l15,0l0,3.9
		l5,0.2l5.5-4.9v-8.5l-15,0l15,0v3.9l5,0.2l4.6-4.2v-8.5l-15.1,0l15.1,0v4l5-0.1l11.5-10.3h4.5l3.9,6.5V71v106 M266.4,134.8l15,0
		l-11.9,10.6l-1,1.3l4.5,4.7l-1.2,1.1l-4.2-4.5l-1.8,2.8l4.3,3.2l-0.9,1.5l-4.2-3.4l-1.5,3l4.5,2.4l-0.6,1l-4.5-2l-1.2,3.1l3.9,2.1
		l-0.2,0.6l-4.1-1.3l-0.9,3.2l4,1.3l-0.3,1.1l-4-0.9l-0.5,3.3l3.7,1.1l-0.2,1.2l-3.6-0.7l-0.2,3.7l3.2,0.7l-0.1,0.9l-3.1-0.4
		l-0.1,3.4l3-0.1l-0.1,1.5l-2.9,0.2l-0.2,4.1l-0.3,106.4"/>
	<path class="st23" d="M337.7,145.6c-2.5-4.9-5.6-7.9-9.3-8.3c-12.3-1.5-25.9,26.8-30.3,63.1c-1.7,14.2-1.8,27.5-0.5,38.6l-20.5,18
		v5.2l-15.5,13.4"/>
	<polyline class="st12" points="32.1,104.8 47.4,106 51.4,103 	"/>
	<polyline class="st12" points="43.2,96.3 58.5,97.5 62.4,94.5 	"/>
	<polyline class="st12" points="54.3,87.9 69.6,89 73.5,86 	"/>
	<polyline class="st12" points="65.4,79.4 80.7,80.5 84.6,77.5 	"/>
	<polyline class="st12" points="76.4,70.9 91.8,72 95.7,69 	"/>
	<polyline class="st12" points="87.5,62.4 102.9,63.5 106.8,60.5 	"/>
	<polyline class="st12" points="98.6,53.9 113.9,55.1 117.9,52.1 	"/>
	<polyline class="st12" points="109.7,45.4 125,46.6 129,43.6 	"/>
	<polyline class="st12" points="120.8,36.9 135,38.5 138.9,35.5 	"/>
	<path class="st12" d="M171,260.8c-8.5,2.1-19.4,4.6-19.4,4.6h-17.6l-17.3-4.4c0,0-8.5-4-18.8-9.1c1.1,0.1,2.3,0,3.4-0.4
		c1-0.3,1.8-0.8,2.6-1.4l2.1-1.4l0,0c2.7-1.9,4.1-5.3,3.2-8.4c-2-1.1-7.9-4.4-8.7-4.8c-0.2,0.1-0.4,0.1-0.6,0.2
		c-0.6,0.2-1.1,0.5-1.6,0.8l0,0l-2.9,1.9c-1.5,1-2.6,2.5-3.2,4.2c0.9-4.8,5.6-8.9,9-6.8l15.4,8.5l16.8,4.1H152l14.1-4.1
		C177.3,242.3,179.5,258.7,171,260.8z"/>
	<path class="st12" d="M109.3,240.3c0.9,3.2-0.5,6.6-3.2,8.4l0,0l-2.1,1.4c-0.7,0.6-1.6,1.1-2.6,1.4c-4,1.4-8.2-0.7-9.3-4.6
		c-1-3.2,0.5-6.7,3.3-8.6l2.9-1.9l0,0c0.5-0.3,1.1-0.6,1.6-0.8c0.2-0.1,0.4-0.1,0.6-0.2C101.5,235.9,107.3,239.2,109.3,240.3z"/>
	<path class="st12" d="M172.7,257.6L172.7,257.6l-2.1,1.4c-0.7,0.6-1.6,1.1-2.6,1.4c-4,1.4-8.2-0.7-9.3-4.6c-1-3.2,0.5-6.7,3.3-8.6
		l0,0l2.9-1.9l0,0c0.5-0.3,1.1-0.6,1.6-0.8c0.7-0.2,1.4-0.4,2.1-0.4c0.4,0,0.8,0.1,1.3,0.2c1.8,0.4,3,1.3,4,2.6
		c0.9,1.2,2,3.4,2.1,5.2C175.8,254.3,174.6,256.3,172.7,257.6z"/>
</g>
<g id="Layer_3" class="st27">
	<g class="st28">
		<rect x="-265" y="198.1" class="st29" width="49.5" height="2.4"/>
		<rect x="-212.4" y="198.1" class="st29" width="49.5" height="2.4"/>
		<rect x="-159.7" y="198.1" class="st29" width="49.5" height="2.4"/>
		<rect x="-291.3" y="201.9" class="st29" width="49.5" height="2.4"/>
		<rect x="-238.7" y="201.9" class="st29" width="49.5" height="2.4"/>
		<rect x="-370.3" y="198.1" class="st29" width="49.5" height="2.4"/>
		<rect x="-422.9" y="198.1" class="st29" width="49.5" height="2.4"/>
		<rect x="-317.6" y="198.1" class="st29" width="49.5" height="2.4"/>
		<rect x="-396.6" y="201.9" class="st29" width="49.5" height="2.4"/>
		<rect x="-344" y="201.9" class="st29" width="49.5" height="2.4"/>
		<rect x="-186" y="201.9" class="st29" width="49.5" height="2.4"/>
	</g>
	<g class="st28">
		<rect x="-265" y="205.7" class="st29" width="49.5" height="2.4"/>
		<rect x="-212.4" y="205.7" class="st29" width="49.5" height="2.4"/>
		<rect x="-159.7" y="205.7" class="st29" width="49.5" height="2.4"/>
		<rect x="-291.3" y="209.6" class="st29" width="49.5" height="2.4"/>
		<rect x="-238.7" y="209.6" class="st29" width="49.5" height="2.4"/>
		<rect x="-370.3" y="205.7" class="st29" width="49.5" height="2.4"/>
		<rect x="-422.9" y="205.7" class="st29" width="49.5" height="2.4"/>
		<rect x="-317.6" y="205.7" class="st29" width="49.5" height="2.4"/>
		<rect x="-396.6" y="209.6" class="st29" width="49.5" height="2.4"/>
		<rect x="-344" y="209.6" class="st29" width="49.5" height="2.4"/>
		<rect x="-186" y="209.6" class="st29" width="49.5" height="2.4"/>
	</g>
	<g class="st28">
		<rect x="-265" y="213.3" class="st29" width="49.5" height="2.4"/>
		<rect x="-212.4" y="213.3" class="st29" width="49.5" height="2.4"/>
		<rect x="-159.7" y="213.3" class="st29" width="49.5" height="2.4"/>
		<rect x="-291.3" y="217.2" class="st29" width="49.5" height="2.4"/>
		<rect x="-238.7" y="217.2" class="st29" width="49.5" height="2.4"/>
		<rect x="-370.3" y="213.3" class="st29" width="49.5" height="2.4"/>
		<rect x="-422.9" y="213.3" class="st29" width="49.5" height="2.4"/>
		<rect x="-317.6" y="213.3" class="st29" width="49.5" height="2.4"/>
		<rect x="-396.6" y="217.2" class="st29" width="49.5" height="2.4"/>
		<rect x="-344" y="217.2" class="st29" width="49.5" height="2.4"/>
		<rect x="-186" y="217.2" class="st29" width="49.5" height="2.4"/>
	</g>
	<g class="st28">
		<rect x="-265" y="221" class="st29" width="49.5" height="2.4"/>
		<rect x="-212.4" y="221" class="st29" width="49.5" height="2.4"/>
		<rect x="-159.7" y="221" class="st29" width="49.5" height="2.4"/>
		<rect x="-291.3" y="224.8" class="st29" width="49.5" height="2.4"/>
		<rect x="-238.7" y="224.8" class="st29" width="49.5" height="2.4"/>
		<rect x="-370.3" y="221" class="st29" width="49.5" height="2.4"/>
		<rect x="-422.9" y="221" class="st29" width="49.5" height="2.4"/>
		<rect x="-317.6" y="221" class="st29" width="49.5" height="2.4"/>
		<rect x="-396.6" y="224.8" class="st29" width="49.5" height="2.4"/>
		<rect x="-344" y="224.8" class="st29" width="49.5" height="2.4"/>
		<rect x="-186" y="224.8" class="st29" width="49.5" height="2.4"/>
	</g>
	<g class="st28">
		<rect x="-265" y="228.6" class="st29" width="49.5" height="2.4"/>
		<rect x="-212.4" y="228.6" class="st29" width="49.5" height="2.4"/>
		<rect x="-159.7" y="228.6" class="st29" width="49.5" height="2.4"/>
		<rect x="-291.3" y="232.5" class="st29" width="49.5" height="2.4"/>
		<rect x="-238.7" y="232.5" class="st29" width="49.5" height="2.4"/>
		<rect x="-370.3" y="228.6" class="st29" width="49.5" height="2.4"/>
		<rect x="-422.9" y="228.6" class="st29" width="49.5" height="2.4"/>
		<rect x="-317.6" y="228.6" class="st29" width="49.5" height="2.4"/>
		<rect x="-396.6" y="232.5" class="st29" width="49.5" height="2.4"/>
		<rect x="-344" y="232.5" class="st29" width="49.5" height="2.4"/>
		<rect x="-186" y="232.5" class="st29" width="49.5" height="2.4"/>
	</g>
	<g class="st28">
		<rect x="-265" y="236.2" class="st29" width="49.5" height="2.4"/>
		<rect x="-212.4" y="236.2" class="st29" width="49.5" height="2.4"/>
		<rect x="-159.7" y="236.2" class="st29" width="49.5" height="2.4"/>
		<rect x="-291.3" y="240.1" class="st29" width="49.5" height="2.4"/>
		<rect x="-238.7" y="240.1" class="st29" width="49.5" height="2.4"/>
		<rect x="-370.3" y="236.2" class="st29" width="49.5" height="2.4"/>
		<rect x="-422.9" y="236.2" class="st29" width="49.5" height="2.4"/>
		<rect x="-317.6" y="236.2" class="st29" width="49.5" height="2.4"/>
		<rect x="-396.6" y="240.1" class="st29" width="49.5" height="2.4"/>
		<rect x="-344" y="240.1" class="st29" width="49.5" height="2.4"/>
		<rect x="-186" y="240.1" class="st29" width="49.5" height="2.4"/>
	</g>
	<g class="st28">
		<rect x="-265" y="243.9" class="st29" width="49.5" height="2.4"/>
		<rect x="-212.4" y="243.9" class="st29" width="49.5" height="2.4"/>
		<rect x="-159.7" y="243.9" class="st29" width="49.5" height="2.4"/>
		<rect x="-291.3" y="247.7" class="st29" width="49.5" height="2.4"/>
		<rect x="-238.7" y="247.7" class="st29" width="49.5" height="2.4"/>
		<rect x="-370.3" y="243.9" class="st29" width="49.5" height="2.4"/>
		<rect x="-422.9" y="243.9" class="st29" width="49.5" height="2.4"/>
		<rect x="-317.6" y="243.9" class="st29" width="49.5" height="2.4"/>
		<rect x="-396.6" y="247.7" class="st29" width="49.5" height="2.4"/>
		<rect x="-344" y="247.7" class="st29" width="49.5" height="2.4"/>
		<rect x="-186" y="247.7" class="st29" width="49.5" height="2.4"/>
	</g>
	<g class="st28">
		<rect x="-265" y="251.5" class="st29" width="49.5" height="2.4"/>
		<rect x="-212.4" y="251.5" class="st29" width="49.5" height="2.4"/>
		<rect x="-159.7" y="251.5" class="st29" width="49.5" height="2.4"/>
		<rect x="-291.3" y="255.4" class="st29" width="49.5" height="2.4"/>
		<rect x="-238.7" y="255.4" class="st29" width="49.5" height="2.4"/>
		<rect x="-370.3" y="251.5" class="st29" width="49.5" height="2.4"/>
		<rect x="-422.9" y="251.5" class="st29" width="49.5" height="2.4"/>
		<rect x="-317.6" y="251.5" class="st29" width="49.5" height="2.4"/>
		<rect x="-396.6" y="255.4" class="st29" width="49.5" height="2.4"/>
		<rect x="-344" y="255.4" class="st29" width="49.5" height="2.4"/>
		<rect x="-186" y="255.4" class="st29" width="49.5" height="2.4"/>
	</g>
	<path class="st30" d="M-158.6,154.3v-2.4h25.8v-5.3h-25.8v-2.4h25.8V139h-25.8v-2.4h25.8v-5.3h-25.8V129h25.8v-5.3h-25.8v-2.4h25.8
		v-5.3h-25.8v-2.4h25.8v-5.3h-25.8v-2.4h25.8v-5.3h-25.8v-2.4h25.8V96h-265.4v2.5h25.8v2.4h-25.8v5.3h25.8v2.4h-25.8v5.3h25.8v2.4
		h-25.8v5.3h25.8v2.4h-25.8v5.3h25.8v2.4h-25.8v5.3h25.8v2.4h-25.8v5.3h25.8v2.4h-25.8v5.3h25.8v2.4h-25.8v6.4h265.4v-6.4H-158.6z
		 M-135.5,148.2v2.4H-185v-2.4H-135.5z M-342.9,150.6v-2.4h49.5v2.4H-342.9z M-319.7,151.9v2.4h-49.5v-2.4H-319.7z M-188.1,142.9
		h-49.5v-2.4h49.5V142.9z M-161.8,144.3v2.4h-49.5v-2.4H-161.8z M-290.2,142.9v-2.4h49.5v2.4H-290.2z M-267.1,144.3v2.4h-49.5v-2.4
		H-267.1z M-240.8,112.4h-49.5V110h49.5V112.4z M-214.5,113.8v2.4h-49.5v-2.4H-214.5z M-267.1,113.8v2.4h-49.5v-2.4H-267.1z
		 M-290.2,117.6h49.5v2.4h-49.5V117.6z M-214.5,121.4v2.4h-49.5v-2.4H-214.5z M-267.1,121.4v2.4h-49.5v-2.4H-267.1z M-290.2,125.3
		h49.5v2.4h-49.5V125.3z M-214.5,129v2.4h-49.5V129H-214.5z M-267.1,129v2.4h-49.5V129H-267.1z M-290.2,132.9h49.5v2.4h-49.5V132.9z
		 M-214.5,136.7v2.4h-49.5v-2.4H-214.5z M-267.1,136.7v2.4h-49.5v-2.4H-267.1z M-263.9,144.3h49.5v2.4h-49.5V144.3z M-211.3,139
		v-2.4h49.5v2.4H-211.3z M-188.1,135.3h-49.5v-2.4h49.5V135.3z M-211.3,131.4V129h49.5v2.4H-211.3z M-188.1,127.7h-49.5v-2.4h49.5
		V127.7z M-211.3,123.8v-2.4h49.5v2.4H-211.3z M-188.1,120h-49.5v-2.4h49.5V120z M-211.3,116.1v-2.4h49.5v2.4H-211.3z M-188.1,112.4
		h-49.5V110h49.5V112.4z M-211.3,108.5v-2.4h49.5v2.4H-211.3z M-188.1,104.7h-49.5v-2.4h49.5V104.7z M-214.5,106.1v2.4h-49.5v-2.4
		H-214.5z M-240.8,104.7h-49.5v-2.4h49.5V104.7z M-267.1,106.1v2.4h-49.5v-2.4H-267.1z M-293.4,104.7h-49.5v-2.4h49.5V104.7z
		 M-319.7,106.1v2.4h-49.5v-2.4H-319.7z M-342.9,110h49.5v2.4h-49.5V110z M-319.7,113.8v2.4h-49.5v-2.4H-319.7z M-342.9,117.6h49.5
		v2.4h-49.5V117.6z M-319.7,121.4v2.4h-49.5v-2.4H-319.7z M-342.9,125.3h49.5v2.4h-49.5V125.3z M-319.7,129v2.4h-49.5V129H-319.7z
		 M-342.9,132.9h49.5v2.4h-49.5V132.9z M-319.7,136.7v2.4h-49.5v-2.4H-319.7z M-342.9,140.5h49.5v2.4h-49.5V140.5z M-319.7,144.3
		v2.4h-49.5v-2.4H-319.7z M-316.5,151.9h49.5v2.4h-49.5V151.9z M-290.2,150.6v-2.4h49.5v2.4H-290.2z M-263.9,151.9h49.5v2.4h-49.5
		V151.9z M-237.6,150.6v-2.4h49.5v2.4H-237.6z M-211.3,151.9h49.5v2.4h-49.5V151.9z M-135.5,140.5v2.4H-185v-2.4H-135.5z
		 M-135.5,132.9v2.4H-185v-2.4H-135.5z M-135.5,125.3v2.4H-185v-2.4H-135.5z M-135.5,117.6v2.4H-185v-2.4H-135.5z M-135.5,110v2.4
		H-185V110H-135.5z M-135.5,102.4v2.4H-185v-2.4H-135.5z M-211.3,98.5h49.5v2.4h-49.5V98.5z M-263.9,98.5h49.5v2.4h-49.5V98.5z
		 M-316.5,98.5h49.5v2.4h-49.5V98.5z M-369.2,98.5h49.5v2.4h-49.5V98.5z M-395.5,104.7v-2.4h49.5v2.4H-395.5z M-395.5,112.4V110
		h49.5v2.4H-395.5z M-395.5,120v-2.4h49.5v2.4H-395.5z M-395.5,127.7v-2.4h49.5v2.4H-395.5z M-395.5,135.3v-2.4h49.5v2.4H-395.5z
		 M-395.5,142.9v-2.4h49.5v2.4H-395.5z M-395.5,150.6v-2.4h49.5v2.4H-395.5z M-346,158.2h-49.5v-2.4h49.5V158.2z M-293.4,158.2
		h-49.5v-2.4h49.5V158.2z M-240.8,158.2h-49.5v-2.4h49.5V158.2z M-188.1,158.2h-49.5v-2.4h49.5V158.2z M-135.5,158.2H-185v-2.4h49.5
		V158.2z"/>
</g>
</svg>
