<svg xmlns="http://www.w3.org/2000/svg" xmlns:xlink="http://www.w3.org/1999/xlink" viewBox="0 0 675 602"><defs><style>.cls-1,.cls-114,.cls-12,.cls-124,.cls-20,.cls-21,.cls-28,.cls-43,.cls-48,.cls-50,.cls-58,.cls-60,.cls-62,.cls-72,.cls-8,.cls-82,.cls-96{fill:none;}.cls-1,.cls-114,.cls-12,.cls-20,.cls-48,.cls-58,.cls-60,.cls-62,.cls-72{stroke:#fff;}.cls-1,.cls-114,.cls-12,.cls-124,.cls-20,.cls-21,.cls-28,.cls-38,.cls-43,.cls-48,.cls-50,.cls-51,.cls-60,.cls-62,.cls-72,.cls-8,.cls-82,.cls-96{stroke-miterlimit:10;}.cls-1{stroke-width:0.5px;}.cls-2{fill:#9d9d9c;}.cls-3{fill:#c6c6c6;}.cls-4{fill:#3c3c3b;}.cls-102,.cls-39,.cls-5,.cls-52{fill:#1d1d1b;}.cls-6{fill:#fff4bf;}.cls-7{fill:#d5b681;}.cls-8{stroke:#fff1f2;}.cls-84,.cls-9{fill:#bebebe;}.cls-10{fill:#605b5c;}.cls-11{fill:#473d2d;}.cls-12{stroke-width:0.91px;}.cls-13{fill:#6f7070;}.cls-14{fill:#292a29;}.cls-15,.cls-17{fill:#878787;}.cls-16{fill:#484948;}.cls-17,.cls-37{mix-blend-mode:multiply;}.cls-18{fill:#cdad79;}.cls-19{fill:#dfc68b;}.cls-21,.cls-43,.cls-82{stroke:#e6007e;}.cls-21{stroke-width:0.5px;}.cls-115,.cls-22,.cls-35,.cls-40,.cls-44,.cls-45,.cls-46,.cls-47,.cls-53,.cls-54,.cls-59,.cls-63,.cls-65,.cls-66,.cls-73,.cls-89{fill:#fff;}.cls-23{fill:#f0f0f0;}.cls-24{fill:#5a462e;}.cls-25{fill:#363636;}.cls-26{fill:#d4d3d4;}.cls-27{fill:#6b6867;}.cls-28{stroke:#807f80;stroke-width:0.86px;}.cls-29{fill:#797a7a;}.cls-30{fill:#636463;}.cls-31{fill:#2b291d;}.cls-32{fill:#46683f;}.cls-33{fill:#6b8b5f;}.cls-34{isolation:isolate;}.cls-35,.cls-53{font-size:13.45px;}.cls-35,.cls-45,.cls-46,.cls-53,.cls-65,.cls-66,.cls-89{font-family:AkkuratMonoPro-Regular, Akkurat Mono Pro;}.cls-36{fill:#494949;}.cls-37{fill:#c5c3c4;}.cls-101,.cls-38,.cls-51{fill:#353132;}.cls-38,.cls-51{stroke:#676062;}.cls-38{stroke-width:0.78px;}.cls-39{font-size:10.84px;}.cls-102,.cls-115,.cls-39,.cls-40,.cls-44,.cls-47,.cls-52,.cls-84{font-family:RobotoCondensed-Regular, Roboto Condensed;}.cls-40{font-size:9.51px;}.cls-41{letter-spacing:-0.01em;}.cls-42{fill:#979798;}.cls-43{stroke-width:0.19px;}.cls-44{font-size:16.52px;}.cls-45{font-size:15.72px;letter-spacing:-0.08em;}.cls-46{font-size:16.31px;}.cls-47{font-size:11.67px;}.cls-48{stroke-width:0.96px;}.cls-49{fill:#4a3f3f;}.cls-50{stroke:#d5b681;}.cls-52,.cls-54,.cls-84{font-size:13.87px;}.cls-53{letter-spacing:-0.1em;}.cls-54{font-family:RobotoMono-Regular, Roboto Mono;}.cls-55{fill:#00b8f4;}.cls-56{fill:#fec900;}.cls-57,.cls-58{font-size:45.42px;}.cls-57,.cls-58,.cls-59,.cls-63{font-family:RobotoCondensed-Bold, Roboto Condensed;font-weight:700;}.cls-58{stroke-width:4px;}.cls-59{font-size:9.27px;}.cls-60{stroke-width:0.93px;}.cls-61{fill:#343433;}.cls-62{stroke-width:0.84px;}.cls-63{font-size:16.09px;}.cls-64{letter-spacing:0.01em;}.cls-65{font-size:15.17px;letter-spacing:-0.08em;}.cls-66{font-size:12.23px;letter-spacing:-0.08em;}.cls-67{fill:#161616;}.cls-68,.cls-70{fill:#e0b352;}.cls-69{fill:#e3e2e2;}.cls-70,.cls-73{font-size:8.6px;font-family:Roboto-Regular, Roboto;}.cls-71{letter-spacing:-0.06em;}.cls-72{stroke-width:0.91px;}.cls-74{fill:#7d6d4d;}.cls-75{fill:#cea969;}.cls-76{fill:#b8985e;}.cls-77{fill:#987f4f;}.cls-78{fill:#d5b57d;}.cls-79{fill:#878786;}.cls-80{fill:#707170;}.cls-81{fill:#b8b7b6;}.cls-82{stroke-width:0.23px;}.cls-83{fill:#9c9c9b;}.cls-85{letter-spacing:-0.24em;}.cls-86{letter-spacing:-0.14em;}.cls-87{fill:#fefdee;}.cls-88{fill:#a19781;}.cls-89{font-size:16.67px;letter-spacing:-0.08em;}.cls-90{fill:#52504f;}.cls-91{fill:#525151;}.cls-92{fill:#eccf96;}.cls-93{fill:#554d44;}.cls-94{fill:#9f9074;}.cls-95{fill:#b0a38b;}.cls-96{stroke:#554d44;stroke-width:0.72px;}.cls-97{fill:#676062;}.cls-98{fill:#7b7276;}.cls-99{fill:#231e06;}.cls-100{fill:#403c3d;}.cls-102{font-size:12.14px;}.cls-103{letter-spacing:-0.04em;}.cls-104{fill:#784a11;}.cls-105{fill:#d6a96f;}.cls-106{fill:#cabb9b;}.cls-107{fill:#7a7a79;}.cls-108{fill:#fef2ca;}.cls-109{fill:#bb9d50;}.cls-110{fill:#e7d8a4;}.cls-111{fill:#ccbea5;}.cls-112{fill:#635842;}.cls-113{fill:#918063;}.cls-114{stroke-width:1.13px;}.cls-115{font-size:18.09px;}.cls-116{fill:#e9c783;}.cls-117{fill:#dacea2;}.cls-118{fill:#f5e7b4;}.cls-119{fill:#d6cb9f;}.cls-120{fill:#bfb68f;}.cls-121{fill:#a9a17f;}.cls-122{fill:#2d2d2c;}.cls-123{fill:#484849;}.cls-124{stroke:#1d1d1b;stroke-width:1.48px;}.cls-125{fill:#4a4a4a;}.cls-126{fill:#646365;}.cls-127{fill:#5d5c5d;}.cls-128{fill:#3f3f3f;}</style><symbol id="_02" data-name="02" viewBox="0 0 12.42 25.21"><rect class="cls-6" x="3.08" y="6.42" width="6.5" height="15.17"/><rect class="cls-7" x="5.07" y="6.42" width="4.52" height="15.17"/><rect class="cls-2" x="2.67" y="5.25" width="7.33" height="5.83"/><rect class="cls-2" x="2.67" y="16.42" width="7.33" height="5.83"/><rect class="cls-8" x="0.5" y="0.5" width="11.42" height="24.21" rx="2.64" ry="2.64"/><rect class="cls-9" x="3.47" y="5.7" width="5.72" height="4.94"/><rect class="cls-9" x="3.47" y="16.86" width="5.72" height="4.94"/></symbol><symbol id="_03" data-name="03" viewBox="0 0 12.42 25.21"><rect class="cls-10" x="3.08" y="6.42" width="6.5" height="15.17"/><rect class="cls-11" x="4.98" y="6.42" width="4.6" height="15.17"/><rect class="cls-2" x="2.67" y="5.25" width="7.33" height="5.83"/><rect class="cls-2" x="2.67" y="16.42" width="7.33" height="5.83"/><rect class="cls-9" x="3.66" y="5.7" width="5.72" height="4.94"/><rect class="cls-9" x="3.66" y="16.86" width="5.72" height="4.94"/><rect class="cls-8" x="0.5" y="0.5" width="11.42" height="24.21" rx="2.64" ry="2.64"/></symbol><symbol id="_01" data-name="01" viewBox="0 0 22 47.62"><path class="cls-1" d="M20.82,42.8,1.75,43a1,1,0,0,1-1-.93L.25,5.85a1,1,0,0,1,.94-1l19.07-.21a1,1,0,0,1,1,.93l.55,36.23A1,1,0,0,1,20.82,42.8Z"/><rect class="cls-2" x="3.99" y="38.43" width="13.46" height="9.19"/><polygon class="cls-2" points="4.06 9.34 17.52 9.19 17.38 0 3.92 0.15 4.06 9.34"/><rect class="cls-3" x="8.76" y="37.07" width="3.99" height="7.99" rx="1.99" ry="1.99"/><path class="cls-3" d="M10.83,11.68h0a2,2,0,0,0,1.93-2l0-4a2,2,0,0,0-2.06-2h0a2,2,0,0,0-1.93,2l0,4A2,2,0,0,0,10.83,11.68Z"/><polygon class="cls-4" points="2 41.28 20.1 41.08 19.59 7.68 1.49 7.89 2 41.28"/><polygon class="cls-5" points="3.7 40.37 18.36 40.21 17.89 8.6 3.23 8.76 3.7 40.37"/></symbol><symbol id="_06" data-name="06" viewBox="0 0 112.17 19.17"><rect class="cls-18" x="3.17" y="3.83" width="12.67" height="11.33"/><circle class="cls-18" cx="27.75" cy="9.17" r="5.74"/><circle class="cls-18" cx="46.28" cy="9.17" r="5.74"/><circle class="cls-18" cx="64.81" cy="9.17" r="5.74"/><circle class="cls-18" cx="83.35" cy="9.17" r="5.74"/><circle class="cls-18" cx="101.88" cy="9.17" r="5.74"/><path class="cls-19" d="M15.83,8.47V3.83H3.17v5Q9.5,8.71,15.83,8.47Z"/><path class="cls-19" d="M33.31,7.75a5.74,5.74,0,0,0-11.22.48Z"/><path class="cls-19" d="M51.6,7a5.74,5.74,0,0,0-10.79.43Q46.2,7.2,51.6,7Z"/><path class="cls-19" d="M61.93,6.66q4-.11,8-.18a5.74,5.74,0,0,0-10.27.25Z"/><path class="cls-19" d="M88.37,6.39a5.74,5.74,0,0,0-10,0Q83.35,6.35,88.37,6.39Z"/><path class="cls-19" d="M107,6.68a5.74,5.74,0,0,0-10.24-.2Q101.93,6.55,107,6.68Z"/><path class="cls-19" d="M100.1,14.62a5.67,5.67,0,0,0,3.33.07Z"/><rect class="cls-20" x="0.5" y="0.5" width="111.17" height="18.17"/><circle class="cls-5" cx="9.5" cy="9.17" r="3.5"/><circle class="cls-5" cx="27.75" cy="9.17" r="3.5"/><circle class="cls-5" cx="46.28" cy="9.17" r="3.5"/><circle class="cls-5" cx="64.81" cy="9.17" r="3.5"/><circle class="cls-5" cx="83.35" cy="9.17" r="3.5"/><circle class="cls-5" cx="101.88" cy="9.17" r="3.5"/></symbol><symbol id="_05" data-name="05" viewBox="0 0 14.55 16.83"><rect class="cls-14" width="14.55" height="16.83"/><polygon class="cls-15" points="4.87 5.63 0 0 0 16.83 4.87 11.2 4.87 5.63"/><polygon class="cls-16" points="9.68 5.63 14.55 0 14.55 16.83 9.68 11.2 9.68 5.63"/><rect class="cls-17" x="4.87" y="5.63" width="4.82" height="5.57"/></symbol><symbol id="_04" data-name="04" viewBox="0 0 21.68 25.35"><path class="cls-12" d="M15.22,3.92h5.5v7.41H18.43m-15.18,0H1V3.92H6.53"/><rect class="cls-13" x="9.78" y="5.25" width="2.12" height="7.12"/><rect class="cls-9" x="0.01" y="18.22" width="7.12" height="7.12"/><rect class="cls-9" x="14.45" y="18.22" width="7.12" height="7.12"/><rect class="cls-2" y="18.22" width="4.35" height="5.24"/><rect class="cls-2" x="14.41" y="18.22" width="4.35" height="5.24"/><rect class="cls-9" x="7.28" width="7.12" height="7.12"/><rect class="cls-13" x="9.36" y="0.04" width="2.44" height="2.44"/><rect class="cls-4" x="0.01" y="10.09" width="21.67" height="8.13"/><rect class="cls-5" x="2.09" y="10.78" width="17.34" height="6.75"/></symbol><symbol id="LED" data-name="LED" viewBox="0 0 36.83 53.62"><circle class="cls-21" cy="42.96"/><polygon class="cls-22" points="36.83 7.46 0 7.46 0 42.96 36.83 42.96 36.83 7.46"/><polygon class="cls-2" points="23.42 43.37 33.67 43.37 33.67 53.62 23.42 53.62 23.42 43.37"/><polygon class="cls-2" points="1.33 43.37 11.58 43.37 11.58 53.62 1.33 53.62 1.33 43.37"/><polygon class="cls-2" points="23.42 0.12 33.67 0.12 33.67 7.46 23.42 7.46 23.42 0.12"/><polygon class="cls-2" points="1.33 0.12 11.58 0.12 11.58 7.46 1.33 7.46 1.33 0.12"/><polygon class="cls-9" points="2.49 43.25 7.61 43.25 7.61 53.5 2.49 53.5 2.49 43.25"/><polygon class="cls-9" points="2.49 0 7.61 0 7.61 7.33 2.49 7.33 2.49 0"/><polygon class="cls-9" points="24.17 43.25 29.29 43.25 29.29 53.5 24.17 53.5 24.17 43.25"/><polygon class="cls-9" points="24.17 0 29.29 0 29.29 7.33 24.17 7.33 24.17 0"/><circle class="cls-23" cx="18.42" cy="25.51" r="14.17"/><polygon class="cls-24" points="19.75 16.77 14.75 16.77 14.75 23.3 19.75 23.3 19.75 16.77"/></symbol><symbol id="New_Symbol" data-name="New Symbol" viewBox="0 0 44.72 76.81"><rect class="cls-9" x="0.43" width="8.65" height="22.85"/><rect class="cls-2" x="4.76" width="4.56" height="22.85"/><rect class="cls-9" x="33.75" width="8.65" height="22.85"/><rect class="cls-2" x="38.08" width="4.56" height="22.85"/><path class="cls-23" d="M42.9,32.17V50.91a2.61,2.61,0,0,1,1.81,2.48v7A2.62,2.62,0,0,1,42.1,63h-7a2.61,2.61,0,0,1-2.16-1.15H11.8A2.61,2.61,0,0,1,9.63,63h-7A2.62,2.62,0,0,1,0,60.41v-7a2.62,2.62,0,0,1,2.62-2.62h.1V32.31h-.1A2.62,2.62,0,0,1,0,29.7v-7a2.62,2.62,0,0,1,2.62-2.62h7a2.61,2.61,0,0,1,2.42,1.63H32.66a2.61,2.61,0,0,1,2.42-1.62h7a2.62,2.62,0,0,1,2.62,2.62v7A2.61,2.61,0,0,1,42.9,32.17Z"/><rect class="cls-9" x="0.43" y="59.75" width="8.65" height="17.06"/><rect class="cls-2" x="4.76" y="59.75" width="4.56" height="17.06"/><rect class="cls-29" x="0.43" y="59.87" width="8.65" height="5.73"/><rect class="cls-9" x="33.75" y="59.75" width="8.65" height="17.06"/><rect class="cls-2" x="38.08" y="59.75" width="4.56" height="17.06"/><rect class="cls-29" x="33.75" y="59.87" width="8.65" height="5.73"/><path class="cls-2" d="M42.47,32.17V50.91a2.61,2.61,0,0,1,1.81,2.48v7A2.62,2.62,0,0,1,41.67,63H35a2.61,2.61,0,0,1-2.16-1.15H11.73A2.61,2.61,0,0,1,9.56,63H3A2.62,2.62,0,0,1,.43,60.41v-7A2.62,2.62,0,0,1,3,50.77h.1V32.31H3A2.62,2.62,0,0,1,.43,29.7v-7A2.62,2.62,0,0,1,3,20.06H9.56A2.61,2.61,0,0,1,12,21.69H32.59A2.61,2.61,0,0,1,35,20.06h6.66a2.62,2.62,0,0,1,2.62,2.62v7A2.61,2.61,0,0,1,42.47,32.17Z"/><circle class="cls-30" cx="6.26" cy="56.93" r="3.05"/><circle class="cls-30" cx="38.92" cy="56.93" r="3.05"/><circle class="cls-30" cx="22.92" cy="41.5" r="15.69"/><circle class="cls-2" cx="22.84" cy="41.58" r="15.35"/><circle class="cls-31" cx="22.71" cy="41.72" r="13.98"/><circle class="cls-32" cx="22.71" cy="41.72" r="13.17"/><circle class="cls-33" cx="22.71" cy="41.72" r="12.17"/><circle class="cls-30" cx="6.26" cy="25.9" r="3.05"/><circle class="cls-2" cx="6.26" cy="25.9" r="2.46"/><circle class="cls-30" cx="38.92" cy="25.9" r="3.05"/><circle class="cls-2" cx="38.92" cy="25.9" r="2.46"/><circle class="cls-2" cx="6.26" cy="57.05" r="2.46"/><circle class="cls-2" cx="38.92" cy="57.05" r="2.46"/></symbol><symbol id="Lediti_led" data-name="Lediti led" viewBox="0 0 39 42.08"><path class="cls-25" d="M19.5,41.83A19.27,19.27,0,0,1,.25,22.58V15.74C.25,7.2,8.89.25,19.5.25S38.75,7.2,38.75,15.74v6.84A19.27,19.27,0,0,1,19.5,41.83Z"/><path class="cls-26" d="M19.5.5c10.49,0,19,6.82,19,15.24v6.84a19,19,0,0,1-38,0V15.74C.5,7.32,9,.5,19.5.5m0-.5C8.75,0,0,7.06,0,15.74v6.84a19.5,19.5,0,0,0,39,0V15.74C39,7.06,30.25,0,19.5,0Z"/><path class="cls-27" d="M29.32,2.71A22.48,22.48,0,0,0,19.5.5a22.14,22.14,0,0,0-11.22,3,19.72,19.72,0,0,1,4.1,5.15A18.16,18.16,0,0,1,26.2,8.34,18.39,18.39,0,0,1,29.32,2.71Z"/><line class="cls-28" x1="19.5" y1="7.79" x2="19.5" y2="39.57"/><line class="cls-28" x1="15.25" y1="7.79" x2="15.25" y2="39.57"/><line class="cls-28" x1="11" y1="7.79" x2="11" y2="39.57"/><line class="cls-28" x1="6.75" y1="11.95" x2="6.75" y2="35.41"/><path class="cls-26" d="M19.5,5.78C9,5.78.5,13.8.5,23.68s8.51,17.9,19,17.9,19-8,19-17.9S30,5.78,19.5,5.78Zm0,33.78c-9.32,0-16.87-7.11-16.87-15.89S10.18,7.79,19.5,7.79s16.87,7.11,16.87,15.89S28.82,39.57,19.5,39.57Z"/><circle class="cls-7" cx="9.95" cy="22.94" r="6.14"/><circle class="cls-7" cx="28.06" cy="22.94" r="6.14"/><circle class="cls-6" cx="9.95" cy="22.94" r="4.34"/><circle class="cls-6" cx="28.06" cy="22.94" r="4.34"/></symbol></defs><title>M Bot Core</title><g class="cls-34"><g id="Layer_3" data-name="Layer 3"><path class="cls-5" d="M630.48,42.3h-588A31.11,31.11,0,0,0,11.34,73.42V539.89A31.11,31.11,0,0,0,42.46,571h588a31.11,31.11,0,0,0,31.11-31.11V73.42A31.11,31.11,0,0,0,630.48,42.3ZM46.5,559.75c-11.35,0-19.76-9.28-20.25-20.25s9.66-20.25,20.25-20.25c11.35,0,19.76,9.28,20.25,20.25S57.09,559.75,46.5,559.75Zm0-463c-11.35,0-19.76-9.28-20.25-20.25S35.91,56.25,46.5,56.25c11.35,0,19.76,9.28,20.25,20.25S57.09,96.75,46.5,96.75ZM648.75,540c0,11.35-9.28,19.76-20.25,20.25s-20.25-9.66-20.25-20.25v-.19c0-11.35,9.28-19.76,20.25-20.25s20.25,9.66,20.25,20.25ZM628.5,97.75c-11.35,0-19.76-9.28-20.25-20.25s9.66-20.25,20.25-20.25c11.35,0,19.76,9.28,20.25,20.25S639.09,97.75,628.5,97.75Z"/></g><g id="Layer_2" data-name="Layer 2"><text class="cls-35" transform="translate(597.02 509.42)">Buzzer</text><rect class="cls-20" x="65" y="233.82" width="29.83" height="36.88"/><circle class="cls-7" cx="74.54" cy="269.03" r="9.54"/><circle class="cls-7" cx="89.46" cy="253.21" r="9.54"/><path class="cls-6" d="M87.33,246.83c7.35,0,10.63,6.3,9.87,11.94a9.53,9.53,0,1,0-16.32-9.72A9.72,9.72,0,0,1,87.33,246.83Z"/><rect class="cls-4" x="79.47" y="242.32" width="13.33" height="26.71"/><rect class="cls-4" x="12.34" y="238.69" width="54.04" height="33.96"/><rect class="cls-36" x="79.47" y="248.41" width="13.33" height="19.02"/><rect class="cls-36" x="12.34" y="245.83" width="54.04" height="24.19"/><rect class="cls-4" x="7.17" y="235.33" width="13.33" height="40.69"/><rect class="cls-4" x="66.38" y="235.33" width="13.33" height="40.69"/><polygon class="cls-36" points="7.17 235.29 20.5 275.98 7.17 275.98 7.17 235.29"/><polygon class="cls-36" points="66.38 235.33 79.71 275.98 66.38 276.02 66.38 235.33"/><rect class="cls-37" x="20.5" y="238.69" width="8" height="33.96"/><rect class="cls-37" x="59.81" y="238.69" width="6.57" height="33.96"/><rect class="cls-37" x="79.71" y="242.32" width="5.48" height="26.71"/><rect class="cls-2" x="202.06" y="187.6" width="7.56" height="7.56"/><rect class="cls-9" x="204.59" y="187.72" width="4.25" height="7.53"/><rect class="cls-2" x="202.06" y="140.54" width="7.56" height="7.56"/><rect class="cls-9" x="204.59" y="140.66" width="4.25" height="7.53"/><polygon class="cls-38" points="186.91 178.27 194.63 185.43 219.48 185.43 225.87 179.04 225.87 147.39 187.36 147.97 186.91 178.27"/><circle class="cls-2" cx="205.39" cy="171.36" r="19.47"/><ellipse class="cls-26" cx="205.02" cy="173.25" rx="18.67" ry="17.58"/><path class="cls-5" d="M192,164.17a16.8,16.8,0,0,1,26.09,0Z"/><text class="cls-39" transform="translate(208.59 165.94) rotate(90)">220<tspan x="0" y="8.6">25V</tspan><tspan x="0" y="17.2">5V</tspan></text><text class="cls-40" transform="translate(541.27 145.17) rotate(180)">SCL</text><text class="cls-40" transform="translate(526.11 145.17) rotate(180)">S<tspan class="cls-41" x="4.85" y="0">D</tspan><tspan x="10" y="0">A</tspan></text><text class="cls-40" transform="translate(510.11 145.17) rotate(180)">GND</text><text class="cls-40" transform="translate(492.94 145.17) rotate(180)">5V</text><text class="cls-40" transform="translate(479.44 145.17) rotate(180)">9</text><text class="cls-40" transform="translate(465.27 145.17) rotate(180)">10</text><polyline class="cls-20" points="540.3 128.6 540.3 139.35 452.31 139.35 452.31 128.6"/><line class="cls-20" x1="532.97" y1="139.35" x2="532.97" y2="143.02"/><line class="cls-20" x1="518.56" y1="139.35" x2="518.56" y2="143.02"/><line class="cls-20" x1="503.92" y1="139.35" x2="503.92" y2="143.02"/><line class="cls-20" x1="488.97" y1="139.35" x2="488.97" y2="143.02"/><line class="cls-20" x1="474.47" y1="139.35" x2="474.47" y2="143.02"/><line class="cls-20" x1="459.6" y1="139.35" x2="459.6" y2="143.02"/><text class="cls-40" transform="translate(437 145.17) rotate(180)">SCL</text><text class="cls-40" transform="translate(421.83 145.17) rotate(180)">S<tspan class="cls-41" x="4.85" y="0">D</tspan><tspan x="10" y="0">A</tspan></text><text class="cls-40" transform="translate(405.83 145.17) rotate(180)">GND</text><text class="cls-40" transform="translate(388.67 145.17) rotate(180)">5V</text><text class="cls-40" transform="translate(375.17 145.17) rotate(180)">11</text><text class="cls-40" transform="translate(361 145.17) rotate(180)">12</text><polyline class="cls-20" points="436.03 128.6 436.03 139.35 348.03 139.35 348.03 128.6"/><line class="cls-20" x1="428.7" y1="139.35" x2="428.7" y2="143.02"/><line class="cls-20" x1="414.28" y1="139.35" x2="414.28" y2="143.02"/><line class="cls-20" x1="399.65" y1="139.35" x2="399.65" y2="143.02"/><line class="cls-20" x1="384.7" y1="139.35" x2="384.7" y2="143.02"/><line class="cls-20" x1="370.2" y1="139.35" x2="370.2" y2="143.02"/><line class="cls-20" x1="355.33" y1="139.35" x2="355.33" y2="143.02"/><rect class="cls-4" x="176.08" y="318" width="60.21" height="16.83"/><use width="12.42" height="25.21" transform="translate(275.33 257.49)" xlink:href="#_02"/><use width="12.42" height="25.21" transform="translate(297.24 135.22) rotate(90)" xlink:href="#_02"/><use width="12.42" height="25.21" transform="translate(176.08 256.33) rotate(90) scale(0.83 0.99)" xlink:href="#_02"/><use width="12.42" height="25.21" transform="translate(179.14 226.24) rotate(90) scale(1.26 1.18)" xlink:href="#_02"/><use width="12.42" height="25.21" transform="translate(179.14 268.68) rotate(90) scale(1.26 1.18)" xlink:href="#_02"/><use width="12.42" height="25.21" transform="translate(175.28 214.92) rotate(90) scale(0.83 0.97)" xlink:href="#_02"/><use width="12.42" height="25.21" transform="translate(67.29 195.35) rotate(90) scale(0.96 1.02)" xlink:href="#_02"/><use width="12.42" height="25.21" transform="translate(67.29 116.35) rotate(90) scale(0.96 1.02)" xlink:href="#_02"/><use width="12.42" height="25.21" transform="translate(267.13 135.22) rotate(90)" xlink:href="#_02"/><use width="12.42" height="25.21" transform="translate(225.09 171.99)" xlink:href="#_02"/><use width="12.42" height="25.21" transform="translate(301.04 171.99)" xlink:href="#_02"/><use width="12.42" height="25.21" transform="translate(260.67 257.49)" xlink:href="#_03"/><use width="12.42" height="25.21" transform="translate(176.08 244.29) rotate(90) scale(0.86 1.01)" xlink:href="#_03"/><use width="12.42" height="25.21" transform="translate(351.86 359.79)" xlink:href="#_03"/><use width="12.42" height="25.21" transform="translate(364.86 359.79)" xlink:href="#_03"/><use width="12.42" height="25.21" transform="translate(146.02 311.65)" xlink:href="#_02"/><use width="12.42" height="25.21" transform="translate(133.52 311.65)" xlink:href="#_03"/><use width="12.42" height="25.21" transform="translate(121.02 311.65)" xlink:href="#_03"/><use width="12.42" height="25.21" transform="translate(120.86 275.52) scale(1.06 1)" xlink:href="#_03"/><use width="12.42" height="25.21" transform="translate(107.67 275.52) scale(1.06 1)" xlink:href="#_03"/><use width="12.42" height="25.21" transform="translate(146.02 371.9)" xlink:href="#_02"/><use width="12.42" height="25.21" transform="translate(122.09 398.98)" xlink:href="#_02"/><use width="12.42" height="25.21" transform="translate(179.97 427.09)" xlink:href="#_02"/><use width="12.42" height="25.21" transform="translate(216.19 427.09)" xlink:href="#_02"/><use width="12.42" height="25.21" transform="translate(228.26 427.09)" xlink:href="#_02"/><use width="12.42" height="25.21" transform="translate(133.52 371.9)" xlink:href="#_03"/><use width="12.42" height="25.21" transform="translate(133.74 398.98)" xlink:href="#_03"/><use width="12.42" height="25.21" transform="translate(192.04 427.09)" xlink:href="#_03"/><use width="12.42" height="25.21" transform="translate(204.12 427.09)" xlink:href="#_03"/><use width="12.42" height="25.21" transform="translate(121.02 371.9)" xlink:href="#_03"/><use width="12.42" height="25.21" transform="translate(265.08 221.7) scale(0.82 1)" xlink:href="#_02"/><use width="12.42" height="25.21" transform="translate(253.7 221.7) scale(0.82 1)" xlink:href="#_03"/><use width="12.42" height="25.21" transform="translate(242.32 221.7) scale(0.82 1)" xlink:href="#_03"/><use width="12.42" height="25.21" transform="translate(287.84 221.7) scale(0.82 1)" xlink:href="#_03"/><use width="12.42" height="25.21" transform="translate(276.46 221.7) scale(0.82 1)" xlink:href="#_03"/><use width="12.42" height="25.21" transform="translate(304.58 250.13)" xlink:href="#_02"/><use width="12.42" height="25.21" transform="translate(317 250.13)" xlink:href="#_03"/><use width="12.42" height="25.21" transform="translate(304.58 275.52)" xlink:href="#_02"/><use width="12.42" height="25.21" transform="translate(592.83 295.61)" xlink:href="#_02"/><use width="12.42" height="25.21" transform="translate(541.27 330.38)" xlink:href="#_02"/><use width="12.42" height="25.21" transform="translate(535.99 380.35) rotate(-90)" xlink:href="#_02"/><use width="12.42" height="25.21" transform="translate(535.99 250.01) rotate(-90)" xlink:href="#_02"/><use width="12.42" height="25.21" transform="translate(527.77 330.88)" xlink:href="#_02"/><use width="12.42" height="25.21" transform="translate(330.25 275.52)" xlink:href="#_02"/><use width="12.42" height="25.21" transform="translate(304.58 359.68)" xlink:href="#_02"/><use width="12.42" height="25.21" transform="translate(377.87 359.68)" xlink:href="#_02"/><use width="12.42" height="25.21" transform="translate(420.42 286.9)" xlink:href="#_02"/><use width="12.42" height="25.21" transform="translate(420.42 234.44)" xlink:href="#_02"/><use width="12.42" height="25.21" transform="translate(394.6 201.02) rotate(90)" xlink:href="#_02"/><use width="12.42" height="25.21" transform="translate(317 275.52)" xlink:href="#_03"/><use width="12.42" height="25.21" transform="translate(578.48 295.61)" xlink:href="#_03"/><use width="12.42" height="25.21" transform="translate(606.23 295.61)" xlink:href="#_03"/><use width="12.42" height="25.21" transform="translate(554.73 330.99)" xlink:href="#_03"/><use width="12.42" height="25.21" transform="translate(597.1 404.53)" xlink:href="#_03"/><use width="12.42" height="25.21" transform="translate(634.82 404.53)" xlink:href="#_03"/><use width="12.42" height="25.21" transform="translate(643.73 295.61)" xlink:href="#_03"/><use width="12.42" height="25.21" transform="translate(581.15 177.68)" xlink:href="#_03"/><use width="12.42" height="25.21" transform="translate(581.15 152.03)" xlink:href="#_03"/><use width="12.42" height="25.21" transform="translate(420.42 260.67)" xlink:href="#_03"/><use width="12.42" height="25.21" transform="translate(329.94 250.13)" xlink:href="#_03"/><use width="22" height="47.62" transform="translate(443.57 362.25)" xlink:href="#_01"/><rect class="cls-9" x="359.13" y="248.42" width="3.63" height="13.46"/><rect class="cls-9" x="364.88" y="248.42" width="3.63" height="13.46"/><rect class="cls-9" x="370.63" y="248.42" width="3.63" height="13.46"/><rect class="cls-9" x="376.38" y="248.42" width="3.63" height="13.46"/><rect class="cls-9" x="382.13" y="248.42" width="3.63" height="13.46"/><rect class="cls-9" x="387.88" y="248.42" width="3.63" height="13.46"/><rect class="cls-9" x="393.63" y="248.42" width="3.63" height="13.46"/><rect class="cls-9" x="399.38" y="248.42" width="3.63" height="13.46"/><rect class="cls-42" x="359.13" y="255.15" width="3.63" height="6.73"/><rect class="cls-42" x="364.88" y="255.15" width="3.63" height="6.73"/><rect class="cls-42" x="370.63" y="255.15" width="3.63" height="6.73"/><rect class="cls-42" x="376.38" y="255.15" width="3.63" height="6.73"/><rect class="cls-42" x="382.13" y="255.15" width="3.63" height="6.73"/><rect class="cls-42" x="387.88" y="255.15" width="3.63" height="6.73"/><rect class="cls-42" x="393.63" y="255.15" width="3.63" height="6.73"/><rect class="cls-42" x="399.38" y="255.15" width="3.63" height="6.73"/><rect class="cls-9" x="349.27" y="298.93" width="3.63" height="12.83" transform="translate(45.74 656.43) rotate(-90)"/><rect class="cls-9" x="349.27" y="293.18" width="3.63" height="12.83" transform="translate(51.49 650.68) rotate(-90)"/><rect class="cls-9" x="349.27" y="287.43" width="3.63" height="12.83" transform="translate(57.24 644.93) rotate(-90)"/><rect class="cls-9" x="349.27" y="281.68" width="3.63" height="12.83" transform="translate(62.99 639.18) rotate(-90)"/><rect class="cls-9" x="349.27" y="275.93" width="3.63" height="12.83" transform="translate(68.74 633.43) rotate(-90)"/><rect class="cls-9" x="349.27" y="270.18" width="3.63" height="12.83" transform="translate(74.49 627.68) rotate(-90)"/><rect class="cls-9" x="349.27" y="264.43" width="3.63" height="12.83" transform="translate(80.24 621.93) rotate(-90)"/><rect class="cls-9" x="349.27" y="258.68" width="3.63" height="12.83" transform="translate(85.99 616.18) rotate(-90)"/><rect class="cls-42" x="351.19" y="302.14" width="3.63" height="6.41" transform="translate(47.66 658.35) rotate(-90)"/><rect class="cls-42" x="351.19" y="296.39" width="3.63" height="6.41" transform="translate(53.41 652.6) rotate(-90)"/><rect class="cls-42" x="351.19" y="290.64" width="3.63" height="6.41" transform="translate(59.16 646.85) rotate(-90)"/><rect class="cls-42" x="351.19" y="284.89" width="3.63" height="6.41" transform="translate(64.91 641.1) rotate(-90)"/><rect class="cls-42" x="351.19" y="279.14" width="3.63" height="6.41" transform="translate(70.66 635.35) rotate(-90)"/><rect class="cls-42" x="351.19" y="273.39" width="3.63" height="6.41" transform="translate(76.41 629.6) rotate(-90)"/><rect class="cls-42" x="351.19" y="267.64" width="3.63" height="6.41" transform="translate(82.16 623.85) rotate(-90)"/><rect class="cls-42" x="351.19" y="261.89" width="3.63" height="6.41" transform="translate(87.91 618.1) rotate(-90)"/><rect class="cls-9" x="399.25" y="309.63" width="3.63" height="13.46" transform="translate(802.13 632.71) rotate(180)"/><rect class="cls-9" x="393.5" y="309.63" width="3.63" height="13.46" transform="translate(790.63 632.71) rotate(180)"/><rect class="cls-9" x="387.75" y="309.63" width="3.63" height="13.46" transform="translate(779.13 632.71) rotate(180)"/><rect class="cls-9" x="382" y="309.63" width="3.63" height="13.46" transform="translate(767.63 632.71) rotate(180)"/><rect class="cls-9" x="376.25" y="309.63" width="3.63" height="13.46" transform="translate(756.13 632.71) rotate(180)"/><rect class="cls-9" x="370.5" y="309.63" width="3.63" height="13.46" transform="translate(744.63 632.71) rotate(180)"/><rect class="cls-9" x="364.75" y="309.63" width="3.63" height="13.46" transform="translate(733.13 632.71) rotate(180)"/><rect class="cls-9" x="359" y="309.63" width="3.63" height="13.46" transform="translate(721.63 632.71) rotate(180)"/><rect class="cls-42" x="359.13" y="309.94" width="3.63" height="6.73"/><rect class="cls-42" x="364.88" y="309.94" width="3.63" height="6.73"/><rect class="cls-42" x="370.63" y="309.94" width="3.63" height="6.73"/><rect class="cls-42" x="376.38" y="309.94" width="3.63" height="6.73"/><rect class="cls-42" x="382.13" y="309.94" width="3.63" height="6.73"/><rect class="cls-42" x="387.88" y="309.94" width="3.63" height="6.73"/><rect class="cls-42" x="393.63" y="309.94" width="3.63" height="6.73"/><rect class="cls-42" x="399.38" y="309.94" width="3.63" height="6.73"/><rect class="cls-9" x="409.11" y="259.74" width="3.63" height="12.83" transform="translate(677.07 -144.76) rotate(90)"/><rect class="cls-9" x="409.11" y="265.49" width="3.63" height="12.83" transform="translate(682.82 -139.01) rotate(90)"/><rect class="cls-9" x="409.11" y="271.24" width="3.63" height="12.83" transform="translate(688.57 -133.26) rotate(90)"/><rect class="cls-9" x="409.11" y="276.99" width="3.63" height="12.83" transform="translate(694.32 -127.51) rotate(90)"/><rect class="cls-9" x="409.11" y="282.74" width="3.63" height="12.83" transform="translate(700.07 -121.76) rotate(90)"/><rect class="cls-9" x="409.11" y="288.49" width="3.63" height="12.83" transform="translate(705.82 -116.01) rotate(90)"/><rect class="cls-9" x="409.11" y="294.24" width="3.63" height="12.83" transform="translate(711.57 -110.26) rotate(90)"/><rect class="cls-9" x="409.11" y="299.99" width="3.63" height="12.83" transform="translate(717.32 -104.51) rotate(90)"/><rect class="cls-42" x="405.9" y="262.95" width="3.63" height="6.41" transform="translate(673.87 -141.56) rotate(90)"/><rect class="cls-42" x="405.9" y="268.7" width="3.63" height="6.41" transform="translate(679.62 -135.81) rotate(90)"/><rect class="cls-42" x="405.9" y="274.45" width="3.63" height="6.41" transform="translate(685.37 -130.06) rotate(90)"/><rect class="cls-42" x="405.9" y="280.2" width="3.63" height="6.41" transform="translate(691.12 -124.31) rotate(90)"/><rect class="cls-42" x="405.9" y="285.95" width="3.63" height="6.41" transform="translate(696.87 -118.56) rotate(90)"/><rect class="cls-42" x="405.9" y="291.7" width="3.63" height="6.41" transform="translate(702.62 -112.81) rotate(90)"/><rect class="cls-42" x="405.9" y="297.45" width="3.63" height="6.41" transform="translate(708.37 -107.06) rotate(90)"/><rect class="cls-42" x="405.9" y="303.2" width="3.63" height="6.41" transform="translate(714.12 -101.31) rotate(90)"/><rect class="cls-4" x="355" y="261.13" width="50.75" height="49.63"/><rect class="cls-5" x="356.82" y="262.88" width="47.11" height="46.06"/><circle class="cls-43" cx="412.39" cy="310.75" r="2.12"/><text class="cls-44" transform="translate(260.33 299.51)">PWR</text><text class="cls-45" transform="translate(17 295.69)">DC3.7~6V</text><text class="cls-44" transform="translate(353.84 212.79)">L</text><text class="cls-35" transform="translate(604.79 248.42)">IR_T</text><text class="cls-35" transform="translate(603.67 382.98)">IR_R</text><text class="cls-46" transform="translate(521.49 272.66)">Light<tspan x="0" y="14.56">Sensor</tspan></text><rect class="cls-9" x="241.39" y="149.51" width="3.63" height="13.46"/><rect class="cls-9" x="246.15" y="149.51" width="3.63" height="13.46"/><rect class="cls-9" x="250.9" y="149.51" width="3.63" height="13.46"/><rect class="cls-9" x="255.66" y="149.51" width="3.63" height="13.46"/><rect class="cls-9" x="260.42" y="149.51" width="3.63" height="13.46"/><rect class="cls-9" x="265.17" y="149.51" width="3.63" height="13.46"/><rect class="cls-9" x="269.93" y="149.51" width="3.63" height="13.46"/><rect class="cls-9" x="274.69" y="149.51" width="3.63" height="13.46"/><rect class="cls-9" x="279.44" y="149.51" width="3.63" height="13.46"/><rect class="cls-9" x="284.2" y="149.51" width="3.63" height="13.46"/><rect class="cls-9" x="288.96" y="149.51" width="3.63" height="13.46"/><rect class="cls-9" x="293.71" y="149.51" width="3.63" height="13.46"/><rect class="cls-9" x="241.39" y="202.14" width="3.63" height="13.46"/><rect class="cls-9" x="246.15" y="202.14" width="3.63" height="13.46"/><rect class="cls-9" x="250.9" y="202.14" width="3.63" height="13.46"/><rect class="cls-9" x="255.66" y="202.14" width="3.63" height="13.46"/><rect class="cls-9" x="260.42" y="202.14" width="3.63" height="13.46"/><rect class="cls-9" x="265.17" y="202.14" width="3.63" height="13.46"/><rect class="cls-9" x="269.93" y="202.14" width="3.63" height="13.46"/><rect class="cls-9" x="274.69" y="202.14" width="3.63" height="13.46"/><rect class="cls-9" x="279.44" y="202.14" width="3.63" height="13.46"/><rect class="cls-9" x="284.2" y="202.14" width="3.63" height="13.46"/><rect class="cls-9" x="288.96" y="202.14" width="3.63" height="13.46"/><rect class="cls-9" x="293.71" y="202.14" width="3.63" height="13.46"/><rect class="cls-42" x="241.39" y="156.24" width="3.63" height="10.72"/><rect class="cls-42" x="246.15" y="156.24" width="3.63" height="10.72"/><rect class="cls-42" x="250.9" y="156.24" width="3.63" height="10.72"/><rect class="cls-42" x="255.66" y="156.24" width="3.63" height="10.72"/><rect class="cls-42" x="260.42" y="156.24" width="3.63" height="10.72"/><rect class="cls-42" x="265.17" y="156.24" width="3.63" height="10.72"/><rect class="cls-42" x="269.93" y="156.24" width="3.63" height="10.72"/><rect class="cls-42" x="274.69" y="156.24" width="3.63" height="10.72"/><rect class="cls-42" x="279.44" y="156.24" width="3.63" height="10.72"/><rect class="cls-42" x="284.2" y="156.24" width="3.63" height="10.72"/><rect class="cls-42" x="288.96" y="156.24" width="3.63" height="10.72"/><rect class="cls-42" x="293.71" y="156.24" width="3.63" height="10.72"/><rect class="cls-42" x="241.39" y="198.15" width="3.63" height="10.72"/><rect class="cls-42" x="246.15" y="198.15" width="3.63" height="10.72"/><rect class="cls-42" x="250.9" y="198.15" width="3.63" height="10.72"/><rect class="cls-42" x="255.66" y="198.15" width="3.63" height="10.72"/><rect class="cls-42" x="260.42" y="198.15" width="3.63" height="10.72"/><rect class="cls-42" x="265.17" y="198.15" width="3.63" height="10.72"/><rect class="cls-42" x="269.93" y="198.15" width="3.63" height="10.72"/><rect class="cls-42" x="274.69" y="198.15" width="3.63" height="10.72"/><rect class="cls-42" x="279.44" y="198.15" width="3.63" height="10.72"/><rect class="cls-42" x="284.2" y="198.15" width="3.63" height="10.72"/><rect class="cls-42" x="288.96" y="198.15" width="3.63" height="10.72"/><rect class="cls-42" x="293.71" y="198.15" width="3.63" height="10.72"/><rect class="cls-4" x="240.48" y="161.28" width="58.52" height="44.61"/><text class="cls-47" transform="translate(288.19 184.49) rotate(180)">TB541A1<tspan x="0" y="10">6612FHG</tspan></text><rect class="cls-20" x="188.33" y="220.5" width="24.67" height="8.56"/><rect class="cls-48" x="188.33" y="251.55" width="24.67" height="7.86"/><rect class="cls-20" x="188.33" y="231.58" width="24.67" height="16.84"/><path class="cls-49" d="M205.45,223.38a4.89,4.89,0,0,1-8.35,3.34,5,5,0,0,1-1.42-3.34h-6.55v34.06h6.95a4.24,4.24,0,0,1,8.48,0H212V223.38Z"/><path class="cls-9" d="M204.5,223.38a3.94,3.94,0,1,1-7.87,0h-1.75a5.69,5.69,0,1,0,11.38,0Z"/><path class="cls-7" d="M205.47,257.44a4.91,4.91,0,0,0-9.82,0h1.51a3.4,3.4,0,1,1,6.8,0Z"/><rect class="cls-50" x="202.25" y="238.73" width="7.63" height="4.76" rx="1.19" ry="1.19"/><rect class="cls-50" x="191.84" y="238.73" width="7.63" height="4.76" rx="1.19" ry="1.19"/><line class="cls-50" x1="195.65" y1="238.94" x2="195.65" y2="243.49"/><rect class="cls-2" x="412.03" y="356.11" width="9.67" height="9.67"/><rect class="cls-9" x="415.26" y="356.26" width="5.44" height="9.63"/><polygon class="cls-51" points="392.65 404.37 402.53 413.52 434.31 413.52 442.48 405.35 442.48 364.87 393.22 365.62 392.65 404.37"/><circle class="cls-2" cx="416.28" cy="395.52" r="24.91"/><ellipse class="cls-26" cx="415.82" cy="397.94" rx="23.88" ry="22.49"/><path class="cls-5" d="M399.13,386.33a21.49,21.49,0,0,1,33.37,0Z"/><text class="cls-52" transform="translate(420.42 388.66) rotate(90)">220<tspan x="0" y="11">16V</tspan><tspan x="0" y="22">VT</tspan></text><text class="cls-53" transform="translate(403.78 441.51) rotate(-90)">A0</text><text class="cls-53" transform="translate(422.66 441.51) rotate(-90)">A1</text><text class="cls-53" transform="translate(440.41 441.51) rotate(-90)">A2</text><text class="cls-53" transform="translate(458.16 441.51) rotate(-90)">A3</text><text class="cls-53" transform="translate(477.41 441.51) rotate(-90)">SDA</text><text class="cls-53" transform="translate(496.03 441.51) rotate(-90)">SCL</text><text class="cls-54" transform="translate(531.24 168.15)">RGB<tspan x="0" y="11">LED1</tspan></text><text class="cls-54" transform="translate(531.24 448.09)">RGB<tspan x="0" y="11">LED2</tspan></text><text class="cls-54" transform="translate(597.74 126.15)">Button</text><use width="112.17" height="19.17" transform="translate(389.17 442.67)" xlink:href="#_06"/><text class="cls-53" transform="translate(403.54 190.61) rotate(-90)">12</text><text class="cls-53" transform="translate(422.42 190.61) rotate(-90)">11</text><text class="cls-53" transform="translate(440.17 190.61) rotate(-90)">10</text><text class="cls-35" transform="translate(457.92 183.63) rotate(-90)">9</text><text class="cls-53" transform="translate(477.17 191.42) rotate(-90)">5V</text><text class="cls-53" transform="translate(495.79 200.51) rotate(-90)">GND</text><use width="112.17" height="19.17" transform="translate(501.33 174.74) rotate(180)" xlink:href="#_06"/><text class="cls-40" transform="translate(348.03 470.68)">SCL</text><text class="cls-40" transform="translate(363.2 470.68)">S<tspan class="cls-41" x="4.85" y="0">D</tspan><tspan x="10" y="0">A</tspan></text><text class="cls-40" transform="translate(379.2 470.68)">GDH</text><text class="cls-40" transform="translate(396.37 470.68)">SV</text><text class="cls-40" transform="translate(409.87 470.68)">A0</text><text class="cls-40" transform="translate(424.03 470.68)">A1</text><polyline class="cls-20" points="349 487.25 349 476.5 437 476.5 437 487.25"/><line class="cls-20" x1="356.33" y1="476.5" x2="356.33" y2="472.83"/><line class="cls-20" x1="370.75" y1="476.5" x2="370.75" y2="472.83"/><line class="cls-20" x1="385.38" y1="476.5" x2="385.38" y2="472.83"/><line class="cls-20" x1="400.33" y1="476.5" x2="400.33" y2="472.83"/><line class="cls-20" x1="414.83" y1="476.5" x2="414.83" y2="472.83"/><line class="cls-20" x1="429.71" y1="476.5" x2="429.71" y2="472.83"/><text class="cls-40" transform="translate(452.3 470.68)">SCL</text><text class="cls-40" transform="translate(467.47 470.68)">S<tspan class="cls-41" x="4.85" y="0">D</tspan><tspan x="10" y="0">A</tspan></text><text class="cls-40" transform="translate(483.47 470.68)">GDH</text><text class="cls-40" transform="translate(500.64 470.68)">SV</text><text class="cls-40" transform="translate(514.14 470.68)">A2</text><text class="cls-40" transform="translate(528.3 470.68)">A3</text><polyline class="cls-20" points="453.27 487.25 453.27 476.5 541.27 476.5 541.27 487.25"/><line class="cls-20" x1="460.61" y1="476.5" x2="460.61" y2="472.83"/><line class="cls-20" x1="475.02" y1="476.5" x2="475.02" y2="472.83"/><line class="cls-20" x1="489.65" y1="476.5" x2="489.65" y2="472.83"/><line class="cls-20" x1="504.61" y1="476.5" x2="504.61" y2="472.83"/><line class="cls-20" x1="519.11" y1="476.5" x2="519.11" y2="472.83"/><line class="cls-20" x1="533.98" y1="476.5" x2="533.98" y2="472.83"/><rect class="cls-4" x="454.55" y="43.34" width="92.94" height="99.65" transform="translate(1002.03 186.32) rotate(180)"/><path class="cls-55" d="M457.3,100.74h34.87a7.38,7.38,0,0,1,7.38,7.38V143a0,0,0,0,1,0,0H457.3a0,0,0,0,1,0,0V100.74A0,0,0,0,1,457.3,100.74Z" transform="translate(956.84 243.72) rotate(180)"/><path class="cls-56" d="M506.93,100.74H541.8a0,0,0,0,1,0,0V143a0,0,0,0,1,0,0H499.55a0,0,0,0,1,0,0V108.12A7.38,7.38,0,0,1,506.93,100.74Z" transform="translate(1041.34 243.72) rotate(180)"/><path class="cls-22" d="M457.3,58.49h42.25a0,0,0,0,1,0,0V93.35a7.38,7.38,0,0,1-7.38,7.38H457.3a0,0,0,0,1,0,0V58.49A0,0,0,0,1,457.3,58.49Z" transform="translate(956.84 159.22) rotate(180)"/><path class="cls-22" d="M499.55,100.74H541.8V65.87a7.38,7.38,0,0,0-7.38-7.38H489Z"/><text class="cls-57" transform="translate(513.07 86.8) rotate(180)">2</text><text class="cls-58" transform="translate(513.07 86.8) rotate(180)">2</text><text class="cls-57" transform="translate(513.07 86.8) rotate(180)">2</text><rect class="cls-4" x="346.75" y="43.34" width="90.92" height="99.65" transform="translate(784.42 186.32) rotate(180)"/><path class="cls-55" d="M351,100.74h34.87a7.38,7.38,0,0,1,7.38,7.38V143a0,0,0,0,1,0,0H351a0,0,0,0,1,0,0V100.74A0,0,0,0,1,351,100.74Z" transform="translate(744.28 243.72) rotate(180)"/><path class="cls-56" d="M400.65,100.74h34.87a0,0,0,0,1,0,0V143a0,0,0,0,1,0,0H393.27a0,0,0,0,1,0,0V108.12A7.38,7.38,0,0,1,400.65,100.74Z" transform="translate(828.78 243.72) rotate(180)"/><path class="cls-22" d="M351,100.74h42.25l17.65-42.25H358.4A7.38,7.38,0,0,0,351,65.87Z"/><path class="cls-22" d="M393.27,58.49h42.25a0,0,0,0,1,0,0v42.25a0,0,0,0,1,0,0H400.65a7.38,7.38,0,0,1-7.38-7.38V58.49A0,0,0,0,1,393.27,58.49Z" transform="translate(828.78 159.22) rotate(180)"/><text class="cls-57" transform="translate(406.79 86.8) rotate(180)">1</text><text class="cls-58" transform="translate(406.79 86.8) rotate(180)">1</text><text class="cls-57" transform="translate(406.79 86.8) rotate(180)">1</text><rect class="cls-20" x="291.38" y="491.63" width="38.25" height="56"/><polygon class="cls-9" points="297.63 550.75 302.13 550.75 302.13 509.42 301.11 509.42 298.61 509.42 297.63 509.42 297.63 550.75"/><polygon class="cls-9" points="315.13 550.75 319.63 550.75 319.63 509.42 318.61 509.42 316.11 509.42 315.13 509.42 315.13 550.75"/><polygon class="cls-4" points="290.25 509.25 329 509.25 329 497.11 320.25 497.11 298.75 497.11 290.25 497.11 290.25 509.25"/><polygon class="cls-4" points="290.25 527.63 329 527.63 329 515.49 320.25 515.49 298.75 515.49 290.25 515.49 290.25 527.63"/><polygon class="cls-4" points="290.25 545.91 329 545.91 329 533.77 320.25 533.77 298.75 533.77 290.25 533.77 290.25 545.91"/><polygon class="cls-5" points="296 508.83 327.81 508.83 327.81 497.71 320.63 497.71 302.98 497.71 296 497.71 296 508.83"/><polygon class="cls-5" points="296 527.1 327.81 527.1 327.81 515.97 320.63 515.97 302.98 515.97 296 515.97 296 527.1"/><polygon class="cls-5" points="296 545.4 327.81 545.4 327.81 534.28 320.63 534.28 302.98 534.28 296 534.28 296 545.4"/><text class="cls-59" transform="translate(289.28 548.14) rotate(-90)">RST</text><text class="cls-59" transform="translate(338.78 548.14) rotate(-90)">GHD</text><text class="cls-59" transform="translate(338.78 504.39) rotate(-90)">SV</text><text class="cls-59" transform="translate(289.28 528.51) rotate(-90)">SCK</text><text class="cls-59" transform="translate(289.28 509.42) rotate(-90)">H1SO</text><text class="cls-59" transform="translate(339.31 530.08) rotate(-90)">HDS1</text><polyline class="cls-60" points="85.33 455.33 17 455.33 17 309.63 238.25 308.94 240.77 455.33"/><polygon class="cls-61" points="85.17 446.67 166.88 456 167.71 438.25 91.88 438.25 85.17 446.67"/><polyline class="cls-62" points="56 320.33 23.5 320.33 23.5 336.58 56 336.58 56 359.75 24.75 359.75 24.75 382.02 56 382.02 56 409.75 23.5 409.75 23.5 432.5 56 432.5"/><use width="14.55" height="16.83" transform="translate(180.75 318)" xlink:href="#_05"/><use width="14.55" height="16.83" transform="translate(199.83 318)" xlink:href="#_05"/><text class="cls-59" transform="translate(96.01 434.5)">TX</text><text class="cls-63" transform="translate(107.93 559.51)">RES<tspan class="cls-64" x="24.6" y="0">E</tspan><tspan x="32.36" y="0">T</tspan></text><text class="cls-65" transform="translate(78.2 416.42) rotate(-90)">Wireless<tspan x="8.27" y="14.94">Module</tspan></text><text class="cls-66" transform="translate(211.79 110.83) rotate(-90)">Motor<tspan x="0" y="10.92">Connecter</tspan></text><text class="cls-59" transform="translate(115.21 434.5)">RX</text><text class="cls-59" transform="translate(152.45 434.5)">5V</text><text class="cls-59" transform="translate(130.93 434.5)">GND</text><line class="cls-60" x1="166.88" y1="436.24" x2="91.88" y2="436.24"/><use width="22" height="47.62" transform="translate(343.27 418.32) rotate(-90)" xlink:href="#_01"/><use width="22" height="47.62" transform="translate(99.07 203.29) rotate(-90)" xlink:href="#_01"/><use width="22" height="47.62" transform="translate(171.07 216.89) rotate(-90)" xlink:href="#_01"/><use width="22" height="47.62" transform="translate(172.5 334.56) rotate(180) scale(0.59 0.47)" xlink:href="#_01"/><use width="22" height="47.62" transform="translate(594.91 428.33) rotate(180) scale(0.32 0.47)" xlink:href="#_01"/><use width="22" height="47.62" transform="translate(160.78 422.79) rotate(180) scale(0.59 0.47)" xlink:href="#_01"/><use width="21.68" height="25.35" transform="translate(298.99 221.7)" xlink:href="#_04"/><use width="21.68" height="25.35" transform="translate(85.17 148.41)" xlink:href="#_04"/><use width="21.68" height="25.35" transform="translate(116.83 148.41)" xlink:href="#_04"/><use width="21.68" height="25.35" transform="translate(620.35 294.02)" xlink:href="#_04"/><use width="21.68" height="25.35" transform="translate(611.68 404.46)" xlink:href="#_04"/><use width="21.68" height="25.35" transform="translate(219.71 221.7)" xlink:href="#_04"/><use width="21.68" height="25.35" transform="translate(146.89 342.91) rotate(90)" xlink:href="#_04"/><rect class="cls-9" x="165.25" y="409.75" width="5.38" height="12.21"/><rect class="cls-9" x="174.37" y="409.75" width="5.38" height="12.21"/><rect class="cls-9" x="183.49" y="409.75" width="5.38" height="12.21"/><rect class="cls-9" x="192.61" y="409.75" width="5.38" height="12.21"/><rect class="cls-9" x="201.73" y="409.75" width="5.38" height="12.21"/><rect class="cls-9" x="210.85" y="409.75" width="5.38" height="12.21"/><rect class="cls-9" x="219.97" y="409.75" width="5.38" height="12.21"/><rect class="cls-9" x="229.1" y="409.75" width="5.38" height="12.21"/><rect class="cls-42" x="165.25" y="407.64" width="5.38" height="9.21"/><rect class="cls-42" x="174.37" y="407.64" width="5.38" height="9.21"/><rect class="cls-42" x="183.49" y="407.64" width="5.38" height="9.21"/><rect class="cls-42" x="192.61" y="407.64" width="5.38" height="9.21"/><rect class="cls-42" x="201.73" y="407.64" width="5.38" height="9.21"/><rect class="cls-42" x="210.85" y="407.64" width="5.38" height="9.21"/><rect class="cls-42" x="219.97" y="407.64" width="5.38" height="9.21"/><rect class="cls-42" x="229.1" y="407.64" width="5.38" height="9.21"/><rect class="cls-9" x="165.25" y="372.29" width="5.38" height="12.21"/><rect class="cls-9" x="174.37" y="372.29" width="5.38" height="12.21"/><rect class="cls-9" x="183.49" y="372.29" width="5.38" height="12.21"/><rect class="cls-9" x="192.61" y="372.29" width="5.38" height="12.21"/><rect class="cls-9" x="201.73" y="372.29" width="5.38" height="12.21"/><rect class="cls-9" x="210.85" y="372.29" width="5.38" height="12.21"/><rect class="cls-9" x="219.97" y="372.29" width="5.38" height="12.21"/><rect class="cls-9" x="229.1" y="372.29" width="5.38" height="12.21"/><rect class="cls-42" x="165.25" y="379.39" width="5.38" height="9.21"/><rect class="cls-42" x="174.37" y="379.39" width="5.38" height="9.21"/><rect class="cls-42" x="183.49" y="379.39" width="5.38" height="9.21"/><rect class="cls-42" x="192.61" y="379.39" width="5.38" height="9.21"/><rect class="cls-42" x="201.73" y="379.39" width="5.38" height="9.21"/><rect class="cls-42" x="210.85" y="379.39" width="5.38" height="9.21"/><rect class="cls-42" x="219.97" y="379.39" width="5.38" height="9.21"/><rect class="cls-42" x="229.1" y="379.39" width="5.38" height="9.21"/><rect class="cls-4" x="163.32" y="384.5" width="71.18" height="25.25"/><rect class="cls-5" x="165.25" y="385.9" width="69.25" height="22.46"/><rect class="cls-9" x="99.58" y="255.17" width="5.38" height="12.21"/><rect class="cls-9" x="108.7" y="255.17" width="5.38" height="12.21"/><rect class="cls-9" x="117.82" y="255.17" width="5.38" height="12.21"/><rect class="cls-9" x="126.94" y="255.17" width="5.38" height="12.21"/><rect class="cls-9" x="136.07" y="255.17" width="5.38" height="12.21"/><rect class="cls-9" x="138.75" y="233.82" width="5.4" height="17.81"/><rect class="cls-42" x="99.58" y="253.06" width="5.38" height="9.21"/><rect class="cls-42" x="108.7" y="253.06" width="5.38" height="9.21"/><rect class="cls-42" x="117.82" y="253.06" width="5.38" height="9.21"/><rect class="cls-42" x="126.94" y="253.06" width="5.38" height="9.21"/><rect class="cls-42" x="136.07" y="253.06" width="5.38" height="9.21"/><rect class="cls-9" x="99.58" y="217.71" width="5.38" height="12.21"/><rect class="cls-9" x="108.7" y="217.71" width="5.38" height="12.21"/><rect class="cls-9" x="117.82" y="217.71" width="5.38" height="12.21"/><rect class="cls-9" x="126.94" y="217.71" width="5.38" height="12.21"/><rect class="cls-9" x="136.07" y="217.71" width="5.38" height="12.21"/><rect class="cls-42" x="99.58" y="224.81" width="5.38" height="9.21"/><rect class="cls-42" x="108.7" y="224.81" width="5.38" height="9.21"/><rect class="cls-42" x="117.82" y="224.81" width="5.38" height="9.21"/><rect class="cls-42" x="126.94" y="224.81" width="5.38" height="9.21"/><rect class="cls-42" x="136.07" y="224.81" width="5.38" height="9.21"/><rect class="cls-4" x="99" y="229.92" width="42.47" height="25.25"/><rect class="cls-5" x="100.15" y="231.32" width="41.32" height="22.46"/><rect class="cls-8" x="326.75" y="360.29" width="12.56" height="23.71"/><rect class="cls-9" x="318.5" y="362.25" width="28.5" height="4.97"/><rect class="cls-9" x="318.5" y="369.17" width="28.5" height="4.97"/><rect class="cls-9" x="318.5" y="376.1" width="28.5" height="4.97"/><rect class="cls-42" x="322.34" y="362.25" width="18.66" height="4.97"/><rect class="cls-42" x="322.34" y="369.17" width="18.66" height="4.97"/><rect class="cls-42" x="322.34" y="376.1" width="18.66" height="4.97"/><rect class="cls-4" x="326.13" y="361.58" width="12" height="21.4"/><rect class="cls-5" x="327.82" y="362.85" width="6.85" height="18.52"/><polygon class="cls-67" points="167.71 438.25 159.72 446.67 159.72 463.5 166.88 456 167.71 438.25"/><rect class="cls-4" x="85.17" y="446.67" width="74.56" height="16.83"/><use width="14.55" height="16.83" transform="translate(89.45 446.67)" xlink:href="#_05"/><use width="14.55" height="16.83" transform="translate(107.93 446.67)" xlink:href="#_05"/><use width="14.55" height="16.83" transform="translate(126.97 446.67)" xlink:href="#_05"/><use width="14.55" height="16.83" transform="translate(145.17 446.67)" xlink:href="#_05"/><rect class="cls-20" x="158.2" y="149.8" width="24.67" height="8.56"/><rect class="cls-48" x="158.2" y="180.85" width="24.67" height="7.86"/><rect class="cls-20" x="158.2" y="160.87" width="24.67" height="16.84"/><path class="cls-68" d="M175.32,152.67A4.89,4.89,0,0,1,167,156a5,5,0,0,1-1.42-3.34H159v34.06h6.95a4.24,4.24,0,0,1,8.48,0h7.45V152.67Z"/><rect class="cls-49" x="158.99" y="160.87" width="22.88" height="16.43"/><path class="cls-69" d="M174.37,152.67a3.94,3.94,0,0,1-7.87,0h-1.75a5.69,5.69,0,0,0,11.38,0Z"/><path class="cls-69" d="M175.34,186.73a4.91,4.91,0,0,0-9.82,0H167a3.4,3.4,0,1,1,6.8,0Z"/><text class="cls-70" transform="translate(180.41 165.69) rotate(180)">11<tspan class="cls-71" x="9.66" y="0">5</tspan><tspan x="13.98" y="0">C</tspan></text><path class="cls-68" d="M628.26,54.82A22.68,22.68,0,1,0,650.94,77.5,22.68,22.68,0,0,0,628.26,54.82Zm0,38.82A16.14,16.14,0,1,1,644.4,77.5,16.14,16.14,0,0,1,628.26,93.64Z"/><path class="cls-68" d="M46.18,54.82A22.68,22.68,0,1,0,68.86,77.5,22.68,22.68,0,0,0,46.18,54.82Zm0,38.82A16.14,16.14,0,1,1,62.32,77.5,16.14,16.14,0,0,1,46.18,93.64Z"/><path class="cls-68" d="M628.26,517.16a22.68,22.68,0,1,0,22.68,22.68A22.68,22.68,0,0,0,628.26,517.16Zm0,38.82a16.14,16.14,0,1,1,16.14-16.14A16.14,16.14,0,0,1,628.26,556Z"/><path class="cls-68" d="M46.18,517.16a22.68,22.68,0,1,0,22.68,22.68A22.68,22.68,0,0,0,46.18,517.16Zm0,38.82a16.14,16.14,0,1,1,16.14-16.14A16.14,16.14,0,0,1,46.18,556Z"/><rect class="cls-20" x="192.87" y="262.28" width="37.69" height="21.88"/><rect class="cls-22" x="213.8" y="265.66" width="2.94" height="15.1"/><rect class="cls-22" x="207.12" y="265.66" width="2.94" height="15.1"/><rect class="cls-72" x="192.87" y="262.28" width="31.45" height="21.88"/><rect class="cls-2" x="186.63" y="266.55" width="50.38" height="13.45"/><polygon class="cls-9" points="236.29 278.41 188.03 278.41 188.03 269.03 236.29 272.38 236.29 278.41"/><rect class="cls-4" x="204.13" y="266.13" width="14.79" height="13.88"/><text class="cls-73" transform="translate(208.59 270.7) rotate(90)">0</text><use width="14.55" height="16.83" transform="translate(218.92 318)" xlink:href="#_05"/><rect class="cls-2" x="236.04" y="349.71" width="14.08" height="9.67" transform="translate(-111.46 597.62) rotate(-90)"/><rect class="cls-2" x="147.3" y="349.65" width="14.08" height="8.19" transform="translate(-199.41 508.09) rotate(-90)"/><rect class="cls-9" x="239.09" y="352.66" width="5.12" height="9.46" transform="translate(-115.73 599.05) rotate(-90)"/><rect class="cls-9" x="152.22" y="353.09" width="5.12" height="8.02" transform="translate(-202.32 511.88) rotate(-90)"/><rect class="cls-74" x="181.5" y="311.67" width="34.33" height="84.17" transform="translate(-155.08 552.42) rotate(-90)"/><rect class="cls-7" x="183.08" y="315.25" width="31.33" height="78" rx="15.67" ry="15.67" transform="translate(-155.5 553) rotate(-90)"/><rect class="cls-75" x="184.12" y="317.03" width="29.69" height="76.09" rx="14.73" ry="14.73" transform="translate(-156.11 554.04) rotate(-90)"/><path class="cls-76" d="M172.89,347.12c-7.45.64-9.57,11.14-9.57,11.14,0-6.38,3.38-15,12.23-15h48a11.55,11.55,0,0,1,11.55,11.55h0c0,4.32-4,15.28-15.54,15.28,1.9-2.27,7.38-6.95,4.48-10.82-2.21-3,5.52-12.75-17.15-12.29Z"/><path class="cls-77" d="M167.84,346.28c-3.18,3.09-4.52,8-4.52,12,0,0,1.32-6.53,5.54-9.6A19.17,19.17,0,0,1,167.84,346.28Z"/><path class="cls-77" d="M232.81,347.87a20.27,20.27,0,0,1-9.15,8.3c-.06,1.27-.1,2.39.43,3.1,2.89,3.87-2.59,8.54-4.48,10.82,11.55,0,15.54-11,15.54-15.28A11.49,11.49,0,0,0,232.81,347.87Z"/><rect class="cls-78" x="185.8" y="324.23" width="23.11" height="68.07" rx="11.55" ry="11.55" transform="translate(-160.91 555.62) rotate(-90)"/><rect class="cls-2" x="442.33" y="315.5" width="14.08" height="9.67"/><rect class="cls-2" x="442.33" y="226.73" width="14.08" height="8.19"/><path class="cls-9" d="M442.63,313.67h13.5a0,0,0,0,1,0,0v2.52a6.75,6.75,0,0,1-6.75,6.75h0a6.75,6.75,0,0,1-6.75-6.75v-2.52A0,0,0,0,1,442.63,313.67Z"/><path class="cls-9" d="M449.37,228.59h0a6.75,6.75,0,0,1,6.75,6.75v1.1a0,0,0,0,1,0,0h-13.5a0,0,0,0,1,0,0v-1.1A6.75,6.75,0,0,1,449.37,228.59Z"/><rect class="cls-2" x="433" y="233.83" width="34.33" height="84.17"/><rect class="cls-79" x="434" y="234.92" width="30.75" height="80.08"/><rect class="cls-80" x="434" y="237" width="31.33" height="78" rx="15.67" ry="15.67"/><path class="cls-81" d="M459.2,241.84A11.5,11.5,0,0,1,461,245.5l.41,3.06a11.83,11.83,0,0,1-11.51,11.51h-.24a11.46,11.46,0,0,1-5.81-1.57l-2.33-1.8a11.5,11.5,0,0,1-3-5.08l-.41-3.06a8.67,8.67,0,0,1,1-4.43,8.55,8.55,0,0,1,1.3-2.48,15,15,0,0,0-5.82,11.89v44.93A15,15,0,0,0,440,310c-2.21-6.73,1.29-15.58,10.47-15.58,8.24,0,11.89,7.1,11,13.42a15,15,0,0,0,3.31-9.41V253.53A15,15,0,0,0,459.2,241.84Z"/><rect class="cls-82" x="435.67" y="240.41" width="28" height="72.9" rx="14" ry="14"/><path class="cls-81" d="M449.67,240.41h0a14,14,0,0,0-14,14v44.9a14,14,0,0,0,14,14h0a14,14,0,0,0,14-14v-44.9A14,14,0,0,0,449.67,240.41Zm-.17.39c15.41,0,15.39,23.91,0,23.91S434.11,240.79,449.5,240.79Zm.5,71.79c-15.41,0-15.39-23.91,0-23.91S465.39,312.58,450,312.58Z"/><rect class="cls-83" x="438.11" y="243.8" width="23.11" height="68.07" rx="11.55" ry="11.55"/><text class="cls-84" transform="translate(454.29 305.03) rotate(-90)">JF<tspan class="cls-85" x="13.03" y="0"> </tspan><tspan class="cls-86" x="12.64" y="0">1</tspan><tspan x="17.2" y="0">6.000</tspan></text><rect class="cls-20" x="234.13" y="58.38" width="22.72" height="47.38"/><path class="cls-87" d="M265.65,124.79h-.08v7.63h-5.24v-7.63H250.07v7.63h-8.38v-7.63H231.43v7.63h-5.24V107h39.46Z"/><path class="cls-7" d="M232.42,124.79h8.06a0,0,0,0,1,0,0v3.59a4,4,0,0,1-4,4h0a4,4,0,0,1-4-4v-3.59a0,0,0,0,1,0,0Z"/><path class="cls-7" d="M251.63,124.79h8.06a0,0,0,0,1,0,0v3.59a4,4,0,0,1-4,4h0a4,4,0,0,1-4-4v-3.59a0,0,0,0,1,0,0Z"/><path class="cls-6" d="M236.2,124.79h-3.78v3.59a4,4,0,0,0,4.85,3.95A7.82,7.82,0,0,1,236.2,124.79Z"/><path class="cls-6" d="M254.83,124.79h-3.2v3.59a4,4,0,0,0,4,4l.28,0A7.81,7.81,0,0,1,254.83,124.79Z"/><polygon class="cls-88" points="228.38 102.63 263.5 102.63 265.65 107 226.19 107 228.38 102.63"/><path class="cls-87" d="M245.75,42h0a8.16,8.16,0,0,1,8.12,8.27V105l-16.25-.14V50.12A8.12,8.12,0,0,1,245.75,42Z"/><rect class="cls-20" x="280.79" y="58.38" width="22.72" height="47.38"/><path class="cls-87" d="M312.31,124.79h-.08v7.63H307v-7.63H296.73v7.63h-8.38v-7.63H278.09v7.63h-5.24V107h39.46Z"/><path class="cls-7" d="M279.08,124.79h8.06a0,0,0,0,1,0,0v3.59a4,4,0,0,1-4,4h0a4,4,0,0,1-4-4v-3.59a0,0,0,0,1,0,0Z"/><path class="cls-7" d="M298.29,124.79h8.06a0,0,0,0,1,0,0v3.59a4,4,0,0,1-4,4h0a4,4,0,0,1-4-4v-3.59a0,0,0,0,1,0,0Z"/><path class="cls-6" d="M282.86,124.79h-3.78v3.59a4,4,0,0,0,4.85,3.95A7.82,7.82,0,0,1,282.86,124.79Z"/><path class="cls-6" d="M301.49,124.79h-3.2v3.59a4,4,0,0,0,4,4l.28,0A7.81,7.81,0,0,1,301.49,124.79Z"/><polygon class="cls-88" points="275.04 102.63 310.16 102.63 312.31 107 272.85 107 275.04 102.63"/><path class="cls-87" d="M292.41,42h0a8.16,8.16,0,0,1,8.12,8.27V105l-16.25-.14V50.12A8.12,8.12,0,0,1,292.41,42Z"/><text class="cls-89" transform="translate(330.74 128.6) rotate(180)">M1</text><text class="cls-89" transform="translate(73.67 126.15) rotate(90)">B+</text><text class="cls-89" transform="translate(73.67 177.55) rotate(90)">B-</text><text class="cls-89" transform="translate(229.49 128.6) rotate(180)">M2</text><rect class="cls-90" x="346.75" y="43.34" width="90.92" height="7.16"/><rect class="cls-5" x="353.84" y="43.34" width="73.91" height="4.41"/><rect class="cls-5" x="372.14" y="45.54" width="35.69" height="3.95"/><rect class="cls-90" x="454.55" y="43.34" width="92.94" height="7.16"/><rect class="cls-5" x="461.37" y="43.34" width="75.92" height="4.41"/><rect class="cls-5" x="480.17" y="45.54" width="36.66" height="3.95"/><rect class="cls-2" x="273" y="356.11" width="9.67" height="9.67"/><path class="cls-2" d="M273,411.74h9.67a0,0,0,0,1,0,0v7a2.63,2.63,0,0,1-2.63,2.63h-4.42a2.63,2.63,0,0,1-2.63-2.63v-7A0,0,0,0,1,273,411.74Z"/><rect class="cls-9" x="276.23" y="356.26" width="5.44" height="9.63"/><path class="cls-9" d="M276.23,411.64h5.44a0,0,0,0,1,0,0v7.66a2,2,0,0,1-2,2h-1.51a2,2,0,0,1-2-2v-7.66A0,0,0,0,1,276.23,411.64Z"/><polygon class="cls-51" points="303.13 373.94 293.25 364.78 261.47 364.78 253.3 372.95 253.3 413.44 302.56 412.69 303.13 373.94"/><circle class="cls-2" cx="277.65" cy="393.02" r="24.91"/><ellipse class="cls-26" cx="277.18" cy="395.44" rx="23.88" ry="22.49"/><path class="cls-5" d="M293.86,407.05a21.49,21.49,0,0,1-33.37,0Z"/><text class="cls-52" transform="translate(272.58 404.72) rotate(-90)">220<tspan x="0" y="11">16V</tspan><tspan x="0" y="22">VT</tspan></text><rect class="cls-4" x="349" y="481.87" width="89.95" height="12.57"/><rect class="cls-91" x="349" y="490.02" width="89.95" height="99.65"/><path class="cls-55" d="M394.08,501.67h34.87a7.38,7.38,0,0,1,7.38,7.38v34.87a0,0,0,0,1,0,0H394.08a0,0,0,0,1,0,0V501.67A0,0,0,0,1,394.08,501.67Z"/><path class="cls-56" d="M359.22,501.67h34.87a0,0,0,0,1,0,0v42.25a0,0,0,0,1,0,0H351.83a0,0,0,0,1,0,0V509.05A7.38,7.38,0,0,1,359.22,501.67Z"/><path class="cls-22" d="M394.08,543.92h42.25a0,0,0,0,1,0,0v34.87a7.38,7.38,0,0,1-7.38,7.38H394.08a0,0,0,0,1,0,0V543.92A0,0,0,0,1,394.08,543.92Z"/><path class="cls-4" d="M351.83,543.92h42.25a0,0,0,0,1,0,0v42.25a0,0,0,0,1,0,0H359.22a7.38,7.38,0,0,1-7.38-7.38V543.92A0,0,0,0,1,351.83,543.92Z"/><text class="cls-57" transform="translate(380.56 557.86)">4</text><text class="cls-58" transform="translate(380.56 557.86)">4</text><text class="cls-57" transform="translate(380.56 557.86)">4</text><rect class="cls-4" x="455.39" y="481.87" width="89.95" height="12.57"/><rect class="cls-91" x="455.28" y="490.02" width="88" height="99.65"/><path class="cls-55" d="M500.36,501.67h34.87a7.38,7.38,0,0,1,7.38,7.38v34.87a0,0,0,0,1,0,0H500.36a0,0,0,0,1,0,0V501.67A0,0,0,0,1,500.36,501.67Z"/><path class="cls-56" d="M465.5,501.67h34.87a0,0,0,0,1,0,0v42.25a0,0,0,0,1,0,0H458.11a0,0,0,0,1,0,0V509.05A7.38,7.38,0,0,1,465.5,501.67Z"/><path class="cls-22" d="M500.36,543.92h42.25a0,0,0,0,1,0,0v34.87a7.38,7.38,0,0,1-7.38,7.38H500.36a0,0,0,0,1,0,0V543.92A0,0,0,0,1,500.36,543.92Z"/><path class="cls-5" d="M458.11,543.92h42.25a0,0,0,0,1,0,0v42.25a0,0,0,0,1,0,0H465.5a7.38,7.38,0,0,1-7.38-7.38V543.92A0,0,0,0,1,458.11,543.92Z"/><text class="cls-57" transform="translate(486.84 557.86)">3</text><text class="cls-58" transform="translate(486.84 557.86)">3</text><text class="cls-57" transform="translate(486.84 557.86)">3</text><circle class="cls-92" cx="175.52" cy="498.67" r="7.12"/><circle class="cls-68" cx="266.43" cy="498.67" r="10.75" transform="translate(-258.92 707.62) rotate(-83.57)"/><circle class="cls-92" cx="265.46" cy="498.67" r="7.12"/><path class="cls-68" d="M175.83,505.32a7.06,7.06,0,0,1,.25-13.38v-3.79a10.73,10.73,0,0,0-.25,21Z"/><polygon class="cls-93" points="175.52 471.76 175.52 583.5 260.33 583.5 264.58 569.57 264.58 457.83 179.77 457.83 175.52 471.76"/><rect class="cls-94" x="175.52" y="471.76" width="84.82" height="111.74"/><polygon class="cls-95" points="247 583.5 260.33 583.5 260.33 471.76 175.52 471.76 175.52 472.83 217.25 472.83 247 583.5"/><polyline class="cls-60" points="264.58 483.25 268.5 483.25 268.5 455.33 167.94 455.33"/><line class="cls-96" x1="175.52" y1="499.15" x2="260.33" y2="499.15"/><path class="cls-97" d="M310.94,422H338.6l2.83-2.83V391.46l-2.83-2.83H310.94l-2.83,2.83v27.66Z"/><path class="cls-98" d="M316,391.83h17.6a16,16,0,0,1,7.27,13.44c0,5.62-2.86,13.23-7.24,16.1L316,418.71a16.05,16.05,0,0,1,0-26.88Z"/><path class="cls-99" d="M315.76,392h17.6a16,16,0,0,1,7.27,13.44c0,5.62-2.86,13.23-7.24,16.1l-17.63-2.66a16.05,16.05,0,0,1,0-26.88Z"/><path class="cls-100" d="M332.06,396.22l1.3-4.18c3.82,2.71,6.39,8.27,6.39,15.18,0,5.31-2.53,11.65-6.35,14.36H318a15.48,15.48,0,0,1-6.35-12.68C311.66,403.59,328.24,398.93,332.06,396.22Z"/><path class="cls-101" d="M315.35,396.22H332a15.15,15.15,0,0,1,0,25.36H315.35a15.15,15.15,0,0,1,0-25.36Z"/><text class="cls-102" transform="translate(313.41 413.56)">4<tspan class="cls-103" x="5.69" y="0">R</tspan><tspan x="11.78" y="0">T</tspan></text><rect class="cls-104" x="337.93" y="405.88" width="4.41" height="3.76"/><rect class="cls-104" x="307.68" y="405.88" width="2.46" height="3.76"/><rect class="cls-105" x="337.93" y="407.08" width="4.41" height="2.24"/><rect class="cls-105" x="307.68" y="407.08" width="2.46" height="2.24"/><rect class="cls-20" x="14.01" y="115.86" width="23.75" height="11.66" rx="3.51" ry="3.51"/><rect class="cls-22" x="37.76" y="119.42" width="2.58" height="4.59"/><rect class="cls-20" x="14.01" y="195.54" width="23.75" height="11.66" rx="3.51" ry="3.51"/><rect class="cls-22" x="37.76" y="199.1" width="2.58" height="4.59"/><polyline class="cls-20" points="27.58 115.86 23.83 121.33 29.25 121.33 24.08 127.52"/><rect class="cls-106" x="24.17" y="136.5" width="34.75" height="50.12"/><rect class="cls-9" x="51.33" y="162.67" width="27.33" height="10.58"/><rect class="cls-9" x="51.33" y="149.15" width="27.33" height="10.58"/><rect class="cls-107" x="51.33" y="162.67" width="15.05" height="10.58"/><rect class="cls-107" x="51.33" y="149.15" width="15.05" height="10.58"/><rect class="cls-2" x="51.33" y="151.53" width="24.31" height="5.29"/><rect class="cls-2" x="51.33" y="163.98" width="24.31" height="5.29"/><path class="cls-108" d="M54.5,140.65v43.21l14.33.5v7.25H14.34v-6.16H9.26V139.86h5.08v-7.25H68.83v7.25Z"/><rect class="cls-109" x="24.17" y="175.86" width="22.58" height="4.58"/><rect class="cls-109" x="24.17" y="145.59" width="22.58" height="4.58"/><rect class="cls-110" x="10.67" y="141.42" width="3.34" height="16.33"/><rect class="cls-68" x="98.5" y="110.83" width="16.71" height="22.5" rx="8.35" ry="8.35"/><rect class="cls-108" x="100.59" y="113.79" width="12.53" height="16.88" rx="6.27" ry="6.27"/><path class="cls-111" d="M90.8,40.26V78.13a3.93,3.93,0,0,0,3.93,3.93H128a3.93,3.93,0,0,0,3.93-3.93V68.9a6.46,6.46,0,0,1,6.66-6.46,6.64,6.64,0,0,1,6.26,6.73v9a3.93,3.93,0,0,0,3.93,3.93H182A3.93,3.93,0,0,0,186,78.13V40.26Zm29.14,36.36H101.7V65h18.25Zm55.12,0H156.82V65h18.25Z"/><rect class="cls-112" x="90.63" y="43.25" width="95.34" height="1.13"/><rect class="cls-113" x="90.63" y="40.17" width="95.34" height="3.65"/><rect class="cls-5" x="115.88" y="41.13" width="49.13" height="0.88"/><path class="cls-5" d="M149.81,4h0C155.67,4,165,6,165,11.85V42H134.63V11.85C134.63,6,144,4,149.81,4Z"/><polyline class="cls-20" points="94.95 90.83 94.95 97 187.67 97 187.67 89.67"/><polyline class="cls-20" points="128.74 99 124.53 103.2 129 107.67"/><polyline class="cls-114" points="155.02 99 160.33 103.2 154.68 107.67"/><line class="cls-114" x1="124.54" y1="103.2" x2="160.33" y2="103.2"/><text class="cls-115" transform="translate(117.69 110.83) rotate(90)">ON</text><text class="cls-115" transform="translate(152.45 110.83) rotate(90)">OFF</text><polygon class="cls-68" points="109.28 127.63 103.17 126.32 103.52 115.15 106.85 113.79 109.28 127.63"/><rect class="cls-108" x="103.18" y="89.67" width="3.67" height="35.83"/><rect class="cls-116" x="103.18" y="89.67" width="3.67" height="11.71"/><rect class="cls-116" x="103.18" y="113.85" width="3.67" height="11.71"/><rect class="cls-68" x="166.16" y="110.83" width="16.71" height="22.5" rx="8.35" ry="8.35" transform="translate(349.03 244.16) rotate(-180)"/><rect class="cls-108" x="168.25" y="113.79" width="12.53" height="16.88" rx="6.27" ry="6.27" transform="translate(349.03 244.45) rotate(-180)"/><polygon class="cls-68" points="172.09 127.63 178.19 126.32 177.85 115.15 174.51 113.79 172.09 127.63"/><rect class="cls-108" x="174.52" y="89.67" width="3.67" height="35.83" transform="translate(352.71 215.17) rotate(180)"/><rect class="cls-116" x="174.52" y="89.67" width="3.67" height="11.71" transform="translate(352.71 191.04) rotate(180)"/><rect class="cls-116" x="174.52" y="113.85" width="3.67" height="11.71" transform="translate(352.71 239.42) rotate(180)"/><rect class="cls-68" x="132.33" y="110.83" width="16.71" height="22.5" rx="8.35" ry="8.35"/><rect class="cls-108" x="134.42" y="113.79" width="12.53" height="16.88" rx="6.27" ry="6.27"/><rect class="cls-108" x="137.64" y="89.67" width="3.67" height="35.83"/><rect class="cls-116" x="137.64" y="89.67" width="3.67" height="11.71"/><rect class="cls-116" x="137.64" y="113.85" width="3.67" height="11.71"/><rect class="cls-117" x="96.01" y="521.56" width="63.74" height="6.96" rx="3.48" ry="3.48"/><path class="cls-118" d="M149.1,520.79v-3a4.07,4.07,0,0,0-4.07-4.07h-35a4.07,4.07,0,0,0-4.07,4.07V520h0a5.53,5.53,0,0,1,2.7,3h0a6.74,6.74,0,0,1,.39,1.6v0a7.08,7.08,0,0,1,0,1.64v0a6.75,6.75,0,0,1-.39,1.6h0a5.54,5.54,0,0,1-2.7,3v2.69a4.07,4.07,0,0,0,4.07,4.07h35a4.07,4.07,0,0,0,4.07-4.07v-2.94a5.9,5.9,0,0,1-1.41-2.45A6.64,6.64,0,0,1,149.1,520.79Z"/><rect class="cls-119" x="110.37" y="516.13" width="33.51" height="18.75" rx="2.76" ry="2.76"/><path class="cls-120" d="M118.06,534.67c.19-1.89.47-3.76.5-5.67,0-.18,0-.36,0-.54a69.64,69.64,0,0,1-8.14,3.59l-.09,0v0a2.76,2.76,0,0,0,2.76,2.76h4.93C118.06,534.81,118.06,534.74,118.06,534.67Z"/><path class="cls-120" d="M136.9,530.89a6.54,6.54,0,0,1,.49,4h3.72a2.76,2.76,0,0,0,2.67-2.07A18.85,18.85,0,0,1,136.9,530.89Z"/><polygon class="cls-121" points="117.62 522.25 135.63 522.38 141.11 516.13 113.13 516.13 117.62 522.25"/><rect class="cls-118" x="116.63" y="520.67" width="20.03" height="10.46" rx="2.17" ry="2.17"/><ellipse class="cls-1" cx="618.45" cy="467.58" rx="35.04" ry="35.71"/><path class="cls-122" d="M620.28,434.5c-18.74,0-33.93,15.69-33.93,35s15.19,35,33.93,35,33.93-15.69,33.93-35S639,434.5,620.28,434.5Zm-.12,67.43c-18.65,0-32.45-15.24-33.26-33.26s15.86-33.26,33.26-33.26c18.65,0,32.45,15.24,33.26,33.26S637.56,501.93,620.17,501.93Z"/><circle class="cls-123" cx="620.28" cy="472.83" r="31.75"/><circle class="cls-122" cx="619.74" cy="472.83" r="31.2"/><circle class="cls-5" cx="620.28" cy="472.83" r="5.25"/><ellipse class="cls-122" cx="620.97" cy="472.17" rx="3.83" ry="4.08"/><circle class="cls-124" cx="600.75" cy="475.36" r="7.78"/><line class="cls-124" x1="595.41" y1="476.25" x2="604.66" y2="474.75"/><line class="cls-124" x1="600.78" y1="480.13" x2="599.28" y2="470.87"/><circle class="cls-9" cx="599.32" cy="327.05" r="5.76"/><circle class="cls-2" cx="598.77" cy="327.09" r="4.96"/><path class="cls-125" d="M618.43,335.45a15.87,15.87,0,1,0,15.87,15.87A15.87,15.87,0,0,0,618.43,335.45Zm0,28.14a12.27,12.27,0,1,1,12.27-12.27A12.27,12.27,0,0,1,618.43,363.59Z"/><path class="cls-126" d="M628.59,339.14a23.88,23.88,0,0,1,3.35,11.2,20.17,20.17,0,0,1-6.13,15,15.86,15.86,0,0,0,2.79-26.23Z"/><circle class="cls-127" cx="618.43" cy="351.32" r="10.27"/><rect class="cls-1" x="588.12" y="327.09" width="28.25" height="37.09"/><path class="cls-128" d="M618.07,367.19H594.52V326.64h23.55l5.25,5.25v30.05Z"/><rect class="cls-125" x="594.62" y="331.8" width="9.5" height="40.56"/><path class="cls-122" d="M619,372.35H604.12V331.8H619l4.29,4.29v32Z"/><rect class="cls-22" x="527.67" y="393.5" width="36.83" height="35.5"/><rect class="cls-2" x="530.83" y="382.84" width="10.25" height="10.25"/><rect class="cls-2" x="552.92" y="382.84" width="10.25" height="10.25"/><rect class="cls-2" x="530.83" y="429" width="10.25" height="7.33"/><rect class="cls-2" x="552.92" y="429" width="10.25" height="7.33"/><rect class="cls-9" x="556.89" y="382.96" width="5.12" height="10.25"/><rect class="cls-9" x="556.89" y="429.12" width="5.12" height="7.33"/><rect class="cls-9" x="535.21" y="382.96" width="5.12" height="10.25"/><rect class="cls-9" x="535.21" y="429.12" width="5.12" height="7.33"/><circle class="cls-23" cx="546.08" cy="410.94" r="14.17"/><rect class="cls-24" x="544.75" y="413.16" width="5" height="6.53"/><use width="36.83" height="53.62" transform="translate(527.67 182.06)" xlink:href="#LED"/><use width="44.72" height="76.81" transform="translate(600.08 133.56)" xlink:href="#New_Symbol"/><use width="39" height="42.08" transform="translate(529.1 289.47)" xlink:href="#Lediti_led"/><path class="cls-22" d="M17.11,195.55h.35a0,0,0,0,1,0,0V207.2a0,0,0,0,1,0,0h-.35a2.9,2.9,0,0,1-2.9-2.9v-5.85A2.9,2.9,0,0,1,17.11,195.55Z"/><rect class="cls-22" x="24.21" y="195.56" width="3.25" height="11.65"/><rect class="cls-22" x="19.21" y="195.56" width="3.25" height="11.65"/><rect class="cls-22" x="29.21" y="195.56" width="3.25" height="11.65"/><path class="cls-22" d="M34.21,195.56H35a2.5,2.5,0,0,1,2.5,2.5v6.65a2.5,2.5,0,0,1-2.5,2.5h-.75a0,0,0,0,1,0,0V195.56A0,0,0,0,1,34.21,195.56Z"/></g></g></svg>