<svg xmlns="http://www.w3.org/2000/svg" xmlns:xlink="http://www.w3.org/1999/xlink" viewBox="0 0 734 519.67"><defs><style>.cls-1,.cls-14,.cls-18,.cls-19,.cls-26,.cls-36,.cls-37,.cls-42,.cls-43,.cls-45,.cls-46,.cls-48,.cls-58,.cls-63,.cls-64,.cls-69,.cls-72,.cls-73,.cls-77,.cls-79,.cls-8,.cls-86,.cls-92,.cls-93,.cls-94{fill:none;}.cls-1,.cls-14,.cls-18,.cls-36,.cls-37,.cls-42,.cls-43,.cls-48,.cls-58,.cls-63,.cls-69,.cls-73,.cls-77,.cls-79,.cls-86{stroke:#fff;}.cls-1,.cls-14,.cls-18,.cls-19,.cls-26,.cls-36,.cls-37,.cls-42,.cls-43,.cls-45,.cls-46,.cls-48,.cls-52,.cls-63,.cls-64,.cls-69,.cls-72,.cls-73,.cls-79,.cls-8,.cls-86,.cls-92,.cls-93,.cls-94{stroke-miterlimit:10;}.cls-1{stroke-width:0.5px;}.cls-2{fill:#9d9d9c;}.cls-3{fill:#c6c6c6;}.cls-4{fill:#3c3c3b;}.cls-5,.cls-53,.cls-67{fill:#1d1d1b;}.cls-6{fill:#fff4bf;}.cls-7{fill:#d5b681;}.cls-46,.cls-8,.cls-92,.cls-93,.cls-94{stroke:#fff1f2;}.cls-9{fill:#bebebe;}.cls-10{fill:#b0b0b0;}.cls-11{fill:#e7e7e7;}.cls-12{fill:#605b5c;}.cls-13{fill:#473d2d;}.cls-14{stroke-width:0.91px;}.cls-15{fill:#6f7070;}.cls-16{fill:#cdad79;}.cls-17{fill:#dfc68b;}.cls-19{stroke:#e6007e;stroke-width:0.5px;}.cls-20,.cls-54,.cls-71,.cls-78,.cls-84,.cls-85,.cls-87,.cls-96{fill:#fff;}.cls-21{fill:#f0f0f0;}.cls-22{fill:#5a462e;}.cls-23{fill:#363636;}.cls-24{fill:#d4d3d4;}.cls-25{fill:#6b6867;}.cls-26{stroke:#807f80;stroke-width:0.86px;}.cls-27{fill:#797a7a;}.cls-28{fill:#3d4341;}.cls-29{fill:#636463;}.cls-30{fill:#2b291d;}.cls-31{fill:#b10d20;}.cls-32{fill:#cf0b10;}.cls-33{fill:#0e0f0d;}.cls-34{isolation:isolate;}.cls-35{fill:#020300;}.cls-36{stroke-width:0.97px;}.cls-37{stroke-width:0.96px;}.cls-38{fill:#494949;}.cls-39{fill:#2d2d2c;}.cls-40{font-size:13.25px;fill:#616160;font-family:Roboto-Thin, Roboto;}.cls-41{fill:#784a11;}.cls-42{stroke-width:1.22px;}.cls-43{stroke-width:1.23px;}.cls-44{fill:#4a3f3f;}.cls-45{stroke:#d5b681;}.cls-46{stroke-width:0.85px;}.cls-47{fill:#979798;}.cls-48{stroke-width:0.96px;}.cls-49{fill:#e0b352;}.cls-50,.cls-51{fill:#e3e2e2;}.cls-51{font-size:8.6px;font-family:Roboto-Regular, Roboto;}.cls-52,.cls-66{fill:#353132;}.cls-52{stroke:#676062;stroke-width:1.13px;}.cls-53{font-size:15.65px;}.cls-53,.cls-67{font-family:RobotoCondensed-Regular, Roboto Condensed;}.cls-54{font-size:7.49px;}.cls-54,.cls-71,.cls-78,.cls-87,.cls-96{font-family:AkkuratMonoPro-Regular, Akkurat Mono Pro;}.cls-55{fill:#525151;}.cls-56{fill:#c6463a;}.cls-57,.cls-58{font-size:45.42px;font-family:RobotoCondensed-Bold, Roboto Condensed;}.cls-57,.cls-58,.cls-84,.cls-85{font-weight:700;}.cls-58{stroke-width:4px;}.cls-59{fill:#eccf96;}.cls-60{fill:#554d44;}.cls-61{fill:#9f9074;}.cls-62{fill:#b0a38b;}.cls-63{stroke-width:0.94px;}.cls-64{stroke:#554d44;stroke-width:0.75px;}.cls-65{fill:#676062;}.cls-67{font-size:26.72px;}.cls-68{fill:#d6a96f;}.cls-69{stroke-width:0.45px;}.cls-70{fill:#484849;}.cls-71{font-size:10.87px;}.cls-72{stroke:#1d1d1b;stroke-width:1.48px;}.cls-73{stroke-width:0.96px;}.cls-74{fill:#00b8f4;}.cls-75{fill:#fec900;}.cls-76,.cls-77{font-size:47.28px;font-family:Impact, Impact;}.cls-77{stroke-width:4.16px;}.cls-78{font-size:8px;letter-spacing:-0.1em;}.cls-79{stroke-width:1.53px;}.cls-80{fill:#c5c3c4;}.cls-80,.cls-88,.cls-90{mix-blend-mode:multiply;}.cls-81{fill:#ebebeb;}.cls-82,.cls-90{fill:#d0d0d0;}.cls-83{fill:#7a7a79;}.cls-84{font-size:7.81px;}.cls-84,.cls-85{font-family:Roboto-Bold, Roboto;}.cls-85{font-size:11.55px;}.cls-86{stroke-width:1.64px;}.cls-87{font-size:11.49px;}.cls-88{fill:#b7b8b8;}.cls-89{fill:#c3c3c4;}.cls-91{fill:#1f2c40;}.cls-92{stroke-width:0.57px;}.cls-93{stroke-width:0.61px;}.cls-94{stroke-width:1.08px;}.cls-95{fill:#292927;}.cls-96{font-size:12.72px;}.cls-97{fill:#c69b50;}</style><symbol id="_02" data-name="02" viewBox="0 0 12.42 25.21"><rect class="cls-6" x="3.08" y="6.42" width="6.5" height="15.17"/><rect class="cls-7" x="5.07" y="6.42" width="4.52" height="15.17"/><rect class="cls-2" x="2.67" y="5.25" width="7.33" height="5.83"/><rect class="cls-2" x="2.67" y="16.42" width="7.33" height="5.83"/><rect class="cls-8" x="0.5" y="0.5" width="11.42" height="24.21" rx="2.64" ry="2.64"/><rect class="cls-9" x="3.47" y="5.7" width="5.72" height="4.94"/><rect class="cls-9" x="3.47" y="16.86" width="5.72" height="4.94"/></symbol><symbol id="_03" data-name="03" viewBox="0 0 12.42 25.21"><rect class="cls-12" x="3.08" y="6.42" width="6.5" height="15.17"/><rect class="cls-13" x="4.98" y="6.42" width="4.6" height="15.17"/><rect class="cls-2" x="2.67" y="5.25" width="7.33" height="5.83"/><rect class="cls-2" x="2.67" y="16.42" width="7.33" height="5.83"/><rect class="cls-9" x="3.66" y="5.7" width="5.72" height="4.94"/><rect class="cls-9" x="3.66" y="16.86" width="5.72" height="4.94"/><rect class="cls-8" x="0.5" y="0.5" width="11.42" height="24.21" rx="2.64" ry="2.64"/></symbol><symbol id="_06" data-name="06" viewBox="0 0 112.17 19.17"><rect class="cls-16" x="3.17" y="3.83" width="12.67" height="11.33"/><circle class="cls-16" cx="27.75" cy="9.17" r="5.74"/><circle class="cls-16" cx="46.28" cy="9.17" r="5.74"/><circle class="cls-16" cx="64.81" cy="9.17" r="5.74"/><circle class="cls-16" cx="83.35" cy="9.17" r="5.74"/><circle class="cls-16" cx="101.88" cy="9.17" r="5.74"/><path class="cls-17" d="M15.83,8.47V3.83H3.17v5Q9.5,8.71,15.83,8.47Z"/><path class="cls-17" d="M33.31,7.75a5.74,5.74,0,0,0-11.22.48Z"/><path class="cls-17" d="M51.6,7a5.74,5.74,0,0,0-10.79.43Q46.2,7.2,51.6,7Z"/><path class="cls-17" d="M61.93,6.66q4-.11,8-.18a5.74,5.74,0,0,0-10.27.25Z"/><path class="cls-17" d="M88.37,6.39a5.74,5.74,0,0,0-10,0Q83.35,6.35,88.37,6.39Z"/><path class="cls-17" d="M107,6.68a5.74,5.74,0,0,0-10.24-.2Q101.93,6.55,107,6.68Z"/><path class="cls-17" d="M100.1,14.62a5.67,5.67,0,0,0,3.33.07Z"/><rect class="cls-18" x="0.5" y="0.5" width="111.17" height="18.17"/><circle class="cls-5" cx="9.5" cy="9.17" r="3.5"/><circle class="cls-5" cx="27.75" cy="9.17" r="3.5"/><circle class="cls-5" cx="46.28" cy="9.17" r="3.5"/><circle class="cls-5" cx="64.81" cy="9.17" r="3.5"/><circle class="cls-5" cx="83.35" cy="9.17" r="3.5"/><circle class="cls-5" cx="101.88" cy="9.17" r="3.5"/></symbol><symbol id="_01" data-name="01" viewBox="0 0 22 47.62"><path class="cls-1" d="M20.82,42.8,1.75,43a1,1,0,0,1-1-.93L.25,5.85a1,1,0,0,1,.94-1l19.07-.21a1,1,0,0,1,1,.93l.55,36.23A1,1,0,0,1,20.82,42.8Z"/><rect class="cls-2" x="3.99" y="38.43" width="13.46" height="9.19"/><polygon class="cls-2" points="4.06 9.34 17.52 9.19 17.38 0 3.92 0.15 4.06 9.34"/><rect class="cls-3" x="8.76" y="37.07" width="3.99" height="7.99" rx="1.99" ry="1.99"/><path class="cls-3" d="M10.83,11.68h0a2,2,0,0,0,1.93-2l0-4a2,2,0,0,0-2.06-2h0a2,2,0,0,0-1.93,2l0,4A2,2,0,0,0,10.83,11.68Z"/><polygon class="cls-4" points="2 41.28 20.1 41.08 19.59 7.68 1.49 7.89 2 41.28"/><polygon class="cls-5" points="3.7 40.37 18.36 40.21 17.89 8.6 3.23 8.76 3.7 40.37"/></symbol><symbol id="LED" data-name="LED" viewBox="0 0 36.83 53.62"><circle class="cls-19" cy="42.96"/><polygon class="cls-20" points="36.83 7.46 0 7.46 0 42.96 36.83 42.96 36.83 7.46"/><polygon class="cls-2" points="23.42 43.37 33.67 43.37 33.67 53.62 23.42 53.62 23.42 43.37"/><polygon class="cls-2" points="1.33 43.37 11.58 43.37 11.58 53.62 1.33 53.62 1.33 43.37"/><polygon class="cls-2" points="23.42 0.12 33.67 0.12 33.67 7.46 23.42 7.46 23.42 0.12"/><polygon class="cls-2" points="1.33 0.12 11.58 0.12 11.58 7.46 1.33 7.46 1.33 0.12"/><polygon class="cls-9" points="2.49 43.25 7.61 43.25 7.61 53.5 2.49 53.5 2.49 43.25"/><polygon class="cls-9" points="2.49 0 7.61 0 7.61 7.33 2.49 7.33 2.49 0"/><polygon class="cls-9" points="24.17 43.25 29.29 43.25 29.29 53.5 24.17 53.5 24.17 43.25"/><polygon class="cls-9" points="24.17 0 29.29 0 29.29 7.33 24.17 7.33 24.17 0"/><circle class="cls-21" cx="18.42" cy="25.51" r="14.17"/><polygon class="cls-22" points="19.75 16.77 14.75 16.77 14.75 23.3 19.75 23.3 19.75 16.77"/></symbol><symbol id="New_Symbol_3" data-name="New Symbol 3" viewBox="0 0 44.72 76.81"><rect class="cls-9" x="0.43" width="8.65" height="22.85"/><rect class="cls-2" x="4.76" width="4.56" height="22.85"/><rect class="cls-9" x="33.75" width="8.65" height="22.85"/><rect class="cls-2" x="38.08" width="4.56" height="22.85"/><path class="cls-21" d="M42.9,32.17V50.91a2.61,2.61,0,0,1,1.81,2.48v7A2.62,2.62,0,0,1,42.1,63h-7a2.61,2.61,0,0,1-2.16-1.15H11.8A2.61,2.61,0,0,1,9.63,63h-7A2.62,2.62,0,0,1,0,60.41v-7a2.62,2.62,0,0,1,2.62-2.62h.1V32.31h-.1A2.62,2.62,0,0,1,0,29.7v-7a2.62,2.62,0,0,1,2.62-2.62h7a2.61,2.61,0,0,1,2.42,1.63H32.66a2.61,2.61,0,0,1,2.42-1.62h7a2.62,2.62,0,0,1,2.62,2.62v7A2.61,2.61,0,0,1,42.9,32.17Z"/><rect class="cls-9" x="0.43" y="59.75" width="8.65" height="17.06"/><rect class="cls-2" x="4.76" y="59.75" width="4.56" height="17.06"/><rect class="cls-27" x="0.43" y="59.87" width="8.65" height="5.73"/><rect class="cls-9" x="33.75" y="59.75" width="8.65" height="17.06"/><rect class="cls-2" x="38.08" y="59.75" width="4.56" height="17.06"/><rect class="cls-27" x="33.75" y="59.87" width="8.65" height="5.73"/><path class="cls-28" d="M42.47,32.17V50.91a2.61,2.61,0,0,1,1.81,2.48v7A2.62,2.62,0,0,1,41.67,63H35a2.61,2.61,0,0,1-2.16-1.15H11.73A2.61,2.61,0,0,1,9.56,63H3A2.62,2.62,0,0,1,.43,60.41v-7A2.62,2.62,0,0,1,3,50.77h.1V32.31H3A2.62,2.62,0,0,1,.43,29.7v-7A2.62,2.62,0,0,1,3,20.06H9.56A2.61,2.61,0,0,1,12,21.69H32.59A2.61,2.61,0,0,1,35,20.06h6.66a2.62,2.62,0,0,1,2.62,2.62v7A2.61,2.61,0,0,1,42.47,32.17Z"/><circle class="cls-29" cx="6.26" cy="56.93" r="3.05"/><circle class="cls-29" cx="38.92" cy="56.93" r="3.05"/><circle class="cls-2" cx="22.84" cy="41.58" r="15.35"/><circle class="cls-30" cx="22.71" cy="41.72" r="13.98"/><circle class="cls-31" cx="22.71" cy="41.72" r="13.17"/><circle class="cls-32" cx="22.71" cy="41.72" r="12.17"/><circle class="cls-29" cx="6.26" cy="25.9" r="3.05"/><circle class="cls-33" cx="6.26" cy="25.9" r="2.46"/><circle class="cls-29" cx="38.92" cy="25.9" r="3.05"/><circle class="cls-33" cx="38.92" cy="25.9" r="2.46"/><circle class="cls-33" cx="6.26" cy="57.05" r="2.46"/><circle class="cls-33" cx="38.92" cy="57.05" r="2.46"/></symbol><symbol id="Lediti_led" data-name="Lediti led" viewBox="0 0 39 42.08"><path class="cls-23" d="M19.5,41.83A19.27,19.27,0,0,1,.25,22.58V15.74C.25,7.2,8.89.25,19.5.25S38.75,7.2,38.75,15.74v6.84A19.27,19.27,0,0,1,19.5,41.83Z"/><path class="cls-24" d="M19.5.5c10.49,0,19,6.82,19,15.24v6.84a19,19,0,0,1-38,0V15.74C.5,7.32,9,.5,19.5.5m0-.5C8.75,0,0,7.06,0,15.74v6.84a19.5,19.5,0,0,0,39,0V15.74C39,7.06,30.25,0,19.5,0Z"/><path class="cls-25" d="M29.32,2.71A22.48,22.48,0,0,0,19.5.5a22.14,22.14,0,0,0-11.22,3,19.72,19.72,0,0,1,4.1,5.15A18.16,18.16,0,0,1,26.2,8.34,18.39,18.39,0,0,1,29.32,2.71Z"/><line class="cls-26" x1="19.5" y1="7.79" x2="19.5" y2="39.57"/><line class="cls-26" x1="15.25" y1="7.79" x2="15.25" y2="39.57"/><line class="cls-26" x1="11" y1="7.79" x2="11" y2="39.57"/><line class="cls-26" x1="6.75" y1="11.95" x2="6.75" y2="35.41"/><path class="cls-24" d="M19.5,5.78C9,5.78.5,13.8.5,23.68s8.51,17.9,19,17.9,19-8,19-17.9S30,5.78,19.5,5.78Zm0,33.78c-9.32,0-16.87-7.11-16.87-15.89S10.18,7.79,19.5,7.79s16.87,7.11,16.87,15.89S28.82,39.57,19.5,39.57Z"/><circle class="cls-7" cx="9.95" cy="22.94" r="6.14"/><circle class="cls-7" cx="28.06" cy="22.94" r="6.14"/><circle class="cls-6" cx="9.95" cy="22.94" r="4.34"/><circle class="cls-6" cx="28.06" cy="22.94" r="4.34"/></symbol><symbol id="_04" data-name="04" viewBox="0 0 21.68 25.35"><path class="cls-14" d="M15.22,3.92h5.5v7.41H18.43m-15.18,0H1V3.92H6.53"/><rect class="cls-15" x="9.78" y="5.25" width="2.12" height="7.12"/><rect class="cls-9" x="0.01" y="18.22" width="7.12" height="7.12"/><rect class="cls-9" x="14.45" y="18.22" width="7.12" height="7.12"/><rect class="cls-2" y="18.22" width="4.35" height="5.24"/><rect class="cls-2" x="14.41" y="18.22" width="4.35" height="5.24"/><rect class="cls-9" x="7.28" width="7.12" height="7.12"/><rect class="cls-15" x="9.36" y="0.04" width="2.44" height="2.44"/><rect class="cls-4" x="0.01" y="10.09" width="21.67" height="8.13"/><rect class="cls-5" x="2.09" y="10.78" width="17.34" height="6.75"/></symbol><symbol id="_02_2" data-name="02 2" viewBox="0 0 7.33 17"><rect class="cls-6" x="0.42" y="1.17" width="6.5" height="15.17"/><rect class="cls-7" x="2.4" y="1.17" width="4.52" height="15.17"/><rect class="cls-2" width="7.33" height="5.83"/><rect class="cls-2" y="11.17" width="7.33" height="5.83"/><rect class="cls-9" x="0.81" y="0.45" width="5.72" height="4.94"/><rect class="cls-9" x="0.81" y="11.61" width="5.72" height="4.94"/></symbol><symbol id="_03_2" data-name="03 2" viewBox="0 0 7.33 17"><rect class="cls-12" x="0.42" y="1.17" width="6.5" height="15.17"/><rect class="cls-13" x="2.31" y="1.17" width="4.6" height="15.17"/><rect class="cls-2" width="7.33" height="5.83"/><rect class="cls-2" y="11.17" width="7.33" height="5.83"/><rect class="cls-9" x="0.99" y="0.45" width="5.72" height="4.94"/><rect class="cls-9" x="0.99" y="11.61" width="5.72" height="4.94"/></symbol><symbol id="_02_3" data-name="02 3" viewBox="0 0 7.33 17"><rect class="cls-10" x="0.42" y="1.17" width="6.5" height="15.17"/><rect class="cls-11" x="2.4" y="1.17" width="4.52" height="15.17"/><rect class="cls-2" width="7.33" height="5.83"/><rect class="cls-2" y="11.17" width="7.33" height="5.83"/><rect class="cls-9" x="0.81" y="0.45" width="5.72" height="4.94"/><rect class="cls-9" x="0.81" y="11.61" width="5.72" height="4.94"/></symbol></defs><title>M Bot Core</title><g class="cls-34"><g id="Layer_6" data-name="Layer 6"><rect class="cls-35" x="35.84" y="11.55" width="689.9" height="463.11"/></g><g id="Layer_2" data-name="Layer 2"><polyline class="cls-36" points="196.25 121.67 194.57 243.17 36 243.17"/><polygon class="cls-37" points="146.88 465.8 146.88 423.01 100.25 423.01 95.62 428.29 95.62 461.17 99.5 466.54 146.88 465.8"/><rect class="cls-38" x="99.75" y="424.36" width="45.85" height="39.6"/><rect class="cls-39" x="139.35" y="424.31" width="6.78" height="44.47"/><rect class="cls-37" x="150.02" y="381.44" width="50.65" height="40.81"/><rect class="cls-4" x="151.98" y="386.83" width="45.78" height="36.18"/><rect class="cls-39" x="187.72" y="386.83" width="8.53" height="36.18"/><text class="cls-40" transform="translate(185.17 399.65) rotate(180)">SS54</text><rect class="cls-41" x="185.26" y="331.88" width="18.04" height="42.05"/><path class="cls-7" d="M299.83,250.5v10.71h10.71V250.5Zm5.5,8.76c-5.06,0-5-7.85,0-7.85S310.38,259.26,305.33,259.26Z"/><use width="12.42" height="25.21" transform="translate(248.07 179.79) rotate(-90)" xlink:href="#_02"/><use width="12.42" height="25.21" transform="translate(242.32 348.09) rotate(-90) scale(0.86)" xlink:href="#_02"/><use width="12.42" height="25.21" transform="translate(315.8 288.52) rotate(180) scale(1.12 1)" xlink:href="#_02"/><use width="12.42" height="25.21" transform="translate(244.94 373.44) rotate(180) scale(1.12 1)" xlink:href="#_02"/><use width="12.42" height="25.21" transform="translate(300.78 285.99) rotate(180) scale(0.8 0.84)" xlink:href="#_02"/><use width="12.42" height="25.21" transform="translate(220.91 179.79) rotate(-90)" xlink:href="#_03"/><use width="12.42" height="25.21" transform="translate(257.23 372.11) rotate(180) scale(0.83)" xlink:href="#_03"/><rect class="cls-42" x="181.76" y="328.61" width="24.67" height="12.67"/><rect class="cls-43" x="181.76" y="363.76" width="24.67" height="12.9"/><rect class="cls-18" x="181.76" y="343.79" width="24.67" height="16.84"/><path class="cls-44" d="M198.87,335.59a4.89,4.89,0,0,1-8.35,3.34,5,5,0,0,1-1.42-3.34h-6.55v34.06h6.95a4.24,4.24,0,0,1,8.48,0h7.45V335.59Z"/><path class="cls-9" d="M197.93,335.59a3.94,3.94,0,1,1-7.87,0H188.3a5.69,5.69,0,1,0,11.38,0Z"/><path class="cls-7" d="M198.9,369.65a4.91,4.91,0,0,0-9.82,0h1.51a3.4,3.4,0,0,1,6.8,0Z"/><path class="cls-7" d="M89.4,470.4a6.11,6.11,0,0,0-12.22,0h1.88a4.23,4.23,0,0,1,8.46,0Z"/><rect class="cls-45" x="195.68" y="350.94" width="7.63" height="4.76" rx="1.19" ry="1.19"/><rect class="cls-45" x="185.26" y="350.94" width="7.63" height="4.76" rx="1.19" ry="1.19"/><line class="cls-45" x1="189.08" y1="351.15" x2="189.08" y2="355.7"/><rect class="cls-46" x="200.97" y="143.39" width="9.18" height="23.71"/><rect class="cls-9" x="197.74" y="145.35" width="15.22" height="4.97"/><rect class="cls-9" x="197.74" y="152.27" width="15.22" height="4.97"/><rect class="cls-9" x="197.74" y="159.2" width="15.22" height="4.97"/><rect class="cls-47" x="199.79" y="145.35" width="9.96" height="4.97"/><rect class="cls-47" x="199.79" y="152.27" width="9.96" height="4.97"/><rect class="cls-47" x="199.79" y="159.2" width="9.96" height="4.97"/><rect class="cls-4" x="200.51" y="144.68" width="8.77" height="21.4"/><rect class="cls-5" x="201.75" y="145.95" width="5.01" height="18.52"/><rect class="cls-2" x="170.48" y="428.74" width="20.86" height="36.6"/><rect class="cls-18" x="168.54" y="427.46" width="24.67" height="8.56"/><rect class="cls-48" x="168.54" y="458.51" width="24.67" height="7.86"/><rect class="cls-18" x="168.54" y="438.54" width="24.67" height="16.84"/><path class="cls-49" d="M185.65,430.34a4.89,4.89,0,0,1-8.35,3.34,5,5,0,0,1-1.42-3.34h-6.55V464.4h6.95a4.24,4.24,0,0,1,8.48,0h7.45V430.34Z"/><rect class="cls-44" x="169.33" y="436.91" width="22.88" height="21.96"/><path class="cls-50" d="M184.7,430.34a3.94,3.94,0,0,1-7.87,0h-1.75a5.69,5.69,0,0,0,11.38,0Z"/><path class="cls-50" d="M185.68,464.4a4.91,4.91,0,1,0-9.82,0h1.51a3.4,3.4,0,1,1,6.8,0Z"/><text class="cls-51" transform="translate(183.89 455.48) rotate(-90)">350</text><rect class="cls-2" x="195.88" y="250.04" width="10.91" height="10.91"/><path class="cls-2" d="M195.88,312.84h10.91a0,0,0,0,1,0,0v8a3,3,0,0,1-3,3h-5a3,3,0,0,1-3-3v-8A0,0,0,0,1,195.88,312.84Z"/><rect class="cls-9" x="199.52" y="250.2" width="6.14" height="10.87"/><path class="cls-9" d="M199.52,312.73h6.14a0,0,0,0,1,0,0v8.65a2.22,2.22,0,0,1-2.22,2.22h-1.7a2.22,2.22,0,0,1-2.22-2.22v-8.65A0,0,0,0,1,199.52,312.73Z"/><polygon class="cls-52" points="229.88 270.17 218.74 259.83 182.85 259.83 173.63 269.05 173.63 314.76 229.24 313.92 229.88 270.17"/><circle class="cls-2" cx="201.12" cy="291.71" r="28.12"/><ellipse class="cls-24" cx="200.59" cy="294.44" rx="26.96" ry="25.39"/><path class="cls-5" d="M219.43,307.55a24.27,24.27,0,0,1-37.67,0Z"/><text class="cls-53" transform="translate(195.4 304.92) rotate(-90)">470<tspan x="0" y="12.42">16V</tspan><tspan x="0" y="24.84">VT</tspan></text><rect class="cls-2" x="253.59" y="250.04" width="10.91" height="10.91"/><path class="cls-2" d="M253.59,312.84h10.91a0,0,0,0,1,0,0v8a3,3,0,0,1-3,3h-5a3,3,0,0,1-3-3v-8A0,0,0,0,1,253.59,312.84Z"/><rect class="cls-9" x="257.23" y="250.2" width="6.14" height="10.87"/><path class="cls-9" d="M257.23,312.73h6.14a0,0,0,0,1,0,0v8.65a2.22,2.22,0,0,1-2.22,2.22h-1.7a2.22,2.22,0,0,1-2.22-2.22v-8.65A0,0,0,0,1,257.23,312.73Z"/><polygon class="cls-52" points="287.6 270.17 276.45 259.83 240.57 259.83 231.34 269.05 231.34 314.76 286.95 313.92 287.6 270.17"/><circle class="cls-2" cx="258.83" cy="291.71" r="28.12"/><ellipse class="cls-24" cx="258.31" cy="294.44" rx="26.96" ry="25.39"/><path class="cls-5" d="M277.14,307.55a24.27,24.27,0,0,1-37.67,0Z"/><text class="cls-53" transform="translate(253.12 304.92) rotate(-90)">470<tspan x="0" y="12.42">16V</tspan><tspan x="0" y="24.84">VT</tspan></text><text class="cls-54" transform="translate(206.85 383.34)">SCL</text><text class="cls-54" transform="translate(222.06 383.34)">SDA</text><text class="cls-54" transform="translate(238.03 383.34)">V-M</text><text class="cls-54" transform="translate(253.95 383.34)">GND</text><text class="cls-54" transform="translate(269.31 383.34)">5</text><text class="cls-54" transform="translate(282.95 383.34)">4</text><polyline class="cls-37" points="210.62 399.53 210.62 388.78 292.18 388.78 292.18 399.53"/><line class="cls-37" x1="217.41" y1="388.78" x2="217.41" y2="385.12"/><line class="cls-37" x1="230.78" y1="388.78" x2="230.78" y2="385.12"/><line class="cls-37" x1="244.34" y1="388.78" x2="244.34" y2="385.12"/><line class="cls-37" x1="258.2" y1="388.78" x2="258.2" y2="385.12"/><line class="cls-37" x1="271.64" y1="388.78" x2="271.64" y2="385.12"/><line class="cls-37" x1="285.42" y1="388.78" x2="285.42" y2="385.12"/><text class="cls-54" transform="translate(305.54 383.34)">SCL</text><text class="cls-54" transform="translate(320.74 383.34)">SDA</text><text class="cls-54" transform="translate(336.72 383.34)">V-M</text><text class="cls-54" transform="translate(352.64 383.34)">GND</text><text class="cls-54" transform="translate(368 383.34)">5</text><text class="cls-54" transform="translate(381.64 383.34)">4</text><polyline class="cls-37" points="309.3 399.53 309.3 388.78 390.87 388.78 390.87 399.53"/><line class="cls-37" x1="316.1" y1="388.78" x2="316.1" y2="385.12"/><line class="cls-37" x1="329.46" y1="388.78" x2="329.46" y2="385.12"/><line class="cls-37" x1="343.02" y1="388.78" x2="343.02" y2="385.12"/><line class="cls-37" x1="356.88" y1="388.78" x2="356.88" y2="385.12"/><line class="cls-37" x1="370.32" y1="388.78" x2="370.32" y2="385.12"/><line class="cls-37" x1="384.11" y1="388.78" x2="384.11" y2="385.12"/><rect class="cls-4" x="197.53" y="394.57" width="89.95" height="12.57"/><rect class="cls-55" x="197.53" y="402.71" width="89.95" height="99.65"/><path class="cls-56" d="M284.87,421.74v69.73a7.38,7.38,0,0,1-7.38,7.38H207.75a7.38,7.38,0,0,1-7.38-7.38V421.74a7.38,7.38,0,0,1,7.38-7.38h69.73A7.38,7.38,0,0,1,284.87,421.74Z"/><text class="cls-57" transform="translate(230.22 474.84)">1</text><text class="cls-58" transform="translate(230.22 474.84)">1</text><text class="cls-57" transform="translate(230.22 474.84)">1</text><rect class="cls-4" x="307.22" y="394.57" width="89.95" height="12.57"/><rect class="cls-55" x="307.22" y="402.71" width="89.95" height="99.65"/><path class="cls-56" d="M394.56,421.74v69.73a7.38,7.38,0,0,1-7.38,7.38H317.44a7.38,7.38,0,0,1-7.38-7.38V421.74a7.38,7.38,0,0,1,7.38-7.38h69.73A7.38,7.38,0,0,1,394.56,421.74Z"/><text class="cls-57" transform="translate(339.91 474.84)">2</text><text class="cls-58" transform="translate(339.91 474.84)">2</text><text class="cls-57" transform="translate(339.91 474.84)">2</text><rect class="cls-4" x="416.91" y="394.57" width="89.95" height="12.57"/><rect class="cls-55" x="416.91" y="402.71" width="89.95" height="99.65"/><path class="cls-56" d="M504.25,421.74v69.73a7.38,7.38,0,0,1-7.38,7.38H427.13a7.38,7.38,0,0,1-7.38-7.38V421.74a7.38,7.38,0,0,1,7.38-7.38h69.73A7.38,7.38,0,0,1,504.25,421.74Z"/><text class="cls-57" transform="translate(449.6 474.84)">3</text><text class="cls-58" transform="translate(449.6 474.84)">3</text><text class="cls-57" transform="translate(449.6 474.84)">3</text><rect class="cls-4" x="526.6" y="394.57" width="89.95" height="12.57"/><rect class="cls-55" x="526.6" y="402.71" width="89.95" height="99.65"/><path class="cls-56" d="M613.94,421.74v69.73a7.38,7.38,0,0,1-7.38,7.38H536.82a7.38,7.38,0,0,1-7.38-7.38V421.74a7.38,7.38,0,0,1,7.38-7.38h69.73A7.38,7.38,0,0,1,613.94,421.74Z"/><text class="cls-57" transform="translate(559.29 474.84)">4</text><text class="cls-58" transform="translate(559.29 474.84)">4</text><text class="cls-57" transform="translate(559.29 474.84)">4</text><rect class="cls-4" x="636.29" y="394.57" width="89.95" height="12.57"/><rect class="cls-55" x="636.29" y="402.71" width="89.95" height="99.65"/><path class="cls-9" d="M723.62,421.74v69.73a7.38,7.38,0,0,1-7.38,7.38H646.51a7.38,7.38,0,0,1-7.38-7.38V421.74a7.38,7.38,0,0,1,7.38-7.38h69.73A7.38,7.38,0,0,1,723.62,421.74Z"/><text class="cls-57" transform="translate(668.97 474.84)">5</text><text class="cls-58" transform="translate(668.97 474.84)">5</text><text class="cls-57" transform="translate(668.97 474.84)">5</text><ellipse class="cls-59" cx="109.81" cy="263.79" rx="7.67" ry="6.68"/><path class="cls-49" d="M108.51,359.11c-6.35-.62-10.93-5.62-10.21-11.15s6.45-9.52,12.8-8.89,10.93,5.62,10.21,11.15S114.87,359.73,108.51,359.11Z"/><ellipse class="cls-59" cx="109.81" cy="348.18" rx="7.67" ry="6.68"/><path class="cls-49" d="M102.65,264.09a8,8,0,0,1,14.41.23h4.08c-1.11-4.78-6.06-8.29-11.83-8.07-5.33.2-9.65,3.51-10.78,7.84Z"/><polygon class="cls-60" points="138.79 263.79 18.43 263.79 18.43 343.37 33.44 347.35 153.79 347.35 153.79 267.77 138.79 263.79"/><rect class="cls-61" x="38.82" y="243.4" width="79.58" height="120.35" transform="translate(382.19 224.97) rotate(90)"/><polygon class="cls-62" points="18.43 334.21 18.43 347.35 138.79 347.35 138.79 263.79 137.63 263.79 137.63 304.9 18.43 334.21"/><polyline class="cls-63" points="126.41 347.35 126.41 351.03 156.48 351.03 156.48 263.31"/><line class="cls-64" x1="109.29" y1="263.79" x2="109.29" y2="347.35"/><rect class="cls-65" x="202.92" y="184.75" width="65.87" height="62.1"/><path class="cls-5" d="M218,186H254.6a36.31,36.31,0,0,1,0,59H218a36.31,36.31,0,0,1,0-59Z"/><path class="cls-66" d="M211.36,186h36.57a36.31,36.31,0,0,1,0,59H211.36a36.31,36.31,0,0,1,0-59Z"/><text class="cls-67" transform="translate(239.43 233.98) rotate(-90)">6R8</text><rect class="cls-41" x="261.09" y="208.5" width="9.71" height="8.75"/><rect class="cls-41" x="194.48" y="208.5" width="5.41" height="8.75"/><rect class="cls-68" x="261.09" y="211.29" width="9.71" height="5.2"/><rect class="cls-68" x="194.48" y="211.29" width="5.41" height="5.2"/><ellipse class="cls-69" cx="305.89" cy="340.92" rx="31.27" ry="31.86"/><path class="cls-39" d="M307.52,311.4c-16.72,0-30.28,14-30.28,31.27s13.55,31.27,30.28,31.27,30.28-14,30.28-31.27S324.24,311.4,307.52,311.4Zm-.11,60.16c-16.64,0-29-13.6-29.68-29.68s14.15-29.68,29.68-29.68c16.64,0,29,13.6,29.68,29.68S322.94,371.56,307.42,371.56Z"/><circle class="cls-70" cx="307.52" cy="345.6" r="28.33"/><circle class="cls-39" cx="307.03" cy="345.6" r="27.84"/><text class="cls-71" transform="translate(290.32 189.11)">BUZZER</text><circle class="cls-70" cx="306.93" cy="221.45" r="31.75" transform="translate(5.31 450.07) rotate(-72.97)"/><circle class="cls-39" cx="306.41" cy="221.29" r="31.2" transform="translate(5.1 449.46) rotate(-72.97)"/><circle class="cls-5" cx="306.93" cy="221.45" r="5.25" transform="translate(5.31 450.07) rotate(-72.97)"/><ellipse class="cls-39" cx="307.78" cy="221.01" rx="4.08" ry="3.83" transform="translate(6.33 450.58) rotate(-72.97)"/><circle class="cls-72" cx="287.51" cy="218.14" r="7.78" transform="translate(-5.27 429.17) rotate(-72.97)"/><line class="cls-72" x1="282.15" y1="217.43" x2="291.43" y2="218.7"/><line class="cls-72" x1="286.15" y1="222.71" x2="287.43" y2="213.42"/><use width="112.17" height="19.17" transform="translate(286.1 141.92)" xlink:href="#_06"/><text class="cls-54" transform="translate(211 142.44)">A11</text><text class="cls-54" transform="translate(227.16 142.44)">A6</text><text class="cls-54" transform="translate(239.7 142.44)">5V</text><text class="cls-54" transform="translate(253.78 161.58)">5V</text><text class="cls-54" transform="translate(252.12 142.44)">GND</text><text class="cls-54" transform="translate(268.29 142.44)">SDA</text><text class="cls-54" transform="translate(283.87 142.44)">SCL</text><polyline class="cls-73" points="291.26 120.67 291.26 131.42 210.84 131.42 210.84 120.67"/><line class="cls-73" x1="284.56" y1="131.42" x2="284.56" y2="135.08"/><line class="cls-73" x1="271.38" y1="131.42" x2="271.38" y2="135.08"/><line class="cls-73" x1="258.01" y1="131.42" x2="258.01" y2="135.08"/><line class="cls-73" x1="244.35" y1="131.42" x2="244.35" y2="135.08"/><line class="cls-73" x1="231.09" y1="131.42" x2="231.09" y2="135.08"/><line class="cls-73" x1="217.5" y1="131.42" x2="217.5" y2="135.08"/><text class="cls-54" transform="translate(308.83 142.44)">A12</text><text class="cls-54" transform="translate(324.99 142.44)">A6</text><text class="cls-54" transform="translate(337.53 142.44)">5V</text><text class="cls-54" transform="translate(349.96 142.44)">GND</text><text class="cls-54" transform="translate(366.12 142.44)">SDA</text><text class="cls-54" transform="translate(381.71 142.44)">SCL</text><polyline class="cls-73" points="389.09 120.67 389.09 131.42 308.67 131.42 308.67 120.67"/><line class="cls-73" x1="382.39" y1="131.42" x2="382.39" y2="135.08"/><line class="cls-73" x1="369.22" y1="131.42" x2="369.22" y2="135.08"/><line class="cls-73" x1="355.84" y1="131.42" x2="355.84" y2="135.08"/><line class="cls-73" x1="342.18" y1="131.42" x2="342.18" y2="135.08"/><line class="cls-73" x1="328.93" y1="131.42" x2="328.93" y2="135.08"/><line class="cls-73" x1="315.34" y1="131.42" x2="315.34" y2="135.08"/><rect class="cls-4" x="632.62" y="109.94" width="93.62" height="13.09" transform="translate(1358.86 232.96) rotate(180)"/><rect class="cls-55" x="632.62" y="10.83" width="93.62" height="103.72" transform="translate(1358.86 125.38) rotate(180)"/><path class="cls-74" d="M679.31,14.47H715.6a7.69,7.69,0,0,1,7.69,7.69V58.45a0,0,0,0,1,0,0h-44a0,0,0,0,1,0,0v-44A0,0,0,0,1,679.31,14.47Z"/><path class="cls-75" d="M635.34,58.45h44a0,0,0,0,1,0,0v44a0,0,0,0,1,0,0H643a7.69,7.69,0,0,1-7.69-7.69V58.45A0,0,0,0,1,635.34,58.45Z"/><path class="cls-20" d="M679.31,58.45h44a0,0,0,0,1,0,0V94.74a7.69,7.69,0,0,1-7.69,7.69H679.31a0,0,0,0,1,0,0v-44A0,0,0,0,1,679.31,58.45Z"/><path class="cls-4" d="M643,14.47h36.29a0,0,0,0,1,0,0v44a0,0,0,0,1,0,0h-44a0,0,0,0,1,0,0V22.16A7.69,7.69,0,0,1,643,14.47Z"/><text class="cls-76" transform="translate(693.39 43.94) rotate(180)">6</text><text class="cls-77" transform="translate(693.39 43.94) rotate(180)">6</text><text class="cls-76" transform="translate(693.39 43.94) rotate(180)">6</text><rect class="cls-4" x="197.53" y="109.94" width="93.62" height="13.09" transform="translate(488.69 232.96) rotate(180)"/><rect class="cls-55" x="197.53" y="10.83" width="93.62" height="103.72" transform="translate(488.69 125.38) rotate(180)"/><path class="cls-74" d="M244.23,14.47h36.29a7.69,7.69,0,0,1,7.69,7.69V58.45a0,0,0,0,1,0,0h-44a0,0,0,0,1,0,0v-44A0,0,0,0,1,244.23,14.47Z"/><path class="cls-75" d="M200.26,58.45h44a0,0,0,0,1,0,0v44a0,0,0,0,1,0,0H207.94a7.69,7.69,0,0,1-7.69-7.69V58.45A0,0,0,0,1,200.26,58.45Z"/><path class="cls-20" d="M244.23,58.45h44a0,0,0,0,1,0,0V94.74a7.69,7.69,0,0,1-7.69,7.69H244.23a0,0,0,0,1,0,0v-44A0,0,0,0,1,244.23,58.45Z"/><path class="cls-4" d="M207.94,14.47h36.29a0,0,0,0,1,0,0v44a0,0,0,0,1,0,0h-44a0,0,0,0,1,0,0V22.16A7.69,7.69,0,0,1,207.94,14.47Z"/><text class="cls-76" transform="translate(267.45 43.94) rotate(180)">10</text><text class="cls-77" transform="translate(267.45 43.94) rotate(180)">10</text><text class="cls-76" transform="translate(267.45 43.94) rotate(180)">10</text><rect class="cls-4" x="306.3" y="109.94" width="93.62" height="13.09" transform="translate(706.23 232.96) rotate(180)"/><rect class="cls-55" x="306.3" y="10.83" width="93.62" height="103.72" transform="translate(706.23 125.38) rotate(180)"/><path class="cls-74" d="M353,14.47h36.29A7.69,7.69,0,0,1,397,22.16V58.45a0,0,0,0,1,0,0H353a0,0,0,0,1,0,0v-44A0,0,0,0,1,353,14.47Z"/><path class="cls-75" d="M309,58.45h44a0,0,0,0,1,0,0v44a0,0,0,0,1,0,0H316.71A7.69,7.69,0,0,1,309,94.74V58.45A0,0,0,0,1,309,58.45Z"/><path class="cls-20" d="M353,58.45h44a0,0,0,0,1,0,0V94.74a7.69,7.69,0,0,1-7.69,7.69H353a0,0,0,0,1,0,0v-44a0,0,0,0,1,0,0Z"/><path class="cls-4" d="M316.71,14.47H353a0,0,0,0,1,0,0v44a0,0,0,0,1,0,0H309a0,0,0,0,1,0,0V22.16A7.69,7.69,0,0,1,316.71,14.47Z"/><text class="cls-76" transform="translate(367.34 43.94) rotate(180)">9</text><text class="cls-77" transform="translate(367.34 43.94) rotate(180)">9</text><text class="cls-76" transform="translate(367.34 43.94) rotate(180)">9</text><rect class="cls-4" x="415.08" y="109.94" width="93.62" height="13.09" transform="translate(923.77 232.96) rotate(180)"/><rect class="cls-55" x="415.08" y="10.83" width="93.62" height="103.72" transform="translate(923.77 125.38) rotate(180)"/><path class="cls-74" d="M461.77,14.47h36.29a7.69,7.69,0,0,1,7.69,7.69V58.45a0,0,0,0,1,0,0h-44a0,0,0,0,1,0,0v-44A0,0,0,0,1,461.77,14.47Z"/><path class="cls-75" d="M417.8,58.45h44a0,0,0,0,1,0,0v44a0,0,0,0,1,0,0H425.48a7.69,7.69,0,0,1-7.69-7.69V58.45A0,0,0,0,1,417.8,58.45Z"/><path class="cls-20" d="M461.77,58.45h44a0,0,0,0,1,0,0V94.74a7.69,7.69,0,0,1-7.69,7.69H461.77a0,0,0,0,1,0,0v-44A0,0,0,0,1,461.77,58.45Z"/><path class="cls-4" d="M425.48,14.47h36.29a0,0,0,0,1,0,0v44a0,0,0,0,1,0,0h-44a0,0,0,0,1,0,0V22.16A7.69,7.69,0,0,1,425.48,14.47Z"/><text class="cls-76" transform="translate(475.95 43.94) rotate(180)">8</text><text class="cls-77" transform="translate(475.95 43.94) rotate(180)">8</text><text class="cls-76" transform="translate(475.95 43.94) rotate(180)">8</text><rect class="cls-4" x="523.85" y="109.94" width="93.62" height="13.09" transform="translate(1141.31 232.96) rotate(180)"/><rect class="cls-55" x="523.85" y="10.83" width="93.62" height="103.72" transform="translate(1141.31 125.38) rotate(180)"/><path class="cls-74" d="M570.54,14.47h36.29a7.69,7.69,0,0,1,7.69,7.69V58.45a0,0,0,0,1,0,0h-44a0,0,0,0,1,0,0v-44A0,0,0,0,1,570.54,14.47Z"/><path class="cls-75" d="M526.57,58.45h44a0,0,0,0,1,0,0v44a0,0,0,0,1,0,0H534.25a7.69,7.69,0,0,1-7.69-7.69V58.45A0,0,0,0,1,526.57,58.45Z"/><path class="cls-20" d="M570.54,58.45h44a0,0,0,0,1,0,0V94.74a7.69,7.69,0,0,1-7.69,7.69H570.54a0,0,0,0,1,0,0v-44A0,0,0,0,1,570.54,58.45Z"/><path class="cls-4" d="M534.25,14.47h36.29a0,0,0,0,1,0,0v44a0,0,0,0,1,0,0h-44a0,0,0,0,1,0,0V22.16A7.69,7.69,0,0,1,534.25,14.47Z"/><text class="cls-76" transform="translate(581.34 43.94) rotate(180)">7</text><text class="cls-77" transform="translate(581.34 43.94) rotate(180)">7</text><text class="cls-76" transform="translate(581.34 43.94) rotate(180)">7</text><text class="cls-78" transform="translate(287.7 168.18) rotate(0.26)">A11</text><text class="cls-78" transform="translate(306.93 168.18) rotate(0.26)">A6</text><text class="cls-78" transform="translate(321.6 168.18) rotate(0.26)">A6</text><use width="22" height="47.62" transform="translate(210.4 337.41) scale(0.86 0.82)" xlink:href="#_01"/><use width="22" height="47.62" transform="translate(159.15 334.58) scale(0.86 0.82)" xlink:href="#_01"/><rect class="cls-79" x="94.66" y="354.55" width="44.69" height="57.49"/><ellipse class="cls-7" cx="108.96" cy="409.44" rx="14.29" ry="14.87"/><ellipse class="cls-7" cx="131.3" cy="384.77" rx="14.29" ry="14.87"/><path class="cls-6" d="M128.12,374.83c11,0,15.93,9.81,14.78,18.61a15.19,15.19,0,0,0,2.7-8.67c0-8.21-6.4-14.87-14.29-14.87a14.25,14.25,0,0,0-12.85,8.4A14.21,14.21,0,0,1,128.12,374.83Z"/><rect class="cls-4" x="116.34" y="367.8" width="19.97" height="41.64"/><rect class="cls-4" x="15.77" y="362.15" width="80.96" height="52.94"/><rect class="cls-38" x="116.34" y="377.3" width="19.97" height="29.65"/><rect class="cls-38" x="15.77" y="373.28" width="80.96" height="37.7"/><rect class="cls-4" x="8.03" y="356.91" width="19.97" height="63.42"/><rect class="cls-4" x="96.73" y="356.91" width="19.97" height="63.42"/><polygon class="cls-38" points="8.03 356.85 28 420.26 8.03 420.26 8.03 356.85"/><polygon class="cls-38" points="96.73 356.91 116.7 420.26 96.73 420.33 96.73 356.91"/><rect class="cls-80" x="28" y="362.15" width="11.98" height="52.94"/><rect class="cls-80" x="86.89" y="362.15" width="9.84" height="52.94"/><rect class="cls-80" x="116.7" y="367.8" width="8.21" height="41.64"/><rect class="cls-81" x="695.74" y="158.42" width="30.5" height="97.44"/><rect class="cls-82" x="714.49" y="178.91" width="11.75" height="55.07"/><rect class="cls-83" x="714.49" y="184.67" width="11.75" height="2.83"/><rect class="cls-83" x="714.49" y="197.83" width="11.75" height="2.83"/><rect class="cls-83" x="714.49" y="211" width="11.75" height="2.83"/><rect class="cls-83" x="714.49" y="224.17" width="11.75" height="2.83"/><rect class="cls-82" x="701.99" y="162.92" width="9" height="5.88"/><rect class="cls-82" x="701.99" y="243.17" width="9" height="5.88"/><rect class="cls-81" x="695.74" y="260.43" width="30.5" height="97.44"/><rect class="cls-82" x="714.49" y="280.92" width="11.75" height="55.07"/><rect class="cls-83" x="714.49" y="286.68" width="11.75" height="2.83"/><rect class="cls-83" x="714.49" y="299.84" width="11.75" height="2.83"/><rect class="cls-83" x="714.49" y="313.01" width="11.75" height="2.83"/><rect class="cls-83" x="714.49" y="326.18" width="11.75" height="2.83"/><rect class="cls-82" x="701.99" y="264.93" width="9" height="5.88"/><rect class="cls-82" x="701.99" y="345.18" width="9" height="5.88"/><rect class="cls-3" x="140.25" y="427.22" width="22.26" height="6.42"/><rect class="cls-3" x="140.25" y="458.85" width="22.26" height="6.42"/><rect class="cls-2" x="144.36" y="458.85" width="9.43" height="6.42"/><rect class="cls-2" x="144.36" y="427.22" width="9.43" height="6.42"/><rect class="cls-3" x="140.25" y="444.16" width="8.22" height="5.55"/><rect class="cls-4" x="99.75" y="429.18" width="39.6" height="39.6"/><path class="cls-2" d="M99.75,424.36l-4.12,9.29s.13,26.9,0,26.77,4.13,8.37,4.13,8.37Z"/><polygon class="cls-3" points="93.5 472.33 36.33 472.33 36.33 422.67 93.5 422.67 93.5 425.06 39 425.06 39 470.39 93 470.39 93.5 472.33"/><rect class="cls-4" x="39" y="425.06" width="23" height="45.27"/><rect class="cls-7" x="59" y="430.17" width="1.67" height="8.67"/><rect class="cls-7" x="59" y="455.33" width="1.67" height="8.67"/><rect class="cls-56" x="27.32" y="437.36" width="9" height="20.67"/><text class="cls-84" transform="translate(77.81 461.25) rotate(-90)">ON/OFF</text><text class="cls-85" transform="translate(480.13 318.05) rotate(90)">ON/OFF</text></g><g id="Layer_5" data-name="Layer 5"><rect class="cls-65" x="325.41" y="123.17" width="369.95" height="269.66" rx="23.13" ry="23.13"/><rect class="cls-39" x="326.74" y="123.17" width="369.95" height="269.66" rx="23.13" ry="23.13"/><use width="36.83" height="53.62" transform="translate(553.23 183.96) rotate(180)" xlink:href="#LED"/><use width="36.83" height="53.62" transform="translate(516.4 332.49)" xlink:href="#LED"/><use width="36.83" height="53.62" transform="translate(587.53 202.77) rotate(-150.38)" xlink:href="#LED"/><use width="36.83" height="53.62" transform="translate(482.1 313.68) rotate(29.62)" xlink:href="#LED"/><use width="36.83" height="53.62" transform="matrix(-0.51, -0.86, 0.86, -0.51, 608.05, 236.08)" xlink:href="#LED"/><use width="36.83" height="53.62" transform="matrix(0.51, 0.86, -0.86, 0.51, 461.58, 280.37)" xlink:href="#LED"/><use width="36.83" height="53.62" transform="translate(609.42 275.18) rotate(-91.13)" xlink:href="#LED"/><use width="36.83" height="53.62" transform="translate(460.2 241.27) rotate(88.87)" xlink:href="#LED"/><use width="36.83" height="53.62" transform="translate(591.29 309.84) rotate(-61.5)" xlink:href="#LED"/><use width="36.83" height="53.62" transform="translate(478.34 206.61) rotate(118.5)" xlink:href="#LED"/><use width="36.83" height="53.62" transform="matrix(0.85, -0.53, 0.53, 0.85, 558.39, 331.01)" xlink:href="#LED"/><use width="36.83" height="53.62" transform="matrix(-0.85, 0.53, -0.53, -0.85, 511.23, 185.44)" xlink:href="#LED"/><circle class="cls-86" cx="535.09" cy="257.18" r="132.11"/><circle class="cls-86" cx="535.09" cy="257.18" r="67.76"/><line class="cls-86" x1="517.73" y1="323.44" x2="502.56" y2="385.25"/><line class="cls-86" x1="568.4" y1="128.52" x2="552.42" y2="191.78"/><line class="cls-86" x1="486.89" y1="305.71" x2="442.92" y2="351.72"/><line class="cls-86" x1="628.04" y1="162.05" x2="582.64" y2="208.91"/><line class="cls-86" x1="469.01" y1="274.97" x2="407.95" y2="292.9"/><line class="cls-86" x1="663.01" y1="220.87" x2="600.29" y2="238.83"/><line class="cls-86" x1="468.85" y1="239.4" x2="406.98" y2="224.48"/><line class="cls-86" x1="663.98" y1="289.29" x2="600.65" y2="273.56"/><line class="cls-86" x1="486.46" y1="208.49" x2="440.28" y2="164.7"/><line class="cls-86" x1="630.68" y1="349.07" x2="583.64" y2="303.85"/><line class="cls-86" x1="517.13" y1="190.49" x2="498.96" y2="129.5"/><line class="cls-86" x1="572" y1="384.27" x2="553.79" y2="321.62"/><use width="44.72" height="76.81" transform="translate(498.96 279.53) rotate(-90)" xlink:href="#New_Symbol_3"/><use width="12.42" height="25.21" transform="translate(552.25 230.69) rotate(-90)" xlink:href="#_03"/><use width="12.42" height="25.21" transform="translate(390.27 162.05)" xlink:href="#_03"/><use width="12.42" height="25.21" transform="translate(377.89 246.08) rotate(180)" xlink:href="#_03"/><use width="12.42" height="25.21" transform="translate(552.25 295.49) rotate(-90)" xlink:href="#_03"/><use width="12.42" height="25.21" transform="translate(546.87 218.27) rotate(90)" xlink:href="#_02"/><use width="12.42" height="25.21" transform="translate(401.81 147.57) rotate(90)" xlink:href="#_02"/><use width="12.42" height="25.21" transform="translate(402.99 356.25) rotate(90)" xlink:href="#_02"/><use width="12.42" height="25.21" transform="translate(365.35 193.46)" xlink:href="#_02"/><use width="12.42" height="25.21" transform="translate(378.35 193.46)" xlink:href="#_02"/><use width="12.42" height="25.21" transform="translate(374.81 162.05)" xlink:href="#_02"/><use width="12.42" height="25.21" transform="translate(392.29 328.62)" xlink:href="#_03"/><use width="12.42" height="25.21" transform="translate(376.83 328.62)" xlink:href="#_02"/><use width="12.42" height="25.21" transform="translate(546.87 283.08) rotate(90)" xlink:href="#_02"/><text class="cls-85" transform="translate(480.13 235.71) rotate(90)">ON/OFF</text><text class="cls-87" transform="translate(372.29 383.82)">Light_Sensor2</text><text class="cls-87" transform="translate(372.29 138.82)">Light_Sensor1</text><use width="39" height="42.08" transform="matrix(1, 0, 0, -1.03, 334.79, 174.22)" xlink:href="#Lediti_led"/><use width="39" height="42.08" transform="matrix(1, 0, 0, -1.03, 334.79, 386.4)" xlink:href="#Lediti_led"/><circle class="cls-82" cx="347.83" cy="220.96" r="5.87"/><rect class="cls-88" x="345.58" y="218.71" width="4.5" height="4.5"/><rect class="cls-89" x="345.92" y="219.04" width="3.83" height="3.83"/><polygon class="cls-90" points="349.75 222.87 345.92 219.04 349.75 219.04 345.92 222.87 349.75 222.87"/><rect class="cls-82" x="341.96" y="195.42" width="11.75" height="12.04"/><rect class="cls-88" x="345.58" y="199.37" width="4.5" height="4.5"/><rect class="cls-89" x="345.92" y="199.71" width="3.83" height="3.83"/><polygon class="cls-90" points="349.75 203.54 345.92 199.71 349.75 199.71 345.92 203.54 349.75 203.54"/><rect class="cls-65" x="37.14" y="13.25" width="155.71" height="227.83" rx="8.69" ry="8.69"/><rect class="cls-39" x="37" y="12.79" width="154.76" height="226.9" rx="8.64" ry="8.64"/><path class="cls-91" d="M165.17,28.77V14.5H61.67V34.43a2.39,2.39,0,0,1,.75-.13c3,0,3,4.63,0,4.63a2.39,2.39,0,0,1-.75-.12v.87A2.34,2.34,0,0,1,64,42v.13a2.36,2.36,0,0,1-2.32,2.32v3.49h.13a2.32,2.32,0,0,1,0,4.63h-.12V212h103.5V51.23a2.35,2.35,0,0,1,0-4.46V45.48a2.35,2.35,0,0,1,0-4.46V39.14a2.35,2.35,0,0,1,0-4.53V33A2.41,2.41,0,0,1,165.17,28.77Z"/><rect class="cls-2" x="158.5" y="173.33" width="14" height="7.33"/><rect class="cls-2" x="158.5" y="184.33" width="14" height="7.33"/><rect class="cls-2" x="158.5" y="62.5" width="14" height="7.33"/><rect class="cls-2" x="158.5" y="73.5" width="14" height="7.33"/><path class="cls-2" d="M158,195.32h10.33A3.67,3.67,0,0,1,172,199v0a3.67,3.67,0,0,1-3.67,3.67H158a0,0,0,0,1,0,0v-7.33A0,0,0,0,1,158,195.32Z"/><rect class="cls-2" x="55.83" y="173.33" width="11.09" height="7.33" transform="translate(122.76 354) rotate(180)"/><rect class="cls-2" x="55.83" y="184.33" width="11.09" height="7.33" transform="translate(122.76 376) rotate(180)"/><path class="cls-2" d="M56.24,195.32h7.83a3.26,3.26,0,0,1,3.26,3.26v.81a3.26,3.26,0,0,1-3.26,3.26H56.24a0,0,0,0,1,0,0v-7.33A0,0,0,0,1,56.24,195.32Z" transform="translate(123.57 397.97) rotate(-180)"/><rect class="cls-7" x="97.48" y="58.31" width="12.02" height="17.77" rx="2.88" ry="2.88"/><use width="12.42" height="25.21" transform="translate(50.94 213.51) rotate(180) scale(0.8 0.92)" xlink:href="#_02"/><use width="12.42" height="25.21" transform="translate(124.37 224.44) rotate(90) scale(0.97 1.06)" xlink:href="#_02"/><use width="12.42" height="25.21" transform="translate(186.61 148.86) rotate(180) scale(0.8 0.91)" xlink:href="#_02"/><use width="12.42" height="25.21" transform="translate(50.94 188.18) rotate(180) scale(0.8 0.92)" xlink:href="#_02"/><use width="12.42" height="25.21" transform="translate(187.97 176.85) rotate(180)" xlink:href="#_03"/><use width="12.42" height="25.21" transform="translate(96.86 223.71) rotate(90)" xlink:href="#_03"/><use width="12.42" height="25.21" transform="translate(55.16 64.47) rotate(180)" xlink:href="#_03"/><use width="12.42" height="25.21" transform="translate(55.16 90.8) rotate(180)" xlink:href="#_03"/><rect class="cls-9" x="83.79" y="119.5" width="3.58" height="12.62"/><rect class="cls-9" x="89.48" y="119.5" width="3.58" height="12.62"/><rect class="cls-9" x="95.16" y="119.5" width="3.58" height="12.62"/><rect class="cls-9" x="100.84" y="119.5" width="3.58" height="12.62"/><rect class="cls-9" x="106.53" y="119.5" width="3.58" height="12.62"/><rect class="cls-9" x="112.21" y="119.5" width="3.58" height="12.62"/><rect class="cls-9" x="117.9" y="119.5" width="3.58" height="12.62"/><rect class="cls-9" x="123.58" y="119.5" width="3.58" height="12.62"/><rect class="cls-47" x="83.79" y="125.81" width="3.58" height="6.31"/><rect class="cls-47" x="89.48" y="125.81" width="3.58" height="6.31"/><rect class="cls-47" x="95.16" y="125.81" width="3.58" height="6.31"/><rect class="cls-47" x="100.84" y="125.81" width="3.58" height="6.31"/><rect class="cls-47" x="106.53" y="125.81" width="3.58" height="6.31"/><rect class="cls-47" x="112.21" y="125.81" width="3.58" height="6.31"/><rect class="cls-47" x="117.9" y="125.81" width="3.58" height="6.31"/><rect class="cls-47" x="123.58" y="125.81" width="3.58" height="6.31"/><rect class="cls-9" x="74.14" y="166.53" width="3.4" height="12.68" transform="translate(-97.03 248.71) rotate(-90)"/><rect class="cls-9" x="74.14" y="161.14" width="3.4" height="12.68" transform="translate(-91.64 243.32) rotate(-90)"/><rect class="cls-9" x="74.14" y="155.75" width="3.4" height="12.68" transform="translate(-86.25 237.93) rotate(-90)"/><rect class="cls-9" x="74.14" y="150.36" width="3.4" height="12.68" transform="translate(-80.86 232.54) rotate(-90)"/><rect class="cls-9" x="74.14" y="144.97" width="3.4" height="12.68" transform="translate(-75.47 227.15) rotate(-90)"/><rect class="cls-9" x="74.14" y="139.58" width="3.4" height="12.68" transform="translate(-70.08 221.76) rotate(-90)"/><rect class="cls-9" x="74.14" y="134.19" width="3.4" height="12.68" transform="translate(-64.69 216.37) rotate(-90)"/><rect class="cls-9" x="74.14" y="128.8" width="3.4" height="12.68" transform="translate(-59.3 210.98) rotate(-90)"/><rect class="cls-47" x="76.04" y="169.7" width="3.4" height="6.34" transform="translate(-95.13 250.61) rotate(-90)"/><rect class="cls-47" x="76.04" y="164.31" width="3.4" height="6.34" transform="translate(-89.74 245.22) rotate(-90)"/><rect class="cls-47" x="76.04" y="158.92" width="3.4" height="6.34" transform="translate(-84.35 239.83) rotate(-90)"/><rect class="cls-47" x="76.04" y="153.53" width="3.4" height="6.34" transform="translate(-78.96 234.44) rotate(-90)"/><rect class="cls-47" x="76.04" y="148.14" width="3.4" height="6.34" transform="translate(-73.57 229.05) rotate(-90)"/><rect class="cls-47" x="76.04" y="142.75" width="3.4" height="6.34" transform="translate(-68.18 223.66) rotate(-90)"/><rect class="cls-47" x="76.04" y="137.36" width="3.4" height="6.34" transform="translate(-62.79 218.27) rotate(-90)"/><rect class="cls-47" x="76.04" y="131.97" width="3.4" height="6.34" transform="translate(-57.4 212.88) rotate(-90)"/><rect class="cls-9" x="123.46" y="176.88" width="3.58" height="12.62" transform="translate(250.5 366.38) rotate(180)"/><rect class="cls-9" x="117.77" y="176.88" width="3.58" height="12.62" transform="translate(239.13 366.38) rotate(180)"/><rect class="cls-9" x="112.09" y="176.88" width="3.58" height="12.62" transform="translate(227.76 366.38) rotate(180)"/><rect class="cls-9" x="106.41" y="176.88" width="3.58" height="12.62" transform="translate(216.39 366.38) rotate(180)"/><rect class="cls-9" x="100.72" y="176.88" width="3.58" height="12.62" transform="translate(205.03 366.38) rotate(180)"/><rect class="cls-9" x="95.04" y="176.88" width="3.58" height="12.62" transform="translate(193.66 366.38) rotate(180)"/><rect class="cls-9" x="89.35" y="176.88" width="3.58" height="12.62" transform="translate(182.29 366.38) rotate(180)"/><rect class="cls-9" x="83.67" y="176.88" width="3.58" height="12.62" transform="translate(170.92 366.38) rotate(180)"/><rect class="cls-47" x="83.79" y="177.18" width="3.58" height="6.31"/><rect class="cls-47" x="89.48" y="177.18" width="3.58" height="6.31"/><rect class="cls-47" x="95.16" y="177.18" width="3.58" height="6.31"/><rect class="cls-47" x="100.84" y="177.18" width="3.58" height="6.31"/><rect class="cls-47" x="106.53" y="177.18" width="3.58" height="6.31"/><rect class="cls-47" x="112.21" y="177.18" width="3.58" height="6.31"/><rect class="cls-47" x="117.9" y="177.18" width="3.58" height="6.31"/><rect class="cls-47" x="123.58" y="177.18" width="3.58" height="6.31"/><rect class="cls-9" x="133.29" y="129.79" width="3.4" height="12.68" transform="translate(271.12 1.14) rotate(90)"/><rect class="cls-9" x="133.29" y="135.18" width="3.4" height="12.68" transform="translate(276.51 6.53) rotate(90)"/><rect class="cls-9" x="133.29" y="140.57" width="3.4" height="12.68" transform="translate(281.9 11.92) rotate(90)"/><rect class="cls-9" x="133.29" y="145.96" width="3.4" height="12.68" transform="translate(287.29 17.31) rotate(90)"/><rect class="cls-9" x="133.29" y="151.35" width="3.4" height="12.68" transform="translate(292.68 22.7) rotate(90)"/><rect class="cls-9" x="133.29" y="156.74" width="3.4" height="12.68" transform="translate(298.07 28.09) rotate(90)"/><rect class="cls-9" x="133.29" y="162.13" width="3.4" height="12.68" transform="translate(303.47 33.48) rotate(90)"/><rect class="cls-9" x="133.29" y="167.52" width="3.4" height="12.68" transform="translate(308.86 38.87) rotate(90)"/><rect class="cls-47" x="130.12" y="132.96" width="3.4" height="6.34" transform="translate(267.95 4.31) rotate(90)"/><rect class="cls-47" x="130.12" y="138.35" width="3.4" height="6.34" transform="translate(273.34 9.7) rotate(90)"/><rect class="cls-47" x="130.12" y="143.74" width="3.4" height="6.34" transform="translate(278.73 15.09) rotate(90)"/><rect class="cls-47" x="130.12" y="149.13" width="3.4" height="6.34" transform="translate(284.12 20.48) rotate(90)"/><rect class="cls-47" x="130.12" y="154.52" width="3.4" height="6.34" transform="translate(289.51 25.87) rotate(90)"/><rect class="cls-47" x="130.12" y="159.91" width="3.4" height="6.34" transform="translate(294.9 31.26) rotate(90)"/><rect class="cls-47" x="130.12" y="165.3" width="3.4" height="6.34" transform="translate(300.3 36.65) rotate(90)"/><rect class="cls-47" x="130.12" y="170.69" width="3.4" height="6.34" transform="translate(305.69 42.04) rotate(90)"/><rect class="cls-4" x="79.71" y="131.41" width="50.17" height="46.52"/><rect class="cls-5" x="81.52" y="133.06" width="46.57" height="43.18"/><use width="21.68" height="25.35" transform="translate(66.25 216.18) rotate(90)" xlink:href="#_04"/><use width="7.33" height="17" transform="translate(81.1 106.05) rotate(-90) scale(0.52 0.62)" xlink:href="#_02_2"/><use width="7.33" height="17" transform="translate(95.98 114.93) rotate(-90) scale(0.52 0.62)" xlink:href="#_02_2"/><use width="7.33" height="17" transform="translate(68.65 187.26) rotate(-90) scale(0.52 0.52)" xlink:href="#_02_2"/><use width="7.33" height="17" transform="translate(72.93 71.17) scale(0.52 0.62)" xlink:href="#_02_2"/><use width="7.33" height="17" transform="translate(69.8 88.04) scale(0.71 0.71)" xlink:href="#_02_2"/><use width="7.33" height="17" transform="translate(83.6 81.43) rotate(-90) scale(0.52 0.62)" xlink:href="#_02_2"/><use width="7.33" height="17" transform="translate(81.1 113.01) rotate(-90) scale(0.52 0.62)" xlink:href="#_03_2"/><use width="7.33" height="17" transform="translate(81.1 99.09) rotate(-90) scale(0.52 0.62)" xlink:href="#_03_2"/><use width="7.33" height="17" transform="translate(122.72 96.91) scale(0.52 0.62)" xlink:href="#_02_2"/><use width="7.33" height="17" transform="translate(95.88 193.91) scale(0.52 0.62)" xlink:href="#_02_2"/><use width="7.33" height="17" transform="translate(78.38 193.91) scale(0.52 0.62)" xlink:href="#_02_2"/><use width="7.33" height="17" transform="translate(68.55 190.83) scale(0.93 0.8)" xlink:href="#_02_2"/><use width="7.33" height="17" transform="translate(136.33 94.79) scale(0.46 0.54)" xlink:href="#_02_2"/><use width="7.33" height="17" transform="translate(135.45 111.16) scale(0.68 0.72)" xlink:href="#_02_2"/><use width="7.33" height="17" transform="translate(126.59 61.73) scale(0.52 0.62)" xlink:href="#_02_2"/><use width="7.33" height="17" transform="translate(129.67 96.91) scale(0.52 0.62)" xlink:href="#_03_2"/><use width="7.33" height="17" transform="translate(86.01 194.25) scale(0.52 0.62)" xlink:href="#_03_2"/><use width="7.33" height="17" transform="translate(113.05 61.73) scale(0.52 0.62)" xlink:href="#_03_2"/><use width="7.33" height="17" transform="translate(126.17 81.16) scale(0.52 0.62)" xlink:href="#_03_2"/><use width="7.33" height="17" transform="translate(81.1 92.14) rotate(-90) scale(0.52 0.62)" xlink:href="#_03_2"/><use width="7.33" height="17" transform="translate(106.94 204.76) rotate(-90) scale(0.52 0.62)" xlink:href="#_03_2"/><use width="7.33" height="17" transform="translate(106.94 197.8) rotate(-90) scale(0.52 0.62)" xlink:href="#_03_2"/><use width="7.33" height="17" transform="translate(119.34 61.73) scale(0.52 0.62)" xlink:href="#_02_3"/><use width="7.33" height="17" transform="translate(89.84 62.4) scale(0.52 0.62)" xlink:href="#_02_3"/><use width="7.33" height="17" transform="translate(144.51 164.23) scale(0.52 0.62)" xlink:href="#_02_3"/><use width="7.33" height="17" transform="translate(150.84 164.23) scale(0.52 0.62)" xlink:href="#_02_3"/><use width="7.33" height="17" transform="translate(144.51 149.23) scale(0.52 0.62)" xlink:href="#_02_3"/><use width="7.33" height="17" transform="translate(150.84 149.23) scale(0.52 0.62)" xlink:href="#_02_3"/><use width="7.33" height="17" transform="translate(144.51 103.06) scale(0.52 0.62)" xlink:href="#_02_3"/><use width="7.33" height="17" transform="translate(150.84 103.06) scale(0.52 0.62)" xlink:href="#_02_3"/><use width="7.33" height="17" transform="translate(143.77 98.62) rotate(-90) scale(0.52 0.57)" xlink:href="#_02_3"/><use width="7.33" height="17" transform="translate(135.6 63.62) rotate(-90) scale(0.52 0.57)" xlink:href="#_02_3"/><use width="7.33" height="17" transform="translate(75.27 54.28) rotate(-90) scale(0.52 0.57)" xlink:href="#_02_3"/><use width="7.33" height="17" transform="translate(118.77 197.62) rotate(-90) scale(0.52 0.57)" xlink:href="#_02_3"/><use width="7.33" height="17" transform="translate(118.77 204.95) rotate(-90) scale(0.52 0.57)" xlink:href="#_02_3"/><rect class="cls-5" x="96.92" y="82.63" width="20.5" height="24.25"/><rect class="cls-4" x="96.92" y="82.97" width="19.37" height="22.9"/><rect class="cls-8" x="95.79" y="81.38" width="23.38" height="26.38"/><polyline class="cls-92" points="135.31 77.75 122.67 77.75 122.67 93.48 132.04 93.48"/><polyline class="cls-93" points="134.79 94.63 120.17 94.63 120.17 110.19 134.79 110.19"/><polyline class="cls-93" points="148.54 64.38 148.54 57.38 133.04 57.38 133.04 65 133.04 58.63 111.29 58.63 111.29 59.13 111.29 77.75 96.79 77.75 96.79 74 80.04 74 80.04 84.25 93.29 84.25 93.29 115.75 81.79 115.75"/><polyline class="cls-93" points="98.67 49.75 113.04 49.75 113.04 58.5"/><polyline class="cls-93" points="87.04 48.25 87.04 56.88 74.29 56.88"/><path class="cls-7" d="M163.31,162.14v-1h-5.64v8.63h5.64v-.64C159.42,168.63,159.42,162.62,163.31,162.14Z"/><path class="cls-7" d="M163.31,151.14v-1h-5.64v8.63h5.64v-.64C159.42,157.63,159.42,151.62,163.31,151.14Z"/><path class="cls-7" d="M163.31,140.14v-1h-5.64v8.63h5.64v-.64C159.42,146.63,159.42,140.62,163.31,140.14Z"/><path class="cls-7" d="M163.31,195.31v-1h-5.64v8.63h5.64v-.64C159.42,201.8,159.42,195.78,163.31,195.31Z"/><path class="cls-7" d="M163.31,184.31v-1h-5.64v8.63h5.64v-.64C159.42,190.8,159.42,184.78,163.31,184.31Z"/><path class="cls-7" d="M163.31,173.31v-1h-5.64v8.63h5.64v-.64C159.42,179.8,159.42,173.78,163.31,173.31Z"/><path class="cls-7" d="M163.31,129.14v-1h-5.64v8.63h5.64v-.64C159.42,135.63,159.42,129.62,163.31,129.14Z"/><path class="cls-7" d="M163.31,118.14v-1h-5.64v8.63h5.64v-.64C159.42,124.63,159.42,118.62,163.31,118.14Z"/><path class="cls-7" d="M163.31,107.14v-1h-5.64v8.63h5.64v-.64C159.42,113.63,159.42,107.62,163.31,107.14Z"/><path class="cls-7" d="M163.31,96.14v-1h-5.64v8.63h5.64v-.64C159.42,102.63,159.42,96.62,163.31,96.14Z"/><path class="cls-7" d="M163.31,85.14v-1h-5.64v8.63h5.64v-.64C159.42,91.63,159.42,85.62,163.31,85.14Z"/><path class="cls-7" d="M163.31,73.14v-1h-5.64v8.63h5.64v-.64C159.42,79.63,159.42,73.62,163.31,73.14Z"/><path class="cls-7" d="M163.31,62.14v-1h-5.64v8.63h5.64v-.64C159.42,68.63,159.42,62.62,163.31,62.14Z"/><path class="cls-7" d="M62.33,91.73v1H68V84.13H62.33v.64C66.22,85.24,66.22,91.26,62.33,91.73Z"/><path class="cls-7" d="M62.33,102.73v1H68V95.13H62.33v.64C66.22,96.24,66.22,102.26,62.33,102.73Z"/><path class="cls-7" d="M62.33,113.73v1H68v-8.62H62.33v.64C66.22,107.24,66.22,113.26,62.33,113.73Z"/><path class="cls-7" d="M62.33,124.73v1H68v-8.62H62.33v.64C66.22,118.24,66.22,124.26,62.33,124.73Z"/><path class="cls-7" d="M62.33,135.73v1H68v-8.62H62.33v.64C66.22,129.24,66.22,135.26,62.33,135.73Z"/><path class="cls-7" d="M62.33,146.73v1H68v-8.62H62.33v.64C66.22,140.24,66.22,146.26,62.33,146.73Z"/><path class="cls-7" d="M62.33,157.73v1H68v-8.62H62.33v.64C66.22,151.24,66.22,157.26,62.33,157.73Z"/><path class="cls-7" d="M62.33,168.73v1H68v-8.62H62.33v.64C66.22,162.24,66.22,168.26,62.33,168.73Z"/><path class="cls-7" d="M62.33,180.23v1H68v-8.62H62.33v.64C66.22,173.74,66.22,179.76,62.33,180.23Z"/><path class="cls-7" d="M62.33,191.23v1H68v-8.62H62.33v.64C66.22,184.74,66.22,190.76,62.33,191.23Z"/><path class="cls-7" d="M62.33,202.23v1H68v-8.62H62.33v.64C66.22,195.74,66.22,201.76,62.33,202.23Z"/><path class="cls-7" d="M75.48,212.64h1V207H67.88v5.64h.64C69,208.75,75,208.76,75.48,212.64Z"/><path class="cls-7" d="M86.91,212.64h1V207H79.3v5.64h.64C80.42,208.75,86.44,208.76,86.91,212.64Z"/><path class="cls-7" d="M98.34,212.64h1V207H90.73v5.64h.64C91.85,208.75,97.87,208.76,98.34,212.64Z"/><path class="cls-7" d="M109.77,212.64h1V207h-8.62v5.64h.64C103.28,208.75,109.29,208.76,109.77,212.64Z"/><path class="cls-7" d="M121.2,212.64h1V207h-8.62v5.64h.64C114.7,208.75,120.72,208.76,121.2,212.64Z"/><path class="cls-7" d="M132.63,212.64h1V207H125v5.64h.64C126.13,208.75,132.15,208.76,132.63,212.64Z"/><path class="cls-7" d="M144.05,212.64h1V207h-8.62v5.64h.64C137.56,208.75,143.58,208.76,144.05,212.64Z"/><path class="cls-7" d="M155.48,212.64h1V207h-8.62v5.64h.64C149,208.75,155,208.76,155.48,212.64Z"/><line class="cls-8" x1="93" y1="192.5" x2="93" y2="204"/><line class="cls-8" x1="103.5" y1="192.5" x2="103.5" y2="204"/><polyline class="cls-94" points="131.83 204 131.83 190.67 136.83 190.67"/><line class="cls-94" x1="144.67" y1="177" x2="155" y2="177"/><line class="cls-94" x1="144.67" y1="161.33" x2="155" y2="161.33"/><polygon class="cls-5" points="143.33 152.5 149.17 157.17 156 152.5 156 111.33 149.83 106.17 143.33 111.33 143.33 152.5"/><rect class="cls-95" x="143.33" y="111.5" width="12.67" height="41"/><polyline class="cls-93" points="79.83 70.5 79.83 85.33 70.17 85.33 70.17 69 72 69"/><line class="cls-93" x1="88" y1="70.67" x2="88" y2="74.17"/><line class="cls-93" x1="69.83" y1="105.67" x2="72.67" y2="105.67"/><line class="cls-93" x1="69.83" y1="117.33" x2="72.67" y2="117.33"/><polyline class="cls-93" points="76.33 105.67 78.5 105.67 78.5 112.83"/><circle class="cls-7" cx="77.67" cy="116.92" r="2.25"/><text class="cls-54" transform="translate(116.19 117.37) rotate(-90)">U3</text><text class="cls-96" transform="translate(187.15 120.27) rotate(-90) scale(0.91 1)">STA</text><line class="cls-8" x1="109.29" y1="108" x2="109.29" y2="116.63"/><rect class="cls-20" x="89.17" y="50.67" width="6.83" height="6.83"/><circle class="cls-20" cx="101.92" cy="54.75" r="2.25"/><rect class="cls-20" x="106.67" y="52.83" width="4" height="4"/><rect class="cls-6" x="97.83" y="58.33" width="10.5" height="15.83" rx="2.54" ry="2.54"/><path class="cls-97" d="M154.75,83.25V75.89c-2.87-1-2.87-5.58,0-6.62V66h-22.5v3.92a3.73,3.73,0,0,1,0,6v7a3.72,3.72,0,0,1,1.79,3,3.42,3.42,0,0,1-1.79,3v3.22h22.5V89.75A3.65,3.65,0,0,1,154.75,83.25Z"/><rect class="cls-7" x="133.67" y="67.17" width="19.17" height="23.5"/><line class="cls-8" x1="131.5" y1="74.33" x2="111.25" y2="74.33"/><rect class="cls-7" x="74.04" y="61.25" width="14.88" height="7.63"/><circle class="cls-13" cx="76.79" cy="64.75" r="1.13"/><circle class="cls-13" cx="81.92" cy="64.75" r="1.13"/><circle class="cls-13" cx="86.35" cy="64.94" r="1.13"/><rect class="cls-7" x="75.04" y="40" width="13.81" height="6.69"/><ellipse class="cls-13" cx="77.6" cy="43.07" rx="1.04" ry="0.99"/><ellipse class="cls-13" cx="82.35" cy="43.07" rx="1.04" ry="0.99"/><ellipse class="cls-13" cx="86.47" cy="43.23" rx="1.04" ry="0.99"/><path class="cls-7" d="M160.67,15.13v29.5h-4l.25-24.37h-9.62V41.88h-17.5V20.38h-9.63V38.63H103.79V20.13H95.92V31.88H81.67V20.5l-8.87-.12V51H68V15.13H85V27.88h6.75V15.13h15.38V35.38h8.5V15.13h17.25V38.25h10.38V15.13Z"/><circle class="cls-82" cx="186.5" cy="210.79" r="5.87"/><rect class="cls-88" x="184.25" y="208.54" width="4.5" height="4.5"/><rect class="cls-89" x="184.58" y="208.87" width="3.83" height="3.83"/><polygon class="cls-90" points="188.42 212.71 184.58 208.87 188.42 208.87 184.58 212.71 188.42 212.71"/><circle class="cls-82" cx="186.5" cy="229.54" r="5.87"/><rect class="cls-88" x="184.25" y="227.29" width="4.5" height="4.5"/><rect class="cls-89" x="184.58" y="227.62" width="3.83" height="3.83"/><polygon class="cls-90" points="188.42 231.46 184.58 227.62 188.42 227.62 184.58 231.46 188.42 231.46"/><circle class="cls-82" cx="52" cy="116.29" r="5.87"/><rect class="cls-88" x="49.75" y="114.04" width="4.5" height="4.5"/><rect class="cls-89" x="50.08" y="114.37" width="3.83" height="3.83"/><polygon class="cls-90" points="53.92 118.21 50.08 114.37 53.92 114.37 50.08 118.21 53.92 118.21"/><circle class="cls-82" cx="52" cy="98.29" r="5.87"/><rect class="cls-88" x="49.75" y="96.04" width="4.5" height="4.5"/><rect class="cls-89" x="50.08" y="96.37" width="3.83" height="3.83"/><polygon class="cls-90" points="53.92 100.21 50.08 96.37 53.92 96.37 50.08 100.21 53.92 100.21"/><circle class="cls-82" cx="52" cy="135.04" r="5.87"/><rect class="cls-88" x="49.75" y="132.79" width="4.5" height="4.5"/><rect class="cls-89" x="50.08" y="133.12" width="3.83" height="3.83"/><polygon class="cls-90" points="53.92 136.96 50.08 133.12 53.92 133.12 50.08 136.96 53.92 136.96"/><rect class="cls-82" x="180.63" y="185" width="11.75" height="12.04"/><rect class="cls-88" x="184.25" y="188.95" width="4.5" height="4.5"/><rect class="cls-89" x="184.58" y="189.29" width="3.83" height="3.83"/><polygon class="cls-90" points="188.42 193.12 184.58 189.29 188.42 189.29 184.58 193.12 188.42 193.12"/><rect class="cls-82" x="46.13" y="147.25" width="11.75" height="12.04"/><rect class="cls-88" x="49.75" y="151.2" width="4.5" height="4.5"/><rect class="cls-89" x="50.08" y="151.54" width="3.83" height="3.83"/><polygon class="cls-90" points="53.92 155.37 50.08 151.54 53.92 151.54 50.08 155.37 53.92 155.37"/><rect class="cls-82" x="677.96" y="132.8" width="11.75" height="12.04"/><circle class="cls-82" cx="347.83" cy="239.52" r="5.87"/><rect class="cls-88" x="345.58" y="237.27" width="4.5" height="4.5"/><rect class="cls-89" x="345.92" y="237.6" width="3.83" height="3.83"/><polygon class="cls-90" points="349.75 241.44 345.92 237.6 349.75 237.6 345.92 241.44 349.75 241.44"/><circle class="cls-82" cx="347.83" cy="258.71" r="5.87"/><rect class="cls-88" x="345.58" y="256.46" width="4.5" height="4.5"/><rect class="cls-89" x="345.92" y="256.79" width="3.83" height="3.83"/><polygon class="cls-90" points="349.75 260.62 345.92 256.79 349.75 256.79 345.92 260.62 349.75 260.62"/><circle class="cls-82" cx="663.98" cy="138.82" r="5.87"/><rect class="cls-82" x="677.96" y="368.02" width="11.75" height="12.04"/><circle class="cls-82" cx="663.98" cy="374.04" r="5.87"/><circle class="cls-82" cx="347.83" cy="277.27" r="5.87"/><rect class="cls-88" x="345.58" y="275.02" width="4.5" height="4.5"/><rect class="cls-89" x="345.92" y="275.35" width="3.83" height="3.83"/><polygon class="cls-90" points="349.75 279.19 345.92 275.35 349.75 275.35 345.92 279.19 349.75 279.19"/><circle class="cls-82" cx="347.83" cy="296.46" r="5.87"/><rect class="cls-88" x="345.58" y="294.21" width="4.5" height="4.5"/><rect class="cls-89" x="345.92" y="294.54" width="3.83" height="3.83"/><polygon class="cls-90" points="349.75 298.37 345.92 294.54 349.75 294.54 345.92 298.37 349.75 298.37"/><circle class="cls-82" cx="347.83" cy="315.02" r="5.87"/><rect class="cls-88" x="345.58" y="312.77" width="4.5" height="4.5"/><rect class="cls-89" x="345.92" y="313.1" width="3.83" height="3.83"/><polygon class="cls-90" points="349.75 316.94 345.92 313.1 349.75 313.1 345.92 316.94 349.75 316.94"/></g></g></svg>