<svg xmlns="http://www.w3.org/2000/svg" xmlns:xlink="http://www.w3.org/1999/xlink" preserveAspectRatio="xMidYMid" width="23.16" height="24" viewBox="0 0 23.16 24">
  <defs>
    <clipPath id="clip-path-1">
      <rect x="-1661.28" y="-1331.56" width="3296" height="2238"/>
    </clipPath>
  </defs>
  <g clip-path="url(#clip-path-1)">
    <path d="M17.848,22.202 C17.879,22.452 17.794,22.713 17.595,22.899 C17.558,22.932 17.519,22.962 17.479,22.988 C17.285,23.143 17.023,23.209 16.763,23.143 C16.485,23.072 16.278,22.866 16.192,22.614 L11.333,17.785 L8.905,21.111 C8.647,21.501 8.118,22.344 7.678,22.245 C7.193,22.136 7.161,21.310 7.086,20.839 L6.379,14.971 L0.707,13.264 C0.453,13.232 0.218,13.083 0.087,12.841 C-0.127,12.444 0.023,11.949 0.421,11.735 L21.810,0.192 C22.007,0.015 22.286,-0.064 22.562,0.007 C22.981,0.114 23.239,0.526 23.163,0.944 C23.156,0.990 23.146,1.034 23.132,1.077 L17.848,22.202 ZM6.222,11.792 L8.366,12.610 L18.727,5.416 L12.711,15.302 L16.116,18.160 L20.412,3.318 L6.222,11.792 Z" transform="translate(0 0.42)"/>
  </g>
</svg>
