<svg xmlns="http://www.w3.org/2000/svg" xmlns:xlink="http://www.w3.org/1999/xlink" preserveAspectRatio="xMidYMid" width="18" height="15" viewBox="0 0 18 15">
  <path d="M16.970,12.977 C13.707,13.134 11.729,14.022 10.559,14.891 C10.196,15.158 9.675,14.907 9.675,14.464 C9.675,14.464 9.675,3.138 9.675,3.138 C9.675,2.849 9.796,2.571 10.010,2.370 C11.058,1.392 13.086,0.212 16.849,0.009 C17.482,-0.025 18.013,0.461 18.013,1.077 C18.013,1.077 18.013,11.909 18.013,11.909 C18.013,12.478 17.555,12.948 16.970,12.977 ZM7.452,14.891 C6.282,14.020 4.304,13.134 1.041,12.977 C0.458,12.950 -0.000,12.478 -0.000,11.911 C-0.000,11.911 -0.000,1.077 -0.000,1.077 C-0.000,0.460 0.531,-0.027 1.164,0.009 C4.925,0.212 6.953,1.392 8.001,2.370 C8.215,2.569 8.336,2.848 8.336,3.138 C8.336,3.138 8.336,14.464 8.336,14.464 C8.336,14.908 7.813,15.160 7.452,14.891 Z"/>
</svg>
