<svg xmlns="http://www.w3.org/2000/svg" xmlns:xlink="http://www.w3.org/1999/xlink" preserveAspectRatio="xMidYMid" width="13" height="13" viewBox="0 0 13 13">
  <defs>
    <clipPath id="clip-path-1">
      <rect x="-1603.5" y="-1563.5" width="3296" height="2238"/>
    </clipPath>
  </defs>
  <g clip-path="url(#clip-path-1)">
    <path d="M2.041,11.897 C1.944,11.992 1.787,11.992 1.689,11.897 L0.073,10.313 C-0.020,10.222 -0.020,10.060 0.073,9.969 L4.139,5.984 L0.073,2.000 C0.024,1.952 0.000,1.890 0.000,1.827 C0.000,1.765 0.024,1.702 0.073,1.655 L1.689,0.071 C1.736,0.025 1.799,-0.000 1.865,-0.000 C1.931,-0.000 1.994,0.025 2.041,0.071 L7.900,5.812 C7.993,5.903 7.993,6.065 7.900,6.157 L2.041,11.897 Z" transform="translate(2.5 0.5)"/>
  </g>
</svg>
