<svg xmlns="http://www.w3.org/2000/svg" xmlns:xlink="http://www.w3.org/1999/xlink" preserveAspectRatio="xMidYMid" width="18" height="18" viewBox="0 0 18 18">
  <path d="M9.000,-0.001 C4.031,-0.001 -0.001,4.026 -0.001,8.995 C-0.001,13.970 4.031,18.001 9.000,18.001 C13.972,18.001 18.001,13.970 18.001,8.995 C18.001,4.026 13.972,-0.001 9.000,-0.001 ZM9.642,14.003 C9.432,14.190 9.190,14.283 8.916,14.283 C8.632,14.283 8.384,14.191 8.173,14.007 C7.961,13.824 7.855,13.566 7.855,13.236 C7.855,12.943 7.958,12.696 8.162,12.496 C8.367,12.296 8.618,12.196 8.916,12.196 C9.209,12.196 9.456,12.296 9.656,12.496 C9.856,12.696 9.956,12.943 9.956,13.236 C9.956,13.562 9.851,13.817 9.642,14.003 ZM12.248,7.541 C12.088,7.839 11.897,8.096 11.676,8.312 C11.455,8.529 11.058,8.893 10.486,9.404 C10.328,9.549 10.201,9.676 10.105,9.785 C10.010,9.894 9.939,9.994 9.893,10.085 C9.846,10.176 9.810,10.267 9.784,10.357 C9.759,10.448 9.721,10.607 9.669,10.835 C9.581,11.319 9.304,11.561 8.839,11.561 C8.597,11.561 8.394,11.482 8.228,11.324 C8.063,11.166 7.981,10.931 7.981,10.619 C7.981,10.229 8.041,9.890 8.162,9.604 C8.283,9.317 8.444,9.066 8.643,8.850 C8.844,8.633 9.113,8.376 9.453,8.079 C9.751,7.818 9.966,7.622 10.099,7.489 C10.232,7.356 10.343,7.209 10.434,7.046 C10.525,6.883 10.569,6.706 10.569,6.516 C10.569,6.143 10.432,5.829 10.154,5.574 C9.877,5.318 9.520,5.190 9.083,5.190 C8.571,5.190 8.194,5.319 7.952,5.577 C7.710,5.835 7.506,6.215 7.338,6.718 C7.180,7.244 6.879,7.507 6.438,7.507 C6.177,7.507 5.957,7.415 5.778,7.231 C5.599,7.048 5.510,6.849 5.510,6.634 C5.510,6.193 5.652,5.745 5.935,5.291 C6.219,4.837 6.634,4.462 7.178,4.164 C7.722,3.866 8.358,3.717 9.083,3.717 C9.757,3.717 10.353,3.842 10.869,4.091 C11.386,4.340 11.785,4.678 12.066,5.106 C12.348,5.534 12.489,5.999 12.489,6.502 C12.489,6.897 12.409,7.243 12.248,7.541 Z"/>
</svg>
