<svg xmlns="http://www.w3.org/2000/svg" xmlns:xlink="http://www.w3.org/1999/xlink" preserveAspectRatio="xMidYMid" width="18" height="18" viewBox="0 0 18 18">
  <defs>
    <clipPath id="clip-path-1">
      <rect x="-1210" y="-1408" width="3296" height="2238"/>
    </clipPath>
  </defs>
  <g clip-path="url(#clip-path-1)">
    <path d="M18.000,11.976 C17.964,12.513 17.531,12.950 16.970,12.977 C13.707,13.134 11.729,14.022 10.559,14.891 C10.196,15.158 9.675,14.907 9.675,14.464 L9.675,3.138 C9.675,2.849 9.796,2.571 10.011,2.370 C11.057,1.392 13.086,0.212 16.849,0.009 C17.459,-0.024 17.964,0.431 18.000,1.015 L18.000,11.976 ZM-0.000,1.075 C0.001,0.459 0.532,-0.027 1.164,0.009 C4.925,0.212 6.954,1.392 8.001,2.370 C8.215,2.569 8.336,2.848 8.336,3.138 L8.336,14.464 C8.336,14.908 7.814,15.160 7.452,14.891 C6.282,14.020 4.303,13.134 1.041,12.977 C0.459,12.950 0.001,12.479 -0.000,11.912 L-0.000,1.075 Z" transform="translate(0 1.5)"/>
  </g>
</svg>
