<svg xmlns="http://www.w3.org/2000/svg" xmlns:xlink="http://www.w3.org/1999/xlink" preserveAspectRatio="xMidYMid" width="13" height="13" viewBox="0 0 13 13">
  <path d="M13.000,0.037 L13.000,0.241 C12.702,1.008 11.022,5.211 9.611,6.254 C7.937,7.490 5.501,9.376 5.501,9.376 L4.559,8.477 C4.559,8.477 6.239,5.607 7.601,3.916 C8.641,2.623 12.454,0.277 12.908,0.000 L12.974,0.000 L13.000,0.037 ZM-0.000,12.738 C1.172,12.197 1.098,11.234 1.390,9.991 C1.722,8.581 3.784,9.122 3.784,9.122 L4.942,9.763 C4.942,9.763 4.706,12.742 3.981,12.919 C3.333,13.077 0.692,12.888 -0.000,12.835 L-0.000,12.738 Z" />
</svg>
