<svg xmlns="http://www.w3.org/2000/svg" xmlns:xlink="http://www.w3.org/1999/xlink" preserveAspectRatio="xMidYMid" width="18" height="17.12" viewBox="0 0 18 17.12">
  <path d="M18.000,15.307 L18.000,15.333 C17.991,16.335 16.837,17.117 15.837,17.117 C14.834,17.117 13.955,16.266 13.955,15.259 C13.955,14.507 14.346,13.486 14.994,13.205 C14.985,13.160 14.980,13.115 14.980,13.068 L14.978,9.985 L10.002,10.017 L9.988,13.034 C9.988,13.064 9.983,13.093 9.979,13.122 C10.656,13.418 11.038,14.408 11.038,15.196 C11.038,16.255 9.992,17.053 8.937,17.053 C7.883,17.053 6.962,16.255 6.962,15.196 C6.962,14.408 7.281,13.355 7.958,13.059 C7.955,13.030 7.949,13.001 7.949,12.971 L7.959,9.979 L2.986,9.964 L3.024,12.986 C3.024,13.032 3.018,13.077 3.010,13.121 C3.651,13.399 4.038,14.507 4.038,15.251 C4.038,16.248 3.011,17.027 2.018,17.027 C1.112,17.027 0.161,16.323 -0.000,15.443 L-0.000,14.827 C0.110,14.119 0.513,13.263 1.057,13.027 C1.049,12.983 1.043,12.938 1.043,12.892 L1.001,8.725 C1.001,8.339 1.313,8.026 1.697,8.026 L8.000,8.000 L8.038,4.345 C8.038,4.289 8.025,4.275 8.035,4.222 C7.279,3.895 6.784,2.956 6.784,2.078 C6.784,0.916 7.760,0.022 8.913,0.000 L8.994,0.000 C10.150,0.022 11.178,1.003 11.178,2.166 C11.178,3.043 10.720,3.905 9.964,4.232 C9.974,4.285 10.000,4.263 10.000,4.312 L9.982,7.953 L16.334,8.026 C16.718,8.026 17.030,8.339 17.030,8.725 L17.007,13.068 C17.007,13.115 17.002,13.160 16.994,13.205 C17.637,13.484 17.996,14.556 18.000,15.307 ZM2.084,13.989 C2.059,13.991 2.035,13.996 2.009,13.996 C1.983,13.996 1.959,13.991 1.934,13.989 C1.399,14.027 0.975,14.476 0.975,15.023 C0.975,15.596 1.439,16.061 2.009,16.061 C2.579,16.061 3.043,15.596 3.043,15.023 C3.043,14.476 2.620,14.027 2.084,13.989 ZM10.137,2.252 C10.137,1.597 9.607,1.065 8.955,1.065 C8.304,1.065 7.773,1.597 7.773,2.252 C7.773,2.884 8.268,3.337 8.889,3.372 C8.911,3.370 8.933,3.365 8.955,3.365 C8.978,3.365 8.999,3.370 9.021,3.372 C9.642,3.337 10.137,2.884 10.137,2.252 ZM9.222,14.009 C9.152,14.033 9.078,14.049 9.000,14.049 C8.922,14.049 8.848,14.033 8.778,14.009 C8.314,14.112 7.966,14.527 7.966,15.023 C7.966,15.596 8.430,16.061 9.000,16.061 C9.570,16.061 10.034,15.596 10.034,15.023 C10.034,14.527 9.686,14.112 9.222,14.009 ZM16.065,13.989 C16.040,13.991 16.016,13.996 15.990,13.996 C15.964,13.996 15.940,13.991 15.915,13.989 C15.380,14.027 14.956,14.476 14.956,15.023 C14.956,15.596 15.420,16.029 15.990,16.029 C16.561,16.029 17.024,15.596 17.024,15.023 C17.024,14.476 16.600,14.027 16.065,13.989 Z" />
</svg>
