<svg xmlns="http://www.w3.org/2000/svg" xmlns:xlink="http://www.w3.org/1999/xlink" preserveAspectRatio="xMidYMid" width="13" height="13" viewBox="0 0 13 13">
  <defs>
    <clipPath id="clip-path-1">
      <rect x="-1630.5" y="-1474.5" width="3296" height="2238"/>
    </clipPath>
  </defs>
  <g clip-path="url(#clip-path-1)">
    <path d="M11.000,0.667 L11.000,2.000 L12.000,2.000 L12.000,12.000 C12.000,12.868 10.832,12.988 9.795,13.000 L9.000,13.000 L2.000,13.000 L1.329,13.000 C0.556,12.988 -0.000,12.868 -0.000,12.000 L-0.000,2.000 L1.000,2.000 L1.000,0.667 C1.000,0.298 1.448,0.000 2.000,0.000 C2.552,0.000 3.000,0.298 3.000,0.667 L3.000,2.000 L5.000,2.000 L5.000,0.667 C5.000,0.298 5.448,0.000 6.000,0.000 C6.552,0.000 7.000,0.298 7.000,0.667 L7.000,2.000 L9.000,2.000 L9.000,0.667 C9.000,0.298 9.448,0.000 10.000,0.000 C10.552,0.000 11.000,0.298 11.000,0.667 ZM2.500,3.000 L1.500,3.000 C1.224,3.000 1.000,3.224 1.000,3.500 C1.000,3.776 1.224,4.000 1.500,4.000 L2.500,4.000 C2.776,4.000 3.000,3.776 3.000,3.500 C3.000,3.224 2.776,3.000 2.500,3.000 ZM6.500,3.000 L5.500,3.000 C5.224,3.000 5.000,3.224 5.000,3.500 C5.000,3.776 5.224,4.000 5.500,4.000 L6.500,4.000 C6.776,4.000 7.000,3.776 7.000,3.500 C7.000,3.224 6.776,3.000 6.500,3.000 ZM1.000,5.000 L1.000,12.000 L11.000,12.000 L11.000,5.000 L1.000,5.000 ZM10.500,3.000 L9.500,3.000 C9.224,3.000 9.000,3.224 9.000,3.500 C9.000,3.776 9.224,4.000 9.500,4.000 L10.500,4.000 C10.776,4.000 11.000,3.776 11.000,3.500 C11.000,3.224 10.776,3.000 10.500,3.000 ZM8.000,9.000 L10.000,9.000 L10.000,11.000 L8.000,11.000 L8.000,9.000 ZM8.000,6.000 L10.000,6.000 L10.000,8.000 L8.000,8.000 L8.000,6.000 ZM5.000,9.000 L7.000,9.000 L7.000,11.000 L5.000,11.000 L5.000,9.000 ZM5.000,6.000 L7.000,6.000 L7.000,8.000 L5.000,8.000 L5.000,6.000 ZM2.000,9.000 L4.000,9.000 L4.000,11.000 L2.000,11.000 L2.000,9.000 ZM2.000,6.000 L4.000,6.000 L4.000,8.000 L2.000,8.000 L2.000,6.000 Z" transform="translate(0.5)"/>
  </g>
</svg>
