<svg xmlns="http://www.w3.org/2000/svg" xmlns:xlink="http://www.w3.org/1999/xlink" preserveAspectRatio="xMidYMid" width="10" height="13" viewBox="0 0 10 13">
  <path d="M9.291,5.031 C9.291,5.031 9.037,5.031 9.037,5.031 C9.037,5.031 9.037,4.064 9.037,4.064 C9.037,1.871 7.296,0.039 5.119,0.000 C5.059,-0.001 4.941,-0.001 4.881,0.000 C2.704,0.039 0.963,1.871 0.963,4.064 C0.963,4.064 0.963,5.031 0.963,5.031 C0.963,5.031 0.709,5.031 0.709,5.031 C0.319,5.031 0.000,5.434 0.000,5.931 C0.000,5.931 0.000,12.096 0.000,12.096 C0.000,12.593 0.319,13.000 0.709,13.000 C0.709,13.000 9.291,13.000 9.291,13.000 C9.681,13.000 10.000,12.593 10.000,12.096 C10.000,12.096 10.000,5.931 10.000,5.931 C10.000,5.434 9.681,5.031 9.291,5.031 ZM5.710,8.773 C5.710,8.773 5.710,10.570 5.710,10.570 C5.710,10.776 5.538,10.950 5.332,10.950 C5.332,10.950 4.668,10.950 4.668,10.950 C4.462,10.950 4.290,10.776 4.290,10.570 C4.290,10.570 4.290,8.773 4.290,8.773 C4.090,8.577 3.880,8.305 3.880,8.004 C3.880,7.434 4.321,6.757 4.881,6.735 C4.941,6.732 5.059,6.732 5.119,6.735 C5.679,6.757 6.120,7.434 6.120,8.004 C6.120,8.305 5.910,8.577 5.710,8.773 ZM7.366,5.031 C7.366,5.031 5.119,5.031 5.119,5.031 C5.119,5.031 4.881,5.031 4.881,5.031 C4.881,5.031 2.634,5.031 2.634,5.031 C2.634,5.031 2.634,4.064 2.634,4.064 C2.634,2.758 3.696,1.678 5.000,1.678 C6.304,1.678 7.366,2.758 7.366,4.064 C7.366,4.064 7.366,5.031 7.366,5.031 Z"/>
</svg>
