<svg xmlns="http://www.w3.org/2000/svg" xmlns:xlink="http://www.w3.org/1999/xlink" width="19px" height="17px">
    <path d="M17.935,8.912 L17.801,9.065 C17.578,9.317 17.205,9.353 16.968,9.145 L9.544,2.640 L2.089,9.138 C1.851,9.346 1.479,9.308 1.259,9.054 L1.125,8.901 C0.904,8.647 0.918,8.273 1.156,8.066 L9.165,1.085 C9.179,1.073 9.197,1.069 9.212,1.059 C9.251,1.032 9.289,1.009 9.332,0.992 C9.357,0.983 9.380,0.976 9.406,0.971 C9.585,0.925 9.775,0.951 9.918,1.077 L17.908,8.079 C18.146,8.286 18.157,8.660 17.935,8.912 ZM15.996,9.524 L15.996,15.587 C15.996,15.826 15.803,16.019 15.565,16.019 L3.441,16.019 C3.203,16.019 3.010,15.826 3.010,15.587 L3.010,9.668 L9.590,4.097 L15.996,9.524 ZM7.971,15.961 L10.979,15.997 L11.005,12.844 C11.005,12.153 10.164,11.729 9.474,11.729 C8.784,11.729 8.000,12.091 8.000,12.781 L7.971,15.961 ZM8.281,7.885 L8.281,8.260 C8.281,8.813 8.729,9.260 9.281,9.260 L9.688,9.260 C10.240,9.260 10.687,8.813 10.687,8.260 L10.687,7.885 C10.687,7.333 10.240,6.885 9.688,6.885 L9.281,6.885 C8.729,6.885 8.281,7.333 8.281,7.885 Z"/>
</svg>
