<svg xmlns="http://www.w3.org/2000/svg" xmlns:xlink="http://www.w3.org/1999/xlink" preserveAspectRatio="xMidYMid" width="13" height="10" viewBox="0 0 13 10">
  <path d="M12.188,5.351 C12.188,5.351 7.864,9.599 7.864,9.599 C7.759,9.698 7.635,9.747 7.491,9.747 C7.347,9.747 7.223,9.698 7.118,9.599 C7.013,9.500 6.960,9.383 6.960,9.248 C6.960,9.248 6.960,6.999 6.960,6.999 C6.960,6.999 3.526,6.999 3.526,6.999 C3.382,6.999 3.258,6.949 3.153,6.851 C3.047,6.752 2.995,6.635 2.995,6.499 C2.995,6.499 2.995,3.501 2.995,3.501 C2.995,3.365 3.047,3.248 3.153,3.149 C3.258,3.051 3.382,3.001 3.526,3.001 C3.526,3.001 6.960,3.001 6.960,3.001 C6.960,3.001 6.960,0.752 6.960,0.752 C6.960,0.617 7.013,0.500 7.118,0.401 C7.223,0.302 7.347,0.252 7.491,0.252 C7.635,0.252 7.759,0.302 7.864,0.401 C7.864,0.401 12.188,4.649 12.188,4.649 C12.293,4.748 12.346,4.865 12.346,5.000 C12.346,5.135 12.293,5.253 12.188,5.351 ZM5.210,0.951 C5.169,0.985 5.112,1.002 5.040,1.002 C5.040,1.002 2.386,1.002 2.386,1.002 C2.021,1.002 1.709,1.124 1.449,1.369 C1.189,1.614 1.059,1.908 1.059,2.251 C1.059,2.251 1.059,7.748 1.059,7.748 C1.059,8.092 1.189,8.386 1.449,8.631 C1.709,8.875 2.021,8.998 2.386,8.998 C2.386,8.998 4.775,8.998 4.775,8.998 C4.775,8.998 4.866,8.998 4.866,8.998 C4.866,8.998 4.974,8.998 4.974,8.998 C4.974,8.998 5.006,9.000 5.069,9.005 C5.133,9.011 5.165,9.019 5.165,9.029 C5.165,9.039 5.187,9.054 5.231,9.072 C5.275,9.090 5.295,9.114 5.289,9.142 C5.283,9.171 5.289,9.206 5.306,9.248 C5.306,9.269 5.308,9.321 5.314,9.404 C5.320,9.487 5.321,9.556 5.318,9.611 C5.315,9.665 5.307,9.727 5.293,9.794 C5.279,9.862 5.252,9.913 5.210,9.947 C5.169,9.980 5.112,9.997 5.040,9.997 C5.040,9.997 2.386,9.997 2.386,9.997 C1.728,9.997 1.166,9.777 0.699,9.337 C0.231,8.897 -0.002,8.368 -0.002,7.748 C-0.002,7.748 -0.002,2.251 -0.002,2.251 C-0.002,1.632 0.231,1.102 0.699,0.663 C1.166,0.223 1.728,0.003 2.386,0.003 C2.386,0.003 5.040,0.003 5.040,0.003 C5.112,0.003 5.174,0.027 5.227,0.077 C5.279,0.126 5.306,0.185 5.306,0.252 C5.306,0.273 5.308,0.325 5.314,0.409 C5.319,0.492 5.321,0.561 5.318,0.616 C5.315,0.670 5.307,0.731 5.293,0.799 C5.279,0.867 5.252,0.917 5.210,0.951 Z"/>
</svg>
