<svg xmlns="http://www.w3.org/2000/svg" xmlns:xlink="http://www.w3.org/1999/xlink" preserveAspectRatio="xMidYMid" width="14" height="14" viewBox="0 0 14 14">
  <path d="M11.000,14.000 C11.000,14.000 3.000,14.000 3.000,14.000 C1.343,14.000 -0.000,12.657 -0.000,11.000 C-0.000,11.000 -0.000,3.000 -0.000,3.000 C-0.000,1.343 1.343,-0.000 3.000,-0.000 C3.000,-0.000 11.000,-0.000 11.000,-0.000 C12.657,-0.000 14.000,1.343 14.000,3.000 C14.000,3.000 14.000,11.000 14.000,11.000 C14.000,12.657 12.657,14.000 11.000,14.000 ZM11.000,4.074 C10.569,3.730 10.045,4.083 9.637,4.593 C9.637,4.593 6.493,8.919 6.493,8.919 C6.493,8.919 4.779,6.744 4.779,6.744 C4.438,6.309 4.028,6.108 3.593,6.449 C3.159,6.790 3.083,7.419 3.424,7.853 C3.424,7.853 5.707,10.750 5.707,10.750 C5.728,10.777 5.759,10.790 5.782,10.814 C5.816,10.855 5.832,10.900 5.879,10.938 C5.911,10.963 5.951,10.967 5.986,10.988 C6.013,11.004 6.041,11.014 6.070,11.027 C6.151,11.064 6.231,11.097 6.320,11.108 C6.417,11.125 6.512,11.120 6.610,11.108 C6.626,11.106 6.641,11.108 6.657,11.105 C6.817,11.078 6.974,11.026 7.111,10.919 C7.143,10.894 7.151,10.862 7.178,10.835 C7.254,10.773 7.334,10.718 7.399,10.637 C7.399,10.637 11.044,5.622 11.044,5.622 C11.452,5.112 11.432,4.419 11.000,4.074 Z"/>
</svg>
