<svg xmlns="http://www.w3.org/2000/svg" xmlns:xlink="http://www.w3.org/1999/xlink" preserveAspectRatio="xMidYMid" width="14" height="14" viewBox="0 0 14 14">
  <path d="M11.000,14.000 C11.000,14.000 3.000,14.000 3.000,14.000 C1.343,14.000 -0.000,12.657 -0.000,11.000 C-0.000,11.000 -0.000,3.000 -0.000,3.000 C-0.000,1.343 1.343,0.000 3.000,0.000 C3.000,0.000 11.000,0.000 11.000,0.000 C12.657,0.000 14.000,1.343 14.000,3.000 C14.000,3.000 14.000,11.000 14.000,11.000 C14.000,12.657 12.657,14.000 11.000,14.000 ZM13.000,4.000 C13.000,2.343 11.657,1.000 10.000,1.000 C10.000,1.000 4.000,1.000 4.000,1.000 C2.343,1.000 1.000,2.343 1.000,4.000 C1.000,4.000 1.000,10.000 1.000,10.000 C1.000,11.657 2.343,13.000 4.000,13.000 C4.000,13.000 10.000,13.000 10.000,13.000 C11.657,13.000 13.000,11.657 13.000,10.000 C13.000,10.000 13.000,4.000 13.000,4.000 Z"/>
</svg>
