<svg xmlns="http://www.w3.org/2000/svg" xmlns:xlink="http://www.w3.org/1999/xlink" preserveAspectRatio="xMidYMid" width="13" height="13" viewBox="0 0 13 13">
  <path d="M6.500,13.000 C2.910,13.000 0.000,10.090 0.000,6.500 C0.000,2.910 2.910,0.001 6.499,0.000 L6.501,0.000 C10.091,0.001 13.000,2.910 13.000,6.500 C13.000,10.090 10.090,13.000 6.500,13.000 ZM6.500,1.419 C3.694,1.419 1.419,3.694 1.419,6.500 C1.419,9.306 3.694,11.581 6.500,11.581 C9.306,11.581 11.581,9.306 11.581,6.500 C11.581,3.694 9.306,1.419 6.500,1.419 ZM6.000,7.000 L6.000,6.000 L6.000,3.000 L7.000,3.000 L7.000,6.000 L9.000,6.000 L9.000,7.000 L7.000,7.000 L6.000,7.000 Z"/>
</svg>
