<svg xmlns="http://www.w3.org/2000/svg" xmlns:xlink="http://www.w3.org/1999/xlink" preserveAspectRatio="xMidYMid" width="18" height="18" viewBox="0 0 18 18">
  <defs>
    <clipPath id="clip-path-1">
      <rect x="-1157" y="-1409" width="3296" height="2238"/>
    </clipPath>
  </defs>
  <g clip-path="url(#clip-path-1)">
    <path d="M2.978,5.044 C2.957,4.922 2.945,4.796 2.945,4.666 C2.945,3.441 3.947,2.449 5.184,2.449 C5.736,2.449 6.242,2.646 6.632,2.975 C7.327,1.423 8.218,0.008 10.719,0.008 C13.752,0.008 15.189,2.324 15.189,4.768 C15.189,4.870 15.185,4.971 15.178,5.072 C16.780,5.395 17.985,6.791 18.000,8.470 L18.000,8.527 C17.985,10.447 16.411,12.000 14.469,12.000 L3.533,12.000 C1.582,12.000 -0.000,10.433 -0.000,8.500 C-0.000,6.755 1.290,5.309 2.978,5.044 Z" transform="translate(0 3)" />
  </g>
</svg>
