<svg xmlns="http://www.w3.org/2000/svg" xmlns:xlink="http://www.w3.org/1999/xlink" preserveAspectRatio="xMidYMid" width="24" height="24" viewBox="0 0 24 24">
  <defs>
    <clipPath id="clip-path-1">
      <rect x="-1160" y="-1334" width="3296" height="2238"/>
    </clipPath>
  </defs>
  <g clip-path="url(#clip-path-1)">
    <path d="M17.723,15.392 C17.628,15.486 17.499,15.539 17.364,15.539 C17.229,15.539 17.100,15.486 17.005,15.392 L15.677,14.083 C15.479,13.888 15.479,13.571 15.677,13.375 L20.115,9.000 L15.676,4.626 C15.478,4.430 15.478,4.113 15.676,3.918 L17.005,2.609 C17.195,2.421 17.533,2.421 17.723,2.609 L23.849,8.647 C24.047,8.842 24.047,9.159 23.849,9.355 L17.723,15.392 ZM14.100,0.023 L15.177,0.337 C15.306,0.374 15.415,0.461 15.479,0.577 C15.544,0.694 15.559,0.831 15.520,0.958 L10.522,17.642 C10.457,17.859 10.254,18.001 10.035,18.001 C9.988,18.001 9.939,17.994 9.891,17.980 L8.814,17.667 C8.685,17.629 8.576,17.542 8.512,17.426 C8.448,17.309 8.433,17.172 8.471,17.045 L13.469,0.362 C13.549,0.097 13.832,-0.055 14.100,0.023 ZM8.315,14.083 L6.987,15.392 C6.892,15.486 6.763,15.539 6.628,15.539 C6.493,15.539 6.364,15.486 6.269,15.392 L0.143,9.355 C0.048,9.260 0.004,9.137 0.000,9.014 L0.000,8.987 C0.004,8.864 0.048,8.741 0.143,8.647 L6.269,2.609 C6.364,2.515 6.494,2.462 6.628,2.462 C6.763,2.462 6.892,2.515 6.987,2.609 L8.315,3.918 C8.411,4.012 8.464,4.139 8.464,4.272 C8.464,4.405 8.411,4.532 8.315,4.626 L3.877,9.000 L8.315,13.375 C8.514,13.571 8.514,13.888 8.315,14.083 Z" transform="translate(0 3)" />
  </g>
</svg>
