<svg xmlns="http://www.w3.org/2000/svg" xmlns:xlink="http://www.w3.org/1999/xlink" preserveAspectRatio="xMidYMid" width="13" height="9" viewBox="0 0 13 9">
  <path d="M11.868,4.042 C11.914,3.825 11.937,3.601 11.937,3.371 C11.937,1.514 10.389,0.009 8.479,0.009 C7.062,0.009 5.845,0.837 5.310,2.023 C4.899,1.762 4.410,1.610 3.883,1.610 C2.497,1.610 1.366,2.656 1.271,3.979 C0.525,4.312 0.006,5.043 0.006,5.893 C0.006,7.057 0.976,9.000 2.173,9.000 C2.173,9.000 4.906,9.000 5.810,9.000 C5.987,9.000 5.996,8.820 5.996,8.820 C5.996,8.820 5.996,7.224 5.996,7.224 C5.996,7.098 5.884,6.995 5.746,6.995 C5.746,6.995 4.636,6.995 4.636,6.995 C4.499,6.995 4.453,6.912 4.535,6.811 C4.535,6.811 6.837,3.708 6.837,3.708 C6.919,3.607 7.052,3.607 7.134,3.708 C7.134,3.708 9.400,6.811 9.400,6.811 C9.481,6.912 9.436,6.995 9.299,6.995 C9.299,6.995 8.251,6.995 8.251,6.995 C8.114,6.995 8.001,7.098 8.001,7.224 C8.001,7.224 8.001,8.823 8.001,8.823 C8.001,8.823 8.012,9.000 8.195,9.000 C9.098,9.000 10.833,9.000 10.833,9.000 C12.030,9.000 13.000,8.057 13.000,6.893 C13.000,6.094 12.542,4.399 11.868,4.042 Z"/>
</svg>
