<svg xmlns="http://www.w3.org/2000/svg" xmlns:xlink="http://www.w3.org/1999/xlink" preserveAspectRatio="xMidYMid" width="24" height="24" viewBox="0 0 24 24">
  <defs>
    <clipPath id="clip-path-1">
      <rect x="-1551" y="-1333" width="3296" height="2238"/>
    </clipPath>
  </defs>
  <g clip-path="url(#clip-path-1)">
    <path d="M21.218,18.212 L21.218,18.989 L18.995,18.989 L18.995,16.365 L21.186,16.365 L21.186,17.012 L23.987,17.089 L23.987,18.086 L21.218,18.212 ZM21.218,13.802 L18.995,13.802 L18.995,11.177 L21.186,11.177 L21.186,11.825 L23.987,11.902 L23.987,12.899 L21.218,13.025 L21.218,13.802 ZM21.218,8.615 L18.995,8.615 L18.995,5.990 L21.186,5.990 L21.186,6.638 L23.987,6.715 L23.987,7.712 L21.218,7.838 L21.218,8.615 ZM21.218,3.615 L18.995,3.615 L18.995,0.990 L21.186,0.990 L21.186,1.638 L23.987,1.715 L23.987,2.712 L21.218,2.838 L21.218,3.615 ZM17.492,19.972 L6.489,19.972 C6.206,19.972 5.978,19.742 5.978,19.459 L5.978,0.502 C5.978,0.219 6.206,-0.010 6.489,-0.010 L17.492,-0.010 C17.774,-0.010 18.003,0.219 18.003,0.502 L18.003,19.459 C18.003,19.742 17.774,19.972 17.492,19.972 ZM8.920,1.952 C8.331,1.952 7.854,2.430 7.854,3.017 C7.854,3.605 8.331,4.081 8.920,4.081 C9.508,4.081 9.983,3.604 9.983,3.017 C9.983,2.429 9.507,1.952 8.920,1.952 ZM2.720,18.104 L-0.000,18.032 L-0.000,17.066 L2.689,16.948 L2.689,16.199 L4.912,16.199 L4.912,18.728 L2.720,18.728 L2.720,18.104 ZM2.720,13.104 L-0.000,13.032 L-0.000,12.066 L2.689,11.948 L2.689,11.199 L4.912,11.199 L4.912,13.728 L2.720,13.728 L2.720,13.104 ZM2.720,8.104 L-0.000,8.032 L-0.000,7.065 L2.689,6.948 L2.689,6.199 L4.912,6.199 L4.912,8.728 L2.720,8.728 L2.720,8.104 ZM2.720,3.104 L0.013,3.030 L0.013,2.069 L2.689,1.948 L2.689,1.199 L4.912,1.199 L4.912,3.728 L2.720,3.728 L2.720,3.104 Z" transform="translate(0 2.01)" />
  </g>
</svg>
