<svg xmlns="http://www.w3.org/2000/svg" xmlns:xlink="http://www.w3.org/1999/xlink" preserveAspectRatio="xMidYMid" width="13" height="12.37" viewBox="0 0 13 12.37">
  <defs>
    <clipPath id="clip-path-1">
      <rect x="-1540.985" y="-1518.145" width="3296" height="2238"/>
    </clipPath>
  </defs>
  <g clip-path="url(#clip-path-1)">
    <path d="M7.953,6.790 L5.953,6.790 C5.401,6.790 4.167,6.153 5.934,5.540 C5.934,5.540 6.095,5.466 6.321,5.309 C6.120,5.266 5.922,5.166 5.753,4.997 L2.350,1.594 C1.960,1.204 1.866,0.664 2.256,0.274 L2.264,0.266 C2.655,-0.125 3.288,-0.125 3.679,0.266 L7.081,3.669 C7.230,3.817 7.304,4.004 7.339,4.196 C7.485,3.948 7.574,3.752 7.574,3.752 C8.537,2.019 8.953,3.238 8.953,3.790 L8.953,5.790 C8.953,6.342 8.505,6.790 7.953,6.790 ZM6.081,10.669 C6.472,11.059 6.472,11.692 6.081,12.083 L6.073,12.091 C5.683,12.481 5.143,12.388 4.753,11.997 L1.516,8.760 C0.680,10.576 -0.015,9.367 -0.015,8.827 L-0.015,6.827 C-0.015,6.275 0.432,5.828 0.985,5.828 L2.984,5.828 C3.537,5.828 4.878,6.416 2.959,7.314 C2.959,7.314 2.838,7.274 2.663,7.255 C2.667,7.260 2.674,7.261 2.679,7.266 L6.081,10.669 Z" transform="translate(2.01)" />
  </g>
</svg>
