<svg xmlns="http://www.w3.org/2000/svg" xmlns:xlink="http://www.w3.org/1999/xlink" preserveAspectRatio="xMidYMid" width="16" height="17" viewBox="0 0 16 17">
  <path d="M13.994,12.580 C14.002,12.535 14.007,12.490 14.007,12.443 C14.007,12.443 14.061,7.818 14.061,7.818 C14.061,7.433 13.750,7.120 13.365,7.120 C13.365,7.120 8.259,7.120 8.259,7.120 C8.259,7.120 8.311,3.888 8.311,3.888 C8.311,3.839 8.306,3.792 8.297,3.746 C8.958,3.459 9.423,2.643 9.423,1.875 C9.423,0.845 8.588,0.007 7.563,0.007 C6.537,0.007 5.703,0.845 5.703,1.875 C5.703,2.643 6.167,3.459 6.829,3.746 C6.820,3.792 6.814,3.839 6.814,3.888 C6.814,3.888 6.867,7.120 6.867,7.120 C6.867,7.120 1.728,7.120 1.728,7.120 C1.344,7.120 1.032,7.433 1.032,7.818 C1.032,7.818 1.075,12.579 1.075,12.579 C1.075,12.626 1.080,12.670 1.088,12.715 C0.448,12.992 -0.002,13.632 -0.002,14.376 C-0.002,15.373 0.806,16.183 1.799,16.183 C2.792,16.183 3.600,15.373 3.600,14.376 C3.600,13.632 3.151,12.773 2.510,12.496 C2.518,12.452 2.524,12.407 2.524,12.360 C2.524,12.360 2.424,8.517 2.424,8.517 C2.424,8.517 6.866,8.517 6.866,8.517 C6.866,8.517 6.793,12.315 6.793,12.315 C6.793,12.345 6.798,12.374 6.802,12.403 C6.125,12.699 5.650,13.533 5.650,14.321 C5.650,15.379 6.508,16.240 7.562,16.240 C8.617,16.240 9.475,15.379 9.475,14.321 C9.475,13.533 9.000,12.699 8.323,12.403 C8.326,12.374 8.332,12.345 8.332,12.315 C8.332,12.315 8.259,8.517 8.259,8.517 C8.259,8.517 12.669,8.517 12.669,8.517 C12.669,8.517 12.543,12.443 12.543,12.443 C12.543,12.490 12.548,12.535 12.556,12.580 C11.909,12.860 11.455,13.695 11.455,14.446 C11.455,15.454 12.271,16.273 13.275,16.273 C14.278,16.273 15.095,15.454 15.095,14.446 C15.096,13.695 14.641,12.860 13.994,12.580 ZM6.529,2.009 C6.529,1.436 6.992,0.970 7.563,0.970 C8.133,0.970 8.597,1.436 8.597,2.009 C8.597,2.562 8.164,3.013 7.620,3.043 C7.601,3.042 7.582,3.038 7.563,3.038 C7.543,3.038 7.524,3.042 7.505,3.043 C6.962,3.013 6.529,2.562 6.529,2.009 ZM2.762,14.117 C2.762,14.689 2.298,15.154 1.728,15.154 C1.158,15.154 0.694,14.689 0.694,14.117 C0.694,13.570 1.118,13.121 1.653,13.082 C1.678,13.085 1.702,13.090 1.728,13.090 C1.754,13.090 1.778,13.085 1.803,13.082 C2.338,13.121 2.762,13.570 2.762,14.117 ZM8.596,14.117 C8.596,14.689 8.132,15.154 7.562,15.154 C6.992,15.154 6.528,14.689 6.528,14.117 C6.528,13.621 6.877,13.206 7.341,13.103 C7.411,13.127 7.484,13.143 7.562,13.143 C7.640,13.143 7.714,13.127 7.784,13.103 C8.248,13.205 8.596,13.621 8.596,14.117 ZM13.365,15.154 C12.795,15.154 12.331,14.689 12.331,14.117 C12.331,13.570 12.755,13.121 13.290,13.082 C13.316,13.085 13.340,13.090 13.365,13.090 C13.391,13.090 13.415,13.085 13.441,13.082 C13.975,13.121 14.400,13.570 14.400,14.117 C14.400,14.689 13.936,15.154 13.365,15.154 Z"/>
</svg>
