<svg xmlns="http://www.w3.org/2000/svg" xmlns:xlink="http://www.w3.org/1999/xlink" preserveAspectRatio="xMidYMid" width="13" height="13" viewBox="0 0 13 13">
  <path d="M10.000,13.000 C10.000,13.000 10.000,10.000 10.000,10.000 C10.000,10.000 13.000,10.000 13.000,10.000 C13.000,10.000 13.000,13.000 13.000,13.000 C13.000,13.000 10.000,13.000 10.000,13.000 ZM10.000,5.000 C10.000,5.000 13.000,5.000 13.000,5.000 C13.000,5.000 13.000,8.000 13.000,8.000 C13.000,8.000 10.000,8.000 10.000,8.000 C10.000,8.000 10.000,5.000 10.000,5.000 ZM10.000,-0.000 C10.000,-0.000 13.000,-0.000 13.000,-0.000 C13.000,-0.000 13.000,3.000 13.000,3.000 C13.000,3.000 10.000,3.000 10.000,3.000 C10.000,3.000 10.000,-0.000 10.000,-0.000 ZM5.000,10.000 C5.000,10.000 8.000,10.000 8.000,10.000 C8.000,10.000 8.000,13.000 8.000,13.000 C8.000,13.000 5.000,13.000 5.000,13.000 C5.000,13.000 5.000,10.000 5.000,10.000 ZM5.000,5.000 C5.000,5.000 8.000,5.000 8.000,5.000 C8.000,5.000 8.000,8.000 8.000,8.000 C8.000,8.000 5.000,8.000 5.000,8.000 C5.000,8.000 5.000,5.000 5.000,5.000 ZM5.000,-0.000 C5.000,-0.000 8.000,-0.000 8.000,-0.000 C8.000,-0.000 8.000,3.000 8.000,3.000 C8.000,3.000 5.000,3.000 5.000,3.000 C5.000,3.000 5.000,-0.000 5.000,-0.000 ZM0.000,10.000 C0.000,10.000 3.000,10.000 3.000,10.000 C3.000,10.000 3.000,13.000 3.000,13.000 C3.000,13.000 0.000,13.000 0.000,13.000 C0.000,13.000 0.000,10.000 0.000,10.000 ZM0.000,5.000 C0.000,5.000 3.000,5.000 3.000,5.000 C3.000,5.000 3.000,8.000 3.000,8.000 C3.000,8.000 0.000,8.000 0.000,8.000 C0.000,8.000 0.000,5.000 0.000,5.000 ZM0.000,-0.000 C0.000,-0.000 3.000,-0.000 3.000,-0.000 C3.000,-0.000 3.000,3.000 3.000,3.000 C3.000,3.000 0.000,3.000 0.000,3.000 C0.000,3.000 0.000,-0.000 0.000,-0.000 Z"/>
</svg>
