<svg xmlns="http://www.w3.org/2000/svg" xmlns:xlink="http://www.w3.org/1999/xlink" preserveAspectRatio="xMidYMid" width="13" height="13" viewBox="0 0 13 13">
  <defs>
    <clipPath id="clip-path-1">
      <rect x="-1449" y="-1474" width="3296" height="2238"/>
    </clipPath>
  </defs>
  <g clip-path="url(#clip-path-1)">
    <path d="M1.015,12.094 L1.007,2.992 L9.980,2.992 L9.981,12.311 C9.964,12.716 9.207,12.991 8.808,12.991 L4.672,13.000 L1.678,13.000 C1.293,12.981 1.032,12.491 1.015,12.094 ZM2.795,11.987 L8.407,11.968 C8.806,11.968 8.984,11.546 9.001,11.141 L9.050,3.960 L2.006,3.973 L1.971,11.347 C1.988,11.752 2.396,11.987 2.795,11.987 ZM3.237,4.983 L3.721,4.983 C3.887,4.983 4.023,5.120 4.023,5.290 L4.023,10.711 C4.023,10.881 3.887,11.018 3.721,11.018 L3.237,11.018 C3.070,11.018 2.935,10.881 2.935,10.711 L2.935,5.290 C2.935,5.120 3.070,4.983 3.237,4.983 ZM5.258,4.983 L5.742,4.983 C5.909,4.983 6.044,5.120 6.044,5.290 L6.044,10.711 C6.044,10.881 5.909,11.018 5.742,11.018 L5.258,11.018 C5.092,11.018 4.956,10.881 4.956,10.711 L4.956,5.290 C4.956,5.120 5.092,4.983 5.258,4.983 ZM7.279,4.983 L7.763,4.983 C7.930,4.983 8.034,5.120 8.034,5.290 L8.034,10.711 C8.034,10.881 7.930,11.018 7.763,11.018 L7.279,11.018 C7.113,11.018 6.977,10.881 6.977,10.711 L6.977,5.290 C6.977,5.120 7.113,4.983 7.279,4.983 ZM-0.009,1.457 C-0.009,1.195 0.200,0.983 0.458,0.983 L3.975,0.983 L3.975,0.149 C3.975,0.070 4.034,0.013 4.107,0.000 L6.861,0.000 C6.935,0.013 6.994,0.070 6.994,0.149 L6.994,0.983 L10.542,0.983 C10.800,0.983 11.009,1.195 11.009,1.457 L11.009,1.979 L-0.009,1.979 L-0.009,1.457 Z" transform="translate(1)" />
  </g>
</svg>
