<svg xmlns="http://www.w3.org/2000/svg" xmlns:xlink="http://www.w3.org/1999/xlink" preserveAspectRatio="xMidYMid" width="13" height="13" viewBox="0 0 13 13">
  <path d="M6.500,12.989 C2.913,12.989 0.006,10.081 0.006,6.494 C0.006,2.906 2.913,-0.000 6.500,0.001 C10.087,0.001 12.994,2.907 12.994,6.494 C12.994,10.081 10.087,12.989 6.500,12.989 ZM6.500,1.085 C3.511,1.085 1.090,3.506 1.090,6.494 C1.090,9.480 3.511,11.904 6.500,11.904 C9.486,11.904 11.908,9.481 11.908,6.494 C11.908,3.506 9.487,1.085 6.500,1.085 ZM6.640,9.773 C6.602,9.823 6.543,9.852 6.480,9.852 C6.418,9.853 6.359,9.825 6.319,9.777 C6.319,9.777 4.223,7.328 4.223,7.328 C4.172,7.267 4.162,7.182 4.195,7.110 C4.229,7.037 4.302,6.992 4.382,6.992 C4.758,6.992 5.461,6.992 5.461,6.992 C5.461,6.992 5.461,3.782 5.461,3.172 C5.461,3.172 5.418,3.006 5.668,3.006 C5.921,3.006 7.069,3.006 7.247,3.006 C7.428,3.006 7.423,3.144 7.423,3.144 C7.423,3.737 7.423,6.993 7.423,6.993 C7.423,6.993 8.152,6.993 8.500,6.993 C8.579,6.993 8.650,7.039 8.685,7.110 C8.719,7.180 8.710,7.265 8.661,7.327 C8.661,7.327 6.640,9.773 6.640,9.773 Z"/>
</svg>
