<svg xmlns="http://www.w3.org/2000/svg" xmlns:xlink="http://www.w3.org/1999/xlink" preserveAspectRatio="xMidYMid" width="40" height="40" viewBox="0 0 40 40">
  <path d="M39.414,40.000 C39.414,40.000 36.586,40.000 36.586,40.000 C36.586,40.000 40.000,36.586 40.000,36.586 C40.000,36.586 40.000,39.414 40.000,39.414 C40.000,39.414 39.414,40.000 39.414,40.000 ZM31.414,40.000 C31.414,40.000 28.586,40.000 28.586,40.000 C28.586,40.000 40.000,28.586 40.000,28.586 C40.000,28.586 40.000,31.414 40.000,31.414 C40.000,31.414 31.414,40.000 31.414,40.000 ZM23.414,40.000 C23.414,40.000 20.586,40.000 20.586,40.000 C20.586,40.000 40.000,20.586 40.000,20.586 C40.000,20.586 40.000,23.414 40.000,23.414 C40.000,23.414 23.414,40.000 23.414,40.000 ZM15.414,40.000 C15.414,40.000 12.586,40.000 12.586,40.000 C12.586,40.000 40.000,12.586 40.000,12.586 C40.000,12.586 40.000,15.414 40.000,15.414 C40.000,15.414 15.414,40.000 15.414,40.000 ZM7.414,40.000 C7.414,40.000 4.586,40.000 4.586,40.000 C4.586,40.000 40.000,4.586 40.000,4.586 C40.000,4.586 40.000,7.414 40.000,7.414 C40.000,7.414 7.414,40.000 7.414,40.000 ZM-0.000,39.414 C-0.000,39.414 -0.000,36.586 -0.000,36.586 C-0.000,36.586 36.586,0.000 36.586,0.000 C36.586,0.000 39.414,0.000 39.414,0.000 C39.414,0.000 -0.000,39.414 -0.000,39.414 ZM-0.000,31.414 C-0.000,31.414 -0.000,28.586 -0.000,28.586 C-0.000,28.586 28.563,0.022 28.563,0.022 C28.563,0.022 31.392,0.022 31.392,0.022 C31.392,0.022 -0.000,31.414 -0.000,31.414 ZM-0.000,23.414 C-0.000,23.414 -0.000,20.586 -0.000,20.586 C-0.000,20.586 20.586,0.000 20.586,0.000 C20.586,0.000 23.414,0.000 23.414,0.000 C23.414,0.000 -0.000,23.414 -0.000,23.414 ZM-0.000,15.414 C-0.000,15.414 -0.000,12.586 -0.000,12.586 C-0.000,12.586 12.586,0.000 12.586,0.000 C12.586,0.000 15.414,0.000 15.414,0.000 C15.414,0.000 -0.000,15.414 -0.000,15.414 ZM-0.000,7.414 C-0.000,7.414 -0.000,4.586 -0.000,4.586 C-0.000,4.586 4.586,0.000 4.586,0.000 C4.586,0.000 7.414,0.000 7.414,0.000 C7.414,0.000 -0.000,7.414 -0.000,7.414 Z"/>
</svg>
