<svg xmlns="http://www.w3.org/2000/svg" xmlns:xlink="http://www.w3.org/1999/xlink" preserveAspectRatio="xMidYMid" width="13" height="13" viewBox="0 0 13 13">
  <defs>
    <clipPath id="clip-path-1">
      <rect x="-1197" y="-1522.03" width="3296" height="2238"/>
    </clipPath>
  </defs>
  <g clip-path="url(#clip-path-1)">
    <path d="M7.100,7.919 C7.015,7.974 6.905,7.981 6.814,7.935 C6.722,7.887 6.666,7.797 6.666,7.697 L6.666,5.542 C5.755,5.549 5.005,5.587 4.379,5.659 C1.375,6.002 0.571,7.731 0.538,7.803 C0.495,7.904 0.392,7.965 0.281,7.965 C0.264,7.965 0.244,7.965 0.226,7.962 C0.096,7.937 0.003,7.827 0.003,7.700 C0.003,3.335 5.408,2.403 6.664,2.246 L6.664,0.241 C6.664,0.144 6.719,0.054 6.811,0.006 C6.904,-0.041 7.012,-0.037 7.098,0.020 L12.873,3.747 C12.951,3.800 12.997,3.881 12.997,3.970 C12.997,4.058 12.951,4.142 12.873,4.192 L7.100,7.919 Z" transform="translate(0 2.51)" />
  </g>
</svg>
