<svg xmlns="http://www.w3.org/2000/svg" xmlns:xlink="http://www.w3.org/1999/xlink" preserveAspectRatio="xMidYMid" width="13" height="13" viewBox="0 0 13 13">
  <defs>
    <clipPath id="clip-path-1">
      <rect x="-1270" y="-1562.97" width="3296" height="2238"/>
    </clipPath>
  </defs>
  <g clip-path="url(#clip-path-1)">
    <path d="M0.421,7.026 L6.562,7.026 C6.980,7.026 7.097,7.582 6.888,7.794 L3.874,10.867 C3.666,11.079 3.328,11.079 3.120,10.867 L0.106,7.794 C-0.102,7.582 0.030,7.026 0.421,7.026 ZM6.579,4.034 L0.438,4.034 C0.020,4.034 -0.096,3.473 0.112,3.259 L3.126,0.158 C3.334,-0.056 3.672,-0.056 3.880,0.158 L6.894,3.259 C7.102,3.473 6.970,4.034 6.579,4.034 Z" transform="translate(3 0.97)" />
  </g>
</svg>
