<svg xmlns="http://www.w3.org/2000/svg" xmlns:xlink="http://www.w3.org/1999/xlink" preserveAspectRatio="xMidYMid" width="13" height="13" viewBox="0 0 13 13">
  <defs>
    <clipPath id="clip-path-1">
      <rect x="-1341" y="-1474" width="3296" height="2238"/>
    </clipPath>
  </defs>
  <g clip-path="url(#clip-path-1)">
    <path d="M-0.000,12.463 L-0.000,3.529 C-0.000,3.230 0.244,2.986 0.543,2.986 L2.987,2.986 L2.987,0.542 C2.987,0.244 3.231,0.000 3.529,0.000 L7.648,0.000 C7.792,0.000 7.937,0.054 8.036,0.163 L10.976,3.168 C11.049,3.705 10.988,3.870 10.988,4.015 L10.988,10.480 C10.988,10.778 10.744,11.023 10.446,11.023 L7.998,11.023 L7.998,12.463 C7.998,12.752 7.768,12.985 7.483,13.000 L0.515,13.000 C0.230,12.985 -0.000,12.752 -0.000,12.463 ZM8.046,1.723 L8.046,3.928 L9.935,3.928 L8.046,1.723 ZM9.997,9.969 L9.997,5.013 L7.503,5.013 C7.205,5.013 6.992,4.769 6.992,4.471 L6.992,0.991 L3.978,0.991 L3.978,9.969 L9.997,9.969 ZM1.022,11.983 L6.975,11.983 L6.976,11.983 L6.976,11.023 L3.529,11.023 C3.231,11.023 2.987,10.778 2.987,10.480 L2.987,3.977 L1.022,3.977 L1.022,11.983 Z" transform="translate(1)" />
  </g>
</svg>
