<svg xmlns="http://www.w3.org/2000/svg" xmlns:xlink="http://www.w3.org/1999/xlink" preserveAspectRatio="xMidYMid" width="13" height="13" viewBox="0 0 13 13">
  <defs>
    <clipPath id="clip-path-1">
      <rect x="-1604" y="-1480" width="3296" height="2238"/>
    </clipPath>
  </defs>
  <g clip-path="url(#clip-path-1)">
    <path d="M11.500,3.000 C10.671,3.000 10.000,2.328 10.000,1.500 C10.000,0.672 10.671,-0.000 11.500,-0.000 C12.328,-0.000 13.000,0.672 13.000,1.500 C13.000,2.328 12.328,3.000 11.500,3.000 ZM1.500,-0.000 C2.328,-0.000 3.000,0.672 3.000,1.500 C3.000,2.328 2.328,3.000 1.500,3.000 C0.672,3.000 -0.000,2.328 -0.000,1.500 C-0.000,0.672 0.672,-0.000 1.500,-0.000 ZM6.500,3.000 C5.672,3.000 5.000,2.328 5.000,1.500 C5.000,0.672 5.672,-0.000 6.500,-0.000 C7.328,-0.000 8.000,0.672 8.000,1.500 C8.000,2.328 7.328,3.000 6.500,3.000 Z" transform="translate(0 5)" />
  </g>
</svg>
