<svg xmlns="http://www.w3.org/2000/svg" xmlns:xlink="http://www.w3.org/1999/xlink" preserveAspectRatio="xMidYMid" width="13" height="9" viewBox="0 0 13 9">
  <path d="M0.339,9.000 C0.339,9.000 12.661,9.000 12.661,9.000 C12.848,9.000 13.000,8.851 13.000,8.666 C13.000,8.666 13.000,1.958 13.000,1.958 C13.000,1.958 13.000,1.748 13.000,1.748 C13.000,1.748 13.000,0.334 13.000,0.334 C13.000,0.149 12.848,-0.000 12.661,-0.000 C12.661,-0.000 0.339,-0.000 0.339,-0.000 C0.152,-0.000 0.000,0.149 0.000,0.334 C0.000,0.334 0.000,1.748 0.000,1.748 C0.000,1.748 0.000,1.958 0.000,1.958 C0.000,1.958 0.000,8.666 0.000,8.666 C0.000,8.851 0.152,9.000 0.339,9.000 ZM11.979,7.989 C11.979,7.989 0.990,7.989 0.990,7.989 C0.990,7.989 0.990,2.630 0.990,2.630 C0.990,2.630 6.350,5.401 6.350,5.401 C6.444,5.448 6.556,5.448 6.650,5.401 C6.650,5.401 11.979,2.630 11.979,2.630 C11.979,2.630 11.979,7.989 11.979,7.989 ZM11.979,1.011 C11.979,1.011 11.979,1.479 11.979,1.479 C11.979,1.479 6.500,4.323 6.500,4.323 C6.500,4.323 0.990,1.479 0.990,1.479 C0.990,1.479 0.990,1.011 0.990,1.011 C0.990,1.011 11.979,1.011 11.979,1.011 Z"/>
</svg>
