<svg xmlns="http://www.w3.org/2000/svg" xmlns:xlink="http://www.w3.org/1999/xlink" preserveAspectRatio="xMidYMid" width="13" height="9" viewBox="0 0 13 9">
  <path d="M0.000,2.451 C0.000,2.451 -0.008,2.447 -0.008,2.447 C-0.008,2.447 6.351,5.218 6.351,5.218 C6.446,5.265 6.557,5.265 6.652,5.218 C6.652,5.218 12.980,2.447 12.980,2.447 C12.980,2.447 12.980,8.962 12.980,8.962 C12.980,8.962 0.000,8.962 0.000,8.962 C0.000,8.962 0.000,2.451 0.000,2.451 ZM12.980,-0.015 C12.980,-0.015 12.980,0.920 12.980,0.920 C12.980,0.920 6.502,3.765 6.502,3.765 C6.502,3.765 -0.008,0.920 -0.008,0.920 C-0.008,0.920 0.000,0.924 0.000,0.924 C0.000,0.924 0.000,-0.015 0.000,-0.015 C0.000,-0.015 12.980,-0.015 12.980,-0.015 Z"/>
</svg>
