<svg xmlns="http://www.w3.org/2000/svg" xmlns:xlink="http://www.w3.org/1999/xlink" preserveAspectRatio="xMidYMid" width="13" height="13" viewBox="0 0 13 13">
  <path d="M6.503,13.000 C4.768,13.000 3.136,12.324 1.910,11.097 C0.683,9.870 0.007,8.239 0.007,6.504 C0.007,4.769 0.683,3.138 1.910,1.911 C3.136,0.684 4.768,0.008 6.503,0.008 C8.238,0.008 9.869,0.684 11.096,1.911 C12.323,3.138 12.998,4.769 12.998,6.504 C12.998,8.239 12.323,9.870 11.096,11.097 C9.869,12.324 8.238,13.000 6.503,13.000 ZM9.115,4.984 C9.505,4.594 9.357,4.360 8.967,3.969 C8.576,3.579 8.242,3.458 7.851,3.848 L6.508,5.192 L5.003,3.687 C4.612,3.296 4.313,3.417 3.922,3.808 C3.532,4.199 3.476,4.560 3.867,4.950 L5.308,6.392 L3.609,8.091 C3.218,8.482 3.339,8.781 3.730,9.171 C4.120,9.562 4.482,9.618 4.872,9.227 L6.508,7.591 L8.109,9.193 C8.500,9.583 8.734,9.435 9.124,9.045 C9.515,8.654 9.636,8.320 9.245,7.930 L7.708,6.392 L9.115,4.984 Z" />
</svg>
