<svg xmlns="http://www.w3.org/2000/svg" xmlns:xlink="http://www.w3.org/1999/xlink" preserveAspectRatio="xMidYMid" width="50" height="39" viewBox="0 0 50 39">
  <path d="M46.825,0.000 C46.825,0.000 3.175,0.000 3.175,0.000 C1.421,0.000 0.000,1.426 0.000,3.184 C0.000,3.184 0.000,35.817 0.000,35.817 C0.000,37.575 1.421,39.000 3.175,39.000 C3.175,39.000 46.825,39.000 46.825,39.000 C48.579,39.000 50.000,37.575 50.000,35.817 C50.000,35.817 50.000,3.184 50.000,3.184 C50.000,1.426 48.579,0.000 46.825,0.000 ZM46.992,3.017 C46.992,3.017 46.992,26.338 46.992,26.338 C46.992,26.338 40.569,20.634 40.569,20.634 C39.628,19.776 38.183,19.811 37.284,20.712 C37.284,20.712 30.952,27.145 30.952,27.145 C30.952,27.145 18.467,11.773 18.467,11.773 C17.524,10.643 15.795,10.631 14.837,11.748 C14.837,11.748 3.008,25.674 3.008,25.674 C3.008,25.674 3.008,3.017 3.008,3.017 C3.008,3.017 46.992,3.017 46.992,3.017 ZM32.988,11.498 C32.988,8.999 35.007,6.974 37.499,6.974 C39.991,6.974 42.010,8.999 42.010,11.498 C42.010,13.996 39.991,16.021 37.499,16.021 C35.007,16.021 32.988,13.996 32.988,11.498 Z"/>
</svg>
