<svg xmlns="http://www.w3.org/2000/svg" xmlns:xlink="http://www.w3.org/1999/xlink" width="24" height="17" viewBox="0 0 24 17">
    <path d="M6.000,13.000 L5.000,13.000 L1.081,13.017 C0.479,13.017 -0.011,12.479 -0.011,11.819 L-0.011,1.192 C-0.011,0.531 0.479,-0.006 1.081,-0.006 L2.502,-0.006 L3.752,-0.006 L8.893,-0.006 C9.495,-0.006 9.986,0.531 9.986,1.192 L10.000,8.000 L10.000,9.000 L6.000,13.000 ZM8.000,9.000 L6.000,9.000 L6.000,11.000 L8.000,9.000 ZM8.994,1.187 C8.994,1.094 8.922,1.016 8.837,1.016 L1.145,1.016 C1.060,1.016 0.989,1.094 0.989,1.187 L0.989,11.815 C0.989,11.907 1.060,11.986 1.145,11.986 L5.000,12.000 L5.000,8.500 C5.000,8.224 5.224,8.000 5.500,8.000 L8.999,8.000 L8.994,1.187 ZM2.000,6.500 C2.000,6.224 2.224,6.000 2.500,6.000 L7.500,6.000 C7.776,6.000 8.000,6.224 8.000,6.500 C8.000,6.776 7.776,7.000 7.500,7.000 L2.500,7.000 C2.224,7.000 2.000,6.776 2.000,6.500 ZM7.500,5.000 L2.500,5.000 C2.224,5.000 2.000,4.776 2.000,4.500 C2.000,4.224 2.224,4.000 2.500,4.000 L7.500,4.000 C7.776,4.000 8.000,4.224 8.000,4.500 C8.000,4.776 7.776,5.000 7.500,5.000 ZM7.500,3.000 L2.500,3.000 C2.224,3.000 2.000,2.776 2.000,2.500 C2.000,2.224 2.224,2.000 2.500,2.000 L7.500,2.000 C7.776,2.000 8.000,2.224 8.000,2.500 C8.000,2.776 7.776,3.000 7.500,3.000 Z"/>
</svg>
