<svg xmlns="http://www.w3.org/2000/svg" xmlns:xlink="http://www.w3.org/1999/xlink" preserveAspectRatio="xMidYMid" width="18" height="12" viewBox="0 0 18 12">
  <path d="M18.003,8.500 C18.003,10.433 16.420,12.000 14.469,12.000 C14.469,12.000 3.534,12.000 3.534,12.000 C1.582,12.000 -0.000,10.433 -0.000,8.500 C-0.000,6.755 1.290,5.309 2.978,5.044 C2.957,4.922 2.945,4.796 2.945,4.666 C2.945,3.441 3.948,2.449 5.185,2.449 C5.736,2.449 6.242,2.646 6.632,2.975 C7.327,1.423 8.218,0.008 10.719,0.008 C13.752,0.008 15.189,2.324 15.189,4.768 C15.189,4.870 15.185,4.971 15.178,5.071 C16.790,5.397 18.003,6.808 18.003,8.500 Z"/>
</svg>
