<svg xmlns="http://www.w3.org/2000/svg" xmlns:xlink="http://www.w3.org/1999/xlink" preserveAspectRatio="xMidYMid" width="18" height="18" viewBox="0 0 18 18">
  <path d="M11.800,11.200 L14.800,11.200 L14.800,8.200 L11.800,8.200 L11.800,7.005 C11.800,6.522 12.110,6.200 12.375,6.200 L14.800,6.200 L14.800,3.200 L12.375,3.200 C10.514,3.200 9.000,5.015 9.000,7.031 L9.000,8.200 L6.800,8.200 L6.800,11.200 L9.000,11.200 L9.000,18.000 L3.000,18.000 C1.423,18.000 0.000,16.576 0.000,15.000 L0.000,3.000 C0.000,1.424 1.423,0.000 3.000,0.000 L15.000,0.000 C16.577,0.000 18.000,1.424 18.000,3.000 L18.000,15.000 C18.000,16.576 16.577,18.000 15.000,18.000 L11.800,18.000 L11.800,11.200 Z" />
</svg>
