<svg xmlns="http://www.w3.org/2000/svg" xmlns:xlink="http://www.w3.org/1999/xlink" preserveAspectRatio="xMidYMid" width="13" height="13" viewBox="0 0 13 13">
  <defs>
    <clipPath id="clip-path-1">
      <rect x="-1196.5" y="-1473.5" width="3296" height="2238"/>
    </clipPath>
  </defs>
  <g clip-path="url(#clip-path-1)">
    <path d="M10.000,3.889 L10.000,11.963 C10.000,12.533 9.526,13.000 8.947,13.000 L1.053,13.000 C0.474,13.000 -0.000,12.533 -0.000,11.963 L-0.000,1.037 C-0.000,0.467 0.474,0.000 1.053,0.000 L6.579,0.000 L7.757,0.000 L10.000,2.767 L10.000,3.889 ZM6.003,3.111 L6.003,1.018 L1.521,1.018 C1.206,1.018 0.995,1.278 0.995,1.537 L0.995,11.463 C0.995,11.774 1.258,11.982 1.521,11.982 L8.510,11.982 C8.826,11.982 9.036,11.722 9.036,11.463 L9.036,4.023 L6.931,4.023 C6.352,4.023 6.003,3.682 6.003,3.111 ZM6.936,0.448 L6.936,2.486 C6.936,2.745 7.199,3.005 7.462,3.005 L9.142,3.005 L6.936,0.448 ZM5.974,9.638 L7.184,8.446 L5.974,7.253 L6.530,6.890 L8.108,8.446 L6.530,10.001 L5.974,9.638 ZM4.148,10.520 L5.201,6.372 L5.946,6.372 L4.893,10.520 L4.148,10.520 ZM3.314,10.001 L1.735,8.446 L3.314,6.890 L4.058,7.253 L2.847,8.446 L4.058,9.638 L3.314,10.001 Z" transform="translate(1.5)" />
  </g>
</svg>
