<svg xmlns="http://www.w3.org/2000/svg" xmlns:xlink="http://www.w3.org/1999/xlink" preserveAspectRatio="xMidYMid" width="13" height="13" viewBox="0 0 13 13">
  <defs>
    <clipPath id="clip-path-1">
      <rect x="-1052.5" y="-1473.5" width="3296" height="2238"/>
    </clipPath>
  </defs>
  <g clip-path="url(#clip-path-1)">
    <path d="M10.000,12.465 C10.000,12.759 9.751,13.000 9.446,13.000 L0.554,13.000 C0.249,13.000 -0.000,12.759 -0.000,12.465 L-0.000,0.535 C-0.000,0.241 0.249,0.000 0.554,0.000 L6.663,0.000 L10.000,3.378 L10.000,12.465 ZM5.000,4.485 L5.000,1.008 L1.014,1.008 L1.014,11.993 L8.986,11.993 L8.986,5.020 L5.554,5.020 C5.249,5.020 5.000,4.779 5.000,4.485 ZM8.892,3.954 L6.000,1.000 L6.014,3.981 L9.000,4.000 L8.892,3.954 Z" transform="translate(1.5)" />
  </g>
</svg>
