<svg xmlns="http://www.w3.org/2000/svg" xmlns:xlink="http://www.w3.org/1999/xlink" preserveAspectRatio="xMidYMid" width="8" height="12" viewBox="0 0 8 12">
  <path d="M1.547,11.416 C1.547,11.416 7.429,5.661 7.429,5.661 C7.522,5.569 7.522,5.407 7.429,5.315 C7.429,5.315 1.547,-0.440 1.547,-0.440 C1.500,-0.486 1.437,-0.512 1.371,-0.512 C1.304,-0.512 1.241,-0.486 1.194,-0.440 C1.194,-0.440 -0.429,1.148 -0.429,1.148 C-0.478,1.195 -0.502,1.258 -0.502,1.320 C-0.502,1.383 -0.478,1.445 -0.429,1.493 C-0.429,1.493 3.653,5.488 3.653,5.488 C3.653,5.488 -0.429,9.483 -0.429,9.483 C-0.522,9.575 -0.522,9.737 -0.429,9.829 C-0.429,9.829 1.194,11.416 1.194,11.416 C1.292,11.512 1.450,11.512 1.547,11.416 Z"/>
</svg>
