<svg xmlns="http://www.w3.org/2000/svg" xmlns:xlink="http://www.w3.org/1999/xlink" preserveAspectRatio="xMidYMid" width="18" height="18" viewBox="0 0 18 18">
  <defs>
    <clipPath id="clip-path-1">
      <rect x="-1315" y="-1408" width="3296" height="2238"/>
    </clipPath>
  </defs>
  <g clip-path="url(#clip-path-1)">
    <path d="M18.000,5.946 L17.261,14.098 C17.216,14.594 17.116,15.000 16.271,15.000 L1.731,15.000 C0.902,15.000 0.785,14.594 0.740,14.098 L0.000,5.928 L0.000,5.502 C0.042,5.198 0.224,4.983 0.823,4.983 L17.180,4.983 C17.774,4.983 17.957,5.196 18.000,5.496 L18.000,5.946 ZM2.767,-0.009 L5.703,-0.009 C6.202,-0.009 6.901,0.797 7.255,1.148 L7.792,1.681 C8.146,2.033 8.844,2.203 9.344,2.203 L15.489,2.203 C15.988,2.203 16.479,2.646 16.579,3.045 L16.761,3.980 L1.494,3.980 L1.758,1.409 C1.813,0.914 2.267,-0.009 2.767,-0.009 Z" transform="translate(0 1.5)" />
  </g>
</svg>
