<svg xmlns="http://www.w3.org/2000/svg" xmlns:xlink="http://www.w3.org/1999/xlink" preserveAspectRatio="xMidYMid" width="13" height="11" viewBox="0 0 13 11">
  <path d="M12.476,7.195 C12.134,7.700 11.662,8.126 11.064,8.475 C11.112,8.590 11.161,8.697 11.212,8.793 C11.263,8.890 11.323,8.983 11.393,9.072 C11.463,9.162 11.518,9.232 11.556,9.282 C11.595,9.333 11.658,9.404 11.745,9.496 C11.832,9.588 11.887,9.648 11.911,9.677 C11.916,9.682 11.926,9.693 11.940,9.710 C11.955,9.727 11.966,9.739 11.973,9.746 C11.980,9.753 11.990,9.765 12.002,9.782 C12.014,9.799 12.022,9.812 12.027,9.822 C12.027,9.822 12.045,9.858 12.045,9.858 C12.045,9.858 12.050,9.873 12.060,9.902 C12.069,9.931 12.070,9.946 12.063,9.949 C12.056,9.951 12.054,9.967 12.056,9.996 C12.042,10.063 12.010,10.116 11.962,10.155 C11.914,10.194 11.860,10.211 11.802,10.206 C11.561,10.172 11.353,10.133 11.179,10.090 C10.435,9.897 9.764,9.588 9.165,9.162 C8.730,9.240 8.305,9.278 7.890,9.278 C6.581,9.278 5.440,8.959 4.469,8.322 C4.750,8.341 4.962,8.351 5.107,8.351 C5.885,8.351 6.631,8.242 7.346,8.025 C8.061,7.807 8.699,7.496 9.259,7.090 C9.863,6.645 10.327,6.133 10.650,5.554 C10.974,4.974 11.136,4.361 11.136,3.713 C11.136,3.341 11.080,2.974 10.969,2.612 C11.592,2.955 12.085,3.385 12.447,3.902 C12.810,4.419 12.991,4.974 12.991,5.568 C12.991,6.148 12.819,6.690 12.476,7.195 ZM7.669,6.927 C6.884,7.258 6.030,7.424 5.107,7.423 C4.692,7.423 4.267,7.384 3.832,7.307 C3.233,7.732 2.561,8.042 1.818,8.235 C1.644,8.278 1.436,8.317 1.194,8.351 C1.194,8.351 1.173,8.351 1.173,8.351 C1.119,8.351 1.070,8.331 1.024,8.293 C0.978,8.254 0.950,8.204 0.941,8.141 C0.936,8.126 0.933,8.110 0.933,8.094 C0.933,8.077 0.935,8.061 0.937,8.047 C0.940,8.032 0.944,8.018 0.951,8.003 C0.951,8.003 0.970,7.967 0.970,7.967 C0.970,7.967 0.978,7.954 0.995,7.927 C1.012,7.900 1.022,7.888 1.024,7.891 C1.026,7.893 1.037,7.881 1.057,7.855 C1.076,7.828 1.086,7.817 1.086,7.822 C1.110,7.793 1.165,7.733 1.252,7.641 C1.339,7.549 1.402,7.478 1.441,7.427 C1.479,7.377 1.534,7.307 1.604,7.217 C1.674,7.128 1.734,7.035 1.785,6.938 C1.836,6.842 1.885,6.735 1.934,6.619 C1.335,6.272 0.864,5.844 0.521,5.337 C0.178,4.830 0.006,4.288 0.006,3.714 C0.006,3.042 0.233,2.421 0.687,1.851 C1.141,1.281 1.761,0.831 2.546,0.500 C3.331,0.169 4.185,0.004 5.107,0.004 C6.030,0.004 6.884,0.169 7.669,0.500 C8.454,0.831 9.073,1.281 9.527,1.851 C9.981,2.421 10.208,3.042 10.208,3.714 C10.208,4.385 9.981,5.006 9.527,5.576 C9.073,6.146 8.454,6.596 7.669,6.927 ZM8.712,2.330 C8.333,1.900 7.822,1.559 7.180,1.308 C6.537,1.057 5.846,0.931 5.107,0.931 C4.368,0.931 3.677,1.057 3.035,1.308 C2.392,1.559 1.881,1.900 1.502,2.330 C1.123,2.759 0.934,3.221 0.934,3.714 C0.934,4.110 1.062,4.491 1.318,4.859 C1.574,5.226 1.933,5.544 2.397,5.815 C2.397,5.815 3.100,6.221 3.100,6.221 C3.100,6.221 2.846,6.829 2.846,6.829 C3.011,6.733 3.160,6.639 3.296,6.547 C3.296,6.547 3.615,6.322 3.615,6.322 C3.615,6.322 3.999,6.395 3.999,6.395 C4.375,6.462 4.745,6.496 5.107,6.496 C5.846,6.496 6.537,6.371 7.180,6.119 C7.822,5.868 8.333,5.528 8.712,5.098 C9.091,4.668 9.281,4.206 9.281,3.714 C9.281,3.221 9.091,2.759 8.712,2.330 Z"/>
</svg>
