<svg xmlns="http://www.w3.org/2000/svg" xmlns:xlink="http://www.w3.org/1999/xlink" preserveAspectRatio="xMidYMid" width="18" height="18" viewBox="0 0 18 18">
  <defs>
    <clipPath id="clip-path-1">
      <rect x="-1520" y="-1408" width="3296" height="2238"/>
    </clipPath>
  </defs>
  <g clip-path="url(#clip-path-1)">
    <path d="M14.585,11.890 C14.671,12.098 14.758,12.289 14.847,12.463 C14.937,12.636 15.043,12.803 15.167,12.964 C15.291,13.124 15.387,13.250 15.454,13.341 C15.523,13.432 15.634,13.560 15.787,13.725 C15.940,13.890 16.038,13.998 16.081,14.050 C16.081,14.041 16.098,14.061 16.132,14.109 C16.166,14.156 16.186,14.178 16.190,14.174 C16.194,14.170 16.211,14.191 16.241,14.239 C16.271,14.287 16.286,14.311 16.286,14.311 L16.318,14.375 C16.331,14.401 16.339,14.427 16.343,14.454 C16.348,14.479 16.350,14.508 16.350,14.538 C16.350,14.568 16.345,14.596 16.337,14.622 C16.320,14.735 16.271,14.826 16.190,14.896 C16.109,14.965 16.021,15.000 15.928,15.000 L15.889,15.000 C15.463,14.939 15.097,14.870 14.790,14.791 C13.478,14.444 12.293,13.889 11.237,13.125 C10.470,13.264 9.720,13.334 8.987,13.334 C7.359,13.334 5.853,13.037 4.468,12.443 C3.084,11.849 1.991,11.039 1.190,10.015 C0.419,9.030 0.029,7.958 -0.000,6.804 L-0.000,6.538 C0.029,5.383 0.419,4.311 1.190,3.326 C1.991,2.301 3.084,1.493 4.468,0.898 C5.853,0.303 7.359,0.007 8.987,0.007 C10.615,0.007 12.121,0.304 13.505,0.898 C14.890,1.493 15.983,2.302 16.784,3.326 C17.585,4.350 17.986,5.464 17.986,6.671 C17.986,7.703 17.683,8.675 17.078,9.586 C16.473,10.497 15.642,11.265 14.585,11.890 Z" transform="translate(0 1.5)" />
  </g>
</svg>
