<svg xmlns="http://www.w3.org/2000/svg" xmlns:xlink="http://www.w3.org/1999/xlink" preserveAspectRatio="xMidYMid" width="18" height="18" viewBox="0 0 18 18">
  <defs>
    <clipPath id="clip-path-1">
      <rect x="-1617" y="-1409" width="3296" height="2238"/>
    </clipPath>
  </defs>
  <g clip-path="url(#clip-path-1)">
    <path d="M16.367,8.570 L14.726,8.570 L14.726,6.859 L13.094,6.859 L13.094,5.141 L14.726,5.141 L14.726,3.430 L16.367,3.430 L16.367,5.141 L18.000,5.141 L18.000,6.859 L16.367,6.859 L16.367,8.570 ZM5.727,5.141 L11.133,5.141 C11.195,5.484 11.227,5.817 11.227,6.139 C11.227,7.274 11.000,8.285 10.547,9.172 C10.094,10.058 9.448,10.751 8.609,11.251 C7.771,11.750 6.810,12.000 5.727,12.000 C4.950,12.000 4.208,11.841 3.500,11.525 C2.792,11.208 2.182,10.783 1.672,10.248 C1.161,9.713 0.755,9.075 0.453,8.333 C0.151,7.591 0.000,6.813 0.000,6.000 C0.000,5.187 0.151,4.409 0.453,3.667 C0.755,2.925 1.161,2.287 1.672,1.752 C2.182,1.217 2.792,0.792 3.500,0.475 C4.208,0.159 4.950,0.000 5.727,0.000 C7.216,0.000 8.495,0.524 9.562,1.572 L8.008,3.135 C7.398,2.519 6.638,2.210 5.727,2.210 C5.086,2.210 4.493,2.380 3.949,2.718 C3.405,3.056 2.974,3.516 2.656,4.097 C2.339,4.678 2.180,5.312 2.180,6.000 C2.180,6.688 2.339,7.322 2.656,7.903 C2.974,8.484 3.405,8.944 3.949,9.282 C4.493,9.621 5.086,9.790 5.727,9.790 C6.159,9.790 6.556,9.727 6.918,9.601 C7.280,9.476 7.578,9.319 7.813,9.131 C8.047,8.942 8.251,8.728 8.426,8.488 C8.600,8.248 8.728,8.022 8.809,7.809 C8.889,7.596 8.945,7.394 8.977,7.203 L5.727,7.203 L5.727,5.141 Z" transform="translate(0 3)" />
  </g>
</svg>
