<svg xmlns="http://www.w3.org/2000/svg" xmlns:xlink="http://www.w3.org/1999/xlink" preserveAspectRatio="xMidYMid" width="27" height="27" viewBox="0 0 27 27">
  <defs>
    <clipPath id="clip-path-1">
      <rect x="-1046" y="-1264" width="3296" height="2238"/>
    </clipPath>
  </defs>
  <g clip-path="url(#clip-path-1)">
    <path d="M26.000,25.000 L21.000,25.000 C20.448,25.000 20.000,24.552 20.000,24.000 L20.000,20.000 C20.000,19.448 20.448,19.000 21.000,19.000 L26.000,19.000 C26.552,19.000 27.000,19.447 27.000,20.000 L27.000,24.001 C27.000,24.553 26.552,25.000 26.000,25.000 ZM26.000,16.000 L21.000,16.000 C20.448,16.000 20.000,15.552 20.000,15.000 L20.000,11.000 C20.000,10.448 20.448,10.000 21.000,10.000 L26.000,10.000 C26.552,10.000 27.000,10.448 27.000,11.000 L27.000,15.001 C27.000,15.553 26.552,16.000 26.000,16.000 ZM27.000,6.000 C27.000,6.553 26.552,7.000 26.000,7.000 L21.000,7.000 C20.448,7.000 20.000,6.552 20.000,6.000 L20.000,1.000 C20.000,0.448 20.448,0.000 21.000,0.000 L26.000,0.000 C26.552,0.000 27.000,0.447 27.000,1.000 L27.000,6.000 ZM1.000,0.000 L6.000,0.000 C6.552,0.000 7.000,0.448 7.000,1.000 L7.000,6.000 C7.000,6.552 6.552,7.000 6.000,7.000 L1.000,7.000 C0.448,7.000 0.000,6.552 0.000,6.000 L0.000,1.000 C0.000,0.448 0.448,0.000 1.000,0.000 ZM6.000,16.000 L1.000,16.000 C0.448,16.000 0.000,15.552 0.000,15.000 L0.000,11.000 C0.000,10.448 0.448,10.000 1.000,10.000 L6.000,10.000 C6.552,10.000 7.000,10.448 7.000,11.000 L7.000,15.000 C7.000,15.552 6.552,16.000 6.000,16.000 ZM7.000,24.000 C7.000,24.552 6.552,25.000 6.000,25.000 L1.000,25.000 C0.448,25.000 0.000,24.552 0.000,24.000 L0.000,20.000 C0.000,19.448 0.448,19.000 1.000,19.000 L6.000,19.000 C6.552,19.000 7.000,19.448 7.000,20.000 L7.000,24.000 ZM17.000,24.000 C17.000,24.552 16.552,25.000 16.000,25.000 L11.000,25.000 C10.448,25.000 10.000,24.552 10.000,24.000 L10.000,20.000 C10.000,19.448 10.448,19.000 11.000,19.000 L16.000,19.000 C16.552,19.000 17.000,19.448 17.000,20.000 L17.000,24.000 ZM16.000,7.000 L11.000,7.000 C10.448,7.000 10.000,6.552 10.000,6.000 L10.000,1.000 C10.000,0.448 10.448,0.000 11.000,0.000 L16.000,0.000 C16.552,0.000 17.000,0.448 17.000,1.000 L17.000,6.000 C17.000,6.552 16.552,7.000 16.000,7.000 ZM17.000,15.000 C17.000,15.552 16.552,16.000 16.000,16.000 L11.000,16.000 C10.448,16.000 10.000,15.552 10.000,15.000 L10.000,11.000 C10.000,10.448 10.448,10.000 11.000,10.000 L16.000,10.000 C16.552,10.000 17.000,10.448 17.000,11.000 L17.000,15.000 Z" transform="translate(0 1)" />
  </g>
</svg>
