<svg xmlns="http://www.w3.org/2000/svg" xmlns:xlink="http://www.w3.org/1999/xlink" preserveAspectRatio="xMidYMid" width="13" height="13" viewBox="0 0 13 13">
  <path d="M6.500,13.000 C2.910,13.000 0.000,10.090 0.000,6.500 C0.000,2.910 2.910,-0.000 6.500,-0.000 C10.090,-0.000 13.000,2.910 13.000,6.500 C13.000,10.090 10.090,13.000 6.500,13.000 ZM6.500,1.000 C3.462,1.000 1.000,3.462 1.000,6.500 C1.000,9.538 3.462,12.000 6.500,12.000 C9.538,12.000 12.000,9.538 12.000,6.500 C12.000,3.462 9.538,1.000 6.500,1.000 ZM6.500,11.000 C4.015,11.000 2.000,8.985 2.000,6.500 C2.000,4.015 4.015,2.000 6.500,2.000 C8.985,2.000 11.000,4.015 11.000,6.500 C11.000,8.985 8.985,11.000 6.500,11.000 ZM6.500,3.001 C4.568,3.001 3.001,4.568 3.001,6.500 C3.001,8.432 4.568,9.999 6.500,9.999 C8.432,9.999 9.999,8.432 9.999,6.500 C9.999,4.568 8.432,3.001 6.500,3.001 ZM6.500,8.012 C5.665,8.012 4.988,7.335 4.988,6.500 C4.988,5.665 5.665,4.988 6.500,4.988 C7.335,4.988 8.012,5.665 8.012,6.500 C8.012,7.335 7.335,8.012 6.500,8.012 Z" />
</svg>
