<svg xmlns="http://www.w3.org/2000/svg" xmlns:xlink="http://www.w3.org/1999/xlink" preserveAspectRatio="xMidYMid" width="24" height="24" viewBox="0 0 24 24">
  <path d="M23.500,17.000 L21.500,17.000 C21.224,17.000 21.000,16.776 21.000,16.500 C21.000,16.224 21.224,16.000 21.500,16.000 L23.500,16.000 C23.776,16.000 24.000,16.224 24.000,16.500 C24.000,16.776 23.776,17.000 23.500,17.000 ZM23.500,15.000 L21.500,15.000 C21.224,15.000 21.000,14.776 21.000,14.500 C21.000,14.224 21.224,14.000 21.500,14.000 L23.500,14.000 C23.776,14.000 24.000,14.224 24.000,14.500 C24.000,14.776 23.776,15.000 23.500,15.000 ZM23.500,13.000 L21.500,13.000 C21.224,13.000 21.000,12.776 21.000,12.500 C21.000,12.224 21.224,12.000 21.500,12.000 L23.500,12.000 C23.776,12.000 24.000,12.224 24.000,12.500 C24.000,12.776 23.776,13.000 23.500,13.000 ZM23.500,11.000 L21.500,11.000 C21.224,11.000 21.000,10.776 21.000,10.500 C21.000,10.224 21.224,10.000 21.500,10.000 L23.500,10.000 C23.776,10.000 24.000,10.224 24.000,10.500 C24.000,10.776 23.776,11.000 23.500,11.000 ZM23.500,9.000 L21.500,9.000 C21.224,9.000 21.000,8.776 21.000,8.500 C21.000,8.224 21.224,8.000 21.500,8.000 L23.500,8.000 C23.776,8.000 24.000,8.224 24.000,8.500 C24.000,8.776 23.776,9.000 23.500,9.000 ZM23.500,7.000 L21.500,7.000 C21.224,7.000 21.000,6.776 21.000,6.500 C21.000,6.224 21.224,6.000 21.500,6.000 L23.500,6.000 C23.776,6.000 24.000,6.224 24.000,6.500 C24.000,6.776 23.776,7.000 23.500,7.000 ZM18.000,0.500 L18.000,2.500 C18.000,2.776 17.776,3.000 17.500,3.000 C17.224,3.000 17.000,2.776 17.000,2.500 L17.000,0.500 C17.000,0.224 17.224,-0.000 17.500,-0.000 C17.776,-0.000 18.000,0.224 18.000,0.500 ZM16.000,0.500 L16.000,2.500 C16.000,2.776 15.776,3.000 15.500,3.000 C15.224,3.000 15.000,2.776 15.000,2.500 L15.000,0.500 C15.000,0.224 15.224,-0.000 15.500,-0.000 C15.776,-0.000 16.000,0.224 16.000,0.500 ZM14.000,0.500 L14.000,2.500 C14.000,2.776 13.776,3.000 13.500,3.000 C13.224,3.000 13.000,2.776 13.000,2.500 L13.000,0.500 C13.000,0.224 13.224,-0.000 13.500,-0.000 C13.776,-0.000 14.000,0.224 14.000,0.500 ZM12.000,0.500 L12.000,2.500 C12.000,2.776 11.776,3.000 11.500,3.000 C11.224,3.000 11.000,2.776 11.000,2.500 L11.000,0.500 C11.000,0.224 11.224,-0.000 11.500,-0.000 C11.776,-0.000 12.000,0.224 12.000,0.500 ZM10.000,0.500 L10.000,2.500 C10.000,2.776 9.776,3.000 9.500,3.000 C9.224,3.000 9.000,2.776 9.000,2.500 L9.000,0.500 C9.000,0.224 9.224,-0.000 9.500,-0.000 C9.776,-0.000 10.000,0.224 10.000,0.500 ZM8.000,0.500 L8.000,2.500 C8.000,2.776 7.776,3.000 7.500,3.000 C7.224,3.000 7.000,2.776 7.000,2.500 L7.000,0.500 C7.000,0.224 7.224,-0.000 7.500,-0.000 C7.776,-0.000 8.000,0.224 8.000,0.500 ZM7.000,23.500 L7.000,21.500 C7.000,21.224 7.224,21.000 7.500,21.000 C7.776,21.000 8.000,21.224 8.000,21.500 L8.000,23.500 C8.000,23.776 7.776,24.000 7.500,24.000 C7.224,24.000 7.000,23.776 7.000,23.500 ZM9.000,23.500 L9.000,21.500 C9.000,21.224 9.224,21.000 9.500,21.000 C9.776,21.000 10.000,21.224 10.000,21.500 L10.000,23.500 C10.000,23.776 9.776,24.000 9.500,24.000 C9.224,24.000 9.000,23.776 9.000,23.500 ZM11.000,23.500 L11.000,21.500 C11.000,21.224 11.224,21.000 11.500,21.000 C11.776,21.000 12.000,21.224 12.000,21.500 L12.000,23.500 C12.000,23.776 11.776,24.000 11.500,24.000 C11.224,24.000 11.000,23.776 11.000,23.500 ZM13.000,23.500 L13.000,21.500 C13.000,21.224 13.224,21.000 13.500,21.000 C13.776,21.000 14.000,21.224 14.000,21.500 L14.000,23.500 C14.000,23.776 13.776,24.000 13.500,24.000 C13.224,24.000 13.000,23.776 13.000,23.500 ZM15.000,23.500 L15.000,21.500 C15.000,21.224 15.224,21.000 15.500,21.000 C15.776,21.000 16.000,21.224 16.000,21.500 L16.000,23.500 C16.000,23.776 15.776,24.000 15.500,24.000 C15.224,24.000 15.000,23.776 15.000,23.500 ZM17.000,23.500 L17.000,21.500 C17.000,21.224 17.224,21.000 17.500,21.000 C17.776,21.000 18.000,21.224 18.000,21.500 L18.000,23.500 C18.000,23.776 17.776,24.000 17.500,24.000 C17.224,24.000 17.000,23.776 17.000,23.500 ZM0.500,6.000 L2.500,6.000 C2.776,6.000 3.000,6.224 3.000,6.500 C3.000,6.776 2.776,7.000 2.500,7.000 L0.500,7.000 C0.224,7.000 0.000,6.776 -0.000,6.500 L-0.000,6.500 C0.000,6.224 0.224,6.000 0.500,6.000 ZM0.500,8.000 L2.500,8.000 C2.776,8.000 3.000,8.224 3.000,8.500 C3.000,8.776 2.776,9.000 2.500,9.000 L0.500,9.000 C0.224,9.000 0.000,8.776 -0.000,8.500 L-0.000,8.500 C0.000,8.224 0.224,8.000 0.500,8.000 ZM0.500,10.000 L2.500,10.000 C2.776,10.000 3.000,10.224 3.000,10.500 C3.000,10.776 2.776,11.000 2.500,11.000 L0.500,11.000 C0.224,11.000 0.000,10.776 -0.000,10.500 L-0.000,10.500 C0.000,10.224 0.224,10.000 0.500,10.000 ZM0.500,12.000 L2.500,12.000 C2.776,12.000 3.000,12.224 3.000,12.500 C3.000,12.776 2.776,13.000 2.500,13.000 L0.500,13.000 C0.224,13.000 0.000,12.776 -0.000,12.500 L-0.000,12.500 C0.000,12.224 0.224,12.000 0.500,12.000 ZM0.500,14.000 L2.500,14.000 C2.776,14.000 3.000,14.224 3.000,14.500 C3.000,14.776 2.776,15.000 2.500,15.000 L0.500,15.000 C0.224,15.000 0.000,14.776 -0.000,14.500 L-0.000,14.500 C0.000,14.224 0.224,14.000 0.500,14.000 ZM-0.000,16.500 C0.000,16.224 0.224,16.000 0.500,16.000 L2.500,16.000 C2.776,16.000 3.000,17.224 3.000,17.500 C3.000,17.776 2.776,17.000 2.500,17.000 L0.500,17.000 C0.224,17.000 0.000,16.776 -0.000,16.500 L-0.000,16.500 ZM17.918,20.005 L6.059,20.005 C4.920,20.005 3.991,19.078 3.991,17.937 L3.991,6.079 C3.991,4.939 4.920,4.011 6.059,4.011 L17.918,4.011 C19.058,4.011 19.987,4.939 19.987,6.078 L19.987,17.937 C19.987,19.078 19.058,20.005 17.918,20.005 Z" />
</svg>
