<svg xmlns="http://www.w3.org/2000/svg" xmlns:xlink="http://www.w3.org/1999/xlink" preserveAspectRatio="xMidYMid" width="18" height="18" viewBox="0 0 18 18">
  <path d="M18.000,9.007 C17.994,13.970 13.978,17.990 9.019,18.000 L8.982,18.000 C4.026,17.990 0.009,13.972 0.000,9.011 L0.000,8.980 C0.009,4.024 4.026,0.010 8.982,0.000 L9.019,0.000 C13.978,0.010 17.994,4.026 18.000,8.984 L18.000,9.007 ZM8.173,14.007 C8.384,14.191 8.632,14.283 8.916,14.283 C9.190,14.283 9.432,14.190 9.642,14.003 C9.851,13.817 9.956,13.562 9.956,13.236 C9.956,12.943 9.856,12.696 9.656,12.496 C9.456,12.296 9.209,12.196 8.916,12.196 C8.618,12.196 8.367,12.296 8.162,12.496 C7.958,12.696 7.855,12.943 7.855,13.236 C7.855,13.566 7.961,13.824 8.173,14.007 ZM12.066,5.107 C11.785,4.678 11.386,4.340 10.869,4.091 C10.353,3.842 9.757,3.717 9.083,3.717 C8.358,3.717 7.722,3.866 7.178,4.164 C6.633,4.462 6.219,4.837 5.935,5.291 C5.652,5.745 5.510,6.193 5.510,6.635 C5.510,6.849 5.599,7.048 5.778,7.231 C5.957,7.415 6.177,7.507 6.438,7.507 C6.879,7.507 7.180,7.244 7.338,6.718 C7.506,6.215 7.710,5.835 7.952,5.577 C8.194,5.319 8.571,5.190 9.083,5.190 C9.520,5.190 9.878,5.318 10.155,5.574 C10.432,5.829 10.569,6.143 10.569,6.516 C10.569,6.707 10.525,6.883 10.434,7.046 C10.343,7.209 10.232,7.356 10.099,7.489 C9.967,7.622 9.751,7.818 9.453,8.079 C9.113,8.376 8.844,8.633 8.643,8.850 C8.444,9.066 8.283,9.317 8.162,9.604 C8.041,9.890 7.981,10.229 7.981,10.619 C7.981,10.931 8.063,11.166 8.228,11.324 C8.394,11.482 8.597,11.561 8.839,11.561 C9.304,11.561 9.581,11.319 9.669,10.836 C9.721,10.607 9.759,10.448 9.784,10.357 C9.810,10.267 9.846,10.176 9.893,10.085 C9.939,9.994 10.010,9.894 10.105,9.785 C10.201,9.676 10.328,9.549 10.486,9.404 C11.059,8.893 11.455,8.529 11.676,8.312 C11.897,8.096 12.088,7.839 12.248,7.541 C12.409,7.243 12.489,6.897 12.489,6.502 C12.489,6.000 12.348,5.534 12.066,5.107 Z" />
</svg>
