<svg xmlns="http://www.w3.org/2000/svg" xmlns:xlink="http://www.w3.org/1999/xlink" preserveAspectRatio="xMidYMid" width="18" height="18" viewBox="0 0 18 18">
  <defs>
    <clipPath id="clip-path-1">
      <rect x="-1473" y="-1407.78" width="3296" height="2238"/>
    </clipPath>
  </defs>
  <g clip-path="url(#clip-path-1)">
    <path d="M2.027,14.776 L2.027,8.893 L9.059,3.107 L15.918,8.751 L15.918,14.776 C15.918,15.013 15.726,15.205 15.490,15.205 L11.000,15.205 L10.995,12.080 C10.995,11.394 9.723,10.817 9.037,10.817 C8.352,10.817 6.980,11.301 6.980,11.987 L6.952,15.205 L2.455,15.205 C2.218,15.205 2.027,15.013 2.027,14.776 ZM7.759,7.494 C7.759,8.043 8.204,8.488 8.752,8.488 L9.155,8.488 C9.704,8.488 10.148,8.043 10.148,7.494 L10.148,7.122 C10.148,6.573 9.704,6.128 9.155,6.128 L8.752,6.128 C8.204,6.128 7.759,6.573 7.759,7.122 L7.759,7.494 ZM11.000,15.215 L6.952,15.210 L6.952,15.205 L11.000,15.205 L11.000,15.215 ZM18.000,7.715 C18.004,7.863 17.952,8.018 17.843,8.142 L17.709,8.294 C17.488,8.544 17.118,8.580 16.883,8.374 L9.013,1.659 L1.112,8.367 C0.876,8.573 0.507,8.535 0.288,8.283 L0.156,8.131 C-0.064,7.879 -0.050,7.507 0.186,7.301 L8.637,0.113 C8.651,0.101 8.668,0.098 8.683,0.088 C8.722,0.061 8.760,0.038 8.803,0.022 C8.827,0.012 8.851,0.006 8.876,0.000 C9.053,-0.046 9.242,-0.019 9.384,0.105 L17.816,7.314 C17.933,7.416 17.995,7.560 18.000,7.709 L18.000,7.715 Z" transform="translate(0 1.39)" />
  </g>
</svg>
