<svg xmlns="http://www.w3.org/2000/svg" xmlns:xlink="http://www.w3.org/1999/xlink" preserveAspectRatio="xMidYMid" width="34" height="33" viewBox="0 0 34 33">
  <path d="M33.585,27.579 C33.585,27.579 32.613,27.866 32.613,27.866 C32.613,27.866 32.515,28.202 32.515,28.202 C32.379,28.666 32.176,29.105 31.912,29.509 C31.912,29.509 31.721,29.800 31.721,29.800 C31.721,29.800 32.142,30.727 32.142,30.727 C32.250,30.967 32.181,31.250 31.979,31.412 C31.979,31.412 31.413,31.859 31.413,31.859 C31.227,32.009 30.913,32.020 30.708,31.878 C30.708,31.878 29.885,31.305 29.885,31.305 C29.885,31.305 29.556,31.435 29.556,31.435 C29.255,31.554 28.939,31.645 28.617,31.707 C28.461,31.737 28.299,31.759 28.134,31.775 C28.134,31.775 27.784,31.807 27.784,31.807 C27.784,31.807 27.300,32.706 27.300,32.706 C27.179,32.931 26.908,33.054 26.649,32.995 C26.649,32.995 25.953,32.836 25.953,32.836 C25.697,32.776 25.510,32.556 25.499,32.298 C25.499,32.298 25.451,31.306 25.451,31.306 C25.451,31.306 25.144,31.131 25.144,31.131 C24.717,30.888 24.331,30.587 23.997,30.238 C23.997,30.238 23.755,29.987 23.755,29.987 C23.755,29.987 22.734,30.165 22.734,30.165 C22.481,30.210 22.209,30.063 22.103,29.836 C22.103,29.836 21.802,29.195 21.802,29.195 C21.692,28.965 21.754,28.687 21.953,28.519 C21.953,28.519 22.720,27.869 22.720,27.869 C22.720,27.869 22.670,27.523 22.670,27.523 C22.667,27.504 22.667,27.484 22.664,27.464 C22.604,27.004 22.608,26.540 22.678,26.084 C22.678,26.084 22.731,25.741 22.731,25.741 C22.731,25.741 21.968,25.069 21.968,25.069 C21.769,24.890 21.714,24.604 21.833,24.373 C21.833,24.373 22.161,23.743 22.161,23.743 C22.281,23.513 22.527,23.385 22.799,23.440 C22.799,23.440 23.791,23.635 23.791,23.635 C23.791,23.635 24.039,23.383 24.039,23.383 C24.379,23.035 24.768,22.739 25.194,22.504 C25.194,22.504 25.501,22.334 25.501,22.334 C25.501,22.334 25.571,21.325 25.571,21.325 C25.590,21.063 25.786,20.846 26.046,20.795 C26.046,20.795 26.747,20.663 26.747,20.663 C27.027,20.610 27.267,20.740 27.385,20.972 C27.385,20.972 27.838,21.858 27.838,21.858 C27.838,21.858 28.192,21.894 28.192,21.894 C28.241,21.899 28.289,21.911 28.338,21.917 C28.657,21.960 28.974,22.027 29.280,22.129 C29.280,22.129 29.614,22.241 29.614,22.241 C29.614,22.241 30.428,21.613 30.428,21.613 C30.599,21.479 30.963,21.476 31.142,21.609 C31.142,21.609 31.713,22.035 31.713,22.035 C31.922,22.189 32.001,22.465 31.904,22.707 C31.904,22.707 31.539,23.632 31.539,23.632 C31.539,23.632 31.748,23.915 31.748,23.915 C32.037,24.306 32.264,24.734 32.425,25.187 C32.425,25.187 32.541,25.515 32.541,25.515 C32.541,25.515 33.542,25.759 33.542,25.759 C33.801,25.823 33.984,26.050 33.988,26.314 C33.988,26.314 33.999,27.018 33.999,27.018 C34.004,27.274 33.833,27.504 33.585,27.579 ZM30.602,26.164 C30.338,24.811 29.139,23.827 27.755,23.792 C27.546,23.786 27.333,23.802 27.119,23.841 C25.659,24.117 24.656,25.407 24.712,26.827 C24.718,26.973 24.731,27.119 24.760,27.267 C25.030,28.643 26.257,29.642 27.678,29.642 C27.865,29.642 28.054,29.624 28.242,29.589 C29.022,29.442 29.697,29.004 30.143,28.357 C30.589,27.709 30.752,26.930 30.602,26.164 ZM26.456,19.404 C26.456,19.404 25.798,19.537 25.798,19.537 C24.961,19.698 24.334,20.396 24.272,21.235 C24.272,21.235 24.249,21.567 24.249,21.567 C23.933,21.766 23.635,21.992 23.360,22.243 C23.360,22.243 23.056,22.183 23.056,22.183 C22.229,22.019 21.385,22.422 21.002,23.158 C21.002,23.158 20.673,23.788 20.673,23.788 C20.288,24.533 20.460,25.445 21.095,26.015 C21.095,26.015 21.347,26.232 21.347,26.232 C21.311,26.599 21.309,26.958 21.340,27.327 C21.340,27.327 21.104,28.008 21.104,28.008 C21.104,28.008 6.768,28.008 6.768,28.008 C3.025,28.008 -0.009,24.606 -0.009,20.978 C-0.009,20.978 -0.009,6.566 -0.009,6.566 C-0.009,2.938 3.025,-0.003 6.768,-0.003 C6.768,-0.003 21.637,-0.003 21.637,-0.003 C25.380,-0.003 27.989,2.938 27.989,6.566 C27.989,6.566 27.989,20.179 27.989,20.179 C27.616,19.579 27.221,19.261 26.456,19.404 ZM6.701,12.093 C6.701,12.093 5.895,12.031 5.895,12.031 C5.895,12.031 5.895,10.801 5.895,10.801 C5.895,10.645 5.524,10.581 5.366,10.581 C5.207,10.581 4.993,10.645 4.993,10.801 C4.993,10.801 4.993,12.031 4.993,12.031 C4.993,12.031 3.875,12.031 3.875,12.031 C3.875,12.031 3.875,11.540 3.875,11.540 C3.875,11.385 3.597,11.040 3.438,11.040 C3.280,11.040 3.002,11.385 3.002,11.540 C3.002,11.540 3.002,12.031 3.002,12.031 C3.002,12.031 2.163,12.031 2.163,12.031 C2.005,12.031 1.877,12.058 1.877,12.214 C1.877,12.370 2.005,12.898 2.163,12.898 C2.163,12.898 3.064,12.898 3.064,12.898 C3.064,12.898 3.064,13.754 3.064,13.754 C3.064,13.910 3.092,14.037 3.251,14.037 C3.409,14.037 3.875,13.910 3.875,13.754 C3.875,13.754 3.875,12.898 3.875,12.898 C3.875,12.898 4.993,12.898 4.993,12.898 C4.993,12.898 4.993,14.477 4.993,14.477 C4.993,14.633 5.207,14.759 5.366,14.759 C5.524,14.759 5.895,14.633 5.895,14.477 C5.895,14.477 5.895,12.898 5.895,12.898 C5.895,12.898 6.701,12.960 6.701,12.960 C6.701,12.960 6.701,12.093 6.701,12.093 ZM14.398,4.700 C13.881,4.700 13.551,5.112 13.551,5.620 C13.551,6.049 13.380,6.407 14.125,6.509 C14.125,6.509 14.125,9.377 14.125,9.377 C14.125,9.377 14.842,9.377 14.842,9.377 C14.842,9.377 14.842,6.509 14.842,6.509 C15.215,6.407 15.377,6.049 15.377,5.620 C15.377,5.112 14.914,4.700 14.398,4.700 ZM20.989,12.950 C20.989,12.950 20.989,12.453 20.989,12.453 C20.989,12.453 20.989,9.955 20.989,9.955 C20.989,9.955 7.074,9.955 7.074,9.955 C7.074,9.955 7.074,12.463 7.074,12.463 C7.074,12.463 7.074,12.940 7.074,12.940 C7.074,12.940 7.074,14.955 7.074,14.955 C7.074,17.743 10.250,20.171 13.988,20.171 C13.988,20.171 14.164,20.171 14.164,20.171 C18.050,20.171 20.989,17.652 20.989,14.752 C20.989,14.752 20.989,12.950 20.989,12.950 ZM25.836,12.093 C25.836,12.093 24.778,12.093 24.778,12.093 C24.778,12.093 24.778,11.603 24.778,11.603 C24.778,11.447 24.563,11.321 24.405,11.321 C24.246,11.321 24.032,11.447 24.032,11.603 C24.032,11.603 24.032,12.093 24.032,12.093 C24.032,12.093 22.882,12.093 22.882,12.093 C22.882,12.093 22.882,10.863 22.882,10.863 C22.882,10.707 22.479,10.581 22.321,10.581 C22.163,10.581 22.135,10.707 22.135,10.863 C22.135,10.863 22.135,12.093 22.135,12.093 C22.135,12.093 21.362,12.093 21.362,12.093 C21.362,12.093 21.362,12.835 21.362,12.835 C21.362,12.835 22.135,12.835 22.135,12.835 C22.135,12.835 22.135,14.540 22.135,14.540 C22.135,14.695 22.163,14.822 22.321,14.822 C22.479,14.822 22.882,14.695 22.882,14.540 C22.882,14.540 22.882,12.835 22.882,12.835 C22.882,12.835 24.032,12.835 24.032,12.835 C24.032,12.835 24.032,13.817 24.032,13.817 C24.032,13.973 24.246,14.099 24.405,14.099 C24.563,14.099 24.778,13.973 24.778,13.817 C24.778,13.817 24.778,12.835 24.778,12.835 C24.778,12.835 25.836,12.835 25.836,12.835 C25.994,12.835 26.122,12.807 26.122,12.652 C26.122,12.496 25.994,12.093 25.836,12.093 ZM17.340,16.114 C16.269,16.114 15.397,15.256 15.397,14.202 C15.397,13.148 16.269,12.290 17.340,12.290 C18.412,12.290 19.283,13.148 19.283,14.202 C19.283,15.256 18.412,16.114 17.340,16.114 ZM16.258,14.202 C16.258,14.202 16.258,14.202 16.258,14.202 C16.258,13.615 16.743,13.137 17.340,13.137 C16.743,13.137 16.258,13.615 16.258,14.202 ZM17.762,13.221 C17.632,13.167 17.490,13.137 17.341,13.137 C16.744,13.137 16.258,13.615 16.258,14.202 C16.258,14.643 16.531,15.022 16.919,15.184 C17.049,15.238 17.191,15.268 17.340,15.268 C17.937,15.268 18.423,14.790 18.423,14.202 C18.423,13.762 18.150,13.383 17.762,13.221 C18.150,13.383 18.424,13.762 18.424,14.202 C18.424,13.762 18.150,13.383 17.762,13.221 ZM10.650,16.855 C9.163,16.855 7.954,15.665 7.954,14.202 C7.954,12.739 9.163,11.549 10.650,11.549 C12.136,11.549 13.346,12.739 13.346,14.202 C13.346,15.665 12.136,16.855 10.650,16.855 ZM10.650,12.396 C9.637,12.396 8.814,13.206 8.814,14.202 C8.814,15.199 9.637,16.009 10.650,16.009 C11.662,16.009 12.486,15.199 12.486,14.202 C12.486,13.206 11.662,12.396 10.650,12.396 Z"/>
</svg>
