<svg xmlns="http://www.w3.org/2000/svg" xmlns:xlink="http://www.w3.org/1999/xlink" preserveAspectRatio="xMidYMid" width="50" height="50" viewBox="0 0 50 50">
  <defs>
    <clipPath id="clip-path-1">
      <rect x="-1046" y="-1184" width="3296" height="2238"/>
    </clipPath>
  </defs>
  <g clip-path="url(#clip-path-1)">
    <path d="M46.825,39.000 L3.175,39.000 C1.421,39.000 0.000,37.575 0.000,35.816 L0.000,3.184 C0.000,1.426 1.421,0.000 3.175,0.000 L46.825,0.000 C48.579,0.000 50.000,1.426 50.000,3.184 L50.000,35.816 C50.000,37.575 48.579,39.000 46.825,39.000 ZM46.992,3.017 L3.008,3.017 L3.008,25.674 L14.837,11.748 C15.795,10.631 17.524,10.643 18.467,11.773 L30.952,27.145 L37.284,20.712 C38.183,19.811 39.629,19.776 40.569,20.634 L46.992,26.338 L46.992,3.017 ZM32.988,11.497 C32.988,8.999 35.007,6.974 37.499,6.974 C39.991,6.974 42.010,8.999 42.010,11.497 C42.010,13.996 39.991,16.021 37.499,16.021 C35.007,16.021 32.988,13.996 32.988,11.497 Z" transform="translate(0 5.5)" />
  </g>
</svg>
