<svg xmlns="http://www.w3.org/2000/svg" xmlns:xlink="http://www.w3.org/1999/xlink" preserveAspectRatio="xMidYMid" width="18" height="18" viewBox="0 0 18 18">
  <defs>
    <clipPath id="clip-path-1">
      <rect x="-1420" y="-1408" width="3296" height="2238"/>
    </clipPath>
  </defs>
  <g clip-path="url(#clip-path-1)">
    <path d="M17.500,15.000 L0.500,15.000 C0.224,15.000 -0.000,14.765 -0.000,14.475 L-0.000,8.525 L3.667,0.700 C3.783,0.163 4.224,0.000 4.500,0.000 L13.500,0.000 C13.776,0.000 14.211,0.222 14.333,0.700 L18.000,8.525 L18.000,14.475 C18.000,14.765 17.776,15.000 17.500,15.000 ZM12.667,2.006 L5.333,2.006 L2.000,9.012 L6.267,9.012 L7.333,10.988 L10.667,10.988 L11.600,9.012 L16.000,9.012 L12.667,2.006 Z" transform="translate(0 1.5)" />
  </g>
</svg>
