<svg xmlns="http://www.w3.org/2000/svg" xmlns:xlink="http://www.w3.org/1999/xlink" preserveAspectRatio="xMidYMid" width="13" height="13" viewBox="0 0 13 13">
  <path d="M13.000,6.512 C12.998,7.388 12.827,8.226 12.485,9.023 C12.141,9.825 11.678,10.516 11.097,11.097 C10.515,11.679 9.824,12.141 9.022,12.486 C8.227,12.827 7.392,12.997 6.519,13.000 L6.481,13.000 C5.517,12.997 4.600,12.795 3.731,12.388 C2.856,11.979 2.111,11.402 1.496,10.657 C1.457,10.601 1.438,10.537 1.441,10.467 C1.444,10.396 1.468,10.338 1.513,10.293 L2.673,9.125 C2.729,9.074 2.800,9.049 2.885,9.049 C2.975,9.060 3.040,9.094 3.079,9.150 C3.491,9.686 3.997,10.101 4.595,10.395 C5.193,10.688 5.828,10.835 6.500,10.835 C7.087,10.835 7.647,10.721 8.180,10.492 C8.713,10.263 9.175,9.954 9.564,9.565 C9.954,9.176 10.263,8.714 10.491,8.181 C10.720,7.647 10.834,7.087 10.834,6.500 C10.834,5.913 10.720,5.353 10.491,4.820 C10.263,4.287 9.954,3.825 9.564,3.436 C9.175,3.046 8.713,2.737 8.180,2.509 C7.647,2.280 7.087,2.166 6.500,2.166 C5.946,2.166 5.416,2.266 4.908,2.466 C4.400,2.667 3.949,2.953 3.554,3.326 L4.713,4.494 C4.888,4.663 4.928,4.858 4.832,5.078 C4.736,5.304 4.569,5.417 4.332,5.417 L0.540,5.417 C0.393,5.417 0.266,5.363 0.159,5.256 C0.054,5.151 0.002,5.027 -0.000,4.885 L-0.000,1.075 C0.003,0.843 0.113,0.678 0.337,0.583 C0.557,0.487 0.751,0.526 0.921,0.701 L2.021,1.793 C2.625,1.223 3.315,0.782 4.091,0.469 C4.863,0.157 5.661,0.002 6.486,0.000 L6.513,0.000 C7.388,0.002 8.225,0.173 9.022,0.515 C9.824,0.859 10.515,1.322 11.097,1.903 C11.678,2.485 12.141,3.176 12.485,3.978 C12.827,4.775 12.998,5.612 13.000,6.488 L13.000,6.512 Z"/>
</svg>
