<svg xmlns="http://www.w3.org/2000/svg" xmlns:xlink="http://www.w3.org/1999/xlink" preserveAspectRatio="xMidYMid" width="13" height="13" viewBox="0 0 13 13">
  <path d="M4.000,13.000 L4.000,10.000 L13.000,10.000 L13.000,13.000 L4.000,13.000 ZM4.000,5.000 L13.000,5.000 L13.000,8.000 L4.000,8.000 L4.000,5.000 ZM4.000,0.000 L13.000,0.000 L13.000,3.000 L4.000,3.000 L4.000,0.000 ZM0.000,3.000 L0.000,0.000 L3.000,0.000 L3.000,3.000 L0.000,3.000 ZM3.000,8.000 L0.000,8.000 L0.000,5.000 L3.000,5.000 L3.000,8.000 ZM3.000,13.000 L0.000,13.000 L0.000,10.000 L3.000,10.000 L3.000,13.000 Z" />
</svg>
