<svg xmlns="http://www.w3.org/2000/svg" xmlns:xlink="http://www.w3.org/1999/xlink" preserveAspectRatio="xMidYMid" width="13" height="12.94" viewBox="0 0 13 12.94">
  <path d="M6.503,12.939 C4.768,12.939 3.137,12.264 1.910,11.037 C0.683,9.810 0.007,8.179 0.007,6.444 C0.007,4.709 0.683,3.078 1.910,1.851 C3.018,0.742 4.463,0.113 6.010,-0.004 L5.999,2.257 C3.902,2.510 2.265,4.280 2.265,6.444 C2.265,8.781 4.166,10.682 6.503,10.682 C8.840,10.682 10.741,8.781 10.741,6.444 C10.741,5.729 10.546,5.066 10.233,4.475 L12.126,3.244 C12.678,4.212 12.998,5.299 12.998,6.444 C12.998,8.179 12.323,9.810 11.096,11.037 C9.869,12.264 8.238,12.939 6.503,12.939 Z"/>
</svg>
