<?xml version="1.0" encoding="utf-8"?>
<!-- Generator: Avocode 2.4.1-9839e14 - http://avocode.com -->
<svg height="64" width="64" xmlns:xlink="http://www.w3.org/1999/xlink" xmlns="http://www.w3.org/2000/svg" viewBox="0 0 64 64">
    <path d="M 29.52 11.19 C 19.17 12.43 11.12 21.26 11.12 31.95 C 11.12 43.48 20.49 52.86 32 52.86 C 43.52 52.86 52.88 43.48 52.88 31.95 C 52.88 28.42 52 25.1 50.45 22.18 C 50.45 22.18 59.82 16.08 59.82 16.08 C 62.55 20.86 64.01 26.29 64.01 31.94 C 64.01 40.51 60.68 48.56 54.63 54.61 C 48.59 60.67 40.55 64 32 64 C 23.45 64 15.41 60.67 9.37 54.61 C 3.32 48.56 -0.01 40.51 -0.01 31.94 C -0.01 23.38 3.32 15.33 9.37 9.28 C 14.83 3.8 21.94 0.58 29.57 0.01 C 29.57 0.01 29.52 11.19 29.52 11.19 Z" fill="#cfcfcf"/>
</svg>
