<svg xmlns="http://www.w3.org/2000/svg" xmlns:xlink="http://www.w3.org/1999/xlink" preserveAspectRatio="xMidYMid" width="24" height="24" viewBox="0 0 24 24">
  <defs>
    <clipPath id="clip-path-1">
      <rect x="-1327" y="-1333.5" width="3296" height="2238"/>
    </clipPath>
  </defs>
  <g clip-path="url(#clip-path-1)">
    <path d="M15.595,19.234 C14.605,20.207 13.051,20.255 12.123,19.345 C11.196,18.430 11.246,16.900 12.234,15.926 L15.884,12.333 L2.382,12.334 C1.071,12.333 0.007,11.287 0.006,9.996 C0.006,8.702 1.069,7.655 2.382,7.656 L15.947,7.656 L12.284,4.051 C11.310,3.089 11.270,1.570 12.198,0.656 C13.126,-0.258 14.668,-0.220 15.644,0.740 L23.166,8.144 C23.199,8.178 23.222,8.216 23.253,8.249 C23.278,8.271 23.305,8.288 23.330,8.309 C24.259,9.224 24.209,10.754 23.217,11.727 L15.595,19.234 Z" transform="translate(0 2)" />
  </g>
</svg>
