<svg xmlns="http://www.w3.org/2000/svg" xmlns:xlink="http://www.w3.org/1999/xlink" preserveAspectRatio="xMidYMid" width="13" height="13" viewBox="0 0 13 13">
  <defs>
    <clipPath id="clip-path-1">
      <rect x="-1125.5" y="-1563.5" width="3296" height="2238"/>
    </clipPath>
  </defs>
  <g clip-path="url(#clip-path-1)">
    <path d="M0.000,12.097 L0.000,5.931 C0.000,5.434 0.319,5.031 0.709,5.031 L0.963,5.031 L0.963,4.064 C0.963,1.871 2.704,0.039 4.881,0.000 C4.892,0.000 4.912,0.000 4.926,0.000 L5.074,0.000 C5.088,0.000 5.108,0.000 5.119,0.000 C7.295,0.039 9.037,1.871 9.037,4.064 L9.037,5.031 L9.291,5.031 C9.681,5.031 10.000,5.434 10.000,5.931 L10.000,12.097 C10.000,12.593 9.681,13.000 9.291,13.000 L0.709,13.000 C0.319,13.000 0.000,12.593 0.000,12.097 ZM4.290,8.773 L4.290,10.570 C4.290,10.776 4.462,10.950 4.668,10.950 L5.332,10.950 C5.538,10.950 5.710,10.776 5.710,10.570 L5.710,8.773 C5.910,8.577 6.120,8.305 6.120,8.004 C6.120,7.434 5.679,6.757 5.119,6.735 C5.059,6.732 4.941,6.732 4.881,6.735 C4.321,6.757 3.880,7.434 3.880,8.004 C3.880,8.305 4.090,8.577 4.290,8.773 ZM2.634,5.031 L4.881,5.031 L5.119,5.031 L7.366,5.031 L7.366,4.064 C7.366,2.758 6.304,1.678 5.000,1.678 C3.696,1.678 2.634,2.758 2.634,4.064 L2.634,5.031 Z" transform="translate(1.5)" />
  </g>
</svg>
