<?xml version="1.0" encoding="utf-8"?>
<!-- Generator: Adobe Illustrator 19.1.0, SVG Export Plug-In . SVG Version: 6.00 Build 0)  -->
<svg version="1.1" id="Capa_1" xmlns="http://www.w3.org/2000/svg" xmlns:xlink="http://www.w3.org/1999/xlink" x="0px" y="0px"
	 width="219px" height="58.3px" viewBox="-188 385.9 219 58.3" style="enable-background:new -188 385.9 219 58.3;"
	 xml:space="preserve">
<path id="path-1" class="st0" d="M30.6,436.7c-0.3,0.3-0.6,0.4-1.1,0.4s-0.8-0.1-1.1-0.4c-0.3-0.3-0.4-0.6-0.4-1v-10.6
	c0,0-0.1,0-0.1,0.1c-2,2-4.5,3-7.4,3c-2.9,0-5.4-1-7.4-3c-2-2-3.1-4.5-3.1-7.4c0-2.9,1-5.3,3.1-7.4c2-2,4.5-3,7.4-3
	c2.9,0,5.4,1,7.4,3c2,2,3.1,4.5,3.1,7.4v17.8C31,436.1,30.9,436.4,30.6,436.7z M25.8,412.6c-1.5-1.4-3.2-2.2-5.3-2.2
	c-2.1,0-3.8,0.7-5.3,2.2c-1.5,1.4-2.2,3.2-2.2,5.3s0.7,3.8,2.2,5.3c1.5,1.4,3.2,2.2,5.3,2.2c2.1,0,3.8-0.7,5.3-2.2
	c1.5-1.4,2.2-3.2,2.2-5.3S27.3,414,25.8,412.6z M-6.5,428.2c-2.9,0-5.4-1-7.4-3c-2-2-3.1-4.5-3.1-7.4c0-2.9,1-5.3,3.1-7.4
	c2-2,4.5-3,7.4-3c2.9,0,5.4,1,7.4,3c2,2,3.1,4.5,3.1,7.4c0,2.9-1,5.3-3.1,7.4C-1.1,427.2-3.6,428.2-6.5,428.2z M-1.2,412.6
	c-1.5-1.4-3.2-2.2-5.3-2.2c-2.1,0-3.8,0.7-5.3,2.2c-1.5,1.4-2.2,3.2-2.2,5.3s0.7,3.8,2.2,5.3c1.5,1.4,3.2,2.2,5.3,2.2
	c2.1,0,3.8-0.7,5.3-2.2c1.5-1.4,2.2-3.2,2.2-5.3S0.3,414-1.2,412.6z M-24.5,428.2h-3c-0.4,0-0.8-0.1-1.1-0.4c-0.3-0.3-0.4-0.6-0.4-1
	V400c0-0.4,0.1-0.8,0.4-1c0.3-0.3,0.6-0.4,1.1-0.4c0.4,0,0.8,0.1,1.1,0.4c0.3,0.3,0.4,0.6,0.4,1v25.3h1.5c0.4,0,0.8,0.1,1.1,0.4
	c0.3,0.3,0.4,0.6,0.4,1s-0.1,0.8-0.4,1C-23.8,428.1-24.1,428.2-24.5,428.2z M-45.6,428.2c-2.9,0-5.4-1-7.4-3c-2-2-3.1-4.5-3.1-7.4
	V400c0-0.4,0.1-0.8,0.4-1c0.3-0.3,0.6-0.4,1.1-0.4c0.4,0,0.8,0.1,1.1,0.4c0.3,0.3,0.4,0.6,0.4,1v10.6c0,0,0.1-0.1,0.1-0.1
	c2-2,4.5-3,7.4-3c2.9,0,5.4,1,7.4,3c2,2,3.1,4.5,3.1,7.4c0,2.9-1,5.3-3.1,7.4C-40.2,427.2-42.7,428.2-45.6,428.2z M-40.3,412.6
	c-1.5-1.4-3.2-2.2-5.3-2.2c-2.1,0-3.8,0.7-5.3,2.2c-1.5,1.4-2.2,3.2-2.2,5.3s0.7,3.8,2.2,5.3c1.5,1.4,3.2,2.2,5.3,2.2
	c2.1,0,3.8-0.7,5.3-2.2c1.5-1.4,2.2-3.2,2.2-5.3S-38.8,414-40.3,412.6z M-63.6,428.2c-5,0-7.5-2.5-7.5-7.4v-10.4h-1.5
	c-0.4,0-0.8-0.1-1.1-0.4c-0.3-0.3-0.4-0.6-0.4-1s0.1-0.8,0.4-1c0.3-0.3,0.6-0.4,1.1-0.4h1.5V400c0-0.4,0.1-0.8,0.4-1
	c0.3-0.3,0.6-0.4,1.1-0.4c0.4,0,0.8,0.1,1.1,0.4c0.3,0.3,0.4,0.6,0.4,1v7.4h3c0.4,0,0.8,0.1,1.1,0.4c0.3,0.3,0.4,0.6,0.4,1
	s-0.1,0.8-0.4,1c-0.3,0.3-0.6,0.4-1.1,0.4h-3v10.4c0,3,1.5,4.5,4.5,4.5c0.4,0,0.8,0.1,1.1,0.4c0.3,0.3,0.4,0.6,0.4,1s-0.1,0.8-0.4,1
	C-62.9,428.1-63.2,428.2-63.6,428.2z M-83.2,404.8c-0.5,0-1-0.2-1.3-0.5c-0.4-0.4-0.6-0.8-0.6-1.3c0-0.5,0.2-0.9,0.6-1.3
	c0.4-0.4,0.8-0.5,1.3-0.5c0.5,0,1,0.2,1.3,0.5c0.4,0.4,0.6,0.8,0.6,1.3c0,0.5-0.2,0.9-0.6,1.3C-82.2,404.7-82.7,404.8-83.2,404.8z
	 M-102.7,428.2c-2.9,0-5.4-1-7.4-3c-2-2-3.1-4.5-3.1-7.4V400c0-0.4,0.1-0.8,0.4-1c0.3-0.3,0.6-0.4,1.1-0.4c0.4,0,0.8,0.1,1.1,0.4
	c0.3,0.3,0.4,0.6,0.4,1v10.6c0,0,0-0.1,0.1-0.1c2-2,4.5-3,7.4-3s5.4,1,7.4,3c2,2,3.1,4.5,3.1,7.4c0,2.9-1,5.3-3.1,7.4
	C-97.4,427.2-99.8,428.2-102.7,428.2z M-97.4,412.6c-1.5-1.4-3.2-2.2-5.3-2.2c-2.1,0-3.8,0.7-5.3,2.2s-2.2,3.2-2.2,5.3
	s0.7,3.8,2.2,5.3s3.2,2.2,5.3,2.2c2.1,0,3.8-0.7,5.3-2.2s2.2-3.2,2.2-5.3S-96,414-97.4,412.6z M-83.2,407.4c0.4,0,0.8,0.1,1.1,0.4
	c0.3,0.3,0.4,0.6,0.4,1v17.8c0,0.4-0.1,0.8-0.4,1c-0.3,0.3-0.6,0.4-1.1,0.4c-0.4,0-0.8-0.1-1.1-0.4c-0.3-0.3-0.4-0.6-0.4-1v-17.8
	c0-0.4,0.1-0.8,0.4-1C-84,407.6-83.6,407.4-83.2,407.4z M-142.7,444.2h-31.1c-7.8,0-14.2-6.4-14.2-14.2v-30
	c0-7.8,6.4-14.2,14.2-14.2h31.1c7.8,0,14.2,6.4,14.2,14.2v30C-128.5,437.9-134.9,444.2-142.7,444.2z M-173.9,413h-2.3v-3.4
	c0-0.3-0.4-0.6-0.8-0.6c-0.3,0-0.8,0.3-0.8,0.6v3.4h-2.3v-1.8c0-0.3-0.1-0.6-0.4-0.6c-0.3,0-0.4,0.3-0.4,0.6v1.8h-2.8
	c-0.3,0-0.6,0.1-0.6,0.4c0,0.3,0.3,0.4,0.6,0.4h2.8v2.1c0,0.3,0.1,0.6,0.4,0.6c0.3,0,0.4-0.3,0.4-0.6v-2.1h2.3v3.6
	c0,0.3,0.4,0.6,0.8,0.6c0.3,0,0.8-0.3,0.8-0.6v-3.6h2.3V413z M-158.1,396.9c-1.1,0-1.8,0.9-1.8,2c0,0.9,0.1,1.7,1.7,1.9v6.1h0.8
	v-6.1c0.8-0.2,1.4-1,1.4-1.9C-156.1,397.7-157.1,396.9-158.1,396.9z M-143.4,414V413v-4.6h-29.7v4.7v1v4.3c0,5.9,6.7,11.1,14.5,11.1
	h0.4c8.2,0,14.9-5.3,14.9-11.5V414z M-132.6,413h-2.2v-1.8c0-0.3-0.4-0.6-0.8-0.6c-0.3,0-0.8,0.3-0.8,0.6v1.8h-2.3v-3.4
	c0-0.3-0.1-0.6-0.4-0.6c-0.3,0-0.4,0.3-0.4,0.6v3.4h-3.1v0.8h3.1v3.6c0,0.3,0.1,0.6,0.4,0.6c0.3,0,0.4-0.3,0.4-0.6v-3.6h2.3v2.1
	c0,0.3,0.4,0.6,0.8,0.6c0.3,0,0.8-0.3,0.8-0.6v-2.1h2.2c0.3,0,0.6-0.1,0.6-0.4C-132,413.1-132.2,413-132.6,413z M-155.7,416.7
	c0-2.2,1.8-4.1,4.1-4.1c2.2,0,4.1,1.8,4.1,4.1c0,2.2-1.8,4.1-4.1,4.1C-153.8,420.7-155.7,418.9-155.7,416.7z M-151.6,418.9
	c1.3,0,2.3-1,2.3-2.3c0-0.9-0.6-1.7-1.4-2.1c0.8,0.3,1.4,1.1,1.4,2.1c0,0.7-0.3,1.3-0.8,1.7c0.5-0.4,0.8-1,0.8-1.7
	c0-0.9-0.6-1.7-1.4-2.1c-0.3-0.1-0.6-0.2-0.9-0.2c-1.3,0-2.3,1-2.3,2.3c0,0.9,0.6,1.7,1.4,2.1C-152.2,418.9-151.9,418.9-151.6,418.9
	z M-165.6,422.3c-3.1,0-5.7-2.5-5.7-5.6c0-3.1,2.5-5.6,5.7-5.6c3.1,0,5.7,2.5,5.7,5.6C-160,419.8-162.5,422.3-165.6,422.3z
	 M-165.6,412.8c-2.1,0-3.9,1.7-3.9,3.8c0,2.1,1.7,3.8,3.9,3.8c2.1,0,3.9-1.7,3.9-3.8C-161.8,414.6-163.5,412.8-165.6,412.8z"/>
</svg>
