<svg xmlns="http://www.w3.org/2000/svg" xmlns:xlink="http://www.w3.org/1999/xlink" preserveAspectRatio="xMidYMid" width="219" height="70" viewBox="0 0 219 70">
  <path d="M218.560,50.836 C218.267,51.127 217.915,51.273 217.504,51.273 C217.093,51.273 216.741,51.127 216.449,50.836 C216.155,50.545 216.009,50.195 216.009,49.787 C216.009,49.787 216.009,39.235 216.009,39.235 C215.984,39.260 215.959,39.285 215.934,39.309 C213.891,41.340 211.424,42.356 208.533,42.356 C205.642,42.356 203.175,41.340 201.131,39.309 C199.088,37.278 198.066,34.826 198.066,31.953 C198.066,29.080 199.088,26.628 201.131,24.596 C203.175,22.565 205.642,21.550 208.533,21.550 C211.424,21.550 213.891,22.565 215.934,24.596 C217.978,26.628 219.000,29.080 219.000,31.953 C219.000,31.953 219.000,49.787 219.000,49.787 C219.000,50.195 218.853,50.545 218.560,50.836 ZM213.822,26.696 C212.364,25.247 210.601,24.522 208.533,24.522 C206.464,24.522 204.701,25.247 203.243,26.696 C201.785,28.145 201.056,29.897 201.056,31.953 C201.056,34.009 201.785,35.761 203.243,37.210 C204.701,38.659 206.464,39.384 208.533,39.384 C210.601,39.384 212.364,38.659 213.822,37.210 C215.280,35.761 216.009,34.009 216.009,31.953 C216.009,29.897 215.280,28.145 213.822,26.696 ZM181.508,42.356 C178.617,42.356 176.150,41.340 174.106,39.309 C172.063,37.278 171.041,34.826 171.041,31.953 C171.041,29.080 172.063,26.628 174.106,24.596 C176.150,22.565 178.617,21.550 181.508,21.550 C184.399,21.550 186.866,22.565 188.909,24.596 C190.953,26.628 191.975,29.080 191.975,31.953 C191.975,34.826 190.953,37.278 188.909,39.309 C186.866,41.340 184.399,42.356 181.508,42.356 ZM186.797,26.696 C185.339,25.247 183.576,24.522 181.508,24.522 C179.439,24.522 177.676,25.247 176.218,26.696 C174.760,28.145 174.031,29.897 174.031,31.953 C174.031,34.009 174.760,35.761 176.218,37.210 C177.676,38.659 179.439,39.384 181.508,39.384 C183.576,39.384 185.339,38.659 186.797,37.210 C188.255,35.761 188.984,34.009 188.984,31.953 C188.984,29.897 188.255,28.145 186.797,26.696 ZM163.455,42.356 C163.455,42.356 160.465,42.356 160.465,42.356 C160.054,42.356 159.701,42.211 159.409,41.919 C159.115,41.629 158.969,41.279 158.969,40.870 C158.969,40.870 158.969,14.119 158.969,14.119 C158.969,13.710 159.115,13.361 159.409,13.070 C159.701,12.779 160.054,12.633 160.465,12.633 C160.876,12.633 161.227,12.779 161.520,13.070 C161.813,13.361 161.960,13.710 161.960,14.119 C161.960,14.119 161.960,39.384 161.960,39.384 C161.960,39.384 163.455,39.384 163.455,39.384 C163.866,39.384 164.218,39.530 164.511,39.821 C164.804,40.112 164.950,40.461 164.950,40.870 C164.950,41.279 164.804,41.629 164.511,41.919 C164.218,42.211 163.866,42.356 163.455,42.356 ZM142.411,42.356 C139.520,42.356 137.053,41.340 135.010,39.309 C132.966,37.278 131.944,34.826 131.944,31.953 C131.944,31.953 131.944,14.082 131.944,14.082 C131.944,13.673 132.090,13.324 132.384,13.033 C132.676,12.742 133.028,12.596 133.440,12.596 C133.851,12.596 134.202,12.742 134.495,13.033 C134.788,13.324 134.935,13.673 134.935,14.082 C134.935,14.082 134.935,24.671 134.935,24.671 C134.960,24.646 134.985,24.621 135.010,24.596 C137.053,22.565 139.520,21.550 142.411,21.550 C145.302,21.550 147.769,22.565 149.813,24.596 C151.856,26.628 152.878,29.080 152.878,31.953 C152.878,34.826 151.856,37.278 149.813,39.309 C147.769,41.340 145.302,42.356 142.411,42.356 ZM147.701,26.696 C146.243,25.247 144.480,24.522 142.411,24.522 C140.343,24.522 138.580,25.247 137.122,26.696 C135.664,28.145 134.935,29.897 134.935,31.953 C134.935,34.009 135.664,35.761 137.122,37.210 C138.580,38.659 140.343,39.384 142.411,39.384 C144.480,39.384 146.243,38.659 147.701,37.210 C149.159,35.761 149.887,34.009 149.887,31.953 C149.887,29.897 149.159,28.145 147.701,26.696 ZM124.358,42.356 C119.374,42.356 116.881,39.879 116.881,34.925 C116.881,34.925 116.881,24.522 116.881,24.522 C116.881,24.522 115.386,24.522 115.386,24.522 C114.975,24.522 114.623,24.377 114.331,24.085 C114.037,23.795 113.891,23.445 113.891,23.036 C113.891,22.627 114.037,22.278 114.331,21.987 C114.623,21.696 114.975,21.550 115.386,21.550 C115.386,21.550 116.881,21.550 116.881,21.550 C116.881,21.550 116.881,14.119 116.881,14.119 C116.881,13.710 117.028,13.361 117.321,13.070 C117.613,12.779 117.966,12.633 118.377,12.633 C118.788,12.633 119.140,12.779 119.432,13.070 C119.725,13.361 119.872,13.710 119.872,14.119 C119.872,14.119 119.872,21.550 119.872,21.550 C119.872,21.550 122.881,21.550 122.881,21.550 C123.292,21.550 123.644,21.696 123.938,21.987 C124.230,22.278 124.376,22.627 124.376,23.036 C124.376,23.445 124.230,23.795 123.938,24.085 C123.644,24.377 123.292,24.522 122.881,24.522 C122.881,24.522 119.872,24.522 119.872,24.522 C119.872,24.522 119.872,34.925 119.872,34.925 C119.872,37.898 121.367,39.384 124.358,39.384 C124.769,39.384 125.121,39.530 125.413,39.821 C125.706,40.112 125.853,40.461 125.853,40.870 C125.853,41.279 125.706,41.629 125.413,41.919 C125.121,42.211 124.769,42.356 124.358,42.356 ZM104.810,18.949 C104.299,18.949 103.859,18.767 103.493,18.401 C103.124,18.036 102.941,17.599 102.941,17.091 C102.941,16.584 103.124,16.148 103.493,15.782 C103.859,15.417 104.299,15.234 104.810,15.234 C105.321,15.234 105.760,15.417 106.127,15.782 C106.495,16.148 106.679,16.584 106.679,17.091 C106.679,17.599 106.495,18.036 106.127,18.401 C105.760,18.767 105.321,18.949 104.810,18.949 ZM85.261,42.356 C82.370,42.356 79.903,41.340 77.860,39.309 C75.816,37.278 74.794,34.826 74.794,31.953 C74.794,31.953 74.794,14.082 74.794,14.082 C74.794,13.673 74.940,13.324 75.234,13.033 C75.526,12.742 75.879,12.596 76.290,12.596 C76.701,12.596 77.052,12.742 77.345,13.033 C77.638,13.324 77.785,13.673 77.785,14.082 C77.785,14.082 77.785,24.671 77.785,24.671 C77.810,24.646 77.835,24.621 77.860,24.596 C79.903,22.565 82.370,21.550 85.261,21.550 C88.152,21.550 90.619,22.565 92.663,24.596 C94.706,26.628 95.728,29.080 95.728,31.953 C95.728,34.826 94.706,37.278 92.663,39.309 C90.619,41.340 88.152,42.356 85.261,42.356 ZM90.551,26.696 C89.093,25.247 87.330,24.522 85.261,24.522 C83.193,24.522 81.430,25.247 79.972,26.696 C78.514,28.145 77.785,29.897 77.785,31.953 C77.785,34.009 78.514,35.761 79.972,37.210 C81.430,38.659 83.193,39.384 85.261,39.384 C87.330,39.384 89.093,38.659 90.551,37.210 C92.009,35.761 92.738,34.009 92.738,31.953 C92.738,29.897 92.009,28.145 90.551,26.696 ZM68.485,59.096 C68.485,59.096 68.279,59.809 68.279,59.809 C67.994,60.793 67.569,61.725 67.014,62.581 C67.014,62.581 66.613,63.199 66.613,63.199 C66.613,63.199 67.497,65.164 67.497,65.164 C67.723,65.673 67.580,66.273 67.155,66.616 C67.155,66.616 65.967,67.565 65.967,67.565 C65.575,67.882 64.917,67.905 64.487,67.604 C64.487,67.604 62.759,66.390 62.759,66.390 C62.759,66.390 62.068,66.666 62.068,66.666 C61.436,66.918 60.773,67.112 60.096,67.243 C59.769,67.306 59.430,67.353 59.084,67.386 C59.084,67.386 58.349,67.454 58.349,67.454 C58.349,67.454 57.332,69.359 57.332,69.359 C57.079,69.838 56.510,70.098 55.966,69.973 C55.966,69.973 54.505,69.635 54.505,69.635 C53.967,69.510 53.574,69.042 53.550,68.494 C53.550,68.494 53.451,66.393 53.451,66.393 C53.451,66.393 52.806,66.021 52.806,66.021 C51.909,65.504 51.099,64.867 50.397,64.128 C50.397,64.128 49.891,63.594 49.891,63.594 C49.891,63.594 47.747,63.972 47.747,63.972 C47.214,64.068 46.645,63.755 46.423,63.274 C46.423,63.274 45.790,61.915 45.790,61.915 C45.560,61.428 45.690,60.839 46.108,60.481 C46.108,60.481 47.716,59.104 47.716,59.104 C47.716,59.104 47.613,58.370 47.613,58.370 C47.607,58.328 47.605,58.287 47.600,58.245 C47.474,57.269 47.481,56.285 47.629,55.318 C47.629,55.318 47.740,54.592 47.740,54.592 C47.740,54.592 46.138,53.166 46.138,53.166 C45.721,52.787 45.605,52.179 45.855,51.691 C45.855,51.691 46.544,50.354 46.544,50.354 C46.795,49.866 47.312,49.595 47.883,49.711 C47.883,49.711 49.966,50.125 49.966,50.125 C49.966,50.125 50.485,49.590 50.485,49.590 C51.200,48.852 52.016,48.225 52.910,47.726 C52.910,47.726 53.555,47.367 53.555,47.367 C53.555,47.367 53.703,45.227 53.703,45.227 C53.743,44.672 54.154,44.210 54.699,44.104 C54.699,44.104 56.170,43.822 56.170,43.822 C56.759,43.710 57.263,43.987 57.511,44.478 C57.511,44.478 58.463,46.356 58.463,46.356 C58.463,46.356 59.205,46.433 59.205,46.433 C59.307,46.444 59.408,46.469 59.510,46.483 C60.181,46.573 60.846,46.715 61.489,46.932 C61.489,46.932 62.190,47.169 62.190,47.169 C62.190,47.169 63.899,45.837 63.899,45.837 C64.259,45.553 65.021,45.546 65.397,45.829 C65.397,45.829 66.597,46.731 66.597,46.731 C67.035,47.059 67.200,47.643 66.997,48.157 C66.997,48.157 66.231,50.119 66.231,50.119 C66.231,50.119 66.670,50.718 66.670,50.718 C67.276,51.547 67.754,52.455 68.091,53.416 C68.091,53.416 68.334,54.111 68.334,54.111 C68.334,54.111 70.436,54.629 70.436,54.629 C70.980,54.764 71.365,55.246 71.372,55.805 C71.372,55.805 71.396,57.299 71.396,57.299 C71.406,57.841 71.047,58.330 70.526,58.488 C70.526,58.488 68.485,59.096 68.485,59.096 ZM64.265,55.488 C63.711,52.619 61.192,50.532 58.286,50.458 C57.849,50.446 57.402,50.478 56.952,50.563 C53.887,51.148 51.782,53.883 51.900,56.894 C51.912,57.203 51.939,57.513 52.000,57.826 C52.566,60.744 55.142,62.863 58.126,62.863 C58.518,62.863 58.916,62.825 59.309,62.751 C60.947,62.438 62.364,61.511 63.301,60.137 C64.237,58.764 64.579,57.113 64.265,55.488 ZM55.561,41.153 C55.561,41.153 54.178,41.436 54.178,41.436 C52.421,41.777 51.105,43.256 50.976,45.035 C50.976,45.035 50.927,45.740 50.927,45.740 C50.263,46.161 49.639,46.641 49.060,47.173 C49.060,47.173 48.422,47.046 48.422,47.046 C46.687,46.697 44.915,47.552 44.110,49.113 C44.110,49.113 43.420,50.449 43.420,50.449 C42.612,52.029 42.972,53.964 44.305,55.171 C44.305,55.171 44.834,55.631 44.834,55.631 C44.760,56.410 44.756,57.172 44.821,57.954 C44.821,57.954 44.324,58.337 44.324,58.337 C44.324,58.337 14.229,58.337 14.229,58.337 C6.371,58.337 0.000,52.185 0.000,44.491 C0.000,44.491 0.000,13.929 0.000,13.929 C0.000,6.236 6.371,-0.001 14.229,-0.001 C14.229,-0.001 45.444,-0.001 45.444,-0.001 C53.302,-0.001 59.478,6.236 59.478,13.929 C59.478,13.929 59.478,42.795 59.478,42.795 C58.696,41.525 57.167,40.850 55.561,41.153 ZM14.087,26.445 C14.087,26.445 11.739,26.445 11.739,26.445 C11.739,26.445 11.739,23.041 11.739,23.041 C11.739,22.711 11.290,22.443 10.957,22.443 C10.624,22.443 10.174,22.711 10.174,23.041 C10.174,23.041 10.174,26.445 10.174,26.445 C10.174,26.445 7.826,26.445 7.826,26.445 C7.826,26.445 7.826,24.611 7.826,24.611 C7.826,24.280 7.768,24.012 7.435,24.012 C7.102,24.012 7.044,24.280 7.044,24.611 C7.044,24.611 7.044,26.445 7.044,26.445 C7.044,26.445 4.234,26.445 4.234,26.445 C3.901,26.445 3.632,26.504 3.632,26.834 C3.632,27.165 3.901,27.223 4.234,27.223 C4.234,27.223 7.044,27.223 7.044,27.223 C7.044,27.223 7.044,29.305 7.044,29.305 C7.044,29.636 7.102,29.904 7.435,29.904 C7.768,29.904 7.826,29.636 7.826,29.305 C7.826,29.305 7.826,27.223 7.826,27.223 C7.826,27.223 10.174,27.223 10.174,27.223 C10.174,27.223 10.174,30.838 10.174,30.838 C10.174,31.168 10.624,31.436 10.957,31.436 C11.290,31.436 11.739,31.168 11.739,30.838 C11.739,30.838 11.739,27.223 11.739,27.223 C11.739,27.223 14.087,27.223 14.087,27.223 C14.087,27.223 14.087,26.445 14.087,26.445 ZM29.852,10.303 C28.767,10.303 28.076,11.177 28.076,12.255 C28.076,13.165 28.174,13.923 29.739,14.139 C29.739,14.139 29.739,20.223 29.739,20.223 C29.739,20.223 30.522,20.223 30.522,20.223 C30.522,20.223 30.522,14.139 30.522,14.139 C31.305,13.923 31.907,13.165 31.907,12.255 C31.907,11.177 30.937,10.303 29.852,10.303 ZM44.609,27.466 C44.609,27.466 44.609,26.413 44.609,26.413 C44.609,26.413 44.609,21.778 44.609,21.778 C44.609,21.778 14.870,21.778 14.870,21.778 C14.870,21.778 14.870,26.435 14.870,26.435 C14.870,26.435 14.870,27.445 14.870,27.445 C14.870,27.445 14.870,31.719 14.870,31.719 C14.870,37.631 21.538,42.780 29.385,42.780 C29.385,42.780 29.755,42.780 29.755,42.780 C37.913,42.780 44.609,37.437 44.609,31.289 C44.609,31.289 44.609,27.466 44.609,27.466 ZM55.439,26.445 C55.439,26.445 53.218,26.445 53.218,26.445 C53.218,26.445 53.218,24.611 53.218,24.611 C53.218,24.280 52.768,24.012 52.435,24.012 C52.102,24.012 51.652,24.280 51.652,24.611 C51.652,24.611 51.652,26.445 51.652,26.445 C51.652,26.445 49.305,26.445 49.305,26.445 C49.305,26.445 49.305,23.041 49.305,23.041 C49.305,22.711 49.246,22.443 48.913,22.443 C48.581,22.443 48.522,22.711 48.522,23.041 C48.522,23.041 48.522,26.445 48.522,26.445 C48.522,26.445 45.392,26.445 45.392,26.445 C45.392,26.445 45.392,27.223 45.392,27.223 C45.392,27.223 48.522,27.223 48.522,27.223 C48.522,27.223 48.522,30.838 48.522,30.838 C48.522,31.168 48.581,31.436 48.913,31.436 C49.246,31.436 49.305,31.168 49.305,30.838 C49.305,30.838 49.305,27.223 49.305,27.223 C49.305,27.223 51.652,27.223 51.652,27.223 C51.652,27.223 51.652,29.305 51.652,29.305 C51.652,29.636 52.102,29.904 52.435,29.904 C52.768,29.904 53.218,29.636 53.218,29.305 C53.218,29.305 53.218,27.223 53.218,27.223 C53.218,27.223 55.439,27.223 55.439,27.223 C55.772,27.223 56.041,27.165 56.041,26.834 C56.041,26.504 55.772,26.445 55.439,26.445 ZM32.344,30.123 C32.344,27.887 34.174,26.068 36.424,26.068 C38.673,26.068 40.503,27.887 40.503,30.123 C40.503,32.358 38.673,34.177 36.424,34.177 C34.174,34.177 32.344,32.358 32.344,30.123 ZM34.150,30.123 C34.150,30.123 34.150,30.123 34.150,30.123 C34.150,28.877 35.170,27.863 36.424,27.863 C35.170,27.863 34.150,28.877 34.150,30.123 ZM36.424,32.382 C37.677,32.382 38.697,31.369 38.697,30.123 C38.697,29.188 38.123,28.385 37.308,28.041 C38.124,28.385 38.697,29.188 38.697,30.123 C38.697,30.825 38.367,31.445 37.860,31.860 C38.367,31.445 38.698,30.825 38.698,30.123 C38.698,29.188 38.124,28.385 37.308,28.041 C37.036,27.927 36.737,27.864 36.424,27.864 C35.171,27.864 34.151,28.877 34.151,30.123 C34.151,31.057 34.724,31.861 35.540,32.204 C35.812,32.319 36.110,32.382 36.424,32.382 ZM22.378,35.749 C19.257,35.749 16.718,33.225 16.718,30.123 C16.718,27.020 19.257,24.497 22.378,24.497 C25.499,24.497 28.038,27.020 28.038,30.123 C28.038,33.225 25.499,35.749 22.378,35.749 ZM22.378,26.292 C20.252,26.292 18.523,28.011 18.523,30.123 C18.523,32.235 20.252,33.954 22.378,33.954 C24.504,33.954 26.232,32.235 26.232,30.123 C26.232,28.011 24.504,26.292 22.378,26.292 ZM104.810,21.550 C105.221,21.550 105.573,21.696 105.866,21.987 C106.158,22.278 106.305,22.627 106.305,23.036 C106.305,23.036 106.305,40.870 106.305,40.870 C106.305,41.279 106.158,41.629 105.866,41.919 C105.573,42.211 105.221,42.356 104.810,42.356 C104.399,42.356 104.046,42.211 103.754,41.919 C103.461,41.629 103.315,41.279 103.315,40.870 C103.315,40.870 103.315,23.036 103.315,23.036 C103.315,22.627 103.461,22.278 103.754,21.987 C104.046,21.696 104.399,21.550 104.810,21.550 Z"/>
</svg>
