<svg xmlns="http://www.w3.org/2000/svg" xmlns:xlink="http://www.w3.org/1999/xlink" preserveAspectRatio="xMidYMid" width="27" height="27" viewBox="0 0 27 27">
  <path d="M20.568,26.999 L6.435,26.999 C2.896,26.999 -0.000,24.047 -0.000,20.440 L-0.000,6.560 C-0.000,2.953 2.896,0.001 6.435,0.001 L20.568,0.001 C24.097,0.001 26.984,2.937 27.000,6.531 L27.000,20.469 C26.984,24.063 24.097,26.999 20.568,26.999 ZM6.395,12.548 L5.329,12.548 L5.329,10.973 C5.329,10.820 5.126,10.696 4.974,10.696 C4.823,10.696 4.619,10.820 4.619,10.973 L4.619,12.548 L3.553,12.548 L3.553,11.700 C3.553,11.546 3.527,11.423 3.375,11.423 C3.224,11.423 3.198,11.546 3.198,11.700 L3.198,12.548 L1.922,12.548 C1.771,12.548 1.649,12.576 1.649,12.728 C1.649,12.882 1.771,12.908 1.922,12.908 L3.198,12.908 L3.198,13.872 C3.198,14.025 3.224,14.149 3.375,14.149 C3.527,14.149 3.553,14.025 3.553,13.872 L3.553,12.908 L4.619,12.908 L4.619,14.581 C4.619,14.734 4.823,14.858 4.974,14.858 C5.126,14.858 5.329,14.734 5.329,14.581 L5.329,12.908 L6.395,12.908 L6.395,12.548 ZM13.553,5.078 C13.060,5.078 12.746,5.483 12.746,5.981 C12.746,6.403 12.791,6.753 13.501,6.853 L13.501,9.669 L13.857,9.669 L13.857,6.853 C14.212,6.753 14.486,6.403 14.486,5.981 C14.486,5.483 14.045,5.078 13.553,5.078 ZM20.253,13.021 L20.253,12.534 L20.253,10.389 L6.751,10.389 L6.751,12.544 L6.751,13.011 L6.751,14.989 C6.751,17.725 9.778,20.108 13.341,20.108 L13.509,20.108 C17.213,20.108 20.253,17.635 20.253,14.790 L20.253,13.021 ZM25.169,12.548 L24.161,12.548 L24.161,11.700 C24.161,11.546 23.957,11.423 23.806,11.423 C23.654,11.423 23.450,11.546 23.450,11.700 L23.450,12.548 L22.384,12.548 L22.384,10.973 C22.384,10.820 22.358,10.696 22.206,10.696 C22.056,10.696 22.029,10.820 22.029,10.973 L22.029,12.548 L20.608,12.548 L20.608,12.908 L22.029,12.908 L22.029,14.581 C22.029,14.734 22.056,14.858 22.206,14.858 C22.358,14.858 22.384,14.734 22.384,14.581 L22.384,12.908 L23.450,12.908 L23.450,13.872 C23.450,14.025 23.654,14.149 23.806,14.149 C23.957,14.149 24.161,14.025 24.161,13.872 L24.161,12.908 L25.169,12.908 C25.321,12.908 25.443,12.882 25.443,12.728 C25.443,12.576 25.321,12.548 25.169,12.548 ZM16.537,16.127 C15.515,16.127 14.684,15.285 14.684,14.250 C14.684,13.216 15.515,12.374 16.537,12.374 C17.558,12.374 18.388,13.216 18.388,14.250 C18.388,15.285 17.558,16.127 16.537,16.127 ZM16.938,13.287 C16.814,13.234 16.679,13.205 16.537,13.205 C15.968,13.205 15.505,13.674 15.505,14.250 C15.505,14.683 15.765,15.055 16.135,15.214 C16.259,15.267 16.394,15.296 16.537,15.296 C17.105,15.296 17.569,14.827 17.569,14.250 L17.569,14.250 C17.569,13.818 17.308,13.446 16.938,13.287 ZM17.569,14.250 C17.569,13.818 17.308,13.446 16.938,13.287 C17.308,13.446 17.569,13.818 17.569,14.250 ZM10.160,16.854 C8.743,16.854 7.590,15.686 7.590,14.250 C7.590,12.814 8.743,11.647 10.160,11.647 C11.577,11.647 12.729,12.814 12.729,14.250 C12.729,15.686 11.577,16.854 10.160,16.854 ZM10.160,12.478 C9.194,12.478 8.410,13.273 8.410,14.250 C8.410,15.228 9.194,16.023 10.160,16.023 C11.125,16.023 11.909,15.228 11.909,14.250 C11.909,13.273 11.125,12.478 10.160,12.478 Z" />
</svg>
