<svg xmlns="http://www.w3.org/2000/svg" xmlns:xlink="http://www.w3.org/1999/xlink" preserveAspectRatio="xMidYMid" width="13" height="13" viewBox="0 0 13 13">
  <defs>
    <clipPath id="clip-path-1">
      <rect x="-1693" y="-1566" width="3296" height="2238"/>
    </clipPath>
  </defs>
  <g clip-path="url(#clip-path-1)">
    <path d="M8.332,10.561 C8.227,10.670 8.103,10.724 7.959,10.724 C7.815,10.724 7.535,10.670 7.430,10.561 C7.325,10.452 7.272,10.323 7.272,10.174 L7.241,7.981 L3.527,7.981 C3.383,7.981 3.259,7.926 3.154,7.817 C3.049,7.709 2.996,7.580 2.996,7.431 L3.027,3.537 C3.027,3.388 3.080,3.259 3.185,3.150 C3.290,3.041 3.414,2.987 3.558,2.987 L7.304,3.018 L7.304,0.824 C7.304,0.675 7.356,0.547 7.461,0.438 C7.566,0.329 7.815,0.274 7.959,0.274 C8.103,0.274 8.227,0.329 8.332,0.438 L12.842,5.113 C12.947,5.222 13.000,5.350 13.000,5.499 C13.000,5.648 12.947,5.777 12.842,5.886 L8.332,10.561 ZM2.294,10.024 L4.776,9.993 C4.781,9.993 4.811,9.993 4.867,9.993 C4.922,9.993 4.958,9.993 4.974,9.993 C4.991,9.993 5.023,9.996 5.070,10.002 C5.117,10.007 5.149,10.016 5.165,10.027 C5.182,10.039 5.204,10.055 5.232,10.075 C5.259,10.095 5.278,10.121 5.290,10.152 C5.301,10.184 5.306,10.222 5.306,10.268 C5.306,10.291 5.309,10.348 5.314,10.440 C5.320,10.532 5.321,10.514 5.319,10.574 C5.316,10.634 5.307,10.702 5.294,10.776 C5.280,10.850 5.252,10.906 5.211,10.943 C5.169,10.981 5.113,10.999 5.041,10.999 L2.388,10.999 C1.730,10.999 1.168,10.757 0.701,10.273 C0.233,9.789 0.000,9.206 0.000,8.524 L0.000,2.474 C0.000,1.793 0.233,1.210 0.701,0.726 C1.168,0.241 1.730,-0.001 2.388,-0.001 L5.041,-0.001 C5.113,-0.001 5.175,0.027 5.227,0.081 C5.280,0.136 5.306,0.200 5.306,0.274 C5.306,0.297 5.309,0.355 5.314,0.446 C5.320,0.538 5.321,0.520 5.319,0.580 C5.316,0.640 5.307,0.708 5.294,0.782 C5.280,0.857 5.252,0.913 5.211,0.950 C5.169,0.987 5.113,1.006 5.041,1.006 L2.325,1.006 C1.960,1.006 1.648,1.140 1.388,1.410 C1.129,1.679 0.999,2.002 0.999,2.381 L0.967,8.649 C0.967,9.027 1.097,9.351 1.357,9.620 C1.617,9.890 1.929,10.024 2.294,10.024 Z" transform="translate(0 1)"/>
  </g>
</svg>
