<svg xmlns:xlink="http://www.w3.org/1999/xlink" xmlns="http://www.w3.org/2000/svg">
    <path d="M 45.44 38.04 L 44.14 38.43 L 44.01 38.88 C 43.82 39.52 43.55 40.11 43.2 40.66 L 42.94 41.06 L 43.51 42.32 C 43.65 42.65 43.56 43.03 43.29 43.25 L 42.53 43.86 C 42.28 44.07 41.86 44.08 41.58 43.89 L 40.48 43.11 L 40.04 43.29 C 39.63 43.45 39.21 43.57 38.78 43.66 C 38.57 43.7 38.35 43.73 38.13 43.75 L 37.66 43.79 L 37.01 45.02 C 36.85 45.32 36.48 45.49 36.14 45.41 L 35.2 45.19 C 34.86 45.11 34.61 44.81 34.59 44.46 L 34.53 43.11 L 34.12 42.87 C 33.54 42.54 33.02 42.13 32.58 41.66 L 32.25 41.31 L 30.88 41.56 C 30.54 41.62 30.18 41.42 30.03 41.11 L 29.63 40.24 C 29.48 39.92 29.57 39.55 29.83 39.32 L 30.86 38.43 L 30.8 37.96 C 30.79 37.93 30.79 37.91 30.79 37.88 C 30.71 37.25 30.71 36.62 30.81 36 L 30.88 35.53 L 29.85 34.62 C 29.59 34.38 29.51 33.99 29.67 33.67 L 30.11 32.81 C 30.27 32.5 30.6 32.33 30.97 32.4 L 32.3 32.67 L 32.63 32.32 C 33.09 31.85 33.61 31.45 34.18 31.13 L 34.59 30.9 L 34.69 29.52 C 34.71 29.17 34.98 28.87 35.33 28.8 L 36.27 28.62 C 36.64 28.55 36.96 28.73 37.12 29.04 L 37.73 30.25 L 38.21 30.3 C 38.27 30.3 38.34 30.32 38.4 30.33 C 38.83 30.39 39.26 30.48 39.67 30.62 L 40.11 30.77 L 41.21 29.91 C 41.44 29.73 41.92 29.73 42.16 29.91 L 42.93 30.49 C 43.21 30.7 43.32 31.07 43.19 31.4 L 42.7 32.66 L 42.98 33.05 C 43.37 33.58 43.67 34.16 43.89 34.78 L 44.04 35.23 L 45.39 35.56 C 45.73 35.65 45.98 35.95 45.98 36.31 L 46 37.27 C 46.01 37.62 45.78 37.93 45.44 38.04 L 45.44 38.04 Z M 41.44 36.11 C 41.09 34.27 39.48 32.93 37.62 32.88 C 37.34 32.87 37.05 32.89 36.77 32.95 C 34.81 33.32 33.46 35.08 33.54 37.01 C 33.54 37.21 33.56 37.41 33.6 37.61 C 33.96 39.48 35.61 40.84 37.52 40.84 C 37.77 40.84 38.02 40.82 38.27 40.77 C 39.32 40.57 40.23 39.98 40.82 39.09 C 41.42 38.21 41.64 37.15 41.44 36.11 L 41.44 36.11 Z M 35.88 26.91 L 34.99 27.09 C 33.87 27.31 33.03 28.26 32.95 29.4 L 32.91 29.85 C 32.49 30.12 32.09 30.43 31.72 30.77 L 31.31 30.69 C 30.2 30.47 29.07 31.02 28.56 32.02 L 28.12 32.88 C 27.6 33.89 27.83 35.13 28.68 35.91 L 29.02 36.2 C 28.97 36.7 28.97 37.19 29.01 37.69 L 28.69 37.94 L 9.45 37.94 C 4.43 37.94 0.36 33.99 0.36 29.05 L 0.36 9.43 C 0.36 4.49 4.43 0.49 9.45 0.49 L 29.41 0.49 C 34.43 0.49 38.38 4.49 38.38 9.43 L 38.38 27.96 C 37.88 27.15 36.9 26.71 35.88 26.91 L 35.88 26.91 Z M 9.36 17.47 L 7.86 17.47 L 7.86 15.28 C 7.86 15.07 7.58 14.9 7.36 14.9 C 7.15 14.9 6.86 15.07 6.86 15.28 L 6.86 17.47 L 5.36 17.47 L 5.36 16.29 C 5.36 16.08 5.32 15.9 5.11 15.9 C 4.9 15.9 4.86 16.08 4.86 16.29 L 4.86 17.47 L 3.06 17.47 C 2.85 17.47 2.68 17.5 2.68 17.72 C 2.68 17.93 2.85 17.97 3.06 17.97 L 4.86 17.97 L 4.86 19.3 C 4.86 19.51 4.9 19.69 5.11 19.69 C 5.32 19.69 5.36 19.51 5.36 19.3 L 5.36 17.97 L 6.86 17.97 L 6.86 20.29 C 6.86 20.5 7.15 20.67 7.36 20.67 C 7.58 20.67 7.86 20.5 7.86 20.29 L 7.86 17.97 L 9.36 17.97 L 9.36 17.47 L 9.36 17.47 Z M 19.44 7.1 C 18.75 7.1 18.31 7.66 18.31 8.36 C 18.31 8.94 18.37 9.43 19.37 9.57 L 19.37 13.47 L 19.87 13.47 L 19.87 9.57 C 20.37 9.43 20.76 8.94 20.76 8.36 C 20.76 7.66 20.14 7.1 19.44 7.1 L 19.44 7.1 Z M 28.88 18.12 L 28.88 17.45 L 28.88 14.47 L 9.86 14.47 L 9.86 17.46 L 9.86 18.11 L 9.86 20.85 C 9.86 24.65 14.13 27.95 19.14 27.95 L 19.38 27.95 C 24.59 27.95 28.88 24.52 28.88 20.58 L 28.88 18.12 L 28.88 18.12 Z M 35.8 17.47 L 34.38 17.47 L 34.38 16.29 C 34.38 16.08 34.09 15.9 33.88 15.9 C 33.67 15.9 33.38 16.08 33.38 16.29 L 33.38 17.47 L 31.88 17.47 L 31.88 15.28 C 31.88 15.07 31.84 14.9 31.63 14.9 C 31.41 14.9 31.38 15.07 31.38 15.28 L 31.38 17.47 L 29.38 17.47 L 29.38 17.97 L 31.38 17.97 L 31.38 20.29 C 31.38 20.5 31.41 20.67 31.63 20.67 C 31.84 20.67 31.88 20.5 31.88 20.29 L 31.88 17.97 L 33.38 17.97 L 33.38 19.3 C 33.38 19.51 33.67 19.69 33.88 19.69 C 34.09 19.69 34.38 19.51 34.38 19.3 L 34.38 17.97 L 35.8 17.97 C 36.01 17.97 36.18 17.93 36.18 17.72 C 36.18 17.5 36.01 17.47 35.8 17.47 L 35.8 17.47 Z M 23.64 22.43 C 22.2 22.43 21.04 21.26 21.04 19.83 C 21.04 18.39 22.2 17.22 23.64 17.22 C 25.08 17.22 26.25 18.39 26.25 19.83 C 26.25 21.26 25.08 22.43 23.64 22.43 L 23.64 22.43 Z M 22.19 19.83 L 22.19 19.83 C 22.19 19.03 22.84 18.38 23.64 18.38 C 22.84 18.38 22.19 19.03 22.19 19.83 L 22.19 19.83 Z M 24.21 18.49 C 24.03 18.42 23.84 18.38 23.64 18.38 C 22.84 18.38 22.19 19.03 22.19 19.83 C 22.19 20.43 22.56 20.94 23.08 21.16 C 23.25 21.24 23.44 21.28 23.64 21.28 C 24.44 21.28 25.1 20.63 25.1 19.83 C 25.1 19.23 24.73 18.71 24.21 18.49 C 24.73 18.71 25.1 19.23 25.1 19.83 C 25.1 20.23 24.93 20.59 24.67 20.85 C 24.93 20.59 25.1 20.23 25.1 19.83 C 25.1 19.23 24.73 18.71 24.21 18.49 L 24.21 18.49 Z M 14.66 23.44 C 12.67 23.44 11.05 21.82 11.05 19.83 C 11.05 17.83 12.67 16.21 14.66 16.21 C 16.66 16.21 18.28 17.83 18.28 19.83 C 18.28 21.82 16.66 23.44 14.66 23.44 L 14.66 23.44 Z M 14.66 17.37 C 13.3 17.37 12.2 18.47 12.2 19.83 C 12.2 21.18 13.3 22.29 14.66 22.29 C 16.02 22.29 17.13 21.18 17.13 19.83 C 17.13 18.47 16.02 17.37 14.66 17.37 L 14.66 17.37 Z M 14.66 17.37" />
</svg>