<svg xmlns="http://www.w3.org/2000/svg" xmlns:xlink="http://www.w3.org/1999/xlink" preserveAspectRatio="xMidYMid" width="15" height="15" viewBox="0 0 15 15">
  <path d="M13.665,12.010 C13.665,12.010 10.622,8.967 10.622,8.967 C10.606,8.950 10.587,8.939 10.570,8.924 C11.169,8.016 11.518,6.928 11.518,5.759 C11.518,2.578 8.940,-0.000 5.759,-0.000 C2.578,-0.000 -0.000,2.578 -0.000,5.759 C-0.000,8.940 2.578,11.518 5.759,11.518 C6.928,11.518 8.016,11.169 8.924,10.570 C8.939,10.587 8.950,10.606 8.966,10.622 C8.966,10.622 12.009,13.665 12.009,13.665 C12.467,14.122 13.208,14.122 13.665,13.665 C14.122,13.208 14.122,12.467 13.665,12.010 ZM5.759,9.522 C3.681,9.522 1.996,7.837 1.996,5.759 C1.996,3.681 3.681,1.996 5.759,1.996 C7.837,1.996 9.522,3.681 9.522,5.759 C9.522,7.837 7.837,9.522 5.759,9.522 Z"/>
</svg>
