<svg xmlns="http://www.w3.org/2000/svg" xmlns:xlink="http://www.w3.org/1999/xlink" preserveAspectRatio="xMidYMid" width="27" height="27" viewBox="0 0 27 27">
  <path d="M27.000,21.935 C26.999,23.329 26.504,24.520 25.515,25.510 C24.524,26.500 23.332,26.995 21.938,26.995 L5.063,26.995 C3.668,26.995 2.476,26.500 1.486,25.510 C0.495,24.519 0.000,23.327 0.000,21.932 L0.000,5.057 C0.000,3.663 0.495,2.471 1.486,1.480 C2.462,0.504 3.638,0.013 5.008,-0.000 L21.992,-0.000 C23.362,0.013 24.538,0.504 25.515,1.480 C26.504,2.470 26.999,3.662 27.000,5.055 L27.000,21.935 ZM22.017,7.255 C21.694,6.915 21.293,6.745 20.813,6.745 L6.188,6.745 C5.719,6.745 5.320,6.909 4.992,7.237 C4.664,7.565 4.500,7.964 4.500,8.432 C4.500,8.866 4.679,9.314 5.036,9.777 C5.394,10.240 5.789,10.618 6.223,10.911 C6.774,11.286 7.579,11.807 8.640,12.475 C9.700,13.143 10.459,13.630 10.916,13.934 C10.951,13.958 11.051,14.025 11.215,14.137 C11.379,14.248 11.502,14.330 11.584,14.383 C11.666,14.435 11.789,14.512 11.953,14.611 C12.117,14.711 12.255,14.787 12.366,14.840 C12.478,14.892 12.604,14.948 12.744,15.007 C12.885,15.065 13.017,15.109 13.140,15.139 C13.263,15.168 13.383,15.182 13.500,15.182 C13.617,15.182 13.738,15.168 13.861,15.139 C13.984,15.109 14.115,15.065 14.256,15.007 C14.397,14.948 14.523,14.892 14.634,14.840 C14.745,14.787 14.883,14.711 15.047,14.611 C15.211,14.512 15.334,14.435 15.416,14.383 C15.498,14.330 15.621,14.248 15.785,14.137 C15.949,14.025 16.049,13.958 16.084,13.934 L20.778,10.876 C21.188,10.606 21.577,10.240 21.947,9.777 C22.316,9.314 22.500,8.884 22.500,8.485 C22.500,8.005 22.339,7.595 22.017,7.255 ZM22.500,10.893 C22.137,11.304 21.762,11.626 21.375,11.860 C20.977,12.118 20.200,12.616 19.046,13.354 C17.892,14.093 17.004,14.673 16.383,15.095 C15.234,15.903 14.274,16.307 13.500,16.307 C12.727,16.307 11.766,15.903 10.617,15.095 C10.078,14.720 9.249,14.178 8.130,13.469 C7.011,12.760 6.176,12.218 5.625,11.843 C5.485,11.749 5.291,11.591 5.045,11.368 C4.799,11.146 4.617,10.987 4.500,10.893 L4.500,18.557 C4.500,19.026 4.664,19.425 4.992,19.753 C5.320,20.081 5.719,20.245 6.188,20.245 L20.813,20.245 C21.281,20.245 21.680,20.081 22.008,19.753 C22.336,19.425 22.500,19.026 22.500,18.557 L22.500,10.893 Z"/>
</svg>
