<svg xmlns="http://www.w3.org/2000/svg" xmlns:xlink="http://www.w3.org/1999/xlink" preserveAspectRatio="xMidYMid" width="12" height="12" viewBox="0 0 12 12">
  <path d="M5.976,11.996 C2.667,11.996 -0.016,9.314 -0.016,6.004 C-0.016,2.695 2.667,0.012 5.976,0.012 C9.285,0.012 11.968,2.695 11.968,6.004 C11.968,7.146 11.090,11.996 5.976,11.996 ZM5.977,1.184 C3.315,1.184 1.157,3.343 1.157,6.005 C1.157,8.667 3.315,10.826 5.977,10.826 C8.639,10.826 10.797,8.667 10.797,6.005 C10.797,3.343 8.639,1.184 5.977,1.184 ZM7.969,7.000 C7.969,7.000 6.969,7.000 6.969,7.000 C6.969,7.000 6.969,8.000 6.969,8.000 C6.969,8.552 6.521,9.000 5.969,9.000 C5.416,9.000 4.969,8.552 4.969,8.000 C4.969,8.000 4.969,7.000 4.969,7.000 C4.969,7.000 3.969,7.000 3.969,7.000 C3.417,7.000 2.969,6.552 2.969,6.000 C2.969,5.448 3.417,5.000 3.969,5.000 C3.969,5.000 4.969,5.000 4.969,5.000 C4.969,5.000 4.969,4.000 4.969,4.000 C4.969,3.448 5.416,3.000 5.969,3.000 C6.521,3.000 6.969,3.448 6.969,4.000 C6.969,4.000 6.969,5.000 6.969,5.000 C6.969,5.000 7.969,5.000 7.969,5.000 C8.521,5.000 8.969,5.448 8.969,6.000 C8.969,6.552 8.521,7.000 7.969,7.000 Z"/>
</svg>
