<svg xmlns="http://www.w3.org/2000/svg" xmlns:xlink="http://www.w3.org/1999/xlink" preserveAspectRatio="xMidYMid" width="26" height="25" viewBox="0 0 26 25">
  <path d="M25.000,25.000 C25.000,25.000 1.000,25.000 1.000,25.000 C0.448,25.000 -0.000,24.552 -0.000,24.000 C-0.000,24.000 -0.000,21.000 -0.000,21.000 C-0.000,20.448 0.448,20.000 1.000,20.000 C1.000,20.000 25.000,20.000 25.000,20.000 C25.552,20.000 26.000,20.448 26.000,21.000 C26.000,21.000 26.000,24.000 26.000,24.000 C26.000,24.552 25.552,25.000 25.000,25.000 ZM25.000,15.000 C25.000,15.000 1.000,15.000 1.000,15.000 C0.448,15.000 -0.000,14.552 -0.000,14.000 C-0.000,14.000 -0.000,11.000 -0.000,11.000 C-0.000,10.448 0.448,10.000 1.000,10.000 C1.000,10.000 25.000,10.000 25.000,10.000 C25.552,10.000 26.000,10.448 26.000,11.000 C26.000,11.000 26.000,14.000 26.000,14.000 C26.000,14.552 25.552,15.000 25.000,15.000 ZM25.000,5.000 C25.000,5.000 1.000,5.000 1.000,5.000 C0.448,5.000 -0.000,4.552 -0.000,4.000 C-0.000,4.000 -0.000,1.000 -0.000,1.000 C-0.000,0.448 0.448,0.000 1.000,0.000 C1.000,0.000 25.000,0.000 25.000,0.000 C25.552,0.000 26.000,0.448 26.000,1.000 C26.000,1.000 26.000,4.000 26.000,4.000 C26.000,4.552 25.552,5.000 25.000,5.000 Z"/>
</svg>
