<svg xmlns="http://www.w3.org/2000/svg" xmlns:xlink="http://www.w3.org/1999/xlink" preserveAspectRatio="xMidYMid" width="24" height="24" viewBox="0 0 24 24">
  <defs>
    <clipPath id="clip-path-1">
      <rect x="-1611" y="-1334" width="3296" height="2238"/>
    </clipPath>
  </defs>
  <g clip-path="url(#clip-path-1)">
    <path d="M22.000,18.000 L2.000,18.000 C0.895,18.000 -0.000,17.105 -0.000,16.000 C-0.000,14.895 0.895,14.000 2.000,14.000 L22.000,14.000 C23.104,14.000 24.000,14.895 24.000,16.000 L24.000,16.000 C24.000,17.105 23.104,18.000 22.000,18.000 ZM22.000,11.000 L2.000,11.000 C0.895,11.000 -0.000,10.105 -0.000,9.000 C-0.000,7.895 0.895,7.000 2.000,7.000 L22.000,7.000 C23.104,7.000 24.000,7.895 24.000,9.000 L24.000,9.000 C24.000,10.105 23.104,11.000 22.000,11.000 ZM24.000,2.000 C24.000,3.105 23.104,4.000 22.000,4.000 L2.000,4.000 C0.895,4.000 -0.000,3.105 -0.000,2.000 C-0.000,0.895 0.895,-0.000 2.000,-0.000 L22.000,-0.000 C23.104,-0.000 24.000,0.895 24.000,2.000 L24.000,2.000 Z" transform="translate(0 3)" />
  </g>
</svg>
