<svg xmlns="http://www.w3.org/2000/svg" xmlns:xlink="http://www.w3.org/1999/xlink" preserveAspectRatio="xMidYMid" width="15" height="12" viewBox="0 0 15 12">
  <path d="M5.990,0.010 C5.990,0.010 1.497,0.010 1.497,0.010 C0.674,0.010 -0.000,0.665 -0.000,1.465 C-0.000,1.465 -0.000,10.575 -0.000,10.575 C-0.000,11.376 0.674,12.031 1.497,12.031 C1.497,12.031 13.477,12.031 13.477,12.031 C14.300,12.031 14.974,11.376 14.974,10.575 C14.974,10.575 14.974,3.453 14.974,3.453 C14.974,2.652 14.300,1.997 13.477,1.997 C13.477,1.997 7.487,1.997 7.487,1.997 C7.487,1.997 5.990,0.010 5.990,0.010 Z"/>
</svg>
