<svg xmlns="http://www.w3.org/2000/svg" xmlns:xlink="http://www.w3.org/1999/xlink" preserveAspectRatio="xMidYMid" width="14" height="24" viewBox="0 0 14 24">
    <path d="M12.000,24.000 L2.000,24.000 C0.895,24.000 -0.000,23.104 -0.000,22.000 L-0.000,2.000 C-0.000,0.896 0.895,0.000 2.000,0.000 L12.000,0.000 C13.105,0.000 14.000,0.896 14.000,2.000 L14.000,22.000 C14.000,23.104 13.105,24.000 12.000,24.000 ZM10.500,22.000 C10.776,22.000 11.000,21.776 11.000,21.500 C11.000,21.224 10.776,21.000 10.500,21.000 C10.224,21.000 10.000,21.224 10.000,21.500 C10.000,21.776 10.224,22.000 10.500,22.000 ZM6.500,22.000 C6.776,22.000 7.000,21.776 7.000,21.500 C7.000,21.776 7.224,22.000 7.500,22.000 C7.776,22.000 8.000,21.776 8.000,21.500 C8.000,21.224 7.776,21.000 7.500,21.000 C7.224,21.000 7.000,21.224 7.000,21.500 C7.000,21.224 6.776,21.000 6.500,21.000 C6.224,21.000 6.000,21.224 6.000,21.500 C6.000,21.776 6.224,22.000 6.500,22.000 ZM3.500,22.000 C3.776,22.000 4.000,21.776 4.000,21.500 C4.000,21.224 3.776,21.000 3.500,21.000 C3.224,21.000 3.000,21.224 3.000,21.500 C3.000,21.776 3.224,22.000 3.500,22.000 ZM8.500,1.000 L5.500,1.000 C5.224,1.000 5.000,1.224 5.000,1.500 C5.000,1.776 5.224,2.000 5.500,2.000 L8.500,2.000 C8.776,2.000 9.000,1.776 9.000,1.500 C9.000,1.224 8.776,1.000 8.500,1.000 ZM12.000,3.000 L2.000,3.000 L2.000,19.000 L12.000,19.000 L12.000,3.000 Z" />
</svg>