<svg xmlns="http://www.w3.org/2000/svg" xmlns:xlink="http://www.w3.org/1999/xlink" preserveAspectRatio="xMidYMid" width="13" height="13" viewBox="0 0 13 13">
  <defs>
    <clipPath id="clip-path-1">
      <rect x="-1413" y="-1477" width="3296" height="2238"/>
    </clipPath>
  </defs>
  <g clip-path="url(#clip-path-1)">
    <path d="M0.871,1.022 L1.288,1.022 C1.424,1.022 1.601,0.907 1.646,0.790 L1.741,0.541 C1.887,0.161 2.327,0.000 2.765,0.000 L4.156,0.000 C4.554,0.000 5.030,0.223 5.265,0.518 L5.566,0.896 C5.666,1.023 5.933,0.991 6.104,0.991 L10.120,0.991 C10.600,0.991 10.991,1.507 10.991,1.948 L10.991,2.969 L12.137,2.969 C12.438,2.969 12.700,3.085 12.855,3.286 C13.011,3.488 13.043,3.878 12.943,4.139 L11.028,9.170 C10.851,9.635 10.292,10.000 9.755,10.000 L0.883,10.000 C0.582,10.000 0.320,9.885 0.165,9.683 C0.076,9.569 0.028,9.434 0.021,9.291 C0.008,9.257 0.000,9.220 0.000,9.182 L0.000,1.948 C0.000,1.507 0.391,1.022 0.871,1.022 ZM1.133,9.007 L9.506,9.007 C9.744,9.007 10.033,9.162 10.112,8.955 L11.933,4.143 C11.955,4.084 11.956,4.033 11.936,4.006 C11.915,3.979 11.861,3.962 11.793,3.962 L3.514,3.962 C3.276,3.962 2.987,4.151 2.908,4.358 L0.993,8.826 C0.971,8.885 0.970,8.937 0.991,8.964 C1.011,8.991 1.065,9.007 1.133,9.007 ZM0.956,6.393 L2.241,3.925 C2.419,3.459 2.978,2.969 3.514,2.969 L9.973,2.969 L9.973,2.136 C9.973,2.054 9.897,1.984 9.808,1.984 L6.104,1.984 C5.706,1.984 5.230,1.887 4.996,1.592 L4.695,1.213 C4.594,1.087 4.327,0.962 4.156,0.962 L2.765,0.962 C2.629,0.962 2.452,1.077 2.407,1.195 L2.312,1.444 C2.166,1.823 1.976,1.984 1.538,1.984 L1.121,1.984 C1.032,1.984 0.956,2.054 0.956,2.136 L0.956,6.393 Z" transform="translate(0 1.5)" />
  </g>
</svg>
