<svg xmlns="http://www.w3.org/2000/svg" xmlns:xlink="http://www.w3.org/1999/xlink" preserveAspectRatio="xMidYMid" width="17.94" height="18" viewBox="0 0 17.94 18">
  <defs>
    <clipPath id="clip-path-1">
      <rect x="-1367" y="-1408.69" width="3296" height="2238"/>
    </clipPath>
  </defs>
  <g clip-path="url(#clip-path-1)">
    <path d="M17.444,12.275 L14.940,12.275 L14.940,8.597 C14.940,8.267 14.858,7.967 14.693,7.696 C14.528,7.426 14.714,7.225 14.437,7.093 L12.478,6.163 C12.294,6.057 12.116,5.905 11.944,5.707 C12.169,5.364 12.624,4.985 12.750,4.569 C12.875,4.154 12.937,3.715 12.937,3.253 C12.937,2.950 12.911,2.660 12.859,2.383 C12.806,2.106 12.726,1.835 12.621,1.571 C12.793,1.452 12.696,1.357 12.894,1.284 C13.092,1.212 13.296,1.175 13.507,1.175 C13.824,1.175 14.120,1.245 14.397,1.383 C14.674,1.522 14.915,1.710 15.119,1.947 C15.324,2.185 15.485,2.465 15.604,2.788 C15.723,3.112 15.782,3.451 15.782,3.807 C15.782,4.309 15.670,4.767 15.446,5.183 C15.222,5.599 14.938,5.918 14.595,6.143 L17.622,7.587 C17.833,7.693 17.938,7.878 17.938,8.142 L17.938,11.681 C17.938,11.853 17.892,11.994 17.800,12.107 C17.707,12.219 17.589,12.275 17.444,12.275 ZM13.615,7.924 C13.879,8.056 14.011,8.280 14.011,8.597 L14.011,12.150 L14.011,12.605 C14.011,12.803 13.951,12.974 13.833,13.120 C13.714,13.265 13.562,13.337 13.378,13.337 L4.540,13.337 C4.368,13.337 4.223,13.265 4.105,13.120 C3.986,12.974 3.927,12.803 3.927,12.605 L3.927,12.150 L3.927,8.597 C3.927,8.280 4.059,8.056 4.322,7.924 L6.583,6.657 L7.652,6.163 C7.150,5.859 6.581,5.424 6.317,4.856 C6.066,4.355 5.941,3.821 5.941,3.253 C5.941,3.082 5.954,2.917 5.980,2.759 C6.007,2.600 6.040,2.448 6.079,2.303 C6.264,1.631 6.784,1.076 7.266,0.641 C7.747,0.206 8.304,-0.012 8.937,-0.012 C9.584,-0.012 10.151,0.212 10.639,0.661 C11.127,1.109 11.737,1.677 11.909,2.363 C11.975,2.693 12.008,2.989 12.008,3.253 C12.008,3.781 11.902,4.289 11.691,4.777 C11.428,5.371 10.764,5.819 10.263,6.123 L11.390,6.657 L13.615,7.924 ZM0.491,12.275 C0.346,12.275 0.227,12.219 0.135,12.107 C0.045,11.998 0.003,11.858 0.000,11.693 L0.000,8.124 C0.005,7.846 0.107,7.665 0.313,7.587 L3.379,6.163 C3.010,5.938 2.713,5.618 2.489,5.203 C2.264,4.787 2.152,4.322 2.152,3.807 C2.152,3.451 2.212,3.112 2.330,2.788 C2.449,2.465 2.611,2.185 2.815,1.947 C3.019,1.710 3.257,1.522 3.527,1.383 C3.798,1.245 4.091,1.175 4.407,1.175 C4.619,1.175 4.816,1.208 5.001,1.274 C5.186,1.340 5.176,1.426 5.347,1.532 C5.123,2.086 5.011,2.660 5.011,3.253 C5.011,3.715 5.077,4.160 5.209,4.589 C5.341,5.018 5.525,5.404 5.763,5.747 C5.618,5.905 5.654,6.031 5.495,6.123 L3.927,7.093 C3.636,7.225 3.409,7.426 3.244,7.696 C3.079,7.967 2.997,8.267 2.997,8.597 L2.997,12.275 L0.491,12.275 Z" transform="translate(0 2.33)" />
  </g>
</svg>
