<svg xmlns="http://www.w3.org/2000/svg" xmlns:xlink="http://www.w3.org/1999/xlink" preserveAspectRatio="xMidYMid" width="27" height="27" viewBox="0 0 27 27">
  <path d="M19.488,26.935 C19.162,26.891 18.795,26.811 18.386,26.696 C17.977,26.581 17.673,26.488 17.475,26.418 C17.277,26.347 16.922,26.216 16.411,26.024 C15.899,25.833 15.586,25.718 15.471,25.679 C14.218,25.232 13.099,24.701 12.115,24.088 C10.479,23.078 8.788,21.700 7.043,19.955 C5.298,18.210 3.920,16.520 2.911,14.883 C2.297,13.899 1.766,12.780 1.319,11.527 C1.281,11.412 1.166,11.099 0.974,10.588 C0.782,10.077 0.651,9.722 0.581,9.523 C0.510,9.325 0.418,9.022 0.303,8.613 C0.188,8.204 0.108,7.836 0.063,7.510 C0.021,7.204 0.003,6.887 -0.000,6.564 L-0.000,6.444 C0.011,5.287 0.333,4.118 0.974,2.936 C1.690,1.645 2.367,0.865 3.007,0.597 C3.326,0.456 3.764,0.322 4.320,0.194 C4.876,0.067 5.327,0.002 5.672,0.002 C5.851,0.002 5.985,0.022 6.075,0.060 C6.305,0.137 6.643,0.623 7.091,1.517 C7.232,1.760 7.423,2.106 7.666,2.553 C7.909,3.001 8.133,3.406 8.338,3.771 C8.542,4.135 8.740,4.477 8.932,4.796 C8.970,4.848 9.082,5.007 9.268,5.276 C9.453,5.544 9.590,5.771 9.680,5.957 C9.769,6.142 9.814,6.324 9.814,6.503 C9.814,6.759 9.632,7.078 9.268,7.462 C8.903,7.846 8.507,8.197 8.079,8.517 C7.650,8.836 7.254,9.175 6.890,9.533 C6.525,9.891 6.343,10.185 6.343,10.415 C6.343,10.530 6.375,10.674 6.439,10.847 C6.503,11.019 6.557,11.150 6.602,11.240 C6.647,11.329 6.736,11.483 6.871,11.700 C7.005,11.917 7.078,12.039 7.091,12.064 C8.062,13.816 9.175,15.318 10.428,16.571 C11.680,17.824 13.182,18.936 14.934,19.907 C14.960,19.920 15.081,19.994 15.298,20.128 C15.516,20.262 15.669,20.352 15.759,20.396 C15.848,20.441 15.979,20.495 16.152,20.559 C16.324,20.623 16.468,20.655 16.583,20.655 C16.813,20.655 17.107,20.473 17.465,20.109 C17.823,19.744 18.162,19.348 18.482,18.920 C18.801,18.492 19.153,18.095 19.536,17.731 C19.920,17.366 20.239,17.184 20.495,17.184 C20.674,17.184 20.856,17.229 21.042,17.319 C21.227,17.408 21.454,17.546 21.722,17.731 C21.991,17.916 22.151,18.028 22.202,18.066 C22.521,18.258 22.863,18.457 23.228,18.661 C23.592,18.865 23.998,19.089 24.445,19.332 C24.893,19.575 25.238,19.767 25.481,19.907 C26.376,20.355 26.862,20.694 26.938,20.924 C26.977,21.013 26.996,21.147 26.996,21.326 C26.996,21.671 26.932,22.122 26.804,22.678 C26.676,23.234 26.542,23.672 26.401,23.992 C26.133,24.631 25.353,25.309 24.062,26.024 C22.872,26.670 21.696,26.993 20.531,27.000 L20.458,27.000 C20.126,26.998 19.802,26.979 19.488,26.935 Z" />
</svg>
