<svg xmlns="http://www.w3.org/2000/svg" xmlns:xlink="http://www.w3.org/1999/xlink" preserveAspectRatio="xMidYMid" width="13" height="13" viewBox="0 0 13 13">
  <path d="M1.432,6.554 C1.104,6.880 0.572,6.880 0.244,6.554 C-0.084,6.228 -0.084,5.699 0.244,5.373 C0.244,5.373 5.403,0.245 5.403,0.245 C5.568,0.082 5.782,0.001 5.997,0.001 C6.213,0.001 6.428,0.082 6.592,0.245 C6.592,0.245 11.751,5.373 11.751,5.373 C12.079,5.699 12.079,6.228 11.751,6.554 C11.423,6.880 10.891,6.880 10.563,6.554 C10.563,6.554 5.997,2.017 5.997,2.017 C5.997,2.017 1.432,6.554 1.432,6.554 ZM5.997,7.215 C5.997,7.215 10.563,11.753 10.563,11.753 C10.891,12.079 11.423,12.079 11.751,11.753 C12.079,11.427 12.079,10.898 11.751,10.572 C11.751,10.572 6.592,5.444 6.592,5.444 C6.427,5.281 6.213,5.199 5.997,5.199 C5.782,5.199 5.567,5.281 5.403,5.444 C5.403,5.444 0.244,10.572 0.244,10.572 C-0.084,10.898 -0.084,11.427 0.244,11.753 C0.572,12.079 1.104,12.079 1.432,11.753 C1.432,11.753 5.997,7.215 5.997,7.215 Z"/>
</svg>
