<svg xmlns="http://www.w3.org/2000/svg" xmlns:xlink="http://www.w3.org/1999/xlink" preserveAspectRatio="xMidYMid" width="11" height="11" viewBox="0 0 11 11">
  <path d="M10.656,3.969 C10.656,3.969 7.000,3.969 7.000,3.969 C7.000,3.969 7.000,0.344 7.000,0.344 C7.000,0.154 6.846,0.000 6.656,0.000 C6.656,0.000 4.344,0.000 4.344,0.000 C4.154,0.000 4.000,0.154 4.000,0.344 C4.000,0.344 4.000,3.969 4.000,3.969 C4.000,3.969 0.344,3.969 0.344,3.969 C0.154,3.969 -0.000,4.123 -0.000,4.313 C-0.000,4.313 -0.000,6.656 -0.000,6.656 C-0.000,6.846 0.154,7.000 0.344,7.000 C0.344,7.000 4.000,7.000 4.000,7.000 C4.000,7.000 4.000,10.656 4.000,10.656 C4.000,10.846 4.154,11.000 4.344,11.000 C4.344,11.000 6.656,11.000 6.656,11.000 C6.846,11.000 7.000,10.846 7.000,10.656 C7.000,10.656 7.000,7.000 7.000,7.000 C7.000,7.000 10.656,7.000 10.656,7.000 C10.846,7.000 11.000,6.846 11.000,6.656 C11.000,6.656 11.000,4.313 11.000,4.313 C11.000,4.123 10.846,3.969 10.656,3.969 Z"/>
</svg>
