<svg xmlns="http://www.w3.org/2000/svg" xmlns:xlink="http://www.w3.org/1999/xlink" preserveAspectRatio="xMidYMid" width="13" height="13" viewBox="0 0 13 13">
  <defs>
    <clipPath id="clip-path-1">
      <rect x="-1481" y="-1565" width="3296" height="2238"/>
    </clipPath>
  </defs>
  <g clip-path="url(#clip-path-1)">
    <path d="M10.656,7.000 L7.000,7.000 L7.000,10.656 C7.000,10.846 6.846,11.000 6.656,11.000 L4.344,11.000 C4.154,11.000 4.000,10.846 4.000,10.656 L4.000,7.000 L0.344,7.000 C0.154,7.000 0.000,6.846 0.000,6.656 L0.000,4.312 C0.000,4.123 0.154,3.969 0.344,3.969 L4.000,3.969 L4.000,0.344 C4.000,0.154 4.154,0.000 4.344,0.000 L6.656,0.000 C6.846,0.000 7.000,0.154 7.000,0.344 L7.000,3.969 L10.656,3.969 C10.846,3.969 11.000,4.123 11.000,4.312 L11.000,6.656 C11.000,6.846 10.846,7.000 10.656,7.000 Z" transform="translate(1 1)" />
  </g>
</svg>
