<svg xmlns="http://www.w3.org/2000/svg" xmlns:xlink="http://www.w3.org/1999/xlink" preserveAspectRatio="xMidYMid" width="13" height="13" viewBox="0 0 13 13">
  <defs>
    <clipPath id="clip-path-1">
      <rect x="-1513" y="-1474" width="3296" height="2238"/>
    </clipPath>
  </defs>
  <g clip-path="url(#clip-path-1)">
    <path d="M9.000,3.500 L9.000,6.000 L10.000,6.000 C10.552,6.000 11.000,6.448 11.000,7.000 L11.000,12.000 C11.000,12.552 10.552,13.000 10.000,13.000 L1.000,13.000 C0.448,13.000 0.000,12.552 0.000,12.000 L0.000,7.000 C0.000,6.448 0.448,6.000 1.000,6.000 L2.000,6.000 L2.000,3.500 C2.000,1.567 3.567,0.000 5.500,0.000 C7.433,0.000 9.000,1.567 9.000,3.500 ZM7.000,4.313 C7.000,2.932 6.881,1.906 5.500,1.906 C4.119,1.906 4.000,3.026 4.000,4.406 L4.000,6.000 L7.000,6.000 L7.000,4.313 Z" transform="translate(1)" />
  </g>
</svg>
