<svg xmlns="http://www.w3.org/2000/svg" xmlns:xlink="http://www.w3.org/1999/xlink" preserveAspectRatio="xMidYMid" width="11" height="13" viewBox="0 0 11 13">
  <path d="M10.000,13.000 C10.000,13.000 1.000,13.000 1.000,13.000 C0.448,13.000 -0.000,12.552 -0.000,12.000 C-0.000,12.000 -0.000,7.000 -0.000,7.000 C-0.000,6.448 0.448,6.000 1.000,6.000 C1.000,6.000 2.000,6.000 2.000,6.000 C2.000,6.000 2.000,3.500 2.000,3.500 C2.000,1.567 3.567,-0.000 5.500,-0.000 C7.433,-0.000 9.000,1.567 9.000,3.500 C9.000,3.500 9.000,6.000 9.000,6.000 C9.000,6.000 10.000,6.000 10.000,6.000 C10.552,6.000 11.000,6.448 11.000,7.000 C11.000,7.000 11.000,12.000 11.000,12.000 C11.000,12.552 10.552,13.000 10.000,13.000 ZM7.000,4.312 C7.000,2.932 6.881,1.906 5.500,1.906 C4.119,1.906 4.000,3.026 4.000,4.406 C4.000,4.406 4.000,6.000 4.000,6.000 C4.000,6.000 7.000,6.000 7.000,6.000 C7.000,6.000 7.000,4.312 7.000,4.312 Z"/>
</svg>
