<svg xmlns="http://www.w3.org/2000/svg" xmlns:xlink="http://www.w3.org/1999/xlink" preserveAspectRatio="xMidYMid" width="25" height="20" viewBox="0 0 25 20">
  <path d="M22.936,6.914 C22.936,6.914 1.098,6.914 1.098,6.914 C-0.010,6.914 -0.065,7.454 -0.005,8.113 C-0.005,8.113 0.988,18.738 0.988,18.738 C1.049,19.398 1.205,19.937 2.312,19.937 C2.312,19.937 21.722,19.937 21.722,19.937 C22.851,19.937 22.985,19.398 23.045,18.739 C23.045,18.739 24.039,8.113 24.039,8.113 C24.099,7.454 24.044,6.914 22.936,6.914 ZM22.134,4.047 C22.001,3.517 21.346,2.928 20.678,2.928 C20.678,2.928 12.475,2.928 12.475,2.928 C11.808,2.928 10.875,2.702 10.403,2.235 C10.403,2.235 9.686,1.526 9.686,1.526 C9.213,1.059 8.280,-0.011 7.613,-0.011 C7.613,-0.011 3.694,-0.011 3.694,-0.011 C3.027,-0.011 2.421,1.215 2.347,1.873 C2.347,1.873 1.995,4.916 1.995,4.916 C1.995,4.916 22.377,4.916 22.377,4.916 C22.377,4.916 22.134,4.047 22.134,4.047 Z"/>
</svg>
