<svg xmlns="http://www.w3.org/2000/svg" xmlns:xlink="http://www.w3.org/1999/xlink" preserveAspectRatio="xMidYMid" width="13" height="13" viewBox="0 0 13 13">
  <defs>
    <clipPath id="clip-path-1">
      <rect x="-1125" y="-1477" width="3296" height="2238"/>
    </clipPath>
  </defs>
  <g clip-path="url(#clip-path-1)">
    <path d="M10.833,10.000 C10.833,10.000 9.098,10.000 8.195,10.000 C8.012,10.000 8.001,9.823 8.001,9.823 L8.001,7.224 C8.001,7.098 8.114,6.995 8.251,6.995 L9.299,6.995 C9.436,6.995 9.481,6.912 9.400,6.811 L7.134,3.708 C7.052,3.607 6.919,3.607 6.837,3.708 L4.535,6.811 C4.453,6.912 4.499,6.995 4.636,6.995 L5.746,6.995 C5.884,6.995 5.996,7.098 5.996,7.224 L5.996,9.820 C5.996,9.820 5.987,10.000 5.810,10.000 C4.906,10.000 2.173,10.000 2.173,10.000 C0.976,10.000 0.006,7.244 0.006,6.081 C0.006,5.230 0.525,4.500 1.272,4.167 C1.366,2.843 2.497,1.954 3.883,1.954 C4.410,1.954 4.899,1.762 5.310,2.023 C5.845,0.837 7.062,0.009 8.479,0.009 C10.389,0.009 11.937,1.515 11.937,3.371 C11.937,3.601 11.913,3.826 11.868,4.042 C12.542,4.399 13.000,6.094 13.000,6.893 C13.000,8.057 12.030,10.000 10.833,10.000 Z" transform="translate(0 1.5)" />
  </g>
</svg>
