<svg xmlns="http://www.w3.org/2000/svg" xmlns:xlink="http://www.w3.org/1999/xlink" preserveAspectRatio="xMidYMid" width="24" height="16" viewBox="0 0 24 16">
  <path d="M24.000,11.331 C24.000,13.910 21.890,16.000 19.289,16.000 C19.289,16.000 4.711,16.000 4.711,16.000 C2.109,16.000 -0.000,13.910 -0.000,11.331 C-0.000,9.002 1.720,7.073 3.970,6.720 C3.942,6.556 3.926,6.388 3.926,6.215 C3.926,4.581 5.263,3.257 6.912,3.257 C7.647,3.257 8.321,3.520 8.841,3.959 C9.768,1.889 10.956,-0.000 14.290,-0.000 C18.333,-0.000 20.249,3.090 20.249,6.351 C20.249,6.487 20.243,6.622 20.234,6.756 C22.383,7.190 24.000,9.073 24.000,11.331 Z"/>
</svg>
