<svg xmlns="http://www.w3.org/2000/svg" xmlns:xlink="http://www.w3.org/1999/xlink" preserveAspectRatio="xMidYMid" width="12" height="13" viewBox="0 0 12 13">
  <path d="M9.668,8.447 C9.031,8.447 8.455,8.709 8.041,9.131 C8.041,9.131 4.464,7.053 4.464,7.053 C4.523,6.852 4.556,6.641 4.556,6.421 C4.556,6.212 4.525,6.010 4.472,5.818 C4.472,5.818 8.021,3.816 8.021,3.816 C8.437,4.250 9.021,4.521 9.668,4.521 C10.925,4.521 11.947,3.504 11.947,2.253 C11.947,1.003 10.925,-0.014 9.668,-0.014 C8.412,-0.014 7.390,1.003 7.390,2.253 C7.390,2.462 7.421,2.664 7.474,2.857 C7.474,2.857 3.925,4.859 3.925,4.859 C3.510,4.425 2.925,4.153 2.278,4.153 C1.021,4.153 -0.001,5.171 -0.001,6.421 C-0.001,7.672 1.021,8.689 2.278,8.689 C2.915,8.689 3.491,8.427 3.905,8.006 C3.905,8.006 7.482,10.084 7.482,10.084 C7.423,10.285 7.390,10.496 7.390,10.715 C7.390,11.966 8.412,12.983 9.668,12.983 C10.924,12.983 11.947,11.966 11.947,10.715 C11.947,9.464 10.924,8.447 9.668,8.447 Z"/>
</svg>
