<svg xmlns="http://www.w3.org/2000/svg" xmlns:xlink="http://www.w3.org/1999/xlink" preserveAspectRatio="xMidYMid" width="24" height="17" viewBox="0 0 24 17">
  <path d="M18.759,10.613 C19.112,10.789 19.288,11.089 19.288,11.513 C19.288,11.513 19.288,14.928 19.288,14.928 C19.288,14.928 19.288,15.537 19.288,15.537 C19.288,15.801 19.209,16.031 19.050,16.225 C18.891,16.419 18.688,16.516 18.441,16.516 C18.441,16.516 5.449,16.516 5.449,16.516 C5.219,16.516 5.025,16.419 4.866,16.225 C4.708,16.031 4.628,15.801 4.628,15.537 C4.628,15.537 4.628,14.928 4.628,14.928 C4.628,14.928 4.628,11.513 4.628,11.513 C4.628,11.089 4.805,10.789 5.157,10.613 C5.157,10.613 8.809,8.918 8.809,8.918 C8.809,8.918 10.238,8.256 10.238,8.256 C9.568,7.850 9.056,7.268 8.703,6.509 C8.368,5.839 8.201,5.124 8.201,4.365 C8.201,4.135 8.218,3.915 8.253,3.703 C8.289,3.491 8.333,3.288 8.386,3.094 C8.633,2.194 9.078,1.453 9.722,0.870 C10.366,0.288 11.111,-0.003 11.958,-0.003 C12.823,-0.003 13.581,0.297 14.234,0.897 C14.887,1.497 15.328,2.256 15.557,3.174 C15.645,3.615 15.689,4.012 15.689,4.365 C15.689,5.071 15.548,5.750 15.266,6.403 C14.913,7.197 14.401,7.798 13.731,8.203 C13.731,8.203 15.239,8.918 15.239,8.918 C15.239,8.918 18.759,10.613 18.759,10.613 C18.759,10.613 18.759,10.613 18.759,10.613 ZM4.628,9.501 C4.240,9.677 3.936,9.946 3.715,10.308 C3.495,10.670 3.385,11.071 3.385,11.513 C3.385,11.513 3.385,14.928 3.385,14.928 C3.385,14.928 0.659,14.928 0.659,14.928 C0.465,14.928 0.306,14.853 0.183,14.703 C0.059,14.553 -0.003,14.363 -0.003,14.134 C-0.003,14.134 -0.003,10.904 -0.003,10.904 C-0.003,10.515 0.139,10.268 0.421,10.163 C0.421,10.163 4.522,8.256 4.522,8.256 C4.028,7.956 3.631,7.528 3.332,6.972 C3.032,6.417 2.882,5.794 2.882,5.106 C2.882,4.630 2.961,4.175 3.120,3.743 C3.279,3.310 3.495,2.935 3.768,2.618 C4.042,2.300 4.359,2.048 4.721,1.863 C5.082,1.678 5.475,1.585 5.898,1.585 C6.181,1.585 6.445,1.629 6.692,1.717 C6.939,1.806 7.177,1.920 7.407,2.062 C7.107,2.803 6.957,3.571 6.957,4.365 C6.957,4.983 7.045,5.578 7.221,6.152 C7.398,6.725 7.645,7.242 7.962,7.700 C7.768,7.912 7.565,8.080 7.354,8.203 C7.354,8.203 4.628,9.501 4.628,9.501 ZM23.575,10.163 C23.857,10.304 23.998,10.551 23.998,10.904 C23.998,10.904 23.998,14.134 23.998,14.134 C23.998,14.363 23.936,14.553 23.813,14.703 C23.689,14.853 23.531,14.928 23.337,14.928 C23.337,14.928 20.532,14.928 20.532,14.928 C20.532,14.928 20.532,11.513 20.532,11.513 C20.532,11.071 20.421,10.670 20.201,10.308 C19.980,9.946 19.685,9.677 19.314,9.501 C19.314,9.501 16.695,8.256 16.695,8.256 C16.448,8.115 16.210,7.912 15.980,7.648 C16.280,7.189 16.514,6.681 16.682,6.125 C16.849,5.569 16.933,4.983 16.933,4.365 C16.933,3.959 16.898,3.571 16.827,3.200 C16.756,2.829 16.651,2.468 16.510,2.115 C16.739,1.956 16.986,1.828 17.250,1.731 C17.515,1.634 17.789,1.585 18.071,1.585 C18.494,1.585 18.891,1.678 19.262,1.863 C19.632,2.048 19.954,2.300 20.227,2.618 C20.501,2.935 20.717,3.310 20.876,3.743 C21.035,4.175 21.114,4.630 21.114,5.106 C21.114,5.777 20.964,6.390 20.664,6.946 C20.364,7.502 19.985,7.930 19.526,8.230 C19.526,8.230 23.575,10.163 23.575,10.163 C23.575,10.163 23.575,10.163 23.575,10.163 Z"/>
</svg>
