<svg xmlns="http://www.w3.org/2000/svg" xmlns:xlink="http://www.w3.org/1999/xlink" preserveAspectRatio="xMidYMid" width="11" height="13" viewBox="0 0 11 13">
  <path d="M-0.009,1.979 C-0.009,1.979 -0.009,1.457 -0.009,1.457 C-0.009,1.195 0.200,0.983 0.458,0.983 C0.458,0.983 3.662,0.983 3.662,0.983 C3.662,0.983 3.662,0.149 3.662,0.149 C3.662,0.061 3.732,-0.010 3.818,-0.010 C3.818,-0.010 7.182,-0.010 7.182,-0.010 C7.268,-0.010 7.338,0.061 7.338,0.149 C7.338,0.149 7.338,0.983 7.338,0.983 C7.338,0.983 10.542,0.983 10.542,0.983 C10.800,0.983 11.009,1.195 11.009,1.457 C11.009,1.457 11.009,1.979 11.009,1.979 C11.009,1.979 -0.009,1.979 -0.009,1.979 ZM9.950,12.311 C9.933,12.716 8.957,12.959 8.558,12.959 C8.558,12.959 1.794,12.913 1.794,12.913 C1.395,12.913 1.188,12.499 1.172,12.094 C1.172,12.094 0.788,2.991 0.788,2.991 C0.788,2.991 10.212,2.991 10.212,2.991 C10.212,2.991 9.950,12.311 9.950,12.311 ZM2.037,3.973 C2.037,3.973 2.158,11.347 2.158,11.347 C2.175,11.752 2.396,11.956 2.795,11.956 C2.795,11.956 8.313,11.937 8.313,11.937 C8.712,11.937 8.921,11.546 8.938,11.141 C8.938,11.141 9.050,3.960 9.050,3.960 C9.050,3.960 2.037,3.973 2.037,3.973 ZM7.763,11.018 C7.763,11.018 7.279,11.018 7.279,11.018 C7.113,11.018 6.977,10.881 6.977,10.711 C6.977,10.711 6.977,5.290 6.977,5.290 C6.977,5.120 7.113,4.983 7.279,4.983 C7.279,4.983 7.763,4.983 7.763,4.983 C7.930,4.983 8.065,5.120 8.065,5.290 C8.065,5.290 8.065,10.711 8.065,10.711 C8.065,10.881 7.930,11.018 7.763,11.018 ZM5.742,11.018 C5.742,11.018 5.258,11.018 5.258,11.018 C5.092,11.018 4.956,10.881 4.956,10.711 C4.956,10.711 4.956,5.290 4.956,5.290 C4.956,5.120 5.092,4.983 5.258,4.983 C5.258,4.983 5.742,4.983 5.742,4.983 C5.908,4.983 6.044,5.120 6.044,5.290 C6.044,5.290 6.044,10.711 6.044,10.711 C6.044,10.881 5.908,11.018 5.742,11.018 ZM3.721,11.018 C3.721,11.018 3.237,11.018 3.237,11.018 C3.070,11.018 2.935,10.881 2.935,10.711 C2.935,10.711 2.935,5.290 2.935,5.290 C2.935,5.120 3.070,4.983 3.237,4.983 C3.237,4.983 3.721,4.983 3.721,4.983 C3.887,4.983 4.023,5.120 4.023,5.290 C4.023,5.290 4.023,10.711 4.023,10.711 C4.023,10.881 3.887,11.018 3.721,11.018 Z"/>
</svg>
