<svg xmlns="http://www.w3.org/2000/svg" xmlns:xlink="http://www.w3.org/1999/xlink" preserveAspectRatio="xMidYMid" width="24" height="24" viewBox="0 0 24 24">
  <defs>
    <clipPath id="clip-path-1">
      <rect x="-1438.515" y="-1329.515" width="3296" height="2238"/>
    </clipPath>
  </defs>
  <g clip-path="url(#clip-path-1)">
    <path d="M19.662,16.071 L19.007,16.071 C19.025,15.852 19.035,15.632 19.035,15.411 L19.035,10.976 L19.662,10.976 C20.417,10.976 21.030,11.579 21.030,12.323 L21.030,14.723 C21.030,15.468 20.417,16.071 19.662,16.071 ZM12.289,1.760 C12.289,2.416 11.924,2.988 11.384,3.291 L11.384,3.571 L11.384,4.090 L11.384,4.610 C14.714,5.012 17.620,7.662 17.926,10.972 C17.946,11.186 17.956,11.402 17.956,11.620 L17.956,16.266 L17.956,19.985 L13.994,19.985 L13.994,18.765 C13.994,18.338 13.642,17.992 13.208,17.992 L7.793,17.992 C7.359,17.992 7.007,18.338 7.007,18.765 L7.007,19.985 L2.982,19.985 L2.982,16.264 L2.982,11.620 C2.982,11.403 2.993,11.188 3.013,10.975 C3.317,7.664 6.286,5.013 9.617,4.610 L9.617,4.090 L9.617,3.571 L9.617,3.291 C9.077,2.988 8.712,2.416 8.712,1.760 C8.712,0.789 9.510,0.003 10.495,-0.000 L10.506,-0.000 C11.491,0.003 12.289,0.789 12.289,1.760 ZM14.241,15.178 C15.319,15.178 16.193,14.318 16.193,13.256 C16.193,12.195 15.319,11.334 14.241,11.334 C13.163,11.334 12.289,12.195 12.289,13.256 C12.289,14.318 13.163,15.178 14.241,15.178 ZM7.041,11.334 C5.963,11.334 5.089,12.195 5.089,13.256 C5.089,14.318 5.963,15.178 7.041,15.178 C8.119,15.178 8.993,14.318 8.993,13.256 C8.993,12.195 8.119,11.334 7.041,11.334 ZM1.747,20.985 L7.288,20.985 L13.713,20.985 L19.192,20.985 L19.292,20.985 C19.658,20.985 19.955,21.277 19.954,21.637 L19.954,23.348 C19.954,23.708 19.658,24.000 19.292,24.000 L1.646,24.000 C1.281,24.000 0.984,23.708 0.984,23.348 L0.984,21.637 C0.984,21.277 1.281,20.985 1.646,20.985 L1.747,20.985 ZM0.001,14.708 L0.001,12.308 C0.001,11.564 0.614,10.961 1.370,10.961 L2.024,10.961 C2.006,11.179 1.997,11.399 1.997,11.620 L1.997,16.056 L1.370,16.056 C0.614,16.056 0.001,15.452 0.001,14.708 Z" transform="translate(1.49)" />
  </g>
</svg>
