<svg xmlns="http://www.w3.org/2000/svg" xmlns:xlink="http://www.w3.org/1999/xlink" preserveAspectRatio="xMidYMid" width="13" height="13" viewBox="0 0 13 13">
  <path d="M10.671,5.336 C10.671,6.419 10.348,7.427 9.793,8.268 C9.809,8.282 9.826,8.293 9.841,8.308 L12.661,11.127 C13.084,11.550 13.084,12.237 12.661,12.661 C12.237,13.084 11.550,13.084 11.127,12.661 L8.307,9.841 C8.292,9.826 8.282,9.809 8.268,9.793 C7.426,10.348 6.419,10.672 5.336,10.672 C2.389,10.672 -0.000,8.283 -0.000,5.336 C-0.000,2.389 2.389,0.000 5.336,0.000 C8.283,0.000 10.671,2.389 10.671,5.336 ZM5.336,1.850 C3.410,1.850 1.850,3.410 1.850,5.336 C1.850,7.261 3.410,8.822 5.336,8.822 C7.261,8.822 8.822,7.261 8.822,5.336 C8.822,3.410 7.261,1.850 5.336,1.850 Z" />
</svg>
