<svg xmlns="http://www.w3.org/2000/svg" xmlns:xlink="http://www.w3.org/1999/xlink" preserveAspectRatio="xMidYMid" width="9" height="14" viewBox="0 0 9 14">
  <path d="M2.717,5.479 C2.723,4.761 2.116,4.153 1.383,4.139 C0.617,4.123 -0.008,4.725 -0.008,5.469 C-0.008,6.059 0.389,6.554 0.933,6.728 C0.933,6.728 0.933,7.234 0.933,7.234 C0.933,7.544 1.082,7.837 1.336,8.024 C1.336,8.024 3.959,9.952 3.959,9.952 C3.286,10.142 2.794,10.748 2.794,11.466 C2.794,12.336 3.516,13.041 4.407,13.041 C5.299,13.041 6.021,12.336 6.021,11.466 C6.021,10.741 5.519,10.130 4.835,9.947 C4.835,9.947 4.835,9.203 4.835,9.203 C4.835,9.203 7.243,7.570 7.243,7.570 C7.515,7.385 7.679,7.081 7.679,6.757 C7.679,6.757 7.679,6.058 7.679,6.058 C7.679,6.058 7.954,6.058 7.954,6.058 C8.353,6.058 8.677,5.741 8.677,5.351 C8.677,5.351 8.677,4.204 8.677,4.204 C8.677,3.814 8.353,3.497 7.954,3.497 C7.954,3.497 6.562,3.497 6.562,3.497 C6.162,3.497 5.838,3.814 5.838,4.204 C5.838,4.204 5.838,5.351 5.838,5.351 C5.838,5.741 6.162,6.058 6.562,6.058 C6.562,6.058 6.837,6.058 6.837,6.058 C6.837,6.058 6.837,6.845 6.837,6.845 C6.837,6.845 4.835,8.202 4.835,8.202 C4.835,8.202 4.835,3.026 4.835,3.026 C4.835,3.026 5.543,3.026 5.543,3.026 C6.050,3.026 6.362,2.484 6.100,2.060 C6.100,2.060 5.026,0.324 5.026,0.324 C4.747,-0.128 4.077,-0.131 3.792,0.317 C3.792,0.317 2.690,2.055 2.690,2.055 C2.420,2.479 2.733,3.026 3.244,3.026 C3.244,3.026 3.995,3.026 3.995,3.026 C3.995,3.026 3.995,8.948 3.995,8.948 C3.995,8.948 1.776,7.317 1.776,7.317 C1.776,7.317 1.776,6.728 1.776,6.728 C2.318,6.555 2.713,6.064 2.717,5.479 Z"/>
</svg>
