<svg xmlns="http://www.w3.org/2000/svg" xmlns:xlink="http://www.w3.org/1999/xlink" preserveAspectRatio="xMidYMid" width="13" height="13" viewBox="0 0 13 13">
  <path d="M13.000,7.456 C13.000,7.524 12.977,7.589 12.932,7.651 C12.887,7.713 12.831,7.750 12.763,7.761 L11.197,7.998 C11.090,8.303 10.980,8.559 10.867,8.768 C11.065,9.050 11.367,9.440 11.773,9.936 C11.829,10.004 11.858,10.074 11.858,10.148 C11.858,10.221 11.832,10.286 11.781,10.342 C11.629,10.551 11.350,10.856 10.943,11.256 C10.537,11.657 10.272,11.857 10.148,11.857 C10.080,11.857 10.007,11.832 9.928,11.781 L8.760,10.867 C8.512,10.997 8.255,11.104 7.990,11.189 C7.899,11.956 7.817,12.480 7.744,12.763 C7.705,12.921 7.603,13.000 7.440,13.000 L5.561,13.000 C5.482,13.000 5.412,12.976 5.353,12.928 C5.294,12.880 5.261,12.819 5.256,12.746 L5.019,11.189 C4.742,11.098 4.489,10.994 4.257,10.875 L3.064,11.781 C3.007,11.832 2.937,11.857 2.852,11.857 C2.773,11.857 2.703,11.826 2.641,11.764 C1.930,11.121 1.464,10.647 1.244,10.342 C1.205,10.286 1.185,10.221 1.185,10.148 C1.185,10.080 1.207,10.015 1.253,9.953 C1.337,9.834 1.481,9.647 1.684,9.390 C1.887,9.133 2.040,8.935 2.141,8.793 C1.989,8.511 1.873,8.232 1.794,7.956 L0.245,7.727 C0.172,7.716 0.113,7.681 0.068,7.621 C0.022,7.562 0.000,7.496 0.000,7.422 L0.000,5.544 C0.000,5.476 0.022,5.411 0.068,5.349 C0.113,5.287 0.166,5.250 0.229,5.239 L1.803,5.002 C1.882,4.743 1.992,4.483 2.133,4.223 C1.907,3.902 1.605,3.513 1.227,3.056 C1.171,2.988 1.143,2.920 1.143,2.852 C1.143,2.796 1.168,2.731 1.219,2.658 C1.365,2.455 1.643,2.151 2.052,1.748 C2.461,1.345 2.728,1.143 2.852,1.143 C2.926,1.143 2.999,1.171 3.072,1.227 L4.240,2.133 C4.489,2.003 4.745,1.896 5.010,1.811 C5.101,1.044 5.183,0.519 5.256,0.237 C5.295,0.079 5.397,0.000 5.561,0.000 L7.440,0.000 C7.518,0.000 7.588,0.024 7.647,0.072 C7.706,0.120 7.739,0.181 7.744,0.254 L7.981,1.811 C8.258,1.902 8.512,2.006 8.743,2.125 L9.945,1.219 C9.996,1.168 10.063,1.143 10.148,1.143 C10.221,1.143 10.292,1.171 10.359,1.227 C11.087,1.899 11.553,2.378 11.756,2.666 C11.795,2.711 11.815,2.773 11.815,2.852 C11.815,2.920 11.793,2.985 11.748,3.047 C11.663,3.166 11.519,3.353 11.316,3.610 C11.113,3.867 10.960,4.066 10.859,4.206 C11.005,4.489 11.121,4.765 11.206,5.036 L12.755,5.273 C12.828,5.284 12.887,5.319 12.932,5.379 C12.977,5.438 13.000,5.504 13.000,5.577 L13.000,7.456 ZM8.032,4.968 C7.609,4.545 7.098,4.333 6.500,4.333 C5.902,4.333 5.391,4.545 4.968,4.968 C4.545,5.391 4.333,5.902 4.333,6.500 C4.333,7.098 4.545,7.609 4.968,8.032 C5.391,8.455 5.902,8.667 6.500,8.667 C7.098,8.667 7.609,8.455 8.032,8.032 C8.455,7.609 8.667,7.098 8.667,6.500 C8.667,5.902 8.455,5.391 8.032,4.968 Z" />
</svg>
