<svg xmlns="http://www.w3.org/2000/svg" xmlns:xlink="http://www.w3.org/1999/xlink" preserveAspectRatio="xMidYMid" width="13" height="12.97" viewBox="0 0 13 12.97">
  <defs>
    <clipPath id="clip-path-1">
      <rect x="-1160.5" y="-1474.5" width="3296" height="2238"/>
    </clipPath>
  </defs>
  <g clip-path="url(#clip-path-1)">
    <path d="M7.391,10.717 C7.391,10.498 7.424,10.286 7.483,10.085 L3.907,8.007 C3.492,8.428 2.916,8.690 2.279,8.690 C1.023,8.690 0.001,7.673 0.001,6.423 C0.001,5.172 1.023,4.155 2.279,4.155 C2.927,4.155 3.511,4.426 3.926,4.860 L7.475,2.858 C7.422,2.665 7.391,2.464 7.391,2.255 C7.391,1.004 8.414,-0.013 9.670,-0.013 C10.926,-0.013 11.948,1.004 11.948,2.255 C11.948,3.505 10.926,4.523 9.670,4.523 C9.022,4.523 8.438,4.251 8.023,3.817 L4.473,5.819 C4.526,6.011 4.557,6.213 4.557,6.422 C4.557,6.642 4.524,6.853 4.466,7.054 L8.042,9.132 C8.456,8.711 9.033,8.448 9.669,8.448 C10.926,8.448 11.948,9.466 11.948,10.717 C11.948,11.918 11.002,12.894 9.814,12.970 L9.525,12.970 C8.337,12.894 7.391,11.918 7.391,10.717 Z" transform="translate(0.53)" />
  </g>
</svg>
