<svg xmlns="http://www.w3.org/2000/svg" xmlns:xlink="http://www.w3.org/1999/xlink" preserveAspectRatio="xMidYMid" width="24" height="24" viewBox="0 0 24 24">
  <defs>
    <clipPath id="clip-path-1">
      <rect x="-1103" y="-1334" width="3296" height="2238"/>
    </clipPath>
  </defs>
  <g clip-path="url(#clip-path-1)">
    <path d="M23.000,18.000 L1.000,18.000 C0.448,18.000 -0.000,17.552 -0.000,17.000 L-0.000,16.000 C-0.000,15.448 0.448,15.000 1.000,15.000 L23.000,15.000 C23.552,15.000 24.000,15.448 24.000,16.000 L24.000,17.000 C24.000,17.552 23.552,18.000 23.000,18.000 ZM1.000,-0.000 L15.000,-0.000 C15.552,-0.000 16.000,0.448 16.000,1.000 L16.000,2.000 C16.000,2.552 15.552,3.000 15.000,3.000 L1.000,3.000 C0.448,3.000 -0.000,2.552 -0.000,2.000 L-0.000,1.000 C-0.000,0.448 0.448,-0.000 1.000,-0.000 ZM1.000,5.000 L20.000,5.000 C20.552,5.000 21.000,5.448 21.000,6.000 L21.000,7.000 C21.000,7.552 20.552,8.000 20.000,8.000 L1.000,8.000 C0.448,8.000 -0.000,7.552 -0.000,7.000 L-0.000,6.000 C-0.000,5.448 0.448,5.000 1.000,5.000 ZM1.000,10.000 L17.000,10.000 C17.552,10.000 18.000,10.448 18.000,11.000 L18.000,12.000 C18.000,12.552 17.552,13.000 17.000,13.000 L1.000,13.000 C0.448,13.000 -0.000,12.552 -0.000,12.000 L-0.000,11.000 C-0.000,10.448 0.448,10.000 1.000,10.000 Z" transform="translate(0 3)" />
  </g>
</svg>
