<svg xmlns="http://www.w3.org/2000/svg" xmlns:xlink="http://www.w3.org/1999/xlink" preserveAspectRatio="xMidYMid" width="13" height="11" viewBox="0 0 13 11">
  <path d="M12.410,7.051 C12.171,7.051 11.977,7.241 11.977,7.474 C11.977,7.474 11.977,10.248 11.977,10.248 C11.977,10.248 0.992,10.248 0.992,10.248 C0.992,10.248 0.992,7.474 0.992,7.474 C0.992,7.241 0.672,7.051 0.433,7.051 C0.194,7.051 -0.000,7.241 -0.000,7.474 C-0.000,7.474 -0.000,10.858 -0.000,10.858 C-0.000,11.093 0.194,11.281 0.433,11.281 C0.433,11.281 12.567,11.281 12.567,11.281 C12.806,11.281 13.000,11.092 13.000,10.858 C13.000,10.858 13.000,7.474 13.000,7.474 C13.000,7.241 12.650,7.051 12.410,7.051 ZM4.210,3.968 C4.210,3.968 6.004,1.854 6.004,1.854 C6.004,1.854 6.004,8.320 6.004,8.320 C6.004,8.554 6.261,8.743 6.500,8.743 C6.739,8.743 6.996,8.554 6.996,8.320 C6.996,8.320 6.996,1.854 6.996,1.854 C6.996,1.854 8.790,3.968 8.790,3.968 C8.961,4.135 9.237,4.135 9.409,3.968 C9.579,3.801 9.579,3.250 9.409,3.083 C9.409,3.083 6.810,0.125 6.810,0.125 C6.724,0.041 6.613,0.000 6.500,0.000 C6.387,0.000 6.275,0.041 6.190,0.125 C6.190,0.125 3.592,3.083 3.592,3.083 C3.422,3.250 3.422,3.802 3.592,3.968 C3.763,4.135 4.040,4.135 4.210,3.968 Z"/>
</svg>
