<svg xmlns="http://www.w3.org/2000/svg" xmlns:xlink="http://www.w3.org/1999/xlink" preserveAspectRatio="xMidYMid" width="18" height="18" viewBox="0 0 18 18">
  <defs>
    <clipPath id="clip-path-1">
      <rect x="-1664" y="-1408" width="3296" height="2238"/>
    </clipPath>
  </defs>
  <g clip-path="url(#clip-path-1)">
    <path d="M18.000,1.782 C17.490,2.547 16.874,3.199 16.151,3.738 C16.158,3.848 16.162,4.012 16.162,4.230 C16.162,5.246 16.017,6.260 15.728,7.271 C15.439,8.283 14.999,9.254 14.409,10.184 C13.819,11.114 13.116,11.936 12.301,12.651 C11.486,13.366 10.504,13.936 9.354,14.362 C8.204,14.788 6.974,15.001 5.664,15.001 C3.601,15.001 1.713,14.434 -0.000,13.302 L-0.000,13.301 C0.266,13.332 0.563,13.348 0.890,13.348 C2.603,13.348 4.130,12.809 5.470,11.731 C4.671,11.715 3.955,11.463 3.323,10.975 C2.691,10.487 2.257,9.864 2.021,9.106 C2.272,9.145 2.504,9.164 2.717,9.164 C3.045,9.164 3.368,9.121 3.688,9.035 C2.835,8.856 2.129,8.420 1.569,7.729 C1.010,7.037 0.730,6.234 0.730,5.320 L0.730,5.273 C1.248,5.570 1.804,5.730 2.398,5.754 C1.895,5.410 1.495,4.961 1.198,4.406 C0.901,3.851 0.753,3.250 0.753,2.601 C0.753,1.914 0.920,1.277 1.255,0.691 C2.177,1.855 3.298,2.787 4.619,3.486 C5.940,4.185 7.355,4.574 8.863,4.652 C8.802,4.355 8.772,4.066 8.772,3.785 C8.772,2.738 9.131,1.845 9.851,1.107 C10.571,0.369 11.441,-0.001 12.461,-0.001 C13.527,-0.001 14.426,0.398 15.157,1.195 C15.987,1.031 16.768,0.726 17.499,0.281 C17.217,1.179 16.676,1.875 15.877,2.367 C16.584,2.289 17.292,2.094 18.000,1.781 L18.000,1.782 Z" transform="translate(0 1.5)" />
  </g>
</svg>
