<svg xmlns="http://www.w3.org/2000/svg" xmlns:xlink="http://www.w3.org/1999/xlink" preserveAspectRatio="xMidYMid" width="13" height="13" viewBox="0 0 13 13">
  <defs>
    <clipPath id="clip-path-1">
      <rect x="-1161" y="-1522.03" width="3296" height="2238"/>
    </clipPath>
  </defs>
  <g clip-path="url(#clip-path-1)">
    <path d="M12.774,7.963 C12.755,7.965 12.737,7.965 12.719,7.965 C12.608,7.965 12.505,7.904 12.461,7.803 C12.429,7.731 11.625,6.002 8.621,5.659 C7.995,5.587 7.245,5.549 6.335,5.542 L6.335,7.697 C6.335,7.797 6.278,7.887 6.186,7.935 C6.095,7.981 5.985,7.974 5.900,7.919 L0.127,4.192 C0.049,4.142 0.003,4.058 0.003,3.970 C0.003,3.881 0.049,3.800 0.127,3.747 L5.902,0.020 C5.988,-0.037 6.096,-0.041 6.189,0.006 C6.282,0.054 6.337,0.144 6.337,0.241 L6.337,2.246 C7.592,2.403 12.997,3.335 12.997,7.700 C12.997,7.827 12.904,7.937 12.774,7.963 Z" transform="translate(0 2.51)" />
  </g>
</svg>
