<svg xmlns="http://www.w3.org/2000/svg" xmlns:xlink="http://www.w3.org/1999/xlink" preserveAspectRatio="xMidYMid" width="13" height="13" viewBox="0 0 13 13">
  <defs>
    <clipPath id="clip-path-1">
      <rect x="-1377" y="-1520.72" width="3296" height="2238"/>
    </clipPath>
  </defs>
  <g clip-path="url(#clip-path-1)">
    <path d="M12.567,11.280 L0.433,11.280 C0.194,11.280 0.000,11.091 0.000,10.857 L0.000,7.473 C0.000,7.240 0.194,7.050 0.433,7.050 C0.673,7.050 0.992,7.240 0.992,7.473 L0.992,10.247 L11.977,10.247 L11.977,7.473 C11.977,7.240 12.171,7.050 12.410,7.050 C12.650,7.050 13.000,7.240 13.000,7.473 L13.000,10.857 C13.000,11.091 12.806,11.280 12.567,11.280 ZM6.500,8.742 C6.261,8.742 6.004,8.553 6.004,8.319 L6.004,1.853 L4.210,3.967 C4.040,4.134 3.763,4.134 3.592,3.967 C3.422,3.801 3.422,3.249 3.592,3.082 L6.190,0.124 C6.275,0.040 6.387,-0.001 6.500,-0.001 C6.613,-0.001 6.724,0.040 6.810,0.124 L9.409,3.082 C9.579,3.249 9.579,3.800 9.409,3.967 C9.237,4.133 8.960,4.133 8.790,3.967 L6.996,1.853 L6.996,8.319 C6.996,8.553 6.739,8.742 6.500,8.742 Z" transform="translate(0 0.86)" />
  </g>
</svg>
