<svg xmlns="http://www.w3.org/2000/svg" xmlns:xlink="http://www.w3.org/1999/xlink" preserveAspectRatio="xMidYMid" width="13" height="13" viewBox="0 0 13 13">
  <path d="M12.188,13.000 L0.812,13.000 C0.363,13.000 -0.000,12.637 -0.000,12.188 L-0.000,11.375 C0.965,9.344 2.438,8.938 2.438,8.938 L3.250,8.938 C4.147,8.938 4.875,8.210 4.875,7.312 L4.875,6.773 C4.552,6.386 4.297,5.942 4.143,5.462 C4.110,5.365 4.094,5.252 4.004,5.190 C3.651,4.900 3.554,4.357 3.774,3.959 C3.811,3.878 3.893,3.812 3.882,3.715 C3.884,3.229 3.878,2.743 3.886,2.258 C3.905,1.807 4.017,1.348 4.274,0.971 C4.565,0.537 5.035,0.244 5.534,0.118 C6.111,-0.029 6.721,-0.034 7.303,0.077 C7.764,0.165 8.211,0.369 8.536,0.713 C8.939,1.139 9.103,1.737 9.116,2.312 C9.119,2.788 9.117,3.265 9.117,3.742 C9.114,3.812 9.171,3.861 9.202,3.918 C9.436,4.291 9.375,4.816 9.064,5.127 C9.006,5.189 8.919,5.234 8.903,5.324 C8.742,5.858 8.484,6.363 8.125,6.791 L8.125,7.312 C8.125,8.210 8.853,8.938 9.750,8.938 L10.563,8.938 C10.563,8.938 12.035,9.344 13.000,11.375 L13.000,12.188 C13.000,12.637 12.637,13.000 12.188,13.000 Z" />
</svg>
