<svg xmlns="http://www.w3.org/2000/svg" xmlns:xlink="http://www.w3.org/1999/xlink" preserveAspectRatio="xMidYMid" width="13" height="13" viewBox="0 0 13 13">
  <path d="M10.562,8.938 C10.562,8.938 9.750,8.938 9.750,8.938 C8.853,8.938 8.125,8.210 8.125,7.313 C8.125,7.313 8.125,6.790 8.125,6.790 C8.484,6.363 8.742,5.858 8.903,5.324 C8.919,5.234 9.006,5.189 9.064,5.127 C9.375,4.816 9.436,4.291 9.202,3.918 C9.171,3.861 9.114,3.812 9.117,3.742 C9.117,3.265 9.119,2.788 9.116,2.312 C9.103,1.737 8.939,1.139 8.536,0.713 C8.211,0.369 7.764,0.165 7.303,0.077 C6.721,-0.034 6.111,-0.029 5.534,0.118 C5.035,0.244 4.565,0.537 4.274,0.971 C4.017,1.348 3.905,1.807 3.886,2.258 C3.878,2.743 3.884,3.229 3.882,3.715 C3.893,3.812 3.811,3.878 3.774,3.959 C3.554,4.357 3.651,4.900 4.004,5.190 C4.093,5.252 4.110,5.365 4.143,5.462 C4.297,5.942 4.552,6.386 4.875,6.773 C4.875,6.773 4.875,7.313 4.875,7.313 C4.875,8.210 4.147,8.938 3.250,8.938 C3.250,8.938 2.438,8.938 2.438,8.938 C2.438,8.938 0.965,9.344 0.000,11.375 C0.000,11.375 0.000,12.188 0.000,12.188 C0.000,12.637 0.363,13.000 0.812,13.000 C0.812,13.000 12.188,13.000 12.188,13.000 C12.637,13.000 13.000,12.637 13.000,12.188 C13.000,12.188 13.000,11.375 13.000,11.375 C12.035,9.344 10.562,8.938 10.562,8.938 Z"/>
</svg>
