<svg xmlns="http://www.w3.org/2000/svg" xmlns:xlink="http://www.w3.org/1999/xlink" preserveAspectRatio="xMidYMid" width="12" height="12" viewBox="0 0 12 12">
  <path d="M5.976,11.996 C2.667,11.996 -0.015,9.314 -0.015,6.004 C-0.015,2.695 2.667,0.013 5.976,0.013 C9.285,0.013 11.968,2.695 11.968,6.004 C11.968,7.146 11.089,11.996 5.976,11.996 ZM5.976,1.724 C3.613,1.724 1.696,3.641 1.696,6.004 C1.696,8.368 3.613,10.284 5.976,10.284 C8.340,10.284 10.256,8.368 10.256,6.004 C10.256,3.641 8.340,1.724 5.976,1.724 ZM7.969,7.000 C7.969,7.000 6.969,7.000 6.969,7.000 C6.969,7.000 6.969,8.000 6.969,8.000 C6.969,8.552 6.521,9.000 5.969,9.000 C5.416,9.000 4.969,8.552 4.969,8.000 C4.969,8.000 4.969,7.000 4.969,7.000 C4.969,7.000 3.969,7.000 3.969,7.000 C3.416,7.000 2.969,6.552 2.969,6.000 C2.969,5.448 3.416,5.000 3.969,5.000 C3.969,5.000 4.969,5.000 4.969,5.000 C4.969,5.000 4.969,4.000 4.969,4.000 C4.969,3.448 5.416,3.000 5.969,3.000 C6.521,3.000 6.969,3.448 6.969,4.000 C6.969,4.000 6.969,5.000 6.969,5.000 C6.969,5.000 7.969,5.000 7.969,5.000 C8.521,5.000 8.969,5.448 8.969,6.000 C8.969,6.552 8.521,7.000 7.969,7.000 Z"/>
</svg>
