<svg xmlns="http://www.w3.org/2000/svg" xmlns:xlink="http://www.w3.org/1999/xlink" preserveAspectRatio="xMidYMid" width="14" height="9" viewBox="0 0 14 9">
  <path d="M6.509,8.995 C3.631,8.995 1.150,7.079 0.011,4.630 C-0.024,4.555 -0.024,4.468 0.011,4.394 C1.150,1.945 3.631,-0.002 6.509,-0.002 C9.387,-0.002 11.867,1.945 13.007,4.394 C13.042,4.469 13.042,4.556 13.007,4.630 C11.867,7.079 9.387,8.995 6.509,8.995 ZM6.511,1.010 C4.576,1.010 3.006,2.570 3.006,4.497 C3.006,6.422 4.574,7.983 6.511,7.983 C8.445,7.983 10.015,6.422 10.015,4.497 C10.015,2.572 8.447,1.010 6.511,1.010 ZM6.510,6.198 C5.579,6.198 4.824,5.443 4.824,4.512 C4.824,3.581 5.579,2.826 6.510,2.826 C7.440,2.826 8.195,3.581 8.195,4.512 C8.195,5.443 7.440,6.198 6.510,6.198 Z"/>
</svg>
