<svg xmlns="http://www.w3.org/2000/svg" xmlns:xlink="http://www.w3.org/1999/xlink" preserveAspectRatio="xMidYMid" width="13" height="13" viewBox="0 0 13 13">
  <defs>
    <clipPath id="clip-path-1">
      <rect x="-1089" y="-1521" width="3296" height="2238"/>
    </clipPath>
  </defs>
  <g clip-path="url(#clip-path-1)">
    <path d="M0.105,10.480 L5.579,0.577 C5.956,-0.194 7.036,-0.194 7.414,0.577 L12.888,10.480 C13.234,11.176 12.741,12.000 11.975,12.000 L1.028,12.000 C0.262,12.000 -0.231,11.176 0.105,10.480 ZM5.579,9.698 C5.579,10.212 5.946,10.608 6.470,10.608 C6.994,10.608 7.362,10.212 7.362,9.698 L7.362,9.677 C7.362,9.163 6.994,8.767 6.470,8.767 C5.946,8.767 5.579,9.163 5.579,9.677 L5.579,9.698 ZM6.019,7.589 C6.051,7.878 6.239,8.060 6.501,8.060 C6.764,8.060 6.953,7.878 6.984,7.589 L7.435,3.564 C7.466,3.254 7.299,3.007 7.015,3.007 L5.988,3.007 C5.705,3.007 5.537,3.254 5.568,3.564 L6.019,7.589 Z" transform="translate(0 0.5)" />
  </g>
</svg>
