<svg xmlns="http://www.w3.org/2000/svg" xmlns:xlink="http://www.w3.org/1999/xlink" preserveAspectRatio="xMidYMid" width="12" height="12" viewBox="0 0 12 12">
  <path d="M6.000,11.992 C2.691,11.992 0.008,9.309 0.008,6.000 C0.008,2.691 2.691,0.008 6.000,0.008 C9.309,0.008 11.992,2.691 11.992,6.000 C11.992,7.141 11.113,11.992 6.000,11.992 ZM6.000,1.720 C3.637,1.720 1.720,3.637 1.720,6.000 C1.720,8.363 3.637,10.280 6.000,10.280 C8.363,10.280 10.280,8.363 10.280,6.000 C10.280,3.637 8.363,1.720 6.000,1.720 ZM7.493,7.996 C7.493,7.996 6.493,7.996 6.493,7.996 C6.216,7.996 5.993,7.772 5.993,7.496 C5.993,7.219 6.216,6.996 6.493,6.996 C6.493,6.996 6.993,6.996 6.993,6.996 C6.993,6.996 6.993,6.496 6.993,6.496 C6.993,6.219 7.216,5.996 7.493,5.996 C7.769,5.996 7.993,6.219 7.993,6.496 C7.993,6.496 7.993,7.496 7.993,7.496 C7.993,7.772 7.769,7.996 7.493,7.996 ZM6.993,5.496 C6.993,5.496 6.993,4.996 6.993,4.996 C6.993,4.996 6.493,4.996 6.493,4.996 C6.216,4.996 5.993,4.772 5.993,4.496 C5.993,4.219 6.216,3.996 6.493,3.996 C6.493,3.996 7.493,3.996 7.493,3.996 C7.769,3.996 7.993,4.219 7.993,4.496 C7.993,4.496 7.993,5.496 7.993,5.496 C7.993,5.772 7.769,5.996 7.493,5.996 C7.216,5.996 6.993,5.772 6.993,5.496 ZM5.493,4.996 C5.493,4.996 4.993,4.996 4.993,4.996 C4.993,4.996 4.993,5.558 4.993,5.558 C4.993,5.779 4.846,5.961 4.647,6.027 C4.846,6.093 4.993,6.274 4.993,6.496 C4.993,6.496 4.993,6.996 4.993,6.996 C4.993,6.996 5.493,6.996 5.493,6.996 C5.769,6.996 5.993,7.219 5.993,7.496 C5.993,7.772 5.769,7.996 5.493,7.996 C5.493,7.996 4.493,7.996 4.493,7.996 C4.216,7.996 3.993,7.772 3.993,7.496 C3.993,7.496 3.993,6.496 3.993,6.496 C3.993,6.274 4.139,6.093 4.338,6.027 C4.139,5.961 3.993,5.779 3.993,5.558 C3.993,5.558 3.993,4.496 3.993,4.496 C3.993,4.219 4.216,3.996 4.493,3.996 C4.493,3.996 5.493,3.996 5.493,3.996 C5.769,3.996 5.993,4.219 5.993,4.496 C5.993,4.772 5.769,4.996 5.493,4.996 Z"/>
</svg>
